G04 #@! TF.GenerationSoftware,KiCad,Pcbnew,9.0.1-9.0.1-0~ubuntu22.04.1*
G04 #@! TF.CreationDate,2025-04-13T11:09:06-04:00*
G04 #@! TF.ProjectId,TTExperimentModule,54544578-7065-4726-996d-656e744d6f64,1.0*
G04 #@! TF.SameCoordinates,PX10e4380PY2d07198*
G04 #@! TF.FileFunction,Copper,L3,Inr*
G04 #@! TF.FilePolarity,Positive*
%FSLAX46Y46*%
G04 Gerber Fmt 4.6, Leading zero omitted, Abs format (unit mm)*
G04 Created by KiCad (PCBNEW 9.0.1-9.0.1-0~ubuntu22.04.1) date 2025-04-13 11:09:06*
%MOMM*%
%LPD*%
G01*
G04 APERTURE LIST*
%ADD10C,0.200000*%
G04 #@! TA.AperFunction,NonConductor*
%ADD11C,0.200000*%
G04 #@! TD*
G04 #@! TA.AperFunction,ComponentPad*
%ADD12C,0.620000*%
G04 #@! TD*
G04 #@! TA.AperFunction,ComponentPad*
%ADD13R,1.000000X1.000000*%
G04 #@! TD*
G04 #@! TA.AperFunction,ComponentPad*
%ADD14C,1.000000*%
G04 #@! TD*
G04 #@! TA.AperFunction,ComponentPad*
%ADD15C,1.524000*%
G04 #@! TD*
G04 #@! TA.AperFunction,ComponentPad*
%ADD16C,4.000000*%
G04 #@! TD*
G04 #@! TA.AperFunction,ComponentPad*
%ADD17R,1.700000X1.700000*%
G04 #@! TD*
G04 #@! TA.AperFunction,ComponentPad*
%ADD18C,1.700000*%
G04 #@! TD*
G04 #@! TA.AperFunction,ComponentPad*
%ADD19O,1.000000X1.000000*%
G04 #@! TD*
G04 #@! TA.AperFunction,ViaPad*
%ADD20C,0.800000*%
G04 #@! TD*
G04 #@! TA.AperFunction,ViaPad*
%ADD21C,0.650000*%
G04 #@! TD*
G04 #@! TA.AperFunction,ViaPad*
%ADD22C,0.600000*%
G04 #@! TD*
G04 #@! TA.AperFunction,Conductor*
%ADD23C,0.250000*%
G04 #@! TD*
G04 #@! TA.AperFunction,Conductor*
%ADD24C,0.200000*%
G04 #@! TD*
G04 APERTURE END LIST*
D10*
D11*
X37245863Y-2091695D02*
X37741101Y-2091695D01*
X37741101Y-2091695D02*
X37474435Y-2396457D01*
X37474435Y-2396457D02*
X37588720Y-2396457D01*
X37588720Y-2396457D02*
X37664911Y-2434552D01*
X37664911Y-2434552D02*
X37703006Y-2472647D01*
X37703006Y-2472647D02*
X37741101Y-2548838D01*
X37741101Y-2548838D02*
X37741101Y-2739314D01*
X37741101Y-2739314D02*
X37703006Y-2815504D01*
X37703006Y-2815504D02*
X37664911Y-2853600D01*
X37664911Y-2853600D02*
X37588720Y-2891695D01*
X37588720Y-2891695D02*
X37360149Y-2891695D01*
X37360149Y-2891695D02*
X37283958Y-2853600D01*
X37283958Y-2853600D02*
X37245863Y-2815504D01*
D12*
G04 #@! TO.N,GND*
G04 #@! TO.C,STITCH1*
X29100000Y25450000D03*
G04 #@! TD*
D13*
G04 #@! TO.N,GND*
G04 #@! TO.C,J5*
X41200000Y3600000D03*
D14*
G04 #@! TO.N,/~{ctrl_sel_rst}*
X39930000Y3600000D03*
G04 #@! TO.N,/ctrl_sel_inc*
X38660000Y3600000D03*
G04 #@! TO.N,/ctrl_ena*
X37390000Y3600000D03*
G04 #@! TD*
D12*
G04 #@! TO.N,GND*
G04 #@! TO.C,STITCH1*
X29200000Y27400000D03*
G04 #@! TD*
G04 #@! TO.N,GND*
G04 #@! TO.C,STITCH1*
X20150000Y18000000D03*
G04 #@! TD*
G04 #@! TO.N,GND*
G04 #@! TO.C,STITCH1*
X4750000Y17900000D03*
G04 #@! TD*
G04 #@! TO.N,GND*
G04 #@! TO.C,STITCH1*
X3850000Y3050000D03*
G04 #@! TD*
D15*
G04 #@! TO.N,/vin1*
G04 #@! TO.C,PCB1*
X0Y27000000D03*
G04 #@! TO.N,SCL1*
X0Y19000000D03*
G04 #@! TO.N,SDA1*
X0Y11000000D03*
G04 #@! TO.N,GND*
X0Y3000000D03*
X45000000Y3000000D03*
G04 #@! TO.N,unconnected-(PCB1-SDA-Pad6)*
X45000000Y11000000D03*
G04 #@! TO.N,unconnected-(PCB1-SCL-Pad7)*
X45000000Y19000000D03*
G04 #@! TO.N,/vin2*
X45000000Y27000000D03*
D16*
G04 #@! TO.N,GND*
X22500000Y15000000D03*
G04 #@! TD*
D12*
G04 #@! TO.N,GND*
G04 #@! TO.C,STITCH1*
X19500000Y24600000D03*
G04 #@! TD*
D17*
G04 #@! TO.N,boot_mode*
G04 #@! TO.C,J2*
X18575000Y28500000D03*
D18*
G04 #@! TO.N,Net-(J2-Pin_2)*
X16035000Y28500000D03*
G04 #@! TD*
D12*
G04 #@! TO.N,GND*
G04 #@! TO.C,STITCH1*
X22050000Y27350000D03*
G04 #@! TD*
G04 #@! TO.N,GND*
G04 #@! TO.C,STITCH1*
X6650000Y1600000D03*
G04 #@! TD*
G04 #@! TO.N,GND*
G04 #@! TO.C,STITCH1*
X1600000Y27250000D03*
G04 #@! TD*
G04 #@! TO.N,GND*
G04 #@! TO.C,STITCH1*
X36500000Y24650000D03*
G04 #@! TD*
G04 #@! TO.N,GND*
G04 #@! TO.C,STITCH1*
X26400000Y18000000D03*
G04 #@! TD*
D13*
G04 #@! TO.N,GND*
G04 #@! TO.C,J6*
X15750000Y25500000D03*
D19*
G04 #@! TO.N,/RP2040/RUN*
X15750000Y24230000D03*
G04 #@! TD*
D12*
G04 #@! TO.N,GND*
G04 #@! TO.C,STITCH1*
X29200000Y29050000D03*
G04 #@! TD*
G04 #@! TO.N,GND*
G04 #@! TO.C,STITCH1*
X19500000Y22250000D03*
G04 #@! TD*
G04 #@! TO.N,GND*
G04 #@! TO.C,STITCH1*
X25550000Y15850000D03*
G04 #@! TD*
G04 #@! TO.N,GND*
G04 #@! TO.C,STITCH1*
X7650000Y28050000D03*
G04 #@! TD*
G04 #@! TO.N,GND*
G04 #@! TO.C,STITCH1*
X1850000Y1600000D03*
G04 #@! TD*
G04 #@! TO.N,GND*
G04 #@! TO.C,STITCH1*
X22100000Y29100000D03*
G04 #@! TD*
G04 #@! TO.N,GND*
G04 #@! TO.C,STITCH1*
X8800000Y3150000D03*
G04 #@! TD*
G04 #@! TO.N,GND*
G04 #@! TO.C,STITCH1*
X38750000Y24650000D03*
G04 #@! TD*
G04 #@! TO.N,GND*
G04 #@! TO.C,STITCH1*
X8800000Y1500000D03*
G04 #@! TD*
D13*
G04 #@! TO.N,GND*
G04 #@! TO.C,J1*
X1750000Y5250000D03*
D14*
G04 #@! TO.N,SDA1*
X1750000Y6520000D03*
G04 #@! TO.N,SCL1*
X1750000Y7790000D03*
G04 #@! TD*
D12*
G04 #@! TO.N,GND*
G04 #@! TO.C,STITCH1*
X26400000Y22300000D03*
G04 #@! TD*
D20*
G04 #@! TO.N,+3V3*
X2900000Y1000000D03*
X28600000Y900000D03*
X13795409Y21006071D03*
X14250000Y25550000D03*
D21*
X3300000Y21200000D03*
X18700000Y11175000D03*
X32800000Y4000000D03*
X1300000Y15800000D03*
X28300000Y11100000D03*
X1326000Y12800000D03*
X12100000Y825000D03*
X4500000Y20570000D03*
X27904972Y17975000D03*
D20*
X1000000Y26000000D03*
D21*
X31927578Y17438083D03*
X28575000Y6874912D03*
D20*
X10421899Y20939701D03*
D21*
X6600000Y15000000D03*
X26225000Y6810969D03*
X20600000Y25800000D03*
X5081491Y13127756D03*
D20*
X7210000Y20670605D03*
D21*
X28600000Y3900000D03*
X30200000Y6800000D03*
D20*
X37850000Y22591034D03*
X28061835Y22300000D03*
X2000000Y26000000D03*
D21*
X7600000Y825000D03*
D22*
X12536115Y15679237D03*
D21*
G04 #@! TO.N,GND*
X43300000Y11900000D03*
X42010677Y25812535D03*
X32800000Y22200000D03*
X12300000Y9000000D03*
X44175000Y25450000D03*
X33300000Y825000D03*
D22*
X20068203Y5630254D03*
D20*
X5000000Y29100000D03*
D22*
X6786118Y15818990D03*
D21*
X39100000Y6400000D03*
X11600000Y2900000D03*
D20*
X34750000Y29100000D03*
D21*
X13850000Y6550000D03*
X42700000Y19200000D03*
X37600000Y12650000D03*
D20*
X40000000Y29100000D03*
X33250000Y28250000D03*
D21*
X33360148Y24900000D03*
X16300000Y5800000D03*
X33900000Y22200000D03*
X35000000Y15200000D03*
X35050000Y10100000D03*
D22*
X18800000Y5650000D03*
D21*
X42000000Y23700000D03*
X14500000Y14400000D03*
X38850000Y10100000D03*
X16391702Y11451362D03*
X30000000Y3875000D03*
X14800000Y27200000D03*
X39500000Y825000D03*
X28660670Y16639330D03*
X35300000Y7300000D03*
X11350000Y8050000D03*
D22*
X12700000Y16500000D03*
D21*
X12250000Y11550000D03*
D20*
X16304712Y9526362D03*
D21*
X43300000Y11300000D03*
X6600000Y4400000D03*
D20*
X4000000Y29000000D03*
D21*
X32578971Y3126220D03*
X17100000Y15300000D03*
X10600000Y11750000D03*
X10550000Y10000000D03*
D20*
X41900000Y29100000D03*
D21*
X38850000Y15200000D03*
X4275000Y10718591D03*
D20*
X39750000Y27500000D03*
D21*
X31600000Y10100000D03*
X4275000Y12728285D03*
X36650000Y6937919D03*
X3176811Y20262528D03*
X5300000Y4700000D03*
D20*
X12000000Y28250000D03*
D21*
X17300000Y25500000D03*
X30800000Y22200000D03*
X36800000Y825000D03*
X30000000Y11100000D03*
D20*
X11000000Y28100000D03*
X10505000Y25550000D03*
D21*
X43300000Y14500000D03*
X31900000Y7700000D03*
X43724000Y15000000D03*
X43724000Y13909571D03*
D20*
X13500000Y27500000D03*
D22*
X19610573Y10667008D03*
D20*
G04 #@! TO.N,+5V*
X6748140Y25550000D03*
X9484139Y25550000D03*
X6700000Y17450000D03*
X4100000Y16900000D03*
D21*
G04 #@! TO.N,/ASIC/vdda_all*
X40330000Y7200000D03*
X43462500Y20100000D03*
X31700000Y11700000D03*
X33000000Y17800000D03*
X40775000Y19500000D03*
D22*
G04 #@! TO.N,/ASIC/vccd_all*
X33800000Y7000000D03*
D21*
X31800000Y22200000D03*
D20*
X37400000Y25600000D03*
D21*
X37259365Y21815289D03*
D20*
X32400000Y25550000D03*
X42163801Y21741039D03*
D21*
G04 #@! TO.N,/RP2040/DVDD*
X6855000Y13500000D03*
X7974207Y11793360D03*
X14800000Y13600000D03*
G04 #@! TO.N,SCL1*
X9607757Y7756000D03*
G04 #@! TO.N,SDA1*
X9476500Y5471952D03*
G04 #@! TO.N,boot_mode*
X19200000Y18000000D03*
X3600000Y6200000D03*
X12725000Y17689227D03*
X4946557Y16414302D03*
D22*
X6750000Y6250000D03*
G04 #@! TO.N,/RP2040/RUN*
X13186115Y11798518D03*
X15850000Y22150000D03*
D21*
G04 #@! TO.N,/~{ctrl_sel_rst}*
X30750000Y8800000D03*
X38046002Y7228467D03*
X26100000Y9500000D03*
X27425000Y9507229D03*
G04 #@! TO.N,/ctrl_sel_inc*
X23300000Y2700000D03*
D22*
G04 #@! TO.N,/mux_sel*
X24800000Y7850000D03*
X10457804Y7548516D03*
D21*
G04 #@! TO.N,/RP2040/QSPI_SD2*
X5871117Y24441060D03*
X5891242Y8490000D03*
X12405679Y24155000D03*
G04 #@! TO.N,/RP2040/QSPI_SD3*
X8387498Y9740361D03*
X6950000Y18950000D03*
G04 #@! TO.N,/RP2040/QSPI_SD0*
X8103854Y8890601D03*
X2725000Y9244202D03*
G04 #@! TO.N,/RP2040/QSPI_SD1*
X10453156Y23548126D03*
X2250000Y23500000D03*
X4050000Y7450000D03*
X6174518Y7076541D03*
D22*
G04 #@! TO.N,/ui_in0*
X12874043Y4225000D03*
X41351000Y4600000D03*
D21*
G04 #@! TO.N,/proj_clk*
X41623017Y22926742D03*
X8200000Y3905514D03*
X8672385Y22591766D03*
D22*
X41075000Y18564279D03*
D21*
G04 #@! TO.N,/~{proj_rst}*
X8300000Y26100000D03*
D22*
X9000000Y4600000D03*
D21*
X39300000Y25700000D03*
X40200000Y20300000D03*
D22*
G04 #@! TO.N,/uio1*
X11262007Y18023789D03*
X39053914Y18378257D03*
G04 #@! TO.N,/out0_~{rst}*
X9750000Y2200000D03*
X23972370Y1850798D03*
G04 #@! TO.N,/out2_ena*
X30100000Y1000000D03*
X10900000Y1450798D03*
G04 #@! TO.N,/uo_out0*
X27200000Y24500000D03*
X34522848Y24398308D03*
G04 #@! TO.N,/out1_inc*
X26703388Y3850000D03*
X10181018Y2900000D03*
G04 #@! TO.N,/uo_out2*
X31366734Y15319461D03*
X29353453Y15350000D03*
G04 #@! TO.N,/uo_out1*
X26550000Y16550000D03*
X31997709Y15889000D03*
G04 #@! TO.N,/ui_in4*
X22506191Y3145449D03*
X22711766Y12458805D03*
X15765253Y12911368D03*
X43700000Y800000D03*
G04 #@! TO.N,/uo_out6*
X22800000Y7600000D03*
X23950000Y12461749D03*
X15750000Y6600000D03*
X30800512Y12852527D03*
G04 #@! TO.N,/ui_in3*
X14675085Y3334378D03*
X43033528Y2829025D03*
D21*
G04 #@! TO.N,/ui_in7*
X42500000Y17100000D03*
D22*
X13349000Y17143545D03*
G04 #@! TO.N,/uo_out4*
X24891687Y14272095D03*
X31670616Y14020384D03*
X15500000Y5250000D03*
X23750000Y5800000D03*
G04 #@! TO.N,/uio2*
X38543264Y19057772D03*
X11123419Y18899837D03*
G04 #@! TO.N,/uo_out5*
X30090972Y13502527D03*
X26150000Y13529270D03*
X25100000Y8600000D03*
X13062289Y7805661D03*
G04 #@! TO.N,/uio6*
X7806380Y22716926D03*
X35980000Y23701000D03*
G04 #@! TO.N,/uo_out7*
X30741214Y11960000D03*
X15186123Y12106438D03*
G04 #@! TO.N,/ui_in5*
X14616391Y15817887D03*
X20937084Y6136996D03*
X43997958Y5041657D03*
X19300000Y16000000D03*
G04 #@! TO.N,/uio0*
X14950000Y21100000D03*
X39350000Y21100000D03*
X11970000Y12400000D03*
G04 #@! TO.N,/ui_in6*
X44200000Y5867298D03*
X21694288Y6750000D03*
X14680462Y16636018D03*
X20000000Y16700000D03*
G04 #@! TO.N,/uo_out3*
X30722818Y14764594D03*
X12185757Y7848368D03*
X24650000Y9350000D03*
X25700000Y14800000D03*
G04 #@! TO.N,/ui_in2*
X13987873Y2834133D03*
X42376043Y1500000D03*
G04 #@! TO.N,/uio4*
X37557653Y20434061D03*
X10150000Y19805345D03*
G04 #@! TO.N,/uio7*
X7446397Y23453198D03*
X35235055Y24025000D03*
G04 #@! TO.N,/ui_in1*
X13142044Y2750000D03*
D21*
X41800000Y2124000D03*
D22*
X41750000Y8250000D03*
G04 #@! TO.N,/uio3*
X9997385Y18504546D03*
X37986937Y19700426D03*
G04 #@! TO.N,/uio5*
X10114498Y21823513D03*
X36390380Y21750000D03*
G04 #@! TD*
D23*
G04 #@! TO.N,GND*
X41200000Y2700000D02*
X39500000Y1000000D01*
X39500000Y27500000D02*
X39750000Y27500000D01*
X38350000Y26350000D02*
X39500000Y27500000D01*
X38350000Y25050000D02*
X38350000Y26350000D01*
X38750000Y24650000D02*
X38350000Y25050000D01*
X39500000Y1000000D02*
X39500000Y825000D01*
X41200000Y3600000D02*
X41200000Y2700000D01*
G04 #@! TO.N,/ASIC/vdda_all*
X40330000Y7200000D02*
X40330000Y19055000D01*
X32900000Y17700000D02*
X33000000Y17800000D01*
X40330000Y19055000D02*
X40775000Y19500000D01*
X31700000Y11700000D02*
X32900000Y12900000D01*
X32900000Y12900000D02*
X32900000Y17700000D01*
G04 #@! TO.N,/ASIC/vccd_all*
X33700000Y7100000D02*
X33700000Y18900000D01*
X31800000Y20800000D02*
X31800000Y22200000D01*
X33800000Y7000000D02*
X33700000Y7100000D01*
X33700000Y18900000D02*
X31800000Y20800000D01*
D24*
G04 #@! TO.N,/RP2040/DVDD*
X7850000Y12450000D02*
X7850000Y11917567D01*
X7850000Y11917567D02*
X7974207Y11793360D01*
X6855000Y13445000D02*
X7850000Y12450000D01*
X6855000Y13500000D02*
X6855000Y13445000D01*
G04 #@! TO.N,boot_mode*
X4946557Y15946557D02*
X4946557Y16414302D01*
X3400000Y14400000D02*
X4946557Y15946557D01*
X3400000Y6400000D02*
X3400000Y14400000D01*
X3600000Y6200000D02*
X3400000Y6400000D01*
G04 #@! TO.N,/RP2040/RUN*
X13999000Y16814302D02*
X13999000Y19199000D01*
X13186115Y16001417D02*
X13999000Y16814302D01*
X15750000Y20950000D02*
X15750000Y24230000D01*
X13999000Y19199000D02*
X15750000Y20950000D01*
X13186115Y11798518D02*
X13186115Y16001417D01*
D23*
G04 #@! TO.N,/RP2040/QSPI_SD2*
X5891242Y8490000D02*
X5750000Y8631242D01*
X5891242Y24291242D02*
X5891242Y24420935D01*
X5891242Y24420935D02*
X5871117Y24441060D01*
X5750000Y8631242D02*
X5750000Y24150000D01*
X5750000Y24150000D02*
X5891242Y24291242D01*
D24*
G04 #@! TO.N,/RP2040/QSPI_SD3*
X6950000Y18650000D02*
X6950000Y18950000D01*
X8614498Y9967361D02*
X8614498Y16985502D01*
X8614498Y16985502D02*
X6950000Y18650000D01*
X8387498Y9740361D02*
X8614498Y9967361D01*
D23*
G04 #@! TO.N,/proj_clk*
X41623017Y22926742D02*
X41400000Y22703725D01*
X8922385Y22341766D02*
X8672385Y22591766D01*
X8300000Y8096796D02*
X9039498Y8836294D01*
X8922385Y17677615D02*
X8922385Y22341766D01*
X41400000Y22703725D02*
X41400000Y19864950D01*
X9039498Y8836294D02*
X9039498Y17560502D01*
X41400000Y19864950D02*
X41475000Y19789950D01*
X8200000Y3905514D02*
X8300000Y4005514D01*
X41475000Y19789950D02*
X41475000Y18964279D01*
X41475000Y18964279D02*
X41075000Y18564279D01*
X8300000Y4005514D02*
X8300000Y8096796D01*
X9039498Y17560502D02*
X8922385Y17677615D01*
D24*
G04 #@! TO.N,/~{proj_rst}*
X9600000Y17982692D02*
X9347385Y18235307D01*
X40200000Y24800000D02*
X39300000Y25700000D01*
X8801500Y4798500D02*
X8801500Y7995842D01*
X8300000Y24200000D02*
X8300000Y26100000D01*
X9347385Y23152615D02*
X8300000Y24200000D01*
X9000000Y4600000D02*
X8801500Y4798500D01*
X9347385Y18235307D02*
X9347385Y23152615D01*
X8801500Y7995842D02*
X9600000Y8794342D01*
X9600000Y8794342D02*
X9600000Y17982692D01*
X40200000Y20300000D02*
X40200000Y24800000D01*
G04 #@! TO.N,/uio0*
X11886115Y18036115D02*
X14950000Y21100000D01*
X11970000Y12400000D02*
X11886115Y12483885D01*
X11886115Y12483885D02*
X11886115Y18036115D01*
G04 #@! TO.N,/ui_in1*
X41750000Y8250000D02*
X42001000Y7999000D01*
X42001000Y7999000D02*
X42001000Y2325000D01*
X42001000Y2325000D02*
X41800000Y2124000D01*
G04 #@! TD*
G04 #@! TA.AperFunction,Conductor*
G04 #@! TO.N,GND*
G36*
X7681837Y17066911D02*
G01*
X7696102Y17054662D01*
X7801520Y16949245D01*
X7977679Y16773086D01*
X8011164Y16711763D01*
X8013998Y16685405D01*
X8013998Y13434599D01*
X7994313Y13367560D01*
X7941509Y13321805D01*
X7872351Y13311861D01*
X7808795Y13340886D01*
X7802317Y13346918D01*
X7716819Y13432416D01*
X7683334Y13493739D01*
X7680500Y13520097D01*
X7680500Y13581308D01*
X7648777Y13740784D01*
X7648776Y13740785D01*
X7648776Y13740789D01*
X7648774Y13740794D01*
X7586549Y13891020D01*
X7586547Y13891024D01*
X7496211Y14026221D01*
X7496205Y14026229D01*
X7381228Y14141206D01*
X7381220Y14141212D01*
X7246023Y14231548D01*
X7246021Y14231549D01*
X7242785Y14232889D01*
X7241351Y14234045D01*
X7240647Y14234421D01*
X7240718Y14234555D01*
X7188384Y14276733D01*
X7166322Y14343028D01*
X7183604Y14410726D01*
X7202563Y14435130D01*
X7241205Y14473772D01*
X7241208Y14473775D01*
X7319357Y14590734D01*
X7331547Y14608977D01*
X7331549Y14608981D01*
X7368286Y14697673D01*
X7393776Y14759211D01*
X7417574Y14878847D01*
X7425500Y14918693D01*
X7425500Y15081308D01*
X7393777Y15240784D01*
X7393776Y15240785D01*
X7393776Y15240789D01*
X7393774Y15240794D01*
X7331549Y15391020D01*
X7331547Y15391024D01*
X7241211Y15526221D01*
X7241205Y15526229D01*
X7126228Y15641206D01*
X7126220Y15641212D01*
X6991023Y15731548D01*
X6991019Y15731550D01*
X6840793Y15793775D01*
X6840783Y15793778D01*
X6681307Y15825500D01*
X6681305Y15825500D01*
X6518695Y15825500D01*
X6518694Y15825500D01*
X6512632Y15824903D01*
X6512377Y15827490D01*
X6454016Y15832755D01*
X6398870Y15875658D01*
X6375673Y15941564D01*
X6375500Y15948112D01*
X6375500Y16445311D01*
X6395185Y16512350D01*
X6447989Y16558105D01*
X6517147Y16568049D01*
X6523692Y16566928D01*
X6611306Y16549500D01*
X6611309Y16549500D01*
X6788693Y16549500D01*
X6788694Y16549501D01*
X6881943Y16568049D01*
X6962658Y16584104D01*
X6962661Y16584106D01*
X6962666Y16584106D01*
X7126547Y16651987D01*
X7274035Y16750536D01*
X7399464Y16875965D01*
X7498013Y17023453D01*
X7498015Y17023461D01*
X7499062Y17025416D01*
X7499885Y17026255D01*
X7501398Y17028518D01*
X7501826Y17028232D01*
X7548018Y17075266D01*
X7616154Y17090735D01*
X7681837Y17066911D01*
G37*
G04 #@! TD.AperFunction*
G04 #@! TA.AperFunction,Conductor*
G36*
X14915544Y29479815D02*
G01*
X14961299Y29427011D01*
X14971243Y29357853D01*
X14948823Y29302615D01*
X14879951Y29207821D01*
X14783444Y29018415D01*
X14717753Y28816240D01*
X14684500Y28606287D01*
X14684500Y28393713D01*
X14717754Y28183757D01*
X14751535Y28079789D01*
X14783444Y27981586D01*
X14879951Y27792180D01*
X15004890Y27620214D01*
X15155213Y27469891D01*
X15327179Y27344952D01*
X15327181Y27344951D01*
X15327184Y27344949D01*
X15516588Y27248443D01*
X15718757Y27182754D01*
X15928713Y27149500D01*
X15928714Y27149500D01*
X16141286Y27149500D01*
X16141287Y27149500D01*
X16351243Y27182754D01*
X16553412Y27248443D01*
X16742816Y27344949D01*
X16914792Y27469896D01*
X17028329Y27583434D01*
X17089648Y27616916D01*
X17159340Y27611932D01*
X17215274Y27570061D01*
X17232189Y27539083D01*
X17281202Y27407672D01*
X17281206Y27407665D01*
X17367452Y27292456D01*
X17367455Y27292453D01*
X17482664Y27206207D01*
X17482671Y27206203D01*
X17617517Y27155909D01*
X17617516Y27155909D01*
X17624444Y27155165D01*
X17677127Y27149500D01*
X19472872Y27149501D01*
X19532483Y27155909D01*
X19667331Y27206204D01*
X19782546Y27292454D01*
X19868796Y27407669D01*
X19919091Y27542517D01*
X19925500Y27602127D01*
X19925499Y29375501D01*
X19945184Y29442539D01*
X19997987Y29488294D01*
X20049499Y29499500D01*
X44375500Y29499500D01*
X44442539Y29479815D01*
X44488294Y29427011D01*
X44499500Y29375500D01*
X44499500Y28237908D01*
X44479815Y28170869D01*
X44431796Y28127424D01*
X44338307Y28079789D01*
X44177533Y27962979D01*
X44037021Y27822467D01*
X43920213Y27661695D01*
X43829994Y27484633D01*
X43829993Y27484630D01*
X43768587Y27295638D01*
X43737500Y27099361D01*
X43737500Y26900640D01*
X43768587Y26704363D01*
X43829993Y26515371D01*
X43829994Y26515368D01*
X43918732Y26341212D01*
X43920213Y26338306D01*
X44037019Y26177536D01*
X44177536Y26037019D01*
X44260759Y25976554D01*
X44338307Y25920212D01*
X44399654Y25888955D01*
X44431794Y25872579D01*
X44482590Y25824605D01*
X44499500Y25762094D01*
X44499500Y20374928D01*
X44479815Y20307889D01*
X44427011Y20262134D01*
X44357853Y20252190D01*
X44294297Y20281215D01*
X44259140Y20335383D01*
X44258607Y20335162D01*
X44257412Y20338045D01*
X44256841Y20338926D01*
X44256274Y20340794D01*
X44194049Y20491020D01*
X44194047Y20491024D01*
X44103711Y20626221D01*
X44103705Y20626229D01*
X43988728Y20741206D01*
X43988720Y20741212D01*
X43853523Y20831548D01*
X43853519Y20831550D01*
X43703293Y20893775D01*
X43703283Y20893778D01*
X43543807Y20925500D01*
X43543805Y20925500D01*
X43381195Y20925500D01*
X43381193Y20925500D01*
X43221716Y20893778D01*
X43221706Y20893775D01*
X43071480Y20831550D01*
X43071476Y20831548D01*
X42936279Y20741212D01*
X42936271Y20741206D01*
X42821294Y20626229D01*
X42821288Y20626221D01*
X42730952Y20491024D01*
X42730950Y20491020D01*
X42668725Y20340794D01*
X42668722Y20340784D01*
X42637000Y20181308D01*
X42637000Y20181305D01*
X42637000Y20018695D01*
X42637000Y20018693D01*
X42636999Y20018693D01*
X42668722Y19859217D01*
X42668725Y19859207D01*
X42730950Y19708981D01*
X42730952Y19708977D01*
X42821288Y19573780D01*
X42821294Y19573772D01*
X42936271Y19458795D01*
X42936279Y19458789D01*
X43071476Y19368453D01*
X43071480Y19368451D01*
X43221706Y19306226D01*
X43221711Y19306224D01*
X43221715Y19306224D01*
X43221716Y19306223D01*
X43381192Y19274500D01*
X43381195Y19274500D01*
X43543807Y19274500D01*
X43597945Y19285269D01*
X43667537Y19279042D01*
X43722714Y19236179D01*
X43745959Y19170290D01*
X43744611Y19144260D01*
X43737500Y19099361D01*
X43737500Y18900639D01*
X43742560Y18868694D01*
X43768587Y18704363D01*
X43829993Y18515371D01*
X43829994Y18515368D01*
X43919901Y18338919D01*
X43920213Y18338306D01*
X44037019Y18177536D01*
X44177536Y18037019D01*
X44277620Y17964304D01*
X44338307Y17920212D01*
X44390188Y17893778D01*
X44431794Y17872579D01*
X44482590Y17824605D01*
X44499500Y17762094D01*
X44499500Y12237908D01*
X44479815Y12170869D01*
X44431796Y12127424D01*
X44338307Y12079789D01*
X44177533Y11962979D01*
X44037021Y11822467D01*
X43920213Y11661695D01*
X43829994Y11484633D01*
X43829993Y11484630D01*
X43768587Y11295638D01*
X43747025Y11159501D01*
X43737500Y11099361D01*
X43737500Y10900639D01*
X43741640Y10874500D01*
X43768587Y10704363D01*
X43829993Y10515371D01*
X43829994Y10515368D01*
X43904852Y10368453D01*
X43920213Y10338306D01*
X44037019Y10177536D01*
X44177536Y10037019D01*
X44298113Y9949415D01*
X44338307Y9920212D01*
X44395599Y9891021D01*
X44431794Y9872579D01*
X44482590Y9824605D01*
X44499500Y9762094D01*
X44499500Y6775001D01*
X44479815Y6707962D01*
X44427011Y6662207D01*
X44357853Y6652263D01*
X44351309Y6653384D01*
X44278845Y6667798D01*
X44278842Y6667798D01*
X44121158Y6667798D01*
X44121155Y6667798D01*
X43966510Y6637037D01*
X43966498Y6637034D01*
X43820827Y6576696D01*
X43820814Y6576689D01*
X43689711Y6489088D01*
X43689707Y6489085D01*
X43578213Y6377591D01*
X43578210Y6377587D01*
X43490609Y6246484D01*
X43490602Y6246471D01*
X43430264Y6100800D01*
X43430261Y6100788D01*
X43399500Y5946145D01*
X43399500Y5788452D01*
X43421937Y5675652D01*
X43415710Y5606060D01*
X43388007Y5563785D01*
X43376167Y5551945D01*
X43376166Y5551943D01*
X43288567Y5420843D01*
X43288560Y5420830D01*
X43228222Y5275159D01*
X43228219Y5275147D01*
X43197458Y5120504D01*
X43197458Y4962811D01*
X43228219Y4808168D01*
X43228222Y4808156D01*
X43288560Y4662485D01*
X43288567Y4662472D01*
X43376168Y4531369D01*
X43376171Y4531365D01*
X43487665Y4419871D01*
X43487669Y4419868D01*
X43618772Y4332267D01*
X43618785Y4332260D01*
X43718349Y4291020D01*
X43764461Y4271920D01*
X43874655Y4250001D01*
X43919111Y4241158D01*
X43919114Y4241157D01*
X43919116Y4241157D01*
X44076801Y4241157D01*
X44121261Y4250001D01*
X44189601Y4263595D01*
X44259191Y4257368D01*
X44314369Y4214506D01*
X44337614Y4148616D01*
X44321547Y4080619D01*
X44301775Y4058529D01*
X44301283Y4052271D01*
X44463181Y3890374D01*
X44496666Y3829051D01*
X44499500Y3802692D01*
X44499500Y3446310D01*
X44479815Y3379271D01*
X44427011Y3333516D01*
X44357853Y3323572D01*
X44294297Y3352597D01*
X44287819Y3358629D01*
X43947730Y3698718D01*
X43947729Y3698717D01*
X43920643Y3661436D01*
X43830458Y3484439D01*
X43814446Y3435160D01*
X43775008Y3377485D01*
X43710649Y3350287D01*
X43641802Y3362202D01*
X43608834Y3385798D01*
X43543820Y3450812D01*
X43543816Y3450815D01*
X43412713Y3538416D01*
X43412700Y3538423D01*
X43267029Y3598761D01*
X43267017Y3598764D01*
X43112373Y3629525D01*
X43112370Y3629525D01*
X42954686Y3629525D01*
X42954683Y3629525D01*
X42800038Y3598764D01*
X42800026Y3598761D01*
X42772952Y3587546D01*
X42703483Y3580077D01*
X42641004Y3611353D01*
X42605352Y3671442D01*
X42601500Y3702107D01*
X42601500Y7909940D01*
X42601501Y7909953D01*
X42601501Y8078056D01*
X42600490Y8081830D01*
X42560577Y8230784D01*
X42560575Y8230787D01*
X42560575Y8230789D01*
X42559936Y8232332D01*
X42559286Y8235599D01*
X42558473Y8238634D01*
X42558672Y8238688D01*
X42550500Y8279778D01*
X42550500Y8328845D01*
X42550499Y8328847D01*
X42543431Y8364381D01*
X42519737Y8483497D01*
X42513075Y8499580D01*
X42459397Y8629173D01*
X42459390Y8629186D01*
X42371789Y8760289D01*
X42371786Y8760293D01*
X42260292Y8871787D01*
X42260288Y8871790D01*
X42129185Y8959391D01*
X42129172Y8959398D01*
X41983501Y9019736D01*
X41983489Y9019739D01*
X41828845Y9050500D01*
X41828842Y9050500D01*
X41671158Y9050500D01*
X41671155Y9050500D01*
X41516510Y9019739D01*
X41516498Y9019736D01*
X41370827Y8959398D01*
X41370814Y8959391D01*
X41239711Y8871790D01*
X41239707Y8871787D01*
X41167181Y8799260D01*
X41105858Y8765775D01*
X41036166Y8770759D01*
X40980233Y8812631D01*
X40955816Y8878095D01*
X40955500Y8886941D01*
X40955500Y17018693D01*
X41674499Y17018693D01*
X41706222Y16859217D01*
X41706225Y16859207D01*
X41768450Y16708981D01*
X41768452Y16708977D01*
X41858788Y16573780D01*
X41858794Y16573772D01*
X41973771Y16458795D01*
X41973779Y16458789D01*
X42108976Y16368453D01*
X42108980Y16368451D01*
X42234376Y16316511D01*
X42259211Y16306224D01*
X42259215Y16306224D01*
X42259216Y16306223D01*
X42418692Y16274500D01*
X42418695Y16274500D01*
X42581307Y16274500D01*
X42688598Y16295843D01*
X42740789Y16306224D01*
X42891021Y16368452D01*
X42891023Y16368453D01*
X42958169Y16413320D01*
X43026225Y16458792D01*
X43141208Y16573775D01*
X43208557Y16674570D01*
X43231547Y16708977D01*
X43231549Y16708981D01*
X43267969Y16796907D01*
X43293776Y16859211D01*
X43324803Y17015191D01*
X43325500Y17018693D01*
X43325500Y17181308D01*
X43293777Y17340784D01*
X43293776Y17340785D01*
X43293776Y17340789D01*
X43291861Y17345412D01*
X43231549Y17491020D01*
X43231547Y17491024D01*
X43141211Y17626221D01*
X43141205Y17626229D01*
X43026228Y17741206D01*
X43026220Y17741212D01*
X42891023Y17831548D01*
X42891019Y17831550D01*
X42740793Y17893775D01*
X42740783Y17893778D01*
X42581307Y17925500D01*
X42581305Y17925500D01*
X42418695Y17925500D01*
X42418693Y17925500D01*
X42259216Y17893778D01*
X42259206Y17893775D01*
X42108980Y17831550D01*
X42108976Y17831548D01*
X41973779Y17741212D01*
X41973771Y17741206D01*
X41858794Y17626229D01*
X41858788Y17626221D01*
X41768452Y17491024D01*
X41768450Y17491020D01*
X41706225Y17340794D01*
X41706222Y17340784D01*
X41674500Y17181308D01*
X41674500Y17181305D01*
X41674500Y17018695D01*
X41674500Y17018693D01*
X41674499Y17018693D01*
X40955500Y17018693D01*
X40955500Y17639779D01*
X40975185Y17706818D01*
X41027989Y17752573D01*
X41079500Y17763779D01*
X41153844Y17763779D01*
X41153845Y17763780D01*
X41308497Y17794542D01*
X41454179Y17854885D01*
X41585289Y17942490D01*
X41696789Y18053990D01*
X41784394Y18185100D01*
X41844737Y18330782D01*
X41866858Y18441996D01*
X41899241Y18503902D01*
X41900724Y18505413D01*
X41960857Y18565545D01*
X41962909Y18568615D01*
X41979721Y18593775D01*
X42029307Y18667987D01*
X42029307Y18667988D01*
X42029311Y18667993D01*
X42076463Y18781827D01*
X42080177Y18800500D01*
X42100500Y18902672D01*
X42100500Y19025885D01*
X42100500Y19851556D01*
X42098977Y19859211D01*
X42076463Y19972401D01*
X42070889Y19985857D01*
X42054169Y20026225D01*
X42040503Y20059217D01*
X42034939Y20072651D01*
X42025500Y20120104D01*
X42025500Y20716539D01*
X42045185Y20783578D01*
X42097989Y20829333D01*
X42149500Y20840539D01*
X42252494Y20840539D01*
X42252495Y20840540D01*
X42310483Y20852075D01*
X42426459Y20875143D01*
X42426462Y20875145D01*
X42426467Y20875145D01*
X42590348Y20943026D01*
X42737836Y21041575D01*
X42863265Y21167004D01*
X42961814Y21314492D01*
X43029695Y21478373D01*
X43029855Y21479173D01*
X43064300Y21652344D01*
X43064301Y21652346D01*
X43064301Y21829733D01*
X43064300Y21829735D01*
X43029697Y22003698D01*
X43029694Y22003707D01*
X43024188Y22016999D01*
X43011062Y22048690D01*
X42961817Y22167580D01*
X42961810Y22167593D01*
X42863265Y22315074D01*
X42863262Y22315078D01*
X42737839Y22440501D01*
X42737835Y22440504D01*
X42590354Y22539049D01*
X42590341Y22539056D01*
X42497026Y22577707D01*
X42442622Y22621547D01*
X42420557Y22687841D01*
X42422861Y22716460D01*
X42424804Y22726225D01*
X42440788Y22806583D01*
X42448517Y22845435D01*
X42448517Y23008050D01*
X42416794Y23167526D01*
X42416793Y23167527D01*
X42416793Y23167531D01*
X42403137Y23200500D01*
X42354566Y23317762D01*
X42354564Y23317766D01*
X42264228Y23452963D01*
X42264222Y23452971D01*
X42149245Y23567948D01*
X42149237Y23567954D01*
X42014040Y23658290D01*
X42014036Y23658292D01*
X41863810Y23720517D01*
X41863800Y23720520D01*
X41704324Y23752242D01*
X41704322Y23752242D01*
X41541712Y23752242D01*
X41541710Y23752242D01*
X41382233Y23720520D01*
X41382223Y23720517D01*
X41231997Y23658292D01*
X41231993Y23658290D01*
X41096796Y23567954D01*
X41096788Y23567948D01*
X41012181Y23483340D01*
X40950858Y23449855D01*
X40881166Y23454839D01*
X40825233Y23496711D01*
X40800816Y23562175D01*
X40800500Y23571021D01*
X40800500Y24879054D01*
X40800500Y24879057D01*
X40800468Y24879179D01*
X40759577Y25031785D01*
X40725066Y25091560D01*
X40680520Y25168716D01*
X40568716Y25280520D01*
X40568715Y25280521D01*
X40564385Y25284851D01*
X40564374Y25284861D01*
X40161819Y25687416D01*
X40128334Y25748739D01*
X40125500Y25775097D01*
X40125500Y25781308D01*
X40093777Y25940784D01*
X40093776Y25940785D01*
X40093776Y25940789D01*
X40078962Y25976554D01*
X40031549Y26091020D01*
X40031547Y26091024D01*
X39941211Y26226221D01*
X39941205Y26226229D01*
X39826228Y26341206D01*
X39826220Y26341212D01*
X39691023Y26431548D01*
X39691019Y26431550D01*
X39540793Y26493775D01*
X39540783Y26493778D01*
X39381307Y26525500D01*
X39381305Y26525500D01*
X39218695Y26525500D01*
X39218693Y26525500D01*
X39059216Y26493778D01*
X39059206Y26493775D01*
X38908980Y26431550D01*
X38908976Y26431548D01*
X38773779Y26341212D01*
X38773771Y26341206D01*
X38658794Y26226229D01*
X38658788Y26226221D01*
X38568452Y26091024D01*
X38568450Y26091020D01*
X38506225Y25940794D01*
X38506222Y25940784D01*
X38497504Y25896954D01*
X38465119Y25835043D01*
X38404403Y25800469D01*
X38334633Y25804210D01*
X38277962Y25845076D01*
X38261326Y25873694D01*
X38258173Y25881305D01*
X38245747Y25911305D01*
X38198016Y26026541D01*
X38198009Y26026554D01*
X38099464Y26174035D01*
X38099461Y26174039D01*
X37974038Y26299462D01*
X37974034Y26299465D01*
X37826553Y26398010D01*
X37826540Y26398017D01*
X37662667Y26465894D01*
X37662658Y26465897D01*
X37488694Y26500500D01*
X37488691Y26500500D01*
X37311309Y26500500D01*
X37311306Y26500500D01*
X37137341Y26465897D01*
X37137332Y26465894D01*
X36973459Y26398017D01*
X36973446Y26398010D01*
X36825965Y26299465D01*
X36825961Y26299462D01*
X36700538Y26174039D01*
X36700535Y26174035D01*
X36601990Y26026554D01*
X36601983Y26026541D01*
X36534106Y25862668D01*
X36534103Y25862659D01*
X36499500Y25688696D01*
X36499500Y25511305D01*
X36534103Y25337342D01*
X36534106Y25337333D01*
X36601983Y25173460D01*
X36601990Y25173447D01*
X36700535Y25025966D01*
X36700538Y25025962D01*
X36825961Y24900539D01*
X36825965Y24900536D01*
X36973446Y24801991D01*
X36973459Y24801984D01*
X37032616Y24777481D01*
X37137334Y24734106D01*
X37137336Y24734106D01*
X37137341Y24734104D01*
X37311304Y24699501D01*
X37311307Y24699500D01*
X37311309Y24699500D01*
X37488693Y24699500D01*
X37488694Y24699501D01*
X37576609Y24716988D01*
X37662658Y24734104D01*
X37662661Y24734106D01*
X37662666Y24734106D01*
X37826547Y24801987D01*
X37974035Y24900536D01*
X38099464Y25025965D01*
X38198013Y25173453D01*
X38198149Y25173780D01*
X38234212Y25260847D01*
X38265894Y25337334D01*
X38273188Y25374000D01*
X38280493Y25410727D01*
X38312877Y25472638D01*
X38373593Y25507212D01*
X38443363Y25503473D01*
X38500035Y25462607D01*
X38516671Y25433989D01*
X38568452Y25308978D01*
X38568452Y25308977D01*
X38658788Y25173780D01*
X38658794Y25173772D01*
X38773771Y25058795D01*
X38773779Y25058789D01*
X38908976Y24968453D01*
X38908980Y24968451D01*
X39053472Y24908601D01*
X39059211Y24906224D01*
X39059215Y24906224D01*
X39059216Y24906223D01*
X39218692Y24874500D01*
X39218695Y24874500D01*
X39224903Y24874500D01*
X39291942Y24854815D01*
X39312584Y24838181D01*
X39563181Y24587584D01*
X39596666Y24526261D01*
X39599500Y24499903D01*
X39599500Y22017649D01*
X39579815Y21950610D01*
X39527011Y21904855D01*
X39457853Y21894911D01*
X39451310Y21896031D01*
X39428842Y21900500D01*
X39271158Y21900500D01*
X39271155Y21900500D01*
X39116510Y21869739D01*
X39116498Y21869736D01*
X38970827Y21809398D01*
X38970814Y21809391D01*
X38839711Y21721790D01*
X38839707Y21721787D01*
X38728213Y21610293D01*
X38728210Y21610289D01*
X38640609Y21479186D01*
X38640602Y21479173D01*
X38580264Y21333502D01*
X38580261Y21333490D01*
X38549500Y21178847D01*
X38549500Y21021154D01*
X38580261Y20866511D01*
X38580264Y20866499D01*
X38640602Y20720828D01*
X38640609Y20720815D01*
X38728210Y20589712D01*
X38728213Y20589708D01*
X38839707Y20478214D01*
X38839711Y20478211D01*
X38970814Y20390610D01*
X38970827Y20390603D01*
X39116498Y20330265D01*
X39116503Y20330263D01*
X39156943Y20322219D01*
X39277132Y20298311D01*
X39276764Y20296464D01*
X39333410Y20273607D01*
X39373784Y20216583D01*
X39378111Y20200537D01*
X39406222Y20059217D01*
X39406225Y20059207D01*
X39468450Y19908981D01*
X39468452Y19908977D01*
X39558788Y19773780D01*
X39558794Y19773772D01*
X39673772Y19658794D01*
X39673775Y19658792D01*
X39783178Y19585692D01*
X39788973Y19578758D01*
X39797125Y19574860D01*
X39811026Y19552370D01*
X39827984Y19532079D01*
X39829110Y19523114D01*
X39833861Y19515427D01*
X39833396Y19488988D01*
X39836691Y19462755D01*
X39832759Y19452758D01*
X39832633Y19445568D01*
X39817409Y19413726D01*
X39815023Y19410153D01*
X39815003Y19410124D01*
X39775690Y19351291D01*
X39775688Y19351287D01*
X39770651Y19339125D01*
X39745356Y19278057D01*
X39728538Y19237456D01*
X39728537Y19237451D01*
X39703779Y19112988D01*
X39690020Y19086685D01*
X39678635Y19059277D01*
X39674005Y19056070D01*
X39671394Y19051077D01*
X39645598Y19036388D01*
X39621203Y19019486D01*
X39615573Y19019291D01*
X39610678Y19016503D01*
X39581033Y19018093D01*
X39551375Y19017063D01*
X39544709Y19020040D01*
X39540909Y19020243D01*
X39518781Y19030602D01*
X39515978Y19032269D01*
X39433093Y19087651D01*
X39399338Y19101633D01*
X39391662Y19106198D01*
X39373714Y19125514D01*
X39353187Y19142056D01*
X39348844Y19152280D01*
X39344103Y19157383D01*
X39342220Y19167876D01*
X39333427Y19188580D01*
X39313001Y19291269D01*
X39306807Y19306223D01*
X39252661Y19436945D01*
X39252654Y19436958D01*
X39165053Y19568061D01*
X39165050Y19568065D01*
X39053556Y19679559D01*
X39053552Y19679562D01*
X38922449Y19767163D01*
X38922439Y19767168D01*
X38839171Y19801659D01*
X38784768Y19845500D01*
X38765007Y19892028D01*
X38756674Y19933923D01*
X38740736Y19972401D01*
X38696334Y20079599D01*
X38696327Y20079612D01*
X38608726Y20210715D01*
X38608723Y20210719D01*
X38497229Y20322213D01*
X38497221Y20322219D01*
X38413263Y20378318D01*
X38368457Y20431930D01*
X38358153Y20481420D01*
X38358153Y20512906D01*
X38358152Y20512908D01*
X38342875Y20589711D01*
X38327390Y20667558D01*
X38306408Y20718213D01*
X38267050Y20813234D01*
X38267043Y20813247D01*
X38179442Y20944350D01*
X38179439Y20944354D01*
X38067945Y21055848D01*
X38067941Y21055851D01*
X37947604Y21136258D01*
X37902799Y21189870D01*
X37894092Y21259195D01*
X37913393Y21308251D01*
X37990913Y21424268D01*
X38053141Y21574500D01*
X38067520Y21646792D01*
X38099904Y21708700D01*
X38141685Y21737160D01*
X38276541Y21793018D01*
X38276544Y21793020D01*
X38276547Y21793021D01*
X38424035Y21891570D01*
X38549464Y22016999D01*
X38648013Y22164487D01*
X38715894Y22328368D01*
X38717759Y22337741D01*
X38746848Y22483985D01*
X38750500Y22502343D01*
X38750500Y22679725D01*
X38750500Y22679728D01*
X38750499Y22679730D01*
X38715896Y22853693D01*
X38715893Y22853702D01*
X38713783Y22858795D01*
X38678943Y22942909D01*
X38648016Y23017575D01*
X38648009Y23017588D01*
X38549464Y23165069D01*
X38549461Y23165073D01*
X38424038Y23290496D01*
X38424034Y23290499D01*
X38276553Y23389044D01*
X38276540Y23389051D01*
X38112667Y23456928D01*
X38112658Y23456931D01*
X37938694Y23491534D01*
X37938691Y23491534D01*
X37761309Y23491534D01*
X37761306Y23491534D01*
X37587341Y23456931D01*
X37587332Y23456928D01*
X37423459Y23389051D01*
X37423446Y23389044D01*
X37275965Y23290499D01*
X37275961Y23290496D01*
X37150538Y23165073D01*
X37150535Y23165069D01*
X37051990Y23017588D01*
X37051983Y23017575D01*
X36984106Y22853702D01*
X36984103Y22853693D01*
X36949500Y22679730D01*
X36949500Y22663308D01*
X36929815Y22596269D01*
X36891076Y22558066D01*
X36882396Y22552658D01*
X36868344Y22546837D01*
X36803228Y22503329D01*
X36801547Y22502281D01*
X36769702Y22493413D01*
X36738183Y22483543D01*
X36735853Y22483985D01*
X36734239Y22483535D01*
X36727898Y22485494D01*
X36688522Y22492961D01*
X36623877Y22519737D01*
X36623870Y22519739D01*
X36623869Y22519739D01*
X36623868Y22519740D01*
X36469225Y22550500D01*
X36469222Y22550500D01*
X36311538Y22550500D01*
X36311535Y22550500D01*
X36156890Y22519739D01*
X36156878Y22519736D01*
X36011207Y22459398D01*
X36011194Y22459391D01*
X35880091Y22371790D01*
X35880087Y22371787D01*
X35768593Y22260293D01*
X35768590Y22260289D01*
X35680989Y22129186D01*
X35680982Y22129173D01*
X35620644Y21983502D01*
X35620641Y21983490D01*
X35589880Y21828847D01*
X35589880Y21671154D01*
X35620641Y21516511D01*
X35620644Y21516499D01*
X35680982Y21370828D01*
X35680989Y21370815D01*
X35768590Y21239712D01*
X35768593Y21239708D01*
X35880087Y21128214D01*
X35880091Y21128211D01*
X36011194Y21040610D01*
X36011207Y21040603D01*
X36127456Y20992452D01*
X36156883Y20980263D01*
X36278343Y20956103D01*
X36311533Y20949501D01*
X36311536Y20949500D01*
X36311538Y20949500D01*
X36469224Y20949500D01*
X36469225Y20949501D01*
X36623877Y20980263D01*
X36710777Y21016259D01*
X36780246Y21023727D01*
X36842725Y20992452D01*
X36878377Y20932363D01*
X36875883Y20862538D01*
X36861333Y20832809D01*
X36848263Y20813248D01*
X36848255Y20813234D01*
X36787917Y20667563D01*
X36787914Y20667551D01*
X36757153Y20512908D01*
X36757153Y20355215D01*
X36787914Y20200572D01*
X36787917Y20200560D01*
X36848255Y20054889D01*
X36848262Y20054876D01*
X36935863Y19923773D01*
X36935866Y19923769D01*
X37047360Y19812275D01*
X37047368Y19812269D01*
X37131327Y19756169D01*
X37176133Y19702557D01*
X37186437Y19653067D01*
X37186437Y19621580D01*
X37217198Y19466937D01*
X37217201Y19466925D01*
X37277539Y19321254D01*
X37277546Y19321241D01*
X37365147Y19190138D01*
X37365150Y19190134D01*
X37476644Y19078640D01*
X37476648Y19078637D01*
X37607751Y18991036D01*
X37607764Y18991029D01*
X37691027Y18956541D01*
X37745431Y18912701D01*
X37765192Y18866173D01*
X37773525Y18824279D01*
X37773527Y18824273D01*
X37833866Y18678600D01*
X37833873Y18678587D01*
X37921474Y18547484D01*
X37921477Y18547480D01*
X38032971Y18435986D01*
X38032975Y18435983D01*
X38164078Y18348382D01*
X38164087Y18348377D01*
X38189586Y18337815D01*
X38243989Y18293974D01*
X38263750Y18247446D01*
X38284175Y18144766D01*
X38284178Y18144756D01*
X38344516Y17999085D01*
X38344523Y17999072D01*
X38432124Y17867969D01*
X38432127Y17867965D01*
X38543621Y17756471D01*
X38543625Y17756468D01*
X38674728Y17668867D01*
X38674741Y17668860D01*
X38796989Y17618224D01*
X38820417Y17608520D01*
X38975067Y17577758D01*
X38975070Y17577757D01*
X38975072Y17577757D01*
X39132758Y17577757D01*
X39132759Y17577758D01*
X39287411Y17608520D01*
X39433093Y17668863D01*
X39511610Y17721327D01*
X39578286Y17742204D01*
X39645666Y17723720D01*
X39692357Y17671741D01*
X39704500Y17618224D01*
X39704500Y7787350D01*
X39684815Y7720311D01*
X39683603Y7718460D01*
X39598450Y7591018D01*
X39536225Y7440794D01*
X39536222Y7440784D01*
X39504500Y7281308D01*
X39504500Y7281305D01*
X39504500Y7118695D01*
X39504500Y7118693D01*
X39504499Y7118693D01*
X39536222Y6959217D01*
X39536225Y6959207D01*
X39598450Y6808981D01*
X39598452Y6808977D01*
X39688788Y6673780D01*
X39688794Y6673772D01*
X39803771Y6558795D01*
X39803779Y6558789D01*
X39938976Y6468453D01*
X39938980Y6468451D01*
X40087383Y6406981D01*
X40089211Y6406224D01*
X40089215Y6406224D01*
X40089216Y6406223D01*
X40248692Y6374500D01*
X40248695Y6374500D01*
X40411307Y6374500D01*
X40554415Y6402967D01*
X40570789Y6406224D01*
X40670943Y6447710D01*
X40721019Y6468451D01*
X40721023Y6468453D01*
X40799901Y6521158D01*
X40856225Y6558792D01*
X40971208Y6673775D01*
X41029017Y6760293D01*
X41061547Y6808977D01*
X41061549Y6808981D01*
X41095359Y6890606D01*
X41123776Y6959211D01*
X41134454Y7012894D01*
X41154883Y7115591D01*
X41187268Y7177502D01*
X41247984Y7212076D01*
X41317753Y7208336D01*
X41374425Y7167469D01*
X41400007Y7102451D01*
X41400500Y7091399D01*
X41400500Y5524500D01*
X41380815Y5457461D01*
X41328011Y5411706D01*
X41276500Y5400500D01*
X41272155Y5400500D01*
X41117510Y5369739D01*
X41117498Y5369736D01*
X40971827Y5309398D01*
X40971814Y5309391D01*
X40840711Y5221790D01*
X40840707Y5221787D01*
X40729213Y5110293D01*
X40729210Y5110289D01*
X40641609Y4979186D01*
X40641602Y4979173D01*
X40581264Y4833502D01*
X40581261Y4833490D01*
X40550500Y4678847D01*
X40550500Y4663982D01*
X40530815Y4596943D01*
X40486331Y4555371D01*
X40431943Y4525410D01*
X40405921Y4519649D01*
X40380955Y4510337D01*
X40371090Y4511936D01*
X40363726Y4510305D01*
X40350062Y4515344D01*
X40324660Y4519460D01*
X40221839Y4562050D01*
X40221829Y4562053D01*
X40028543Y4600500D01*
X40028541Y4600500D01*
X39831459Y4600500D01*
X39831457Y4600500D01*
X39638170Y4562053D01*
X39638160Y4562050D01*
X39456089Y4486634D01*
X39363890Y4425029D01*
X39297213Y4404152D01*
X39229833Y4422637D01*
X39226110Y4425029D01*
X39189486Y4449500D01*
X39133914Y4486632D01*
X39133911Y4486634D01*
X39133910Y4486634D01*
X38951839Y4562050D01*
X38951829Y4562053D01*
X38758543Y4600500D01*
X38758541Y4600500D01*
X38561459Y4600500D01*
X38561457Y4600500D01*
X38368170Y4562053D01*
X38368160Y4562050D01*
X38186089Y4486634D01*
X38093890Y4425029D01*
X38027213Y4404152D01*
X37959833Y4422637D01*
X37956110Y4425029D01*
X37919486Y4449500D01*
X37863914Y4486632D01*
X37863911Y4486634D01*
X37863910Y4486634D01*
X37681839Y4562050D01*
X37681829Y4562053D01*
X37488543Y4600500D01*
X37488541Y4600500D01*
X37291459Y4600500D01*
X37291457Y4600500D01*
X37098170Y4562053D01*
X37098160Y4562050D01*
X36916092Y4486636D01*
X36916079Y4486629D01*
X36752218Y4377140D01*
X36752214Y4377137D01*
X36612863Y4237786D01*
X36612860Y4237782D01*
X36503371Y4073921D01*
X36503364Y4073908D01*
X36427950Y3891840D01*
X36427947Y3891830D01*
X36389500Y3698544D01*
X36389500Y3698541D01*
X36389500Y3501459D01*
X36389500Y3501457D01*
X36389499Y3501457D01*
X36427947Y3308171D01*
X36427950Y3308161D01*
X36503364Y3126093D01*
X36503371Y3126080D01*
X36612860Y2962219D01*
X36612863Y2962215D01*
X36752214Y2822864D01*
X36752218Y2822861D01*
X36916079Y2713372D01*
X36916092Y2713365D01*
X37098160Y2637951D01*
X37098165Y2637949D01*
X37098169Y2637949D01*
X37098170Y2637948D01*
X37291456Y2599500D01*
X37291459Y2599500D01*
X37488543Y2599500D01*
X37618582Y2625368D01*
X37681835Y2637949D01*
X37856490Y2710293D01*
X37863907Y2713365D01*
X37863907Y2713366D01*
X37863914Y2713368D01*
X37936887Y2762128D01*
X37956109Y2774971D01*
X38022786Y2795849D01*
X38090166Y2777365D01*
X38093891Y2774971D01*
X38130989Y2750183D01*
X38186086Y2713368D01*
X38186088Y2713367D01*
X38186092Y2713365D01*
X38368160Y2637951D01*
X38368165Y2637949D01*
X38368169Y2637949D01*
X38368170Y2637948D01*
X38561456Y2599500D01*
X38561459Y2599500D01*
X38758543Y2599500D01*
X38888582Y2625368D01*
X38951835Y2637949D01*
X39126490Y2710293D01*
X39133907Y2713365D01*
X39133907Y2713366D01*
X39133914Y2713368D01*
X39206887Y2762128D01*
X39226109Y2774971D01*
X39292786Y2795849D01*
X39360166Y2777365D01*
X39363891Y2774971D01*
X39400989Y2750183D01*
X39456086Y2713368D01*
X39456088Y2713367D01*
X39456092Y2713365D01*
X39638160Y2637951D01*
X39638165Y2637949D01*
X39638169Y2637949D01*
X39638170Y2637948D01*
X39831456Y2599500D01*
X39831459Y2599500D01*
X40028543Y2599500D01*
X40158582Y2625368D01*
X40221835Y2637949D01*
X40324663Y2680542D01*
X40394128Y2688010D01*
X40446422Y2665247D01*
X40457907Y2656650D01*
X40592623Y2606403D01*
X40592627Y2606402D01*
X40652155Y2600001D01*
X40652172Y2600000D01*
X40918072Y2600000D01*
X40985111Y2580315D01*
X41030866Y2527511D01*
X41040810Y2458353D01*
X41032633Y2428548D01*
X41006225Y2364794D01*
X41006222Y2364784D01*
X40974500Y2205308D01*
X40974500Y2205305D01*
X40974500Y2042695D01*
X40974500Y2042693D01*
X40974499Y2042693D01*
X41006222Y1883217D01*
X41006225Y1883207D01*
X41068450Y1732981D01*
X41068452Y1732977D01*
X41158788Y1597780D01*
X41158794Y1597772D01*
X41273771Y1482795D01*
X41273779Y1482789D01*
X41408976Y1392453D01*
X41408978Y1392453D01*
X41408979Y1392452D01*
X41536783Y1339514D01*
X41591186Y1295675D01*
X41602836Y1271660D01*
X41603975Y1272131D01*
X41606305Y1266504D01*
X41606306Y1266503D01*
X41607895Y1262666D01*
X41666645Y1120828D01*
X41666652Y1120815D01*
X41754253Y989712D01*
X41754256Y989708D01*
X41865750Y878214D01*
X41865754Y878211D01*
X41996857Y790610D01*
X41996870Y790603D01*
X42121305Y739061D01*
X42175709Y695221D01*
X42197774Y628926D01*
X42180495Y561227D01*
X42129358Y513616D01*
X42073853Y500500D01*
X30945134Y500500D01*
X30878095Y520185D01*
X30832340Y572989D01*
X30822396Y642147D01*
X30830573Y671953D01*
X30834346Y681061D01*
X30869737Y766503D01*
X30900500Y921158D01*
X30900500Y1078842D01*
X30900500Y1078845D01*
X30900499Y1078847D01*
X30888056Y1141401D01*
X30869737Y1233497D01*
X30856066Y1266503D01*
X30809397Y1379173D01*
X30809390Y1379186D01*
X30721789Y1510289D01*
X30721786Y1510293D01*
X30610292Y1621787D01*
X30610288Y1621790D01*
X30479185Y1709391D01*
X30479172Y1709398D01*
X30333501Y1769736D01*
X30333489Y1769739D01*
X30178845Y1800500D01*
X30178842Y1800500D01*
X30021158Y1800500D01*
X30021155Y1800500D01*
X29866510Y1769739D01*
X29866498Y1769736D01*
X29720827Y1709398D01*
X29720814Y1709391D01*
X29589711Y1621790D01*
X29589707Y1621787D01*
X29478213Y1510293D01*
X29478210Y1510289D01*
X29476037Y1507036D01*
X29474458Y1505717D01*
X29474347Y1505581D01*
X29474321Y1505603D01*
X29422424Y1462231D01*
X29353099Y1453524D01*
X29290072Y1483679D01*
X29285254Y1488246D01*
X29174038Y1599462D01*
X29174034Y1599465D01*
X29026553Y1698010D01*
X29026540Y1698017D01*
X28862667Y1765894D01*
X28862658Y1765897D01*
X28688694Y1800500D01*
X28688691Y1800500D01*
X28511309Y1800500D01*
X28511306Y1800500D01*
X28337341Y1765897D01*
X28337332Y1765894D01*
X28173459Y1698017D01*
X28173446Y1698010D01*
X28025965Y1599465D01*
X28025961Y1599462D01*
X27900538Y1474039D01*
X27900535Y1474035D01*
X27801990Y1326554D01*
X27801983Y1326541D01*
X27734106Y1162668D01*
X27734103Y1162659D01*
X27699500Y988696D01*
X27699500Y811305D01*
X27731846Y648691D01*
X27725619Y579100D01*
X27682756Y523922D01*
X27616866Y500678D01*
X27610229Y500500D01*
X13028220Y500500D01*
X12961181Y520185D01*
X12915426Y572989D01*
X12905482Y642147D01*
X12906603Y648691D01*
X12925499Y743691D01*
X12925500Y743693D01*
X12925500Y906308D01*
X12893777Y1065784D01*
X12893776Y1065785D01*
X12893776Y1065789D01*
X12884290Y1088691D01*
X12831549Y1216020D01*
X12831547Y1216024D01*
X12741211Y1351221D01*
X12741205Y1351229D01*
X12626228Y1466206D01*
X12626220Y1466212D01*
X12491023Y1556548D01*
X12491019Y1556550D01*
X12340793Y1618775D01*
X12340783Y1618778D01*
X12181307Y1650500D01*
X12181305Y1650500D01*
X12018695Y1650500D01*
X12018693Y1650500D01*
X11859216Y1618778D01*
X11859206Y1618775D01*
X11834939Y1608723D01*
X11765470Y1601256D01*
X11702991Y1632532D01*
X11673766Y1679371D01*
X11672068Y1678667D01*
X11609397Y1829971D01*
X11609390Y1829984D01*
X11521789Y1961087D01*
X11521786Y1961091D01*
X11410292Y2072585D01*
X11410288Y2072588D01*
X11279185Y2160189D01*
X11279172Y2160196D01*
X11133501Y2220534D01*
X11133489Y2220537D01*
X10978845Y2251298D01*
X10978842Y2251298D01*
X10942311Y2251298D01*
X10875272Y2270983D01*
X10829517Y2323787D01*
X10819573Y2392945D01*
X10839209Y2444189D01*
X10890408Y2520815D01*
X10890408Y2520816D01*
X10890412Y2520821D01*
X10950755Y2666503D01*
X10981518Y2821158D01*
X10981518Y2978842D01*
X10981518Y2978845D01*
X10981517Y2978847D01*
X10962490Y3074500D01*
X10950755Y3133497D01*
X10933993Y3173965D01*
X10890415Y3279173D01*
X10890408Y3279186D01*
X10802807Y3410289D01*
X10802804Y3410293D01*
X10691310Y3521787D01*
X10691306Y3521790D01*
X10560203Y3609391D01*
X10560190Y3609398D01*
X10414519Y3669736D01*
X10414507Y3669739D01*
X10259863Y3700500D01*
X10259860Y3700500D01*
X10102176Y3700500D01*
X10102173Y3700500D01*
X9947528Y3669739D01*
X9947516Y3669736D01*
X9801845Y3609398D01*
X9801832Y3609391D01*
X9670729Y3521790D01*
X9670725Y3521787D01*
X9559231Y3410293D01*
X9559228Y3410289D01*
X9471627Y3279186D01*
X9471620Y3279173D01*
X9411282Y3133502D01*
X9411279Y3133490D01*
X9380518Y2978847D01*
X9379921Y2972782D01*
X9377826Y2972989D01*
X9360833Y2915114D01*
X9325409Y2879051D01*
X9239711Y2821790D01*
X9239707Y2821787D01*
X9128213Y2710293D01*
X9128210Y2710289D01*
X9040609Y2579186D01*
X9040602Y2579173D01*
X8980264Y2433502D01*
X8980261Y2433490D01*
X8949500Y2278847D01*
X8949500Y2121154D01*
X8980261Y1966511D01*
X8980264Y1966499D01*
X9040602Y1820828D01*
X9040609Y1820815D01*
X9128210Y1689712D01*
X9128213Y1689708D01*
X9239707Y1578214D01*
X9239711Y1578211D01*
X9370814Y1490610D01*
X9370827Y1490603D01*
X9512452Y1431941D01*
X9516503Y1430263D01*
X9640949Y1405509D01*
X9671153Y1399501D01*
X9671156Y1399500D01*
X9671158Y1399500D01*
X9828844Y1399500D01*
X9896687Y1412996D01*
X9962311Y1426049D01*
X10031902Y1419822D01*
X10087079Y1376960D01*
X10108119Y1328623D01*
X10130261Y1217309D01*
X10130264Y1217297D01*
X10190602Y1071626D01*
X10190609Y1071613D01*
X10278210Y940510D01*
X10278213Y940506D01*
X10389707Y829012D01*
X10389711Y829009D01*
X10520814Y741408D01*
X10520818Y741406D01*
X10520821Y741404D01*
X10523751Y740191D01*
X10526477Y739061D01*
X10580880Y695220D01*
X10602945Y628926D01*
X10585666Y561226D01*
X10534528Y513616D01*
X10479024Y500500D01*
X8528220Y500500D01*
X8461181Y520185D01*
X8415426Y572989D01*
X8405482Y642147D01*
X8406603Y648691D01*
X8425499Y743691D01*
X8425500Y743693D01*
X8425500Y906308D01*
X8393777Y1065784D01*
X8393776Y1065785D01*
X8393776Y1065789D01*
X8384290Y1088691D01*
X8331549Y1216020D01*
X8331547Y1216024D01*
X8241211Y1351221D01*
X8241205Y1351229D01*
X8126228Y1466206D01*
X8126220Y1466212D01*
X7991023Y1556548D01*
X7991019Y1556550D01*
X7840793Y1618775D01*
X7840783Y1618778D01*
X7681307Y1650500D01*
X7681305Y1650500D01*
X7518695Y1650500D01*
X7518693Y1650500D01*
X7359216Y1618778D01*
X7359206Y1618775D01*
X7208980Y1556550D01*
X7208976Y1556548D01*
X7073779Y1466212D01*
X7073771Y1466206D01*
X6958794Y1351229D01*
X6958788Y1351221D01*
X6868452Y1216024D01*
X6868450Y1216020D01*
X6806225Y1065794D01*
X6806222Y1065784D01*
X6774500Y906308D01*
X6774500Y743691D01*
X6793397Y648691D01*
X6787170Y579100D01*
X6744307Y523922D01*
X6678417Y500678D01*
X6671780Y500500D01*
X3853373Y500500D01*
X3786334Y520185D01*
X3740579Y572989D01*
X3730635Y642147D01*
X3738812Y671952D01*
X3765894Y737334D01*
X3766383Y739788D01*
X3797155Y894492D01*
X3800500Y911309D01*
X3800500Y1088691D01*
X3800500Y1088694D01*
X3800499Y1088696D01*
X3765896Y1262659D01*
X3765893Y1262668D01*
X3762168Y1271660D01*
X3734596Y1338228D01*
X3698016Y1426541D01*
X3698009Y1426554D01*
X3599464Y1574035D01*
X3599461Y1574039D01*
X3474038Y1699462D01*
X3474034Y1699465D01*
X3326553Y1798010D01*
X3326540Y1798017D01*
X3162667Y1865894D01*
X3162658Y1865897D01*
X2988694Y1900500D01*
X2988691Y1900500D01*
X2811309Y1900500D01*
X2811306Y1900500D01*
X2637341Y1865897D01*
X2637332Y1865894D01*
X2473459Y1798017D01*
X2473446Y1798010D01*
X2325965Y1699465D01*
X2325961Y1699462D01*
X2200538Y1574039D01*
X2200535Y1574035D01*
X2101990Y1426554D01*
X2101983Y1426541D01*
X2034106Y1262668D01*
X2034103Y1262659D01*
X1999500Y1088696D01*
X1999500Y911305D01*
X2034103Y737342D01*
X2034106Y737334D01*
X2061187Y671953D01*
X2061188Y671952D01*
X2068657Y602483D01*
X2037382Y540004D01*
X1977293Y504352D01*
X1946627Y500500D01*
X624500Y500500D01*
X557461Y520185D01*
X511706Y572989D01*
X500500Y624500D01*
X500500Y1762655D01*
X520185Y1829694D01*
X568206Y1873140D01*
X661422Y1920636D01*
X698715Y1947732D01*
X536819Y2109628D01*
X503334Y2170951D01*
X500500Y2197309D01*
X500500Y2553692D01*
X520185Y2620731D01*
X572989Y2666486D01*
X642147Y2676430D01*
X705703Y2647405D01*
X712181Y2641373D01*
X1052268Y2301285D01*
X1079362Y2338575D01*
X1169542Y2515563D01*
X1230924Y2704477D01*
X1230924Y2704480D01*
X1262000Y2900679D01*
X1262000Y3099322D01*
X1230924Y3295521D01*
X1230924Y3295524D01*
X1169542Y3484438D01*
X1079358Y3661433D01*
X1052268Y3698717D01*
X712181Y3358629D01*
X650858Y3325144D01*
X581166Y3330128D01*
X525233Y3372000D01*
X500816Y3437464D01*
X500500Y3446310D01*
X500500Y3802692D01*
X520185Y3869731D01*
X536819Y3890373D01*
X698715Y4052270D01*
X661430Y4079361D01*
X661428Y4079362D01*
X568204Y4126863D01*
X517408Y4174838D01*
X500500Y4237347D01*
X500500Y4702156D01*
X750000Y4702156D01*
X756401Y4642628D01*
X756403Y4642621D01*
X806645Y4507914D01*
X806649Y4507907D01*
X892809Y4392813D01*
X892812Y4392810D01*
X1007906Y4306650D01*
X1007913Y4306646D01*
X1142620Y4256404D01*
X1142627Y4256402D01*
X1202155Y4250001D01*
X1202172Y4250000D01*
X1500000Y4250000D01*
X2000000Y4250000D01*
X2297828Y4250000D01*
X2297844Y4250001D01*
X2357372Y4256402D01*
X2357379Y4256404D01*
X2492086Y4306646D01*
X2492093Y4306650D01*
X2607187Y4392810D01*
X2607190Y4392813D01*
X2693350Y4507907D01*
X2693354Y4507914D01*
X2743596Y4642621D01*
X2743598Y4642628D01*
X2749999Y4702156D01*
X2750000Y4702173D01*
X2750000Y5000000D01*
X2000000Y5000000D01*
X2000000Y4250000D01*
X1500000Y4250000D01*
X1500000Y5000000D01*
X750000Y5000000D01*
X750000Y4702156D01*
X500500Y4702156D01*
X500500Y7691457D01*
X749499Y7691457D01*
X787947Y7498171D01*
X787950Y7498161D01*
X863366Y7316090D01*
X863368Y7316086D01*
X896877Y7265936D01*
X924971Y7223890D01*
X945848Y7157213D01*
X927363Y7089833D01*
X924971Y7086110D01*
X863366Y6993911D01*
X787950Y6811840D01*
X787947Y6811830D01*
X749500Y6618544D01*
X749500Y6618541D01*
X749500Y6421459D01*
X749500Y6421457D01*
X749499Y6421457D01*
X787947Y6228171D01*
X787950Y6228161D01*
X830540Y6125340D01*
X838009Y6055871D01*
X815248Y6003580D01*
X806648Y5992092D01*
X806645Y5992087D01*
X756403Y5857380D01*
X756401Y5857373D01*
X750000Y5797845D01*
X750000Y5500000D01*
X1540382Y5500000D01*
X1489936Y5449554D01*
X1447149Y5375445D01*
X1425000Y5292787D01*
X1425000Y5207213D01*
X1447149Y5124555D01*
X1489936Y5050446D01*
X1550446Y4989936D01*
X1624555Y4947149D01*
X1707213Y4925000D01*
X1792787Y4925000D01*
X1875445Y4947149D01*
X1949554Y4989936D01*
X2010064Y5050446D01*
X2052851Y5124555D01*
X2075000Y5207213D01*
X2075000Y5292787D01*
X2052851Y5375445D01*
X2010064Y5449554D01*
X1959618Y5500000D01*
X2750000Y5500000D01*
X2750000Y5583204D01*
X2769685Y5650243D01*
X2822489Y5695998D01*
X2891647Y5705942D01*
X2955203Y5676917D01*
X2961681Y5670885D01*
X3073771Y5558795D01*
X3073779Y5558789D01*
X3208976Y5468453D01*
X3208980Y5468451D01*
X3323985Y5420815D01*
X3359211Y5406224D01*
X3359215Y5406224D01*
X3359216Y5406223D01*
X3518692Y5374500D01*
X3518695Y5374500D01*
X3681307Y5374500D01*
X3812013Y5400500D01*
X3840789Y5406224D01*
X3945397Y5449554D01*
X3991019Y5468451D01*
X3991023Y5468453D01*
X4099003Y5540603D01*
X4126225Y5558792D01*
X4241208Y5673775D01*
X4297363Y5757817D01*
X4331547Y5808977D01*
X4331549Y5808981D01*
X4361570Y5881458D01*
X4393776Y5959211D01*
X4411057Y6046086D01*
X4425500Y6118693D01*
X4425500Y6281308D01*
X4393777Y6440784D01*
X4393776Y6440785D01*
X4393776Y6440789D01*
X4377925Y6479057D01*
X4349979Y6546526D01*
X4342510Y6615995D01*
X4373785Y6678474D01*
X4417091Y6708540D01*
X4441019Y6718451D01*
X4441023Y6718453D01*
X4525653Y6775001D01*
X4576225Y6808792D01*
X4691208Y6923775D01*
X4738955Y6995234D01*
X4781547Y7058977D01*
X4781549Y7058981D01*
X4814683Y7138974D01*
X4843776Y7209211D01*
X4860915Y7295373D01*
X4875500Y7368693D01*
X4875500Y7531308D01*
X4843777Y7690784D01*
X4843776Y7690785D01*
X4843776Y7690789D01*
X4843499Y7691457D01*
X4781549Y7841020D01*
X4781547Y7841024D01*
X4691211Y7976221D01*
X4691205Y7976229D01*
X4576228Y8091206D01*
X4576220Y8091212D01*
X4441023Y8181548D01*
X4441019Y8181550D01*
X4290793Y8243775D01*
X4290783Y8243778D01*
X4131307Y8275500D01*
X4131305Y8275500D01*
X4124500Y8275500D01*
X4057461Y8295185D01*
X4011706Y8347989D01*
X4000500Y8399500D01*
X4000500Y14099903D01*
X4020185Y14166942D01*
X4036819Y14187584D01*
X4912819Y15063584D01*
X4974142Y15097069D01*
X5043834Y15092085D01*
X5099767Y15050213D01*
X5124184Y14984749D01*
X5124500Y14975903D01*
X5124500Y14077256D01*
X5104815Y14010217D01*
X5052011Y13964462D01*
X5006183Y13954493D01*
X5006246Y13953853D01*
X5000761Y13953313D01*
X5000500Y13953256D01*
X5000184Y13953256D01*
X4840707Y13921534D01*
X4840697Y13921531D01*
X4690471Y13859306D01*
X4690467Y13859304D01*
X4555270Y13768968D01*
X4555262Y13768962D01*
X4440285Y13653985D01*
X4440279Y13653977D01*
X4349943Y13518780D01*
X4349941Y13518776D01*
X4287716Y13368550D01*
X4287713Y13368540D01*
X4255991Y13209064D01*
X4255991Y13209061D01*
X4255991Y13046451D01*
X4255991Y13046449D01*
X4255990Y13046449D01*
X4287713Y12886973D01*
X4287716Y12886963D01*
X4349941Y12736737D01*
X4349943Y12736733D01*
X4440279Y12601536D01*
X4440285Y12601528D01*
X4555262Y12486551D01*
X4555270Y12486545D01*
X4690467Y12396209D01*
X4690471Y12396207D01*
X4828150Y12339179D01*
X4840702Y12333980D01*
X4840706Y12333980D01*
X4840707Y12333979D01*
X5000183Y12302256D01*
X5000186Y12302256D01*
X5000500Y12302256D01*
X5000659Y12302210D01*
X5006246Y12301659D01*
X5006141Y12300600D01*
X5067539Y12282571D01*
X5113294Y12229767D01*
X5124500Y12178256D01*
X5124500Y8820721D01*
X5115062Y8773271D01*
X5097466Y8730789D01*
X5097465Y8730786D01*
X5097465Y8730785D01*
X5097464Y8730784D01*
X5065742Y8571308D01*
X5065742Y8571305D01*
X5065742Y8408695D01*
X5065742Y8408693D01*
X5065741Y8408693D01*
X5097464Y8249217D01*
X5097467Y8249207D01*
X5159692Y8098981D01*
X5159694Y8098977D01*
X5250030Y7963780D01*
X5250036Y7963772D01*
X5365014Y7848794D01*
X5365017Y7848792D01*
X5491911Y7764004D01*
X5536717Y7710392D01*
X5545424Y7641068D01*
X5526124Y7592012D01*
X5442967Y7467559D01*
X5380743Y7317335D01*
X5380740Y7317325D01*
X5349018Y7157849D01*
X5349018Y7157846D01*
X5349018Y6995236D01*
X5349018Y6995234D01*
X5349017Y6995234D01*
X5380740Y6835758D01*
X5380743Y6835748D01*
X5442968Y6685522D01*
X5442970Y6685518D01*
X5533306Y6550321D01*
X5533312Y6550313D01*
X5648289Y6435336D01*
X5648297Y6435330D01*
X5783492Y6344996D01*
X5783493Y6344996D01*
X5783497Y6344993D01*
X5872955Y6307939D01*
X5927355Y6264100D01*
X5949421Y6197806D01*
X5949500Y6193379D01*
X5949500Y6171154D01*
X5980261Y6016511D01*
X5980264Y6016499D01*
X6040602Y5870828D01*
X6040609Y5870815D01*
X6128210Y5739712D01*
X6128213Y5739708D01*
X6239707Y5628214D01*
X6239711Y5628211D01*
X6370814Y5540610D01*
X6370827Y5540603D01*
X6444556Y5510064D01*
X6516503Y5480263D01*
X6631136Y5457461D01*
X6671153Y5449501D01*
X6671156Y5449500D01*
X6671158Y5449500D01*
X6828844Y5449500D01*
X6828845Y5449501D01*
X6983497Y5480263D01*
X7129179Y5540606D01*
X7260289Y5628211D01*
X7371789Y5739711D01*
X7423286Y5816781D01*
X7447398Y5852867D01*
X7501010Y5897672D01*
X7570335Y5906379D01*
X7633363Y5876225D01*
X7670082Y5816781D01*
X7674500Y5783976D01*
X7674500Y4598810D01*
X7654815Y4531771D01*
X7638181Y4511129D01*
X7558794Y4431743D01*
X7558788Y4431735D01*
X7468452Y4296538D01*
X7468450Y4296534D01*
X7406225Y4146308D01*
X7406222Y4146298D01*
X7374500Y3986822D01*
X7374500Y3986819D01*
X7374500Y3824209D01*
X7374500Y3824207D01*
X7374499Y3824207D01*
X7406222Y3664731D01*
X7406225Y3664721D01*
X7468450Y3514495D01*
X7468452Y3514491D01*
X7558788Y3379294D01*
X7558794Y3379286D01*
X7673771Y3264309D01*
X7673779Y3264303D01*
X7808976Y3173967D01*
X7808980Y3173965D01*
X7924586Y3126080D01*
X7959211Y3111738D01*
X7959215Y3111738D01*
X7959216Y3111737D01*
X8118692Y3080014D01*
X8118695Y3080014D01*
X8281307Y3080014D01*
X8388598Y3101357D01*
X8440789Y3111738D01*
X8577709Y3168452D01*
X8591019Y3173965D01*
X8591023Y3173967D01*
X8666338Y3224291D01*
X8726225Y3264306D01*
X8841208Y3379289D01*
X8901300Y3469224D01*
X8931547Y3514491D01*
X8931549Y3514495D01*
X8953657Y3567868D01*
X8993776Y3664725D01*
X9002020Y3706174D01*
X9034403Y3768082D01*
X9095118Y3802657D01*
X9099446Y3803598D01*
X9154967Y3814643D01*
X9233497Y3830263D01*
X9346166Y3876933D01*
X9379172Y3890603D01*
X9379172Y3890604D01*
X9379179Y3890606D01*
X9510289Y3978211D01*
X9621789Y4089711D01*
X9709394Y4220821D01*
X9709397Y4220828D01*
X9743784Y4303847D01*
X12073543Y4303847D01*
X12073543Y4146154D01*
X12104304Y3991511D01*
X12104307Y3991499D01*
X12164645Y3845828D01*
X12164652Y3845815D01*
X12252253Y3714712D01*
X12252256Y3714708D01*
X12363750Y3603214D01*
X12363754Y3603211D01*
X12494857Y3515610D01*
X12494870Y3515603D01*
X12521900Y3504407D01*
X12576304Y3460567D01*
X12598369Y3394273D01*
X12581090Y3326573D01*
X12562130Y3302166D01*
X12520258Y3260294D01*
X12520254Y3260289D01*
X12432653Y3129186D01*
X12432646Y3129173D01*
X12372308Y2983502D01*
X12372305Y2983490D01*
X12341544Y2828847D01*
X12341544Y2671154D01*
X12372305Y2516511D01*
X12372308Y2516499D01*
X12432646Y2370828D01*
X12432653Y2370815D01*
X12520254Y2239712D01*
X12520257Y2239708D01*
X12631751Y2128214D01*
X12631755Y2128211D01*
X12762858Y2040610D01*
X12762871Y2040603D01*
X12836057Y2010289D01*
X12908547Y1980263D01*
X13004931Y1961091D01*
X13063197Y1949501D01*
X13063200Y1949500D01*
X13063202Y1949500D01*
X13220888Y1949500D01*
X13220889Y1949501D01*
X13375541Y1980263D01*
X13521223Y2040606D01*
X13577315Y2078087D01*
X13643991Y2098965D01*
X13693658Y2089547D01*
X13754376Y2064396D01*
X13909026Y2033634D01*
X13909029Y2033633D01*
X13909031Y2033633D01*
X14066717Y2033633D01*
X14066718Y2033634D01*
X14221370Y2064396D01*
X14367052Y2124739D01*
X14498162Y2212344D01*
X14609662Y2323844D01*
X14697267Y2454954D01*
X14702440Y2467445D01*
X14746275Y2521848D01*
X14792806Y2541612D01*
X14908582Y2564641D01*
X15054264Y2624984D01*
X15185374Y2712589D01*
X15296874Y2824089D01*
X15384479Y2955199D01*
X15444822Y3100881D01*
X15469371Y3224296D01*
X21705691Y3224296D01*
X21705691Y3066603D01*
X21736452Y2911960D01*
X21736455Y2911948D01*
X21796793Y2766277D01*
X21796800Y2766264D01*
X21884401Y2635161D01*
X21884404Y2635157D01*
X21995898Y2523663D01*
X21995902Y2523660D01*
X22127005Y2436059D01*
X22127018Y2436052D01*
X22238897Y2389711D01*
X22272694Y2375712D01*
X22427344Y2344950D01*
X22427347Y2344949D01*
X22427349Y2344949D01*
X22478138Y2344949D01*
X22545177Y2325264D01*
X22581240Y2289839D01*
X22658788Y2173780D01*
X22658794Y2173772D01*
X22773771Y2058795D01*
X22773779Y2058789D01*
X22908976Y1968453D01*
X22908980Y1968451D01*
X23024417Y1920636D01*
X23059211Y1906224D01*
X23072059Y1903669D01*
X23133970Y1871286D01*
X23168546Y1810571D01*
X23171870Y1782051D01*
X23171870Y1771952D01*
X23202631Y1617309D01*
X23202634Y1617297D01*
X23262972Y1471626D01*
X23262979Y1471613D01*
X23350580Y1340510D01*
X23350583Y1340506D01*
X23462077Y1229012D01*
X23462081Y1229009D01*
X23593184Y1141408D01*
X23593197Y1141401D01*
X23720440Y1088696D01*
X23738873Y1081061D01*
X23893523Y1050299D01*
X23893526Y1050298D01*
X23893528Y1050298D01*
X24051214Y1050298D01*
X24051215Y1050299D01*
X24205867Y1081061D01*
X24351549Y1141404D01*
X24482659Y1229009D01*
X24594159Y1340509D01*
X24681764Y1471619D01*
X24742107Y1617301D01*
X24772870Y1771956D01*
X24772870Y1929640D01*
X24772870Y1929643D01*
X24772869Y1929645D01*
X24765150Y1968452D01*
X24742107Y2084295D01*
X24731614Y2109628D01*
X24681767Y2229971D01*
X24681760Y2229984D01*
X24594159Y2361087D01*
X24594156Y2361091D01*
X24482662Y2472585D01*
X24482658Y2472588D01*
X24351555Y2560189D01*
X24351546Y2560194D01*
X24202047Y2622118D01*
X24147644Y2665959D01*
X24125579Y2732253D01*
X24125500Y2736679D01*
X24125500Y2781308D01*
X24093777Y2940784D01*
X24093776Y2940785D01*
X24093776Y2940789D01*
X24084900Y2962218D01*
X24031549Y3091020D01*
X24031547Y3091024D01*
X23941211Y3226221D01*
X23941205Y3226229D01*
X23826228Y3341206D01*
X23826220Y3341212D01*
X23691023Y3431548D01*
X23691019Y3431550D01*
X23540793Y3493775D01*
X23540783Y3493778D01*
X23381307Y3525500D01*
X23381305Y3525500D01*
X23281282Y3525500D01*
X23214243Y3545185D01*
X23178180Y3580609D01*
X23127980Y3655738D01*
X23127977Y3655742D01*
X23016483Y3767236D01*
X23016479Y3767239D01*
X22919809Y3831832D01*
X22885376Y3854840D01*
X22885363Y3854847D01*
X22739692Y3915185D01*
X22739680Y3915188D01*
X22671012Y3928847D01*
X25902888Y3928847D01*
X25902888Y3771154D01*
X25933649Y3616511D01*
X25933652Y3616499D01*
X25993990Y3470828D01*
X25993997Y3470815D01*
X26081598Y3339712D01*
X26081601Y3339708D01*
X26193095Y3228214D01*
X26193099Y3228211D01*
X26324202Y3140610D01*
X26324215Y3140603D01*
X26443921Y3091020D01*
X26469891Y3080263D01*
X26621228Y3050160D01*
X26624541Y3049501D01*
X26624544Y3049500D01*
X26624546Y3049500D01*
X26782232Y3049500D01*
X26782233Y3049501D01*
X26936885Y3080263D01*
X27054980Y3129179D01*
X27082560Y3140603D01*
X27082560Y3140604D01*
X27082567Y3140606D01*
X27213677Y3228211D01*
X27325177Y3339711D01*
X27412782Y3470821D01*
X27473125Y3616503D01*
X27503888Y3771158D01*
X27503888Y3818693D01*
X27774499Y3818693D01*
X27806222Y3659217D01*
X27806225Y3659207D01*
X27868450Y3508981D01*
X27868452Y3508977D01*
X27958788Y3373780D01*
X27958794Y3373772D01*
X28073771Y3258795D01*
X28073779Y3258789D01*
X28208976Y3168453D01*
X28208980Y3168451D01*
X28311274Y3126080D01*
X28359211Y3106224D01*
X28359215Y3106224D01*
X28359216Y3106223D01*
X28518692Y3074500D01*
X28518695Y3074500D01*
X28681307Y3074500D01*
X28813928Y3100881D01*
X28840789Y3106224D01*
X28991021Y3168452D01*
X28991023Y3168453D01*
X29080457Y3228211D01*
X29126225Y3258792D01*
X29241208Y3373775D01*
X29306052Y3470821D01*
X29331547Y3508977D01*
X29331549Y3508981D01*
X29353652Y3562342D01*
X29393776Y3659211D01*
X29409726Y3739396D01*
X29425500Y3818693D01*
X29425500Y3918693D01*
X31974499Y3918693D01*
X32006222Y3759217D01*
X32006225Y3759207D01*
X32068450Y3608981D01*
X32068452Y3608977D01*
X32158788Y3473780D01*
X32158794Y3473772D01*
X32273771Y3358795D01*
X32273779Y3358789D01*
X32408976Y3268453D01*
X32408980Y3268451D01*
X32515581Y3224296D01*
X32559211Y3206224D01*
X32559215Y3206224D01*
X32559216Y3206223D01*
X32718692Y3174500D01*
X32718695Y3174500D01*
X32881307Y3174500D01*
X32988598Y3195843D01*
X33040789Y3206224D01*
X33140943Y3247710D01*
X33191019Y3268451D01*
X33191023Y3268453D01*
X33275867Y3325144D01*
X33326225Y3358792D01*
X33441208Y3473775D01*
X33504087Y3567880D01*
X33531547Y3608977D01*
X33531549Y3608981D01*
X33568647Y3698544D01*
X33593776Y3759211D01*
X33610775Y3844667D01*
X33625500Y3918693D01*
X33625500Y4081308D01*
X33593777Y4240784D01*
X33593776Y4240785D01*
X33593776Y4240789D01*
X33586909Y4257368D01*
X33531549Y4391020D01*
X33531547Y4391024D01*
X33441211Y4526221D01*
X33441205Y4526229D01*
X33326228Y4641206D01*
X33326220Y4641212D01*
X33191023Y4731548D01*
X33191019Y4731550D01*
X33040793Y4793775D01*
X33040783Y4793778D01*
X32881307Y4825500D01*
X32881305Y4825500D01*
X32718695Y4825500D01*
X32718693Y4825500D01*
X32559216Y4793778D01*
X32559206Y4793775D01*
X32408980Y4731550D01*
X32408976Y4731548D01*
X32273779Y4641212D01*
X32273771Y4641206D01*
X32158794Y4526229D01*
X32158788Y4526221D01*
X32068452Y4391024D01*
X32068450Y4391020D01*
X32006225Y4240794D01*
X32006222Y4240784D01*
X31974500Y4081308D01*
X31974500Y4081305D01*
X31974500Y3918695D01*
X31974500Y3918693D01*
X31974499Y3918693D01*
X29425500Y3918693D01*
X29425500Y3981308D01*
X29409209Y4063205D01*
X29393777Y4140784D01*
X29393776Y4140785D01*
X29393776Y4140789D01*
X29390534Y4148616D01*
X29331549Y4291020D01*
X29331547Y4291024D01*
X29241211Y4426221D01*
X29241205Y4426229D01*
X29126228Y4541206D01*
X29126220Y4541212D01*
X28991023Y4631548D01*
X28991019Y4631550D01*
X28840793Y4693775D01*
X28840783Y4693778D01*
X28681307Y4725500D01*
X28681305Y4725500D01*
X28518695Y4725500D01*
X28518693Y4725500D01*
X28359216Y4693778D01*
X28359206Y4693775D01*
X28208980Y4631550D01*
X28208976Y4631548D01*
X28073779Y4541212D01*
X28073771Y4541206D01*
X27958794Y4426229D01*
X27958788Y4426221D01*
X27868452Y4291024D01*
X27868450Y4291020D01*
X27806225Y4140794D01*
X27806222Y4140784D01*
X27774500Y3981308D01*
X27774500Y3981305D01*
X27774500Y3818695D01*
X27774500Y3818693D01*
X27774499Y3818693D01*
X27503888Y3818693D01*
X27503888Y3928842D01*
X27503888Y3928845D01*
X27497053Y3963205D01*
X27497053Y3963206D01*
X27475031Y4073914D01*
X27473125Y4083497D01*
X27464584Y4104117D01*
X27412785Y4229173D01*
X27412778Y4229186D01*
X27325177Y4360289D01*
X27325174Y4360293D01*
X27213680Y4471787D01*
X27213676Y4471790D01*
X27082573Y4559391D01*
X27082560Y4559398D01*
X26936889Y4619736D01*
X26936877Y4619739D01*
X26782233Y4650500D01*
X26782230Y4650500D01*
X26624546Y4650500D01*
X26624543Y4650500D01*
X26469898Y4619739D01*
X26469886Y4619736D01*
X26324215Y4559398D01*
X26324202Y4559391D01*
X26193099Y4471790D01*
X26193095Y4471787D01*
X26081601Y4360293D01*
X26081598Y4360289D01*
X25993997Y4229186D01*
X25993990Y4229173D01*
X25933652Y4083502D01*
X25933649Y4083490D01*
X25902888Y3928847D01*
X22671012Y3928847D01*
X22585036Y3945949D01*
X22585033Y3945949D01*
X22427349Y3945949D01*
X22427346Y3945949D01*
X22272701Y3915188D01*
X22272689Y3915185D01*
X22127018Y3854847D01*
X22127005Y3854840D01*
X21995902Y3767239D01*
X21995898Y3767236D01*
X21884404Y3655742D01*
X21884401Y3655738D01*
X21796800Y3524635D01*
X21796793Y3524622D01*
X21736455Y3378951D01*
X21736452Y3378939D01*
X21705691Y3224296D01*
X15469371Y3224296D01*
X15469755Y3226225D01*
X15475394Y3254574D01*
X15475395Y3254580D01*
X15475585Y3255535D01*
X15475585Y3413223D01*
X15475584Y3413225D01*
X15470763Y3437462D01*
X15444822Y3567875D01*
X15439768Y3580077D01*
X15384482Y3713551D01*
X15384475Y3713564D01*
X15296874Y3844667D01*
X15296871Y3844671D01*
X15185377Y3956165D01*
X15185373Y3956168D01*
X15054270Y4043769D01*
X15054257Y4043776D01*
X14908586Y4104114D01*
X14908574Y4104117D01*
X14753930Y4134878D01*
X14753927Y4134878D01*
X14596243Y4134878D01*
X14596240Y4134878D01*
X14441595Y4104117D01*
X14441583Y4104114D01*
X14295912Y4043776D01*
X14295899Y4043769D01*
X14164796Y3956168D01*
X14164792Y3956165D01*
X14053298Y3844671D01*
X14053295Y3844667D01*
X13965692Y3713561D01*
X13960516Y3701063D01*
X13958938Y3699106D01*
X13958572Y3696618D01*
X13937135Y3672050D01*
X13916675Y3646660D01*
X13913778Y3645281D01*
X13912636Y3643971D01*
X13902369Y3639846D01*
X13880481Y3629420D01*
X13875359Y3627936D01*
X13754376Y3603870D01*
X13665818Y3567189D01*
X13659218Y3565275D01*
X13630863Y3565372D01*
X13602674Y3562342D01*
X13596385Y3565490D01*
X13589349Y3565514D01*
X13565545Y3580928D01*
X13540195Y3593617D01*
X13536605Y3599667D01*
X13530701Y3603490D01*
X13519010Y3629323D01*
X13504543Y3653707D01*
X13504794Y3660737D01*
X13501894Y3667145D01*
X13506025Y3695196D01*
X13507038Y3723532D01*
X13511559Y3732770D01*
X13512075Y3736269D01*
X13514803Y3739396D01*
X13521589Y3753260D01*
X13573041Y3830262D01*
X13583432Y3845813D01*
X13583433Y3845816D01*
X13583437Y3845821D01*
X13643780Y3991503D01*
X13674543Y4146158D01*
X13674543Y4303842D01*
X13674543Y4303845D01*
X13674542Y4303847D01*
X13662077Y4366511D01*
X13643780Y4458497D01*
X13634764Y4480263D01*
X13583440Y4604173D01*
X13583433Y4604186D01*
X13495832Y4735289D01*
X13495829Y4735293D01*
X13384335Y4846787D01*
X13384331Y4846790D01*
X13253228Y4934391D01*
X13253215Y4934398D01*
X13107544Y4994736D01*
X13107532Y4994739D01*
X12952888Y5025500D01*
X12952885Y5025500D01*
X12795201Y5025500D01*
X12795198Y5025500D01*
X12640553Y4994739D01*
X12640541Y4994736D01*
X12494870Y4934398D01*
X12494857Y4934391D01*
X12363754Y4846790D01*
X12363750Y4846787D01*
X12252256Y4735293D01*
X12252253Y4735289D01*
X12164652Y4604186D01*
X12164645Y4604173D01*
X12104307Y4458502D01*
X12104304Y4458490D01*
X12073543Y4303847D01*
X9743784Y4303847D01*
X9765958Y4357379D01*
X9765958Y4357381D01*
X9769737Y4366503D01*
X9800500Y4521158D01*
X9800500Y4630258D01*
X9820185Y4697297D01*
X9862752Y4736576D01*
X9862456Y4737019D01*
X9865273Y4738902D01*
X9866050Y4739618D01*
X9867514Y4740402D01*
X9867521Y4740404D01*
X10002725Y4830744D01*
X10117708Y4945727D01*
X10208048Y5080931D01*
X10220209Y5110289D01*
X10228790Y5131009D01*
X10270276Y5231163D01*
X10289707Y5328847D01*
X14699500Y5328847D01*
X14699500Y5171154D01*
X14730261Y5016511D01*
X14730264Y5016499D01*
X14790602Y4870828D01*
X14790609Y4870815D01*
X14878210Y4739712D01*
X14878213Y4739708D01*
X14989707Y4628214D01*
X14989711Y4628211D01*
X15120814Y4540610D01*
X15120827Y4540603D01*
X15251134Y4486629D01*
X15266503Y4480263D01*
X15375963Y4458490D01*
X15421153Y4449501D01*
X15421156Y4449500D01*
X15421158Y4449500D01*
X15578844Y4449500D01*
X15578845Y4449501D01*
X15733497Y4480263D01*
X15879179Y4540606D01*
X16010289Y4628211D01*
X16121789Y4739711D01*
X16209394Y4870821D01*
X16269737Y5016503D01*
X16300500Y5171158D01*
X16300500Y5328842D01*
X16300500Y5328845D01*
X16300499Y5328847D01*
X16269737Y5483497D01*
X16258733Y5510064D01*
X16209397Y5629173D01*
X16209390Y5629186D01*
X16132762Y5743867D01*
X16111884Y5810544D01*
X16130368Y5877924D01*
X16166970Y5915858D01*
X16260289Y5978211D01*
X16371789Y6089711D01*
X16456068Y6215843D01*
X20136584Y6215843D01*
X20136584Y6058150D01*
X20167345Y5903507D01*
X20167348Y5903495D01*
X20227686Y5757824D01*
X20227693Y5757811D01*
X20315294Y5626708D01*
X20315297Y5626704D01*
X20426791Y5515210D01*
X20426795Y5515207D01*
X20557898Y5427606D01*
X20557911Y5427599D01*
X20697607Y5369736D01*
X20703587Y5367259D01*
X20858237Y5336497D01*
X20858240Y5336496D01*
X20858242Y5336496D01*
X21015928Y5336496D01*
X21015929Y5336497D01*
X21170581Y5367259D01*
X21316263Y5427602D01*
X21447373Y5515207D01*
X21558873Y5626707D01*
X21646478Y5757817D01*
X21696269Y5878026D01*
X21696930Y5878847D01*
X22949500Y5878847D01*
X22949500Y5721154D01*
X22980261Y5566511D01*
X22980264Y5566499D01*
X23040602Y5420828D01*
X23040609Y5420815D01*
X23128210Y5289712D01*
X23128213Y5289708D01*
X23239707Y5178214D01*
X23239711Y5178211D01*
X23370814Y5090610D01*
X23370827Y5090603D01*
X23516498Y5030265D01*
X23516503Y5030263D01*
X23668644Y5000000D01*
X23671153Y4999501D01*
X23671156Y4999500D01*
X23671158Y4999500D01*
X23828844Y4999500D01*
X23828845Y4999501D01*
X23983497Y5030263D01*
X24096166Y5076933D01*
X24129172Y5090603D01*
X24129172Y5090604D01*
X24129179Y5090606D01*
X24260289Y5178211D01*
X24371789Y5289711D01*
X24459394Y5420821D01*
X24519737Y5566503D01*
X24550500Y5721158D01*
X24550500Y5878842D01*
X24550500Y5878845D01*
X24550499Y5878847D01*
X24545594Y5903507D01*
X24519737Y6033497D01*
X24513145Y6049412D01*
X24459397Y6179173D01*
X24459390Y6179186D01*
X24371789Y6310289D01*
X24371786Y6310293D01*
X24260292Y6421787D01*
X24260288Y6421790D01*
X24129185Y6509391D01*
X24129172Y6509398D01*
X23983501Y6569736D01*
X23983489Y6569739D01*
X23828845Y6600500D01*
X23828842Y6600500D01*
X23671158Y6600500D01*
X23671155Y6600500D01*
X23516510Y6569739D01*
X23516498Y6569736D01*
X23370827Y6509398D01*
X23370814Y6509391D01*
X23239711Y6421790D01*
X23239707Y6421787D01*
X23128213Y6310293D01*
X23128210Y6310289D01*
X23040609Y6179186D01*
X23040602Y6179173D01*
X22980264Y6033502D01*
X22980261Y6033490D01*
X22949500Y5878847D01*
X21696930Y5878847D01*
X21699034Y5881458D01*
X21699808Y5885803D01*
X21720763Y5908421D01*
X21740107Y5932425D01*
X21745139Y5934732D01*
X21747294Y5937056D01*
X21765474Y5944049D01*
X21779868Y5950643D01*
X21783215Y5951507D01*
X21927785Y5980263D01*
X22073467Y6040606D01*
X22204577Y6128211D01*
X22316077Y6239711D01*
X22403682Y6370821D01*
X22464025Y6516503D01*
X22494788Y6671158D01*
X22494788Y6693434D01*
X22514473Y6760473D01*
X22567277Y6806228D01*
X22636435Y6816172D01*
X22642968Y6815054D01*
X22678063Y6808073D01*
X22721156Y6799500D01*
X22721158Y6799500D01*
X22878844Y6799500D01*
X22878845Y6799501D01*
X23033497Y6830263D01*
X23156724Y6881305D01*
X23179172Y6890603D01*
X23179172Y6890604D01*
X23179179Y6890606D01*
X23310289Y6978211D01*
X23421789Y7089711D01*
X23509394Y7220821D01*
X23569737Y7366503D01*
X23600500Y7521158D01*
X23600500Y7678842D01*
X23600500Y7678845D01*
X23600499Y7678847D01*
X23591075Y7726225D01*
X23569737Y7833497D01*
X23566621Y7841020D01*
X23509397Y7979173D01*
X23509390Y7979186D01*
X23421789Y8110289D01*
X23421786Y8110293D01*
X23310292Y8221787D01*
X23310288Y8221790D01*
X23179185Y8309391D01*
X23179172Y8309398D01*
X23033501Y8369736D01*
X23033489Y8369739D01*
X22878845Y8400500D01*
X22878842Y8400500D01*
X22721158Y8400500D01*
X22721155Y8400500D01*
X22566510Y8369739D01*
X22566498Y8369736D01*
X22420827Y8309398D01*
X22420814Y8309391D01*
X22289711Y8221790D01*
X22289707Y8221787D01*
X22178213Y8110293D01*
X22178210Y8110289D01*
X22090609Y7979186D01*
X22090602Y7979173D01*
X22030264Y7833502D01*
X22030261Y7833490D01*
X21999500Y7678847D01*
X21999500Y7656567D01*
X21979815Y7589528D01*
X21927011Y7543773D01*
X21857853Y7533829D01*
X21851309Y7534950D01*
X21773134Y7550500D01*
X21773130Y7550500D01*
X21615446Y7550500D01*
X21615443Y7550500D01*
X21460798Y7519739D01*
X21460786Y7519736D01*
X21315115Y7459398D01*
X21315102Y7459391D01*
X21183999Y7371790D01*
X21183995Y7371787D01*
X21072501Y7260293D01*
X21072498Y7260289D01*
X20984897Y7129186D01*
X20984890Y7129173D01*
X20935104Y7008975D01*
X20891264Y6954571D01*
X20844735Y6934810D01*
X20703592Y6906735D01*
X20703582Y6906732D01*
X20557911Y6846394D01*
X20557898Y6846387D01*
X20426795Y6758786D01*
X20426791Y6758783D01*
X20315297Y6647289D01*
X20315294Y6647285D01*
X20227693Y6516182D01*
X20227686Y6516169D01*
X20167348Y6370498D01*
X20167345Y6370486D01*
X20136584Y6215843D01*
X16456068Y6215843D01*
X16459394Y6220821D01*
X16462436Y6228165D01*
X16479509Y6269382D01*
X16510827Y6344993D01*
X16519737Y6366503D01*
X16550500Y6521158D01*
X16550500Y6678842D01*
X16550500Y6678845D01*
X16550499Y6678847D01*
X16536740Y6748017D01*
X16519737Y6833497D01*
X16518803Y6835752D01*
X16459397Y6979173D01*
X16459390Y6979186D01*
X16371789Y7110289D01*
X16371786Y7110293D01*
X16260292Y7221787D01*
X16260288Y7221790D01*
X16129185Y7309391D01*
X16129172Y7309398D01*
X15983501Y7369736D01*
X15983489Y7369739D01*
X15828845Y7400500D01*
X15828842Y7400500D01*
X15671158Y7400500D01*
X15671155Y7400500D01*
X15516510Y7369739D01*
X15516498Y7369736D01*
X15370827Y7309398D01*
X15370814Y7309391D01*
X15239711Y7221790D01*
X15239707Y7221787D01*
X15128213Y7110293D01*
X15128210Y7110289D01*
X15040609Y6979186D01*
X15040602Y6979173D01*
X14980264Y6833502D01*
X14980261Y6833490D01*
X14949500Y6678847D01*
X14949500Y6521154D01*
X14980261Y6366511D01*
X14980264Y6366499D01*
X15040602Y6220828D01*
X15040609Y6220815D01*
X15117237Y6106134D01*
X15138115Y6039456D01*
X15119631Y5972076D01*
X15083026Y5934141D01*
X14989711Y5871790D01*
X14989707Y5871787D01*
X14878213Y5760293D01*
X14878210Y5760289D01*
X14790609Y5629186D01*
X14790602Y5629173D01*
X14730264Y5483502D01*
X14730261Y5483490D01*
X14699500Y5328847D01*
X10289707Y5328847D01*
X10295730Y5359125D01*
X10295730Y5359127D01*
X10297348Y5367258D01*
X10302000Y5390647D01*
X10302000Y5553257D01*
X10302000Y5553260D01*
X10270277Y5712736D01*
X10270276Y5712737D01*
X10270276Y5712741D01*
X10266791Y5721154D01*
X10208049Y5862972D01*
X10208047Y5862976D01*
X10117711Y5998173D01*
X10117705Y5998181D01*
X10002728Y6113158D01*
X10002720Y6113164D01*
X9867523Y6203500D01*
X9867519Y6203502D01*
X9717293Y6265727D01*
X9717283Y6265730D01*
X9557807Y6297452D01*
X9557805Y6297452D01*
X9526000Y6297452D01*
X9458961Y6317137D01*
X9413206Y6369941D01*
X9402000Y6421452D01*
X9402000Y6806500D01*
X9421685Y6873539D01*
X9474489Y6919294D01*
X9526000Y6930500D01*
X9689064Y6930500D01*
X9805176Y6953597D01*
X9836480Y6959824D01*
X9906071Y6953597D01*
X9942234Y6929898D01*
X9942805Y6930592D01*
X9947515Y6926727D01*
X10078618Y6839126D01*
X10078631Y6839119D01*
X10224302Y6778781D01*
X10224307Y6778779D01*
X10378957Y6748017D01*
X10378960Y6748016D01*
X10378962Y6748016D01*
X10536648Y6748016D01*
X10536649Y6748017D01*
X10691301Y6778779D01*
X10823415Y6833502D01*
X10836976Y6839119D01*
X10836976Y6839120D01*
X10836983Y6839122D01*
X10968093Y6926727D01*
X11079593Y7038227D01*
X11167198Y7169337D01*
X11227541Y7315019D01*
X11249850Y7427173D01*
X11282234Y7489084D01*
X11342950Y7523658D01*
X11412720Y7519919D01*
X11469392Y7479053D01*
X11474569Y7471873D01*
X11563967Y7338080D01*
X11563970Y7338076D01*
X11675464Y7226582D01*
X11675468Y7226579D01*
X11806571Y7138978D01*
X11806584Y7138971D01*
X11952255Y7078633D01*
X11952260Y7078631D01*
X12106910Y7047869D01*
X12106913Y7047868D01*
X12106915Y7047868D01*
X12264601Y7047868D01*
X12264602Y7047869D01*
X12419254Y7078631D01*
X12537199Y7127486D01*
X12606665Y7134954D01*
X12653539Y7116026D01*
X12683110Y7096267D01*
X12683112Y7096266D01*
X12683114Y7096265D01*
X12823232Y7038227D01*
X12828792Y7035924D01*
X12944571Y7012894D01*
X12983442Y7005162D01*
X12983445Y7005161D01*
X12983447Y7005161D01*
X13141133Y7005161D01*
X13141134Y7005162D01*
X13295786Y7035924D01*
X13425935Y7089833D01*
X13441461Y7096264D01*
X13441461Y7096265D01*
X13441468Y7096267D01*
X13572578Y7183872D01*
X13684078Y7295372D01*
X13771683Y7426482D01*
X13832026Y7572164D01*
X13862789Y7726819D01*
X13862789Y7884503D01*
X13862789Y7884506D01*
X13862788Y7884508D01*
X13854294Y7927210D01*
X13832026Y8039158D01*
X13814347Y8081840D01*
X13771686Y8184834D01*
X13771679Y8184847D01*
X13684078Y8315950D01*
X13684075Y8315954D01*
X13572581Y8427448D01*
X13572577Y8427451D01*
X13441474Y8515052D01*
X13441461Y8515059D01*
X13295790Y8575397D01*
X13295778Y8575400D01*
X13141134Y8606161D01*
X13141131Y8606161D01*
X12983447Y8606161D01*
X12983444Y8606161D01*
X12828799Y8575400D01*
X12828796Y8575399D01*
X12828795Y8575399D01*
X12828792Y8575398D01*
X12740201Y8538703D01*
X12710849Y8526545D01*
X12641379Y8519077D01*
X12594507Y8538004D01*
X12564940Y8557760D01*
X12564929Y8557766D01*
X12419258Y8618104D01*
X12419246Y8618107D01*
X12264602Y8648868D01*
X12264599Y8648868D01*
X12106915Y8648868D01*
X12106912Y8648868D01*
X11952267Y8618107D01*
X11952255Y8618104D01*
X11806584Y8557766D01*
X11806571Y8557759D01*
X11675468Y8470158D01*
X11675464Y8470155D01*
X11563970Y8358661D01*
X11563967Y8358657D01*
X11476366Y8227554D01*
X11476359Y8227541D01*
X11416021Y8081870D01*
X11416018Y8081860D01*
X11393710Y7969711D01*
X11361325Y7907800D01*
X11300609Y7873226D01*
X11230839Y7876967D01*
X11174168Y7917833D01*
X11168991Y7925012D01*
X11079593Y8058805D01*
X11079590Y8058809D01*
X10968096Y8170303D01*
X10968092Y8170306D01*
X10836989Y8257907D01*
X10836976Y8257914D01*
X10691305Y8318252D01*
X10691293Y8318255D01*
X10536649Y8349016D01*
X10536646Y8349016D01*
X10378962Y8349016D01*
X10378957Y8349016D01*
X10279829Y8329298D01*
X10271926Y8330006D01*
X10264490Y8327231D01*
X10237621Y8333075D01*
X10210238Y8335525D01*
X10202231Y8340772D01*
X10196216Y8342080D01*
X10167961Y8363230D01*
X10156970Y8374220D01*
X10123482Y8435541D01*
X10128463Y8505233D01*
X10137261Y8523906D01*
X10138785Y8526545D01*
X10159577Y8562558D01*
X10200501Y8715285D01*
X10200501Y8873400D01*
X10200501Y8880995D01*
X10200500Y8881013D01*
X10200500Y9428847D01*
X23849500Y9428847D01*
X23849500Y9271154D01*
X23880261Y9116511D01*
X23880264Y9116499D01*
X23940602Y8970828D01*
X23940609Y8970815D01*
X24028210Y8839712D01*
X24028213Y8839708D01*
X24139710Y8728211D01*
X24244391Y8658266D01*
X24249481Y8652175D01*
X24256703Y8648877D01*
X24271566Y8625750D01*
X24289196Y8604654D01*
X24291147Y8595280D01*
X24294477Y8590099D01*
X24299500Y8555164D01*
X24299500Y8532941D01*
X24279815Y8465902D01*
X24263181Y8445260D01*
X24178213Y8360293D01*
X24178210Y8360289D01*
X24090609Y8229186D01*
X24090602Y8229173D01*
X24030264Y8083502D01*
X24030261Y8083490D01*
X23999500Y7928847D01*
X23999500Y7771154D01*
X24030261Y7616511D01*
X24030264Y7616499D01*
X24090602Y7470828D01*
X24090609Y7470815D01*
X24178210Y7339712D01*
X24178213Y7339708D01*
X24289707Y7228214D01*
X24289711Y7228211D01*
X24420814Y7140610D01*
X24420827Y7140603D01*
X24552387Y7086110D01*
X24566503Y7080263D01*
X24721153Y7049501D01*
X24721156Y7049500D01*
X24721158Y7049500D01*
X24878844Y7049500D01*
X24878845Y7049501D01*
X25033497Y7080263D01*
X25151592Y7129179D01*
X25179172Y7140603D01*
X25179172Y7140604D01*
X25179179Y7140606D01*
X25179184Y7140610D01*
X25179187Y7140611D01*
X25241327Y7182132D01*
X25308004Y7203011D01*
X25375385Y7184527D01*
X25422075Y7132549D01*
X25433252Y7063579D01*
X25431836Y7054840D01*
X25399500Y6892279D01*
X25399500Y6892274D01*
X25399500Y6729664D01*
X25399500Y6729662D01*
X25399499Y6729662D01*
X25431222Y6570186D01*
X25431225Y6570176D01*
X25493450Y6419950D01*
X25493452Y6419946D01*
X25583788Y6284749D01*
X25583794Y6284741D01*
X25698771Y6169764D01*
X25698779Y6169758D01*
X25833976Y6079422D01*
X25833980Y6079420D01*
X25944866Y6033490D01*
X25984211Y6017193D01*
X25984215Y6017193D01*
X25984216Y6017192D01*
X26143692Y5985469D01*
X26143695Y5985469D01*
X26306307Y5985469D01*
X26413598Y6006812D01*
X26465789Y6017193D01*
X26589537Y6068451D01*
X26616019Y6079420D01*
X26616023Y6079422D01*
X26734804Y6158789D01*
X26751225Y6169761D01*
X26866208Y6284744D01*
X26926181Y6374500D01*
X26956547Y6419946D01*
X26956549Y6419950D01*
X26996409Y6516182D01*
X27018776Y6570180D01*
X27032075Y6637037D01*
X27050500Y6729662D01*
X27050500Y6793605D01*
X27749499Y6793605D01*
X27781222Y6634129D01*
X27781225Y6634119D01*
X27843450Y6483893D01*
X27843452Y6483889D01*
X27933788Y6348692D01*
X27933794Y6348684D01*
X28048771Y6233707D01*
X28048779Y6233701D01*
X28183976Y6143365D01*
X28183980Y6143363D01*
X28313509Y6089711D01*
X28334211Y6081136D01*
X28334215Y6081136D01*
X28334216Y6081135D01*
X28493692Y6049412D01*
X28493695Y6049412D01*
X28656307Y6049412D01*
X28763598Y6070755D01*
X28815789Y6081136D01*
X28966021Y6143364D01*
X28966023Y6143365D01*
X29040874Y6193379D01*
X29101225Y6233704D01*
X29216208Y6348687D01*
X29259371Y6413285D01*
X29312981Y6458089D01*
X29382305Y6466798D01*
X29445333Y6436644D01*
X29465574Y6413285D01*
X29558791Y6273776D01*
X29558794Y6273772D01*
X29673771Y6158795D01*
X29673779Y6158789D01*
X29808976Y6068453D01*
X29808980Y6068451D01*
X29934376Y6016511D01*
X29959211Y6006224D01*
X29959215Y6006224D01*
X29959216Y6006223D01*
X30118692Y5974500D01*
X30118695Y5974500D01*
X30281307Y5974500D01*
X30408132Y5999728D01*
X30440789Y6006224D01*
X30566150Y6058150D01*
X30591019Y6068451D01*
X30591023Y6068453D01*
X30680457Y6128211D01*
X30726225Y6158792D01*
X30841208Y6273775D01*
X30906052Y6370821D01*
X30931547Y6408977D01*
X30931549Y6408981D01*
X30962577Y6483889D01*
X30993776Y6559211D01*
X31007694Y6629179D01*
X31025500Y6718693D01*
X31025500Y6881308D01*
X30993777Y7040784D01*
X30993776Y7040785D01*
X30993776Y7040789D01*
X30989233Y7051758D01*
X30931549Y7191020D01*
X30931547Y7191024D01*
X30841211Y7326221D01*
X30841205Y7326229D01*
X30726228Y7441206D01*
X30726220Y7441212D01*
X30591023Y7531548D01*
X30591019Y7531550D01*
X30440793Y7593775D01*
X30440783Y7593778D01*
X30281307Y7625500D01*
X30281305Y7625500D01*
X30118695Y7625500D01*
X30118693Y7625500D01*
X29959216Y7593778D01*
X29959206Y7593775D01*
X29808980Y7531550D01*
X29808976Y7531548D01*
X29673779Y7441212D01*
X29673771Y7441206D01*
X29558794Y7326229D01*
X29558791Y7326225D01*
X29515629Y7261628D01*
X29462017Y7216823D01*
X29392692Y7208116D01*
X29329664Y7238271D01*
X29309425Y7261628D01*
X29216208Y7401138D01*
X29101228Y7516118D01*
X29101220Y7516124D01*
X28966023Y7606460D01*
X28966019Y7606462D01*
X28815793Y7668687D01*
X28815783Y7668690D01*
X28656307Y7700412D01*
X28656305Y7700412D01*
X28493695Y7700412D01*
X28493693Y7700412D01*
X28334216Y7668690D01*
X28334206Y7668687D01*
X28183980Y7606462D01*
X28183976Y7606460D01*
X28048779Y7516124D01*
X28048771Y7516118D01*
X27933794Y7401141D01*
X27933788Y7401133D01*
X27843452Y7265936D01*
X27843450Y7265932D01*
X27781225Y7115706D01*
X27781222Y7115696D01*
X27749500Y6956220D01*
X27749500Y6956217D01*
X27749500Y6793607D01*
X27749500Y6793605D01*
X27749499Y6793605D01*
X27050500Y6793605D01*
X27050500Y6892277D01*
X27050499Y6892279D01*
X27041382Y6938118D01*
X27018777Y7051753D01*
X27018776Y7051754D01*
X27018776Y7051758D01*
X27007645Y7078631D01*
X26956549Y7201989D01*
X26956547Y7201993D01*
X26866211Y7337190D01*
X26866205Y7337198D01*
X26751228Y7452175D01*
X26751220Y7452181D01*
X26616023Y7542517D01*
X26616019Y7542519D01*
X26465793Y7604744D01*
X26465783Y7604747D01*
X26306307Y7636469D01*
X26306305Y7636469D01*
X26143695Y7636469D01*
X26143693Y7636469D01*
X25984216Y7604747D01*
X25984206Y7604744D01*
X25833982Y7542519D01*
X25761171Y7493869D01*
X25694493Y7472992D01*
X25627113Y7491477D01*
X25580424Y7543457D01*
X25569248Y7612427D01*
X25570664Y7621164D01*
X25573709Y7636469D01*
X25584514Y7690789D01*
X25600500Y7771156D01*
X25600500Y7917060D01*
X25620185Y7984099D01*
X25636814Y8004737D01*
X25721789Y8089711D01*
X25809394Y8220821D01*
X25812178Y8227541D01*
X25840196Y8295185D01*
X25869737Y8366503D01*
X25900500Y8521158D01*
X25900500Y8550500D01*
X25920185Y8617539D01*
X25972989Y8663294D01*
X26024500Y8674500D01*
X26181307Y8674500D01*
X26303472Y8698801D01*
X26340789Y8706224D01*
X26471314Y8760289D01*
X26491019Y8768451D01*
X26491023Y8768453D01*
X26583139Y8830003D01*
X26626225Y8858792D01*
X26678432Y8910999D01*
X26739755Y8944485D01*
X26809447Y8939501D01*
X26853795Y8911000D01*
X26898771Y8866024D01*
X26898779Y8866018D01*
X27033976Y8775682D01*
X27033980Y8775680D01*
X27171560Y8718693D01*
X27184211Y8713453D01*
X27184215Y8713453D01*
X27184216Y8713452D01*
X27343692Y8681729D01*
X27343695Y8681729D01*
X27506307Y8681729D01*
X27629457Y8706226D01*
X27665789Y8713453D01*
X27678440Y8718693D01*
X29924499Y8718693D01*
X29956222Y8559217D01*
X29956225Y8559207D01*
X30018450Y8408981D01*
X30018452Y8408977D01*
X30108788Y8273780D01*
X30108794Y8273772D01*
X30223771Y8158795D01*
X30223779Y8158789D01*
X30358976Y8068453D01*
X30358980Y8068451D01*
X30470540Y8022242D01*
X30509211Y8006224D01*
X30509215Y8006224D01*
X30509216Y8006223D01*
X30668692Y7974500D01*
X30668695Y7974500D01*
X30831307Y7974500D01*
X30938598Y7995843D01*
X30990789Y8006224D01*
X31141021Y8068452D01*
X31141023Y8068453D01*
X31215756Y8118388D01*
X31276225Y8158792D01*
X31391208Y8273775D01*
X31455327Y8369736D01*
X31481547Y8408977D01*
X31481549Y8408981D01*
X31512416Y8483502D01*
X31543776Y8559211D01*
X31566709Y8674500D01*
X31575500Y8718693D01*
X31575500Y8881308D01*
X31543777Y9040784D01*
X31543776Y9040785D01*
X31543776Y9040789D01*
X31539754Y9050500D01*
X31481549Y9191020D01*
X31481547Y9191024D01*
X31391211Y9326221D01*
X31391205Y9326229D01*
X31276228Y9441206D01*
X31276220Y9441212D01*
X31141023Y9531548D01*
X31141019Y9531550D01*
X30990793Y9593775D01*
X30990783Y9593778D01*
X30831307Y9625500D01*
X30831305Y9625500D01*
X30668695Y9625500D01*
X30668693Y9625500D01*
X30509216Y9593778D01*
X30509206Y9593775D01*
X30358980Y9531550D01*
X30358976Y9531548D01*
X30223779Y9441212D01*
X30223771Y9441206D01*
X30108794Y9326229D01*
X30108788Y9326221D01*
X30018452Y9191024D01*
X30018450Y9191020D01*
X29956225Y9040794D01*
X29956222Y9040784D01*
X29924500Y8881308D01*
X29924500Y8881305D01*
X29924500Y8718695D01*
X29924500Y8718693D01*
X29924499Y8718693D01*
X27678440Y8718693D01*
X27798571Y8768453D01*
X27816019Y8775680D01*
X27816023Y8775682D01*
X27897320Y8830003D01*
X27951225Y8866021D01*
X27996204Y8911000D01*
X28060283Y8975078D01*
X28066205Y8981001D01*
X28066208Y8981004D01*
X28156548Y9116208D01*
X28218776Y9266440D01*
X28230669Y9326229D01*
X28250500Y9425922D01*
X28250500Y9588537D01*
X28218777Y9748013D01*
X28218776Y9748014D01*
X28218776Y9748018D01*
X28172272Y9860289D01*
X28156549Y9898249D01*
X28156547Y9898253D01*
X28066211Y10033450D01*
X28066205Y10033458D01*
X28016493Y10083170D01*
X27983008Y10144493D01*
X27987992Y10214185D01*
X28029864Y10270118D01*
X28095328Y10294535D01*
X28128366Y10292468D01*
X28218693Y10274500D01*
X28218695Y10274500D01*
X28381307Y10274500D01*
X28488598Y10295843D01*
X28540789Y10306224D01*
X28691021Y10368452D01*
X28691023Y10368453D01*
X28803268Y10443453D01*
X28826225Y10458792D01*
X28941208Y10573775D01*
X29028464Y10704363D01*
X29031547Y10708977D01*
X29031549Y10708981D01*
X29093774Y10859207D01*
X29093776Y10859211D01*
X29108696Y10934217D01*
X29125500Y11018693D01*
X29125500Y11181308D01*
X29093777Y11340784D01*
X29093776Y11340785D01*
X29093776Y11340789D01*
X29093774Y11340794D01*
X29031549Y11491020D01*
X29031547Y11491024D01*
X28941211Y11626221D01*
X28941205Y11626229D01*
X28826228Y11741206D01*
X28826220Y11741212D01*
X28691023Y11831548D01*
X28691019Y11831550D01*
X28540793Y11893775D01*
X28540783Y11893778D01*
X28381307Y11925500D01*
X28381305Y11925500D01*
X28218695Y11925500D01*
X28218693Y11925500D01*
X28059216Y11893778D01*
X28059206Y11893775D01*
X27908980Y11831550D01*
X27908976Y11831548D01*
X27773779Y11741212D01*
X27773771Y11741206D01*
X27658794Y11626229D01*
X27658788Y11626221D01*
X27568452Y11491024D01*
X27568450Y11491020D01*
X27506225Y11340794D01*
X27506222Y11340784D01*
X27474500Y11181308D01*
X27474500Y11181305D01*
X27474500Y11018695D01*
X27474500Y11018693D01*
X27474499Y11018693D01*
X27506222Y10859217D01*
X27506225Y10859207D01*
X27568450Y10708981D01*
X27568452Y10708977D01*
X27658788Y10573780D01*
X27658794Y10573772D01*
X27708506Y10524060D01*
X27741991Y10462737D01*
X27737007Y10393045D01*
X27695135Y10337112D01*
X27629671Y10312695D01*
X27596634Y10314762D01*
X27506308Y10332729D01*
X27506305Y10332729D01*
X27343695Y10332729D01*
X27343693Y10332729D01*
X27184216Y10301007D01*
X27184206Y10301004D01*
X27033980Y10238779D01*
X27033976Y10238777D01*
X26898779Y10148441D01*
X26898770Y10148434D01*
X26846565Y10096229D01*
X26785242Y10062745D01*
X26715550Y10067730D01*
X26671204Y10096230D01*
X26626228Y10141206D01*
X26626220Y10141212D01*
X26491023Y10231548D01*
X26491019Y10231550D01*
X26340793Y10293775D01*
X26340783Y10293778D01*
X26181307Y10325500D01*
X26181305Y10325500D01*
X26018695Y10325500D01*
X26018693Y10325500D01*
X25859216Y10293778D01*
X25859206Y10293775D01*
X25708980Y10231550D01*
X25708976Y10231548D01*
X25573779Y10141212D01*
X25573771Y10141206D01*
X25458794Y10026229D01*
X25458789Y10026223D01*
X25401366Y9940284D01*
X25347754Y9895480D01*
X25278429Y9886773D01*
X25215402Y9916928D01*
X25210584Y9921495D01*
X25160292Y9971787D01*
X25160288Y9971790D01*
X25029185Y10059391D01*
X25029172Y10059398D01*
X24883501Y10119736D01*
X24883489Y10119739D01*
X24728845Y10150500D01*
X24728842Y10150500D01*
X24571158Y10150500D01*
X24571155Y10150500D01*
X24416510Y10119739D01*
X24416498Y10119736D01*
X24270827Y10059398D01*
X24270814Y10059391D01*
X24139711Y9971790D01*
X24139707Y9971787D01*
X24028213Y9860293D01*
X24028210Y9860289D01*
X23940609Y9729186D01*
X23940602Y9729173D01*
X23880264Y9583502D01*
X23880261Y9583490D01*
X23849500Y9428847D01*
X10200500Y9428847D01*
X10200500Y17639371D01*
X10206132Y17658553D01*
X10206846Y17678531D01*
X10215774Y17691391D01*
X10220185Y17706410D01*
X10235292Y17719501D01*
X10246695Y17735923D01*
X10270641Y17750131D01*
X10272989Y17752165D01*
X10277021Y17753921D01*
X10359046Y17787897D01*
X10428515Y17795365D01*
X10490994Y17764089D01*
X10521059Y17720788D01*
X10552611Y17644613D01*
X10552616Y17644604D01*
X10640217Y17513501D01*
X10640220Y17513497D01*
X10751714Y17402003D01*
X10751718Y17402000D01*
X10882821Y17314399D01*
X10882834Y17314392D01*
X11019449Y17257805D01*
X11028510Y17254052D01*
X11086672Y17242483D01*
X11185806Y17222763D01*
X11247717Y17190378D01*
X11282292Y17129662D01*
X11285615Y17101146D01*
X11285615Y12854223D01*
X11265930Y12787184D01*
X11264718Y12785334D01*
X11260611Y12779188D01*
X11260602Y12779172D01*
X11200264Y12633502D01*
X11200261Y12633490D01*
X11169500Y12478847D01*
X11169500Y12321154D01*
X11200261Y12166511D01*
X11200264Y12166499D01*
X11260602Y12020828D01*
X11260609Y12020815D01*
X11348210Y11889712D01*
X11348213Y11889708D01*
X11459707Y11778214D01*
X11459711Y11778211D01*
X11590814Y11690610D01*
X11590827Y11690603D01*
X11736498Y11630265D01*
X11736503Y11630263D01*
X11891153Y11599501D01*
X11891156Y11599500D01*
X11891158Y11599500D01*
X12048844Y11599500D01*
X12048845Y11599501D01*
X12203497Y11630263D01*
X12248636Y11648961D01*
X12318103Y11656429D01*
X12380582Y11625155D01*
X12414746Y11570400D01*
X12416378Y11565019D01*
X12476717Y11419346D01*
X12476724Y11419333D01*
X12564325Y11288230D01*
X12564328Y11288226D01*
X12675822Y11176732D01*
X12675826Y11176729D01*
X12806929Y11089128D01*
X12806942Y11089121D01*
X12952613Y11028783D01*
X12952618Y11028781D01*
X13099390Y10999586D01*
X13107268Y10998019D01*
X13107271Y10998018D01*
X13107273Y10998018D01*
X13264959Y10998018D01*
X13264960Y10998019D01*
X13419612Y11028781D01*
X13565294Y11089124D01*
X13572132Y11093693D01*
X17874499Y11093693D01*
X17906222Y10934217D01*
X17906225Y10934207D01*
X17968450Y10783981D01*
X17968452Y10783977D01*
X18058788Y10648780D01*
X18058794Y10648772D01*
X18173771Y10533795D01*
X18173779Y10533789D01*
X18308976Y10443453D01*
X18308980Y10443451D01*
X18458376Y10381570D01*
X18459211Y10381224D01*
X18459215Y10381224D01*
X18459216Y10381223D01*
X18618692Y10349500D01*
X18618695Y10349500D01*
X18781307Y10349500D01*
X18888598Y10370843D01*
X18940789Y10381224D01*
X19091021Y10443452D01*
X19091023Y10443453D01*
X19211660Y10524060D01*
X19226225Y10533792D01*
X19341208Y10648775D01*
X19431548Y10783979D01*
X19493776Y10934211D01*
X19506468Y10998018D01*
X19525500Y11093693D01*
X19525500Y11256308D01*
X19493777Y11415784D01*
X19493776Y11415785D01*
X19493776Y11415789D01*
X19492303Y11419346D01*
X19431549Y11566020D01*
X19431547Y11566024D01*
X19341211Y11701221D01*
X19341205Y11701229D01*
X19226228Y11816206D01*
X19226220Y11816212D01*
X19091023Y11906548D01*
X19091019Y11906550D01*
X18940793Y11968775D01*
X18940783Y11968778D01*
X18781307Y12000500D01*
X18781305Y12000500D01*
X18618695Y12000500D01*
X18618693Y12000500D01*
X18459216Y11968778D01*
X18459206Y11968775D01*
X18308980Y11906550D01*
X18308976Y11906548D01*
X18173779Y11816212D01*
X18173771Y11816206D01*
X18058794Y11701229D01*
X18058788Y11701221D01*
X17968452Y11566024D01*
X17968450Y11566020D01*
X17906225Y11415794D01*
X17906222Y11415784D01*
X17874500Y11256308D01*
X17874500Y11256305D01*
X17874500Y11093695D01*
X17874500Y11093693D01*
X17874499Y11093693D01*
X13572132Y11093693D01*
X13696404Y11176729D01*
X13807904Y11288229D01*
X13895509Y11419339D01*
X13955852Y11565021D01*
X13986615Y11719676D01*
X13986615Y11877360D01*
X13986615Y11877363D01*
X13986614Y11877365D01*
X13968431Y11968776D01*
X13955852Y12032015D01*
X13953022Y12038847D01*
X13895512Y12177691D01*
X13895505Y12177704D01*
X13807513Y12309393D01*
X13786635Y12376071D01*
X13786615Y12378284D01*
X13786615Y13266004D01*
X13806300Y13333043D01*
X13859104Y13378798D01*
X13928262Y13388742D01*
X13991818Y13359717D01*
X14025176Y13313456D01*
X14068450Y13208981D01*
X14068452Y13208977D01*
X14158788Y13073780D01*
X14158794Y13073772D01*
X14273771Y12958795D01*
X14273779Y12958789D01*
X14408976Y12868453D01*
X14408980Y12868451D01*
X14475411Y12840935D01*
X14525374Y12820240D01*
X14579778Y12776400D01*
X14601843Y12710106D01*
X14584564Y12642406D01*
X14565611Y12618006D01*
X14564340Y12616736D01*
X14564333Y12616727D01*
X14476732Y12485624D01*
X14476725Y12485611D01*
X14416387Y12339940D01*
X14416384Y12339928D01*
X14385623Y12185285D01*
X14385623Y12027592D01*
X14416384Y11872949D01*
X14416387Y11872937D01*
X14476725Y11727266D01*
X14476732Y11727253D01*
X14564333Y11596150D01*
X14564336Y11596146D01*
X14675830Y11484652D01*
X14675834Y11484649D01*
X14806937Y11397048D01*
X14806950Y11397041D01*
X14952621Y11336703D01*
X14952626Y11336701D01*
X15091983Y11308981D01*
X15107276Y11305939D01*
X15107279Y11305938D01*
X15107281Y11305938D01*
X15264967Y11305938D01*
X15264968Y11305939D01*
X15419620Y11336701D01*
X15458113Y11352646D01*
X15516811Y11376958D01*
X15565295Y11397041D01*
X15565295Y11397042D01*
X15565302Y11397044D01*
X15696412Y11484649D01*
X15807912Y11596149D01*
X15895517Y11727259D01*
X15901297Y11741212D01*
X15932360Y11816206D01*
X15955860Y11872941D01*
X15986623Y12027596D01*
X15986623Y12053754D01*
X16006308Y12120793D01*
X16059112Y12166548D01*
X16063117Y12168293D01*
X16144432Y12201974D01*
X16275542Y12289579D01*
X16387042Y12401079D01*
X16474647Y12532189D01*
X16478129Y12540594D01*
X16503371Y12601536D01*
X16534990Y12677871D01*
X16565753Y12832526D01*
X16565753Y12990210D01*
X16565753Y12990213D01*
X16546213Y13088444D01*
X16546213Y13088445D01*
X16535702Y13141284D01*
X16534990Y13144865D01*
X16532825Y13150091D01*
X16474650Y13290541D01*
X16474643Y13290554D01*
X16387042Y13421657D01*
X16387039Y13421661D01*
X16275545Y13533155D01*
X16275541Y13533158D01*
X16144438Y13620759D01*
X16144425Y13620766D01*
X15998754Y13681104D01*
X15998742Y13681107D01*
X15844098Y13711868D01*
X15844095Y13711868D01*
X15721184Y13711868D01*
X15654145Y13731553D01*
X15608390Y13784357D01*
X15599567Y13811674D01*
X15593776Y13840789D01*
X15572970Y13891020D01*
X15531549Y13991020D01*
X15531547Y13991024D01*
X15441211Y14126221D01*
X15441205Y14126229D01*
X15326228Y14241206D01*
X15326220Y14241212D01*
X15191023Y14331548D01*
X15191019Y14331550D01*
X15040793Y14393775D01*
X15040783Y14393778D01*
X14881307Y14425500D01*
X14881305Y14425500D01*
X14718695Y14425500D01*
X14718693Y14425500D01*
X14559216Y14393778D01*
X14559206Y14393775D01*
X14408980Y14331550D01*
X14408976Y14331548D01*
X14273779Y14241212D01*
X14273771Y14241206D01*
X14158794Y14126229D01*
X14158788Y14126221D01*
X14068452Y13991024D01*
X14068452Y13991023D01*
X14025176Y13886544D01*
X13981335Y13832141D01*
X13915041Y13810076D01*
X13847342Y13827355D01*
X13799731Y13878492D01*
X13786615Y13933997D01*
X13786615Y15216222D01*
X13806300Y15283261D01*
X13859104Y15329016D01*
X13928262Y15338960D01*
X13991818Y15309935D01*
X13998296Y15303903D01*
X14106098Y15196101D01*
X14106102Y15196098D01*
X14237205Y15108497D01*
X14237218Y15108490D01*
X14377913Y15050213D01*
X14382894Y15048150D01*
X14537544Y15017388D01*
X14537547Y15017387D01*
X14537549Y15017387D01*
X14695235Y15017387D01*
X14695236Y15017388D01*
X14849888Y15048150D01*
X14995570Y15108493D01*
X15126680Y15196098D01*
X15238180Y15307598D01*
X15325785Y15438708D01*
X15386128Y15584390D01*
X15416891Y15739045D01*
X15416891Y15896729D01*
X15416891Y15896732D01*
X15416890Y15896734D01*
X15415625Y15903094D01*
X15386128Y16051384D01*
X15360382Y16113538D01*
X15352914Y16183006D01*
X15371841Y16229879D01*
X15389856Y16256839D01*
X15450199Y16402521D01*
X15480962Y16557176D01*
X15480962Y16714860D01*
X15480962Y16714863D01*
X15480961Y16714865D01*
X15476604Y16736767D01*
X15450199Y16869515D01*
X15450197Y16869520D01*
X15389859Y17015191D01*
X15389852Y17015204D01*
X15302251Y17146307D01*
X15302248Y17146311D01*
X15190754Y17257805D01*
X15190750Y17257808D01*
X15059647Y17345409D01*
X15059634Y17345416D01*
X14913963Y17405754D01*
X14913951Y17405757D01*
X14759307Y17436518D01*
X14759304Y17436518D01*
X14723500Y17436518D01*
X14656461Y17456203D01*
X14610706Y17509007D01*
X14599500Y17560518D01*
X14599500Y17918693D01*
X18374499Y17918693D01*
X18406222Y17759217D01*
X18406225Y17759207D01*
X18468450Y17608981D01*
X18468452Y17608977D01*
X18558788Y17473780D01*
X18558794Y17473772D01*
X18673771Y17358795D01*
X18673779Y17358789D01*
X18808976Y17268453D01*
X18808980Y17268451D01*
X18949397Y17210289D01*
X18959211Y17206224D01*
X18959215Y17206224D01*
X18959216Y17206223D01*
X19118692Y17174500D01*
X19144511Y17174500D01*
X19171060Y17166704D01*
X19198362Y17162196D01*
X19204113Y17156999D01*
X19211550Y17154815D01*
X19229667Y17133907D01*
X19250201Y17115351D01*
X19252229Y17107869D01*
X19257305Y17102011D01*
X19261242Y17074625D01*
X19268484Y17047916D01*
X19266466Y17038297D01*
X19267249Y17032853D01*
X19262734Y17013093D01*
X19261121Y17007997D01*
X19230263Y16933497D01*
X19217926Y16871480D01*
X19215862Y16864954D01*
X19200026Y16841408D01*
X19186870Y16816257D01*
X19180780Y16812790D01*
X19176871Y16806976D01*
X19150814Y16795727D01*
X19126153Y16781684D01*
X19121833Y16780744D01*
X19066505Y16769738D01*
X19066498Y16769736D01*
X18920827Y16709398D01*
X18920814Y16709391D01*
X18789711Y16621790D01*
X18789707Y16621787D01*
X18678213Y16510293D01*
X18678210Y16510289D01*
X18590609Y16379186D01*
X18590602Y16379173D01*
X18530264Y16233502D01*
X18530261Y16233490D01*
X18499500Y16078847D01*
X18499500Y15921154D01*
X18530261Y15766511D01*
X18530264Y15766499D01*
X18590602Y15620828D01*
X18590609Y15620815D01*
X18678210Y15489712D01*
X18678213Y15489708D01*
X18789707Y15378214D01*
X18789711Y15378211D01*
X18920814Y15290610D01*
X18920827Y15290603D01*
X19041103Y15240784D01*
X19066503Y15230263D01*
X19219936Y15199743D01*
X19221153Y15199501D01*
X19221156Y15199500D01*
X19221158Y15199500D01*
X19378844Y15199500D01*
X19378845Y15199501D01*
X19533497Y15230263D01*
X19646166Y15276933D01*
X19679172Y15290603D01*
X19679172Y15290604D01*
X19679179Y15290606D01*
X19810289Y15378211D01*
X19810294Y15378217D01*
X19812774Y15380250D01*
X19814330Y15380912D01*
X19815354Y15381595D01*
X19815483Y15381401D01*
X19877083Y15407564D01*
X19945951Y15395774D01*
X19997512Y15348623D01*
X20015396Y15281081D01*
X20014660Y15270515D01*
X20000000Y15140404D01*
X20000000Y14859599D01*
X20031437Y14580588D01*
X20031439Y14580576D01*
X20093921Y14306822D01*
X20093922Y14306820D01*
X20186662Y14041783D01*
X20308492Y13788800D01*
X20457884Y13551044D01*
X20564187Y13417743D01*
X21637425Y14490981D01*
X21723249Y14362537D01*
X21862537Y14223249D01*
X21990979Y14137427D01*
X20917741Y13064190D01*
X20917741Y13064189D01*
X21051043Y12957885D01*
X21288799Y12808493D01*
X21541782Y12686663D01*
X21806819Y12593923D01*
X21806821Y12593922D01*
X21814853Y12592089D01*
X21875833Y12557984D01*
X21908694Y12496324D01*
X21911266Y12471197D01*
X21911266Y12379959D01*
X21942027Y12225316D01*
X21942030Y12225304D01*
X22002368Y12079633D01*
X22002375Y12079620D01*
X22089976Y11948517D01*
X22089979Y11948513D01*
X22201473Y11837019D01*
X22201477Y11837016D01*
X22332580Y11749415D01*
X22332593Y11749408D01*
X22471164Y11692011D01*
X22478269Y11689068D01*
X22618119Y11661250D01*
X22632919Y11658306D01*
X22632922Y11658305D01*
X22632924Y11658305D01*
X22790610Y11658305D01*
X22790611Y11658306D01*
X22945263Y11689068D01*
X23090945Y11749411D01*
X23222055Y11837016D01*
X23244672Y11859634D01*
X23305991Y11893119D01*
X23375683Y11888137D01*
X23420035Y11859635D01*
X23439707Y11839963D01*
X23439711Y11839960D01*
X23570814Y11752359D01*
X23570827Y11752352D01*
X23694270Y11701221D01*
X23716503Y11692012D01*
X23819895Y11671446D01*
X23871153Y11661250D01*
X23871156Y11661249D01*
X23871158Y11661249D01*
X24028844Y11661249D01*
X24028845Y11661250D01*
X24183497Y11692012D01*
X24329179Y11752355D01*
X24460289Y11839960D01*
X24571789Y11951460D01*
X24659394Y12082570D01*
X24719737Y12228252D01*
X24750500Y12382907D01*
X24750500Y12540591D01*
X24750500Y12540594D01*
X24750499Y12540596D01*
X24739892Y12593922D01*
X24719737Y12695246D01*
X24716928Y12702027D01*
X24659397Y12840922D01*
X24659390Y12840935D01*
X24571789Y12972038D01*
X24571786Y12972042D01*
X24460292Y13083536D01*
X24460284Y13083542D01*
X24381374Y13136268D01*
X24371953Y13147540D01*
X24359334Y13155063D01*
X24349998Y13173810D01*
X24336568Y13189880D01*
X24334737Y13204458D01*
X24328189Y13217607D01*
X24330470Y13238425D01*
X24327861Y13259205D01*
X24334335Y13273685D01*
X24335802Y13287061D01*
X24349390Y13307351D01*
X24353874Y13317377D01*
X24484125Y13478323D01*
X24512610Y13498014D01*
X24540756Y13517769D01*
X24541217Y13517788D01*
X24541600Y13518052D01*
X24576117Y13519213D01*
X24610567Y13520619D01*
X24611249Y13520394D01*
X24611431Y13520400D01*
X24611679Y13520252D01*
X24627955Y13514882D01*
X24658190Y13502358D01*
X24812840Y13471596D01*
X24812843Y13471595D01*
X24812845Y13471595D01*
X24970531Y13471595D01*
X24970532Y13471596D01*
X25125184Y13502358D01*
X25183290Y13526427D01*
X25252757Y13533895D01*
X25315236Y13502620D01*
X25350889Y13442532D01*
X25352358Y13436057D01*
X25380261Y13295779D01*
X25380264Y13295769D01*
X25440602Y13150098D01*
X25440609Y13150085D01*
X25528210Y13018982D01*
X25528213Y13018978D01*
X25639707Y12907484D01*
X25639711Y12907481D01*
X25770814Y12819880D01*
X25770827Y12819873D01*
X25894970Y12768452D01*
X25916503Y12759533D01*
X26053326Y12732317D01*
X26071153Y12728771D01*
X26071156Y12728770D01*
X26071158Y12728770D01*
X26228844Y12728770D01*
X26228845Y12728771D01*
X26383497Y12759533D01*
X26529179Y12819876D01*
X26660289Y12907481D01*
X26771789Y13018981D01*
X26859394Y13150091D01*
X26861454Y13155063D01*
X26904590Y13259205D01*
X26919737Y13295773D01*
X26950500Y13450428D01*
X26950500Y13608112D01*
X26950500Y13608115D01*
X26950499Y13608117D01*
X26932411Y13699050D01*
X26919737Y13762767D01*
X26917170Y13768964D01*
X26859397Y13908443D01*
X26859390Y13908456D01*
X26771789Y14039559D01*
X26771786Y14039563D01*
X26660292Y14151057D01*
X26660288Y14151060D01*
X26529185Y14238661D01*
X26529172Y14238668D01*
X26477095Y14260238D01*
X26422691Y14304078D01*
X26400626Y14370372D01*
X26409985Y14422249D01*
X26469737Y14566503D01*
X26500500Y14721158D01*
X26500500Y14878842D01*
X26500500Y14878845D01*
X26500499Y14878847D01*
X26482204Y14970821D01*
X26469737Y15033497D01*
X26453542Y15072595D01*
X26409397Y15179173D01*
X26409390Y15179186D01*
X26321789Y15310289D01*
X26321786Y15310293D01*
X26210292Y15421787D01*
X26210288Y15421790D01*
X26199727Y15428847D01*
X28552953Y15428847D01*
X28552953Y15271154D01*
X28583714Y15116511D01*
X28583717Y15116499D01*
X28644055Y14970828D01*
X28644062Y14970815D01*
X28731663Y14839712D01*
X28731666Y14839708D01*
X28843160Y14728214D01*
X28843164Y14728211D01*
X28974267Y14640610D01*
X28974280Y14640603D01*
X29119171Y14580588D01*
X29119956Y14580263D01*
X29274606Y14549501D01*
X29274609Y14549500D01*
X29274611Y14549500D01*
X29432297Y14549500D01*
X29432298Y14549501D01*
X29586950Y14580263D01*
X29732632Y14640606D01*
X29753685Y14654674D01*
X29777885Y14662252D01*
X29800559Y14673602D01*
X29810662Y14672516D01*
X29820361Y14675553D01*
X29844814Y14668846D01*
X29870029Y14666135D01*
X29877942Y14659759D01*
X29887742Y14657070D01*
X29904686Y14638208D01*
X29924433Y14622295D01*
X29929323Y14610782D01*
X29934433Y14605093D01*
X29940232Y14590734D01*
X29942683Y14583370D01*
X29953081Y14531097D01*
X29988724Y14445045D01*
X29990125Y14440838D01*
X29991220Y14410174D01*
X29994501Y14379659D01*
X29992456Y14375576D01*
X29992620Y14371013D01*
X29976963Y14344626D01*
X29963225Y14317180D01*
X29959297Y14314850D01*
X29956968Y14310924D01*
X29929537Y14297193D01*
X29903136Y14281528D01*
X29896664Y14280060D01*
X29857479Y14272266D01*
X29857470Y14272263D01*
X29711799Y14211925D01*
X29711786Y14211918D01*
X29580683Y14124317D01*
X29580679Y14124314D01*
X29469185Y14012820D01*
X29469182Y14012816D01*
X29381581Y13881713D01*
X29381574Y13881700D01*
X29321236Y13736029D01*
X29321233Y13736017D01*
X29290472Y13581374D01*
X29290472Y13423681D01*
X29321233Y13269038D01*
X29321236Y13269026D01*
X29381574Y13123355D01*
X29381581Y13123342D01*
X29469182Y12992239D01*
X29469185Y12992235D01*
X29580679Y12880741D01*
X29580683Y12880738D01*
X29711786Y12793137D01*
X29711799Y12793130D01*
X29792906Y12759535D01*
X29857475Y12732790D01*
X29933094Y12717749D01*
X29995002Y12685365D01*
X30024293Y12641523D01*
X30028354Y12631197D01*
X30030775Y12619030D01*
X30077777Y12505555D01*
X30078200Y12504481D01*
X30081214Y12470770D01*
X30084837Y12437072D01*
X30084337Y12435835D01*
X30084422Y12434889D01*
X30082377Y12430982D01*
X30065910Y12390201D01*
X30031825Y12339188D01*
X30031816Y12339172D01*
X29971478Y12193502D01*
X29971475Y12193490D01*
X29940714Y12038847D01*
X29940714Y11881154D01*
X29971475Y11726511D01*
X29971478Y11726499D01*
X30031816Y11580828D01*
X30031823Y11580815D01*
X30119424Y11449712D01*
X30119427Y11449708D01*
X30230921Y11338214D01*
X30230925Y11338211D01*
X30362028Y11250610D01*
X30362041Y11250603D01*
X30507712Y11190265D01*
X30507717Y11190263D01*
X30662367Y11159501D01*
X30662370Y11159500D01*
X30662372Y11159500D01*
X30820058Y11159500D01*
X30906671Y11176729D01*
X30966083Y11188547D01*
X31035674Y11182320D01*
X31077955Y11154611D01*
X31173771Y11058795D01*
X31173779Y11058789D01*
X31308976Y10968453D01*
X31308980Y10968451D01*
X31459206Y10906226D01*
X31459211Y10906224D01*
X31459215Y10906224D01*
X31459216Y10906223D01*
X31618692Y10874500D01*
X31618695Y10874500D01*
X31781307Y10874500D01*
X31888598Y10895843D01*
X31940789Y10906224D01*
X32083378Y10965286D01*
X32091019Y10968451D01*
X32091023Y10968453D01*
X32166215Y11018695D01*
X32226225Y11058792D01*
X32341208Y11173775D01*
X32403592Y11267140D01*
X32431547Y11308977D01*
X32431549Y11308981D01*
X32477258Y11419333D01*
X32493776Y11459211D01*
X32523678Y11609535D01*
X32556063Y11671446D01*
X32557558Y11672969D01*
X32862819Y11978229D01*
X32924142Y12011714D01*
X32993834Y12006730D01*
X33049767Y11964858D01*
X33074184Y11899394D01*
X33074500Y11890548D01*
X33074500Y7364960D01*
X33065061Y7317508D01*
X33030263Y7233499D01*
X33030260Y7233489D01*
X32999500Y7078847D01*
X32999500Y6921154D01*
X33030261Y6766511D01*
X33030264Y6766499D01*
X33090602Y6620828D01*
X33090609Y6620815D01*
X33178210Y6489712D01*
X33178213Y6489708D01*
X33289707Y6378214D01*
X33289711Y6378211D01*
X33420814Y6290610D01*
X33420827Y6290603D01*
X33558203Y6233701D01*
X33566503Y6230263D01*
X33701039Y6203502D01*
X33721153Y6199501D01*
X33721156Y6199500D01*
X33721158Y6199500D01*
X33878844Y6199500D01*
X33878845Y6199501D01*
X34033497Y6230263D01*
X34156724Y6281305D01*
X34179172Y6290603D01*
X34179172Y6290604D01*
X34179179Y6290606D01*
X34310289Y6378211D01*
X34421789Y6489711D01*
X34509394Y6620821D01*
X34569737Y6766503D01*
X34600500Y6921158D01*
X34600500Y7078842D01*
X34600500Y7078845D01*
X34600499Y7078847D01*
X34597137Y7095749D01*
X34586911Y7147160D01*
X37220501Y7147160D01*
X37252224Y6987684D01*
X37252227Y6987674D01*
X37314452Y6837448D01*
X37314454Y6837444D01*
X37404790Y6702247D01*
X37404796Y6702239D01*
X37519773Y6587262D01*
X37519781Y6587256D01*
X37654978Y6496920D01*
X37654982Y6496918D01*
X37790479Y6440794D01*
X37805213Y6434691D01*
X37805217Y6434691D01*
X37805218Y6434690D01*
X37964694Y6402967D01*
X37964697Y6402967D01*
X38127309Y6402967D01*
X38234600Y6424310D01*
X38286791Y6434691D01*
X38393910Y6479061D01*
X38437021Y6496918D01*
X38437025Y6496920D01*
X38546675Y6570186D01*
X38572227Y6587259D01*
X38687210Y6702242D01*
X38735826Y6775001D01*
X38777549Y6837444D01*
X38777551Y6837448D01*
X38806249Y6906732D01*
X38839778Y6987678D01*
X38857870Y7078632D01*
X38871502Y7147160D01*
X38871502Y7309775D01*
X38839779Y7469251D01*
X38839778Y7469252D01*
X38839778Y7469256D01*
X38820367Y7516118D01*
X38777551Y7619487D01*
X38777549Y7619491D01*
X38687213Y7754688D01*
X38687207Y7754696D01*
X38572230Y7869673D01*
X38572222Y7869679D01*
X38437025Y7960015D01*
X38437021Y7960017D01*
X38286795Y8022242D01*
X38286785Y8022245D01*
X38127309Y8053967D01*
X38127307Y8053967D01*
X37964697Y8053967D01*
X37964695Y8053967D01*
X37805218Y8022245D01*
X37805208Y8022242D01*
X37654982Y7960017D01*
X37654978Y7960015D01*
X37519781Y7869679D01*
X37519773Y7869673D01*
X37404796Y7754696D01*
X37404790Y7754688D01*
X37314454Y7619491D01*
X37314452Y7619487D01*
X37252227Y7469261D01*
X37252224Y7469251D01*
X37220502Y7309775D01*
X37220502Y7309772D01*
X37220502Y7147162D01*
X37220502Y7147160D01*
X37220501Y7147160D01*
X34586911Y7147160D01*
X34569737Y7233497D01*
X34531328Y7326225D01*
X34509397Y7379173D01*
X34509390Y7379186D01*
X34421789Y7510289D01*
X34421786Y7510293D01*
X34361819Y7570260D01*
X34328334Y7631583D01*
X34325500Y7657941D01*
X34325500Y18960844D01*
X34325500Y18961606D01*
X34325220Y18963012D01*
X34302222Y19078637D01*
X34301463Y19082452D01*
X34277732Y19139744D01*
X34274728Y19146997D01*
X34254315Y19196279D01*
X34254307Y19196294D01*
X34226806Y19237451D01*
X34226805Y19237452D01*
X34185858Y19298733D01*
X34185855Y19298737D01*
X34095637Y19388955D01*
X34095606Y19388984D01*
X32461819Y21022771D01*
X32428334Y21084094D01*
X32425500Y21110452D01*
X32425500Y21612651D01*
X32445185Y21679690D01*
X32446398Y21681541D01*
X32531547Y21808977D01*
X32531549Y21808981D01*
X32569531Y21900678D01*
X32593776Y21959211D01*
X32611575Y22048690D01*
X32625500Y22118693D01*
X32625500Y22281308D01*
X32593777Y22440784D01*
X32593776Y22440785D01*
X32593776Y22440789D01*
X32593774Y22440794D01*
X32531549Y22591020D01*
X32531547Y22591024D01*
X32441211Y22726221D01*
X32441205Y22726229D01*
X32326228Y22841206D01*
X32326220Y22841212D01*
X32191023Y22931548D01*
X32191019Y22931550D01*
X32040793Y22993775D01*
X32040783Y22993778D01*
X31881307Y23025500D01*
X31881305Y23025500D01*
X31718695Y23025500D01*
X31718693Y23025500D01*
X31559216Y22993778D01*
X31559206Y22993775D01*
X31408980Y22931550D01*
X31408976Y22931548D01*
X31273779Y22841212D01*
X31273771Y22841206D01*
X31158794Y22726229D01*
X31158788Y22726221D01*
X31068452Y22591024D01*
X31068450Y22591020D01*
X31006225Y22440794D01*
X31006222Y22440784D01*
X30974500Y22281308D01*
X30974500Y22281305D01*
X30974500Y22118695D01*
X30974500Y22118693D01*
X30974499Y22118693D01*
X31006222Y21959217D01*
X31006225Y21959207D01*
X31068450Y21808981D01*
X31068452Y21808977D01*
X31153602Y21681541D01*
X31174480Y21614864D01*
X31174500Y21612651D01*
X31174500Y20738393D01*
X31177996Y20720815D01*
X31178514Y20718215D01*
X31198537Y20617548D01*
X31205138Y20601612D01*
X31208854Y20592640D01*
X31208856Y20592633D01*
X31245685Y20503719D01*
X31245688Y20503713D01*
X31254167Y20491024D01*
X31273588Y20461960D01*
X31273589Y20461957D01*
X31273590Y20461957D01*
X31314141Y20401267D01*
X31405586Y20309822D01*
X31405608Y20309802D01*
X32897463Y18817947D01*
X32930948Y18756624D01*
X32925964Y18686932D01*
X32884092Y18630999D01*
X32833975Y18608649D01*
X32759215Y18593778D01*
X32759206Y18593775D01*
X32608980Y18531550D01*
X32608976Y18531548D01*
X32473779Y18441212D01*
X32473771Y18441206D01*
X32358794Y18326229D01*
X32358791Y18326225D01*
X32324664Y18275150D01*
X32271051Y18230345D01*
X32201726Y18221638D01*
X32174113Y18229479D01*
X32168367Y18231859D01*
X32168365Y18231860D01*
X32168364Y18231860D01*
X32168360Y18231861D01*
X32008885Y18263583D01*
X32008883Y18263583D01*
X31846273Y18263583D01*
X31846271Y18263583D01*
X31686794Y18231861D01*
X31686784Y18231858D01*
X31536558Y18169633D01*
X31536554Y18169631D01*
X31401357Y18079295D01*
X31401349Y18079289D01*
X31286372Y17964312D01*
X31286366Y17964304D01*
X31196030Y17829107D01*
X31196028Y17829103D01*
X31133803Y17678877D01*
X31133800Y17678867D01*
X31102078Y17519391D01*
X31102078Y17519388D01*
X31102078Y17356778D01*
X31102078Y17356776D01*
X31102077Y17356776D01*
X31133800Y17197300D01*
X31133803Y17197290D01*
X31196028Y17047064D01*
X31196030Y17047060D01*
X31286366Y16911863D01*
X31286372Y16911855D01*
X31401350Y16796877D01*
X31401353Y16796875D01*
X31504162Y16728181D01*
X31548966Y16674570D01*
X31557674Y16605245D01*
X31527520Y16542217D01*
X31504165Y16521979D01*
X31487421Y16510791D01*
X31487416Y16510787D01*
X31375922Y16399293D01*
X31375919Y16399289D01*
X31288318Y16268186D01*
X31288313Y16268176D01*
X31246810Y16167979D01*
X31202969Y16113575D01*
X31156445Y16093816D01*
X31133246Y16089201D01*
X31133232Y16089197D01*
X30987561Y16028859D01*
X30987548Y16028852D01*
X30856445Y15941251D01*
X30856441Y15941248D01*
X30744947Y15829754D01*
X30744944Y15829750D01*
X30657343Y15698647D01*
X30657335Y15698632D01*
X30623618Y15617233D01*
X30579777Y15562830D01*
X30533251Y15543070D01*
X30489325Y15534333D01*
X30489316Y15534330D01*
X30343645Y15473992D01*
X30343629Y15473983D01*
X30322581Y15459919D01*
X30255904Y15439042D01*
X30188524Y15457527D01*
X30141834Y15509507D01*
X30132075Y15538831D01*
X30125927Y15569737D01*
X30123190Y15583497D01*
X30109216Y15617233D01*
X30062850Y15729173D01*
X30062843Y15729186D01*
X29975242Y15860289D01*
X29975239Y15860293D01*
X29863745Y15971787D01*
X29863741Y15971790D01*
X29732638Y16059391D01*
X29732625Y16059398D01*
X29586954Y16119736D01*
X29586942Y16119739D01*
X29432298Y16150500D01*
X29432295Y16150500D01*
X29274611Y16150500D01*
X29274608Y16150500D01*
X29119963Y16119739D01*
X29119951Y16119736D01*
X28974280Y16059398D01*
X28974267Y16059391D01*
X28843164Y15971790D01*
X28843160Y15971787D01*
X28731666Y15860293D01*
X28731663Y15860289D01*
X28644062Y15729186D01*
X28644055Y15729173D01*
X28583717Y15583502D01*
X28583714Y15583490D01*
X28552953Y15428847D01*
X26199727Y15428847D01*
X26079185Y15509391D01*
X26079172Y15509398D01*
X25933501Y15569736D01*
X25933489Y15569739D01*
X25778845Y15600500D01*
X25778842Y15600500D01*
X25621158Y15600500D01*
X25621155Y15600500D01*
X25466510Y15569739D01*
X25466498Y15569736D01*
X25320827Y15509398D01*
X25320814Y15509391D01*
X25189711Y15421790D01*
X25167863Y15399942D01*
X25106539Y15366458D01*
X25036847Y15371444D01*
X24980914Y15413316D01*
X24959292Y15460033D01*
X24906079Y15693175D01*
X24906077Y15693181D01*
X24813337Y15958218D01*
X24691507Y16211201D01*
X24542115Y16448957D01*
X24455459Y16557621D01*
X24435810Y16582259D01*
X23362573Y15509021D01*
X23276751Y15637463D01*
X23137463Y15776751D01*
X23009019Y15862575D01*
X23775291Y16628847D01*
X25749500Y16628847D01*
X25749500Y16471154D01*
X25780261Y16316511D01*
X25780264Y16316499D01*
X25840602Y16170828D01*
X25840609Y16170815D01*
X25928210Y16039712D01*
X25928213Y16039708D01*
X26039707Y15928214D01*
X26039711Y15928211D01*
X26170814Y15840610D01*
X26170827Y15840603D01*
X26312411Y15781958D01*
X26316503Y15780263D01*
X26455161Y15752682D01*
X26471153Y15749501D01*
X26471156Y15749500D01*
X26471158Y15749500D01*
X26628844Y15749500D01*
X26628845Y15749501D01*
X26783497Y15780263D01*
X26929179Y15840606D01*
X27060289Y15928211D01*
X27171789Y16039711D01*
X27259394Y16170821D01*
X27319737Y16316503D01*
X27350500Y16471158D01*
X27350500Y16628842D01*
X27350500Y16628845D01*
X27350499Y16628847D01*
X27334560Y16708977D01*
X27319737Y16783497D01*
X27314195Y16796877D01*
X27259397Y16929173D01*
X27259390Y16929186D01*
X27171789Y17060289D01*
X27171786Y17060293D01*
X27060292Y17171787D01*
X27060288Y17171790D01*
X26929185Y17259391D01*
X26929172Y17259398D01*
X26783501Y17319736D01*
X26783489Y17319739D01*
X26628845Y17350500D01*
X26628842Y17350500D01*
X26471158Y17350500D01*
X26471155Y17350500D01*
X26316510Y17319739D01*
X26316498Y17319736D01*
X26170827Y17259398D01*
X26170814Y17259391D01*
X26039711Y17171790D01*
X26039707Y17171787D01*
X25928213Y17060293D01*
X25928210Y17060289D01*
X25840609Y16929186D01*
X25840602Y16929173D01*
X25780264Y16783502D01*
X25780261Y16783490D01*
X25749500Y16628847D01*
X23775291Y16628847D01*
X24082257Y16935813D01*
X23948956Y17042116D01*
X23711200Y17191508D01*
X23458217Y17313338D01*
X23193180Y17406078D01*
X23193178Y17406079D01*
X22919424Y17468561D01*
X22919412Y17468563D01*
X22640401Y17500000D01*
X22359598Y17500000D01*
X22080587Y17468563D01*
X22080575Y17468561D01*
X21806821Y17406079D01*
X21806819Y17406078D01*
X21541782Y17313338D01*
X21288799Y17191508D01*
X21051043Y17042116D01*
X20934587Y16949245D01*
X20869900Y16922836D01*
X20801205Y16935593D01*
X20750311Y16983463D01*
X20742713Y16998740D01*
X20709397Y17079173D01*
X20709390Y17079186D01*
X20621789Y17210289D01*
X20621786Y17210293D01*
X20510292Y17321787D01*
X20510288Y17321790D01*
X20379185Y17409391D01*
X20379172Y17409398D01*
X20233501Y17469736D01*
X20233489Y17469739D01*
X20078845Y17500500D01*
X20078842Y17500500D01*
X20072194Y17500500D01*
X20005155Y17520185D01*
X19959400Y17572989D01*
X19949456Y17642147D01*
X19957633Y17671952D01*
X19986319Y17741208D01*
X19993776Y17759211D01*
X20007679Y17829104D01*
X20020527Y17893693D01*
X27079471Y17893693D01*
X27111194Y17734217D01*
X27111197Y17734207D01*
X27173422Y17583981D01*
X27173424Y17583977D01*
X27263760Y17448780D01*
X27263766Y17448772D01*
X27378743Y17333795D01*
X27378751Y17333789D01*
X27513948Y17243453D01*
X27513952Y17243451D01*
X27663980Y17181308D01*
X27664183Y17181224D01*
X27664187Y17181224D01*
X27664188Y17181223D01*
X27823664Y17149500D01*
X27823667Y17149500D01*
X27986279Y17149500D01*
X28111958Y17174500D01*
X28145761Y17181224D01*
X28295993Y17243452D01*
X28295995Y17243453D01*
X28400585Y17313338D01*
X28431197Y17333792D01*
X28546180Y17448775D01*
X28632363Y17577757D01*
X28636519Y17583977D01*
X28636521Y17583981D01*
X28672872Y17671741D01*
X28698748Y17734211D01*
X28717624Y17829104D01*
X28730472Y17893693D01*
X28730472Y18056308D01*
X28698749Y18215784D01*
X28698748Y18215785D01*
X28698748Y18215789D01*
X28659790Y18309843D01*
X28636521Y18366020D01*
X28636519Y18366024D01*
X28546183Y18501221D01*
X28546177Y18501229D01*
X28431200Y18616206D01*
X28431192Y18616212D01*
X28295995Y18706548D01*
X28295991Y18706550D01*
X28145765Y18768775D01*
X28145755Y18768778D01*
X27986279Y18800500D01*
X27986277Y18800500D01*
X27823667Y18800500D01*
X27823665Y18800500D01*
X27664188Y18768778D01*
X27664178Y18768775D01*
X27513952Y18706550D01*
X27513948Y18706548D01*
X27378751Y18616212D01*
X27378743Y18616206D01*
X27263766Y18501229D01*
X27263760Y18501221D01*
X27173424Y18366024D01*
X27173422Y18366020D01*
X27111197Y18215794D01*
X27111194Y18215784D01*
X27079472Y18056308D01*
X27079472Y18056305D01*
X27079472Y17893695D01*
X27079472Y17893693D01*
X27079471Y17893693D01*
X20020527Y17893693D01*
X20025500Y17918693D01*
X20025500Y18081308D01*
X19993777Y18240784D01*
X19993776Y18240785D01*
X19993776Y18240789D01*
X19991019Y18247446D01*
X19931549Y18391020D01*
X19931547Y18391024D01*
X19841211Y18526221D01*
X19841205Y18526229D01*
X19726228Y18641206D01*
X19726220Y18641212D01*
X19591023Y18731548D01*
X19591019Y18731550D01*
X19440793Y18793775D01*
X19440783Y18793778D01*
X19281307Y18825500D01*
X19281305Y18825500D01*
X19118695Y18825500D01*
X19118693Y18825500D01*
X18959216Y18793778D01*
X18959206Y18793775D01*
X18808980Y18731550D01*
X18808976Y18731548D01*
X18673779Y18641212D01*
X18673771Y18641206D01*
X18558794Y18526229D01*
X18558788Y18526221D01*
X18468452Y18391024D01*
X18468450Y18391020D01*
X18406225Y18240794D01*
X18406222Y18240784D01*
X18374500Y18081308D01*
X18374500Y18081305D01*
X18374500Y17918695D01*
X18374500Y17918693D01*
X18374499Y17918693D01*
X14599500Y17918693D01*
X14599500Y18898904D01*
X14619185Y18965943D01*
X14635814Y18986580D01*
X16108506Y20459273D01*
X16108511Y20459276D01*
X16118714Y20469480D01*
X16118716Y20469480D01*
X16230520Y20581284D01*
X16256464Y20626221D01*
X16296013Y20694721D01*
X16296014Y20694723D01*
X16309576Y20718213D01*
X16309577Y20718216D01*
X16310228Y20720646D01*
X16350501Y20870943D01*
X16350501Y21029057D01*
X16350501Y21036652D01*
X16350500Y21036670D01*
X16350500Y21467060D01*
X16370185Y21534099D01*
X16386814Y21554737D01*
X16471789Y21639711D01*
X16559394Y21770821D01*
X16568590Y21793021D01*
X16588551Y21841212D01*
X16619737Y21916503D01*
X16650500Y22071158D01*
X16650500Y22228842D01*
X16650500Y22228845D01*
X16650499Y22228847D01*
X16622307Y22370582D01*
X16622305Y22370588D01*
X16619737Y22383496D01*
X16619735Y22383502D01*
X16617584Y22388696D01*
X27161335Y22388696D01*
X27161335Y22211305D01*
X27195938Y22037342D01*
X27195941Y22037333D01*
X27263818Y21873460D01*
X27263825Y21873447D01*
X27362370Y21725966D01*
X27362373Y21725962D01*
X27487796Y21600539D01*
X27487800Y21600536D01*
X27635281Y21501991D01*
X27635294Y21501984D01*
X27715856Y21468615D01*
X27799169Y21434106D01*
X27799171Y21434106D01*
X27799176Y21434104D01*
X27973139Y21399501D01*
X27973142Y21399500D01*
X27973144Y21399500D01*
X28150528Y21399500D01*
X28150529Y21399501D01*
X28208517Y21411036D01*
X28324493Y21434104D01*
X28324496Y21434106D01*
X28324501Y21434106D01*
X28488382Y21501987D01*
X28635870Y21600536D01*
X28761299Y21725965D01*
X28859848Y21873453D01*
X28927729Y22037334D01*
X28931642Y22057003D01*
X28961405Y22206634D01*
X28962335Y22211309D01*
X28962335Y22388691D01*
X28962335Y22388694D01*
X28962334Y22388696D01*
X28927731Y22562659D01*
X28927728Y22562668D01*
X28915984Y22591020D01*
X28886042Y22663308D01*
X28859851Y22726541D01*
X28859844Y22726554D01*
X28761299Y22874035D01*
X28761296Y22874039D01*
X28635873Y22999462D01*
X28635869Y22999465D01*
X28488388Y23098010D01*
X28488375Y23098017D01*
X28324502Y23165894D01*
X28324493Y23165897D01*
X28150529Y23200500D01*
X28150526Y23200500D01*
X27973144Y23200500D01*
X27973141Y23200500D01*
X27799176Y23165897D01*
X27799167Y23165894D01*
X27635294Y23098017D01*
X27635281Y23098010D01*
X27487800Y22999465D01*
X27487796Y22999462D01*
X27362373Y22874039D01*
X27362370Y22874035D01*
X27263825Y22726554D01*
X27263818Y22726541D01*
X27195941Y22562668D01*
X27195938Y22562659D01*
X27161335Y22388696D01*
X16617584Y22388696D01*
X16559397Y22529173D01*
X16559390Y22529186D01*
X16471789Y22660289D01*
X16471786Y22660293D01*
X16386819Y22745260D01*
X16353334Y22806583D01*
X16350500Y22832941D01*
X16350500Y23364216D01*
X16370185Y23431255D01*
X16386819Y23451897D01*
X16527136Y23592215D01*
X16527139Y23592218D01*
X16636632Y23756086D01*
X16712051Y23938165D01*
X16732913Y24043045D01*
X16750500Y24131457D01*
X16750500Y24328544D01*
X16712052Y24521830D01*
X16712051Y24521831D01*
X16712051Y24521835D01*
X16688436Y24578847D01*
X26399500Y24578847D01*
X26399500Y24421154D01*
X26430261Y24266511D01*
X26430264Y24266499D01*
X26490602Y24120828D01*
X26490609Y24120815D01*
X26578210Y23989712D01*
X26578213Y23989708D01*
X26689707Y23878214D01*
X26689711Y23878211D01*
X26820814Y23790610D01*
X26820827Y23790603D01*
X26941103Y23740784D01*
X26966503Y23730263D01*
X27087018Y23706291D01*
X27121153Y23699501D01*
X27121156Y23699500D01*
X27121158Y23699500D01*
X27278844Y23699500D01*
X27278845Y23699501D01*
X27433497Y23730263D01*
X27553192Y23779842D01*
X27579172Y23790603D01*
X27579172Y23790604D01*
X27579179Y23790606D01*
X27710289Y23878211D01*
X27821789Y23989711D01*
X27909394Y24120821D01*
X27969737Y24266503D01*
X28000500Y24421158D01*
X28000500Y24477155D01*
X33722348Y24477155D01*
X33722348Y24319462D01*
X33753109Y24164819D01*
X33753112Y24164807D01*
X33813450Y24019136D01*
X33813457Y24019123D01*
X33901058Y23888020D01*
X33901061Y23888016D01*
X34012555Y23776522D01*
X34012559Y23776519D01*
X34143662Y23688918D01*
X34143675Y23688911D01*
X34287275Y23629431D01*
X34289351Y23628571D01*
X34444001Y23597809D01*
X34444004Y23597808D01*
X34444006Y23597808D01*
X34491463Y23597808D01*
X34558502Y23578123D01*
X34594566Y23542698D01*
X34613267Y23514709D01*
X34724762Y23403214D01*
X34724766Y23403211D01*
X34855869Y23315610D01*
X34855882Y23315603D01*
X34992036Y23259207D01*
X35001558Y23255263D01*
X35137024Y23228317D01*
X35156208Y23224501D01*
X35156211Y23224500D01*
X35273059Y23224500D01*
X35340098Y23204815D01*
X35360740Y23188181D01*
X35469707Y23079214D01*
X35469711Y23079211D01*
X35600814Y22991610D01*
X35600827Y22991603D01*
X35718394Y22942906D01*
X35746503Y22931263D01*
X35868878Y22906921D01*
X35901153Y22900501D01*
X35901156Y22900500D01*
X35901158Y22900500D01*
X36058844Y22900500D01*
X36058845Y22900501D01*
X36213497Y22931263D01*
X36359179Y22991606D01*
X36490289Y23079211D01*
X36601789Y23190711D01*
X36689394Y23321821D01*
X36749737Y23467503D01*
X36780500Y23622158D01*
X36780500Y23779842D01*
X36780500Y23779845D01*
X36780499Y23779847D01*
X36776520Y23799852D01*
X36749737Y23934497D01*
X36726867Y23989711D01*
X36689397Y24080173D01*
X36689390Y24080186D01*
X36601789Y24211289D01*
X36601786Y24211293D01*
X36490292Y24322787D01*
X36490288Y24322790D01*
X36359185Y24410391D01*
X36359172Y24410398D01*
X36213501Y24470736D01*
X36213489Y24470739D01*
X36058845Y24501500D01*
X36058842Y24501500D01*
X35941996Y24501500D01*
X35874957Y24521185D01*
X35854315Y24537819D01*
X35745347Y24646787D01*
X35745343Y24646790D01*
X35614240Y24734391D01*
X35614227Y24734398D01*
X35468556Y24794736D01*
X35468544Y24794739D01*
X35313900Y24825500D01*
X35313897Y24825500D01*
X35266440Y24825500D01*
X35199401Y24845185D01*
X35163337Y24880610D01*
X35159369Y24886548D01*
X35144637Y24908597D01*
X35144635Y24908600D01*
X35033140Y25020095D01*
X35033136Y25020098D01*
X34902033Y25107699D01*
X34902020Y25107706D01*
X34756349Y25168044D01*
X34756337Y25168047D01*
X34601693Y25198808D01*
X34601690Y25198808D01*
X34444006Y25198808D01*
X34444003Y25198808D01*
X34289358Y25168047D01*
X34289346Y25168044D01*
X34143675Y25107706D01*
X34143662Y25107699D01*
X34012559Y25020098D01*
X34012555Y25020095D01*
X33901061Y24908601D01*
X33901058Y24908597D01*
X33813457Y24777494D01*
X33813450Y24777481D01*
X33753112Y24631810D01*
X33753109Y24631798D01*
X33722348Y24477155D01*
X28000500Y24477155D01*
X28000500Y24578842D01*
X28000500Y24578845D01*
X28000499Y24578847D01*
X27980135Y24681221D01*
X27969737Y24733497D01*
X27969367Y24734391D01*
X27909397Y24879173D01*
X27909390Y24879186D01*
X27821789Y25010289D01*
X27821786Y25010293D01*
X27710292Y25121787D01*
X27710288Y25121790D01*
X27579185Y25209391D01*
X27579172Y25209398D01*
X27433501Y25269736D01*
X27433489Y25269739D01*
X27278845Y25300500D01*
X27278842Y25300500D01*
X27121158Y25300500D01*
X27121155Y25300500D01*
X26966510Y25269739D01*
X26966498Y25269736D01*
X26820827Y25209398D01*
X26820814Y25209391D01*
X26689711Y25121790D01*
X26689707Y25121787D01*
X26578213Y25010293D01*
X26578210Y25010289D01*
X26490609Y24879186D01*
X26490602Y24879173D01*
X26430264Y24733502D01*
X26430261Y24733490D01*
X26399500Y24578847D01*
X16688436Y24578847D01*
X16669458Y24624663D01*
X16661990Y24694131D01*
X16684757Y24746429D01*
X16693351Y24757909D01*
X16743597Y24892624D01*
X16743598Y24892628D01*
X16749999Y24952156D01*
X16750000Y24952173D01*
X16750000Y25250000D01*
X15959618Y25250000D01*
X16010064Y25300446D01*
X16052851Y25374555D01*
X16075000Y25457213D01*
X16075000Y25542787D01*
X16052851Y25625445D01*
X16010064Y25699554D01*
X15990925Y25718693D01*
X19774499Y25718693D01*
X19806222Y25559217D01*
X19806225Y25559207D01*
X19868450Y25408981D01*
X19868452Y25408977D01*
X19958788Y25273780D01*
X19958794Y25273772D01*
X20073771Y25158795D01*
X20073779Y25158789D01*
X20208976Y25068453D01*
X20208980Y25068451D01*
X20349397Y25010289D01*
X20359211Y25006224D01*
X20359215Y25006224D01*
X20359216Y25006223D01*
X20518692Y24974500D01*
X20518695Y24974500D01*
X20681307Y24974500D01*
X20788598Y24995843D01*
X20840789Y25006224D01*
X20965488Y25057876D01*
X20991019Y25068451D01*
X20991023Y25068453D01*
X21073347Y25123460D01*
X21126225Y25158792D01*
X21241208Y25273775D01*
X21308547Y25374555D01*
X21331547Y25408977D01*
X21331549Y25408981D01*
X21369250Y25500000D01*
X21393776Y25559211D01*
X21409586Y25638691D01*
X21409587Y25638696D01*
X31499500Y25638696D01*
X31499500Y25461305D01*
X31534103Y25287342D01*
X31534106Y25287333D01*
X31601983Y25123460D01*
X31601990Y25123447D01*
X31700535Y24975966D01*
X31700538Y24975962D01*
X31825961Y24850539D01*
X31825965Y24850536D01*
X31973446Y24751991D01*
X31973459Y24751984D01*
X32057949Y24716988D01*
X32137334Y24684106D01*
X32137336Y24684106D01*
X32137341Y24684104D01*
X32311304Y24649501D01*
X32311307Y24649500D01*
X32311309Y24649500D01*
X32488693Y24649500D01*
X32488694Y24649501D01*
X32546682Y24661036D01*
X32662658Y24684104D01*
X32662661Y24684106D01*
X32662666Y24684106D01*
X32813129Y24746429D01*
X32826540Y24751984D01*
X32826540Y24751985D01*
X32826547Y24751987D01*
X32974035Y24850536D01*
X33099464Y24975965D01*
X33198013Y25123453D01*
X33265894Y25287334D01*
X33268503Y25300446D01*
X33299685Y25457213D01*
X33300500Y25461309D01*
X33300500Y25638691D01*
X33300500Y25638694D01*
X33300499Y25638696D01*
X33265896Y25812659D01*
X33265893Y25812668D01*
X33198016Y25976541D01*
X33198009Y25976554D01*
X33099464Y26124035D01*
X33099461Y26124039D01*
X32974038Y26249462D01*
X32974034Y26249465D01*
X32826553Y26348010D01*
X32826540Y26348017D01*
X32662667Y26415894D01*
X32662658Y26415897D01*
X32488694Y26450500D01*
X32488691Y26450500D01*
X32311309Y26450500D01*
X32311306Y26450500D01*
X32137341Y26415897D01*
X32137332Y26415894D01*
X31973459Y26348017D01*
X31973446Y26348010D01*
X31825965Y26249465D01*
X31825961Y26249462D01*
X31700538Y26124039D01*
X31700535Y26124035D01*
X31601990Y25976554D01*
X31601983Y25976541D01*
X31534106Y25812668D01*
X31534103Y25812659D01*
X31499500Y25638696D01*
X21409587Y25638696D01*
X21415610Y25668974D01*
X21415610Y25668975D01*
X21425500Y25718693D01*
X21425500Y25881308D01*
X21393777Y26040784D01*
X21393776Y26040785D01*
X21393776Y26040789D01*
X21390853Y26047845D01*
X21331549Y26191020D01*
X21331547Y26191024D01*
X21241211Y26326221D01*
X21241205Y26326229D01*
X21126228Y26441206D01*
X21126220Y26441212D01*
X20991023Y26531548D01*
X20991019Y26531550D01*
X20840793Y26593775D01*
X20840783Y26593778D01*
X20681307Y26625500D01*
X20681305Y26625500D01*
X20518695Y26625500D01*
X20518693Y26625500D01*
X20359216Y26593778D01*
X20359206Y26593775D01*
X20208980Y26531550D01*
X20208976Y26531548D01*
X20073779Y26441212D01*
X20073771Y26441206D01*
X19958794Y26326229D01*
X19958788Y26326221D01*
X19868452Y26191024D01*
X19868450Y26191020D01*
X19806225Y26040794D01*
X19806222Y26040784D01*
X19774500Y25881308D01*
X19774500Y25881305D01*
X19774500Y25718695D01*
X19774500Y25718693D01*
X19774499Y25718693D01*
X15990925Y25718693D01*
X15959618Y25750000D01*
X16000000Y25750000D01*
X16750000Y25750000D01*
X16750000Y26047828D01*
X16749999Y26047845D01*
X16743598Y26107373D01*
X16743596Y26107380D01*
X16693354Y26242087D01*
X16693350Y26242094D01*
X16607190Y26357188D01*
X16607187Y26357191D01*
X16492093Y26443351D01*
X16492086Y26443355D01*
X16357379Y26493597D01*
X16357372Y26493599D01*
X16297844Y26500000D01*
X16000000Y26500000D01*
X16000000Y25750000D01*
X15959618Y25750000D01*
X15949554Y25760064D01*
X15875445Y25802851D01*
X15792787Y25825000D01*
X15707213Y25825000D01*
X15624555Y25802851D01*
X15550446Y25760064D01*
X15500000Y25709618D01*
X15500000Y26500000D01*
X15202155Y26500000D01*
X15142627Y26493599D01*
X15142620Y26493597D01*
X15007913Y26443355D01*
X15007906Y26443351D01*
X14892814Y26357192D01*
X14892806Y26357184D01*
X14886555Y26348834D01*
X14830619Y26306966D01*
X14760927Y26301985D01*
X14718402Y26320047D01*
X14676551Y26348011D01*
X14676540Y26348017D01*
X14512667Y26415894D01*
X14512658Y26415897D01*
X14338694Y26450500D01*
X14338691Y26450500D01*
X14161309Y26450500D01*
X14161306Y26450500D01*
X13987341Y26415897D01*
X13987332Y26415894D01*
X13823459Y26348017D01*
X13823446Y26348010D01*
X13675965Y26249465D01*
X13675961Y26249462D01*
X13550538Y26124039D01*
X13550535Y26124035D01*
X13451990Y25976554D01*
X13451983Y25976541D01*
X13384106Y25812668D01*
X13384103Y25812659D01*
X13349500Y25638696D01*
X13349500Y25461305D01*
X13384103Y25287342D01*
X13384106Y25287333D01*
X13451983Y25123460D01*
X13451990Y25123447D01*
X13550535Y24975966D01*
X13550538Y24975962D01*
X13675961Y24850539D01*
X13675965Y24850536D01*
X13823446Y24751991D01*
X13823459Y24751984D01*
X13907949Y24716988D01*
X13987334Y24684106D01*
X13987336Y24684106D01*
X13987341Y24684104D01*
X14161304Y24649501D01*
X14161307Y24649500D01*
X14161309Y24649500D01*
X14338693Y24649500D01*
X14338694Y24649501D01*
X14396682Y24661036D01*
X14512658Y24684104D01*
X14512660Y24684105D01*
X14512666Y24684106D01*
X14649525Y24740795D01*
X14718992Y24748263D01*
X14781471Y24716988D01*
X14817123Y24656899D01*
X14814629Y24587074D01*
X14811536Y24578782D01*
X14787950Y24521836D01*
X14787948Y24521832D01*
X14787947Y24521829D01*
X14749500Y24328544D01*
X14749500Y24328541D01*
X14749500Y24131459D01*
X14749500Y24131457D01*
X14749499Y24131457D01*
X14787947Y23938171D01*
X14787950Y23938161D01*
X14863364Y23756093D01*
X14863371Y23756080D01*
X14972860Y23592219D01*
X14972863Y23592215D01*
X15113181Y23451897D01*
X15146666Y23390574D01*
X15149500Y23364216D01*
X15149500Y22575316D01*
X15140061Y22527864D01*
X15080264Y22383502D01*
X15080261Y22383490D01*
X15049500Y22228847D01*
X15049500Y22228842D01*
X15049500Y22071158D01*
X15049501Y22071154D01*
X15053969Y22048690D01*
X15047740Y21979099D01*
X15004877Y21923922D01*
X14938987Y21900678D01*
X14932351Y21900500D01*
X14871155Y21900500D01*
X14716510Y21869739D01*
X14716498Y21869736D01*
X14570827Y21809398D01*
X14570809Y21809388D01*
X14461304Y21736219D01*
X14394627Y21715341D01*
X14327247Y21733826D01*
X14323523Y21736219D01*
X14221961Y21804081D01*
X14221949Y21804088D01*
X14058076Y21871965D01*
X14058067Y21871968D01*
X13884103Y21906571D01*
X13884100Y21906571D01*
X13706718Y21906571D01*
X13706715Y21906571D01*
X13532750Y21871968D01*
X13532741Y21871965D01*
X13368868Y21804088D01*
X13368855Y21804081D01*
X13221374Y21705536D01*
X13221370Y21705533D01*
X13095947Y21580110D01*
X13095944Y21580106D01*
X12997399Y21432625D01*
X12997392Y21432612D01*
X12929515Y21268739D01*
X12929512Y21268730D01*
X12894909Y21094767D01*
X12894909Y20917376D01*
X12929512Y20743413D01*
X12929515Y20743404D01*
X12997392Y20579531D01*
X12997399Y20579518D01*
X13095944Y20432037D01*
X13095947Y20432033D01*
X13176690Y20351290D01*
X13210175Y20289967D01*
X13205191Y20220275D01*
X13176690Y20175928D01*
X12094950Y19094187D01*
X12033627Y19060702D01*
X11963935Y19065686D01*
X11908002Y19107558D01*
X11892708Y19134416D01*
X11832816Y19279010D01*
X11832809Y19279023D01*
X11745208Y19410126D01*
X11745205Y19410130D01*
X11633711Y19521624D01*
X11633707Y19521627D01*
X11502604Y19609228D01*
X11502591Y19609235D01*
X11356920Y19669573D01*
X11356908Y19669576D01*
X11202264Y19700337D01*
X11202261Y19700337D01*
X11074500Y19700337D01*
X11007461Y19720022D01*
X10961706Y19772826D01*
X10950500Y19824337D01*
X10950500Y19884190D01*
X10950499Y19884192D01*
X10945569Y19908977D01*
X10919737Y20038842D01*
X10909859Y20062688D01*
X10902391Y20132155D01*
X10933665Y20194634D01*
X10955528Y20213239D01*
X10995934Y20240237D01*
X11121363Y20365666D01*
X11219912Y20513154D01*
X11287793Y20677035D01*
X11291312Y20694723D01*
X11318528Y20831550D01*
X11322399Y20851010D01*
X11322399Y21028392D01*
X11322399Y21028395D01*
X11322398Y21028397D01*
X11287795Y21202360D01*
X11287792Y21202369D01*
X11219915Y21366242D01*
X11219908Y21366255D01*
X11121363Y21513736D01*
X11121360Y21513740D01*
X10995937Y21639163D01*
X10995931Y21639168D01*
X10970106Y21656424D01*
X10925301Y21710037D01*
X10914998Y21759525D01*
X10914998Y21902358D01*
X10914997Y21902360D01*
X10906080Y21947189D01*
X10884235Y22057010D01*
X10884233Y22057015D01*
X10823895Y22202686D01*
X10823888Y22202699D01*
X10736287Y22333802D01*
X10736284Y22333806D01*
X10624790Y22445300D01*
X10624786Y22445303D01*
X10533144Y22506537D01*
X10488339Y22560150D01*
X10479632Y22629475D01*
X10509787Y22692502D01*
X10569230Y22729221D01*
X10577833Y22731254D01*
X10693945Y22754350D01*
X10844177Y22816578D01*
X10844179Y22816579D01*
X10958428Y22892918D01*
X10979381Y22906918D01*
X11094364Y23021901D01*
X11184704Y23157105D01*
X11188005Y23165073D01*
X11226996Y23259207D01*
X11246932Y23307337D01*
X11263185Y23389044D01*
X11278656Y23466819D01*
X11278656Y23629434D01*
X11246933Y23788910D01*
X11246932Y23788911D01*
X11246932Y23788915D01*
X11236405Y23814329D01*
X11184705Y23939146D01*
X11184703Y23939150D01*
X11094804Y24073693D01*
X11580178Y24073693D01*
X11611901Y23914217D01*
X11611904Y23914207D01*
X11674129Y23763981D01*
X11674131Y23763977D01*
X11764467Y23628780D01*
X11764473Y23628772D01*
X11879450Y23513795D01*
X11879458Y23513789D01*
X12014655Y23423453D01*
X12014659Y23423451D01*
X12164885Y23361226D01*
X12164890Y23361224D01*
X12164894Y23361224D01*
X12164895Y23361223D01*
X12324371Y23329500D01*
X12324374Y23329500D01*
X12486986Y23329500D01*
X12594277Y23350843D01*
X12646468Y23361224D01*
X12796700Y23423452D01*
X12796702Y23423453D01*
X12906340Y23496711D01*
X12931904Y23513792D01*
X13046887Y23628775D01*
X13108187Y23720517D01*
X13137226Y23763977D01*
X13137228Y23763981D01*
X13184543Y23878211D01*
X13199455Y23914211D01*
X13220325Y24019129D01*
X13231179Y24073693D01*
X13231179Y24236308D01*
X13199456Y24395784D01*
X13199455Y24395785D01*
X13199455Y24395789D01*
X13193407Y24410391D01*
X13137228Y24546020D01*
X13137226Y24546024D01*
X13046890Y24681221D01*
X13046884Y24681229D01*
X12931907Y24796206D01*
X12931899Y24796212D01*
X12796702Y24886548D01*
X12796698Y24886550D01*
X12646472Y24948775D01*
X12646462Y24948778D01*
X12486986Y24980500D01*
X12486984Y24980500D01*
X12324374Y24980500D01*
X12324372Y24980500D01*
X12164895Y24948778D01*
X12164885Y24948775D01*
X12014659Y24886550D01*
X12014655Y24886548D01*
X11879458Y24796212D01*
X11879450Y24796206D01*
X11764473Y24681229D01*
X11764467Y24681221D01*
X11674131Y24546024D01*
X11674129Y24546020D01*
X11611904Y24395794D01*
X11611901Y24395784D01*
X11580179Y24236308D01*
X11580179Y24236305D01*
X11580179Y24073695D01*
X11580179Y24073693D01*
X11580178Y24073693D01*
X11094804Y24073693D01*
X11094367Y24074347D01*
X11094361Y24074355D01*
X10979384Y24189332D01*
X10979376Y24189338D01*
X10844179Y24279674D01*
X10844175Y24279676D01*
X10693949Y24341901D01*
X10693939Y24341904D01*
X10534463Y24373626D01*
X10534461Y24373626D01*
X10371851Y24373626D01*
X10371849Y24373626D01*
X10212372Y24341904D01*
X10212362Y24341901D01*
X10062136Y24279676D01*
X10062132Y24279674D01*
X9926935Y24189338D01*
X9926927Y24189332D01*
X9811950Y24074355D01*
X9811944Y24074347D01*
X9721608Y23939150D01*
X9721605Y23939144D01*
X9701382Y23890321D01*
X9657541Y23835918D01*
X9591246Y23813854D01*
X9523547Y23831134D01*
X9499141Y23850094D01*
X8936819Y24412416D01*
X8922115Y24439344D01*
X8905523Y24465162D01*
X8904631Y24471363D01*
X8903334Y24473739D01*
X8900500Y24500097D01*
X8900500Y24631478D01*
X8920185Y24698517D01*
X8972989Y24744272D01*
X9042147Y24754216D01*
X9071951Y24746040D01*
X9221473Y24684106D01*
X9221475Y24684106D01*
X9221480Y24684104D01*
X9395443Y24649501D01*
X9395446Y24649500D01*
X9395448Y24649500D01*
X9572832Y24649500D01*
X9572833Y24649501D01*
X9630821Y24661036D01*
X9746797Y24684104D01*
X9746800Y24684106D01*
X9746805Y24684106D01*
X9897268Y24746429D01*
X9910679Y24751984D01*
X9910679Y24751985D01*
X9910686Y24751987D01*
X10058174Y24850536D01*
X10183603Y24975965D01*
X10282152Y25123453D01*
X10350033Y25287334D01*
X10352642Y25300446D01*
X10383824Y25457213D01*
X10384639Y25461309D01*
X10384639Y25638691D01*
X10384639Y25638694D01*
X10384638Y25638696D01*
X10350035Y25812659D01*
X10350032Y25812668D01*
X10282155Y25976541D01*
X10282148Y25976554D01*
X10183603Y26124035D01*
X10183600Y26124039D01*
X10058177Y26249462D01*
X10058173Y26249465D01*
X9910692Y26348010D01*
X9910679Y26348017D01*
X9746806Y26415894D01*
X9746797Y26415897D01*
X9572833Y26450500D01*
X9572830Y26450500D01*
X9395448Y26450500D01*
X9395445Y26450500D01*
X9221480Y26415897D01*
X9221476Y26415895D01*
X9221474Y26415895D01*
X9221473Y26415894D01*
X9200480Y26407199D01*
X9131012Y26399732D01*
X9068534Y26431008D01*
X9038469Y26474311D01*
X9031548Y26491021D01*
X9029825Y26493599D01*
X8941211Y26626221D01*
X8941205Y26626229D01*
X8826228Y26741206D01*
X8826220Y26741212D01*
X8691023Y26831548D01*
X8691019Y26831550D01*
X8540793Y26893775D01*
X8540783Y26893778D01*
X8381307Y26925500D01*
X8381305Y26925500D01*
X8218695Y26925500D01*
X8218693Y26925500D01*
X8059216Y26893778D01*
X8059206Y26893775D01*
X7908980Y26831550D01*
X7908976Y26831548D01*
X7773779Y26741212D01*
X7773771Y26741206D01*
X7658794Y26626229D01*
X7658788Y26626221D01*
X7568452Y26491024D01*
X7568450Y26491020D01*
X7506225Y26340794D01*
X7506222Y26340784D01*
X7504800Y26333634D01*
X7472411Y26271725D01*
X7411693Y26237155D01*
X7341924Y26240899D01*
X7314293Y26254731D01*
X7174693Y26348010D01*
X7174680Y26348017D01*
X7010807Y26415894D01*
X7010798Y26415897D01*
X6836834Y26450500D01*
X6836831Y26450500D01*
X6659449Y26450500D01*
X6659446Y26450500D01*
X6485481Y26415897D01*
X6485472Y26415894D01*
X6321599Y26348017D01*
X6321586Y26348010D01*
X6174105Y26249465D01*
X6174101Y26249462D01*
X6048678Y26124039D01*
X6048675Y26124035D01*
X5950130Y25976554D01*
X5950123Y25976541D01*
X5882246Y25812668D01*
X5882243Y25812659D01*
X5847640Y25638696D01*
X5847640Y25638691D01*
X5847640Y25461309D01*
X5847641Y25461305D01*
X5858511Y25406654D01*
X5852282Y25337062D01*
X5809419Y25281886D01*
X5761085Y25260847D01*
X5630334Y25234838D01*
X5630323Y25234835D01*
X5480097Y25172610D01*
X5480093Y25172608D01*
X5344896Y25082272D01*
X5344888Y25082266D01*
X5229911Y24967289D01*
X5229905Y24967281D01*
X5139569Y24832084D01*
X5139567Y24832080D01*
X5077342Y24681854D01*
X5077339Y24681844D01*
X5045617Y24522368D01*
X5045617Y24522365D01*
X5045617Y24359755D01*
X5045617Y24359753D01*
X5045616Y24359753D01*
X5077339Y24200277D01*
X5077341Y24200271D01*
X5092946Y24162596D01*
X5115061Y24109207D01*
X5124500Y24061754D01*
X5124500Y21377531D01*
X5104815Y21310492D01*
X5052011Y21264737D01*
X4982853Y21254793D01*
X4931611Y21274428D01*
X4891021Y21301549D01*
X4891019Y21301550D01*
X4740793Y21363775D01*
X4740783Y21363778D01*
X4581307Y21395500D01*
X4581305Y21395500D01*
X4418695Y21395500D01*
X4418693Y21395500D01*
X4259217Y21363778D01*
X4253388Y21362009D01*
X4253036Y21363167D01*
X4189918Y21356385D01*
X4127441Y21387663D01*
X4097461Y21435723D01*
X4096107Y21435162D01*
X4031549Y21591020D01*
X4031547Y21591024D01*
X3941211Y21726221D01*
X3941205Y21726229D01*
X3826228Y21841206D01*
X3826220Y21841212D01*
X3691023Y21931548D01*
X3691019Y21931550D01*
X3540793Y21993775D01*
X3540783Y21993778D01*
X3381307Y22025500D01*
X3381305Y22025500D01*
X3218695Y22025500D01*
X3218693Y22025500D01*
X3059216Y21993778D01*
X3059206Y21993775D01*
X2908980Y21931550D01*
X2908976Y21931548D01*
X2773779Y21841212D01*
X2773771Y21841206D01*
X2658794Y21726229D01*
X2658788Y21726221D01*
X2568452Y21591024D01*
X2568450Y21591020D01*
X2506225Y21440794D01*
X2506222Y21440784D01*
X2474500Y21281308D01*
X2474500Y21281305D01*
X2474500Y21118695D01*
X2474500Y21118693D01*
X2474499Y21118693D01*
X2506222Y20959217D01*
X2506225Y20959207D01*
X2568450Y20808981D01*
X2568452Y20808977D01*
X2658788Y20673780D01*
X2658794Y20673772D01*
X2773771Y20558795D01*
X2773779Y20558789D01*
X2908976Y20468453D01*
X2908980Y20468451D01*
X3059206Y20406226D01*
X3059211Y20406224D01*
X3059215Y20406224D01*
X3059216Y20406223D01*
X3218692Y20374500D01*
X3218695Y20374500D01*
X3381307Y20374500D01*
X3488598Y20395843D01*
X3540789Y20406224D01*
X3540796Y20406228D01*
X3546616Y20407992D01*
X3546968Y20406831D01*
X3610065Y20413618D01*
X3672547Y20382348D01*
X3702544Y20334280D01*
X3703893Y20334838D01*
X3768450Y20178981D01*
X3768452Y20178977D01*
X3858788Y20043780D01*
X3858794Y20043772D01*
X3973771Y19928795D01*
X3973779Y19928789D01*
X4108976Y19838453D01*
X4108980Y19838451D01*
X4197805Y19801659D01*
X4259211Y19776224D01*
X4259215Y19776224D01*
X4259216Y19776223D01*
X4418692Y19744500D01*
X4418695Y19744500D01*
X4581307Y19744500D01*
X4723706Y19772826D01*
X4740789Y19776224D01*
X4891021Y19838452D01*
X4931609Y19865573D01*
X4998287Y19886450D01*
X5065667Y19867965D01*
X5112357Y19815986D01*
X5124500Y19762470D01*
X5124500Y17396358D01*
X5104815Y17329319D01*
X5052011Y17283564D01*
X4982853Y17273620D01*
X4919297Y17302645D01*
X4897398Y17327467D01*
X4888496Y17340789D01*
X4799464Y17474035D01*
X4799461Y17474039D01*
X4674038Y17599462D01*
X4674034Y17599465D01*
X4526553Y17698010D01*
X4526540Y17698017D01*
X4362667Y17765894D01*
X4362658Y17765897D01*
X4188694Y17800500D01*
X4188691Y17800500D01*
X4011309Y17800500D01*
X4011306Y17800500D01*
X3837341Y17765897D01*
X3837332Y17765894D01*
X3673459Y17698017D01*
X3673446Y17698010D01*
X3525965Y17599465D01*
X3525961Y17599462D01*
X3400538Y17474039D01*
X3400535Y17474035D01*
X3301990Y17326554D01*
X3301983Y17326541D01*
X3234106Y17162668D01*
X3234103Y17162659D01*
X3199500Y16988696D01*
X3199500Y16811305D01*
X3234103Y16637342D01*
X3234106Y16637333D01*
X3301983Y16473460D01*
X3301990Y16473447D01*
X3400535Y16325966D01*
X3400538Y16325962D01*
X3525961Y16200539D01*
X3525965Y16200536D01*
X3673446Y16101991D01*
X3673459Y16101984D01*
X3776273Y16059398D01*
X3837334Y16034106D01*
X3837336Y16034106D01*
X3837341Y16034104D01*
X3899680Y16021704D01*
X3961591Y15989319D01*
X3996165Y15928603D01*
X3992426Y15858834D01*
X3963170Y15812406D01*
X2919481Y14768718D01*
X2919479Y14768715D01*
X2913992Y14759211D01*
X2878463Y14697672D01*
X2851675Y14651274D01*
X2845518Y14640609D01*
X2840423Y14631785D01*
X2799499Y14479057D01*
X2799499Y14479055D01*
X2799499Y14310954D01*
X2799500Y14310941D01*
X2799500Y10193702D01*
X2779815Y10126663D01*
X2727011Y10080908D01*
X2675500Y10069702D01*
X2643693Y10069702D01*
X2484216Y10037980D01*
X2484206Y10037977D01*
X2333980Y9975752D01*
X2333976Y9975750D01*
X2198779Y9885414D01*
X2198771Y9885408D01*
X2083794Y9770431D01*
X2083788Y9770423D01*
X1993452Y9635226D01*
X1993450Y9635222D01*
X1931225Y9484996D01*
X1931222Y9484986D01*
X1899500Y9325510D01*
X1899500Y9325507D01*
X1899500Y9162897D01*
X1899500Y9162895D01*
X1899499Y9162895D01*
X1931222Y9003419D01*
X1931225Y9003409D01*
X1948397Y8961952D01*
X1955866Y8892482D01*
X1924590Y8830003D01*
X1864501Y8794352D01*
X1833836Y8790500D01*
X1651457Y8790500D01*
X1458170Y8752053D01*
X1458160Y8752050D01*
X1276092Y8676636D01*
X1276079Y8676629D01*
X1112218Y8567140D01*
X1112214Y8567137D01*
X972863Y8427786D01*
X972860Y8427782D01*
X863371Y8263921D01*
X863364Y8263908D01*
X787950Y8081840D01*
X787947Y8081830D01*
X749500Y7888544D01*
X749500Y7888541D01*
X749500Y7691459D01*
X749500Y7691457D01*
X749499Y7691457D01*
X500500Y7691457D01*
X500500Y9762094D01*
X520185Y9829133D01*
X568205Y9872579D01*
X661694Y9920213D01*
X822464Y10037019D01*
X962981Y10177536D01*
X1079787Y10338306D01*
X1170005Y10515368D01*
X1231413Y10704364D01*
X1262500Y10900639D01*
X1262500Y11099361D01*
X1231413Y11295636D01*
X1191218Y11419346D01*
X1170006Y11484630D01*
X1170005Y11484633D01*
X1120990Y11580828D01*
X1079787Y11661694D01*
X972488Y11809379D01*
X949009Y11875183D01*
X964834Y11943237D01*
X1014940Y11991932D01*
X1083418Y12005807D01*
X1096999Y12003879D01*
X1244692Y11974500D01*
X1244695Y11974500D01*
X1407307Y11974500D01*
X1538013Y12000500D01*
X1566789Y12006224D01*
X1717021Y12068452D01*
X1717023Y12068453D01*
X1822932Y12139219D01*
X1852225Y12158792D01*
X1967208Y12273775D01*
X2035560Y12376071D01*
X2057547Y12408977D01*
X2057549Y12408981D01*
X2105812Y12525500D01*
X2119776Y12559211D01*
X2140580Y12663798D01*
X2151500Y12718693D01*
X2151500Y12881308D01*
X2119777Y13040784D01*
X2119776Y13040785D01*
X2119776Y13040789D01*
X2117431Y13046451D01*
X2057549Y13191020D01*
X2057547Y13191024D01*
X1967211Y13326221D01*
X1967205Y13326229D01*
X1852228Y13441206D01*
X1852220Y13441212D01*
X1717023Y13531548D01*
X1717019Y13531550D01*
X1566793Y13593775D01*
X1566783Y13593778D01*
X1407307Y13625500D01*
X1407305Y13625500D01*
X1244695Y13625500D01*
X1244693Y13625500D01*
X1085216Y13593778D01*
X1085206Y13593775D01*
X934980Y13531550D01*
X934976Y13531548D01*
X799779Y13441212D01*
X799771Y13441206D01*
X712181Y13353615D01*
X650858Y13320130D01*
X581166Y13325114D01*
X525233Y13366986D01*
X500816Y13432450D01*
X500500Y13441296D01*
X500500Y15132704D01*
X520185Y15199743D01*
X572989Y15245498D01*
X642147Y15255442D01*
X705703Y15226417D01*
X712181Y15220385D01*
X773771Y15158795D01*
X773779Y15158789D01*
X908976Y15068453D01*
X908980Y15068451D01*
X1032261Y15017387D01*
X1059211Y15006224D01*
X1059215Y15006224D01*
X1059216Y15006223D01*
X1218692Y14974500D01*
X1218695Y14974500D01*
X1381307Y14974500D01*
X1488598Y14995843D01*
X1540789Y15006224D01*
X1691021Y15068452D01*
X1691023Y15068453D01*
X1798705Y15140404D01*
X1826225Y15158792D01*
X1941208Y15273775D01*
X2012352Y15380250D01*
X2031547Y15408977D01*
X2031549Y15408981D01*
X2093774Y15559207D01*
X2093776Y15559211D01*
X2125500Y15718695D01*
X2125500Y15881305D01*
X2125500Y15881308D01*
X2093777Y16040784D01*
X2093776Y16040785D01*
X2093776Y16040789D01*
X2089390Y16051377D01*
X2031549Y16191020D01*
X2031547Y16191024D01*
X1941211Y16326221D01*
X1941205Y16326229D01*
X1826228Y16441206D01*
X1826220Y16441212D01*
X1691023Y16531548D01*
X1691019Y16531550D01*
X1540793Y16593775D01*
X1540783Y16593778D01*
X1381307Y16625500D01*
X1381305Y16625500D01*
X1218695Y16625500D01*
X1218693Y16625500D01*
X1059216Y16593778D01*
X1059206Y16593775D01*
X908980Y16531550D01*
X908976Y16531548D01*
X773779Y16441212D01*
X773771Y16441206D01*
X712181Y16379615D01*
X650858Y16346130D01*
X581166Y16351114D01*
X525233Y16392986D01*
X500816Y16458450D01*
X500500Y16467296D01*
X500500Y17762094D01*
X520185Y17829133D01*
X568205Y17872579D01*
X661694Y17920213D01*
X822464Y18037019D01*
X962981Y18177536D01*
X1079787Y18338306D01*
X1170005Y18515368D01*
X1231413Y18704364D01*
X1262500Y18900639D01*
X1262500Y19099361D01*
X1231413Y19295636D01*
X1194212Y19410130D01*
X1170006Y19484630D01*
X1170005Y19484633D01*
X1118512Y19585692D01*
X1079787Y19661694D01*
X962981Y19822464D01*
X822464Y19962981D01*
X718050Y20038842D01*
X661692Y20079789D01*
X568204Y20127424D01*
X517409Y20175399D01*
X500500Y20237908D01*
X500500Y23418693D01*
X1424499Y23418693D01*
X1456222Y23259217D01*
X1456225Y23259207D01*
X1518450Y23108981D01*
X1518452Y23108977D01*
X1608788Y22973780D01*
X1608794Y22973772D01*
X1723771Y22858795D01*
X1723779Y22858789D01*
X1858976Y22768453D01*
X1858980Y22768451D01*
X1984499Y22716460D01*
X2009211Y22706224D01*
X2009215Y22706224D01*
X2009216Y22706223D01*
X2168692Y22674500D01*
X2168695Y22674500D01*
X2331307Y22674500D01*
X2438598Y22695843D01*
X2490789Y22706224D01*
X2641021Y22768452D01*
X2641023Y22768453D01*
X2737536Y22832941D01*
X2776225Y22858792D01*
X2891208Y22973775D01*
X2974221Y23098013D01*
X2981547Y23108977D01*
X2981549Y23108981D01*
X3029398Y23224500D01*
X3043776Y23259211D01*
X3064068Y23361224D01*
X3075500Y23418693D01*
X3075500Y23581308D01*
X3043777Y23740784D01*
X3043776Y23740785D01*
X3043776Y23740789D01*
X3034171Y23763977D01*
X2981549Y23891020D01*
X2981547Y23891024D01*
X2891211Y24026221D01*
X2891205Y24026229D01*
X2776228Y24141206D01*
X2776220Y24141212D01*
X2641023Y24231548D01*
X2641019Y24231550D01*
X2490793Y24293775D01*
X2490783Y24293778D01*
X2331307Y24325500D01*
X2331305Y24325500D01*
X2168695Y24325500D01*
X2168693Y24325500D01*
X2009216Y24293778D01*
X2009206Y24293775D01*
X1858980Y24231550D01*
X1858976Y24231548D01*
X1723779Y24141212D01*
X1723771Y24141206D01*
X1608794Y24026229D01*
X1608788Y24026221D01*
X1518452Y23891024D01*
X1518450Y23891020D01*
X1456225Y23740794D01*
X1456222Y23740784D01*
X1424500Y23581308D01*
X1424500Y23581305D01*
X1424500Y23418695D01*
X1424500Y23418693D01*
X1424499Y23418693D01*
X500500Y23418693D01*
X500500Y25046627D01*
X520185Y25113666D01*
X572989Y25159421D01*
X642147Y25169365D01*
X671950Y25161189D01*
X737334Y25134106D01*
X737336Y25134106D01*
X737341Y25134104D01*
X911304Y25099501D01*
X911307Y25099500D01*
X911309Y25099500D01*
X1088693Y25099500D01*
X1088694Y25099501D01*
X1174819Y25116632D01*
X1262658Y25134104D01*
X1262661Y25134106D01*
X1262666Y25134106D01*
X1426547Y25201987D01*
X1431107Y25205035D01*
X1497783Y25225914D01*
X1565163Y25207431D01*
X1568867Y25205052D01*
X1573453Y25201987D01*
X1573455Y25201986D01*
X1573457Y25201985D01*
X1677729Y25158795D01*
X1737334Y25134106D01*
X1737336Y25134106D01*
X1737341Y25134104D01*
X1911304Y25099501D01*
X1911307Y25099500D01*
X1911309Y25099500D01*
X2088693Y25099500D01*
X2088694Y25099501D01*
X2174819Y25116632D01*
X2262658Y25134104D01*
X2262661Y25134106D01*
X2262666Y25134106D01*
X2426547Y25201987D01*
X2574035Y25300536D01*
X2699464Y25425965D01*
X2798013Y25573453D01*
X2865894Y25737334D01*
X2868414Y25750000D01*
X2894532Y25881308D01*
X2900500Y25911309D01*
X2900500Y26088691D01*
X2900500Y26088694D01*
X2900499Y26088696D01*
X2865896Y26262659D01*
X2865893Y26262668D01*
X2798016Y26426541D01*
X2798009Y26426554D01*
X2699464Y26574035D01*
X2699461Y26574039D01*
X2574038Y26699462D01*
X2574034Y26699465D01*
X2426553Y26798010D01*
X2426540Y26798017D01*
X2262667Y26865894D01*
X2262658Y26865897D01*
X2088694Y26900500D01*
X2088691Y26900500D01*
X1911309Y26900500D01*
X1911306Y26900500D01*
X1737341Y26865897D01*
X1737332Y26865894D01*
X1573459Y26798017D01*
X1573446Y26798010D01*
X1568887Y26794963D01*
X1502208Y26774088D01*
X1449384Y26784869D01*
X1439814Y26789148D01*
X1426547Y26798013D01*
X1337480Y26834906D01*
X1335884Y26835619D01*
X1310558Y26857215D01*
X1284644Y26878098D01*
X1284079Y26879794D01*
X1282719Y26880954D01*
X1273088Y26912817D01*
X1262579Y26944392D01*
X1262518Y26947788D01*
X1262504Y26947835D01*
X1262516Y26947880D01*
X1262500Y26948818D01*
X1262500Y27099361D01*
X1254559Y27149500D01*
X1231413Y27295636D01*
X1170005Y27484632D01*
X1170005Y27484633D01*
X1110138Y27602127D01*
X1079787Y27661694D01*
X962981Y27822464D01*
X822464Y27962981D01*
X742079Y28021384D01*
X661692Y28079789D01*
X568204Y28127424D01*
X517409Y28175399D01*
X500500Y28237908D01*
X500500Y29375500D01*
X520185Y29442539D01*
X572989Y29488294D01*
X624500Y29499500D01*
X14848505Y29499500D01*
X14915544Y29479815D01*
G37*
G04 #@! TD.AperFunction*
G04 #@! TA.AperFunction,Conductor*
G36*
X44418833Y2669874D02*
G01*
X44474767Y2628003D01*
X44499184Y2562538D01*
X44499500Y2553692D01*
X44499500Y2197310D01*
X44479815Y2130271D01*
X44463181Y2109629D01*
X44301283Y1947732D01*
X44301283Y1947731D01*
X44338570Y1920640D01*
X44431794Y1873140D01*
X44482591Y1825166D01*
X44499500Y1762655D01*
X44499500Y1431941D01*
X44479815Y1364902D01*
X44427011Y1319147D01*
X44357853Y1309203D01*
X44294297Y1338228D01*
X44287819Y1344260D01*
X44210292Y1421787D01*
X44210288Y1421790D01*
X44079185Y1509391D01*
X44079172Y1509398D01*
X43933501Y1569736D01*
X43933489Y1569739D01*
X43778845Y1600500D01*
X43778842Y1600500D01*
X43621158Y1600500D01*
X43621155Y1600500D01*
X43466510Y1569739D01*
X43466503Y1569737D01*
X43339879Y1517289D01*
X43270410Y1509821D01*
X43207931Y1541097D01*
X43172279Y1601186D01*
X43170811Y1607660D01*
X43154490Y1689708D01*
X43145780Y1733497D01*
X43088155Y1872615D01*
X43080687Y1942084D01*
X43111962Y2004563D01*
X43172051Y2040215D01*
X43178526Y2041684D01*
X43210557Y2048056D01*
X43267025Y2059288D01*
X43379694Y2105958D01*
X43412700Y2119628D01*
X43412700Y2119629D01*
X43412707Y2119631D01*
X43543817Y2207236D01*
X43655317Y2318736D01*
X43694045Y2376696D01*
X43747657Y2421501D01*
X43816982Y2430208D01*
X43880010Y2400054D01*
X43907632Y2364100D01*
X43920641Y2338568D01*
X43947730Y2301285D01*
X44287819Y2641373D01*
X44349142Y2674858D01*
X44418833Y2669874D01*
G37*
G04 #@! TD.AperFunction*
G04 #@! TD*
M02*
