G04 #@! TF.GenerationSoftware,KiCad,Pcbnew,9.0.1-9.0.1-0~ubuntu22.04.1*
G04 #@! TF.CreationDate,2025-04-15T00:54:37-04:00*
G04 #@! TF.ProjectId,TTExperimentModule,54544578-7065-4726-996d-656e744d6f64,1.0*
G04 #@! TF.SameCoordinates,PX10e4380PY2d07198*
G04 #@! TF.FileFunction,Legend,Top*
G04 #@! TF.FilePolarity,Positive*
%FSLAX46Y46*%
G04 Gerber Fmt 4.6, Leading zero omitted, Abs format (unit mm)*
G04 Created by KiCad (PCBNEW 9.0.1-9.0.1-0~ubuntu22.04.1) date 2025-04-15 00:54:37*
%MOMM*%
%LPD*%
G01*
G04 APERTURE LIST*
%ADD10C,0.300000*%
G04 APERTURE END LIST*
D10*
X47723558Y16125138D02*
X47723558Y18125138D01*
X47723558Y18125138D02*
X48866415Y16125138D01*
X48866415Y16125138D02*
X48866415Y18125138D01*
X50199748Y18125138D02*
X50580701Y18125138D01*
X50580701Y18125138D02*
X50771177Y18029900D01*
X50771177Y18029900D02*
X50961653Y17839424D01*
X50961653Y17839424D02*
X51056891Y17458472D01*
X51056891Y17458472D02*
X51056891Y16791805D01*
X51056891Y16791805D02*
X50961653Y16410853D01*
X50961653Y16410853D02*
X50771177Y16220376D01*
X50771177Y16220376D02*
X50580701Y16125138D01*
X50580701Y16125138D02*
X50199748Y16125138D01*
X50199748Y16125138D02*
X50009272Y16220376D01*
X50009272Y16220376D02*
X49818796Y16410853D01*
X49818796Y16410853D02*
X49723558Y16791805D01*
X49723558Y16791805D02*
X49723558Y17458472D01*
X49723558Y17458472D02*
X49818796Y17839424D01*
X49818796Y17839424D02*
X50009272Y18029900D01*
X50009272Y18029900D02*
X50199748Y18125138D01*
X53342606Y16220376D02*
X53533082Y16125138D01*
X53533082Y16125138D02*
X53914034Y16125138D01*
X53914034Y16125138D02*
X54104511Y16220376D01*
X54104511Y16220376D02*
X54199749Y16410853D01*
X54199749Y16410853D02*
X54199749Y16506091D01*
X54199749Y16506091D02*
X54104511Y16696567D01*
X54104511Y16696567D02*
X53914034Y16791805D01*
X53914034Y16791805D02*
X53628320Y16791805D01*
X53628320Y16791805D02*
X53437844Y16887043D01*
X53437844Y16887043D02*
X53342606Y17077519D01*
X53342606Y17077519D02*
X53342606Y17172757D01*
X53342606Y17172757D02*
X53437844Y17363234D01*
X53437844Y17363234D02*
X53628320Y17458472D01*
X53628320Y17458472D02*
X53914034Y17458472D01*
X53914034Y17458472D02*
X54104511Y17363234D01*
X55056892Y16125138D02*
X55056892Y17458472D01*
X55056892Y18125138D02*
X54961654Y18029900D01*
X54961654Y18029900D02*
X55056892Y17934662D01*
X55056892Y17934662D02*
X55152130Y18029900D01*
X55152130Y18029900D02*
X55056892Y18125138D01*
X55056892Y18125138D02*
X55056892Y17934662D01*
X56294987Y16125138D02*
X56104511Y16220376D01*
X56104511Y16220376D02*
X56009273Y16410853D01*
X56009273Y16410853D02*
X56009273Y18125138D01*
X57056892Y16125138D02*
X57056892Y18125138D01*
X57247368Y16887043D02*
X57818797Y16125138D01*
X57818797Y17458472D02*
X57056892Y16696567D01*
X60104512Y16220376D02*
X60294988Y16125138D01*
X60294988Y16125138D02*
X60675940Y16125138D01*
X60675940Y16125138D02*
X60866417Y16220376D01*
X60866417Y16220376D02*
X60961655Y16410853D01*
X60961655Y16410853D02*
X60961655Y16506091D01*
X60961655Y16506091D02*
X60866417Y16696567D01*
X60866417Y16696567D02*
X60675940Y16791805D01*
X60675940Y16791805D02*
X60390226Y16791805D01*
X60390226Y16791805D02*
X60199750Y16887043D01*
X60199750Y16887043D02*
X60104512Y17077519D01*
X60104512Y17077519D02*
X60104512Y17172757D01*
X60104512Y17172757D02*
X60199750Y17363234D01*
X60199750Y17363234D02*
X60390226Y17458472D01*
X60390226Y17458472D02*
X60675940Y17458472D01*
X60675940Y17458472D02*
X60866417Y17363234D01*
X62675941Y16220376D02*
X62485465Y16125138D01*
X62485465Y16125138D02*
X62104512Y16125138D01*
X62104512Y16125138D02*
X61914036Y16220376D01*
X61914036Y16220376D02*
X61818798Y16315615D01*
X61818798Y16315615D02*
X61723560Y16506091D01*
X61723560Y16506091D02*
X61723560Y17077519D01*
X61723560Y17077519D02*
X61818798Y17267996D01*
X61818798Y17267996D02*
X61914036Y17363234D01*
X61914036Y17363234D02*
X62104512Y17458472D01*
X62104512Y17458472D02*
X62485465Y17458472D01*
X62485465Y17458472D02*
X62675941Y17363234D01*
X63533084Y16125138D02*
X63533084Y17458472D01*
X63533084Y17077519D02*
X63628322Y17267996D01*
X63628322Y17267996D02*
X63723560Y17363234D01*
X63723560Y17363234D02*
X63914036Y17458472D01*
X63914036Y17458472D02*
X64104513Y17458472D01*
X65533084Y16220376D02*
X65342608Y16125138D01*
X65342608Y16125138D02*
X64961655Y16125138D01*
X64961655Y16125138D02*
X64771179Y16220376D01*
X64771179Y16220376D02*
X64675941Y16410853D01*
X64675941Y16410853D02*
X64675941Y17172757D01*
X64675941Y17172757D02*
X64771179Y17363234D01*
X64771179Y17363234D02*
X64961655Y17458472D01*
X64961655Y17458472D02*
X65342608Y17458472D01*
X65342608Y17458472D02*
X65533084Y17363234D01*
X65533084Y17363234D02*
X65628322Y17172757D01*
X65628322Y17172757D02*
X65628322Y16982281D01*
X65628322Y16982281D02*
X64675941Y16791805D01*
X67247370Y16220376D02*
X67056894Y16125138D01*
X67056894Y16125138D02*
X66675941Y16125138D01*
X66675941Y16125138D02*
X66485465Y16220376D01*
X66485465Y16220376D02*
X66390227Y16410853D01*
X66390227Y16410853D02*
X66390227Y17172757D01*
X66390227Y17172757D02*
X66485465Y17363234D01*
X66485465Y17363234D02*
X66675941Y17458472D01*
X66675941Y17458472D02*
X67056894Y17458472D01*
X67056894Y17458472D02*
X67247370Y17363234D01*
X67247370Y17363234D02*
X67342608Y17172757D01*
X67342608Y17172757D02*
X67342608Y16982281D01*
X67342608Y16982281D02*
X66390227Y16791805D01*
X68199751Y17458472D02*
X68199751Y16125138D01*
X68199751Y17267996D02*
X68294989Y17363234D01*
X68294989Y17363234D02*
X68485465Y17458472D01*
X68485465Y17458472D02*
X68771180Y17458472D01*
X68771180Y17458472D02*
X68961656Y17363234D01*
X68961656Y17363234D02*
X69056894Y17172757D01*
X69056894Y17172757D02*
X69056894Y16125138D01*
X71533085Y17458472D02*
X71533085Y15458472D01*
X71533085Y17363234D02*
X71723561Y17458472D01*
X71723561Y17458472D02*
X72104514Y17458472D01*
X72104514Y17458472D02*
X72294990Y17363234D01*
X72294990Y17363234D02*
X72390228Y17267996D01*
X72390228Y17267996D02*
X72485466Y17077519D01*
X72485466Y17077519D02*
X72485466Y16506091D01*
X72485466Y16506091D02*
X72390228Y16315615D01*
X72390228Y16315615D02*
X72294990Y16220376D01*
X72294990Y16220376D02*
X72104514Y16125138D01*
X72104514Y16125138D02*
X71723561Y16125138D01*
X71723561Y16125138D02*
X71533085Y16220376D01*
X73342609Y16125138D02*
X73342609Y17458472D01*
X73342609Y17077519D02*
X73437847Y17267996D01*
X73437847Y17267996D02*
X73533085Y17363234D01*
X73533085Y17363234D02*
X73723561Y17458472D01*
X73723561Y17458472D02*
X73914038Y17458472D01*
X74580704Y16125138D02*
X74580704Y17458472D01*
X74580704Y18125138D02*
X74485466Y18029900D01*
X74485466Y18029900D02*
X74580704Y17934662D01*
X74580704Y17934662D02*
X74675942Y18029900D01*
X74675942Y18029900D02*
X74580704Y18125138D01*
X74580704Y18125138D02*
X74580704Y17934662D01*
X75533085Y17458472D02*
X75533085Y16125138D01*
X75533085Y17267996D02*
X75628323Y17363234D01*
X75628323Y17363234D02*
X75818799Y17458472D01*
X75818799Y17458472D02*
X76104514Y17458472D01*
X76104514Y17458472D02*
X76294990Y17363234D01*
X76294990Y17363234D02*
X76390228Y17172757D01*
X76390228Y17172757D02*
X76390228Y16125138D01*
X77056895Y17458472D02*
X77818799Y17458472D01*
X77342609Y18125138D02*
X77342609Y16410853D01*
X77342609Y16410853D02*
X77437847Y16220376D01*
X77437847Y16220376D02*
X77628323Y16125138D01*
X77628323Y16125138D02*
X77818799Y16125138D01*
X78485466Y16125138D02*
X78485466Y17458472D01*
X78485466Y18125138D02*
X78390228Y18029900D01*
X78390228Y18029900D02*
X78485466Y17934662D01*
X78485466Y17934662D02*
X78580704Y18029900D01*
X78580704Y18029900D02*
X78485466Y18125138D01*
X78485466Y18125138D02*
X78485466Y17934662D01*
X79437847Y17458472D02*
X79437847Y16125138D01*
X79437847Y17267996D02*
X79533085Y17363234D01*
X79533085Y17363234D02*
X79723561Y17458472D01*
X79723561Y17458472D02*
X80009276Y17458472D01*
X80009276Y17458472D02*
X80199752Y17363234D01*
X80199752Y17363234D02*
X80294990Y17172757D01*
X80294990Y17172757D02*
X80294990Y16125138D01*
X82104514Y17458472D02*
X82104514Y15839424D01*
X82104514Y15839424D02*
X82009276Y15648948D01*
X82009276Y15648948D02*
X81914038Y15553710D01*
X81914038Y15553710D02*
X81723561Y15458472D01*
X81723561Y15458472D02*
X81437847Y15458472D01*
X81437847Y15458472D02*
X81247371Y15553710D01*
X82104514Y16220376D02*
X81914038Y16125138D01*
X81914038Y16125138D02*
X81533085Y16125138D01*
X81533085Y16125138D02*
X81342609Y16220376D01*
X81342609Y16220376D02*
X81247371Y16315615D01*
X81247371Y16315615D02*
X81152133Y16506091D01*
X81152133Y16506091D02*
X81152133Y17077519D01*
X81152133Y17077519D02*
X81247371Y17267996D01*
X81247371Y17267996D02*
X81342609Y17363234D01*
X81342609Y17363234D02*
X81533085Y17458472D01*
X81533085Y17458472D02*
X81914038Y17458472D01*
X81914038Y17458472D02*
X82104514Y17363234D01*
X47723558Y12905250D02*
X47723558Y14905250D01*
X47723558Y14905250D02*
X48866415Y12905250D01*
X48866415Y12905250D02*
X48866415Y14905250D01*
X50104510Y12905250D02*
X49914034Y13000488D01*
X49914034Y13000488D02*
X49818796Y13095727D01*
X49818796Y13095727D02*
X49723558Y13286203D01*
X49723558Y13286203D02*
X49723558Y13857631D01*
X49723558Y13857631D02*
X49818796Y14048108D01*
X49818796Y14048108D02*
X49914034Y14143346D01*
X49914034Y14143346D02*
X50104510Y14238584D01*
X50104510Y14238584D02*
X50390225Y14238584D01*
X50390225Y14238584D02*
X50580701Y14143346D01*
X50580701Y14143346D02*
X50675939Y14048108D01*
X50675939Y14048108D02*
X50771177Y13857631D01*
X50771177Y13857631D02*
X50771177Y13286203D01*
X50771177Y13286203D02*
X50675939Y13095727D01*
X50675939Y13095727D02*
X50580701Y13000488D01*
X50580701Y13000488D02*
X50390225Y12905250D01*
X50390225Y12905250D02*
X50104510Y12905250D01*
X51628320Y14238584D02*
X51628320Y12905250D01*
X51628320Y14048108D02*
X51723558Y14143346D01*
X51723558Y14143346D02*
X51914034Y14238584D01*
X51914034Y14238584D02*
X52199749Y14238584D01*
X52199749Y14238584D02*
X52390225Y14143346D01*
X52390225Y14143346D02*
X52485463Y13952869D01*
X52485463Y13952869D02*
X52485463Y12905250D01*
X54199749Y13000488D02*
X54009273Y12905250D01*
X54009273Y12905250D02*
X53628320Y12905250D01*
X53628320Y12905250D02*
X53437844Y13000488D01*
X53437844Y13000488D02*
X53342606Y13190965D01*
X53342606Y13190965D02*
X53342606Y13952869D01*
X53342606Y13952869D02*
X53437844Y14143346D01*
X53437844Y14143346D02*
X53628320Y14238584D01*
X53628320Y14238584D02*
X54009273Y14238584D01*
X54009273Y14238584D02*
X54199749Y14143346D01*
X54199749Y14143346D02*
X54294987Y13952869D01*
X54294987Y13952869D02*
X54294987Y13762393D01*
X54294987Y13762393D02*
X53342606Y13571917D01*
X55152130Y13095727D02*
X55247368Y13000488D01*
X55247368Y13000488D02*
X55152130Y12905250D01*
X55152130Y12905250D02*
X55056892Y13000488D01*
X55056892Y13000488D02*
X55152130Y13095727D01*
X55152130Y13095727D02*
X55152130Y12905250D01*
X55152130Y13667155D02*
X55056892Y14810012D01*
X55056892Y14810012D02*
X55152130Y14905250D01*
X55152130Y14905250D02*
X55247368Y14810012D01*
X55247368Y14810012D02*
X55152130Y13667155D01*
X55152130Y13667155D02*
X55152130Y14905250D01*
X57628321Y14238584D02*
X57628321Y12905250D01*
X57628321Y14048108D02*
X57723559Y14143346D01*
X57723559Y14143346D02*
X57914035Y14238584D01*
X57914035Y14238584D02*
X58199750Y14238584D01*
X58199750Y14238584D02*
X58390226Y14143346D01*
X58390226Y14143346D02*
X58485464Y13952869D01*
X58485464Y13952869D02*
X58485464Y12905250D01*
X59723559Y12905250D02*
X59533083Y13000488D01*
X59533083Y13000488D02*
X59437845Y13095727D01*
X59437845Y13095727D02*
X59342607Y13286203D01*
X59342607Y13286203D02*
X59342607Y13857631D01*
X59342607Y13857631D02*
X59437845Y14048108D01*
X59437845Y14048108D02*
X59533083Y14143346D01*
X59533083Y14143346D02*
X59723559Y14238584D01*
X59723559Y14238584D02*
X60009274Y14238584D01*
X60009274Y14238584D02*
X60199750Y14143346D01*
X60199750Y14143346D02*
X60294988Y14048108D01*
X60294988Y14048108D02*
X60390226Y13857631D01*
X60390226Y13857631D02*
X60390226Y13286203D01*
X60390226Y13286203D02*
X60294988Y13095727D01*
X60294988Y13095727D02*
X60199750Y13000488D01*
X60199750Y13000488D02*
X60009274Y12905250D01*
X60009274Y12905250D02*
X59723559Y12905250D01*
X62771179Y12905250D02*
X62771179Y14238584D01*
X62771179Y14048108D02*
X62866417Y14143346D01*
X62866417Y14143346D02*
X63056893Y14238584D01*
X63056893Y14238584D02*
X63342608Y14238584D01*
X63342608Y14238584D02*
X63533084Y14143346D01*
X63533084Y14143346D02*
X63628322Y13952869D01*
X63628322Y13952869D02*
X63628322Y12905250D01*
X63628322Y13952869D02*
X63723560Y14143346D01*
X63723560Y14143346D02*
X63914036Y14238584D01*
X63914036Y14238584D02*
X64199750Y14238584D01*
X64199750Y14238584D02*
X64390227Y14143346D01*
X64390227Y14143346D02*
X64485465Y13952869D01*
X64485465Y13952869D02*
X64485465Y12905250D01*
X66294989Y12905250D02*
X66294989Y13952869D01*
X66294989Y13952869D02*
X66199751Y14143346D01*
X66199751Y14143346D02*
X66009275Y14238584D01*
X66009275Y14238584D02*
X65628322Y14238584D01*
X65628322Y14238584D02*
X65437846Y14143346D01*
X66294989Y13000488D02*
X66104513Y12905250D01*
X66104513Y12905250D02*
X65628322Y12905250D01*
X65628322Y12905250D02*
X65437846Y13000488D01*
X65437846Y13000488D02*
X65342608Y13190965D01*
X65342608Y13190965D02*
X65342608Y13381441D01*
X65342608Y13381441D02*
X65437846Y13571917D01*
X65437846Y13571917D02*
X65628322Y13667155D01*
X65628322Y13667155D02*
X66104513Y13667155D01*
X66104513Y13667155D02*
X66294989Y13762393D01*
X67247370Y12905250D02*
X67247370Y14238584D01*
X67247370Y13857631D02*
X67342608Y14048108D01*
X67342608Y14048108D02*
X67437846Y14143346D01*
X67437846Y14143346D02*
X67628322Y14238584D01*
X67628322Y14238584D02*
X67818799Y14238584D01*
X68485465Y12905250D02*
X68485465Y14905250D01*
X68675941Y13667155D02*
X69247370Y12905250D01*
X69247370Y14238584D02*
X68485465Y13476679D01*
X70104513Y12905250D02*
X70104513Y14238584D01*
X70104513Y14905250D02*
X70009275Y14810012D01*
X70009275Y14810012D02*
X70104513Y14714774D01*
X70104513Y14714774D02*
X70199751Y14810012D01*
X70199751Y14810012D02*
X70104513Y14905250D01*
X70104513Y14905250D02*
X70104513Y14714774D01*
X71056894Y14238584D02*
X71056894Y12905250D01*
X71056894Y14048108D02*
X71152132Y14143346D01*
X71152132Y14143346D02*
X71342608Y14238584D01*
X71342608Y14238584D02*
X71628323Y14238584D01*
X71628323Y14238584D02*
X71818799Y14143346D01*
X71818799Y14143346D02*
X71914037Y13952869D01*
X71914037Y13952869D02*
X71914037Y12905250D01*
X73723561Y14238584D02*
X73723561Y12619536D01*
X73723561Y12619536D02*
X73628323Y12429060D01*
X73628323Y12429060D02*
X73533085Y12333822D01*
X73533085Y12333822D02*
X73342608Y12238584D01*
X73342608Y12238584D02*
X73056894Y12238584D01*
X73056894Y12238584D02*
X72866418Y12333822D01*
X73723561Y13000488D02*
X73533085Y12905250D01*
X73533085Y12905250D02*
X73152132Y12905250D01*
X73152132Y12905250D02*
X72961656Y13000488D01*
X72961656Y13000488D02*
X72866418Y13095727D01*
X72866418Y13095727D02*
X72771180Y13286203D01*
X72771180Y13286203D02*
X72771180Y13857631D01*
X72771180Y13857631D02*
X72866418Y14048108D01*
X72866418Y14048108D02*
X72961656Y14143346D01*
X72961656Y14143346D02*
X73152132Y14238584D01*
X73152132Y14238584D02*
X73533085Y14238584D01*
X73533085Y14238584D02*
X73723561Y14143346D01*
X76485466Y12905250D02*
X76294990Y13000488D01*
X76294990Y13000488D02*
X76199752Y13095727D01*
X76199752Y13095727D02*
X76104514Y13286203D01*
X76104514Y13286203D02*
X76104514Y13857631D01*
X76104514Y13857631D02*
X76199752Y14048108D01*
X76199752Y14048108D02*
X76294990Y14143346D01*
X76294990Y14143346D02*
X76485466Y14238584D01*
X76485466Y14238584D02*
X76771181Y14238584D01*
X76771181Y14238584D02*
X76961657Y14143346D01*
X76961657Y14143346D02*
X77056895Y14048108D01*
X77056895Y14048108D02*
X77152133Y13857631D01*
X77152133Y13857631D02*
X77152133Y13286203D01*
X77152133Y13286203D02*
X77056895Y13095727D01*
X77056895Y13095727D02*
X76961657Y13000488D01*
X76961657Y13000488D02*
X76771181Y12905250D01*
X76771181Y12905250D02*
X76485466Y12905250D01*
X78009276Y14238584D02*
X78009276Y12905250D01*
X78009276Y14048108D02*
X78104514Y14143346D01*
X78104514Y14143346D02*
X78294990Y14238584D01*
X78294990Y14238584D02*
X78580705Y14238584D01*
X78580705Y14238584D02*
X78771181Y14143346D01*
X78771181Y14143346D02*
X78866419Y13952869D01*
X78866419Y13952869D02*
X78866419Y12905250D01*
X81247372Y13000488D02*
X81437848Y12905250D01*
X81437848Y12905250D02*
X81818800Y12905250D01*
X81818800Y12905250D02*
X82009277Y13000488D01*
X82009277Y13000488D02*
X82104515Y13190965D01*
X82104515Y13190965D02*
X82104515Y13286203D01*
X82104515Y13286203D02*
X82009277Y13476679D01*
X82009277Y13476679D02*
X81818800Y13571917D01*
X81818800Y13571917D02*
X81533086Y13571917D01*
X81533086Y13571917D02*
X81342610Y13667155D01*
X81342610Y13667155D02*
X81247372Y13857631D01*
X81247372Y13857631D02*
X81247372Y13952869D01*
X81247372Y13952869D02*
X81342610Y14143346D01*
X81342610Y14143346D02*
X81533086Y14238584D01*
X81533086Y14238584D02*
X81818800Y14238584D01*
X81818800Y14238584D02*
X82009277Y14143346D01*
X82961658Y12905250D02*
X82961658Y14238584D01*
X82961658Y14905250D02*
X82866420Y14810012D01*
X82866420Y14810012D02*
X82961658Y14714774D01*
X82961658Y14714774D02*
X83056896Y14810012D01*
X83056896Y14810012D02*
X82961658Y14905250D01*
X82961658Y14905250D02*
X82961658Y14714774D01*
X84199753Y12905250D02*
X84009277Y13000488D01*
X84009277Y13000488D02*
X83914039Y13190965D01*
X83914039Y13190965D02*
X83914039Y14905250D01*
X84961658Y12905250D02*
X84961658Y14905250D01*
X85152134Y13667155D02*
X85723563Y12905250D01*
X85723563Y14238584D02*
X84961658Y13476679D01*
X86675944Y13000488D02*
X86675944Y12905250D01*
X86675944Y12905250D02*
X86580706Y12714774D01*
X86580706Y12714774D02*
X86485468Y12619536D01*
X47437844Y11018696D02*
X48199748Y11018696D01*
X47723558Y11685362D02*
X47723558Y9971077D01*
X47723558Y9971077D02*
X47818796Y9780600D01*
X47818796Y9780600D02*
X48009272Y9685362D01*
X48009272Y9685362D02*
X48199748Y9685362D01*
X49152129Y9685362D02*
X48961653Y9780600D01*
X48961653Y9780600D02*
X48866415Y9875839D01*
X48866415Y9875839D02*
X48771177Y10066315D01*
X48771177Y10066315D02*
X48771177Y10637743D01*
X48771177Y10637743D02*
X48866415Y10828220D01*
X48866415Y10828220D02*
X48961653Y10923458D01*
X48961653Y10923458D02*
X49152129Y11018696D01*
X49152129Y11018696D02*
X49437844Y11018696D01*
X49437844Y11018696D02*
X49628320Y10923458D01*
X49628320Y10923458D02*
X49723558Y10828220D01*
X49723558Y10828220D02*
X49818796Y10637743D01*
X49818796Y10637743D02*
X49818796Y10066315D01*
X49818796Y10066315D02*
X49723558Y9875839D01*
X49723558Y9875839D02*
X49628320Y9780600D01*
X49628320Y9780600D02*
X49437844Y9685362D01*
X49437844Y9685362D02*
X49152129Y9685362D01*
X50675939Y11018696D02*
X50675939Y9018696D01*
X50675939Y10923458D02*
X50866415Y11018696D01*
X50866415Y11018696D02*
X51247368Y11018696D01*
X51247368Y11018696D02*
X51437844Y10923458D01*
X51437844Y10923458D02*
X51533082Y10828220D01*
X51533082Y10828220D02*
X51628320Y10637743D01*
X51628320Y10637743D02*
X51628320Y10066315D01*
X51628320Y10066315D02*
X51533082Y9875839D01*
X51533082Y9875839D02*
X51437844Y9780600D01*
X51437844Y9780600D02*
X51247368Y9685362D01*
X51247368Y9685362D02*
X50866415Y9685362D01*
X50866415Y9685362D02*
X50675939Y9780600D01*
X54294987Y9685362D02*
X54104511Y9780600D01*
X54104511Y9780600D02*
X54009273Y9875839D01*
X54009273Y9875839D02*
X53914035Y10066315D01*
X53914035Y10066315D02*
X53914035Y10637743D01*
X53914035Y10637743D02*
X54009273Y10828220D01*
X54009273Y10828220D02*
X54104511Y10923458D01*
X54104511Y10923458D02*
X54294987Y11018696D01*
X54294987Y11018696D02*
X54580702Y11018696D01*
X54580702Y11018696D02*
X54771178Y10923458D01*
X54771178Y10923458D02*
X54866416Y10828220D01*
X54866416Y10828220D02*
X54961654Y10637743D01*
X54961654Y10637743D02*
X54961654Y10066315D01*
X54961654Y10066315D02*
X54866416Y9875839D01*
X54866416Y9875839D02*
X54771178Y9780600D01*
X54771178Y9780600D02*
X54580702Y9685362D01*
X54580702Y9685362D02*
X54294987Y9685362D01*
X55818797Y9685362D02*
X55818797Y11018696D01*
X55818797Y10637743D02*
X55914035Y10828220D01*
X55914035Y10828220D02*
X56009273Y10923458D01*
X56009273Y10923458D02*
X56199749Y11018696D01*
X56199749Y11018696D02*
X56390226Y11018696D01*
X58580702Y9685362D02*
X58580702Y11685362D01*
X58580702Y10923458D02*
X58771178Y11018696D01*
X58771178Y11018696D02*
X59152131Y11018696D01*
X59152131Y11018696D02*
X59342607Y10923458D01*
X59342607Y10923458D02*
X59437845Y10828220D01*
X59437845Y10828220D02*
X59533083Y10637743D01*
X59533083Y10637743D02*
X59533083Y10066315D01*
X59533083Y10066315D02*
X59437845Y9875839D01*
X59437845Y9875839D02*
X59342607Y9780600D01*
X59342607Y9780600D02*
X59152131Y9685362D01*
X59152131Y9685362D02*
X58771178Y9685362D01*
X58771178Y9685362D02*
X58580702Y9780600D01*
X60675940Y9685362D02*
X60485464Y9780600D01*
X60485464Y9780600D02*
X60390226Y9875839D01*
X60390226Y9875839D02*
X60294988Y10066315D01*
X60294988Y10066315D02*
X60294988Y10637743D01*
X60294988Y10637743D02*
X60390226Y10828220D01*
X60390226Y10828220D02*
X60485464Y10923458D01*
X60485464Y10923458D02*
X60675940Y11018696D01*
X60675940Y11018696D02*
X60961655Y11018696D01*
X60961655Y11018696D02*
X61152131Y10923458D01*
X61152131Y10923458D02*
X61247369Y10828220D01*
X61247369Y10828220D02*
X61342607Y10637743D01*
X61342607Y10637743D02*
X61342607Y10066315D01*
X61342607Y10066315D02*
X61247369Y9875839D01*
X61247369Y9875839D02*
X61152131Y9780600D01*
X61152131Y9780600D02*
X60961655Y9685362D01*
X60961655Y9685362D02*
X60675940Y9685362D01*
X61914036Y11018696D02*
X62675940Y11018696D01*
X62199750Y11685362D02*
X62199750Y9971077D01*
X62199750Y9971077D02*
X62294988Y9780600D01*
X62294988Y9780600D02*
X62485464Y9685362D01*
X62485464Y9685362D02*
X62675940Y9685362D01*
X63056893Y11018696D02*
X63818797Y11018696D01*
X63342607Y11685362D02*
X63342607Y9971077D01*
X63342607Y9971077D02*
X63437845Y9780600D01*
X63437845Y9780600D02*
X63628321Y9685362D01*
X63628321Y9685362D02*
X63818797Y9685362D01*
X64771178Y9685362D02*
X64580702Y9780600D01*
X64580702Y9780600D02*
X64485464Y9875839D01*
X64485464Y9875839D02*
X64390226Y10066315D01*
X64390226Y10066315D02*
X64390226Y10637743D01*
X64390226Y10637743D02*
X64485464Y10828220D01*
X64485464Y10828220D02*
X64580702Y10923458D01*
X64580702Y10923458D02*
X64771178Y11018696D01*
X64771178Y11018696D02*
X65056893Y11018696D01*
X65056893Y11018696D02*
X65247369Y10923458D01*
X65247369Y10923458D02*
X65342607Y10828220D01*
X65342607Y10828220D02*
X65437845Y10637743D01*
X65437845Y10637743D02*
X65437845Y10066315D01*
X65437845Y10066315D02*
X65342607Y9875839D01*
X65342607Y9875839D02*
X65247369Y9780600D01*
X65247369Y9780600D02*
X65056893Y9685362D01*
X65056893Y9685362D02*
X64771178Y9685362D01*
X66294988Y9685362D02*
X66294988Y11018696D01*
X66294988Y10828220D02*
X66390226Y10923458D01*
X66390226Y10923458D02*
X66580702Y11018696D01*
X66580702Y11018696D02*
X66866417Y11018696D01*
X66866417Y11018696D02*
X67056893Y10923458D01*
X67056893Y10923458D02*
X67152131Y10732981D01*
X67152131Y10732981D02*
X67152131Y9685362D01*
X67152131Y10732981D02*
X67247369Y10923458D01*
X67247369Y10923458D02*
X67437845Y11018696D01*
X67437845Y11018696D02*
X67723559Y11018696D01*
X67723559Y11018696D02*
X67914036Y10923458D01*
X67914036Y10923458D02*
X68009274Y10732981D01*
X68009274Y10732981D02*
X68009274Y9685362D01*
M02*
