M48
; DRILL file {KiCad 9.0.1-9.0.1-0~ubuntu22.04.1} date 2025-04-13T11:09:10-0400
; FORMAT={-:-/ absolute / metric / decimal}
; #@! TF.CreationDate,2025-04-13T11:09:10-04:00
; #@! TF.GenerationSoftware,Kicad,Pcbnew,9.0.1-9.0.1-0~ubuntu22.04.1
; #@! TF.FileFunction,Plated,1,4,PTH
FMAT,2
METRIC
; #@! TA.AperFunction,Plated,PTH,ViaDrill
T1C0.300
; #@! TA.AperFunction,Plated,PTH,ComponentDrill
T2C0.300
; #@! TA.AperFunction,Plated,PTH,ViaDrill
T3C0.400
; #@! TA.AperFunction,Plated,PTH,ComponentDrill
T4C0.650
; #@! TA.AperFunction,Plated,PTH,ComponentDrill
T5C0.762
; #@! TA.AperFunction,Plated,PTH,ComponentDrill
T6C1.000
; #@! TA.AperFunction,Plated,PTH,ComponentDrill
T7C2.000
%
G90
G05
T1
X1.3Y15.8
X1.326Y12.8
X2.25Y23.5
X2.725Y9.244
X3.177Y20.263
X3.3Y21.2
X3.6Y6.2
X4.05Y7.45
X4.275Y12.728
X4.275Y10.719
X4.5Y20.57
X4.947Y16.414
X5.081Y13.128
X5.3Y4.7
X5.871Y24.441
X5.891Y8.49
X6.175Y7.077
X6.6Y15.0
X6.6Y4.4
X6.75Y6.25
X6.786Y15.819
X6.855Y13.5
X6.95Y18.95
X7.446Y23.453
X7.6Y0.825
X7.806Y22.717
X7.974Y11.793
X8.104Y8.891
X8.2Y3.906
X8.3Y26.1
X8.387Y9.74
X8.672Y22.592
X9.0Y4.6
X9.476Y5.472
X9.608Y7.756
X9.75Y2.2
X9.997Y18.505
X10.114Y21.824
X10.15Y19.805
X10.181Y2.9
X10.453Y23.548
X10.458Y7.549
X10.55Y10.0
X10.6Y11.75
X10.9Y1.451
X11.123Y18.9
X11.262Y18.024
X11.35Y8.05
X11.6Y2.9
X11.97Y12.4
X12.1Y0.825
X12.186Y7.848
X12.25Y11.55
X12.3Y9.0
X12.406Y24.155
X12.536Y15.679
X12.7Y16.5
X12.725Y17.689
X12.874Y4.225
X13.062Y7.806
X13.142Y2.75
X13.186Y11.799
X13.349Y17.144
X13.85Y6.55
X13.988Y2.834
X14.5Y14.4
X14.616Y15.818
X14.675Y3.334
X14.68Y16.636
X14.8Y27.2
X14.8Y13.6
X14.95Y21.1
X15.186Y12.106
X15.5Y5.25
X15.75Y6.6
X15.765Y12.911
X15.85Y22.15
X16.3Y5.8
X16.392Y11.451
X17.1Y15.3
X17.3Y25.5
X18.7Y11.175
X18.8Y5.65
X19.2Y18.0
X19.3Y16.0
X19.611Y10.667
X20.0Y16.7
X20.068Y5.63
X20.6Y25.8
X20.937Y6.137
X21.694Y6.75
X22.506Y3.145
X22.712Y12.459
X22.8Y7.6
X23.3Y2.7
X23.75Y5.8
X23.95Y12.462
X23.972Y1.851
X24.65Y9.35
X24.8Y7.85
X24.892Y14.272
X25.1Y8.6
X25.7Y14.8
X26.1Y9.5
X26.15Y13.529
X26.225Y6.811
X26.55Y16.55
X26.703Y3.85
X27.2Y24.5
X27.425Y9.507
X27.905Y17.975
X28.3Y11.1
X28.575Y6.875
X28.6Y3.9
X28.661Y16.639
X29.353Y15.35
X30.0Y11.1
X30.0Y3.875
X30.091Y13.503
X30.1Y1.0
X30.2Y6.8
X30.723Y14.765
X30.741Y11.96
X30.75Y8.8
X30.8Y22.2
X30.801Y12.853
X31.367Y15.319
X31.6Y10.1
X31.671Y14.02
X31.7Y11.7
X31.8Y22.2
X31.9Y7.7
X31.928Y17.438
X31.998Y15.889
X32.579Y3.126
X32.8Y22.2
X32.8Y4.0
X33.0Y17.8
X33.3Y0.825
X33.36Y24.9
X33.8Y7.0
X33.9Y22.2
X34.523Y24.398
X35.0Y15.2
X35.05Y10.1
X35.235Y24.025
X35.3Y7.3
X35.98Y23.701
X36.39Y21.75
X36.65Y6.938
X36.8Y0.825
X37.259Y21.815
X37.558Y20.434
X37.6Y12.65
X37.987Y19.7
X38.046Y7.228
X38.543Y19.058
X38.85Y15.2
X38.85Y10.1
X39.054Y18.378
X39.1Y6.4
X39.3Y25.7
X39.35Y21.1
X39.5Y0.825
X40.2Y20.3
X40.33Y7.2
X40.775Y19.5
X41.075Y18.564
X41.351Y4.6
X41.623Y22.927
X41.75Y8.25
X41.8Y2.124
X42.0Y23.7
X42.011Y25.813
X42.376Y1.5
X42.5Y17.1
X42.7Y19.2
X43.034Y2.829
X43.3Y14.5
X43.3Y11.9
X43.3Y11.3
X43.462Y20.1
X43.7Y0.8
X43.724Y15.0
X43.724Y13.91
X43.998Y5.042
X44.175Y25.45
X44.2Y5.867
T2
X1.6Y27.25
X1.85Y1.6
X3.85Y3.05
X4.75Y17.9
X6.65Y1.6
X7.65Y28.05
X8.8Y3.15
X8.8Y1.5
X19.5Y24.6
X19.5Y22.25
X20.15Y18.0
X22.05Y27.35
X22.1Y29.1
X25.55Y15.85
X26.4Y22.3
X26.4Y18.0
X29.1Y25.45
X29.2Y29.05
X29.2Y27.4
X36.5Y24.65
X38.75Y24.65
T3
X1.0Y26.0
X2.0Y26.0
X2.9Y1.0
X4.0Y29.0
X4.1Y16.9
X5.0Y29.1
X6.7Y17.45
X6.748Y25.55
X7.21Y20.671
X9.484Y25.55
X10.422Y20.94
X10.505Y25.55
X11.0Y28.1
X12.0Y28.25
X13.5Y27.5
X13.795Y21.006
X14.25Y25.55
X16.305Y9.526
X28.062Y22.3
X28.6Y0.9
X32.4Y25.55
X33.25Y28.25
X34.75Y29.1
X37.4Y25.6
X37.85Y22.591
X39.75Y27.5
X40.0Y29.1
X41.9Y29.1
X42.164Y21.741
T4
X1.75Y7.79
X1.75Y6.52
X1.75Y5.25
X15.75Y25.5
X15.75Y24.23
X37.39Y3.6
X38.66Y3.6
X39.93Y3.6
X41.2Y3.6
T5
X0.0Y27.0
X0.0Y19.0
X0.0Y11.0
X0.0Y3.0
X45.0Y27.0
X45.0Y19.0
X45.0Y11.0
X45.0Y3.0
T6
X16.035Y28.5
X18.575Y28.5
T7
X22.5Y15.0
M30
