G04 #@! TF.GenerationSoftware,KiCad,Pcbnew,9.0.1-9.0.1-0~ubuntu22.04.1*
G04 #@! TF.CreationDate,2025-04-13T11:09:06-04:00*
G04 #@! TF.ProjectId,TTExperimentModule,54544578-7065-4726-996d-656e744d6f64,1.0*
G04 #@! TF.SameCoordinates,PX10e4380PY2d07198*
G04 #@! TF.FileFunction,Copper,L2,Inr*
G04 #@! TF.FilePolarity,Positive*
%FSLAX46Y46*%
G04 Gerber Fmt 4.6, Leading zero omitted, Abs format (unit mm)*
G04 Created by KiCad (PCBNEW 9.0.1-9.0.1-0~ubuntu22.04.1) date 2025-04-13 11:09:06*
%MOMM*%
%LPD*%
G01*
G04 APERTURE LIST*
%ADD10C,0.200000*%
G04 #@! TA.AperFunction,NonConductor*
%ADD11C,0.200000*%
G04 #@! TD*
G04 #@! TA.AperFunction,ComponentPad*
%ADD12C,0.620000*%
G04 #@! TD*
G04 #@! TA.AperFunction,ComponentPad*
%ADD13R,1.000000X1.000000*%
G04 #@! TD*
G04 #@! TA.AperFunction,ComponentPad*
%ADD14C,1.000000*%
G04 #@! TD*
G04 #@! TA.AperFunction,ComponentPad*
%ADD15C,1.524000*%
G04 #@! TD*
G04 #@! TA.AperFunction,ComponentPad*
%ADD16C,4.000000*%
G04 #@! TD*
G04 #@! TA.AperFunction,ComponentPad*
%ADD17R,1.700000X1.700000*%
G04 #@! TD*
G04 #@! TA.AperFunction,ComponentPad*
%ADD18C,1.700000*%
G04 #@! TD*
G04 #@! TA.AperFunction,ComponentPad*
%ADD19O,1.000000X1.000000*%
G04 #@! TD*
G04 #@! TA.AperFunction,ViaPad*
%ADD20C,0.800000*%
G04 #@! TD*
G04 #@! TA.AperFunction,ViaPad*
%ADD21C,0.650000*%
G04 #@! TD*
G04 #@! TA.AperFunction,ViaPad*
%ADD22C,0.600000*%
G04 #@! TD*
G04 #@! TA.AperFunction,Conductor*
%ADD23C,0.250000*%
G04 #@! TD*
G04 #@! TA.AperFunction,Conductor*
%ADD24C,0.200000*%
G04 #@! TD*
G04 APERTURE END LIST*
D10*
D11*
X35283958Y-2167885D02*
X35322054Y-2129790D01*
X35322054Y-2129790D02*
X35398244Y-2091695D01*
X35398244Y-2091695D02*
X35588720Y-2091695D01*
X35588720Y-2091695D02*
X35664911Y-2129790D01*
X35664911Y-2129790D02*
X35703006Y-2167885D01*
X35703006Y-2167885D02*
X35741101Y-2244076D01*
X35741101Y-2244076D02*
X35741101Y-2320266D01*
X35741101Y-2320266D02*
X35703006Y-2434552D01*
X35703006Y-2434552D02*
X35245863Y-2891695D01*
X35245863Y-2891695D02*
X35741101Y-2891695D01*
D12*
G04 #@! TO.N,GND*
G04 #@! TO.C,STITCH1*
X29100000Y25450000D03*
G04 #@! TD*
D13*
G04 #@! TO.N,GND*
G04 #@! TO.C,J5*
X41200000Y3600000D03*
D14*
G04 #@! TO.N,/~{ctrl_sel_rst}*
X39930000Y3600000D03*
G04 #@! TO.N,/ctrl_sel_inc*
X38660000Y3600000D03*
G04 #@! TO.N,/ctrl_ena*
X37390000Y3600000D03*
G04 #@! TD*
D12*
G04 #@! TO.N,GND*
G04 #@! TO.C,STITCH1*
X29200000Y27400000D03*
G04 #@! TD*
G04 #@! TO.N,GND*
G04 #@! TO.C,STITCH1*
X20150000Y18000000D03*
G04 #@! TD*
G04 #@! TO.N,GND*
G04 #@! TO.C,STITCH1*
X4750000Y17900000D03*
G04 #@! TD*
G04 #@! TO.N,GND*
G04 #@! TO.C,STITCH1*
X3850000Y3050000D03*
G04 #@! TD*
D15*
G04 #@! TO.N,/vin1*
G04 #@! TO.C,PCB1*
X0Y27000000D03*
G04 #@! TO.N,SCL1*
X0Y19000000D03*
G04 #@! TO.N,SDA1*
X0Y11000000D03*
G04 #@! TO.N,GND*
X0Y3000000D03*
X45000000Y3000000D03*
G04 #@! TO.N,unconnected-(PCB1-SDA-Pad6)*
X45000000Y11000000D03*
G04 #@! TO.N,unconnected-(PCB1-SCL-Pad7)*
X45000000Y19000000D03*
G04 #@! TO.N,/vin2*
X45000000Y27000000D03*
D16*
G04 #@! TO.N,GND*
X22500000Y15000000D03*
G04 #@! TD*
D12*
G04 #@! TO.N,GND*
G04 #@! TO.C,STITCH1*
X19500000Y24600000D03*
G04 #@! TD*
D17*
G04 #@! TO.N,boot_mode*
G04 #@! TO.C,J2*
X18575000Y28500000D03*
D18*
G04 #@! TO.N,Net-(J2-Pin_2)*
X16035000Y28500000D03*
G04 #@! TD*
D12*
G04 #@! TO.N,GND*
G04 #@! TO.C,STITCH1*
X22050000Y27350000D03*
G04 #@! TD*
G04 #@! TO.N,GND*
G04 #@! TO.C,STITCH1*
X6650000Y1600000D03*
G04 #@! TD*
G04 #@! TO.N,GND*
G04 #@! TO.C,STITCH1*
X1600000Y27250000D03*
G04 #@! TD*
G04 #@! TO.N,GND*
G04 #@! TO.C,STITCH1*
X36500000Y24650000D03*
G04 #@! TD*
G04 #@! TO.N,GND*
G04 #@! TO.C,STITCH1*
X26400000Y18000000D03*
G04 #@! TD*
D13*
G04 #@! TO.N,GND*
G04 #@! TO.C,J6*
X15750000Y25500000D03*
D19*
G04 #@! TO.N,/RP2040/RUN*
X15750000Y24230000D03*
G04 #@! TD*
D12*
G04 #@! TO.N,GND*
G04 #@! TO.C,STITCH1*
X29200000Y29050000D03*
G04 #@! TD*
G04 #@! TO.N,GND*
G04 #@! TO.C,STITCH1*
X19500000Y22250000D03*
G04 #@! TD*
G04 #@! TO.N,GND*
G04 #@! TO.C,STITCH1*
X25550000Y15850000D03*
G04 #@! TD*
G04 #@! TO.N,GND*
G04 #@! TO.C,STITCH1*
X7650000Y28050000D03*
G04 #@! TD*
G04 #@! TO.N,GND*
G04 #@! TO.C,STITCH1*
X1850000Y1600000D03*
G04 #@! TD*
G04 #@! TO.N,GND*
G04 #@! TO.C,STITCH1*
X22100000Y29100000D03*
G04 #@! TD*
G04 #@! TO.N,GND*
G04 #@! TO.C,STITCH1*
X8800000Y3150000D03*
G04 #@! TD*
G04 #@! TO.N,GND*
G04 #@! TO.C,STITCH1*
X38750000Y24650000D03*
G04 #@! TD*
G04 #@! TO.N,GND*
G04 #@! TO.C,STITCH1*
X8800000Y1500000D03*
G04 #@! TD*
D13*
G04 #@! TO.N,GND*
G04 #@! TO.C,J1*
X1750000Y5250000D03*
D14*
G04 #@! TO.N,SDA1*
X1750000Y6520000D03*
G04 #@! TO.N,SCL1*
X1750000Y7790000D03*
G04 #@! TD*
D12*
G04 #@! TO.N,GND*
G04 #@! TO.C,STITCH1*
X26400000Y22300000D03*
G04 #@! TD*
D20*
G04 #@! TO.N,+3V3*
X2900000Y1000000D03*
X28600000Y900000D03*
X13795409Y21006071D03*
X14250000Y25550000D03*
D21*
X3300000Y21200000D03*
X18700000Y11175000D03*
X32800000Y4000000D03*
X1300000Y15800000D03*
X28300000Y11100000D03*
X1326000Y12800000D03*
X12100000Y825000D03*
X4500000Y20570000D03*
X27904972Y17975000D03*
D20*
X1000000Y26000000D03*
D21*
X31927578Y17438083D03*
X28575000Y6874912D03*
D20*
X10421899Y20939701D03*
D21*
X6600000Y15000000D03*
X26225000Y6810969D03*
X20600000Y25800000D03*
X5081491Y13127756D03*
D20*
X7210000Y20670605D03*
D21*
X28600000Y3900000D03*
X30200000Y6800000D03*
D20*
X37850000Y22591034D03*
X28061835Y22300000D03*
X2000000Y26000000D03*
D21*
X7600000Y825000D03*
D22*
X12536115Y15679237D03*
D21*
G04 #@! TO.N,GND*
X43300000Y11900000D03*
X42010677Y25812535D03*
X32800000Y22200000D03*
X12300000Y9000000D03*
X44175000Y25450000D03*
X33300000Y825000D03*
D22*
X20068203Y5630254D03*
D20*
X5000000Y29100000D03*
D22*
X6786118Y15818990D03*
D21*
X39100000Y6400000D03*
X11600000Y2900000D03*
D20*
X34750000Y29100000D03*
D21*
X13850000Y6550000D03*
X42700000Y19200000D03*
X37600000Y12650000D03*
D20*
X40000000Y29100000D03*
X33250000Y28250000D03*
D21*
X33360148Y24900000D03*
X16300000Y5800000D03*
X33900000Y22200000D03*
X35000000Y15200000D03*
X35050000Y10100000D03*
D22*
X18800000Y5650000D03*
D21*
X42000000Y23700000D03*
X14500000Y14400000D03*
X38850000Y10100000D03*
X16391702Y11451362D03*
X30000000Y3875000D03*
X14800000Y27200000D03*
X39500000Y825000D03*
X28660670Y16639330D03*
X35300000Y7300000D03*
X11350000Y8050000D03*
D22*
X12700000Y16500000D03*
D21*
X12250000Y11550000D03*
D20*
X16304712Y9526362D03*
D21*
X43300000Y11300000D03*
X6600000Y4400000D03*
D20*
X4000000Y29000000D03*
D21*
X32578971Y3126220D03*
X17100000Y15300000D03*
X10600000Y11750000D03*
X10550000Y10000000D03*
D20*
X41900000Y29100000D03*
D21*
X38850000Y15200000D03*
X4275000Y10718591D03*
D20*
X39750000Y27500000D03*
D21*
X31600000Y10100000D03*
X4275000Y12728285D03*
X36650000Y6937919D03*
X3176811Y20262528D03*
X5300000Y4700000D03*
D20*
X12000000Y28250000D03*
D21*
X17300000Y25500000D03*
X30800000Y22200000D03*
X36800000Y825000D03*
X30000000Y11100000D03*
D20*
X11000000Y28100000D03*
X10505000Y25550000D03*
D21*
X43300000Y14500000D03*
X31900000Y7700000D03*
X43724000Y15000000D03*
X43724000Y13909571D03*
D20*
X13500000Y27500000D03*
D22*
X19610573Y10667008D03*
D20*
G04 #@! TO.N,+5V*
X6748140Y25550000D03*
X9484139Y25550000D03*
X6700000Y17450000D03*
X4100000Y16900000D03*
D21*
G04 #@! TO.N,/ASIC/vdda_all*
X40330000Y7200000D03*
X43462500Y20100000D03*
X31700000Y11700000D03*
X33000000Y17800000D03*
X40775000Y19500000D03*
D22*
G04 #@! TO.N,/ASIC/vccd_all*
X33800000Y7000000D03*
D21*
X31800000Y22200000D03*
D20*
X37400000Y25600000D03*
D21*
X37259365Y21815289D03*
D20*
X32400000Y25550000D03*
X42163801Y21741039D03*
D21*
G04 #@! TO.N,/RP2040/DVDD*
X6855000Y13500000D03*
X7974207Y11793360D03*
X14800000Y13600000D03*
G04 #@! TO.N,SCL1*
X9607757Y7756000D03*
G04 #@! TO.N,SDA1*
X9476500Y5471952D03*
G04 #@! TO.N,boot_mode*
X19200000Y18000000D03*
X3600000Y6200000D03*
X12725000Y17689227D03*
X4946557Y16414302D03*
D22*
X6750000Y6250000D03*
G04 #@! TO.N,/RP2040/RUN*
X13186115Y11798518D03*
X15850000Y22150000D03*
D21*
G04 #@! TO.N,/~{ctrl_sel_rst}*
X30750000Y8800000D03*
X38046002Y7228467D03*
X26100000Y9500000D03*
X27425000Y9507229D03*
G04 #@! TO.N,/ctrl_sel_inc*
X23300000Y2700000D03*
D22*
G04 #@! TO.N,/mux_sel*
X24800000Y7850000D03*
X10457804Y7548516D03*
D21*
G04 #@! TO.N,/RP2040/QSPI_SD2*
X5871117Y24441060D03*
X5891242Y8490000D03*
X12405679Y24155000D03*
G04 #@! TO.N,/RP2040/QSPI_SD3*
X8387498Y9740361D03*
X6950000Y18950000D03*
G04 #@! TO.N,/RP2040/QSPI_SD0*
X8103854Y8890601D03*
X2725000Y9244202D03*
G04 #@! TO.N,/RP2040/QSPI_SD1*
X10453156Y23548126D03*
X2250000Y23500000D03*
X4050000Y7450000D03*
X6174518Y7076541D03*
D22*
G04 #@! TO.N,/ui_in0*
X12874043Y4225000D03*
X41351000Y4600000D03*
D21*
G04 #@! TO.N,/proj_clk*
X41623017Y22926742D03*
X8200000Y3905514D03*
X8672385Y22591766D03*
D22*
X41075000Y18564279D03*
D21*
G04 #@! TO.N,/~{proj_rst}*
X8300000Y26100000D03*
D22*
X9000000Y4600000D03*
D21*
X39300000Y25700000D03*
X40200000Y20300000D03*
D22*
G04 #@! TO.N,/uio1*
X11262007Y18023789D03*
X39053914Y18378257D03*
G04 #@! TO.N,/out0_~{rst}*
X9750000Y2200000D03*
X23972370Y1850798D03*
G04 #@! TO.N,/out2_ena*
X30100000Y1000000D03*
X10900000Y1450798D03*
G04 #@! TO.N,/uo_out0*
X27200000Y24500000D03*
X34522848Y24398308D03*
G04 #@! TO.N,/out1_inc*
X26703388Y3850000D03*
X10181018Y2900000D03*
G04 #@! TO.N,/uo_out2*
X31366734Y15319461D03*
X29353453Y15350000D03*
G04 #@! TO.N,/uo_out1*
X26550000Y16550000D03*
X31997709Y15889000D03*
G04 #@! TO.N,/ui_in4*
X22506191Y3145449D03*
X22711766Y12458805D03*
X15765253Y12911368D03*
X43700000Y800000D03*
G04 #@! TO.N,/uo_out6*
X22800000Y7600000D03*
X23950000Y12461749D03*
X15750000Y6600000D03*
X30800512Y12852527D03*
G04 #@! TO.N,/ui_in3*
X14675085Y3334378D03*
X43033528Y2829025D03*
D21*
G04 #@! TO.N,/ui_in7*
X42500000Y17100000D03*
D22*
X13349000Y17143545D03*
G04 #@! TO.N,/uo_out4*
X24891687Y14272095D03*
X31670616Y14020384D03*
X15500000Y5250000D03*
X23750000Y5800000D03*
G04 #@! TO.N,/uio2*
X38543264Y19057772D03*
X11123419Y18899837D03*
G04 #@! TO.N,/uo_out5*
X30090972Y13502527D03*
X26150000Y13529270D03*
X25100000Y8600000D03*
X13062289Y7805661D03*
G04 #@! TO.N,/uio6*
X7806380Y22716926D03*
X35980000Y23701000D03*
G04 #@! TO.N,/uo_out7*
X30741214Y11960000D03*
X15186123Y12106438D03*
G04 #@! TO.N,/ui_in5*
X14616391Y15817887D03*
X20937084Y6136996D03*
X43997958Y5041657D03*
X19300000Y16000000D03*
G04 #@! TO.N,/uio0*
X14950000Y21100000D03*
X39350000Y21100000D03*
X11970000Y12400000D03*
G04 #@! TO.N,/ui_in6*
X44200000Y5867298D03*
X21694288Y6750000D03*
X14680462Y16636018D03*
X20000000Y16700000D03*
G04 #@! TO.N,/uo_out3*
X30722818Y14764594D03*
X12185757Y7848368D03*
X24650000Y9350000D03*
X25700000Y14800000D03*
G04 #@! TO.N,/ui_in2*
X13987873Y2834133D03*
X42376043Y1500000D03*
G04 #@! TO.N,/uio4*
X37557653Y20434061D03*
X10150000Y19805345D03*
G04 #@! TO.N,/uio7*
X7446397Y23453198D03*
X35235055Y24025000D03*
G04 #@! TO.N,/ui_in1*
X13142044Y2750000D03*
D21*
X41800000Y2124000D03*
D22*
X41750000Y8250000D03*
G04 #@! TO.N,/uio3*
X9997385Y18504546D03*
X37986937Y19700426D03*
G04 #@! TO.N,/uio5*
X10114498Y21823513D03*
X36390380Y21750000D03*
G04 #@! TD*
D23*
G04 #@! TO.N,+3V3*
X31500000Y3200000D02*
X29300000Y3200000D01*
X29300000Y3200000D02*
X28600000Y3900000D01*
X32800000Y4000000D02*
X32300000Y4000000D01*
X32300000Y4000000D02*
X31500000Y3200000D01*
G04 #@! TO.N,GND*
X39500000Y825000D02*
X42775000Y825000D01*
X8000000Y7500000D02*
X8000000Y5150000D01*
X42350000Y3600000D02*
X42700000Y3950000D01*
X8000000Y5150000D02*
X7250000Y4400000D01*
X10550000Y10000000D02*
X10500000Y10000000D01*
X7250000Y4400000D02*
X6600000Y4400000D01*
X10500000Y10000000D02*
X8000000Y7500000D01*
X41200000Y3600000D02*
X42350000Y3600000D01*
X42700000Y3950000D02*
X44050000Y3950000D01*
X44050000Y3950000D02*
X45000000Y3000000D01*
X42775000Y825000D02*
X44950000Y3000000D01*
X11350000Y8050000D02*
X11350000Y3150000D01*
X11350000Y3150000D02*
X11600000Y2900000D01*
X44950000Y3000000D02*
X45000000Y3000000D01*
G04 #@! TO.N,/ASIC/vdda_all*
X33000000Y17800000D02*
X33096743Y17703257D01*
X40400000Y18500000D02*
X40400000Y19125000D01*
X40400000Y19125000D02*
X40775000Y19500000D01*
X33096743Y17703257D02*
X39603257Y17703257D01*
X39603257Y17703257D02*
X40400000Y18500000D01*
D24*
G04 #@! TO.N,/~{ctrl_sel_rst}*
X30750000Y8800000D02*
X36350000Y8800000D01*
X37921533Y7228467D02*
X38046002Y7228467D01*
X36350000Y8800000D02*
X37921533Y7228467D01*
G04 #@! TO.N,/ctrl_sel_inc*
X38660000Y3600000D02*
X37560220Y2500220D01*
X23499780Y2500220D02*
X23300000Y2700000D01*
X37560220Y2500220D02*
X23499780Y2500220D01*
D23*
G04 #@! TO.N,/proj_clk*
X41183269Y23366490D02*
X37529440Y23366490D01*
X11010950Y23026000D02*
X10576716Y22591766D01*
X37529440Y23366490D02*
X37188950Y23026000D01*
X10576716Y22591766D02*
X8672385Y22591766D01*
X37188950Y23026000D02*
X11010950Y23026000D01*
X41623017Y22926742D02*
X41183269Y23366490D01*
D24*
G04 #@! TO.N,/~{proj_rst}*
X8300000Y26100000D02*
X8700000Y26500000D01*
X8700000Y26500000D02*
X38500000Y26500000D01*
X38500000Y26500000D02*
X39300000Y25700000D01*
G04 #@! TO.N,/uo_out3*
X24650000Y9250000D02*
X24650000Y9350000D01*
X12185757Y7848368D02*
X13124029Y8786640D01*
X13124029Y8786640D02*
X24186640Y8786640D01*
X24186640Y8786640D02*
X24650000Y9250000D01*
G04 #@! TO.N,/ui_in1*
X13142044Y2157956D02*
X13142044Y2750000D01*
X41626000Y1950000D02*
X27500000Y1950000D01*
X24172001Y1200000D02*
X24171203Y1200798D01*
X26750000Y1200000D02*
X24172001Y1200000D01*
X24171203Y1200798D02*
X14099202Y1200798D01*
X14099202Y1200798D02*
X13142044Y2157956D01*
X27500000Y1950000D02*
X26750000Y1200000D01*
X41800000Y2124000D02*
X41626000Y1950000D01*
G04 #@! TD*
G04 #@! TA.AperFunction,Conductor*
G04 #@! TO.N,GND*
G36*
X14915544Y29479815D02*
G01*
X14961299Y29427011D01*
X14971243Y29357853D01*
X14948823Y29302615D01*
X14879951Y29207821D01*
X14783444Y29018415D01*
X14717753Y28816240D01*
X14684500Y28606287D01*
X14684500Y28393713D01*
X14717754Y28183757D01*
X14751535Y28079789D01*
X14783444Y27981586D01*
X14879951Y27792180D01*
X15004890Y27620214D01*
X15155213Y27469891D01*
X15327182Y27344950D01*
X15346739Y27334985D01*
X15397536Y27287011D01*
X15414331Y27219190D01*
X15391794Y27153055D01*
X15337079Y27109603D01*
X15290445Y27100500D01*
X8620940Y27100500D01*
X8580019Y27089536D01*
X8580019Y27089535D01*
X8542751Y27079549D01*
X8468214Y27059577D01*
X8468209Y27059574D01*
X8331290Y26980525D01*
X8331282Y26980519D01*
X8312583Y26961819D01*
X8251260Y26928334D01*
X8224902Y26925500D01*
X8218693Y26925500D01*
X8059216Y26893778D01*
X8059206Y26893775D01*
X7908980Y26831550D01*
X7908976Y26831548D01*
X7773779Y26741212D01*
X7773771Y26741206D01*
X7658794Y26626229D01*
X7658788Y26626221D01*
X7568452Y26491024D01*
X7568450Y26491020D01*
X7506225Y26340794D01*
X7506222Y26340784D01*
X7504800Y26333634D01*
X7472411Y26271725D01*
X7411693Y26237155D01*
X7341924Y26240899D01*
X7314293Y26254731D01*
X7174693Y26348010D01*
X7174680Y26348017D01*
X7010807Y26415894D01*
X7010798Y26415897D01*
X6836834Y26450500D01*
X6836831Y26450500D01*
X6659449Y26450500D01*
X6659446Y26450500D01*
X6485481Y26415897D01*
X6485472Y26415894D01*
X6321599Y26348017D01*
X6321586Y26348010D01*
X6174105Y26249465D01*
X6174101Y26249462D01*
X6048678Y26124039D01*
X6048675Y26124035D01*
X5950130Y25976554D01*
X5950123Y25976541D01*
X5882246Y25812668D01*
X5882243Y25812659D01*
X5847640Y25638696D01*
X5847640Y25638691D01*
X5847640Y25461309D01*
X5847641Y25461305D01*
X5858511Y25406654D01*
X5852282Y25337062D01*
X5809419Y25281886D01*
X5761085Y25260847D01*
X5630334Y25234838D01*
X5630323Y25234835D01*
X5480097Y25172610D01*
X5480093Y25172608D01*
X5344896Y25082272D01*
X5344888Y25082266D01*
X5229911Y24967289D01*
X5229905Y24967281D01*
X5139569Y24832084D01*
X5139567Y24832080D01*
X5077342Y24681854D01*
X5077339Y24681844D01*
X5045617Y24522368D01*
X5045617Y24522365D01*
X5045617Y24359755D01*
X5045617Y24359753D01*
X5045616Y24359753D01*
X5077339Y24200277D01*
X5077342Y24200267D01*
X5139567Y24050041D01*
X5139569Y24050037D01*
X5229905Y23914840D01*
X5229911Y23914832D01*
X5344888Y23799855D01*
X5344896Y23799849D01*
X5480093Y23709513D01*
X5480097Y23709511D01*
X5630323Y23647286D01*
X5630328Y23647284D01*
X5630332Y23647284D01*
X5630333Y23647283D01*
X5789809Y23615560D01*
X5789812Y23615560D01*
X5952424Y23615560D01*
X6059715Y23636903D01*
X6111906Y23647284D01*
X6262138Y23709512D01*
X6262140Y23709513D01*
X6345516Y23765223D01*
X6397342Y23799852D01*
X6512325Y23914835D01*
X6512327Y23914839D01*
X6513376Y23915887D01*
X6574699Y23949372D01*
X6644391Y23944388D01*
X6700325Y23902517D01*
X6724742Y23837053D01*
X6715620Y23780755D01*
X6676660Y23686695D01*
X6676658Y23686688D01*
X6645897Y23532045D01*
X6645897Y23374352D01*
X6676658Y23219709D01*
X6676661Y23219697D01*
X6736999Y23074026D01*
X6737006Y23074013D01*
X6824607Y22942910D01*
X6824610Y22942906D01*
X6936106Y22831410D01*
X6942258Y22827300D01*
X6950768Y22821613D01*
X6995574Y22768003D01*
X7005880Y22718510D01*
X7005880Y22638080D01*
X7036641Y22483437D01*
X7036644Y22483425D01*
X7096982Y22337754D01*
X7096989Y22337741D01*
X7184590Y22206638D01*
X7184593Y22206634D01*
X7296087Y22095140D01*
X7296091Y22095137D01*
X7427194Y22007536D01*
X7427207Y22007529D01*
X7564749Y21950558D01*
X7572883Y21947189D01*
X7711325Y21919651D01*
X7727533Y21916427D01*
X7727536Y21916426D01*
X7727538Y21916426D01*
X7885224Y21916426D01*
X7885225Y21916427D01*
X8039877Y21947189D01*
X8047361Y21950289D01*
X8116830Y21957761D01*
X8163708Y21938832D01*
X8281362Y21860219D01*
X8281365Y21860217D01*
X8416891Y21804081D01*
X8431596Y21797990D01*
X8431600Y21797990D01*
X8431601Y21797989D01*
X8591077Y21766266D01*
X8591080Y21766266D01*
X8753692Y21766266D01*
X8860983Y21787609D01*
X8913174Y21797990D01*
X9063406Y21860218D01*
X9121108Y21898774D01*
X9187784Y21919651D01*
X9255164Y21901167D01*
X9301855Y21849188D01*
X9313998Y21795671D01*
X9313998Y21744667D01*
X9344759Y21590024D01*
X9344762Y21590012D01*
X9405100Y21444341D01*
X9405107Y21444328D01*
X9492708Y21313225D01*
X9492711Y21313221D01*
X9517028Y21288904D01*
X9550513Y21227581D01*
X9550964Y21177032D01*
X9521399Y21028397D01*
X9521399Y20851006D01*
X9556002Y20677043D01*
X9556005Y20677034D01*
X9622008Y20517686D01*
X9629477Y20448216D01*
X9598201Y20385737D01*
X9595129Y20382553D01*
X9528210Y20315634D01*
X9440609Y20184531D01*
X9440602Y20184518D01*
X9380264Y20038847D01*
X9380261Y20038835D01*
X9349500Y19884192D01*
X9349500Y19726499D01*
X9380261Y19571856D01*
X9380264Y19571844D01*
X9440602Y19426173D01*
X9440609Y19426160D01*
X9524568Y19300508D01*
X9545446Y19233831D01*
X9526962Y19166451D01*
X9490363Y19128519D01*
X9487098Y19126338D01*
X9487092Y19126333D01*
X9375598Y19014839D01*
X9375595Y19014835D01*
X9287994Y18883732D01*
X9287987Y18883719D01*
X9227649Y18738048D01*
X9227646Y18738036D01*
X9196885Y18583393D01*
X9196885Y18425700D01*
X9227646Y18271057D01*
X9227649Y18271045D01*
X9287987Y18125374D01*
X9287994Y18125361D01*
X9375595Y17994258D01*
X9375598Y17994254D01*
X9487092Y17882760D01*
X9487096Y17882757D01*
X9618199Y17795156D01*
X9618212Y17795149D01*
X9748439Y17741208D01*
X9763888Y17734809D01*
X9875198Y17712668D01*
X9918538Y17704047D01*
X9918541Y17704046D01*
X9918543Y17704046D01*
X10076229Y17704046D01*
X10076230Y17704047D01*
X10230882Y17734809D01*
X10359046Y17787897D01*
X10428515Y17795365D01*
X10490994Y17764090D01*
X10521059Y17720788D01*
X10552611Y17644613D01*
X10552616Y17644604D01*
X10640217Y17513501D01*
X10640220Y17513497D01*
X10751714Y17402003D01*
X10751718Y17402000D01*
X10882821Y17314399D01*
X10882834Y17314392D01*
X11019449Y17257805D01*
X11028510Y17254052D01*
X11125859Y17234688D01*
X11183160Y17223290D01*
X11183163Y17223289D01*
X11183165Y17223289D01*
X11340851Y17223289D01*
X11340852Y17223290D01*
X11495504Y17254052D01*
X11641186Y17314395D01*
X11772296Y17402000D01*
X11772302Y17402007D01*
X11776013Y17405051D01*
X11840322Y17432366D01*
X11909190Y17420577D01*
X11960752Y17373426D01*
X11969242Y17356653D01*
X11993452Y17298205D01*
X11993452Y17298204D01*
X12083788Y17163007D01*
X12083794Y17162999D01*
X12198771Y17048022D01*
X12198779Y17048016D01*
X12333976Y16957680D01*
X12333980Y16957678D01*
X12444608Y16911855D01*
X12484211Y16895451D01*
X12529380Y16886467D01*
X12560169Y16870362D01*
X12590927Y16854431D01*
X12591094Y16854186D01*
X12591289Y16854084D01*
X12612692Y16826647D01*
X12616686Y16819698D01*
X12639606Y16764366D01*
X12703220Y16669161D01*
X12705305Y16665534D01*
X12712539Y16635466D01*
X12721781Y16605951D01*
X12720640Y16601795D01*
X12721649Y16597603D01*
X12711480Y16568402D01*
X12703297Y16538570D01*
X12700089Y16535689D01*
X12698672Y16531619D01*
X12674330Y16512551D01*
X12651318Y16491880D01*
X12646566Y16490802D01*
X12643669Y16488532D01*
X12631574Y16487401D01*
X12597801Y16479737D01*
X12457270Y16479737D01*
X12302625Y16448976D01*
X12302613Y16448973D01*
X12156942Y16388635D01*
X12156929Y16388628D01*
X12025826Y16301027D01*
X12025822Y16301024D01*
X11914328Y16189530D01*
X11914325Y16189526D01*
X11826724Y16058423D01*
X11826717Y16058410D01*
X11766379Y15912739D01*
X11766376Y15912727D01*
X11735615Y15758084D01*
X11735615Y15600391D01*
X11766376Y15445748D01*
X11766379Y15445736D01*
X11826717Y15300065D01*
X11826724Y15300052D01*
X11914325Y15168949D01*
X11914328Y15168945D01*
X12025822Y15057451D01*
X12025826Y15057448D01*
X12156929Y14969847D01*
X12156942Y14969840D01*
X12280419Y14918695D01*
X12302618Y14909500D01*
X12456720Y14878847D01*
X12457268Y14878738D01*
X12457271Y14878737D01*
X12457273Y14878737D01*
X12614959Y14878737D01*
X12614960Y14878738D01*
X12769612Y14909500D01*
X12915294Y14969843D01*
X13046404Y15057448D01*
X13157904Y15168948D01*
X13245509Y15300058D01*
X13249749Y15310293D01*
X13265625Y15348623D01*
X13305852Y15445740D01*
X13336615Y15600395D01*
X13336615Y15758079D01*
X13336615Y15758082D01*
X13336614Y15758084D01*
X13332202Y15780265D01*
X13305852Y15912734D01*
X13294041Y15941248D01*
X13245512Y16058410D01*
X13245505Y16058423D01*
X13184212Y16150154D01*
X13163334Y16216831D01*
X13181818Y16284212D01*
X13233797Y16330902D01*
X13287314Y16343045D01*
X13427844Y16343045D01*
X13427845Y16343046D01*
X13582497Y16373808D01*
X13728179Y16434151D01*
X13735254Y16438879D01*
X13755361Y16445177D01*
X13773484Y16455930D01*
X13788034Y16455411D01*
X13801927Y16459762D01*
X13822248Y16454189D01*
X13843309Y16453437D01*
X13855269Y16445134D01*
X13869309Y16441283D01*
X13883391Y16425609D01*
X13900702Y16413590D01*
X13913367Y16392244D01*
X13916004Y16389309D01*
X13918712Y16383236D01*
X13936468Y16340371D01*
X13943938Y16270902D01*
X13925012Y16224029D01*
X13907001Y16197073D01*
X13906993Y16197059D01*
X13846655Y16051389D01*
X13846652Y16051377D01*
X13815891Y15896734D01*
X13815891Y15739041D01*
X13846652Y15584398D01*
X13846655Y15584386D01*
X13906993Y15438715D01*
X13907000Y15438702D01*
X13994601Y15307599D01*
X13994604Y15307595D01*
X14106098Y15196101D01*
X14106102Y15196098D01*
X14237205Y15108497D01*
X14237218Y15108490D01*
X14360439Y15057451D01*
X14382894Y15048150D01*
X14537544Y15017388D01*
X14537547Y15017387D01*
X14537549Y15017387D01*
X14695235Y15017387D01*
X14695236Y15017388D01*
X14849888Y15048150D01*
X14995570Y15108493D01*
X15126680Y15196098D01*
X15238180Y15307598D01*
X15325785Y15438708D01*
X15386128Y15584390D01*
X15416891Y15739045D01*
X15416891Y15896729D01*
X15416891Y15896732D01*
X15416890Y15896734D01*
X15413706Y15912739D01*
X15386128Y16051384D01*
X15360382Y16113538D01*
X15352914Y16183006D01*
X15371841Y16229879D01*
X15389856Y16256839D01*
X15450199Y16402521D01*
X15480962Y16557176D01*
X15480962Y16714860D01*
X15480962Y16714863D01*
X15480961Y16714865D01*
X15478312Y16728182D01*
X15450199Y16869515D01*
X15449848Y16870362D01*
X15389859Y17015191D01*
X15389852Y17015204D01*
X15302251Y17146307D01*
X15302248Y17146311D01*
X15190754Y17257805D01*
X15190750Y17257808D01*
X15059647Y17345409D01*
X15059634Y17345416D01*
X14913963Y17405754D01*
X14913951Y17405757D01*
X14759307Y17436518D01*
X14759304Y17436518D01*
X14601620Y17436518D01*
X14601617Y17436518D01*
X14446972Y17405757D01*
X14446960Y17405754D01*
X14301289Y17345416D01*
X14301276Y17345409D01*
X14294195Y17340677D01*
X14227516Y17319802D01*
X14160137Y17338289D01*
X14113449Y17390270D01*
X14110764Y17396291D01*
X14058394Y17522724D01*
X14058390Y17522731D01*
X13970789Y17653834D01*
X13970786Y17653838D01*
X13859292Y17765332D01*
X13859288Y17765335D01*
X13728185Y17852936D01*
X13728172Y17852943D01*
X13582501Y17913281D01*
X13576665Y17915051D01*
X13577072Y17916396D01*
X13570646Y17916625D01*
X13567668Y17918693D01*
X18374499Y17918693D01*
X18406222Y17759217D01*
X18406225Y17759207D01*
X18468450Y17608981D01*
X18468452Y17608977D01*
X18558788Y17473780D01*
X18558794Y17473772D01*
X18673771Y17358795D01*
X18673779Y17358789D01*
X18808976Y17268453D01*
X18808980Y17268451D01*
X18949397Y17210289D01*
X18959211Y17206224D01*
X18959215Y17206224D01*
X18959216Y17206223D01*
X19118692Y17174500D01*
X19144511Y17174500D01*
X19171060Y17166704D01*
X19198362Y17162196D01*
X19204113Y17156999D01*
X19211550Y17154815D01*
X19229667Y17133907D01*
X19250201Y17115351D01*
X19252229Y17107869D01*
X19257305Y17102011D01*
X19261242Y17074625D01*
X19268484Y17047916D01*
X19266466Y17038297D01*
X19267249Y17032853D01*
X19262734Y17013093D01*
X19261121Y17007997D01*
X19230263Y16933497D01*
X19217926Y16871480D01*
X19215862Y16864954D01*
X19200026Y16841408D01*
X19186870Y16816257D01*
X19180780Y16812790D01*
X19176871Y16806976D01*
X19150814Y16795727D01*
X19126153Y16781684D01*
X19121833Y16780744D01*
X19066505Y16769738D01*
X19066498Y16769736D01*
X18920827Y16709398D01*
X18920814Y16709391D01*
X18789711Y16621790D01*
X18789707Y16621787D01*
X18678213Y16510293D01*
X18678210Y16510289D01*
X18590609Y16379186D01*
X18590602Y16379173D01*
X18530264Y16233502D01*
X18530261Y16233490D01*
X18499500Y16078847D01*
X18499500Y15921154D01*
X18530261Y15766511D01*
X18530264Y15766499D01*
X18590602Y15620828D01*
X18590609Y15620815D01*
X18678210Y15489712D01*
X18678213Y15489708D01*
X18789707Y15378214D01*
X18789711Y15378211D01*
X18920814Y15290610D01*
X18920827Y15290603D01*
X19041103Y15240784D01*
X19066503Y15230263D01*
X19219936Y15199743D01*
X19221153Y15199501D01*
X19221156Y15199500D01*
X19221158Y15199500D01*
X19378844Y15199500D01*
X19378845Y15199501D01*
X19533497Y15230263D01*
X19646166Y15276933D01*
X19679172Y15290603D01*
X19679172Y15290604D01*
X19679179Y15290606D01*
X19810289Y15378211D01*
X19810294Y15378217D01*
X19812774Y15380250D01*
X19814330Y15380912D01*
X19815354Y15381595D01*
X19815483Y15381401D01*
X19877083Y15407564D01*
X19945951Y15395774D01*
X19997512Y15348623D01*
X20015396Y15281081D01*
X20014660Y15270515D01*
X20000000Y15140404D01*
X20000000Y14859599D01*
X20031437Y14580588D01*
X20031439Y14580576D01*
X20093921Y14306822D01*
X20093922Y14306820D01*
X20186662Y14041783D01*
X20308492Y13788800D01*
X20457884Y13551044D01*
X20564187Y13417743D01*
X21637425Y14490981D01*
X21723249Y14362537D01*
X21862537Y14223249D01*
X21990979Y14137427D01*
X20917741Y13064190D01*
X20917741Y13064189D01*
X21051043Y12957885D01*
X21288799Y12808493D01*
X21541782Y12686663D01*
X21806819Y12593923D01*
X21806821Y12593922D01*
X21814853Y12592089D01*
X21875833Y12557984D01*
X21908694Y12496324D01*
X21911266Y12471197D01*
X21911266Y12379959D01*
X21942027Y12225316D01*
X21942030Y12225304D01*
X22002368Y12079633D01*
X22002375Y12079620D01*
X22089976Y11948517D01*
X22089979Y11948513D01*
X22201473Y11837019D01*
X22201477Y11837016D01*
X22332580Y11749415D01*
X22332593Y11749408D01*
X22471164Y11692011D01*
X22478269Y11689068D01*
X22618119Y11661250D01*
X22632919Y11658306D01*
X22632922Y11658305D01*
X22632924Y11658305D01*
X22790610Y11658305D01*
X22790611Y11658306D01*
X22945263Y11689068D01*
X23090945Y11749411D01*
X23222055Y11837016D01*
X23244672Y11859634D01*
X23305991Y11893119D01*
X23375683Y11888137D01*
X23420035Y11859635D01*
X23439707Y11839963D01*
X23439711Y11839960D01*
X23570814Y11752359D01*
X23570827Y11752352D01*
X23694270Y11701221D01*
X23716503Y11692012D01*
X23868916Y11661695D01*
X23871153Y11661250D01*
X23871156Y11661249D01*
X23871158Y11661249D01*
X24028844Y11661249D01*
X24028845Y11661250D01*
X24183497Y11692012D01*
X24329179Y11752355D01*
X24460289Y11839960D01*
X24571789Y11951460D01*
X24659394Y12082570D01*
X24662895Y12091021D01*
X24690967Y12158795D01*
X24719737Y12228252D01*
X24750500Y12382907D01*
X24750500Y12540591D01*
X24750500Y12540594D01*
X24750499Y12540596D01*
X24741242Y12587135D01*
X24719737Y12695246D01*
X24689415Y12768451D01*
X24659397Y12840922D01*
X24659390Y12840935D01*
X24571789Y12972038D01*
X24571786Y12972042D01*
X24460292Y13083536D01*
X24460284Y13083542D01*
X24381374Y13136268D01*
X24371953Y13147540D01*
X24359334Y13155063D01*
X24349998Y13173810D01*
X24336568Y13189880D01*
X24334737Y13204458D01*
X24328189Y13217607D01*
X24330470Y13238425D01*
X24327861Y13259205D01*
X24334335Y13273685D01*
X24335802Y13287061D01*
X24349390Y13307351D01*
X24353874Y13317377D01*
X24484125Y13478323D01*
X24512610Y13498014D01*
X24540756Y13517769D01*
X24541217Y13517788D01*
X24541600Y13518052D01*
X24576117Y13519213D01*
X24610567Y13520619D01*
X24611249Y13520394D01*
X24611431Y13520400D01*
X24611679Y13520252D01*
X24627955Y13514882D01*
X24658190Y13502358D01*
X24812840Y13471596D01*
X24812843Y13471595D01*
X24812845Y13471595D01*
X24970531Y13471595D01*
X24970532Y13471596D01*
X25125184Y13502358D01*
X25183290Y13526427D01*
X25252757Y13533895D01*
X25315236Y13502620D01*
X25350889Y13442532D01*
X25352358Y13436057D01*
X25380261Y13295779D01*
X25380264Y13295769D01*
X25440602Y13150098D01*
X25440609Y13150085D01*
X25528210Y13018982D01*
X25528213Y13018978D01*
X25639707Y12907484D01*
X25639711Y12907481D01*
X25770814Y12819880D01*
X25770827Y12819873D01*
X25894968Y12768453D01*
X25916503Y12759533D01*
X26071153Y12728771D01*
X26071156Y12728770D01*
X26071158Y12728770D01*
X26228844Y12728770D01*
X26228845Y12728771D01*
X26383497Y12759533D01*
X26529179Y12819876D01*
X26660289Y12907481D01*
X26771789Y13018981D01*
X26859394Y13150091D01*
X26861454Y13155063D01*
X26904591Y13259207D01*
X26919737Y13295773D01*
X26950500Y13450428D01*
X26950500Y13608112D01*
X26950500Y13608115D01*
X26950499Y13608117D01*
X26944941Y13636059D01*
X26919737Y13762767D01*
X26917170Y13768964D01*
X26859397Y13908443D01*
X26859390Y13908456D01*
X26771789Y14039559D01*
X26771786Y14039563D01*
X26660292Y14151057D01*
X26660288Y14151060D01*
X26529185Y14238661D01*
X26529172Y14238668D01*
X26477095Y14260238D01*
X26422691Y14304078D01*
X26400626Y14370372D01*
X26409985Y14422249D01*
X26469737Y14566503D01*
X26500500Y14721158D01*
X26500500Y14878842D01*
X26500500Y14878845D01*
X26500499Y14878847D01*
X26482399Y14969840D01*
X26469737Y15033497D01*
X26455258Y15068453D01*
X26409397Y15179173D01*
X26409390Y15179186D01*
X26321789Y15310289D01*
X26321786Y15310293D01*
X26210292Y15421787D01*
X26210288Y15421790D01*
X26079185Y15509391D01*
X26079172Y15509398D01*
X25933501Y15569736D01*
X25933489Y15569739D01*
X25778845Y15600500D01*
X25778842Y15600500D01*
X25621158Y15600500D01*
X25621155Y15600500D01*
X25466510Y15569739D01*
X25466498Y15569736D01*
X25320827Y15509398D01*
X25320814Y15509391D01*
X25189711Y15421790D01*
X25167863Y15399942D01*
X25106539Y15366458D01*
X25036847Y15371444D01*
X24980914Y15413316D01*
X24959292Y15460033D01*
X24906079Y15693175D01*
X24906077Y15693181D01*
X24813337Y15958218D01*
X24691507Y16211201D01*
X24542115Y16448957D01*
X24455459Y16557621D01*
X24435810Y16582259D01*
X23362573Y15509021D01*
X23276751Y15637463D01*
X23137463Y15776751D01*
X23009019Y15862575D01*
X23775291Y16628847D01*
X25749500Y16628847D01*
X25749500Y16471154D01*
X25780261Y16316511D01*
X25780264Y16316499D01*
X25840602Y16170828D01*
X25840609Y16170815D01*
X25928210Y16039712D01*
X25928213Y16039708D01*
X26039707Y15928214D01*
X26039711Y15928211D01*
X26170814Y15840610D01*
X26170827Y15840603D01*
X26316498Y15780265D01*
X26316503Y15780263D01*
X26428004Y15758084D01*
X26471153Y15749501D01*
X26471156Y15749500D01*
X26471158Y15749500D01*
X26628844Y15749500D01*
X26628845Y15749501D01*
X26783497Y15780263D01*
X26929179Y15840606D01*
X27060289Y15928211D01*
X27171789Y16039711D01*
X27259394Y16170821D01*
X27267144Y16189530D01*
X27285357Y16233502D01*
X27319737Y16316503D01*
X27350500Y16471158D01*
X27350500Y16628842D01*
X27350500Y16628845D01*
X27350499Y16628847D01*
X27334560Y16708977D01*
X27319737Y16783497D01*
X27314194Y16796879D01*
X27259397Y16929173D01*
X27259390Y16929186D01*
X27171789Y17060289D01*
X27171786Y17060293D01*
X27060292Y17171787D01*
X27060288Y17171790D01*
X26929185Y17259391D01*
X26929172Y17259398D01*
X26783501Y17319736D01*
X26783489Y17319739D01*
X26628845Y17350500D01*
X26628842Y17350500D01*
X26471158Y17350500D01*
X26471155Y17350500D01*
X26316510Y17319739D01*
X26316498Y17319736D01*
X26170827Y17259398D01*
X26170814Y17259391D01*
X26039711Y17171790D01*
X26039707Y17171787D01*
X25928213Y17060293D01*
X25928210Y17060289D01*
X25840609Y16929186D01*
X25840602Y16929173D01*
X25780264Y16783502D01*
X25780261Y16783490D01*
X25749500Y16628847D01*
X23775291Y16628847D01*
X24082257Y16935813D01*
X23948956Y17042116D01*
X23711200Y17191508D01*
X23458217Y17313338D01*
X23193180Y17406078D01*
X23193178Y17406079D01*
X22919424Y17468561D01*
X22919412Y17468563D01*
X22640401Y17500000D01*
X22359598Y17500000D01*
X22080587Y17468563D01*
X22080575Y17468561D01*
X21806821Y17406079D01*
X21806819Y17406078D01*
X21541782Y17313338D01*
X21288799Y17191508D01*
X21051043Y17042116D01*
X20934587Y16949245D01*
X20869900Y16922836D01*
X20801205Y16935593D01*
X20750311Y16983463D01*
X20742713Y16998740D01*
X20709397Y17079173D01*
X20709390Y17079186D01*
X20621789Y17210289D01*
X20621786Y17210293D01*
X20510292Y17321787D01*
X20510288Y17321790D01*
X20379185Y17409391D01*
X20379172Y17409398D01*
X20233501Y17469736D01*
X20233489Y17469739D01*
X20078845Y17500500D01*
X20078842Y17500500D01*
X20072194Y17500500D01*
X20005155Y17520185D01*
X19959400Y17572989D01*
X19949456Y17642147D01*
X19957633Y17671952D01*
X19986319Y17741208D01*
X19993776Y17759211D01*
X20007679Y17829104D01*
X20020527Y17893693D01*
X27079471Y17893693D01*
X27111194Y17734217D01*
X27111197Y17734207D01*
X27173422Y17583981D01*
X27173424Y17583977D01*
X27263760Y17448780D01*
X27263766Y17448772D01*
X27378743Y17333795D01*
X27378751Y17333789D01*
X27513948Y17243453D01*
X27513952Y17243451D01*
X27657599Y17183951D01*
X27664183Y17181224D01*
X27664187Y17181224D01*
X27664188Y17181223D01*
X27823664Y17149500D01*
X27823667Y17149500D01*
X27986279Y17149500D01*
X28111958Y17174500D01*
X28145761Y17181224D01*
X28295993Y17243452D01*
X28295995Y17243453D01*
X28376291Y17297105D01*
X28431197Y17333792D01*
X28546180Y17448775D01*
X28606263Y17538696D01*
X28636519Y17583977D01*
X28636521Y17583981D01*
X28665456Y17653838D01*
X28698748Y17734211D01*
X28717624Y17829104D01*
X28730472Y17893693D01*
X28730472Y18056308D01*
X28698749Y18215784D01*
X28698748Y18215785D01*
X28698748Y18215789D01*
X28688391Y18240794D01*
X28636521Y18366020D01*
X28636519Y18366024D01*
X28546183Y18501221D01*
X28546177Y18501229D01*
X28431200Y18616206D01*
X28431192Y18616212D01*
X28295995Y18706548D01*
X28295991Y18706550D01*
X28145765Y18768775D01*
X28145755Y18768778D01*
X27986279Y18800500D01*
X27986277Y18800500D01*
X27823667Y18800500D01*
X27823665Y18800500D01*
X27664188Y18768778D01*
X27664178Y18768775D01*
X27513952Y18706550D01*
X27513948Y18706548D01*
X27378751Y18616212D01*
X27378743Y18616206D01*
X27263766Y18501229D01*
X27263760Y18501221D01*
X27173424Y18366024D01*
X27173422Y18366020D01*
X27111197Y18215794D01*
X27111194Y18215784D01*
X27079472Y18056308D01*
X27079472Y18056305D01*
X27079472Y17893695D01*
X27079472Y17893693D01*
X27079471Y17893693D01*
X20020527Y17893693D01*
X20025500Y17918693D01*
X20025500Y18081308D01*
X19993777Y18240784D01*
X19993776Y18240785D01*
X19993776Y18240789D01*
X19986943Y18257286D01*
X19931549Y18391020D01*
X19931547Y18391024D01*
X19841211Y18526221D01*
X19841205Y18526229D01*
X19726228Y18641206D01*
X19726220Y18641212D01*
X19591023Y18731548D01*
X19591019Y18731550D01*
X19440793Y18793775D01*
X19440783Y18793778D01*
X19281307Y18825500D01*
X19281305Y18825500D01*
X19118695Y18825500D01*
X19118693Y18825500D01*
X18959216Y18793778D01*
X18959206Y18793775D01*
X18808980Y18731550D01*
X18808976Y18731548D01*
X18673779Y18641212D01*
X18673771Y18641206D01*
X18558794Y18526229D01*
X18558788Y18526221D01*
X18468452Y18391024D01*
X18468450Y18391020D01*
X18406225Y18240794D01*
X18406222Y18240784D01*
X18374500Y18081308D01*
X18374500Y18081305D01*
X18374500Y17918695D01*
X18374500Y17918693D01*
X18374499Y17918693D01*
X13567668Y17918693D01*
X13548056Y17932310D01*
X13523687Y17945062D01*
X13518302Y17952969D01*
X13513254Y17956474D01*
X13495244Y17986827D01*
X13492168Y17994254D01*
X13456548Y18080248D01*
X13410299Y18149465D01*
X13366211Y18215448D01*
X13366205Y18215456D01*
X13251228Y18330433D01*
X13251220Y18330439D01*
X13116023Y18420775D01*
X13116019Y18420777D01*
X12965793Y18483002D01*
X12965783Y18483005D01*
X12806307Y18514727D01*
X12806305Y18514727D01*
X12643695Y18514727D01*
X12643693Y18514727D01*
X12484216Y18483005D01*
X12484206Y18483002D01*
X12333980Y18420777D01*
X12333976Y18420775D01*
X12198779Y18330439D01*
X12198774Y18330436D01*
X12190462Y18322123D01*
X12129137Y18288641D01*
X12059446Y18293628D01*
X12003514Y18335502D01*
X11996219Y18346405D01*
X11991646Y18354090D01*
X11971401Y18402968D01*
X11890769Y18523642D01*
X11889114Y18526424D01*
X11881207Y18557247D01*
X11871699Y18587613D01*
X11872429Y18591466D01*
X11871753Y18594103D01*
X11874503Y18602402D01*
X11881118Y18637279D01*
X11893156Y18666340D01*
X11923919Y18820995D01*
X11923919Y18978679D01*
X11923919Y18978682D01*
X11923918Y18978684D01*
X11904845Y19074568D01*
X11893156Y19133334D01*
X11889543Y19142056D01*
X11832816Y19279010D01*
X11832809Y19279023D01*
X11745208Y19410126D01*
X11745205Y19410130D01*
X11633711Y19521624D01*
X11633707Y19521627D01*
X11502604Y19609228D01*
X11502591Y19609235D01*
X11356920Y19669573D01*
X11356908Y19669576D01*
X11202264Y19700337D01*
X11202261Y19700337D01*
X11074500Y19700337D01*
X11007461Y19720022D01*
X10961706Y19772826D01*
X10950500Y19824337D01*
X10950500Y19884190D01*
X10950499Y19884192D01*
X10945569Y19908977D01*
X10919737Y20038842D01*
X10909859Y20062688D01*
X10902391Y20132155D01*
X10933665Y20194634D01*
X10955528Y20213239D01*
X10995934Y20240237D01*
X11121363Y20365666D01*
X11219912Y20513154D01*
X11287793Y20677035D01*
X11296502Y20720815D01*
X11314039Y20808981D01*
X11322399Y20851010D01*
X11322399Y21028392D01*
X11322399Y21028395D01*
X11322398Y21028397D01*
X11287795Y21202360D01*
X11287792Y21202369D01*
X11219915Y21366242D01*
X11219908Y21366255D01*
X11121363Y21513736D01*
X11121360Y21513740D01*
X10995937Y21639163D01*
X10995931Y21639168D01*
X10970106Y21656424D01*
X10967627Y21659390D01*
X10964015Y21660765D01*
X10945401Y21685986D01*
X10925301Y21710037D01*
X10924154Y21714774D01*
X10922525Y21716981D01*
X10919554Y21733769D01*
X10915257Y21751519D01*
X10914998Y21755523D01*
X10914998Y21902355D01*
X10900917Y21973139D01*
X10900390Y21981298D01*
X10906326Y22007722D01*
X10908740Y22034702D01*
X10913871Y22041309D01*
X10915705Y22049468D01*
X10934985Y22068489D01*
X10951602Y22089880D01*
X10955201Y22092380D01*
X10975449Y22105908D01*
X11062574Y22193033D01*
X11062574Y22193035D01*
X11072782Y22203242D01*
X11072785Y22203246D01*
X11233724Y22364182D01*
X11295047Y22397666D01*
X11321404Y22400500D01*
X14932550Y22400500D01*
X14999589Y22380815D01*
X15045344Y22328011D01*
X15055288Y22258853D01*
X15054168Y22252310D01*
X15049500Y22228842D01*
X15049500Y22071158D01*
X15049501Y22071154D01*
X15053969Y22048690D01*
X15047740Y21979099D01*
X15004877Y21923922D01*
X14938987Y21900678D01*
X14932351Y21900500D01*
X14871155Y21900500D01*
X14716510Y21869739D01*
X14716498Y21869736D01*
X14570827Y21809398D01*
X14570809Y21809388D01*
X14461304Y21736219D01*
X14394627Y21715341D01*
X14327247Y21733826D01*
X14323523Y21736219D01*
X14221961Y21804081D01*
X14221949Y21804088D01*
X14058076Y21871965D01*
X14058067Y21871968D01*
X13884103Y21906571D01*
X13884100Y21906571D01*
X13706718Y21906571D01*
X13706715Y21906571D01*
X13532750Y21871968D01*
X13532741Y21871965D01*
X13368868Y21804088D01*
X13368855Y21804081D01*
X13221374Y21705536D01*
X13221370Y21705533D01*
X13095947Y21580110D01*
X13095944Y21580106D01*
X12997399Y21432625D01*
X12997392Y21432612D01*
X12929515Y21268739D01*
X12929512Y21268730D01*
X12894909Y21094767D01*
X12894909Y20917376D01*
X12929512Y20743413D01*
X12929515Y20743404D01*
X12997392Y20579531D01*
X12997399Y20579518D01*
X13095944Y20432037D01*
X13095947Y20432033D01*
X13221370Y20306610D01*
X13221374Y20306607D01*
X13368855Y20208062D01*
X13368868Y20208055D01*
X13480250Y20161920D01*
X13532743Y20140177D01*
X13532745Y20140177D01*
X13532750Y20140175D01*
X13706713Y20105572D01*
X13706716Y20105571D01*
X13706718Y20105571D01*
X13884102Y20105571D01*
X13884103Y20105572D01*
X13942091Y20117107D01*
X14058067Y20140175D01*
X14058070Y20140177D01*
X14058075Y20140177D01*
X14221956Y20208058D01*
X14369444Y20306607D01*
X14429301Y20366465D01*
X14490622Y20399948D01*
X14560314Y20394964D01*
X14565130Y20392790D01*
X14565192Y20392937D01*
X14705458Y20334838D01*
X14716503Y20330263D01*
X14828984Y20307889D01*
X14871153Y20299501D01*
X14871156Y20299500D01*
X14871158Y20299500D01*
X15028844Y20299500D01*
X15028845Y20299501D01*
X15183497Y20330263D01*
X15306724Y20381305D01*
X15329172Y20390603D01*
X15329172Y20390604D01*
X15329179Y20390606D01*
X15460289Y20478211D01*
X15571789Y20589711D01*
X15659394Y20720821D01*
X15719737Y20866503D01*
X15750500Y21021158D01*
X15750500Y21178842D01*
X15746943Y21196723D01*
X15746031Y21201310D01*
X15752260Y21270901D01*
X15795123Y21326078D01*
X15861013Y21349322D01*
X15867649Y21349500D01*
X15928844Y21349500D01*
X15928845Y21349501D01*
X16083497Y21380263D01*
X16213482Y21434104D01*
X16229172Y21440603D01*
X16229172Y21440604D01*
X16229179Y21440606D01*
X16360289Y21528211D01*
X16471789Y21639711D01*
X16559394Y21770821D01*
X16568590Y21793021D01*
X16596423Y21860218D01*
X16619737Y21916503D01*
X16650500Y22071158D01*
X16650500Y22228842D01*
X16645832Y22252310D01*
X16652060Y22321901D01*
X16694924Y22377078D01*
X16760814Y22400322D01*
X16767450Y22400500D01*
X27037335Y22400500D01*
X27104374Y22380815D01*
X27150129Y22328011D01*
X27161335Y22276500D01*
X27161335Y22211305D01*
X27195938Y22037342D01*
X27195941Y22037333D01*
X27263818Y21873460D01*
X27263825Y21873447D01*
X27362370Y21725966D01*
X27362373Y21725962D01*
X27487796Y21600539D01*
X27487800Y21600536D01*
X27635281Y21501991D01*
X27635294Y21501984D01*
X27716252Y21468451D01*
X27799169Y21434106D01*
X27799171Y21434106D01*
X27799176Y21434104D01*
X27973139Y21399501D01*
X27973142Y21399500D01*
X27973144Y21399500D01*
X28150528Y21399500D01*
X28150529Y21399501D01*
X28208517Y21411036D01*
X28324493Y21434104D01*
X28324496Y21434106D01*
X28324501Y21434106D01*
X28488382Y21501987D01*
X28635870Y21600536D01*
X28761299Y21725965D01*
X28859848Y21873453D01*
X28927729Y22037334D01*
X28929528Y22046374D01*
X28958700Y22193036D01*
X28962335Y22211309D01*
X28962335Y22276500D01*
X28982020Y22343539D01*
X29034824Y22389294D01*
X29086335Y22400500D01*
X30850500Y22400500D01*
X30917539Y22380815D01*
X30963294Y22328011D01*
X30974500Y22276500D01*
X30974500Y22118695D01*
X30974500Y22118693D01*
X30974499Y22118693D01*
X31006222Y21959217D01*
X31006225Y21959207D01*
X31068450Y21808981D01*
X31068452Y21808977D01*
X31158788Y21673780D01*
X31158794Y21673772D01*
X31273771Y21558795D01*
X31273779Y21558789D01*
X31408976Y21468453D01*
X31408980Y21468451D01*
X31559206Y21406226D01*
X31559211Y21406224D01*
X31559215Y21406224D01*
X31559216Y21406223D01*
X31718692Y21374500D01*
X31718695Y21374500D01*
X31881307Y21374500D01*
X32006991Y21399501D01*
X32040789Y21406224D01*
X32191021Y21468452D01*
X32191023Y21468453D01*
X32280457Y21528211D01*
X32326225Y21558792D01*
X32441208Y21673775D01*
X32506052Y21770821D01*
X32531547Y21808977D01*
X32531549Y21808981D01*
X32569733Y21901167D01*
X32593776Y21959211D01*
X32606962Y22025500D01*
X32625500Y22118693D01*
X32625500Y22276500D01*
X32645185Y22343539D01*
X32697989Y22389294D01*
X32749500Y22400500D01*
X35630289Y22400500D01*
X35697328Y22380815D01*
X35743083Y22328011D01*
X35753027Y22258853D01*
X35733391Y22207609D01*
X35680989Y22129186D01*
X35680982Y22129173D01*
X35620644Y21983502D01*
X35620641Y21983490D01*
X35589880Y21828847D01*
X35589880Y21671154D01*
X35620641Y21516511D01*
X35620644Y21516499D01*
X35680982Y21370828D01*
X35680989Y21370815D01*
X35768590Y21239712D01*
X35768593Y21239708D01*
X35880087Y21128214D01*
X35880091Y21128211D01*
X36011194Y21040610D01*
X36011207Y21040603D01*
X36127456Y20992452D01*
X36156883Y20980263D01*
X36311533Y20949501D01*
X36311536Y20949500D01*
X36311538Y20949500D01*
X36469224Y20949500D01*
X36469225Y20949501D01*
X36623877Y20980263D01*
X36710777Y21016259D01*
X36780246Y21023727D01*
X36842725Y20992452D01*
X36878377Y20932363D01*
X36875883Y20862538D01*
X36861333Y20832809D01*
X36848263Y20813248D01*
X36848255Y20813234D01*
X36787917Y20667563D01*
X36787914Y20667551D01*
X36757153Y20512908D01*
X36757153Y20355215D01*
X36787914Y20200572D01*
X36787917Y20200560D01*
X36848255Y20054889D01*
X36848262Y20054876D01*
X36935863Y19923773D01*
X36935866Y19923769D01*
X37047360Y19812275D01*
X37047368Y19812269D01*
X37131327Y19756169D01*
X37176133Y19702557D01*
X37186437Y19653067D01*
X37186437Y19621580D01*
X37217198Y19466937D01*
X37217201Y19466925D01*
X37277539Y19321254D01*
X37277546Y19321241D01*
X37365147Y19190138D01*
X37365150Y19190134D01*
X37476644Y19078640D01*
X37476648Y19078637D01*
X37607751Y18991036D01*
X37607764Y18991029D01*
X37691027Y18956541D01*
X37745431Y18912701D01*
X37765192Y18866173D01*
X37773525Y18824279D01*
X37773527Y18824273D01*
X37833866Y18678600D01*
X37833873Y18678587D01*
X37921474Y18547484D01*
X37921477Y18547480D01*
X37928519Y18540438D01*
X37962004Y18479115D01*
X37957020Y18409423D01*
X37915148Y18353490D01*
X37849684Y18329073D01*
X37840838Y18328757D01*
X33690038Y18328757D01*
X33622999Y18348442D01*
X33602361Y18365072D01*
X33526225Y18441208D01*
X33526224Y18441209D01*
X33526222Y18441211D01*
X33526220Y18441212D01*
X33391023Y18531548D01*
X33391019Y18531550D01*
X33240793Y18593775D01*
X33240783Y18593778D01*
X33081307Y18625500D01*
X33081305Y18625500D01*
X32918695Y18625500D01*
X32918693Y18625500D01*
X32759216Y18593778D01*
X32759206Y18593775D01*
X32608980Y18531550D01*
X32608976Y18531548D01*
X32473779Y18441212D01*
X32473771Y18441206D01*
X32358794Y18326229D01*
X32358791Y18326225D01*
X32324664Y18275150D01*
X32271051Y18230345D01*
X32201726Y18221638D01*
X32174113Y18229479D01*
X32168367Y18231859D01*
X32168365Y18231860D01*
X32168364Y18231860D01*
X32168360Y18231861D01*
X32008885Y18263583D01*
X32008883Y18263583D01*
X31846273Y18263583D01*
X31846271Y18263583D01*
X31686794Y18231861D01*
X31686784Y18231858D01*
X31536558Y18169633D01*
X31536554Y18169631D01*
X31401357Y18079295D01*
X31401349Y18079289D01*
X31286372Y17964312D01*
X31286366Y17964304D01*
X31196030Y17829107D01*
X31196028Y17829103D01*
X31133803Y17678877D01*
X31133800Y17678867D01*
X31102078Y17519391D01*
X31102078Y17519388D01*
X31102078Y17356778D01*
X31102078Y17356776D01*
X31102077Y17356776D01*
X31133800Y17197300D01*
X31133803Y17197290D01*
X31196028Y17047064D01*
X31196030Y17047060D01*
X31286366Y16911863D01*
X31286372Y16911855D01*
X31401350Y16796877D01*
X31401353Y16796875D01*
X31504162Y16728181D01*
X31548966Y16674570D01*
X31557674Y16605245D01*
X31527520Y16542217D01*
X31504165Y16521979D01*
X31487421Y16510791D01*
X31487416Y16510787D01*
X31375922Y16399293D01*
X31375919Y16399289D01*
X31288318Y16268186D01*
X31288313Y16268176D01*
X31246810Y16167979D01*
X31202969Y16113575D01*
X31156445Y16093816D01*
X31133246Y16089201D01*
X31133232Y16089197D01*
X30987561Y16028859D01*
X30987548Y16028852D01*
X30856445Y15941251D01*
X30856441Y15941248D01*
X30744947Y15829754D01*
X30744944Y15829750D01*
X30657343Y15698647D01*
X30657335Y15698632D01*
X30623618Y15617233D01*
X30579777Y15562830D01*
X30533251Y15543070D01*
X30489325Y15534333D01*
X30489316Y15534330D01*
X30343645Y15473992D01*
X30343629Y15473983D01*
X30322581Y15459919D01*
X30255904Y15439042D01*
X30188524Y15457527D01*
X30141834Y15509507D01*
X30132075Y15538831D01*
X30125927Y15569737D01*
X30123190Y15583497D01*
X30107852Y15620526D01*
X30062850Y15729173D01*
X30062843Y15729186D01*
X29975242Y15860289D01*
X29975239Y15860293D01*
X29863745Y15971787D01*
X29863741Y15971790D01*
X29732638Y16059391D01*
X29732625Y16059398D01*
X29586954Y16119736D01*
X29586942Y16119739D01*
X29432298Y16150500D01*
X29432295Y16150500D01*
X29274611Y16150500D01*
X29274608Y16150500D01*
X29119963Y16119739D01*
X29119951Y16119736D01*
X28974280Y16059398D01*
X28974267Y16059391D01*
X28843164Y15971790D01*
X28843160Y15971787D01*
X28731666Y15860293D01*
X28731663Y15860289D01*
X28644062Y15729186D01*
X28644055Y15729173D01*
X28583717Y15583502D01*
X28583714Y15583490D01*
X28552953Y15428847D01*
X28552953Y15271154D01*
X28583714Y15116511D01*
X28583717Y15116499D01*
X28644055Y14970828D01*
X28644062Y14970815D01*
X28731663Y14839712D01*
X28731666Y14839708D01*
X28843160Y14728214D01*
X28843164Y14728211D01*
X28974267Y14640610D01*
X28974280Y14640603D01*
X29119171Y14580588D01*
X29119956Y14580263D01*
X29274606Y14549501D01*
X29274609Y14549500D01*
X29274611Y14549500D01*
X29432297Y14549500D01*
X29432298Y14549501D01*
X29586950Y14580263D01*
X29732632Y14640606D01*
X29753685Y14654674D01*
X29777885Y14662252D01*
X29800559Y14673602D01*
X29810662Y14672516D01*
X29820361Y14675553D01*
X29844814Y14668846D01*
X29870029Y14666135D01*
X29877942Y14659759D01*
X29887742Y14657070D01*
X29904686Y14638208D01*
X29924433Y14622295D01*
X29929323Y14610782D01*
X29934433Y14605093D01*
X29940232Y14590734D01*
X29942683Y14583370D01*
X29953081Y14531097D01*
X29988724Y14445045D01*
X29990125Y14440838D01*
X29991220Y14410174D01*
X29994501Y14379659D01*
X29992456Y14375576D01*
X29992620Y14371013D01*
X29976963Y14344626D01*
X29963225Y14317180D01*
X29959297Y14314850D01*
X29956968Y14310924D01*
X29929537Y14297193D01*
X29903136Y14281528D01*
X29896664Y14280060D01*
X29857479Y14272266D01*
X29857470Y14272263D01*
X29711799Y14211925D01*
X29711786Y14211918D01*
X29580683Y14124317D01*
X29580679Y14124314D01*
X29469185Y14012820D01*
X29469182Y14012816D01*
X29381581Y13881713D01*
X29381574Y13881700D01*
X29321236Y13736029D01*
X29321233Y13736017D01*
X29290472Y13581374D01*
X29290472Y13423681D01*
X29321233Y13269038D01*
X29321236Y13269026D01*
X29381574Y13123355D01*
X29381581Y13123342D01*
X29469182Y12992239D01*
X29469185Y12992235D01*
X29580679Y12880741D01*
X29580683Y12880738D01*
X29711786Y12793137D01*
X29711799Y12793130D01*
X29771381Y12768451D01*
X29857475Y12732790D01*
X29933094Y12717749D01*
X29995002Y12685365D01*
X30024293Y12641523D01*
X30028354Y12631197D01*
X30030775Y12619030D01*
X30077777Y12505555D01*
X30078200Y12504481D01*
X30081214Y12470770D01*
X30084837Y12437072D01*
X30084337Y12435835D01*
X30084422Y12434889D01*
X30082377Y12430982D01*
X30065910Y12390201D01*
X30031825Y12339188D01*
X30031816Y12339172D01*
X29971478Y12193502D01*
X29971475Y12193490D01*
X29940714Y12038847D01*
X29940714Y11881154D01*
X29971475Y11726511D01*
X29971478Y11726499D01*
X30031816Y11580828D01*
X30031823Y11580815D01*
X30119424Y11449712D01*
X30119427Y11449708D01*
X30230921Y11338214D01*
X30230925Y11338211D01*
X30362028Y11250610D01*
X30362041Y11250603D01*
X30507712Y11190265D01*
X30507717Y11190263D01*
X30662367Y11159501D01*
X30662370Y11159500D01*
X30662372Y11159500D01*
X30820058Y11159500D01*
X30906671Y11176729D01*
X30966083Y11188547D01*
X31035674Y11182320D01*
X31077955Y11154611D01*
X31173771Y11058795D01*
X31173779Y11058789D01*
X31308976Y10968453D01*
X31308980Y10968451D01*
X31459206Y10906226D01*
X31459211Y10906224D01*
X31459215Y10906224D01*
X31459216Y10906223D01*
X31618692Y10874500D01*
X31618695Y10874500D01*
X31781307Y10874500D01*
X31888598Y10895843D01*
X31940789Y10906224D01*
X32091021Y10968452D01*
X32091023Y10968453D01*
X32166215Y11018695D01*
X32226225Y11058792D01*
X32341208Y11173775D01*
X32403592Y11267140D01*
X32431547Y11308977D01*
X32431549Y11308981D01*
X32477258Y11419333D01*
X32493776Y11459211D01*
X32514823Y11565019D01*
X32525500Y11618693D01*
X32525500Y11781308D01*
X32493777Y11940784D01*
X32493776Y11940785D01*
X32493776Y11940789D01*
X32492762Y11943237D01*
X32431549Y12091020D01*
X32431547Y12091024D01*
X32341211Y12226221D01*
X32341205Y12226229D01*
X32226228Y12341206D01*
X32226220Y12341212D01*
X32091023Y12431548D01*
X32091019Y12431550D01*
X31940793Y12493775D01*
X31940783Y12493778D01*
X31781307Y12525500D01*
X31781305Y12525500D01*
X31702739Y12525500D01*
X31635700Y12545185D01*
X31589945Y12597989D01*
X31580001Y12667147D01*
X31581122Y12673692D01*
X31601012Y12773683D01*
X31601012Y12931372D01*
X31573100Y13071692D01*
X31579327Y13141284D01*
X31622190Y13196461D01*
X31688080Y13219706D01*
X31694717Y13219884D01*
X31749460Y13219884D01*
X31749461Y13219885D01*
X31904113Y13250647D01*
X32049795Y13310990D01*
X32180905Y13398595D01*
X32292405Y13510095D01*
X32380010Y13641205D01*
X32440353Y13786887D01*
X32471116Y13941542D01*
X32471116Y14099226D01*
X32471116Y14099229D01*
X32471115Y14099231D01*
X32465746Y14126221D01*
X32440353Y14253881D01*
X32432738Y14272266D01*
X32380013Y14399557D01*
X32380006Y14399570D01*
X32292405Y14530673D01*
X32292402Y14530677D01*
X32180908Y14642171D01*
X32180904Y14642174D01*
X32073862Y14713698D01*
X32072896Y14714853D01*
X32071469Y14715337D01*
X32050555Y14741586D01*
X32029057Y14767311D01*
X32028869Y14768806D01*
X32027931Y14769983D01*
X32024529Y14803357D01*
X32020350Y14836636D01*
X32020950Y14838478D01*
X32020847Y14839493D01*
X32023028Y14844854D01*
X32032178Y14872918D01*
X32035530Y14879524D01*
X32076128Y14940282D01*
X32119463Y15044904D01*
X32121618Y15049149D01*
X32142424Y15071250D01*
X32161472Y15094886D01*
X32166811Y15097154D01*
X32169512Y15100022D01*
X32179327Y15102470D01*
X32208001Y15114648D01*
X32231206Y15119263D01*
X32376888Y15179606D01*
X32507998Y15267211D01*
X32619498Y15378711D01*
X32707103Y15509821D01*
X32767446Y15655503D01*
X32798209Y15810158D01*
X32798209Y15967842D01*
X32798209Y15967845D01*
X32798208Y15967847D01*
X32790438Y16006911D01*
X32767446Y16122497D01*
X32747427Y16170828D01*
X32707106Y16268173D01*
X32707099Y16268186D01*
X32619498Y16399289D01*
X32619495Y16399293D01*
X32508001Y16510787D01*
X32507997Y16510790D01*
X32421125Y16568837D01*
X32376320Y16622450D01*
X32367613Y16691775D01*
X32397768Y16754802D01*
X32421120Y16775038D01*
X32453803Y16796875D01*
X32568786Y16911858D01*
X32602912Y16962933D01*
X32656524Y17007737D01*
X32725849Y17016445D01*
X32753466Y17008604D01*
X32759211Y17006224D01*
X32759215Y17006224D01*
X32759216Y17006223D01*
X32918692Y16974500D01*
X32918695Y16974500D01*
X33081307Y16974500D01*
X33203165Y16998740D01*
X33240789Y17006224D01*
X33270892Y17018693D01*
X41674499Y17018693D01*
X41706222Y16859217D01*
X41706225Y16859207D01*
X41768450Y16708981D01*
X41768452Y16708977D01*
X41858788Y16573780D01*
X41858794Y16573772D01*
X41973771Y16458795D01*
X41973779Y16458789D01*
X42108976Y16368453D01*
X42108980Y16368451D01*
X42234376Y16316511D01*
X42259211Y16306224D01*
X42259215Y16306224D01*
X42259216Y16306223D01*
X42418692Y16274500D01*
X42418695Y16274500D01*
X42581307Y16274500D01*
X42714662Y16301027D01*
X42740789Y16306224D01*
X42891021Y16368452D01*
X42891023Y16368453D01*
X42996421Y16438878D01*
X43026225Y16458792D01*
X43141208Y16573775D01*
X43231548Y16708979D01*
X43293776Y16859211D01*
X43323019Y17006223D01*
X43325500Y17018693D01*
X43325500Y17181308D01*
X43293777Y17340784D01*
X43293776Y17340785D01*
X43293776Y17340789D01*
X43291861Y17345412D01*
X43231549Y17491020D01*
X43231547Y17491024D01*
X43141211Y17626221D01*
X43141205Y17626229D01*
X43026228Y17741206D01*
X43026220Y17741212D01*
X42891023Y17831548D01*
X42891019Y17831550D01*
X42740793Y17893775D01*
X42740783Y17893778D01*
X42581307Y17925500D01*
X42581305Y17925500D01*
X42418695Y17925500D01*
X42418693Y17925500D01*
X42259216Y17893778D01*
X42259206Y17893775D01*
X42108980Y17831550D01*
X42108976Y17831548D01*
X41973779Y17741212D01*
X41973771Y17741206D01*
X41858794Y17626229D01*
X41858788Y17626221D01*
X41768452Y17491024D01*
X41768450Y17491020D01*
X41706225Y17340794D01*
X41706222Y17340784D01*
X41674500Y17181308D01*
X41674500Y17181305D01*
X41674500Y17018695D01*
X41674500Y17018693D01*
X41674499Y17018693D01*
X33270892Y17018693D01*
X33305077Y17032853D01*
X33390699Y17068318D01*
X33438151Y17077757D01*
X39664864Y17077757D01*
X39725286Y17089776D01*
X39785709Y17101794D01*
X39845270Y17126465D01*
X39899543Y17148945D01*
X39941054Y17176683D01*
X39951883Y17183918D01*
X39951897Y17183928D01*
X39951932Y17183951D01*
X40001990Y17217399D01*
X40089115Y17304524D01*
X40089117Y17304528D01*
X40597392Y17812804D01*
X40658713Y17846287D01*
X40728405Y17841303D01*
X40732523Y17839682D01*
X40841498Y17794544D01*
X40841503Y17794542D01*
X40985510Y17765897D01*
X40996153Y17763780D01*
X40996156Y17763779D01*
X40996158Y17763779D01*
X41153844Y17763779D01*
X41153845Y17763780D01*
X41308497Y17794542D01*
X41421389Y17841303D01*
X41454172Y17854882D01*
X41454172Y17854883D01*
X41454179Y17854885D01*
X41585289Y17942490D01*
X41696789Y18053990D01*
X41784394Y18185100D01*
X41844737Y18330782D01*
X41875500Y18485437D01*
X41875500Y18643121D01*
X41875500Y18643124D01*
X41875499Y18643126D01*
X41863318Y18704364D01*
X41844737Y18797776D01*
X41835120Y18820993D01*
X41784397Y18943452D01*
X41784390Y18943465D01*
X41696789Y19074568D01*
X41696786Y19074572D01*
X41606247Y19165111D01*
X41572762Y19226434D01*
X41572311Y19276984D01*
X41572716Y19279016D01*
X41590506Y19368453D01*
X41600500Y19418693D01*
X41600500Y19581308D01*
X41568777Y19740784D01*
X41568776Y19740785D01*
X41568776Y19740789D01*
X41562900Y19754976D01*
X41506549Y19891020D01*
X41506547Y19891024D01*
X41416211Y20026221D01*
X41416205Y20026229D01*
X41301228Y20141206D01*
X41301220Y20141212D01*
X41166024Y20231547D01*
X41102046Y20258048D01*
X41047643Y20301890D01*
X41025579Y20368185D01*
X41025500Y20372609D01*
X41025500Y20381308D01*
X40993777Y20540784D01*
X40993776Y20540785D01*
X40993776Y20540789D01*
X40977734Y20579518D01*
X40931549Y20691020D01*
X40931547Y20691024D01*
X40841211Y20826221D01*
X40841205Y20826229D01*
X40726228Y20941206D01*
X40726220Y20941212D01*
X40591023Y21031548D01*
X40591019Y21031550D01*
X40440793Y21093775D01*
X40440783Y21093778D01*
X40281307Y21125500D01*
X40281305Y21125500D01*
X40262875Y21125500D01*
X40195836Y21145185D01*
X40150081Y21197989D01*
X40141258Y21225308D01*
X40119738Y21333492D01*
X40119737Y21333493D01*
X40119737Y21333497D01*
X40113182Y21349322D01*
X40059397Y21479173D01*
X40059390Y21479186D01*
X39971789Y21610289D01*
X39971786Y21610293D01*
X39860292Y21721787D01*
X39860288Y21721790D01*
X39729185Y21809391D01*
X39729172Y21809398D01*
X39583501Y21869736D01*
X39583489Y21869739D01*
X39428845Y21900500D01*
X39428842Y21900500D01*
X39271158Y21900500D01*
X39271155Y21900500D01*
X39116510Y21869739D01*
X39116498Y21869736D01*
X38970827Y21809398D01*
X38970814Y21809391D01*
X38839711Y21721790D01*
X38839707Y21721787D01*
X38728213Y21610293D01*
X38728210Y21610289D01*
X38640609Y21479186D01*
X38640602Y21479173D01*
X38580264Y21333502D01*
X38580261Y21333490D01*
X38549500Y21178847D01*
X38549500Y21021154D01*
X38580261Y20866511D01*
X38580264Y20866499D01*
X38640602Y20720828D01*
X38640609Y20720815D01*
X38728210Y20589712D01*
X38728213Y20589708D01*
X38839707Y20478214D01*
X38839711Y20478211D01*
X38970814Y20390610D01*
X38970827Y20390603D01*
X39105458Y20334838D01*
X39116503Y20330263D01*
X39156943Y20322219D01*
X39277132Y20298311D01*
X39276764Y20296464D01*
X39333410Y20273607D01*
X39373784Y20216583D01*
X39378111Y20200537D01*
X39406222Y20059217D01*
X39406225Y20059207D01*
X39468450Y19908981D01*
X39468452Y19908977D01*
X39558788Y19773780D01*
X39558794Y19773772D01*
X39673772Y19658794D01*
X39673775Y19658792D01*
X39800862Y19573876D01*
X39821218Y19549518D01*
X39842853Y19526282D01*
X39843463Y19522901D01*
X39845665Y19520266D01*
X39849620Y19488777D01*
X39855260Y19457522D01*
X39854111Y19453023D01*
X39854373Y19450941D01*
X39846532Y19423324D01*
X39822284Y19364781D01*
X39822283Y19364779D01*
X39798537Y19307453D01*
X39798535Y19307447D01*
X39791817Y19273675D01*
X39791818Y19273674D01*
X39777602Y19202203D01*
X39777601Y19202200D01*
X39775548Y19191873D01*
X39774500Y19186606D01*
X39774500Y19087427D01*
X39774455Y19085761D01*
X39764198Y19054029D01*
X39754815Y19022073D01*
X39753501Y19020935D01*
X39752966Y19019278D01*
X39727175Y18998124D01*
X39702011Y18976318D01*
X39700290Y18976071D01*
X39698945Y18974967D01*
X39665840Y18971118D01*
X39632853Y18966374D01*
X39631270Y18967097D01*
X39629543Y18966896D01*
X39599631Y18981546D01*
X39569297Y18995399D01*
X39567023Y18997517D01*
X39566795Y18997628D01*
X39566655Y18997859D01*
X39565071Y18999334D01*
X39564198Y19000050D01*
X39433095Y19087650D01*
X39433091Y19087652D01*
X39407590Y19098215D01*
X39353187Y19142056D01*
X39333427Y19188580D01*
X39313001Y19291269D01*
X39306807Y19306223D01*
X39252661Y19436945D01*
X39252654Y19436958D01*
X39165053Y19568061D01*
X39165050Y19568065D01*
X39053556Y19679559D01*
X39053552Y19679562D01*
X38922449Y19767163D01*
X38922439Y19767168D01*
X38839171Y19801659D01*
X38784768Y19845500D01*
X38765007Y19892028D01*
X38756674Y19933923D01*
X38741257Y19971144D01*
X38696334Y20079599D01*
X38696327Y20079612D01*
X38608726Y20210715D01*
X38608723Y20210719D01*
X38497229Y20322213D01*
X38497221Y20322219D01*
X38413263Y20378318D01*
X38368457Y20431930D01*
X38358153Y20481420D01*
X38358153Y20512906D01*
X38358152Y20512908D01*
X38344900Y20579531D01*
X38327390Y20667558D01*
X38317672Y20691020D01*
X38267050Y20813234D01*
X38267043Y20813247D01*
X38179442Y20944350D01*
X38179439Y20944354D01*
X38067945Y21055848D01*
X38067941Y21055851D01*
X37947604Y21136258D01*
X37902799Y21189870D01*
X37894092Y21259195D01*
X37913393Y21308251D01*
X37916716Y21313224D01*
X37990913Y21424268D01*
X38053141Y21574500D01*
X38067520Y21646792D01*
X38099904Y21708700D01*
X38141685Y21737160D01*
X38276541Y21793018D01*
X38276544Y21793020D01*
X38276547Y21793021D01*
X38424035Y21891570D01*
X38549464Y22016999D01*
X38648013Y22164487D01*
X38715894Y22328368D01*
X38717759Y22337741D01*
X38750499Y22502339D01*
X38750500Y22502341D01*
X38750500Y22616990D01*
X38770185Y22684029D01*
X38822989Y22729784D01*
X38874500Y22740990D01*
X40723590Y22740990D01*
X40790629Y22721305D01*
X40836384Y22668501D01*
X40838151Y22664442D01*
X40891467Y22535723D01*
X40891469Y22535719D01*
X40981805Y22400522D01*
X40981811Y22400514D01*
X41096788Y22285537D01*
X41096796Y22285531D01*
X41231985Y22195201D01*
X41231987Y22195200D01*
X41231996Y22195194D01*
X41241392Y22191302D01*
X41295795Y22147464D01*
X41317862Y22081171D01*
X41308504Y22029293D01*
X41297908Y22003710D01*
X41297905Y22003703D01*
X41263301Y21829735D01*
X41263301Y21652344D01*
X41297904Y21478381D01*
X41297907Y21478372D01*
X41365784Y21314499D01*
X41365791Y21314486D01*
X41464336Y21167005D01*
X41464339Y21167001D01*
X41589762Y21041578D01*
X41589766Y21041575D01*
X41737247Y20943030D01*
X41737260Y20943023D01*
X41799179Y20917376D01*
X41901135Y20875145D01*
X41901137Y20875145D01*
X41901142Y20875143D01*
X42075105Y20840540D01*
X42075108Y20840539D01*
X42075110Y20840539D01*
X42252494Y20840539D01*
X42252495Y20840540D01*
X42310483Y20852075D01*
X42426459Y20875143D01*
X42426462Y20875145D01*
X42426467Y20875145D01*
X42590348Y20943026D01*
X42737836Y21041575D01*
X42863265Y21167004D01*
X42961814Y21314492D01*
X43029695Y21478373D01*
X43029855Y21479173D01*
X43061787Y21639711D01*
X43064301Y21652348D01*
X43064301Y21829730D01*
X43064301Y21829733D01*
X43064300Y21829735D01*
X43029697Y22003698D01*
X43029694Y22003707D01*
X43024188Y22016999D01*
X42994001Y22089880D01*
X42961817Y22167580D01*
X42961810Y22167593D01*
X42863265Y22315074D01*
X42863262Y22315078D01*
X42737839Y22440501D01*
X42737835Y22440504D01*
X42590354Y22539049D01*
X42590341Y22539056D01*
X42497026Y22577707D01*
X42442622Y22621547D01*
X42420557Y22687841D01*
X42422861Y22716460D01*
X42425512Y22729784D01*
X42448517Y22845437D01*
X42448517Y23008047D01*
X42448517Y23008050D01*
X42416794Y23167526D01*
X42416793Y23167527D01*
X42416793Y23167531D01*
X42396192Y23217266D01*
X42354566Y23317762D01*
X42354564Y23317766D01*
X42264228Y23452963D01*
X42264222Y23452971D01*
X42149245Y23567948D01*
X42149237Y23567954D01*
X42014040Y23658290D01*
X42014036Y23658292D01*
X41863810Y23720517D01*
X41863800Y23720520D01*
X41713483Y23750421D01*
X41699703Y23757083D01*
X41687266Y23758747D01*
X41665918Y23773416D01*
X41657390Y23777538D01*
X41653547Y23780803D01*
X41582002Y23852348D01*
X41528617Y23888019D01*
X41479555Y23920802D01*
X41479545Y23920806D01*
X41422612Y23944388D01*
X41378173Y23962795D01*
X41365721Y23967953D01*
X41286860Y23983639D01*
X41284303Y23984148D01*
X41284285Y23984152D01*
X41252652Y23990444D01*
X41244876Y23991990D01*
X41244875Y23991990D01*
X37597181Y23991990D01*
X37597161Y23991991D01*
X37591047Y23991991D01*
X37467834Y23991991D01*
X37367037Y23971942D01*
X37367032Y23971942D01*
X37346991Y23967955D01*
X37346990Y23967955D01*
X37334538Y23962796D01*
X37334536Y23962795D01*
X37233160Y23920806D01*
X37233148Y23920799D01*
X37130707Y23852349D01*
X37130703Y23852346D01*
X36990613Y23712255D01*
X36929290Y23678770D01*
X36859598Y23683754D01*
X36803665Y23725626D01*
X36781315Y23775745D01*
X36766078Y23852346D01*
X36749737Y23934497D01*
X36737729Y23963487D01*
X36689397Y24080173D01*
X36689390Y24080186D01*
X36601789Y24211289D01*
X36601786Y24211293D01*
X36490292Y24322787D01*
X36490288Y24322790D01*
X36359185Y24410391D01*
X36359172Y24410398D01*
X36213501Y24470736D01*
X36213489Y24470739D01*
X36058845Y24501500D01*
X36058842Y24501500D01*
X35941996Y24501500D01*
X35874957Y24521185D01*
X35854315Y24537819D01*
X35745347Y24646787D01*
X35745343Y24646790D01*
X35614240Y24734391D01*
X35614227Y24734398D01*
X35468556Y24794736D01*
X35468544Y24794739D01*
X35313900Y24825500D01*
X35313897Y24825500D01*
X35266440Y24825500D01*
X35199401Y24845185D01*
X35163337Y24880610D01*
X35159369Y24886548D01*
X35144637Y24908597D01*
X35144635Y24908600D01*
X35033140Y25020095D01*
X35033136Y25020098D01*
X34902033Y25107699D01*
X34902020Y25107706D01*
X34756349Y25168044D01*
X34756337Y25168047D01*
X34601693Y25198808D01*
X34601690Y25198808D01*
X34444006Y25198808D01*
X34444003Y25198808D01*
X34289358Y25168047D01*
X34289346Y25168044D01*
X34143675Y25107706D01*
X34143662Y25107699D01*
X34012559Y25020098D01*
X34012555Y25020095D01*
X33901061Y24908601D01*
X33901058Y24908597D01*
X33813457Y24777494D01*
X33813450Y24777481D01*
X33753112Y24631810D01*
X33753109Y24631798D01*
X33722348Y24477155D01*
X33722348Y24319462D01*
X33753109Y24164819D01*
X33753112Y24164807D01*
X33813450Y24019136D01*
X33813457Y24019123D01*
X33901058Y23888020D01*
X33901061Y23888016D01*
X33925896Y23863181D01*
X33959381Y23801858D01*
X33954397Y23732166D01*
X33912525Y23676233D01*
X33847061Y23651816D01*
X33838215Y23651500D01*
X27779766Y23651500D01*
X27712727Y23671185D01*
X27666972Y23723989D01*
X27657028Y23793147D01*
X27686053Y23856703D01*
X27705778Y23874107D01*
X27705581Y23874347D01*
X27710285Y23878209D01*
X27710289Y23878211D01*
X27821789Y23989711D01*
X27909394Y24120821D01*
X27969737Y24266503D01*
X28000500Y24421158D01*
X28000500Y24578842D01*
X28000500Y24578845D01*
X28000499Y24578847D01*
X27980135Y24681221D01*
X27969737Y24733497D01*
X27969367Y24734391D01*
X27909397Y24879173D01*
X27909390Y24879186D01*
X27821789Y25010289D01*
X27821786Y25010293D01*
X27710292Y25121787D01*
X27710288Y25121790D01*
X27579185Y25209391D01*
X27579172Y25209398D01*
X27433501Y25269736D01*
X27433489Y25269739D01*
X27278845Y25300500D01*
X27278842Y25300500D01*
X27121158Y25300500D01*
X27121155Y25300500D01*
X26966510Y25269739D01*
X26966498Y25269736D01*
X26820827Y25209398D01*
X26820814Y25209391D01*
X26689711Y25121790D01*
X26689707Y25121787D01*
X26578213Y25010293D01*
X26578210Y25010289D01*
X26490609Y24879186D01*
X26490602Y24879173D01*
X26430264Y24733502D01*
X26430261Y24733490D01*
X26399500Y24578847D01*
X26399500Y24421154D01*
X26430261Y24266511D01*
X26430264Y24266499D01*
X26490602Y24120828D01*
X26490609Y24120815D01*
X26578210Y23989712D01*
X26578213Y23989708D01*
X26689707Y23878214D01*
X26694419Y23874347D01*
X26693558Y23873299D01*
X26733932Y23824986D01*
X26742637Y23755661D01*
X26712480Y23692634D01*
X26653035Y23655917D01*
X26620234Y23651500D01*
X16778890Y23651500D01*
X16711851Y23671185D01*
X16666096Y23723989D01*
X16656152Y23793147D01*
X16664329Y23822952D01*
X16702387Y23914835D01*
X16712051Y23938165D01*
X16734304Y24050037D01*
X16750500Y24131457D01*
X16750500Y24328544D01*
X16712052Y24521830D01*
X16712051Y24521831D01*
X16712051Y24521835D01*
X16669458Y24624663D01*
X16661990Y24694131D01*
X16684757Y24746429D01*
X16693351Y24757909D01*
X16743597Y24892624D01*
X16743598Y24892628D01*
X16749999Y24952156D01*
X16750000Y24952173D01*
X16750000Y25250000D01*
X15959618Y25250000D01*
X16010064Y25300446D01*
X16052851Y25374555D01*
X16075000Y25457213D01*
X16075000Y25542787D01*
X16052851Y25625445D01*
X16010064Y25699554D01*
X15959618Y25750000D01*
X16750000Y25750000D01*
X16750000Y25775500D01*
X16769685Y25842539D01*
X16822489Y25888294D01*
X16874000Y25899500D01*
X19650500Y25899500D01*
X19717539Y25879815D01*
X19763294Y25827011D01*
X19774500Y25775500D01*
X19774500Y25718695D01*
X19774500Y25718693D01*
X19774499Y25718693D01*
X19806222Y25559217D01*
X19806225Y25559207D01*
X19868450Y25408981D01*
X19868452Y25408977D01*
X19958788Y25273780D01*
X19958794Y25273772D01*
X20073771Y25158795D01*
X20073779Y25158789D01*
X20208976Y25068453D01*
X20208980Y25068451D01*
X20349397Y25010289D01*
X20359211Y25006224D01*
X20359215Y25006224D01*
X20359216Y25006223D01*
X20518692Y24974500D01*
X20518695Y24974500D01*
X20681307Y24974500D01*
X20788598Y24995843D01*
X20840789Y25006224D01*
X20940943Y25047710D01*
X20991019Y25068451D01*
X20991023Y25068453D01*
X21073347Y25123460D01*
X21126225Y25158792D01*
X21241208Y25273775D01*
X21308547Y25374555D01*
X21331547Y25408977D01*
X21331549Y25408981D01*
X21357916Y25472638D01*
X21393776Y25559211D01*
X21409586Y25638691D01*
X21425500Y25718693D01*
X21425500Y25775500D01*
X21445185Y25842539D01*
X21497989Y25888294D01*
X21549500Y25899500D01*
X31400284Y25899500D01*
X31467323Y25879815D01*
X31513078Y25827011D01*
X31523022Y25757853D01*
X31521901Y25751308D01*
X31499500Y25638694D01*
X31499500Y25461305D01*
X31534103Y25287342D01*
X31534106Y25287333D01*
X31601983Y25123460D01*
X31601990Y25123447D01*
X31700535Y24975966D01*
X31700538Y24975962D01*
X31825961Y24850539D01*
X31825965Y24850536D01*
X31973446Y24751991D01*
X31973459Y24751984D01*
X32057949Y24716988D01*
X32137334Y24684106D01*
X32137336Y24684106D01*
X32137341Y24684104D01*
X32311304Y24649501D01*
X32311307Y24649500D01*
X32311309Y24649500D01*
X32488693Y24649500D01*
X32488694Y24649501D01*
X32546682Y24661036D01*
X32662658Y24684104D01*
X32662661Y24684106D01*
X32662666Y24684106D01*
X32813129Y24746429D01*
X32826540Y24751984D01*
X32826540Y24751985D01*
X32826547Y24751987D01*
X32974035Y24850536D01*
X33099464Y24975965D01*
X33198013Y25123453D01*
X33265894Y25287334D01*
X33268503Y25300446D01*
X33300082Y25459207D01*
X33300500Y25461309D01*
X33300500Y25638691D01*
X33300500Y25638694D01*
X33278099Y25751308D01*
X33284326Y25820900D01*
X33327189Y25876077D01*
X33393078Y25899322D01*
X33399716Y25899500D01*
X36390338Y25899500D01*
X36457377Y25879815D01*
X36503132Y25827011D01*
X36513076Y25757853D01*
X36511955Y25751308D01*
X36499500Y25688694D01*
X36499500Y25511305D01*
X36534103Y25337342D01*
X36534106Y25337333D01*
X36601983Y25173460D01*
X36601990Y25173447D01*
X36700535Y25025966D01*
X36700538Y25025962D01*
X36825961Y24900539D01*
X36825965Y24900536D01*
X36973446Y24801991D01*
X36973459Y24801984D01*
X37032616Y24777481D01*
X37137334Y24734106D01*
X37137336Y24734106D01*
X37137341Y24734104D01*
X37311304Y24699501D01*
X37311307Y24699500D01*
X37311309Y24699500D01*
X37488693Y24699500D01*
X37488694Y24699501D01*
X37576609Y24716988D01*
X37662658Y24734104D01*
X37662661Y24734106D01*
X37662666Y24734106D01*
X37826547Y24801987D01*
X37974035Y24900536D01*
X38099464Y25025965D01*
X38198013Y25173453D01*
X38198149Y25173780D01*
X38234212Y25260847D01*
X38265894Y25337334D01*
X38273188Y25374000D01*
X38280493Y25410727D01*
X38312877Y25472638D01*
X38373593Y25507212D01*
X38443363Y25503473D01*
X38500035Y25462607D01*
X38516671Y25433989D01*
X38568452Y25308978D01*
X38568452Y25308977D01*
X38658788Y25173780D01*
X38658794Y25173772D01*
X38773771Y25058795D01*
X38773779Y25058789D01*
X38908976Y24968453D01*
X38908980Y24968451D01*
X39053472Y24908601D01*
X39059211Y24906224D01*
X39059215Y24906224D01*
X39059216Y24906223D01*
X39218692Y24874500D01*
X39218695Y24874500D01*
X39381307Y24874500D01*
X39512209Y24900539D01*
X39540789Y24906224D01*
X39688204Y24967285D01*
X39691019Y24968451D01*
X39691023Y24968453D01*
X39758169Y25013320D01*
X39826225Y25058792D01*
X39941208Y25173775D01*
X40005327Y25269736D01*
X40031547Y25308977D01*
X40031549Y25308981D01*
X40056182Y25368452D01*
X40093776Y25459211D01*
X40113669Y25559217D01*
X40125500Y25618693D01*
X40125500Y25781308D01*
X40093777Y25940784D01*
X40093776Y25940785D01*
X40093776Y25940789D01*
X40078962Y25976554D01*
X40031549Y26091020D01*
X40031547Y26091024D01*
X39941211Y26226221D01*
X39941205Y26226229D01*
X39826228Y26341206D01*
X39826220Y26341212D01*
X39691023Y26431548D01*
X39691019Y26431550D01*
X39540793Y26493775D01*
X39540783Y26493778D01*
X39381307Y26525500D01*
X39381305Y26525500D01*
X39375097Y26525500D01*
X39308058Y26545185D01*
X39287416Y26561819D01*
X38987590Y26861645D01*
X38987588Y26861648D01*
X38868717Y26980519D01*
X38868716Y26980520D01*
X38781904Y27030640D01*
X38781904Y27030641D01*
X38781900Y27030642D01*
X38731785Y27059577D01*
X38579057Y27100501D01*
X38420943Y27100501D01*
X38413347Y27100501D01*
X38413331Y27100500D01*
X19886571Y27100500D01*
X19819532Y27120185D01*
X19773777Y27172989D01*
X19763833Y27242147D01*
X19787305Y27298811D01*
X19868793Y27407665D01*
X19868792Y27407665D01*
X19868796Y27407669D01*
X19919091Y27542517D01*
X19925500Y27602127D01*
X19925499Y29375501D01*
X19945184Y29442539D01*
X19997987Y29488294D01*
X20049499Y29499500D01*
X44375500Y29499500D01*
X44442539Y29479815D01*
X44488294Y29427011D01*
X44499500Y29375500D01*
X44499500Y28237908D01*
X44479815Y28170869D01*
X44431796Y28127424D01*
X44338307Y28079789D01*
X44177533Y27962979D01*
X44037021Y27822467D01*
X43920213Y27661695D01*
X43829994Y27484633D01*
X43829993Y27484630D01*
X43768587Y27295638D01*
X43747908Y27165074D01*
X43737500Y27099361D01*
X43737500Y26900639D01*
X43742830Y26866988D01*
X43768587Y26704363D01*
X43829993Y26515371D01*
X43829994Y26515368D01*
X43918732Y26341212D01*
X43920213Y26338306D01*
X44037019Y26177536D01*
X44177536Y26037019D01*
X44260759Y25976554D01*
X44338307Y25920212D01*
X44379307Y25899322D01*
X44431794Y25872579D01*
X44482590Y25824605D01*
X44499500Y25762094D01*
X44499500Y20374928D01*
X44479815Y20307889D01*
X44427011Y20262134D01*
X44357853Y20252190D01*
X44294297Y20281215D01*
X44259140Y20335383D01*
X44258607Y20335162D01*
X44257412Y20338045D01*
X44256841Y20338926D01*
X44256274Y20340794D01*
X44194049Y20491020D01*
X44194047Y20491024D01*
X44103711Y20626221D01*
X44103705Y20626229D01*
X43988728Y20741206D01*
X43988720Y20741212D01*
X43853523Y20831548D01*
X43853519Y20831550D01*
X43703293Y20893775D01*
X43703283Y20893778D01*
X43543807Y20925500D01*
X43543805Y20925500D01*
X43381195Y20925500D01*
X43381193Y20925500D01*
X43221716Y20893778D01*
X43221706Y20893775D01*
X43071480Y20831550D01*
X43071476Y20831548D01*
X42936279Y20741212D01*
X42936271Y20741206D01*
X42821294Y20626229D01*
X42821288Y20626221D01*
X42730952Y20491024D01*
X42730950Y20491020D01*
X42668725Y20340794D01*
X42668722Y20340784D01*
X42637000Y20181308D01*
X42637000Y20181305D01*
X42637000Y20018695D01*
X42637000Y20018693D01*
X42636999Y20018693D01*
X42668722Y19859217D01*
X42668725Y19859207D01*
X42730950Y19708981D01*
X42730952Y19708977D01*
X42821288Y19573780D01*
X42821294Y19573772D01*
X42936271Y19458795D01*
X42936279Y19458789D01*
X43071476Y19368453D01*
X43071480Y19368451D01*
X43218744Y19307453D01*
X43221711Y19306224D01*
X43221715Y19306224D01*
X43221716Y19306223D01*
X43381192Y19274500D01*
X43381195Y19274500D01*
X43543807Y19274500D01*
X43597945Y19285269D01*
X43667537Y19279042D01*
X43722714Y19236179D01*
X43745959Y19170290D01*
X43744611Y19144260D01*
X43737500Y19099361D01*
X43737500Y18900639D01*
X43742560Y18868693D01*
X43768587Y18704363D01*
X43829993Y18515371D01*
X43829994Y18515368D01*
X43906090Y18366024D01*
X43920213Y18338306D01*
X44037019Y18177536D01*
X44177536Y18037019D01*
X44277620Y17964304D01*
X44338307Y17920212D01*
X44390188Y17893778D01*
X44431794Y17872579D01*
X44482590Y17824605D01*
X44499500Y17762094D01*
X44499500Y12237908D01*
X44479815Y12170869D01*
X44431796Y12127424D01*
X44338307Y12079789D01*
X44177533Y11962979D01*
X44037021Y11822467D01*
X43920213Y11661695D01*
X43829994Y11484633D01*
X43829993Y11484630D01*
X43768587Y11295638D01*
X43737500Y11099361D01*
X43737500Y10900640D01*
X43768587Y10704363D01*
X43829993Y10515371D01*
X43829994Y10515368D01*
X43904852Y10368453D01*
X43920213Y10338306D01*
X44037019Y10177536D01*
X44177536Y10037019D01*
X44298113Y9949415D01*
X44338307Y9920212D01*
X44395599Y9891021D01*
X44431794Y9872579D01*
X44482590Y9824605D01*
X44499500Y9762094D01*
X44499500Y6775001D01*
X44479815Y6707962D01*
X44427011Y6662207D01*
X44357853Y6652263D01*
X44351309Y6653384D01*
X44278845Y6667798D01*
X44278842Y6667798D01*
X44121158Y6667798D01*
X44121155Y6667798D01*
X43966510Y6637037D01*
X43966498Y6637034D01*
X43820827Y6576696D01*
X43820814Y6576689D01*
X43689711Y6489088D01*
X43689707Y6489085D01*
X43578213Y6377591D01*
X43578210Y6377587D01*
X43490609Y6246484D01*
X43490602Y6246471D01*
X43430264Y6100800D01*
X43430261Y6100788D01*
X43399500Y5946145D01*
X43399500Y5788452D01*
X43421937Y5675652D01*
X43415710Y5606060D01*
X43388007Y5563785D01*
X43376167Y5551945D01*
X43376166Y5551943D01*
X43288567Y5420843D01*
X43288560Y5420830D01*
X43228222Y5275159D01*
X43228219Y5275147D01*
X43197458Y5120504D01*
X43197458Y4962811D01*
X43228219Y4808168D01*
X43228222Y4808156D01*
X43288560Y4662485D01*
X43288567Y4662472D01*
X43376168Y4531369D01*
X43376171Y4531365D01*
X43487665Y4419871D01*
X43487669Y4419868D01*
X43618772Y4332267D01*
X43618785Y4332260D01*
X43718349Y4291020D01*
X43764461Y4271920D01*
X43874655Y4250001D01*
X43919111Y4241158D01*
X43919114Y4241157D01*
X43919116Y4241157D01*
X44076801Y4241157D01*
X44121261Y4250001D01*
X44189601Y4263595D01*
X44259191Y4257368D01*
X44314369Y4214506D01*
X44337614Y4148616D01*
X44321547Y4080619D01*
X44301775Y4058529D01*
X44301283Y4052271D01*
X44463181Y3890374D01*
X44496666Y3829051D01*
X44499500Y3802692D01*
X44499500Y3446310D01*
X44479815Y3379271D01*
X44427011Y3333516D01*
X44357853Y3323572D01*
X44294297Y3352597D01*
X44287819Y3358629D01*
X43947730Y3698718D01*
X43947729Y3698717D01*
X43920643Y3661436D01*
X43830458Y3484439D01*
X43814446Y3435160D01*
X43775008Y3377485D01*
X43710649Y3350287D01*
X43641802Y3362202D01*
X43608834Y3385798D01*
X43543820Y3450812D01*
X43543816Y3450815D01*
X43412713Y3538416D01*
X43412700Y3538423D01*
X43267029Y3598761D01*
X43267017Y3598764D01*
X43112373Y3629525D01*
X43112370Y3629525D01*
X42954686Y3629525D01*
X42954683Y3629525D01*
X42800038Y3598764D01*
X42800026Y3598761D01*
X42654355Y3538423D01*
X42654342Y3538416D01*
X42523239Y3450815D01*
X42523235Y3450812D01*
X42411741Y3339318D01*
X42407907Y3334645D01*
X42350162Y3295310D01*
X42280317Y3293439D01*
X42224372Y3325628D01*
X42200000Y3350000D01*
X41409618Y3350000D01*
X41460064Y3400446D01*
X41502851Y3474555D01*
X41525000Y3557213D01*
X41525000Y3642787D01*
X41502851Y3725445D01*
X41460064Y3799554D01*
X41455094Y3804524D01*
X41554062Y3824209D01*
X41584488Y3830261D01*
X41584488Y3830262D01*
X41584497Y3830263D01*
X41609363Y3840563D01*
X41656811Y3850000D01*
X42200000Y3850000D01*
X42200000Y4147828D01*
X42199999Y4147845D01*
X42193598Y4207373D01*
X42193596Y4207380D01*
X42140254Y4350399D01*
X42142243Y4351141D01*
X42129927Y4407745D01*
X42131994Y4423097D01*
X42132379Y4425029D01*
X42143365Y4480262D01*
X42151500Y4521156D01*
X42151500Y4678845D01*
X42151499Y4678847D01*
X42147432Y4699292D01*
X42120737Y4833497D01*
X42115231Y4846790D01*
X42060397Y4979173D01*
X42060390Y4979186D01*
X41972789Y5110289D01*
X41972786Y5110293D01*
X41861292Y5221787D01*
X41861288Y5221790D01*
X41730185Y5309391D01*
X41730172Y5309398D01*
X41584501Y5369736D01*
X41584489Y5369739D01*
X41429845Y5400500D01*
X41429842Y5400500D01*
X41272158Y5400500D01*
X41272155Y5400500D01*
X41117510Y5369739D01*
X41117498Y5369736D01*
X40971827Y5309398D01*
X40971814Y5309391D01*
X40840711Y5221790D01*
X40840707Y5221787D01*
X40729213Y5110293D01*
X40729210Y5110289D01*
X40641609Y4979186D01*
X40641602Y4979173D01*
X40581264Y4833502D01*
X40581261Y4833490D01*
X40550500Y4678847D01*
X40550500Y4663982D01*
X40530815Y4596943D01*
X40486331Y4555371D01*
X40431943Y4525410D01*
X40405921Y4519649D01*
X40380955Y4510337D01*
X40371090Y4511936D01*
X40363726Y4510305D01*
X40350062Y4515344D01*
X40324660Y4519460D01*
X40221839Y4562050D01*
X40221829Y4562053D01*
X40028543Y4600500D01*
X40028541Y4600500D01*
X39831459Y4600500D01*
X39831457Y4600500D01*
X39638170Y4562053D01*
X39638160Y4562050D01*
X39456089Y4486634D01*
X39363890Y4425029D01*
X39297213Y4404152D01*
X39229833Y4422637D01*
X39226110Y4425029D01*
X39189486Y4449500D01*
X39133914Y4486632D01*
X39133911Y4486634D01*
X39133910Y4486634D01*
X38951839Y4562050D01*
X38951829Y4562053D01*
X38758543Y4600500D01*
X38758541Y4600500D01*
X38561459Y4600500D01*
X38561457Y4600500D01*
X38368170Y4562053D01*
X38368160Y4562050D01*
X38186089Y4486634D01*
X38093890Y4425029D01*
X38027213Y4404152D01*
X37959833Y4422637D01*
X37956110Y4425029D01*
X37919486Y4449500D01*
X37863914Y4486632D01*
X37863911Y4486634D01*
X37863910Y4486634D01*
X37681839Y4562050D01*
X37681829Y4562053D01*
X37488543Y4600500D01*
X37488541Y4600500D01*
X37291459Y4600500D01*
X37291457Y4600500D01*
X37098170Y4562053D01*
X37098160Y4562050D01*
X36916092Y4486636D01*
X36916079Y4486629D01*
X36752218Y4377140D01*
X36752214Y4377137D01*
X36612863Y4237786D01*
X36612860Y4237782D01*
X36503371Y4073921D01*
X36503364Y4073908D01*
X36427950Y3891840D01*
X36427947Y3891830D01*
X36389500Y3698544D01*
X36389500Y3698541D01*
X36389500Y3501459D01*
X36389500Y3501457D01*
X36389499Y3501457D01*
X36427947Y3308171D01*
X36427948Y3308167D01*
X36427949Y3308165D01*
X36433274Y3295310D01*
X36442858Y3272171D01*
X36450326Y3202702D01*
X36419050Y3140223D01*
X36358961Y3104571D01*
X36328296Y3100720D01*
X33348766Y3100720D01*
X33281727Y3120405D01*
X33235972Y3173209D01*
X33226028Y3242367D01*
X33255053Y3305923D01*
X33279876Y3327823D01*
X33283326Y3330128D01*
X33326225Y3358792D01*
X33441208Y3473775D01*
X33512805Y3580928D01*
X33531547Y3608977D01*
X33531549Y3608981D01*
X33568647Y3698544D01*
X33593776Y3759211D01*
X33610775Y3844667D01*
X33625500Y3918693D01*
X33625500Y4081308D01*
X33593777Y4240784D01*
X33593776Y4240785D01*
X33593776Y4240789D01*
X33586909Y4257368D01*
X33531549Y4391020D01*
X33531547Y4391024D01*
X33441211Y4526221D01*
X33441205Y4526229D01*
X33326228Y4641206D01*
X33326220Y4641212D01*
X33191023Y4731548D01*
X33191019Y4731550D01*
X33040793Y4793775D01*
X33040783Y4793778D01*
X32881307Y4825500D01*
X32881305Y4825500D01*
X32718695Y4825500D01*
X32718693Y4825500D01*
X32559216Y4793778D01*
X32559206Y4793775D01*
X32408982Y4731550D01*
X32275806Y4642566D01*
X32268103Y4639376D01*
X32264392Y4635794D01*
X32231109Y4624052D01*
X32195688Y4617007D01*
X32177971Y4613482D01*
X32117548Y4601463D01*
X32117543Y4601462D01*
X32083546Y4587380D01*
X32070397Y4581933D01*
X32048169Y4572726D01*
X32003713Y4554312D01*
X31993557Y4547525D01*
X31993449Y4547453D01*
X31901268Y4485860D01*
X31873911Y4458502D01*
X31814142Y4398733D01*
X31814139Y4398730D01*
X31542273Y4126863D01*
X31277229Y3861819D01*
X31215906Y3828334D01*
X31189548Y3825500D01*
X29610453Y3825500D01*
X29581012Y3834145D01*
X29551026Y3840668D01*
X29546010Y3844423D01*
X29543414Y3845185D01*
X29522772Y3861819D01*
X29457614Y3926977D01*
X29424129Y3988300D01*
X29423678Y3990466D01*
X29393777Y4140784D01*
X29393776Y4140785D01*
X29393776Y4140789D01*
X29390534Y4148616D01*
X29331549Y4291020D01*
X29331547Y4291024D01*
X29241211Y4426221D01*
X29241205Y4426229D01*
X29126228Y4541206D01*
X29126220Y4541212D01*
X28991023Y4631548D01*
X28991019Y4631550D01*
X28840793Y4693775D01*
X28840783Y4693778D01*
X28681307Y4725500D01*
X28681305Y4725500D01*
X28518695Y4725500D01*
X28518693Y4725500D01*
X28359216Y4693778D01*
X28359206Y4693775D01*
X28208980Y4631550D01*
X28208976Y4631548D01*
X28073779Y4541212D01*
X28073771Y4541206D01*
X27958794Y4426229D01*
X27958788Y4426221D01*
X27868452Y4291024D01*
X27868450Y4291020D01*
X27806225Y4140794D01*
X27806222Y4140784D01*
X27774500Y3981308D01*
X27774500Y3981305D01*
X27774500Y3818695D01*
X27774500Y3818693D01*
X27774499Y3818693D01*
X27806222Y3659217D01*
X27806225Y3659207D01*
X27868450Y3508981D01*
X27868452Y3508977D01*
X27958788Y3373780D01*
X27958794Y3373772D01*
X28020165Y3312401D01*
X28053650Y3251078D01*
X28048666Y3181386D01*
X28006794Y3125453D01*
X27941330Y3101036D01*
X27932484Y3100720D01*
X27385549Y3100720D01*
X27318510Y3120405D01*
X27272755Y3173209D01*
X27262811Y3242367D01*
X27291836Y3305923D01*
X27297868Y3312401D01*
X27325174Y3339708D01*
X27325177Y3339711D01*
X27412782Y3470821D01*
X27473125Y3616503D01*
X27503888Y3771158D01*
X27503888Y3928842D01*
X27503888Y3928845D01*
X27503887Y3928847D01*
X27493452Y3981308D01*
X27473125Y4083497D01*
X27464584Y4104117D01*
X27412785Y4229173D01*
X27412778Y4229186D01*
X27325177Y4360289D01*
X27325174Y4360293D01*
X27213680Y4471787D01*
X27213676Y4471790D01*
X27082573Y4559391D01*
X27082560Y4559398D01*
X26936889Y4619736D01*
X26936877Y4619739D01*
X26782233Y4650500D01*
X26782230Y4650500D01*
X26624546Y4650500D01*
X26624543Y4650500D01*
X26469898Y4619739D01*
X26469886Y4619736D01*
X26324215Y4559398D01*
X26324202Y4559391D01*
X26193099Y4471790D01*
X26193095Y4471787D01*
X26081601Y4360293D01*
X26081598Y4360289D01*
X25993997Y4229186D01*
X25993990Y4229173D01*
X25933652Y4083502D01*
X25933649Y4083490D01*
X25902888Y3928847D01*
X25902888Y3771154D01*
X25933649Y3616511D01*
X25933652Y3616499D01*
X25993990Y3470828D01*
X25993997Y3470815D01*
X26081598Y3339712D01*
X26081601Y3339708D01*
X26108908Y3312401D01*
X26142393Y3251078D01*
X26137409Y3181386D01*
X26095537Y3125453D01*
X26030073Y3101036D01*
X26021227Y3100720D01*
X24091347Y3100720D01*
X24024308Y3120405D01*
X23988245Y3155829D01*
X23941206Y3226228D01*
X23826228Y3341206D01*
X23826220Y3341212D01*
X23691023Y3431548D01*
X23691019Y3431550D01*
X23540793Y3493775D01*
X23540783Y3493778D01*
X23381307Y3525500D01*
X23381305Y3525500D01*
X23281282Y3525500D01*
X23214243Y3545185D01*
X23178180Y3580609D01*
X23127980Y3655738D01*
X23127977Y3655742D01*
X23016483Y3767236D01*
X23016479Y3767239D01*
X22885376Y3854840D01*
X22885363Y3854847D01*
X22739692Y3915185D01*
X22739680Y3915188D01*
X22585036Y3945949D01*
X22585033Y3945949D01*
X22427349Y3945949D01*
X22427346Y3945949D01*
X22272701Y3915188D01*
X22272689Y3915185D01*
X22127018Y3854847D01*
X22127005Y3854840D01*
X21995902Y3767239D01*
X21995898Y3767236D01*
X21884404Y3655742D01*
X21884401Y3655738D01*
X21796800Y3524635D01*
X21796793Y3524622D01*
X21736455Y3378951D01*
X21736452Y3378939D01*
X21705691Y3224296D01*
X21705691Y3066603D01*
X21736452Y2911960D01*
X21736455Y2911948D01*
X21796793Y2766277D01*
X21796800Y2766264D01*
X21884401Y2635161D01*
X21884404Y2635157D01*
X21995898Y2523663D01*
X21995902Y2523660D01*
X22127005Y2436059D01*
X22127018Y2436052D01*
X22238897Y2389711D01*
X22272694Y2375712D01*
X22427344Y2344950D01*
X22427347Y2344949D01*
X22427349Y2344949D01*
X22478138Y2344949D01*
X22545177Y2325264D01*
X22581240Y2289839D01*
X22658788Y2173780D01*
X22658794Y2173772D01*
X22773772Y2058794D01*
X22819259Y2028401D01*
X22864065Y1974789D01*
X22872772Y1905464D01*
X22842618Y1842436D01*
X22783175Y1805716D01*
X22750369Y1801298D01*
X14399299Y1801298D01*
X14369858Y1809943D01*
X14339872Y1816466D01*
X14334856Y1820221D01*
X14332260Y1820983D01*
X14311618Y1837617D01*
X14256052Y1893183D01*
X14222567Y1954506D01*
X14227551Y2024198D01*
X14269423Y2080131D01*
X14296274Y2095423D01*
X14367052Y2124739D01*
X14498162Y2212344D01*
X14609662Y2323844D01*
X14697267Y2454954D01*
X14702440Y2467445D01*
X14746275Y2521848D01*
X14792806Y2541612D01*
X14908582Y2564641D01*
X15054264Y2624984D01*
X15185374Y2712589D01*
X15296874Y2824089D01*
X15384479Y2955199D01*
X15444822Y3100881D01*
X15475585Y3255536D01*
X15475585Y3413220D01*
X15475585Y3413223D01*
X15475584Y3413225D01*
X15470763Y3437462D01*
X15444822Y3567875D01*
X15444820Y3567880D01*
X15384482Y3713551D01*
X15384475Y3713564D01*
X15296874Y3844667D01*
X15296871Y3844671D01*
X15185377Y3956165D01*
X15185373Y3956168D01*
X15054270Y4043769D01*
X15054257Y4043776D01*
X14908586Y4104114D01*
X14908574Y4104117D01*
X14753930Y4134878D01*
X14753927Y4134878D01*
X14596243Y4134878D01*
X14596240Y4134878D01*
X14441595Y4104117D01*
X14441583Y4104114D01*
X14295912Y4043776D01*
X14295899Y4043769D01*
X14164796Y3956168D01*
X14164792Y3956165D01*
X14053298Y3844671D01*
X14053295Y3844667D01*
X13965692Y3713561D01*
X13960516Y3701063D01*
X13958938Y3699106D01*
X13958572Y3696618D01*
X13937135Y3672050D01*
X13916675Y3646660D01*
X13913778Y3645281D01*
X13912636Y3643971D01*
X13902369Y3639846D01*
X13880481Y3629420D01*
X13875359Y3627936D01*
X13754376Y3603870D01*
X13665818Y3567189D01*
X13659218Y3565275D01*
X13630863Y3565372D01*
X13602674Y3562342D01*
X13596385Y3565490D01*
X13589349Y3565514D01*
X13565545Y3580928D01*
X13540195Y3593617D01*
X13536605Y3599667D01*
X13530701Y3603490D01*
X13519010Y3629323D01*
X13504543Y3653707D01*
X13504794Y3660737D01*
X13501894Y3667145D01*
X13506025Y3695196D01*
X13507038Y3723532D01*
X13511559Y3732770D01*
X13512075Y3736269D01*
X13514803Y3739396D01*
X13521589Y3753260D01*
X13573041Y3830262D01*
X13583432Y3845813D01*
X13583433Y3845816D01*
X13583437Y3845821D01*
X13643780Y3991503D01*
X13674543Y4146158D01*
X13674543Y4303842D01*
X13674543Y4303845D01*
X13674542Y4303847D01*
X13665282Y4350399D01*
X13643780Y4458497D01*
X13634764Y4480263D01*
X13583440Y4604173D01*
X13583433Y4604186D01*
X13495832Y4735289D01*
X13495829Y4735293D01*
X13384335Y4846787D01*
X13384331Y4846790D01*
X13253228Y4934391D01*
X13253215Y4934398D01*
X13107544Y4994736D01*
X13107532Y4994739D01*
X12952888Y5025500D01*
X12952885Y5025500D01*
X12795201Y5025500D01*
X12795198Y5025500D01*
X12640553Y4994739D01*
X12640541Y4994736D01*
X12494870Y4934398D01*
X12494857Y4934391D01*
X12363754Y4846790D01*
X12363750Y4846787D01*
X12252256Y4735293D01*
X12252253Y4735289D01*
X12164652Y4604186D01*
X12164645Y4604173D01*
X12104307Y4458502D01*
X12104304Y4458490D01*
X12073543Y4303847D01*
X12073543Y4146154D01*
X12104304Y3991511D01*
X12104307Y3991499D01*
X12164645Y3845828D01*
X12164652Y3845815D01*
X12252253Y3714712D01*
X12252256Y3714708D01*
X12363750Y3603214D01*
X12363754Y3603211D01*
X12494857Y3515610D01*
X12494870Y3515603D01*
X12521900Y3504407D01*
X12576304Y3460567D01*
X12598369Y3394273D01*
X12581090Y3326573D01*
X12562130Y3302166D01*
X12520258Y3260294D01*
X12520254Y3260289D01*
X12432653Y3129186D01*
X12432646Y3129173D01*
X12372308Y2983502D01*
X12372305Y2983490D01*
X12341544Y2828847D01*
X12341544Y2671154D01*
X12372305Y2516511D01*
X12372308Y2516499D01*
X12432646Y2370828D01*
X12432653Y2370815D01*
X12520645Y2239127D01*
X12541523Y2172450D01*
X12541543Y2170236D01*
X12541543Y2078902D01*
X12541542Y2078902D01*
X12569440Y1974789D01*
X12582467Y1926171D01*
X12602072Y1892215D01*
X12630812Y1842436D01*
X12661523Y1789241D01*
X12780393Y1670371D01*
X12780399Y1670366D01*
X13618680Y832085D01*
X13618682Y832082D01*
X13730486Y720278D01*
X13732076Y719360D01*
X13739045Y712431D01*
X13752205Y688493D01*
X13768307Y666437D01*
X13768789Y658327D01*
X13772705Y651204D01*
X13770833Y623951D01*
X13772455Y596691D01*
X13768475Y589607D01*
X13767919Y581498D01*
X13751613Y559587D01*
X13738238Y535774D01*
X13731058Y531965D01*
X13726207Y525445D01*
X13700645Y515828D01*
X13676517Y503026D01*
X13662964Y501652D01*
X13660813Y500842D01*
X13658942Y501244D01*
X13651614Y500500D01*
X13028220Y500500D01*
X12961181Y520185D01*
X12915426Y572989D01*
X12905482Y642147D01*
X12906603Y648691D01*
X12925499Y743691D01*
X12925500Y743693D01*
X12925500Y906308D01*
X12893777Y1065784D01*
X12893776Y1065785D01*
X12893776Y1065789D01*
X12884290Y1088691D01*
X12831549Y1216020D01*
X12831547Y1216024D01*
X12741211Y1351221D01*
X12741205Y1351229D01*
X12626228Y1466206D01*
X12626220Y1466212D01*
X12491023Y1556548D01*
X12491019Y1556550D01*
X12340793Y1618775D01*
X12340783Y1618778D01*
X12181307Y1650500D01*
X12181305Y1650500D01*
X12018695Y1650500D01*
X12018693Y1650500D01*
X11859216Y1618778D01*
X11859206Y1618775D01*
X11834939Y1608723D01*
X11765470Y1601256D01*
X11702991Y1632532D01*
X11673766Y1679371D01*
X11672068Y1678667D01*
X11609397Y1829971D01*
X11609390Y1829984D01*
X11521789Y1961087D01*
X11521786Y1961091D01*
X11410292Y2072585D01*
X11410288Y2072588D01*
X11279185Y2160189D01*
X11279172Y2160196D01*
X11133501Y2220534D01*
X11133489Y2220537D01*
X10978845Y2251298D01*
X10978842Y2251298D01*
X10942311Y2251298D01*
X10875272Y2270983D01*
X10829517Y2323787D01*
X10819573Y2392945D01*
X10839209Y2444189D01*
X10890408Y2520815D01*
X10890408Y2520816D01*
X10890412Y2520821D01*
X10950755Y2666503D01*
X10981518Y2821158D01*
X10981518Y2978842D01*
X10981518Y2978845D01*
X10981517Y2978847D01*
X10964060Y3066607D01*
X10950755Y3133497D01*
X10933993Y3173965D01*
X10890415Y3279173D01*
X10890408Y3279186D01*
X10802807Y3410289D01*
X10802804Y3410293D01*
X10691310Y3521787D01*
X10691306Y3521790D01*
X10560203Y3609391D01*
X10560190Y3609398D01*
X10414519Y3669736D01*
X10414507Y3669739D01*
X10259863Y3700500D01*
X10259860Y3700500D01*
X10102176Y3700500D01*
X10102173Y3700500D01*
X9947528Y3669739D01*
X9947516Y3669736D01*
X9801845Y3609398D01*
X9801832Y3609391D01*
X9670729Y3521790D01*
X9670725Y3521787D01*
X9559231Y3410293D01*
X9559228Y3410289D01*
X9471627Y3279186D01*
X9471620Y3279173D01*
X9411282Y3133502D01*
X9411279Y3133490D01*
X9380518Y2978847D01*
X9379921Y2972782D01*
X9377826Y2972989D01*
X9360833Y2915114D01*
X9325409Y2879051D01*
X9239711Y2821790D01*
X9239707Y2821787D01*
X9128213Y2710293D01*
X9128210Y2710289D01*
X9040609Y2579186D01*
X9040602Y2579173D01*
X8980264Y2433502D01*
X8980261Y2433490D01*
X8949500Y2278847D01*
X8949500Y2121154D01*
X8980261Y1966511D01*
X8980264Y1966499D01*
X9040602Y1820828D01*
X9040609Y1820815D01*
X9128210Y1689712D01*
X9128213Y1689708D01*
X9239707Y1578214D01*
X9239711Y1578211D01*
X9370814Y1490610D01*
X9370827Y1490603D01*
X9512452Y1431941D01*
X9516503Y1430263D01*
X9640949Y1405509D01*
X9671153Y1399501D01*
X9671156Y1399500D01*
X9671158Y1399500D01*
X9828844Y1399500D01*
X9896687Y1412996D01*
X9962311Y1426049D01*
X10031902Y1419822D01*
X10087079Y1376960D01*
X10108119Y1328623D01*
X10130261Y1217309D01*
X10130264Y1217297D01*
X10190602Y1071626D01*
X10190609Y1071613D01*
X10278210Y940510D01*
X10278213Y940506D01*
X10389707Y829012D01*
X10389711Y829009D01*
X10520814Y741408D01*
X10520818Y741406D01*
X10520821Y741404D01*
X10523751Y740191D01*
X10526477Y739061D01*
X10580880Y695220D01*
X10602945Y628926D01*
X10585666Y561226D01*
X10534528Y513616D01*
X10479024Y500500D01*
X8528220Y500500D01*
X8461181Y520185D01*
X8415426Y572989D01*
X8405482Y642147D01*
X8406603Y648691D01*
X8425499Y743691D01*
X8425500Y743693D01*
X8425500Y906308D01*
X8393777Y1065784D01*
X8393776Y1065785D01*
X8393776Y1065789D01*
X8384290Y1088691D01*
X8331549Y1216020D01*
X8331547Y1216024D01*
X8241211Y1351221D01*
X8241205Y1351229D01*
X8126228Y1466206D01*
X8126220Y1466212D01*
X7991023Y1556548D01*
X7991019Y1556550D01*
X7840793Y1618775D01*
X7840783Y1618778D01*
X7681307Y1650500D01*
X7681305Y1650500D01*
X7518695Y1650500D01*
X7518693Y1650500D01*
X7359216Y1618778D01*
X7359206Y1618775D01*
X7208980Y1556550D01*
X7208976Y1556548D01*
X7073779Y1466212D01*
X7073771Y1466206D01*
X6958794Y1351229D01*
X6958788Y1351221D01*
X6868452Y1216024D01*
X6868450Y1216020D01*
X6806225Y1065794D01*
X6806222Y1065784D01*
X6774500Y906308D01*
X6774500Y743691D01*
X6793397Y648691D01*
X6787170Y579100D01*
X6744307Y523922D01*
X6678417Y500678D01*
X6671780Y500500D01*
X3853373Y500500D01*
X3786334Y520185D01*
X3740579Y572989D01*
X3730635Y642147D01*
X3738812Y671952D01*
X3765894Y737334D01*
X3766383Y739788D01*
X3797155Y894492D01*
X3800500Y911309D01*
X3800500Y1088691D01*
X3800500Y1088694D01*
X3800499Y1088696D01*
X3765896Y1262659D01*
X3765893Y1262668D01*
X3762166Y1271665D01*
X3729212Y1351225D01*
X3698016Y1426541D01*
X3698009Y1426554D01*
X3599464Y1574035D01*
X3599461Y1574039D01*
X3474038Y1699462D01*
X3474034Y1699465D01*
X3326553Y1798010D01*
X3326540Y1798017D01*
X3162667Y1865894D01*
X3162658Y1865897D01*
X2988694Y1900500D01*
X2988691Y1900500D01*
X2811309Y1900500D01*
X2811306Y1900500D01*
X2637341Y1865897D01*
X2637332Y1865894D01*
X2473459Y1798017D01*
X2473446Y1798010D01*
X2325965Y1699465D01*
X2325961Y1699462D01*
X2200538Y1574039D01*
X2200535Y1574035D01*
X2101990Y1426554D01*
X2101983Y1426541D01*
X2034106Y1262668D01*
X2034103Y1262659D01*
X1999500Y1088696D01*
X1999500Y911305D01*
X2034103Y737342D01*
X2034106Y737333D01*
X2041501Y719480D01*
X2061187Y671953D01*
X2061188Y671952D01*
X2068657Y602483D01*
X2037382Y540004D01*
X1977293Y504352D01*
X1946627Y500500D01*
X624500Y500500D01*
X557461Y520185D01*
X511706Y572989D01*
X500500Y624500D01*
X500500Y1762655D01*
X520185Y1829694D01*
X568206Y1873140D01*
X661422Y1920636D01*
X698715Y1947732D01*
X536819Y2109628D01*
X503334Y2170951D01*
X500500Y2197309D01*
X500500Y2553692D01*
X520185Y2620731D01*
X572989Y2666486D01*
X642147Y2676430D01*
X705703Y2647405D01*
X712181Y2641373D01*
X1052268Y2301285D01*
X1079362Y2338575D01*
X1169542Y2515563D01*
X1230924Y2704477D01*
X1230924Y2704480D01*
X1262000Y2900679D01*
X1262000Y3099322D01*
X1230924Y3295521D01*
X1230924Y3295524D01*
X1169542Y3484438D01*
X1079358Y3661433D01*
X1052268Y3698717D01*
X712181Y3358629D01*
X650858Y3325144D01*
X581166Y3330128D01*
X525233Y3372000D01*
X500816Y3437464D01*
X500500Y3446310D01*
X500500Y3802692D01*
X506818Y3824207D01*
X7374499Y3824207D01*
X7406222Y3664731D01*
X7406225Y3664721D01*
X7468450Y3514495D01*
X7468452Y3514491D01*
X7558788Y3379294D01*
X7558794Y3379286D01*
X7673771Y3264309D01*
X7673779Y3264303D01*
X7808976Y3173967D01*
X7808980Y3173965D01*
X7926100Y3125453D01*
X7959211Y3111738D01*
X7959215Y3111738D01*
X7959216Y3111737D01*
X8118692Y3080014D01*
X8118695Y3080014D01*
X8281307Y3080014D01*
X8404759Y3104571D01*
X8440789Y3111738D01*
X8577709Y3168452D01*
X8591019Y3173965D01*
X8591023Y3173967D01*
X8666338Y3224291D01*
X8726225Y3264306D01*
X8841208Y3379289D01*
X8901300Y3469224D01*
X8931547Y3514491D01*
X8931549Y3514495D01*
X8953657Y3567868D01*
X8993776Y3664725D01*
X9002020Y3706174D01*
X9034403Y3768082D01*
X9095118Y3802657D01*
X9099446Y3803598D01*
X9154967Y3814643D01*
X9233497Y3830263D01*
X9346166Y3876933D01*
X9379172Y3890603D01*
X9379172Y3890604D01*
X9379179Y3890606D01*
X9510289Y3978211D01*
X9621789Y4089711D01*
X9709394Y4220821D01*
X9712854Y4229173D01*
X9738471Y4291020D01*
X9769737Y4366503D01*
X9800500Y4521158D01*
X9800500Y4630258D01*
X9820185Y4697297D01*
X9862752Y4736576D01*
X9862456Y4737019D01*
X9865273Y4738902D01*
X9866050Y4739618D01*
X9867514Y4740402D01*
X9867521Y4740404D01*
X10002725Y4830744D01*
X10117708Y4945727D01*
X10208048Y5080931D01*
X10220209Y5110289D01*
X10228790Y5131009D01*
X10270276Y5231163D01*
X10289707Y5328847D01*
X14699500Y5328847D01*
X14699500Y5171154D01*
X14730261Y5016511D01*
X14730264Y5016499D01*
X14790602Y4870828D01*
X14790609Y4870815D01*
X14878210Y4739712D01*
X14878213Y4739708D01*
X14989707Y4628214D01*
X14989711Y4628211D01*
X15120814Y4540610D01*
X15120827Y4540603D01*
X15252995Y4485858D01*
X15266503Y4480263D01*
X15375963Y4458490D01*
X15421153Y4449501D01*
X15421156Y4449500D01*
X15421158Y4449500D01*
X15578844Y4449500D01*
X15578845Y4449501D01*
X15733497Y4480263D01*
X15879179Y4540606D01*
X16010289Y4628211D01*
X16121789Y4739711D01*
X16209394Y4870821D01*
X16269737Y5016503D01*
X16300500Y5171158D01*
X16300500Y5328842D01*
X16300500Y5328845D01*
X16300499Y5328847D01*
X16269737Y5483497D01*
X16258733Y5510064D01*
X16209397Y5629173D01*
X16209390Y5629186D01*
X16132762Y5743867D01*
X16111884Y5810544D01*
X16130368Y5877924D01*
X16166970Y5915858D01*
X16260289Y5978211D01*
X16371789Y6089711D01*
X16459394Y6220821D01*
X16462439Y6228171D01*
X16477321Y6264100D01*
X16519737Y6366503D01*
X16550500Y6521158D01*
X16550500Y6678842D01*
X16550500Y6678845D01*
X16550499Y6678847D01*
X16549171Y6685522D01*
X16519737Y6833497D01*
X16518803Y6835752D01*
X16459397Y6979173D01*
X16459390Y6979186D01*
X16371789Y7110289D01*
X16371786Y7110293D01*
X16260292Y7221787D01*
X16260288Y7221790D01*
X16129185Y7309391D01*
X16129172Y7309398D01*
X15983501Y7369736D01*
X15983489Y7369739D01*
X15828845Y7400500D01*
X15828842Y7400500D01*
X15671158Y7400500D01*
X15671155Y7400500D01*
X15516510Y7369739D01*
X15516498Y7369736D01*
X15370827Y7309398D01*
X15370814Y7309391D01*
X15239711Y7221790D01*
X15239707Y7221787D01*
X15128213Y7110293D01*
X15128210Y7110289D01*
X15040609Y6979186D01*
X15040602Y6979173D01*
X14980264Y6833502D01*
X14980261Y6833490D01*
X14949500Y6678847D01*
X14949500Y6521154D01*
X14980261Y6366511D01*
X14980264Y6366499D01*
X15040602Y6220828D01*
X15040609Y6220815D01*
X15117237Y6106134D01*
X15138115Y6039456D01*
X15119631Y5972076D01*
X15083026Y5934141D01*
X14989711Y5871790D01*
X14989707Y5871787D01*
X14878213Y5760293D01*
X14878210Y5760289D01*
X14790609Y5629186D01*
X14790602Y5629173D01*
X14730264Y5483502D01*
X14730261Y5483490D01*
X14699500Y5328847D01*
X10289707Y5328847D01*
X10295730Y5359125D01*
X10295730Y5359127D01*
X10297348Y5367258D01*
X10302000Y5390647D01*
X10302000Y5553257D01*
X10302000Y5553260D01*
X10270277Y5712736D01*
X10270276Y5712737D01*
X10270276Y5712741D01*
X10266791Y5721154D01*
X10208049Y5862972D01*
X10208047Y5862976D01*
X10117711Y5998173D01*
X10117705Y5998181D01*
X10002728Y6113158D01*
X10002720Y6113164D01*
X9867523Y6203500D01*
X9867519Y6203502D01*
X9717293Y6265727D01*
X9717283Y6265730D01*
X9557807Y6297452D01*
X9557805Y6297452D01*
X9395195Y6297452D01*
X9395193Y6297452D01*
X9235716Y6265730D01*
X9235706Y6265727D01*
X9085480Y6203502D01*
X9085476Y6203500D01*
X8950279Y6113164D01*
X8950271Y6113158D01*
X8835294Y5998181D01*
X8835288Y5998173D01*
X8744952Y5862976D01*
X8744950Y5862972D01*
X8682725Y5712746D01*
X8682722Y5712736D01*
X8651000Y5553260D01*
X8651000Y5395839D01*
X8631315Y5328800D01*
X8595891Y5292737D01*
X8489711Y5221790D01*
X8489707Y5221787D01*
X8378213Y5110293D01*
X8378210Y5110289D01*
X8290609Y4979186D01*
X8290602Y4979173D01*
X8230263Y4833499D01*
X8230261Y4833490D01*
X8229638Y4830359D01*
X8228860Y4828873D01*
X8228493Y4827662D01*
X8228263Y4827732D01*
X8197245Y4768451D01*
X8136526Y4733884D01*
X8120191Y4731163D01*
X8118705Y4731017D01*
X7959216Y4699292D01*
X7959206Y4699289D01*
X7808980Y4637064D01*
X7808976Y4637062D01*
X7673779Y4546726D01*
X7673771Y4546720D01*
X7558794Y4431743D01*
X7558788Y4431735D01*
X7468452Y4296538D01*
X7468450Y4296534D01*
X7406225Y4146308D01*
X7406222Y4146298D01*
X7374500Y3986822D01*
X7374500Y3986819D01*
X7374500Y3824209D01*
X7374500Y3824207D01*
X7374499Y3824207D01*
X506818Y3824207D01*
X520185Y3869731D01*
X536819Y3890373D01*
X698715Y4052270D01*
X661430Y4079361D01*
X661428Y4079362D01*
X568204Y4126863D01*
X517408Y4174838D01*
X500500Y4237347D01*
X500500Y4702156D01*
X750000Y4702156D01*
X756401Y4642628D01*
X756403Y4642621D01*
X806645Y4507914D01*
X806649Y4507907D01*
X892809Y4392813D01*
X892812Y4392810D01*
X1007906Y4306650D01*
X1007913Y4306646D01*
X1142620Y4256404D01*
X1142627Y4256402D01*
X1202155Y4250001D01*
X1202172Y4250000D01*
X1500000Y4250000D01*
X2000000Y4250000D01*
X2297828Y4250000D01*
X2297844Y4250001D01*
X2357372Y4256402D01*
X2357379Y4256404D01*
X2492086Y4306646D01*
X2492093Y4306650D01*
X2607187Y4392810D01*
X2607190Y4392813D01*
X2693350Y4507907D01*
X2693354Y4507914D01*
X2743596Y4642621D01*
X2743598Y4642628D01*
X2749999Y4702156D01*
X2750000Y4702173D01*
X2750000Y5000000D01*
X2000000Y5000000D01*
X2000000Y4250000D01*
X1500000Y4250000D01*
X1500000Y5000000D01*
X750000Y5000000D01*
X750000Y4702156D01*
X500500Y4702156D01*
X500500Y7691457D01*
X749499Y7691457D01*
X787947Y7498171D01*
X787950Y7498161D01*
X863365Y7316093D01*
X863368Y7316086D01*
X877208Y7295373D01*
X924971Y7223890D01*
X945848Y7157213D01*
X927363Y7089833D01*
X924971Y7086110D01*
X863366Y6993911D01*
X787950Y6811840D01*
X787947Y6811830D01*
X749500Y6618544D01*
X749500Y6618541D01*
X749500Y6421459D01*
X749500Y6421457D01*
X749499Y6421457D01*
X787947Y6228171D01*
X787950Y6228161D01*
X830540Y6125340D01*
X838009Y6055871D01*
X815248Y6003580D01*
X806648Y5992092D01*
X806645Y5992087D01*
X756403Y5857380D01*
X756401Y5857373D01*
X750000Y5797845D01*
X750000Y5500000D01*
X1540382Y5500000D01*
X1489936Y5449554D01*
X1447149Y5375445D01*
X1425000Y5292787D01*
X1425000Y5207213D01*
X1447149Y5124555D01*
X1489936Y5050446D01*
X1550446Y4989936D01*
X1624555Y4947149D01*
X1707213Y4925000D01*
X1792787Y4925000D01*
X1875445Y4947149D01*
X1949554Y4989936D01*
X2010064Y5050446D01*
X2052851Y5124555D01*
X2075000Y5207213D01*
X2075000Y5292787D01*
X2052851Y5375445D01*
X2010064Y5449554D01*
X1959618Y5500000D01*
X2750000Y5500000D01*
X2750000Y5583204D01*
X2769685Y5650243D01*
X2822489Y5695998D01*
X2891647Y5705942D01*
X2955203Y5676917D01*
X2961681Y5670885D01*
X3073771Y5558795D01*
X3073779Y5558789D01*
X3208976Y5468453D01*
X3208980Y5468451D01*
X3323985Y5420815D01*
X3359211Y5406224D01*
X3359215Y5406224D01*
X3359216Y5406223D01*
X3518692Y5374500D01*
X3518695Y5374500D01*
X3681307Y5374500D01*
X3812013Y5400500D01*
X3840789Y5406224D01*
X3991021Y5468452D01*
X3991023Y5468453D01*
X4099003Y5540603D01*
X4126225Y5558792D01*
X4241208Y5673775D01*
X4297363Y5757817D01*
X4331547Y5808977D01*
X4331549Y5808981D01*
X4361570Y5881458D01*
X4393776Y5959211D01*
X4411057Y6046086D01*
X4425500Y6118693D01*
X4425500Y6281308D01*
X4393777Y6440784D01*
X4393776Y6440785D01*
X4393776Y6440789D01*
X4376084Y6483502D01*
X4349979Y6546526D01*
X4342510Y6615995D01*
X4373785Y6678474D01*
X4417091Y6708540D01*
X4441019Y6718451D01*
X4441023Y6718453D01*
X4525653Y6775001D01*
X4576225Y6808792D01*
X4691208Y6923775D01*
X4738955Y6995234D01*
X4781547Y7058977D01*
X4781549Y7058981D01*
X4814683Y7138974D01*
X4843776Y7209211D01*
X4860915Y7295373D01*
X4875500Y7368693D01*
X4875500Y7531308D01*
X4843777Y7690784D01*
X4843776Y7690785D01*
X4843776Y7690789D01*
X4843499Y7691457D01*
X4781549Y7841020D01*
X4781547Y7841024D01*
X4691211Y7976221D01*
X4691205Y7976229D01*
X4576228Y8091206D01*
X4576220Y8091212D01*
X4441023Y8181548D01*
X4441019Y8181550D01*
X4290793Y8243775D01*
X4290783Y8243778D01*
X4131307Y8275500D01*
X4131305Y8275500D01*
X3968695Y8275500D01*
X3968693Y8275500D01*
X3809216Y8243778D01*
X3809206Y8243775D01*
X3658980Y8181550D01*
X3658976Y8181548D01*
X3523779Y8091212D01*
X3523771Y8091206D01*
X3408794Y7976229D01*
X3408788Y7976221D01*
X3318452Y7841024D01*
X3318450Y7841020D01*
X3256225Y7690794D01*
X3256222Y7690784D01*
X3224500Y7531308D01*
X3224500Y7531305D01*
X3224500Y7368695D01*
X3224500Y7368693D01*
X3224499Y7368693D01*
X3256222Y7209217D01*
X3256225Y7209207D01*
X3300020Y7103475D01*
X3307489Y7034005D01*
X3276213Y6971526D01*
X3232913Y6941463D01*
X3208982Y6931551D01*
X3208976Y6931548D01*
X3073779Y6841212D01*
X3073771Y6841206D01*
X2958794Y6726229D01*
X2958789Y6726223D01*
X2948092Y6710213D01*
X2894479Y6665408D01*
X2825154Y6656702D01*
X2762127Y6686858D01*
X2725409Y6746301D01*
X2723374Y6754913D01*
X2712052Y6811830D01*
X2712051Y6811831D01*
X2712051Y6811835D01*
X2702142Y6835758D01*
X2636635Y6993908D01*
X2636633Y6993912D01*
X2636632Y6993914D01*
X2629116Y7005162D01*
X2575029Y7086109D01*
X2554151Y7152786D01*
X2572635Y7220166D01*
X2575029Y7223891D01*
X2603120Y7265932D01*
X2636632Y7316086D01*
X2645374Y7337190D01*
X2682645Y7427173D01*
X2712051Y7498165D01*
X2726770Y7572160D01*
X2750500Y7691457D01*
X2750500Y7888544D01*
X2712052Y8081830D01*
X2712051Y8081831D01*
X2712051Y8081835D01*
X2708551Y8090286D01*
X2643535Y8247250D01*
X2636066Y8316719D01*
X2667341Y8379198D01*
X2717054Y8408693D01*
X5065741Y8408693D01*
X5097464Y8249217D01*
X5097467Y8249207D01*
X5159692Y8098981D01*
X5159694Y8098977D01*
X5250030Y7963780D01*
X5250036Y7963772D01*
X5365014Y7848794D01*
X5365017Y7848792D01*
X5491911Y7764004D01*
X5536717Y7710392D01*
X5545424Y7641068D01*
X5526124Y7592012D01*
X5442967Y7467559D01*
X5380743Y7317335D01*
X5380740Y7317325D01*
X5349018Y7157849D01*
X5349018Y7157846D01*
X5349018Y6995236D01*
X5349018Y6995234D01*
X5349017Y6995234D01*
X5380740Y6835758D01*
X5380743Y6835748D01*
X5442968Y6685522D01*
X5442970Y6685518D01*
X5533306Y6550321D01*
X5533312Y6550313D01*
X5648289Y6435336D01*
X5648297Y6435330D01*
X5783492Y6344996D01*
X5783493Y6344996D01*
X5783497Y6344993D01*
X5872955Y6307939D01*
X5927355Y6264100D01*
X5949421Y6197806D01*
X5949500Y6193379D01*
X5949500Y6171154D01*
X5980261Y6016511D01*
X5980264Y6016499D01*
X6040602Y5870828D01*
X6040609Y5870815D01*
X6128210Y5739712D01*
X6128213Y5739708D01*
X6239707Y5628214D01*
X6239711Y5628211D01*
X6370814Y5540610D01*
X6370827Y5540603D01*
X6444556Y5510064D01*
X6516503Y5480263D01*
X6670887Y5449554D01*
X6671153Y5449501D01*
X6671156Y5449500D01*
X6671158Y5449500D01*
X6828844Y5449500D01*
X6828845Y5449501D01*
X6983497Y5480263D01*
X7129179Y5540606D01*
X7260289Y5628211D01*
X7371789Y5739711D01*
X7459394Y5870821D01*
X7462719Y5878847D01*
X7496006Y5959211D01*
X7519737Y6016503D01*
X7550500Y6171158D01*
X7550500Y6328842D01*
X7550500Y6328845D01*
X7550499Y6328847D01*
X7546552Y6348692D01*
X7519737Y6483497D01*
X7514178Y6496918D01*
X7459397Y6629173D01*
X7459390Y6629186D01*
X7371789Y6760289D01*
X7371786Y6760293D01*
X7260292Y6871787D01*
X7260288Y6871790D01*
X7129185Y6959391D01*
X7129175Y6959396D01*
X7076565Y6981188D01*
X7022161Y7025030D01*
X7000097Y7091324D01*
X7000018Y7095749D01*
X7000018Y7157849D01*
X6968295Y7317325D01*
X6968294Y7317326D01*
X6968294Y7317330D01*
X6960066Y7337194D01*
X6906067Y7467561D01*
X6906065Y7467565D01*
X6815729Y7602762D01*
X6815723Y7602770D01*
X6700746Y7717747D01*
X6700738Y7717753D01*
X6573848Y7802538D01*
X6529042Y7856150D01*
X6520335Y7925475D01*
X6539634Y7974528D01*
X6622790Y8098979D01*
X6685018Y8249211D01*
X6698089Y8314923D01*
X6716742Y8408693D01*
X6716742Y8571308D01*
X6685019Y8730784D01*
X6685018Y8730785D01*
X6685018Y8730789D01*
X6652500Y8809294D01*
X7278353Y8809294D01*
X7310076Y8649818D01*
X7310079Y8649808D01*
X7372304Y8499582D01*
X7372306Y8499578D01*
X7462642Y8364381D01*
X7462648Y8364373D01*
X7577625Y8249396D01*
X7577633Y8249390D01*
X7712830Y8159054D01*
X7712834Y8159052D01*
X7863060Y8096827D01*
X7863065Y8096825D01*
X7863069Y8096825D01*
X7863070Y8096824D01*
X8022546Y8065101D01*
X8022549Y8065101D01*
X8185161Y8065101D01*
X8316425Y8091212D01*
X8344643Y8096825D01*
X8494245Y8158792D01*
X8494873Y8159052D01*
X8494877Y8159054D01*
X8597394Y8227554D01*
X8630079Y8249393D01*
X8687734Y8307049D01*
X8749055Y8340532D01*
X8818747Y8335548D01*
X8874681Y8293677D01*
X8899098Y8228213D01*
X8884247Y8159940D01*
X8878521Y8150483D01*
X8876210Y8147025D01*
X8876207Y8147020D01*
X8813982Y7996794D01*
X8813979Y7996784D01*
X8782257Y7837308D01*
X8782257Y7837305D01*
X8782257Y7674695D01*
X8782257Y7674693D01*
X8782256Y7674693D01*
X8813979Y7515217D01*
X8813982Y7515207D01*
X8876207Y7364981D01*
X8876209Y7364977D01*
X8966545Y7229780D01*
X8966551Y7229772D01*
X9081528Y7114795D01*
X9081536Y7114789D01*
X9216733Y7024453D01*
X9216737Y7024451D01*
X9344511Y6971526D01*
X9366968Y6962224D01*
X9366972Y6962224D01*
X9366973Y6962223D01*
X9526449Y6930500D01*
X9526452Y6930500D01*
X9689064Y6930500D01*
X9805176Y6953597D01*
X9836480Y6959824D01*
X9906071Y6953597D01*
X9942234Y6929898D01*
X9942805Y6930592D01*
X9947515Y6926727D01*
X10078618Y6839126D01*
X10078631Y6839119D01*
X10224302Y6778781D01*
X10224307Y6778779D01*
X10344289Y6754913D01*
X10378957Y6748017D01*
X10378960Y6748016D01*
X10378962Y6748016D01*
X10536648Y6748016D01*
X10536649Y6748017D01*
X10691301Y6778779D01*
X10823415Y6833502D01*
X10836976Y6839119D01*
X10836976Y6839120D01*
X10836983Y6839122D01*
X10968093Y6926727D01*
X11079593Y7038227D01*
X11167198Y7169337D01*
X11227541Y7315019D01*
X11249850Y7427173D01*
X11282234Y7489084D01*
X11342950Y7523658D01*
X11412720Y7519919D01*
X11469392Y7479053D01*
X11474569Y7471873D01*
X11563967Y7338080D01*
X11563970Y7338076D01*
X11675464Y7226582D01*
X11675468Y7226579D01*
X11806571Y7138978D01*
X11806584Y7138971D01*
X11952255Y7078633D01*
X11952260Y7078631D01*
X12106910Y7047869D01*
X12106913Y7047868D01*
X12106915Y7047868D01*
X12264601Y7047868D01*
X12264602Y7047869D01*
X12419254Y7078631D01*
X12537199Y7127486D01*
X12606665Y7134954D01*
X12653539Y7116026D01*
X12683110Y7096267D01*
X12683112Y7096266D01*
X12683114Y7096265D01*
X12823232Y7038227D01*
X12828792Y7035924D01*
X12944571Y7012894D01*
X12983442Y7005162D01*
X12983445Y7005161D01*
X12983447Y7005161D01*
X13141133Y7005161D01*
X13141134Y7005162D01*
X13295786Y7035924D01*
X13426942Y7090250D01*
X13441461Y7096264D01*
X13441461Y7096265D01*
X13441468Y7096267D01*
X13572578Y7183872D01*
X13684078Y7295372D01*
X13771683Y7426482D01*
X13832026Y7572164D01*
X13862789Y7726819D01*
X13862789Y7884503D01*
X13862789Y7884506D01*
X13862788Y7884508D01*
X13832267Y8037949D01*
X13838494Y8107540D01*
X13881357Y8162717D01*
X13947247Y8185962D01*
X13953884Y8186140D01*
X21996905Y8186140D01*
X22063944Y8166455D01*
X22109699Y8113651D01*
X22119643Y8044493D01*
X22100006Y7993248D01*
X22090610Y7979187D01*
X22090602Y7979173D01*
X22030264Y7833502D01*
X22030261Y7833490D01*
X21999500Y7678847D01*
X21999500Y7656567D01*
X21979815Y7589528D01*
X21927011Y7543773D01*
X21857853Y7533829D01*
X21851309Y7534950D01*
X21773134Y7550500D01*
X21773130Y7550500D01*
X21615446Y7550500D01*
X21615443Y7550500D01*
X21460798Y7519739D01*
X21460786Y7519736D01*
X21315115Y7459398D01*
X21315102Y7459391D01*
X21183999Y7371790D01*
X21183995Y7371787D01*
X21072501Y7260293D01*
X21072498Y7260289D01*
X20984897Y7129186D01*
X20984890Y7129173D01*
X20935104Y7008975D01*
X20891264Y6954571D01*
X20844735Y6934810D01*
X20703592Y6906735D01*
X20703582Y6906732D01*
X20557911Y6846394D01*
X20557898Y6846387D01*
X20426795Y6758786D01*
X20426791Y6758783D01*
X20315297Y6647289D01*
X20315294Y6647285D01*
X20227693Y6516182D01*
X20227686Y6516169D01*
X20167348Y6370498D01*
X20167345Y6370486D01*
X20136584Y6215843D01*
X20136584Y6058150D01*
X20167345Y5903507D01*
X20167348Y5903495D01*
X20227686Y5757824D01*
X20227693Y5757811D01*
X20315294Y5626708D01*
X20315297Y5626704D01*
X20426791Y5515210D01*
X20426795Y5515207D01*
X20557898Y5427606D01*
X20557911Y5427599D01*
X20697607Y5369736D01*
X20703587Y5367259D01*
X20858237Y5336497D01*
X20858240Y5336496D01*
X20858242Y5336496D01*
X21015928Y5336496D01*
X21015929Y5336497D01*
X21170581Y5367259D01*
X21316263Y5427602D01*
X21447373Y5515207D01*
X21558873Y5626707D01*
X21646478Y5757817D01*
X21696269Y5878026D01*
X21696930Y5878847D01*
X22949500Y5878847D01*
X22949500Y5721154D01*
X22980261Y5566511D01*
X22980264Y5566499D01*
X23040602Y5420828D01*
X23040609Y5420815D01*
X23128210Y5289712D01*
X23128213Y5289708D01*
X23239707Y5178214D01*
X23239711Y5178211D01*
X23370814Y5090610D01*
X23370827Y5090603D01*
X23516498Y5030265D01*
X23516503Y5030263D01*
X23668644Y5000000D01*
X23671153Y4999501D01*
X23671156Y4999500D01*
X23671158Y4999500D01*
X23828844Y4999500D01*
X23828845Y4999501D01*
X23983497Y5030263D01*
X24096166Y5076933D01*
X24129172Y5090603D01*
X24129172Y5090604D01*
X24129179Y5090606D01*
X24260289Y5178211D01*
X24371789Y5289711D01*
X24459394Y5420821D01*
X24519737Y5566503D01*
X24550500Y5721158D01*
X24550500Y5878842D01*
X24550500Y5878845D01*
X24550499Y5878847D01*
X24543136Y5915861D01*
X24519737Y6033497D01*
X24513145Y6049412D01*
X24459397Y6179173D01*
X24459390Y6179186D01*
X24371789Y6310289D01*
X24371786Y6310293D01*
X24260292Y6421787D01*
X24260288Y6421790D01*
X24129185Y6509391D01*
X24129172Y6509398D01*
X23983501Y6569736D01*
X23983489Y6569739D01*
X23828845Y6600500D01*
X23828842Y6600500D01*
X23671158Y6600500D01*
X23671155Y6600500D01*
X23516510Y6569739D01*
X23516498Y6569736D01*
X23370827Y6509398D01*
X23370814Y6509391D01*
X23239711Y6421790D01*
X23239707Y6421787D01*
X23128213Y6310293D01*
X23128210Y6310289D01*
X23040609Y6179186D01*
X23040602Y6179173D01*
X22980264Y6033502D01*
X22980261Y6033490D01*
X22949500Y5878847D01*
X21696930Y5878847D01*
X21699034Y5881458D01*
X21699808Y5885803D01*
X21720763Y5908421D01*
X21740107Y5932425D01*
X21745139Y5934732D01*
X21747294Y5937056D01*
X21765474Y5944049D01*
X21779868Y5950643D01*
X21783215Y5951507D01*
X21927785Y5980263D01*
X22073467Y6040606D01*
X22204577Y6128211D01*
X22316077Y6239711D01*
X22403682Y6370821D01*
X22464025Y6516503D01*
X22494788Y6671158D01*
X22494788Y6693434D01*
X22514473Y6760473D01*
X22567277Y6806228D01*
X22636435Y6816172D01*
X22642968Y6815054D01*
X22678063Y6808073D01*
X22721156Y6799500D01*
X22721158Y6799500D01*
X22878844Y6799500D01*
X22878845Y6799501D01*
X23033497Y6830263D01*
X23156724Y6881305D01*
X23179172Y6890603D01*
X23179172Y6890604D01*
X23179179Y6890606D01*
X23310289Y6978211D01*
X23421789Y7089711D01*
X23509394Y7220821D01*
X23569737Y7366503D01*
X23600500Y7521158D01*
X23600500Y7678842D01*
X23600500Y7678845D01*
X23600499Y7678847D01*
X23591074Y7726229D01*
X23569737Y7833497D01*
X23568160Y7837305D01*
X23509397Y7979173D01*
X23509389Y7979187D01*
X23499994Y7993248D01*
X23479115Y8059925D01*
X23497599Y8127305D01*
X23549577Y8173996D01*
X23603095Y8186140D01*
X23899585Y8186140D01*
X23966624Y8166455D01*
X24012379Y8113651D01*
X24022323Y8044493D01*
X24021202Y8037949D01*
X23999500Y7928847D01*
X23999500Y7771154D01*
X24030261Y7616511D01*
X24030264Y7616499D01*
X24090602Y7470828D01*
X24090609Y7470815D01*
X24178210Y7339712D01*
X24178213Y7339708D01*
X24289707Y7228214D01*
X24289711Y7228211D01*
X24420814Y7140610D01*
X24420827Y7140603D01*
X24552387Y7086110D01*
X24566503Y7080263D01*
X24721153Y7049501D01*
X24721156Y7049500D01*
X24721158Y7049500D01*
X24878844Y7049500D01*
X24878845Y7049501D01*
X25033497Y7080263D01*
X25151592Y7129179D01*
X25179172Y7140603D01*
X25179172Y7140604D01*
X25179179Y7140606D01*
X25179184Y7140610D01*
X25179187Y7140611D01*
X25241327Y7182132D01*
X25308004Y7203011D01*
X25375385Y7184527D01*
X25422075Y7132549D01*
X25433252Y7063579D01*
X25431836Y7054840D01*
X25399500Y6892279D01*
X25399500Y6892274D01*
X25399500Y6729664D01*
X25399500Y6729662D01*
X25399499Y6729662D01*
X25431222Y6570186D01*
X25431225Y6570176D01*
X25493450Y6419950D01*
X25493452Y6419946D01*
X25583788Y6284749D01*
X25583794Y6284741D01*
X25698771Y6169764D01*
X25698779Y6169758D01*
X25833976Y6079422D01*
X25833980Y6079420D01*
X25944866Y6033490D01*
X25984211Y6017193D01*
X25984215Y6017193D01*
X25984216Y6017192D01*
X26143692Y5985469D01*
X26143695Y5985469D01*
X26306307Y5985469D01*
X26413598Y6006812D01*
X26465789Y6017193D01*
X26589537Y6068451D01*
X26616019Y6079420D01*
X26616023Y6079422D01*
X26734804Y6158789D01*
X26751225Y6169761D01*
X26866208Y6284744D01*
X26926181Y6374500D01*
X26956547Y6419946D01*
X26956549Y6419950D01*
X26996409Y6516182D01*
X27018776Y6570180D01*
X27032075Y6637037D01*
X27050500Y6729662D01*
X27050500Y6793605D01*
X27749499Y6793605D01*
X27781222Y6634129D01*
X27781225Y6634119D01*
X27843450Y6483893D01*
X27843452Y6483889D01*
X27933788Y6348692D01*
X27933794Y6348684D01*
X28048771Y6233707D01*
X28048779Y6233701D01*
X28183976Y6143365D01*
X28183980Y6143363D01*
X28313509Y6089711D01*
X28334211Y6081136D01*
X28334215Y6081136D01*
X28334216Y6081135D01*
X28493692Y6049412D01*
X28493695Y6049412D01*
X28656307Y6049412D01*
X28763598Y6070755D01*
X28815789Y6081136D01*
X28966021Y6143364D01*
X28966023Y6143365D01*
X29040874Y6193379D01*
X29101225Y6233704D01*
X29216208Y6348687D01*
X29259371Y6413285D01*
X29312981Y6458089D01*
X29382305Y6466798D01*
X29445333Y6436644D01*
X29465574Y6413285D01*
X29558791Y6273776D01*
X29558794Y6273772D01*
X29673771Y6158795D01*
X29673779Y6158789D01*
X29808976Y6068453D01*
X29808980Y6068451D01*
X29934376Y6016511D01*
X29959211Y6006224D01*
X29959215Y6006224D01*
X29959216Y6006223D01*
X30118692Y5974500D01*
X30118695Y5974500D01*
X30281307Y5974500D01*
X30408132Y5999728D01*
X30440789Y6006224D01*
X30566150Y6058150D01*
X30591019Y6068451D01*
X30591023Y6068453D01*
X30680457Y6128211D01*
X30726225Y6158792D01*
X30841208Y6273775D01*
X30906052Y6370821D01*
X30931547Y6408977D01*
X30931549Y6408981D01*
X30962577Y6483889D01*
X30993776Y6559211D01*
X31007695Y6629186D01*
X31025500Y6718693D01*
X31025500Y6881308D01*
X30993777Y7040784D01*
X30993776Y7040785D01*
X30993776Y7040789D01*
X30989233Y7051758D01*
X30978012Y7078847D01*
X32999500Y7078847D01*
X32999500Y6921154D01*
X33030261Y6766511D01*
X33030264Y6766499D01*
X33090602Y6620828D01*
X33090609Y6620815D01*
X33178210Y6489712D01*
X33178213Y6489708D01*
X33289707Y6378214D01*
X33289711Y6378211D01*
X33420814Y6290610D01*
X33420827Y6290603D01*
X33558203Y6233701D01*
X33566503Y6230263D01*
X33701039Y6203502D01*
X33721153Y6199501D01*
X33721156Y6199500D01*
X33721158Y6199500D01*
X33878844Y6199500D01*
X33878845Y6199501D01*
X34033497Y6230263D01*
X34156724Y6281305D01*
X34179172Y6290603D01*
X34179172Y6290604D01*
X34179179Y6290606D01*
X34310289Y6378211D01*
X34421789Y6489711D01*
X34509394Y6620821D01*
X34512854Y6629173D01*
X34524256Y6656702D01*
X34569737Y6766503D01*
X34600500Y6921158D01*
X34600500Y7078842D01*
X34600500Y7078845D01*
X34600499Y7078847D01*
X34597137Y7095749D01*
X34569737Y7233497D01*
X34567760Y7238271D01*
X34509397Y7379173D01*
X34509390Y7379186D01*
X34421789Y7510289D01*
X34421786Y7510293D01*
X34310292Y7621787D01*
X34310288Y7621790D01*
X34179185Y7709391D01*
X34179172Y7709398D01*
X34033501Y7769736D01*
X34033489Y7769739D01*
X33878845Y7800500D01*
X33878842Y7800500D01*
X33721158Y7800500D01*
X33721155Y7800500D01*
X33566510Y7769739D01*
X33566498Y7769736D01*
X33420827Y7709398D01*
X33420814Y7709391D01*
X33289711Y7621790D01*
X33289707Y7621787D01*
X33178213Y7510293D01*
X33178210Y7510289D01*
X33090609Y7379186D01*
X33090602Y7379173D01*
X33030264Y7233502D01*
X33030261Y7233490D01*
X32999500Y7078847D01*
X30978012Y7078847D01*
X30931549Y7191020D01*
X30931547Y7191024D01*
X30841211Y7326221D01*
X30841205Y7326229D01*
X30726228Y7441206D01*
X30726220Y7441212D01*
X30591023Y7531548D01*
X30591019Y7531550D01*
X30440793Y7593775D01*
X30440783Y7593778D01*
X30281307Y7625500D01*
X30281305Y7625500D01*
X30118695Y7625500D01*
X30118693Y7625500D01*
X29959216Y7593778D01*
X29959206Y7593775D01*
X29808980Y7531550D01*
X29808976Y7531548D01*
X29673779Y7441212D01*
X29673771Y7441206D01*
X29558794Y7326229D01*
X29558791Y7326225D01*
X29515629Y7261628D01*
X29462017Y7216823D01*
X29392692Y7208116D01*
X29329664Y7238271D01*
X29309425Y7261628D01*
X29216208Y7401138D01*
X29101228Y7516118D01*
X29101220Y7516124D01*
X28966023Y7606460D01*
X28966019Y7606462D01*
X28815793Y7668687D01*
X28815783Y7668690D01*
X28656307Y7700412D01*
X28656305Y7700412D01*
X28493695Y7700412D01*
X28493693Y7700412D01*
X28334216Y7668690D01*
X28334206Y7668687D01*
X28183980Y7606462D01*
X28183976Y7606460D01*
X28048779Y7516124D01*
X28048771Y7516118D01*
X27933794Y7401141D01*
X27933788Y7401133D01*
X27843452Y7265936D01*
X27843450Y7265932D01*
X27781225Y7115706D01*
X27781222Y7115696D01*
X27749500Y6956220D01*
X27749500Y6956217D01*
X27749500Y6793607D01*
X27749500Y6793605D01*
X27749499Y6793605D01*
X27050500Y6793605D01*
X27050500Y6892277D01*
X27050499Y6892279D01*
X27041382Y6938118D01*
X27018777Y7051753D01*
X27018776Y7051754D01*
X27018776Y7051758D01*
X27007645Y7078631D01*
X26956549Y7201989D01*
X26956547Y7201993D01*
X26866211Y7337190D01*
X26866205Y7337198D01*
X26751228Y7452175D01*
X26751220Y7452181D01*
X26616023Y7542517D01*
X26616019Y7542519D01*
X26465793Y7604744D01*
X26465783Y7604747D01*
X26306307Y7636469D01*
X26306305Y7636469D01*
X26143695Y7636469D01*
X26143693Y7636469D01*
X25984216Y7604747D01*
X25984206Y7604744D01*
X25833982Y7542519D01*
X25761171Y7493869D01*
X25694493Y7472992D01*
X25627113Y7491477D01*
X25580424Y7543457D01*
X25569248Y7612427D01*
X25570664Y7621164D01*
X25573709Y7636469D01*
X25584514Y7690789D01*
X25600500Y7771156D01*
X25600500Y7917060D01*
X25620185Y7984099D01*
X25636814Y8004737D01*
X25721789Y8089711D01*
X25809394Y8220821D01*
X25812178Y8227541D01*
X25854137Y8328842D01*
X25869737Y8366503D01*
X25900500Y8521158D01*
X25900500Y8550500D01*
X25920185Y8617539D01*
X25972989Y8663294D01*
X26024500Y8674500D01*
X26181307Y8674500D01*
X26303472Y8698801D01*
X26340789Y8706224D01*
X26471314Y8760289D01*
X26491019Y8768451D01*
X26491023Y8768453D01*
X26583139Y8830003D01*
X26626225Y8858792D01*
X26678432Y8910999D01*
X26739755Y8944485D01*
X26809447Y8939501D01*
X26853795Y8911000D01*
X26898771Y8866024D01*
X26898779Y8866018D01*
X27033976Y8775682D01*
X27033980Y8775680D01*
X27171560Y8718693D01*
X27184211Y8713453D01*
X27184215Y8713453D01*
X27184216Y8713452D01*
X27343692Y8681729D01*
X27343695Y8681729D01*
X27506307Y8681729D01*
X27629457Y8706226D01*
X27665789Y8713453D01*
X27678440Y8718693D01*
X29924499Y8718693D01*
X29956222Y8559217D01*
X29956225Y8559207D01*
X30018450Y8408981D01*
X30018452Y8408977D01*
X30108788Y8273780D01*
X30108794Y8273772D01*
X30223771Y8158795D01*
X30223779Y8158789D01*
X30358976Y8068453D01*
X30358980Y8068451D01*
X30470540Y8022242D01*
X30509211Y8006224D01*
X30509215Y8006224D01*
X30509216Y8006223D01*
X30668692Y7974500D01*
X30668695Y7974500D01*
X30831307Y7974500D01*
X30943382Y7996794D01*
X30990789Y8006224D01*
X31141021Y8068452D01*
X31141023Y8068453D01*
X31229101Y8127305D01*
X31276225Y8158792D01*
X31277373Y8159940D01*
X31280615Y8163181D01*
X31341938Y8196666D01*
X31368296Y8199500D01*
X36049903Y8199500D01*
X36116942Y8179815D01*
X36137584Y8163181D01*
X37210515Y7090250D01*
X37244000Y7028927D01*
X37244451Y7026761D01*
X37252224Y6987684D01*
X37252226Y6987676D01*
X37314452Y6837448D01*
X37314454Y6837444D01*
X37404790Y6702247D01*
X37404796Y6702239D01*
X37519773Y6587262D01*
X37519781Y6587256D01*
X37654978Y6496920D01*
X37654982Y6496918D01*
X37790479Y6440794D01*
X37805213Y6434691D01*
X37805217Y6434691D01*
X37805218Y6434690D01*
X37964694Y6402967D01*
X37964697Y6402967D01*
X38127309Y6402967D01*
X38234600Y6424310D01*
X38286791Y6434691D01*
X38386945Y6476177D01*
X38437021Y6496918D01*
X38437025Y6496920D01*
X38546675Y6570186D01*
X38572227Y6587259D01*
X38687210Y6702242D01*
X38735826Y6775001D01*
X38777549Y6837444D01*
X38777551Y6837448D01*
X38806249Y6906732D01*
X38839778Y6987678D01*
X38854876Y7063579D01*
X38865839Y7118693D01*
X39504499Y7118693D01*
X39536222Y6959217D01*
X39536225Y6959207D01*
X39598450Y6808981D01*
X39598452Y6808977D01*
X39688788Y6673780D01*
X39688794Y6673772D01*
X39803771Y6558795D01*
X39803779Y6558789D01*
X39938976Y6468453D01*
X39938980Y6468451D01*
X40089206Y6406226D01*
X40089211Y6406224D01*
X40089215Y6406224D01*
X40089216Y6406223D01*
X40248692Y6374500D01*
X40248695Y6374500D01*
X40411307Y6374500D01*
X40554415Y6402967D01*
X40570789Y6406224D01*
X40670943Y6447710D01*
X40721019Y6468451D01*
X40721023Y6468453D01*
X40799901Y6521158D01*
X40856225Y6558792D01*
X40971208Y6673775D01*
X41029017Y6760293D01*
X41061547Y6808977D01*
X41061549Y6808981D01*
X41095359Y6890606D01*
X41123776Y6959211D01*
X41136754Y7024453D01*
X41155500Y7118693D01*
X41155500Y7281308D01*
X41123778Y7440780D01*
X41123777Y7440784D01*
X41123776Y7440789D01*
X41123773Y7440796D01*
X41123597Y7441377D01*
X41123594Y7441706D01*
X41122588Y7446763D01*
X41123547Y7446954D01*
X41122972Y7511244D01*
X41160218Y7570358D01*
X41223512Y7599951D01*
X41292756Y7590627D01*
X41311148Y7580478D01*
X41370814Y7540610D01*
X41370827Y7540603D01*
X41516498Y7480265D01*
X41516503Y7480263D01*
X41657680Y7452181D01*
X41671153Y7449501D01*
X41671156Y7449500D01*
X41671158Y7449500D01*
X41828844Y7449500D01*
X41828845Y7449501D01*
X41983497Y7480263D01*
X42106724Y7531305D01*
X42129172Y7540603D01*
X42129172Y7540604D01*
X42129179Y7540606D01*
X42260289Y7628211D01*
X42371789Y7739711D01*
X42459394Y7870821D01*
X42465063Y7884506D01*
X42484548Y7931548D01*
X42519737Y8016503D01*
X42550500Y8171158D01*
X42550500Y8328842D01*
X42550500Y8328845D01*
X42550499Y8328847D01*
X42543431Y8364381D01*
X42519737Y8483497D01*
X42513075Y8499580D01*
X42459397Y8629173D01*
X42459390Y8629186D01*
X42371789Y8760289D01*
X42371786Y8760293D01*
X42260292Y8871787D01*
X42260288Y8871790D01*
X42129185Y8959391D01*
X42129172Y8959398D01*
X41983501Y9019736D01*
X41983489Y9019739D01*
X41828845Y9050500D01*
X41828842Y9050500D01*
X41671158Y9050500D01*
X41671155Y9050500D01*
X41516510Y9019739D01*
X41516498Y9019736D01*
X41370827Y8959398D01*
X41370814Y8959391D01*
X41239711Y8871790D01*
X41239707Y8871787D01*
X41128213Y8760293D01*
X41128210Y8760289D01*
X41040609Y8629186D01*
X41040602Y8629173D01*
X40980264Y8483502D01*
X40980261Y8483490D01*
X40949500Y8328847D01*
X40949500Y8171154D01*
X40981085Y8012366D01*
X40974858Y7942775D01*
X40931995Y7887597D01*
X40866105Y7864353D01*
X40798108Y7880421D01*
X40790578Y7885072D01*
X40769974Y7898839D01*
X40721021Y7931548D01*
X40721018Y7931550D01*
X40721017Y7931550D01*
X40570793Y7993775D01*
X40570783Y7993778D01*
X40411307Y8025500D01*
X40411305Y8025500D01*
X40248695Y8025500D01*
X40248693Y8025500D01*
X40089216Y7993778D01*
X40089206Y7993775D01*
X39938980Y7931550D01*
X39938976Y7931548D01*
X39803779Y7841212D01*
X39803771Y7841206D01*
X39688794Y7726229D01*
X39688788Y7726221D01*
X39598452Y7591024D01*
X39598450Y7591020D01*
X39536225Y7440794D01*
X39536222Y7440784D01*
X39504500Y7281308D01*
X39504500Y7281305D01*
X39504500Y7118695D01*
X39504500Y7118693D01*
X39504499Y7118693D01*
X38865839Y7118693D01*
X38871502Y7147160D01*
X38871502Y7309775D01*
X38839779Y7469251D01*
X38839778Y7469252D01*
X38839778Y7469256D01*
X38820743Y7515211D01*
X38777551Y7619487D01*
X38777549Y7619491D01*
X38687213Y7754688D01*
X38687207Y7754696D01*
X38572230Y7869673D01*
X38572222Y7869679D01*
X38437025Y7960015D01*
X38437021Y7960017D01*
X38286795Y8022242D01*
X38286785Y8022245D01*
X38127309Y8053967D01*
X38127307Y8053967D01*
X37996630Y8053967D01*
X37929591Y8073652D01*
X37908949Y8090286D01*
X36837590Y9161645D01*
X36837588Y9161648D01*
X36718717Y9280519D01*
X36718716Y9280520D01*
X36631904Y9330640D01*
X36631904Y9330641D01*
X36631900Y9330642D01*
X36581785Y9359577D01*
X36429057Y9400501D01*
X36270943Y9400501D01*
X36263347Y9400501D01*
X36263331Y9400500D01*
X31368296Y9400500D01*
X31301257Y9420185D01*
X31280615Y9436819D01*
X31276228Y9441206D01*
X31276220Y9441212D01*
X31141023Y9531548D01*
X31141019Y9531550D01*
X30990793Y9593775D01*
X30990783Y9593778D01*
X30831307Y9625500D01*
X30831305Y9625500D01*
X30668695Y9625500D01*
X30668693Y9625500D01*
X30509216Y9593778D01*
X30509206Y9593775D01*
X30358980Y9531550D01*
X30358976Y9531548D01*
X30223779Y9441212D01*
X30223771Y9441206D01*
X30108794Y9326229D01*
X30108788Y9326221D01*
X30018452Y9191024D01*
X30018450Y9191020D01*
X29956225Y9040794D01*
X29956222Y9040784D01*
X29924500Y8881308D01*
X29924500Y8881305D01*
X29924500Y8718695D01*
X29924500Y8718693D01*
X29924499Y8718693D01*
X27678440Y8718693D01*
X27816021Y8775681D01*
X27816023Y8775682D01*
X27940410Y8858795D01*
X27951225Y8866021D01*
X27996204Y8911000D01*
X28060283Y8975078D01*
X28066205Y8981001D01*
X28066208Y8981004D01*
X28142820Y9095662D01*
X28156547Y9116206D01*
X28156549Y9116210D01*
X28218774Y9266436D01*
X28218776Y9266440D01*
X28235267Y9349342D01*
X28250500Y9425922D01*
X28250500Y9588537D01*
X28218777Y9748013D01*
X28218776Y9748014D01*
X28218776Y9748018D01*
X28172272Y9860289D01*
X28156549Y9898249D01*
X28156547Y9898253D01*
X28066211Y10033450D01*
X28066205Y10033458D01*
X28016493Y10083170D01*
X27983008Y10144493D01*
X27987992Y10214185D01*
X28029864Y10270118D01*
X28095328Y10294535D01*
X28128366Y10292468D01*
X28218693Y10274500D01*
X28218695Y10274500D01*
X28381307Y10274500D01*
X28488598Y10295843D01*
X28540789Y10306224D01*
X28691021Y10368452D01*
X28691023Y10368453D01*
X28803268Y10443453D01*
X28826225Y10458792D01*
X28941208Y10573775D01*
X29028464Y10704363D01*
X29031547Y10708977D01*
X29031549Y10708981D01*
X29093774Y10859207D01*
X29093776Y10859211D01*
X29121387Y10998018D01*
X29125500Y11018693D01*
X29125500Y11181308D01*
X29093777Y11340784D01*
X29093776Y11340785D01*
X29093776Y11340789D01*
X29093774Y11340794D01*
X29031549Y11491020D01*
X29031547Y11491024D01*
X28941211Y11626221D01*
X28941205Y11626229D01*
X28826228Y11741206D01*
X28826220Y11741212D01*
X28691023Y11831548D01*
X28691019Y11831550D01*
X28540793Y11893775D01*
X28540783Y11893778D01*
X28381307Y11925500D01*
X28381305Y11925500D01*
X28218695Y11925500D01*
X28218693Y11925500D01*
X28059216Y11893778D01*
X28059206Y11893775D01*
X27908980Y11831550D01*
X27908976Y11831548D01*
X27773779Y11741212D01*
X27773771Y11741206D01*
X27658794Y11626229D01*
X27658788Y11626221D01*
X27568452Y11491024D01*
X27568450Y11491020D01*
X27506225Y11340794D01*
X27506222Y11340784D01*
X27474500Y11181308D01*
X27474500Y11181305D01*
X27474500Y11018695D01*
X27474500Y11018693D01*
X27474499Y11018693D01*
X27506222Y10859217D01*
X27506225Y10859207D01*
X27568450Y10708981D01*
X27568452Y10708977D01*
X27658788Y10573780D01*
X27658794Y10573772D01*
X27708506Y10524060D01*
X27741991Y10462737D01*
X27737007Y10393045D01*
X27695135Y10337112D01*
X27629671Y10312695D01*
X27596634Y10314762D01*
X27506308Y10332729D01*
X27506305Y10332729D01*
X27343695Y10332729D01*
X27343693Y10332729D01*
X27184216Y10301007D01*
X27184206Y10301004D01*
X27033980Y10238779D01*
X27033976Y10238777D01*
X26898779Y10148441D01*
X26898770Y10148434D01*
X26846565Y10096229D01*
X26785242Y10062745D01*
X26715550Y10067730D01*
X26671204Y10096230D01*
X26626228Y10141206D01*
X26626220Y10141212D01*
X26491023Y10231548D01*
X26491019Y10231550D01*
X26340793Y10293775D01*
X26340783Y10293778D01*
X26181307Y10325500D01*
X26181305Y10325500D01*
X26018695Y10325500D01*
X26018693Y10325500D01*
X25859216Y10293778D01*
X25859206Y10293775D01*
X25708980Y10231550D01*
X25708976Y10231548D01*
X25573779Y10141212D01*
X25573771Y10141206D01*
X25458794Y10026229D01*
X25458789Y10026223D01*
X25401366Y9940284D01*
X25347754Y9895480D01*
X25278429Y9886773D01*
X25215402Y9916928D01*
X25210584Y9921495D01*
X25160292Y9971787D01*
X25160288Y9971790D01*
X25029185Y10059391D01*
X25029172Y10059398D01*
X24883501Y10119736D01*
X24883489Y10119739D01*
X24728845Y10150500D01*
X24728842Y10150500D01*
X24571158Y10150500D01*
X24571155Y10150500D01*
X24416510Y10119739D01*
X24416498Y10119736D01*
X24270827Y10059398D01*
X24270814Y10059391D01*
X24139711Y9971790D01*
X24139707Y9971787D01*
X24028213Y9860293D01*
X24028210Y9860289D01*
X23940609Y9729186D01*
X23940602Y9729173D01*
X23880264Y9583502D01*
X23880261Y9583490D01*
X23861058Y9486949D01*
X23828673Y9425038D01*
X23767958Y9390464D01*
X23739441Y9387140D01*
X13210698Y9387140D01*
X13210682Y9387141D01*
X13203086Y9387141D01*
X13044972Y9387141D01*
X12892244Y9346217D01*
X12892243Y9346217D01*
X12892241Y9346216D01*
X12856696Y9325693D01*
X12856693Y9325692D01*
X12755319Y9267165D01*
X12755311Y9267159D01*
X12171096Y8682943D01*
X12109773Y8649458D01*
X12107607Y8649007D01*
X11952265Y8618107D01*
X11952255Y8618104D01*
X11806584Y8557766D01*
X11806571Y8557759D01*
X11675468Y8470158D01*
X11675464Y8470155D01*
X11563970Y8358661D01*
X11563967Y8358657D01*
X11476366Y8227554D01*
X11476359Y8227541D01*
X11416021Y8081870D01*
X11416018Y8081860D01*
X11393710Y7969711D01*
X11361325Y7907800D01*
X11300609Y7873226D01*
X11230839Y7876967D01*
X11174168Y7917833D01*
X11168991Y7925012D01*
X11079593Y8058805D01*
X11079590Y8058809D01*
X10968096Y8170303D01*
X10968092Y8170306D01*
X10836989Y8257907D01*
X10836976Y8257914D01*
X10691305Y8318252D01*
X10691293Y8318255D01*
X10536649Y8349016D01*
X10536646Y8349016D01*
X10378962Y8349016D01*
X10378957Y8349016D01*
X10279829Y8329298D01*
X10210238Y8335525D01*
X10167957Y8363234D01*
X10133985Y8397206D01*
X10133977Y8397212D01*
X9998780Y8487548D01*
X9998776Y8487550D01*
X9848550Y8549775D01*
X9848540Y8549778D01*
X9689064Y8581500D01*
X9689062Y8581500D01*
X9526452Y8581500D01*
X9526450Y8581500D01*
X9366973Y8549778D01*
X9366963Y8549775D01*
X9216737Y8487550D01*
X9216733Y8487548D01*
X9081536Y8397212D01*
X9081533Y8397210D01*
X9023877Y8339554D01*
X8962553Y8306070D01*
X8892862Y8311055D01*
X8836928Y8352926D01*
X8812512Y8418391D01*
X8827364Y8486664D01*
X8833090Y8496121D01*
X8835402Y8499580D01*
X8897630Y8649812D01*
X8917967Y8752051D01*
X8929354Y8809294D01*
X8929354Y8971906D01*
X8927543Y8981009D01*
X8918579Y9026073D01*
X8924805Y9095662D01*
X8952513Y9137944D01*
X9028706Y9214136D01*
X9096435Y9315500D01*
X9119045Y9349338D01*
X9119047Y9349342D01*
X9146999Y9416825D01*
X9181274Y9499572D01*
X9208257Y9635222D01*
X9212998Y9659054D01*
X9212998Y9821669D01*
X9181275Y9981145D01*
X9181274Y9981146D01*
X9181274Y9981150D01*
X9162604Y10026223D01*
X9119047Y10131381D01*
X9119045Y10131385D01*
X9028709Y10266582D01*
X9028703Y10266590D01*
X8913726Y10381567D01*
X8913718Y10381573D01*
X8778521Y10471909D01*
X8778517Y10471911D01*
X8628291Y10534136D01*
X8628281Y10534139D01*
X8468805Y10565861D01*
X8468803Y10565861D01*
X8306193Y10565861D01*
X8306191Y10565861D01*
X8146714Y10534139D01*
X8146704Y10534136D01*
X7996478Y10471911D01*
X7996474Y10471909D01*
X7861277Y10381573D01*
X7861269Y10381567D01*
X7746292Y10266590D01*
X7746286Y10266582D01*
X7655950Y10131385D01*
X7655948Y10131381D01*
X7593723Y9981155D01*
X7593720Y9981145D01*
X7561998Y9821669D01*
X7561998Y9659055D01*
X7572772Y9604891D01*
X7566545Y9535299D01*
X7538837Y9493018D01*
X7462644Y9416825D01*
X7462642Y9416822D01*
X7372306Y9281625D01*
X7372304Y9281621D01*
X7310079Y9131395D01*
X7310076Y9131385D01*
X7278354Y8971909D01*
X7278354Y8971906D01*
X7278354Y8809296D01*
X7278354Y8809294D01*
X7278353Y8809294D01*
X6652500Y8809294D01*
X6622790Y8881021D01*
X6570423Y8959394D01*
X6532450Y9016226D01*
X6417470Y9131206D01*
X6417462Y9131212D01*
X6282265Y9221548D01*
X6282261Y9221550D01*
X6132035Y9283775D01*
X6132025Y9283778D01*
X5972549Y9315500D01*
X5972547Y9315500D01*
X5809937Y9315500D01*
X5809935Y9315500D01*
X5650458Y9283778D01*
X5650448Y9283775D01*
X5500222Y9221550D01*
X5500218Y9221548D01*
X5365021Y9131212D01*
X5365013Y9131206D01*
X5250036Y9016229D01*
X5250030Y9016221D01*
X5159694Y8881024D01*
X5159692Y8881020D01*
X5097467Y8730794D01*
X5097464Y8730784D01*
X5065742Y8571308D01*
X5065742Y8571305D01*
X5065742Y8408695D01*
X5065742Y8408693D01*
X5065741Y8408693D01*
X2717054Y8408693D01*
X2727431Y8414850D01*
X2758096Y8418702D01*
X2806307Y8418702D01*
X2913598Y8440045D01*
X2965789Y8450426D01*
X3116021Y8512654D01*
X3116023Y8512655D01*
X3219057Y8581500D01*
X3251225Y8602994D01*
X3277417Y8629186D01*
X3313310Y8665078D01*
X3366205Y8717974D01*
X3366208Y8717977D01*
X3456548Y8853181D01*
X3458874Y8858795D01*
X3494367Y8944485D01*
X3518776Y9003413D01*
X3537820Y9099153D01*
X3550500Y9162895D01*
X3550500Y9325510D01*
X3518777Y9484986D01*
X3518776Y9484987D01*
X3518776Y9484991D01*
X3499491Y9531550D01*
X3456549Y9635222D01*
X3456547Y9635226D01*
X3366211Y9770423D01*
X3366205Y9770431D01*
X3251228Y9885408D01*
X3251220Y9885414D01*
X3116023Y9975750D01*
X3116019Y9975752D01*
X2965793Y10037977D01*
X2965783Y10037980D01*
X2806307Y10069702D01*
X2806305Y10069702D01*
X2643695Y10069702D01*
X2643693Y10069702D01*
X2484216Y10037980D01*
X2484206Y10037977D01*
X2333980Y9975752D01*
X2333976Y9975750D01*
X2198779Y9885414D01*
X2198771Y9885408D01*
X2083794Y9770431D01*
X2083788Y9770423D01*
X1993452Y9635226D01*
X1993450Y9635222D01*
X1931225Y9484996D01*
X1931222Y9484986D01*
X1899500Y9325510D01*
X1899500Y9325507D01*
X1899500Y9162897D01*
X1899500Y9162895D01*
X1899499Y9162895D01*
X1931222Y9003419D01*
X1931225Y9003409D01*
X1948397Y8961952D01*
X1955866Y8892482D01*
X1924590Y8830003D01*
X1864501Y8794352D01*
X1833836Y8790500D01*
X1651457Y8790500D01*
X1458170Y8752053D01*
X1458160Y8752050D01*
X1276092Y8676636D01*
X1276079Y8676629D01*
X1112218Y8567140D01*
X1112214Y8567137D01*
X972863Y8427786D01*
X972860Y8427782D01*
X863371Y8263921D01*
X863364Y8263908D01*
X787950Y8081840D01*
X787947Y8081830D01*
X749500Y7888544D01*
X749500Y7888541D01*
X749500Y7691459D01*
X749500Y7691457D01*
X749499Y7691457D01*
X500500Y7691457D01*
X500500Y9762094D01*
X520185Y9829133D01*
X568205Y9872579D01*
X661694Y9920213D01*
X822464Y10037019D01*
X962981Y10177536D01*
X1079787Y10338306D01*
X1170005Y10515368D01*
X1231413Y10704364D01*
X1262500Y10900639D01*
X1262500Y11099361D01*
X1231413Y11295636D01*
X1191218Y11419346D01*
X1170006Y11484630D01*
X1170005Y11484633D01*
X1120990Y11580828D01*
X1079787Y11661694D01*
X1043199Y11712053D01*
X7148706Y11712053D01*
X7180429Y11552577D01*
X7180432Y11552567D01*
X7242657Y11402341D01*
X7242659Y11402337D01*
X7332995Y11267140D01*
X7333001Y11267132D01*
X7447978Y11152155D01*
X7447986Y11152149D01*
X7583183Y11061813D01*
X7583187Y11061811D01*
X7733413Y10999586D01*
X7733418Y10999584D01*
X7733422Y10999584D01*
X7733423Y10999583D01*
X7892899Y10967860D01*
X7892902Y10967860D01*
X8055514Y10967860D01*
X8207128Y10998019D01*
X8214996Y10999584D01*
X8357937Y11058792D01*
X8365226Y11061811D01*
X8365230Y11061813D01*
X8432376Y11106680D01*
X8500432Y11152152D01*
X8615415Y11267135D01*
X8705755Y11402339D01*
X8725378Y11449712D01*
X8767981Y11552567D01*
X8767983Y11552571D01*
X8783438Y11630265D01*
X8799707Y11712053D01*
X8799707Y11874668D01*
X8767984Y12034144D01*
X8767983Y12034145D01*
X8767983Y12034149D01*
X8753774Y12068453D01*
X8705756Y12184380D01*
X8705754Y12184384D01*
X8615418Y12319581D01*
X8615412Y12319589D01*
X8500435Y12434566D01*
X8500427Y12434572D01*
X8434165Y12478847D01*
X11169500Y12478847D01*
X11169500Y12321154D01*
X11200261Y12166511D01*
X11200264Y12166499D01*
X11260602Y12020828D01*
X11260609Y12020815D01*
X11348210Y11889712D01*
X11348213Y11889708D01*
X11459707Y11778214D01*
X11459711Y11778211D01*
X11590814Y11690610D01*
X11590827Y11690603D01*
X11673332Y11656429D01*
X11736503Y11630263D01*
X11891153Y11599501D01*
X11891156Y11599500D01*
X11891158Y11599500D01*
X12048844Y11599500D01*
X12048845Y11599501D01*
X12203497Y11630263D01*
X12248636Y11648961D01*
X12318103Y11656429D01*
X12380582Y11625155D01*
X12414746Y11570400D01*
X12416378Y11565019D01*
X12476717Y11419346D01*
X12476724Y11419333D01*
X12564325Y11288230D01*
X12564328Y11288226D01*
X12675822Y11176732D01*
X12675826Y11176729D01*
X12806929Y11089128D01*
X12806942Y11089121D01*
X12952613Y11028783D01*
X12952618Y11028781D01*
X13099390Y10999586D01*
X13107268Y10998019D01*
X13107271Y10998018D01*
X13107273Y10998018D01*
X13264959Y10998018D01*
X13264960Y10998019D01*
X13419612Y11028781D01*
X13565294Y11089124D01*
X13572132Y11093693D01*
X17874499Y11093693D01*
X17906222Y10934217D01*
X17906225Y10934207D01*
X17968450Y10783981D01*
X17968452Y10783977D01*
X18058788Y10648780D01*
X18058794Y10648772D01*
X18173771Y10533795D01*
X18173779Y10533789D01*
X18308976Y10443453D01*
X18308980Y10443451D01*
X18458368Y10381573D01*
X18459211Y10381224D01*
X18459215Y10381224D01*
X18459216Y10381223D01*
X18618692Y10349500D01*
X18618695Y10349500D01*
X18781307Y10349500D01*
X18888598Y10370843D01*
X18940789Y10381224D01*
X19091021Y10443452D01*
X19091023Y10443453D01*
X19211660Y10524060D01*
X19226225Y10533792D01*
X19341208Y10648775D01*
X19431548Y10783979D01*
X19493776Y10934211D01*
X19506468Y10998018D01*
X19525500Y11093693D01*
X19525500Y11256308D01*
X19493777Y11415784D01*
X19493776Y11415785D01*
X19493776Y11415789D01*
X19492303Y11419346D01*
X19431549Y11566020D01*
X19431547Y11566024D01*
X19341211Y11701221D01*
X19341205Y11701229D01*
X19226228Y11816206D01*
X19226220Y11816212D01*
X19091023Y11906548D01*
X19091019Y11906550D01*
X18940793Y11968775D01*
X18940783Y11968778D01*
X18781307Y12000500D01*
X18781305Y12000500D01*
X18618695Y12000500D01*
X18618693Y12000500D01*
X18459216Y11968778D01*
X18459206Y11968775D01*
X18308980Y11906550D01*
X18308976Y11906548D01*
X18173779Y11816212D01*
X18173771Y11816206D01*
X18058794Y11701229D01*
X18058788Y11701221D01*
X17968452Y11566024D01*
X17968450Y11566020D01*
X17906225Y11415794D01*
X17906222Y11415784D01*
X17874500Y11256308D01*
X17874500Y11256305D01*
X17874500Y11093695D01*
X17874500Y11093693D01*
X17874499Y11093693D01*
X13572132Y11093693D01*
X13696404Y11176729D01*
X13807904Y11288229D01*
X13895509Y11419339D01*
X13955852Y11565021D01*
X13986615Y11719676D01*
X13986615Y11877360D01*
X13986615Y11877363D01*
X13986614Y11877365D01*
X13968431Y11968776D01*
X13955852Y12032015D01*
X13953022Y12038847D01*
X13895512Y12177691D01*
X13895505Y12177704D01*
X13807904Y12308807D01*
X13807901Y12308811D01*
X13696407Y12420305D01*
X13696403Y12420308D01*
X13565300Y12507909D01*
X13565287Y12507916D01*
X13419616Y12568254D01*
X13419604Y12568257D01*
X13264960Y12599018D01*
X13264957Y12599018D01*
X13107273Y12599018D01*
X13107270Y12599018D01*
X12952625Y12568257D01*
X12952618Y12568255D01*
X12907478Y12549558D01*
X12838008Y12542091D01*
X12775530Y12573366D01*
X12741367Y12628123D01*
X12739736Y12633499D01*
X12736412Y12641523D01*
X12722753Y12674500D01*
X12679397Y12779173D01*
X12679390Y12779186D01*
X12591789Y12910289D01*
X12591786Y12910293D01*
X12480292Y13021787D01*
X12480288Y13021790D01*
X12349185Y13109391D01*
X12349172Y13109398D01*
X12203501Y13169736D01*
X12203489Y13169739D01*
X12048845Y13200500D01*
X12048842Y13200500D01*
X11891158Y13200500D01*
X11891155Y13200500D01*
X11736510Y13169739D01*
X11736498Y13169736D01*
X11590827Y13109398D01*
X11590814Y13109391D01*
X11459711Y13021790D01*
X11459707Y13021787D01*
X11348213Y12910293D01*
X11348210Y12910289D01*
X11260609Y12779186D01*
X11260602Y12779173D01*
X11200264Y12633502D01*
X11200261Y12633490D01*
X11169500Y12478847D01*
X8434165Y12478847D01*
X8365230Y12524908D01*
X8365226Y12524910D01*
X8215000Y12587135D01*
X8214990Y12587138D01*
X8055514Y12618860D01*
X8055512Y12618860D01*
X7892902Y12618860D01*
X7892900Y12618860D01*
X7733423Y12587138D01*
X7733413Y12587135D01*
X7583187Y12524910D01*
X7583183Y12524908D01*
X7447986Y12434572D01*
X7447978Y12434566D01*
X7333001Y12319589D01*
X7332995Y12319581D01*
X7242659Y12184384D01*
X7242657Y12184380D01*
X7180432Y12034154D01*
X7180429Y12034144D01*
X7148707Y11874668D01*
X7148707Y11874665D01*
X7148707Y11712055D01*
X7148707Y11712053D01*
X7148706Y11712053D01*
X1043199Y11712053D01*
X972488Y11809379D01*
X949009Y11875183D01*
X964834Y11943237D01*
X1014940Y11991932D01*
X1083418Y12005807D01*
X1096999Y12003879D01*
X1244692Y11974500D01*
X1244695Y11974500D01*
X1407307Y11974500D01*
X1547436Y12002374D01*
X1560126Y12004899D01*
X1566789Y12006224D01*
X1717021Y12068452D01*
X1717023Y12068453D01*
X1822932Y12139219D01*
X1852225Y12158792D01*
X1967208Y12273775D01*
X2040126Y12382905D01*
X2057547Y12408977D01*
X2057549Y12408981D01*
X2089679Y12486551D01*
X2119776Y12559211D01*
X2143379Y12677867D01*
X2151500Y12718693D01*
X2151500Y12881308D01*
X2119777Y13040784D01*
X2119776Y13040785D01*
X2119776Y13040789D01*
X2117431Y13046449D01*
X4255990Y13046449D01*
X4287713Y12886973D01*
X4287716Y12886963D01*
X4349941Y12736737D01*
X4349943Y12736733D01*
X4440279Y12601536D01*
X4440285Y12601528D01*
X4555262Y12486551D01*
X4555270Y12486545D01*
X4690467Y12396209D01*
X4690471Y12396207D01*
X4828150Y12339179D01*
X4840702Y12333980D01*
X4840706Y12333980D01*
X4840707Y12333979D01*
X5000183Y12302256D01*
X5000186Y12302256D01*
X5162798Y12302256D01*
X5270089Y12323599D01*
X5322280Y12333980D01*
X5440396Y12382905D01*
X5472510Y12396207D01*
X5472514Y12396209D01*
X5584741Y12471197D01*
X5607716Y12486548D01*
X5722699Y12601531D01*
X5783350Y12692302D01*
X5813038Y12736733D01*
X5813040Y12736737D01*
X5852717Y12832526D01*
X5875267Y12886967D01*
X5906991Y13046451D01*
X5906991Y13046453D01*
X5907829Y13050665D01*
X5940214Y13112576D01*
X6000929Y13147150D01*
X6070699Y13143411D01*
X6127371Y13102544D01*
X6132548Y13095365D01*
X6213791Y12973775D01*
X6328771Y12858795D01*
X6328779Y12858789D01*
X6463976Y12768453D01*
X6463980Y12768451D01*
X6604839Y12710106D01*
X6614211Y12706224D01*
X6614215Y12706224D01*
X6614216Y12706223D01*
X6773692Y12674500D01*
X6773695Y12674500D01*
X6936307Y12674500D01*
X7043598Y12695843D01*
X7095789Y12706224D01*
X7224489Y12759533D01*
X7246019Y12768451D01*
X7246023Y12768453D01*
X7350083Y12837984D01*
X7381225Y12858792D01*
X7496208Y12973775D01*
X7547584Y13050665D01*
X7586547Y13108977D01*
X7586549Y13108981D01*
X7624457Y13200500D01*
X7648776Y13259211D01*
X7670214Y13366986D01*
X7680500Y13418693D01*
X7680500Y13518693D01*
X13974499Y13518693D01*
X14006222Y13359217D01*
X14006225Y13359207D01*
X14068450Y13208981D01*
X14068452Y13208977D01*
X14158788Y13073780D01*
X14158794Y13073772D01*
X14273771Y12958795D01*
X14273779Y12958789D01*
X14408976Y12868453D01*
X14408980Y12868451D01*
X14475411Y12840935D01*
X14525374Y12820240D01*
X14579778Y12776400D01*
X14601843Y12710106D01*
X14584564Y12642406D01*
X14565611Y12618006D01*
X14564340Y12616736D01*
X14564333Y12616727D01*
X14476732Y12485624D01*
X14476725Y12485611D01*
X14416387Y12339940D01*
X14416384Y12339928D01*
X14385623Y12185285D01*
X14385623Y12027592D01*
X14416384Y11872949D01*
X14416387Y11872937D01*
X14476725Y11727266D01*
X14476732Y11727253D01*
X14564333Y11596150D01*
X14564336Y11596146D01*
X14675830Y11484652D01*
X14675834Y11484649D01*
X14806937Y11397048D01*
X14806950Y11397041D01*
X14952621Y11336703D01*
X14952626Y11336701D01*
X15091983Y11308981D01*
X15107276Y11305939D01*
X15107279Y11305938D01*
X15107281Y11305938D01*
X15264967Y11305938D01*
X15264968Y11305939D01*
X15419620Y11336701D01*
X15458113Y11352646D01*
X15516811Y11376958D01*
X15565295Y11397041D01*
X15565295Y11397042D01*
X15565302Y11397044D01*
X15696412Y11484649D01*
X15807912Y11596149D01*
X15895517Y11727259D01*
X15901297Y11741212D01*
X15932360Y11816206D01*
X15955860Y11872941D01*
X15986623Y12027596D01*
X15986623Y12053754D01*
X16006308Y12120793D01*
X16059112Y12166548D01*
X16063117Y12168293D01*
X16144432Y12201974D01*
X16275542Y12289579D01*
X16387042Y12401079D01*
X16474647Y12532189D01*
X16478129Y12540594D01*
X16503371Y12601536D01*
X16534990Y12677871D01*
X16565753Y12832526D01*
X16565753Y12990210D01*
X16565753Y12990213D01*
X16546213Y13088444D01*
X16546213Y13088445D01*
X16534991Y13144858D01*
X16534990Y13144865D01*
X16532825Y13150091D01*
X16474650Y13290541D01*
X16474643Y13290554D01*
X16387042Y13421657D01*
X16387039Y13421661D01*
X16275545Y13533155D01*
X16275541Y13533158D01*
X16144438Y13620759D01*
X16144425Y13620766D01*
X15998754Y13681104D01*
X15998742Y13681107D01*
X15844098Y13711868D01*
X15844095Y13711868D01*
X15721184Y13711868D01*
X15654145Y13731553D01*
X15608390Y13784357D01*
X15599567Y13811674D01*
X15593776Y13840789D01*
X15572970Y13891020D01*
X15531549Y13991020D01*
X15531547Y13991024D01*
X15441211Y14126221D01*
X15441205Y14126229D01*
X15326228Y14241206D01*
X15326220Y14241212D01*
X15191023Y14331548D01*
X15191019Y14331550D01*
X15040793Y14393775D01*
X15040783Y14393778D01*
X14881307Y14425500D01*
X14881305Y14425500D01*
X14718695Y14425500D01*
X14718693Y14425500D01*
X14559216Y14393778D01*
X14559206Y14393775D01*
X14408980Y14331550D01*
X14408976Y14331548D01*
X14273779Y14241212D01*
X14273771Y14241206D01*
X14158794Y14126229D01*
X14158788Y14126221D01*
X14068452Y13991024D01*
X14068450Y13991020D01*
X14006225Y13840794D01*
X14006222Y13840784D01*
X13974500Y13681308D01*
X13974500Y13681305D01*
X13974500Y13518695D01*
X13974500Y13518693D01*
X13974499Y13518693D01*
X7680500Y13518693D01*
X7680500Y13581308D01*
X7664209Y13663205D01*
X7648777Y13740784D01*
X7648776Y13740785D01*
X7648776Y13740789D01*
X7648774Y13740794D01*
X7586549Y13891020D01*
X7586547Y13891024D01*
X7496211Y14026221D01*
X7496205Y14026229D01*
X7381228Y14141206D01*
X7381220Y14141212D01*
X7246023Y14231548D01*
X7246021Y14231549D01*
X7242785Y14232889D01*
X7241351Y14234045D01*
X7240647Y14234421D01*
X7240718Y14234555D01*
X7188384Y14276733D01*
X7166322Y14343028D01*
X7183604Y14410726D01*
X7202563Y14435130D01*
X7241205Y14473772D01*
X7241208Y14473775D01*
X7319357Y14590734D01*
X7331547Y14608977D01*
X7331549Y14608981D01*
X7363348Y14685752D01*
X7393776Y14759211D01*
X7409544Y14838478D01*
X7425500Y14918693D01*
X7425500Y15081308D01*
X7393777Y15240784D01*
X7393776Y15240785D01*
X7393776Y15240789D01*
X7393774Y15240794D01*
X7331549Y15391020D01*
X7331547Y15391024D01*
X7241211Y15526221D01*
X7241205Y15526229D01*
X7126228Y15641206D01*
X7126220Y15641212D01*
X6991023Y15731548D01*
X6991019Y15731550D01*
X6840793Y15793775D01*
X6840783Y15793778D01*
X6681307Y15825500D01*
X6681305Y15825500D01*
X6518695Y15825500D01*
X6518693Y15825500D01*
X6359216Y15793778D01*
X6359206Y15793775D01*
X6208980Y15731550D01*
X6208976Y15731548D01*
X6073779Y15641212D01*
X6073771Y15641206D01*
X5958794Y15526229D01*
X5958788Y15526221D01*
X5868452Y15391024D01*
X5868450Y15391020D01*
X5806225Y15240794D01*
X5806222Y15240784D01*
X5774500Y15081308D01*
X5774500Y15081305D01*
X5774500Y14918695D01*
X5774500Y14918693D01*
X5774499Y14918693D01*
X5806222Y14759217D01*
X5806225Y14759207D01*
X5868450Y14608981D01*
X5868452Y14608977D01*
X5958788Y14473780D01*
X5958794Y14473772D01*
X6073771Y14358795D01*
X6073779Y14358789D01*
X6208974Y14268455D01*
X6208975Y14268455D01*
X6208979Y14268452D01*
X6212209Y14267114D01*
X6213643Y14265959D01*
X6214353Y14265579D01*
X6214281Y14265445D01*
X6266611Y14223274D01*
X6288677Y14156980D01*
X6271398Y14089281D01*
X6252438Y14064873D01*
X6213795Y14026230D01*
X6213788Y14026221D01*
X6123452Y13891024D01*
X6123450Y13891020D01*
X6061225Y13740794D01*
X6061222Y13740784D01*
X6028661Y13577091D01*
X5996276Y13515180D01*
X5935560Y13480606D01*
X5865790Y13484347D01*
X5809119Y13525213D01*
X5803942Y13532393D01*
X5722702Y13653977D01*
X5722696Y13653985D01*
X5607719Y13768962D01*
X5607711Y13768968D01*
X5472514Y13859304D01*
X5472510Y13859306D01*
X5322284Y13921531D01*
X5322274Y13921534D01*
X5162798Y13953256D01*
X5162796Y13953256D01*
X5000186Y13953256D01*
X5000184Y13953256D01*
X4840707Y13921534D01*
X4840697Y13921531D01*
X4690471Y13859306D01*
X4690467Y13859304D01*
X4555270Y13768968D01*
X4555262Y13768962D01*
X4440285Y13653985D01*
X4440279Y13653977D01*
X4349943Y13518780D01*
X4349941Y13518776D01*
X4287716Y13368550D01*
X4287713Y13368540D01*
X4255991Y13209064D01*
X4255991Y13209061D01*
X4255991Y13046451D01*
X4255991Y13046449D01*
X4255990Y13046449D01*
X2117431Y13046449D01*
X2115685Y13050665D01*
X2067208Y13167701D01*
X2057547Y13191024D01*
X1967211Y13326221D01*
X1967205Y13326229D01*
X1852228Y13441206D01*
X1852220Y13441212D01*
X1717023Y13531548D01*
X1717019Y13531550D01*
X1566793Y13593775D01*
X1566783Y13593778D01*
X1407307Y13625500D01*
X1407305Y13625500D01*
X1244695Y13625500D01*
X1244693Y13625500D01*
X1085216Y13593778D01*
X1085206Y13593775D01*
X934980Y13531550D01*
X934976Y13531548D01*
X799779Y13441212D01*
X799771Y13441206D01*
X712181Y13353615D01*
X650858Y13320130D01*
X581166Y13325114D01*
X525233Y13366986D01*
X500816Y13432450D01*
X500500Y13441296D01*
X500500Y15132704D01*
X520185Y15199743D01*
X572989Y15245498D01*
X642147Y15255442D01*
X705703Y15226417D01*
X712181Y15220385D01*
X773771Y15158795D01*
X773779Y15158789D01*
X908976Y15068453D01*
X908980Y15068451D01*
X1032261Y15017387D01*
X1059211Y15006224D01*
X1059215Y15006224D01*
X1059216Y15006223D01*
X1218692Y14974500D01*
X1218695Y14974500D01*
X1381307Y14974500D01*
X1488598Y14995843D01*
X1540789Y15006224D01*
X1691021Y15068452D01*
X1691023Y15068453D01*
X1798705Y15140404D01*
X1826225Y15158792D01*
X1941208Y15273775D01*
X2011324Y15378711D01*
X2031547Y15408977D01*
X2031549Y15408981D01*
X2073188Y15509507D01*
X2093776Y15559211D01*
X2125500Y15718695D01*
X2125500Y15881305D01*
X2125500Y15881308D01*
X2093777Y16040784D01*
X2093776Y16040785D01*
X2093776Y16040789D01*
X2089390Y16051377D01*
X2031549Y16191020D01*
X2031547Y16191024D01*
X1941211Y16326221D01*
X1941205Y16326229D01*
X1826228Y16441206D01*
X1826220Y16441212D01*
X1691023Y16531548D01*
X1691019Y16531550D01*
X1540793Y16593775D01*
X1540783Y16593778D01*
X1381307Y16625500D01*
X1381305Y16625500D01*
X1218695Y16625500D01*
X1218693Y16625500D01*
X1059216Y16593778D01*
X1059206Y16593775D01*
X908980Y16531550D01*
X908976Y16531548D01*
X773779Y16441212D01*
X773771Y16441206D01*
X712181Y16379615D01*
X650858Y16346130D01*
X581166Y16351114D01*
X525233Y16392986D01*
X500816Y16458450D01*
X500500Y16467296D01*
X500500Y16988696D01*
X3199500Y16988696D01*
X3199500Y16811305D01*
X3234103Y16637342D01*
X3234106Y16637333D01*
X3301983Y16473460D01*
X3301990Y16473447D01*
X3400535Y16325966D01*
X3400538Y16325962D01*
X3525961Y16200539D01*
X3525965Y16200536D01*
X3673446Y16101991D01*
X3673459Y16101984D01*
X3776273Y16059398D01*
X3837334Y16034106D01*
X3837336Y16034106D01*
X3837341Y16034104D01*
X4011304Y15999501D01*
X4011307Y15999500D01*
X4164619Y15999500D01*
X4231658Y15979815D01*
X4267721Y15944391D01*
X4305348Y15888077D01*
X4420328Y15773097D01*
X4420336Y15773091D01*
X4555533Y15682755D01*
X4555537Y15682753D01*
X4664878Y15637463D01*
X4705768Y15620526D01*
X4705772Y15620526D01*
X4705773Y15620525D01*
X4865249Y15588802D01*
X4865252Y15588802D01*
X5027864Y15588802D01*
X5170791Y15617233D01*
X5187346Y15620526D01*
X5337578Y15682754D01*
X5337580Y15682755D01*
X5450318Y15758084D01*
X5472782Y15773094D01*
X5587765Y15888077D01*
X5633237Y15956133D01*
X5678104Y16023279D01*
X5678106Y16023283D01*
X5718059Y16119739D01*
X5740333Y16173513D01*
X5756909Y16256845D01*
X5772057Y16332995D01*
X5772057Y16495610D01*
X5740334Y16655086D01*
X5740333Y16655087D01*
X5740333Y16655091D01*
X5718011Y16708981D01*
X5678106Y16805322D01*
X5678104Y16805326D01*
X5587768Y16940523D01*
X5587762Y16940531D01*
X5472785Y17055508D01*
X5472777Y17055514D01*
X5337580Y17145850D01*
X5337576Y17145852D01*
X5187350Y17208077D01*
X5187340Y17208080D01*
X5027864Y17239802D01*
X5027862Y17239802D01*
X5016798Y17239802D01*
X4949759Y17259487D01*
X4912263Y17297105D01*
X4906405Y17306286D01*
X4898013Y17326547D01*
X4799464Y17474035D01*
X4799219Y17474280D01*
X4799218Y17474282D01*
X4734804Y17538696D01*
X5799500Y17538696D01*
X5799500Y17361305D01*
X5834103Y17187342D01*
X5834106Y17187333D01*
X5901983Y17023460D01*
X5901990Y17023447D01*
X6000535Y16875966D01*
X6000538Y16875962D01*
X6125961Y16750539D01*
X6125965Y16750536D01*
X6273446Y16651991D01*
X6273459Y16651984D01*
X6396363Y16601077D01*
X6437334Y16584106D01*
X6437336Y16584106D01*
X6437341Y16584104D01*
X6611304Y16549501D01*
X6611307Y16549500D01*
X6611309Y16549500D01*
X6788693Y16549500D01*
X6788694Y16549501D01*
X6846682Y16561036D01*
X6962658Y16584104D01*
X6962661Y16584106D01*
X6962666Y16584106D01*
X7126547Y16651987D01*
X7274035Y16750536D01*
X7399464Y16875965D01*
X7498013Y17023453D01*
X7565894Y17187334D01*
X7566673Y17191246D01*
X7592244Y17319802D01*
X7600500Y17361309D01*
X7600500Y17538691D01*
X7600500Y17538694D01*
X7600499Y17538696D01*
X7565896Y17712659D01*
X7565893Y17712668D01*
X7556971Y17734207D01*
X7546612Y17759217D01*
X7498016Y17876541D01*
X7498009Y17876554D01*
X7399464Y18024035D01*
X7399461Y18024039D01*
X7366351Y18057149D01*
X7332866Y18118472D01*
X7337850Y18188164D01*
X7379722Y18244097D01*
X7385131Y18247926D01*
X7476225Y18308792D01*
X7591208Y18423775D01*
X7664910Y18534078D01*
X7681547Y18558977D01*
X7681549Y18558981D01*
X7726018Y18666340D01*
X7743776Y18709211D01*
X7766011Y18820991D01*
X7775500Y18868693D01*
X7775500Y19031308D01*
X7743777Y19190784D01*
X7743776Y19190785D01*
X7743776Y19190789D01*
X7735584Y19210566D01*
X7681549Y19341020D01*
X7681547Y19341024D01*
X7591211Y19476221D01*
X7591205Y19476229D01*
X7476228Y19591206D01*
X7476220Y19591212D01*
X7470498Y19595036D01*
X7425695Y19648650D01*
X7416991Y19717975D01*
X7447148Y19781002D01*
X7491936Y19812693D01*
X7636547Y19872592D01*
X7784035Y19971141D01*
X7909464Y20096570D01*
X8008013Y20244058D01*
X8075894Y20407939D01*
X8076269Y20409820D01*
X8110023Y20579518D01*
X8110500Y20581914D01*
X8110500Y20759296D01*
X8110500Y20759299D01*
X8110499Y20759301D01*
X8075896Y20933264D01*
X8075893Y20933273D01*
X8008016Y21097146D01*
X8008009Y21097159D01*
X7909464Y21244640D01*
X7909461Y21244644D01*
X7784038Y21370067D01*
X7784034Y21370070D01*
X7636553Y21468615D01*
X7636540Y21468622D01*
X7472667Y21536499D01*
X7472658Y21536502D01*
X7298694Y21571105D01*
X7298691Y21571105D01*
X7121309Y21571105D01*
X7121306Y21571105D01*
X6947341Y21536502D01*
X6947332Y21536499D01*
X6783459Y21468622D01*
X6783446Y21468615D01*
X6635965Y21370070D01*
X6635961Y21370067D01*
X6510538Y21244644D01*
X6510535Y21244640D01*
X6411990Y21097159D01*
X6411983Y21097146D01*
X6344106Y20933273D01*
X6344103Y20933264D01*
X6309500Y20759301D01*
X6309500Y20581910D01*
X6344103Y20407947D01*
X6344106Y20407938D01*
X6411983Y20244065D01*
X6411990Y20244052D01*
X6510535Y20096571D01*
X6510538Y20096567D01*
X6635961Y19971144D01*
X6635964Y19971142D01*
X6635965Y19971141D01*
X6668663Y19949293D01*
X6681162Y19940941D01*
X6725966Y19887328D01*
X6734673Y19818003D01*
X6704518Y19754976D01*
X6659723Y19723278D01*
X6558977Y19681548D01*
X6558976Y19681548D01*
X6423779Y19591212D01*
X6423771Y19591206D01*
X6308794Y19476229D01*
X6308788Y19476221D01*
X6218452Y19341024D01*
X6218450Y19341020D01*
X6156225Y19190794D01*
X6156222Y19190784D01*
X6124500Y19031308D01*
X6124500Y19031305D01*
X6124500Y18868695D01*
X6124500Y18868693D01*
X6124499Y18868693D01*
X6156222Y18709217D01*
X6156225Y18709207D01*
X6218449Y18558983D01*
X6310185Y18421690D01*
X6331062Y18355013D01*
X6312577Y18287633D01*
X6275973Y18249698D01*
X6125965Y18149465D01*
X6125961Y18149462D01*
X6000538Y18024039D01*
X6000535Y18024035D01*
X5901990Y17876554D01*
X5901983Y17876541D01*
X5834106Y17712668D01*
X5834103Y17712659D01*
X5799500Y17538696D01*
X4734804Y17538696D01*
X4674038Y17599462D01*
X4674034Y17599465D01*
X4526553Y17698010D01*
X4526540Y17698017D01*
X4362667Y17765894D01*
X4362658Y17765897D01*
X4188694Y17800500D01*
X4188691Y17800500D01*
X4011309Y17800500D01*
X4011306Y17800500D01*
X3837341Y17765897D01*
X3837332Y17765894D01*
X3673459Y17698017D01*
X3673446Y17698010D01*
X3525965Y17599465D01*
X3525961Y17599462D01*
X3400538Y17474039D01*
X3400535Y17474035D01*
X3301990Y17326554D01*
X3301983Y17326541D01*
X3234106Y17162668D01*
X3234103Y17162659D01*
X3199500Y16988696D01*
X500500Y16988696D01*
X500500Y17762094D01*
X520185Y17829133D01*
X568205Y17872579D01*
X661694Y17920213D01*
X822464Y18037019D01*
X962981Y18177536D01*
X1079787Y18338306D01*
X1170005Y18515368D01*
X1231413Y18704364D01*
X1262500Y18900639D01*
X1262500Y19099361D01*
X1231413Y19295636D01*
X1185499Y19436945D01*
X1170006Y19484630D01*
X1170005Y19484633D01*
X1120746Y19581308D01*
X1079787Y19661694D01*
X962981Y19822464D01*
X822464Y19962981D01*
X718043Y20038847D01*
X661692Y20079789D01*
X568204Y20127424D01*
X517409Y20175399D01*
X500500Y20237908D01*
X500500Y21118693D01*
X2474499Y21118693D01*
X2506222Y20959217D01*
X2506225Y20959207D01*
X2568450Y20808981D01*
X2568452Y20808977D01*
X2658788Y20673780D01*
X2658794Y20673772D01*
X2773771Y20558795D01*
X2773779Y20558789D01*
X2908976Y20468453D01*
X2908980Y20468451D01*
X3059206Y20406226D01*
X3059211Y20406224D01*
X3059215Y20406224D01*
X3059216Y20406223D01*
X3218692Y20374500D01*
X3218695Y20374500D01*
X3381307Y20374500D01*
X3509238Y20399948D01*
X3540789Y20406224D01*
X3540796Y20406228D01*
X3546616Y20407992D01*
X3546968Y20406831D01*
X3610065Y20413618D01*
X3672547Y20382348D01*
X3702544Y20334280D01*
X3703893Y20334838D01*
X3768450Y20178981D01*
X3768452Y20178977D01*
X3858788Y20043780D01*
X3858794Y20043772D01*
X3973771Y19928795D01*
X3973779Y19928789D01*
X4108976Y19838453D01*
X4108980Y19838451D01*
X4197805Y19801659D01*
X4259211Y19776224D01*
X4259215Y19776224D01*
X4259216Y19776223D01*
X4418692Y19744500D01*
X4418695Y19744500D01*
X4581307Y19744500D01*
X4723706Y19772826D01*
X4740789Y19776224D01*
X4841653Y19818003D01*
X4891019Y19838451D01*
X4891023Y19838453D01*
X4971208Y19892031D01*
X5026225Y19928792D01*
X5141208Y20043775D01*
X5205620Y20140175D01*
X5231547Y20178977D01*
X5231549Y20178981D01*
X5258502Y20244052D01*
X5293776Y20329211D01*
X5305988Y20390603D01*
X5325500Y20488693D01*
X5325500Y20651308D01*
X5293777Y20810784D01*
X5293776Y20810785D01*
X5293776Y20810789D01*
X5292758Y20813247D01*
X5231549Y20961020D01*
X5231547Y20961024D01*
X5141211Y21096221D01*
X5141205Y21096229D01*
X5026228Y21211206D01*
X5026220Y21211212D01*
X4891023Y21301548D01*
X4891019Y21301550D01*
X4740793Y21363775D01*
X4740783Y21363778D01*
X4581307Y21395500D01*
X4581305Y21395500D01*
X4418695Y21395500D01*
X4418693Y21395500D01*
X4259217Y21363778D01*
X4253388Y21362009D01*
X4253036Y21363167D01*
X4189918Y21356385D01*
X4127441Y21387663D01*
X4097461Y21435723D01*
X4096107Y21435162D01*
X4031549Y21591020D01*
X4031547Y21591024D01*
X3941211Y21726221D01*
X3941205Y21726229D01*
X3826228Y21841206D01*
X3826220Y21841212D01*
X3691023Y21931548D01*
X3691019Y21931550D01*
X3540793Y21993775D01*
X3540783Y21993778D01*
X3381307Y22025500D01*
X3381305Y22025500D01*
X3218695Y22025500D01*
X3218693Y22025500D01*
X3059216Y21993778D01*
X3059206Y21993775D01*
X2908980Y21931550D01*
X2908976Y21931548D01*
X2773779Y21841212D01*
X2773771Y21841206D01*
X2658794Y21726229D01*
X2658788Y21726221D01*
X2568452Y21591024D01*
X2568450Y21591020D01*
X2506225Y21440794D01*
X2506222Y21440784D01*
X2474500Y21281308D01*
X2474500Y21281305D01*
X2474500Y21118695D01*
X2474500Y21118693D01*
X2474499Y21118693D01*
X500500Y21118693D01*
X500500Y23418693D01*
X1424499Y23418693D01*
X1456222Y23259217D01*
X1456225Y23259207D01*
X1518450Y23108981D01*
X1518452Y23108977D01*
X1608788Y22973780D01*
X1608794Y22973772D01*
X1723771Y22858795D01*
X1723779Y22858789D01*
X1858976Y22768453D01*
X1858980Y22768451D01*
X1984499Y22716460D01*
X2009211Y22706224D01*
X2009215Y22706224D01*
X2009216Y22706223D01*
X2168692Y22674500D01*
X2168695Y22674500D01*
X2331307Y22674500D01*
X2438598Y22695843D01*
X2490789Y22706224D01*
X2641021Y22768452D01*
X2641023Y22768453D01*
X2735245Y22831410D01*
X2776225Y22858792D01*
X2891208Y22973775D01*
X2981548Y23108979D01*
X3043776Y23259211D01*
X3056528Y23323316D01*
X3075500Y23418693D01*
X3075500Y23581308D01*
X3043777Y23740784D01*
X3043776Y23740785D01*
X3043776Y23740789D01*
X3036338Y23758747D01*
X2981549Y23891020D01*
X2981547Y23891024D01*
X2891211Y24026221D01*
X2891205Y24026229D01*
X2776228Y24141206D01*
X2776220Y24141212D01*
X2641023Y24231548D01*
X2641019Y24231550D01*
X2490793Y24293775D01*
X2490783Y24293778D01*
X2331307Y24325500D01*
X2331305Y24325500D01*
X2168695Y24325500D01*
X2168693Y24325500D01*
X2009216Y24293778D01*
X2009206Y24293775D01*
X1858980Y24231550D01*
X1858976Y24231548D01*
X1723779Y24141212D01*
X1723771Y24141206D01*
X1608794Y24026229D01*
X1608788Y24026221D01*
X1518452Y23891024D01*
X1518450Y23891020D01*
X1456225Y23740794D01*
X1456222Y23740784D01*
X1424500Y23581308D01*
X1424500Y23581305D01*
X1424500Y23418695D01*
X1424500Y23418693D01*
X1424499Y23418693D01*
X500500Y23418693D01*
X500500Y25046627D01*
X520185Y25113666D01*
X572989Y25159421D01*
X642147Y25169365D01*
X671950Y25161189D01*
X737334Y25134106D01*
X737336Y25134106D01*
X737341Y25134104D01*
X911304Y25099501D01*
X911307Y25099500D01*
X911309Y25099500D01*
X1088693Y25099500D01*
X1088694Y25099501D01*
X1174819Y25116632D01*
X1262658Y25134104D01*
X1262661Y25134106D01*
X1262666Y25134106D01*
X1426547Y25201987D01*
X1431107Y25205035D01*
X1497783Y25225914D01*
X1565163Y25207431D01*
X1568867Y25205052D01*
X1573453Y25201987D01*
X1573455Y25201986D01*
X1573457Y25201985D01*
X1677729Y25158795D01*
X1737334Y25134106D01*
X1737336Y25134106D01*
X1737341Y25134104D01*
X1911304Y25099501D01*
X1911307Y25099500D01*
X1911309Y25099500D01*
X2088693Y25099500D01*
X2088694Y25099501D01*
X2174819Y25116632D01*
X2262658Y25134104D01*
X2262661Y25134106D01*
X2262666Y25134106D01*
X2426547Y25201987D01*
X2574035Y25300536D01*
X2699464Y25425965D01*
X2798013Y25573453D01*
X2865894Y25737334D01*
X2866185Y25738794D01*
X2895922Y25888294D01*
X2900500Y25911309D01*
X2900500Y26088691D01*
X2900500Y26088694D01*
X2900499Y26088696D01*
X2865896Y26262659D01*
X2865893Y26262668D01*
X2798016Y26426541D01*
X2798009Y26426554D01*
X2699464Y26574035D01*
X2699461Y26574039D01*
X2574038Y26699462D01*
X2574034Y26699465D01*
X2426553Y26798010D01*
X2426540Y26798017D01*
X2262667Y26865894D01*
X2262658Y26865897D01*
X2088694Y26900500D01*
X2088691Y26900500D01*
X1911309Y26900500D01*
X1911306Y26900500D01*
X1737341Y26865897D01*
X1737332Y26865894D01*
X1573459Y26798017D01*
X1573446Y26798010D01*
X1568887Y26794963D01*
X1502208Y26774088D01*
X1449384Y26784869D01*
X1439814Y26789148D01*
X1426547Y26798013D01*
X1337480Y26834906D01*
X1335884Y26835619D01*
X1310558Y26857215D01*
X1284644Y26878098D01*
X1284079Y26879794D01*
X1282719Y26880954D01*
X1273088Y26912817D01*
X1262579Y26944392D01*
X1262518Y26947788D01*
X1262504Y26947835D01*
X1262516Y26947880D01*
X1262500Y26948818D01*
X1262500Y27099361D01*
X1254559Y27149500D01*
X1231413Y27295636D01*
X1170005Y27484632D01*
X1170005Y27484633D01*
X1119664Y27583431D01*
X1079787Y27661694D01*
X962981Y27822464D01*
X822464Y27962981D01*
X742079Y28021384D01*
X661692Y28079789D01*
X568204Y28127424D01*
X517409Y28175399D01*
X500500Y28237908D01*
X500500Y29375500D01*
X520185Y29442539D01*
X572989Y29488294D01*
X624500Y29499500D01*
X14848505Y29499500D01*
X14915544Y29479815D01*
G37*
G04 #@! TD.AperFunction*
G04 #@! TA.AperFunction,Conductor*
G36*
X41535478Y1340055D02*
G01*
X41536709Y1339545D01*
X41536800Y1339507D01*
X41591197Y1295657D01*
X41602849Y1271665D01*
X41603975Y1272131D01*
X41606305Y1266504D01*
X41606306Y1266503D01*
X41607895Y1262666D01*
X41666645Y1120828D01*
X41666652Y1120815D01*
X41754253Y989712D01*
X41754256Y989708D01*
X41865750Y878214D01*
X41865754Y878211D01*
X41996857Y790610D01*
X41996870Y790603D01*
X42121305Y739061D01*
X42175709Y695221D01*
X42197774Y628926D01*
X42180495Y561227D01*
X42129358Y513616D01*
X42073853Y500500D01*
X30945134Y500500D01*
X30878095Y520185D01*
X30832340Y572989D01*
X30822396Y642147D01*
X30830573Y671953D01*
X30837424Y688493D01*
X30869737Y766503D01*
X30900500Y921158D01*
X30900500Y1078842D01*
X30900500Y1078845D01*
X30876140Y1201308D01*
X30882367Y1270900D01*
X30925230Y1326077D01*
X30991120Y1349322D01*
X30997757Y1349500D01*
X41488010Y1349500D01*
X41535478Y1340055D01*
G37*
G04 #@! TD.AperFunction*
G04 #@! TA.AperFunction,Conductor*
G36*
X44418833Y2669874D02*
G01*
X44474767Y2628003D01*
X44499184Y2562538D01*
X44499500Y2553692D01*
X44499500Y2197310D01*
X44479815Y2130271D01*
X44463181Y2109629D01*
X44301283Y1947732D01*
X44301283Y1947731D01*
X44338570Y1920640D01*
X44431794Y1873140D01*
X44482591Y1825166D01*
X44499500Y1762655D01*
X44499500Y1431941D01*
X44479815Y1364902D01*
X44427011Y1319147D01*
X44357853Y1309203D01*
X44294297Y1338228D01*
X44287819Y1344260D01*
X44210292Y1421787D01*
X44210288Y1421790D01*
X44079185Y1509391D01*
X44079172Y1509398D01*
X43933501Y1569736D01*
X43933489Y1569739D01*
X43778845Y1600500D01*
X43778842Y1600500D01*
X43621158Y1600500D01*
X43621155Y1600500D01*
X43466510Y1569739D01*
X43466503Y1569737D01*
X43339879Y1517289D01*
X43270410Y1509821D01*
X43207931Y1541097D01*
X43172279Y1601186D01*
X43170811Y1607660D01*
X43158337Y1670371D01*
X43145780Y1733497D01*
X43088155Y1872615D01*
X43080687Y1942084D01*
X43111962Y2004563D01*
X43172051Y2040215D01*
X43178526Y2041684D01*
X43210557Y2048056D01*
X43267025Y2059288D01*
X43379694Y2105958D01*
X43412700Y2119628D01*
X43412700Y2119629D01*
X43412707Y2119631D01*
X43543817Y2207236D01*
X43655317Y2318736D01*
X43694045Y2376696D01*
X43747657Y2421501D01*
X43816982Y2430208D01*
X43880010Y2400054D01*
X43907632Y2364100D01*
X43920641Y2338568D01*
X43947730Y2301285D01*
X44287819Y2641373D01*
X44349142Y2674858D01*
X44418833Y2669874D01*
G37*
G04 #@! TD.AperFunction*
G04 #@! TA.AperFunction,Conductor*
G36*
X13317323Y25879815D02*
G01*
X13363078Y25827011D01*
X13373022Y25757853D01*
X13371901Y25751308D01*
X13349500Y25638694D01*
X13349500Y25461305D01*
X13384103Y25287342D01*
X13384106Y25287333D01*
X13451983Y25123460D01*
X13451990Y25123447D01*
X13550535Y24975966D01*
X13550538Y24975962D01*
X13675961Y24850539D01*
X13675965Y24850536D01*
X13823446Y24751991D01*
X13823459Y24751984D01*
X13907949Y24716988D01*
X13987334Y24684106D01*
X13987336Y24684106D01*
X13987341Y24684104D01*
X14161304Y24649501D01*
X14161307Y24649500D01*
X14161309Y24649500D01*
X14338693Y24649500D01*
X14338694Y24649501D01*
X14396682Y24661036D01*
X14512658Y24684104D01*
X14512660Y24684105D01*
X14512666Y24684106D01*
X14649525Y24740795D01*
X14718992Y24748263D01*
X14781471Y24716988D01*
X14817123Y24656899D01*
X14814629Y24587074D01*
X14811536Y24578782D01*
X14787950Y24521836D01*
X14787948Y24521832D01*
X14787947Y24521829D01*
X14749500Y24328544D01*
X14749500Y24328541D01*
X14749500Y24131459D01*
X14749500Y24131457D01*
X14749499Y24131457D01*
X14787947Y23938171D01*
X14787950Y23938161D01*
X14835671Y23822952D01*
X14843140Y23753483D01*
X14811865Y23691004D01*
X14751776Y23655352D01*
X14721110Y23651500D01*
X13276216Y23651500D01*
X13209177Y23671185D01*
X13163422Y23723989D01*
X13153478Y23793147D01*
X13161655Y23822952D01*
X13199453Y23914207D01*
X13199455Y23914211D01*
X13220325Y24019129D01*
X13231179Y24073693D01*
X13231179Y24236308D01*
X13199456Y24395784D01*
X13199455Y24395785D01*
X13199455Y24395789D01*
X13193407Y24410391D01*
X13137228Y24546020D01*
X13137226Y24546024D01*
X13046890Y24681221D01*
X13046884Y24681229D01*
X12931907Y24796206D01*
X12931899Y24796212D01*
X12796702Y24886548D01*
X12796698Y24886550D01*
X12646472Y24948775D01*
X12646462Y24948778D01*
X12486986Y24980500D01*
X12486984Y24980500D01*
X12324374Y24980500D01*
X12324372Y24980500D01*
X12164895Y24948778D01*
X12164885Y24948775D01*
X12014659Y24886550D01*
X12014655Y24886548D01*
X11879458Y24796212D01*
X11879450Y24796206D01*
X11764473Y24681229D01*
X11764467Y24681221D01*
X11674131Y24546024D01*
X11674129Y24546020D01*
X11611904Y24395794D01*
X11611901Y24395784D01*
X11580179Y24236308D01*
X11580179Y24236305D01*
X11580179Y24073695D01*
X11580179Y24073693D01*
X11580178Y24073693D01*
X11611901Y23914217D01*
X11611904Y23914207D01*
X11649703Y23822952D01*
X11653210Y23790327D01*
X11657880Y23757853D01*
X11656926Y23755766D01*
X11657172Y23753483D01*
X11642483Y23724140D01*
X11628855Y23694297D01*
X11626924Y23693057D01*
X11625897Y23691004D01*
X11597687Y23674267D01*
X11570077Y23656523D01*
X11567046Y23656088D01*
X11565807Y23655352D01*
X11535142Y23651500D01*
X11376030Y23651500D01*
X11308991Y23671185D01*
X11263236Y23723989D01*
X11254413Y23751308D01*
X11246933Y23788910D01*
X11246932Y23788911D01*
X11246932Y23788915D01*
X11241571Y23801858D01*
X11184705Y23939146D01*
X11184703Y23939150D01*
X11094367Y24074347D01*
X11094361Y24074355D01*
X10979384Y24189332D01*
X10979376Y24189338D01*
X10844179Y24279674D01*
X10844175Y24279676D01*
X10693949Y24341901D01*
X10693939Y24341904D01*
X10534463Y24373626D01*
X10534461Y24373626D01*
X10371851Y24373626D01*
X10371849Y24373626D01*
X10212372Y24341904D01*
X10212362Y24341901D01*
X10062136Y24279676D01*
X10062132Y24279674D01*
X9926935Y24189338D01*
X9926927Y24189332D01*
X9811950Y24074355D01*
X9811944Y24074347D01*
X9721608Y23939150D01*
X9721606Y23939146D01*
X9659381Y23788920D01*
X9659378Y23788910D01*
X9627656Y23629434D01*
X9627656Y23466817D01*
X9647818Y23365457D01*
X9641591Y23295866D01*
X9598728Y23240688D01*
X9532838Y23217444D01*
X9526201Y23217266D01*
X9259734Y23217266D01*
X9192695Y23236951D01*
X9190844Y23238164D01*
X9063408Y23323314D01*
X9063404Y23323316D01*
X8913178Y23385541D01*
X8913168Y23385544D01*
X8753692Y23417266D01*
X8753690Y23417266D01*
X8591080Y23417266D01*
X8591078Y23417266D01*
X8431602Y23385544D01*
X8431599Y23385543D01*
X8431597Y23385543D01*
X8431596Y23385542D01*
X8418346Y23380054D01*
X8348879Y23372586D01*
X8286400Y23403862D01*
X8250748Y23463952D01*
X8246897Y23494616D01*
X8246897Y23532043D01*
X8246896Y23532045D01*
X8239753Y23567954D01*
X8216134Y23686695D01*
X8210830Y23699500D01*
X8155794Y23832371D01*
X8155787Y23832384D01*
X8068186Y23963487D01*
X8068183Y23963491D01*
X7956689Y24074985D01*
X7956685Y24074988D01*
X7825582Y24162589D01*
X7825569Y24162596D01*
X7679898Y24222934D01*
X7679886Y24222937D01*
X7525242Y24253698D01*
X7525239Y24253698D01*
X7367555Y24253698D01*
X7367552Y24253698D01*
X7212907Y24222937D01*
X7212895Y24222934D01*
X7067224Y24162596D01*
X7067211Y24162589D01*
X6936108Y24074988D01*
X6825329Y23964209D01*
X6764006Y23930725D01*
X6694314Y23935709D01*
X6638381Y23977581D01*
X6613964Y24043045D01*
X6623086Y24099342D01*
X6664893Y24200271D01*
X6680688Y24279676D01*
X6696617Y24359753D01*
X6696617Y24525500D01*
X6716302Y24592539D01*
X6769106Y24638294D01*
X6820617Y24649500D01*
X6836833Y24649500D01*
X6836834Y24649501D01*
X6894822Y24661036D01*
X7010798Y24684104D01*
X7010801Y24684106D01*
X7010806Y24684106D01*
X7161269Y24746429D01*
X7174680Y24751984D01*
X7174680Y24751985D01*
X7174687Y24751987D01*
X7322175Y24850536D01*
X7447604Y24975965D01*
X7546153Y25123453D01*
X7614034Y25287334D01*
X7615150Y25292940D01*
X7626674Y25350878D01*
X7659058Y25412789D01*
X7719774Y25447363D01*
X7789544Y25443624D01*
X7817179Y25429791D01*
X7908979Y25368452D01*
X7908980Y25368452D01*
X7908981Y25368451D01*
X8059206Y25306226D01*
X8059211Y25306224D01*
X8059215Y25306224D01*
X8059216Y25306223D01*
X8218692Y25274500D01*
X8218695Y25274500D01*
X8381306Y25274500D01*
X8425540Y25283300D01*
X8505311Y25299167D01*
X8574901Y25292940D01*
X8630079Y25250078D01*
X8644063Y25225002D01*
X8686122Y25123460D01*
X8686129Y25123447D01*
X8784674Y24975966D01*
X8784677Y24975962D01*
X8910100Y24850539D01*
X8910104Y24850536D01*
X9057585Y24751991D01*
X9057598Y24751984D01*
X9142088Y24716988D01*
X9221473Y24684106D01*
X9221475Y24684106D01*
X9221480Y24684104D01*
X9395443Y24649501D01*
X9395446Y24649500D01*
X9395448Y24649500D01*
X9572832Y24649500D01*
X9572833Y24649501D01*
X9630821Y24661036D01*
X9746797Y24684104D01*
X9746800Y24684106D01*
X9746805Y24684106D01*
X9897268Y24746429D01*
X9910679Y24751984D01*
X9910679Y24751985D01*
X9910686Y24751987D01*
X10058174Y24850536D01*
X10183603Y24975965D01*
X10282152Y25123453D01*
X10350033Y25287334D01*
X10352642Y25300446D01*
X10384221Y25459207D01*
X10384639Y25461309D01*
X10384639Y25638691D01*
X10384639Y25638694D01*
X10362238Y25751308D01*
X10368465Y25820900D01*
X10411328Y25876077D01*
X10477217Y25899322D01*
X10483855Y25899500D01*
X13250284Y25899500D01*
X13317323Y25879815D01*
G37*
G04 #@! TD.AperFunction*
G04 #@! TD*
M02*
