G04 #@! TF.GenerationSoftware,KiCad,Pcbnew,9.0.1-9.0.1-0~ubuntu22.04.1*
G04 #@! TF.CreationDate,2025-04-15T01:02:31-04:00*
G04 #@! TF.ProjectId,TTExperimentModule,54544578-7065-4726-996d-656e744d6f64,1.0*
G04 #@! TF.SameCoordinates,PX10e4380PY2d07198*
G04 #@! TF.FileFunction,Soldermask,Bot*
G04 #@! TF.FilePolarity,Negative*
%FSLAX46Y46*%
G04 Gerber Fmt 4.6, Leading zero omitted, Abs format (unit mm)*
G04 Created by KiCad (PCBNEW 9.0.1-9.0.1-0~ubuntu22.04.1) date 2025-04-15 01:02:31*
%MOMM*%
%LPD*%
G01*
G04 APERTURE LIST*
%ADD10C,0.100000*%
%ADD11C,0.300000*%
%ADD12R,1.000000X1.000000*%
%ADD13C,1.000000*%
%ADD14C,1.524000*%
%ADD15C,4.000000*%
%ADD16O,1.000000X1.000000*%
%ADD17R,1.700000X1.700000*%
%ADD18C,1.700000*%
G04 APERTURE END LIST*
D10*
X35825000Y12025000D02*
X35175000Y12025000D01*
X35175000Y10725000D01*
X35825000Y10725000D01*
X35825000Y12025000D01*
G36*
X35825000Y12025000D02*
G01*
X35175000Y12025000D01*
X35175000Y10725000D01*
X35825000Y10725000D01*
X35825000Y12025000D01*
G37*
X38300000Y11150000D02*
X37800000Y11130000D01*
X37980000Y11770000D01*
X38070000Y11800000D01*
X38300000Y11150000D01*
G36*
X38300000Y11150000D02*
G01*
X37800000Y11130000D01*
X37980000Y11770000D01*
X38070000Y11800000D01*
X38300000Y11150000D01*
G37*
X38462500Y14637500D02*
X37887500Y14637500D01*
X37887500Y13262500D01*
X38462500Y13262500D01*
X38462500Y14637500D01*
G36*
X38462500Y14637500D02*
G01*
X37887500Y14637500D01*
X37887500Y13262500D01*
X38462500Y13262500D01*
X38462500Y14637500D01*
G37*
X39750000Y11375000D02*
X39250000Y11375000D01*
X38950000Y11675000D01*
X39250000Y12175000D01*
X39750000Y12175000D01*
X39750000Y11375000D01*
G36*
X39750000Y11375000D02*
G01*
X39250000Y11375000D01*
X38950000Y11675000D01*
X39250000Y12175000D01*
X39750000Y12175000D01*
X39750000Y11375000D01*
G37*
D11*
X40021427Y14584939D02*
X39949999Y14661130D01*
X39949999Y14661130D02*
X39807142Y14737320D01*
X39807142Y14737320D02*
X39449999Y14737320D01*
X39449999Y14737320D02*
X39307142Y14661130D01*
X39307142Y14661130D02*
X39235713Y14584939D01*
X39235713Y14584939D02*
X39164284Y14432558D01*
X39164284Y14432558D02*
X39164284Y14280177D01*
X39164284Y14280177D02*
X39235713Y14051606D01*
X39235713Y14051606D02*
X40092856Y13137320D01*
X40092856Y13137320D02*
X39164284Y13137320D01*
X38235713Y14737320D02*
X38092856Y14737320D01*
X38092856Y14737320D02*
X37949999Y14661130D01*
X37949999Y14661130D02*
X37878571Y14584939D01*
X37878571Y14584939D02*
X37807142Y14432558D01*
X37807142Y14432558D02*
X37735713Y14127796D01*
X37735713Y14127796D02*
X37735713Y13746844D01*
X37735713Y13746844D02*
X37807142Y13442082D01*
X37807142Y13442082D02*
X37878571Y13289701D01*
X37878571Y13289701D02*
X37949999Y13213510D01*
X37949999Y13213510D02*
X38092856Y13137320D01*
X38092856Y13137320D02*
X38235713Y13137320D01*
X38235713Y13137320D02*
X38378571Y13213510D01*
X38378571Y13213510D02*
X38449999Y13289701D01*
X38449999Y13289701D02*
X38521428Y13442082D01*
X38521428Y13442082D02*
X38592856Y13746844D01*
X38592856Y13746844D02*
X38592856Y14127796D01*
X38592856Y14127796D02*
X38521428Y14432558D01*
X38521428Y14432558D02*
X38449999Y14584939D01*
X38449999Y14584939D02*
X38378571Y14661130D01*
X38378571Y14661130D02*
X38235713Y14737320D01*
X37164285Y14584939D02*
X37092857Y14661130D01*
X37092857Y14661130D02*
X36950000Y14737320D01*
X36950000Y14737320D02*
X36592857Y14737320D01*
X36592857Y14737320D02*
X36450000Y14661130D01*
X36450000Y14661130D02*
X36378571Y14584939D01*
X36378571Y14584939D02*
X36307142Y14432558D01*
X36307142Y14432558D02*
X36307142Y14280177D01*
X36307142Y14280177D02*
X36378571Y14051606D01*
X36378571Y14051606D02*
X37235714Y13137320D01*
X37235714Y13137320D02*
X36307142Y13137320D01*
X34950000Y14737320D02*
X35664286Y14737320D01*
X35664286Y14737320D02*
X35735714Y13975415D01*
X35735714Y13975415D02*
X35664286Y14051606D01*
X35664286Y14051606D02*
X35521429Y14127796D01*
X35521429Y14127796D02*
X35164286Y14127796D01*
X35164286Y14127796D02*
X35021429Y14051606D01*
X35021429Y14051606D02*
X34950000Y13975415D01*
X34950000Y13975415D02*
X34878571Y13823034D01*
X34878571Y13823034D02*
X34878571Y13442082D01*
X34878571Y13442082D02*
X34950000Y13289701D01*
X34950000Y13289701D02*
X35021429Y13213510D01*
X35021429Y13213510D02*
X35164286Y13137320D01*
X35164286Y13137320D02*
X35521429Y13137320D01*
X35521429Y13137320D02*
X35664286Y13213510D01*
X35664286Y13213510D02*
X35735714Y13289701D01*
X39807142Y10561410D02*
X39807142Y12161410D01*
X39807142Y12161410D02*
X39235713Y12161410D01*
X39235713Y12161410D02*
X39092856Y12085220D01*
X39092856Y12085220D02*
X39021427Y12009029D01*
X39021427Y12009029D02*
X38949999Y11856648D01*
X38949999Y11856648D02*
X38949999Y11628077D01*
X38949999Y11628077D02*
X39021427Y11475696D01*
X39021427Y11475696D02*
X39092856Y11399505D01*
X39092856Y11399505D02*
X39235713Y11323315D01*
X39235713Y11323315D02*
X39807142Y11323315D01*
X38378570Y11018553D02*
X37664285Y11018553D01*
X38521427Y10561410D02*
X38021427Y12161410D01*
X38021427Y12161410D02*
X37521427Y10561410D01*
X37235713Y12161410D02*
X36378571Y12161410D01*
X36807142Y10561410D02*
X36807142Y12161410D01*
X35878571Y10561410D02*
X35878571Y12161410D01*
X35878571Y12161410D02*
X35521428Y12161410D01*
X35521428Y12161410D02*
X35307142Y12085220D01*
X35307142Y12085220D02*
X35164285Y11932839D01*
X35164285Y11932839D02*
X35092856Y11780458D01*
X35092856Y11780458D02*
X35021428Y11475696D01*
X35021428Y11475696D02*
X35021428Y11247124D01*
X35021428Y11247124D02*
X35092856Y10942362D01*
X35092856Y10942362D02*
X35164285Y10789981D01*
X35164285Y10789981D02*
X35307142Y10637600D01*
X35307142Y10637600D02*
X35521428Y10561410D01*
X35521428Y10561410D02*
X35878571Y10561410D01*
D12*
G04 #@! TO.C,J1*
X1750000Y5250000D03*
D13*
X1750000Y6520000D03*
X1750000Y7790000D03*
G04 #@! TD*
D14*
G04 #@! TO.C,PCB1*
X0Y27000000D03*
X0Y19000000D03*
X0Y11000000D03*
X0Y3000000D03*
X45000000Y3000000D03*
X45000000Y11000000D03*
X45000000Y19000000D03*
X45000000Y27000000D03*
D15*
X22500000Y15000000D03*
G04 #@! TD*
D12*
G04 #@! TO.C,J5*
X41200000Y3600000D03*
D13*
X39930000Y3600000D03*
X38660000Y3600000D03*
X37390000Y3600000D03*
G04 #@! TD*
D12*
G04 #@! TO.C,J6*
X15750000Y25500000D03*
D16*
X15750000Y24230000D03*
G04 #@! TD*
D17*
G04 #@! TO.C,J2*
X18575000Y28500000D03*
D18*
X16035000Y28500000D03*
G04 #@! TD*
M02*
