G04 #@! TF.GenerationSoftware,KiCad,Pcbnew,9.0.1-9.0.1-0~ubuntu22.04.1*
G04 #@! TF.CreationDate,2025-04-13T11:09:07-04:00*
G04 #@! TF.ProjectId,TTExperimentModule,54544578-7065-4726-996d-656e744d6f64,1.0*
G04 #@! TF.SameCoordinates,PX10e4380PY2d07198*
G04 #@! TF.FileFunction,Soldermask,Top*
G04 #@! TF.FilePolarity,Negative*
%FSLAX46Y46*%
G04 Gerber Fmt 4.6, Leading zero omitted, Abs format (unit mm)*
G04 Created by KiCad (PCBNEW 9.0.1-9.0.1-0~ubuntu22.04.1) date 2025-04-13 11:09:07*
%MOMM*%
%LPD*%
G01*
G04 APERTURE LIST*
G04 Aperture macros list*
%AMRoundRect*
0 Rectangle with rounded corners*
0 $1 Rounding radius*
0 $2 $3 $4 $5 $6 $7 $8 $9 X,Y pos of 4 corners*
0 Add a 4 corners polygon primitive as box body*
4,1,4,$2,$3,$4,$5,$6,$7,$8,$9,$2,$3,0*
0 Add four circle primitives for the rounded corners*
1,1,$1+$1,$2,$3*
1,1,$1+$1,$4,$5*
1,1,$1+$1,$6,$7*
1,1,$1+$1,$8,$9*
0 Add four rect primitives between the rounded corners*
20,1,$1+$1,$2,$3,$4,$5,0*
20,1,$1+$1,$4,$5,$6,$7,0*
20,1,$1+$1,$6,$7,$8,$9,0*
20,1,$1+$1,$8,$9,$2,$3,0*%
G04 Aperture macros list end*
%ADD10RoundRect,0.050000X0.050000X-0.387500X0.050000X0.387500X-0.050000X0.387500X-0.050000X-0.387500X0*%
%ADD11RoundRect,0.050000X0.387500X-0.050000X0.387500X0.050000X-0.387500X0.050000X-0.387500X-0.050000X0*%
%ADD12R,3.200000X3.200000*%
%ADD13RoundRect,0.102000X-0.241300X0.088900X-0.241300X-0.088900X0.241300X-0.088900X0.241300X0.088900X0*%
%ADD14RoundRect,0.102000X-0.266700X0.114300X-0.266700X-0.114300X0.266700X-0.114300X0.266700X0.114300X0*%
%ADD15R,1.000000X1.000000*%
%ADD16C,1.000000*%
%ADD17RoundRect,0.135000X-0.185000X0.135000X-0.185000X-0.135000X0.185000X-0.135000X0.185000X0.135000X0*%
%ADD18RoundRect,0.140000X0.170000X-0.140000X0.170000X0.140000X-0.170000X0.140000X-0.170000X-0.140000X0*%
%ADD19RoundRect,0.250000X0.312500X0.625000X-0.312500X0.625000X-0.312500X-0.625000X0.312500X-0.625000X0*%
%ADD20RoundRect,0.135000X-0.135000X-0.185000X0.135000X-0.185000X0.135000X0.185000X-0.135000X0.185000X0*%
%ADD21RoundRect,0.140000X0.140000X0.170000X-0.140000X0.170000X-0.140000X-0.170000X0.140000X-0.170000X0*%
%ADD22RoundRect,0.150000X0.512500X0.150000X-0.512500X0.150000X-0.512500X-0.150000X0.512500X-0.150000X0*%
%ADD23RoundRect,0.140000X-0.170000X0.140000X-0.170000X-0.140000X0.170000X-0.140000X0.170000X0.140000X0*%
%ADD24RoundRect,0.225000X-0.250000X0.225000X-0.250000X-0.225000X0.250000X-0.225000X0.250000X0.225000X0*%
%ADD25RoundRect,0.135000X0.185000X-0.135000X0.185000X0.135000X-0.185000X0.135000X-0.185000X-0.135000X0*%
%ADD26RoundRect,0.140000X-0.140000X-0.170000X0.140000X-0.170000X0.140000X0.170000X-0.140000X0.170000X0*%
%ADD27RoundRect,0.135000X0.135000X0.185000X-0.135000X0.185000X-0.135000X-0.185000X0.135000X-0.185000X0*%
%ADD28RoundRect,0.250000X-0.450000X0.262500X-0.450000X-0.262500X0.450000X-0.262500X0.450000X0.262500X0*%
%ADD29RoundRect,0.225000X0.250000X-0.225000X0.250000X0.225000X-0.250000X0.225000X-0.250000X-0.225000X0*%
%ADD30C,1.524000*%
%ADD31C,4.000000*%
%ADD32RoundRect,0.218750X0.218750X0.256250X-0.218750X0.256250X-0.218750X-0.256250X0.218750X-0.256250X0*%
%ADD33R,1.700000X1.700000*%
%ADD34C,1.700000*%
%ADD35RoundRect,0.218750X-0.256250X0.218750X-0.256250X-0.218750X0.256250X-0.218750X0.256250X0.218750X0*%
%ADD36RoundRect,0.225000X-0.225000X-0.250000X0.225000X-0.250000X0.225000X0.250000X-0.225000X0.250000X0*%
%ADD37O,1.000000X1.000000*%
%ADD38RoundRect,0.250000X0.625000X-0.312500X0.625000X0.312500X-0.625000X0.312500X-0.625000X-0.312500X0*%
%ADD39RoundRect,0.250000X0.475000X-0.250000X0.475000X0.250000X-0.475000X0.250000X-0.475000X-0.250000X0*%
%ADD40RoundRect,0.162500X0.650000X0.162500X-0.650000X0.162500X-0.650000X-0.162500X0.650000X-0.162500X0*%
%ADD41RoundRect,0.062500X-0.362500X-0.062500X0.362500X-0.062500X0.362500X0.062500X-0.362500X0.062500X0*%
%ADD42RoundRect,0.062500X-0.062500X-0.362500X0.062500X-0.362500X0.062500X0.362500X-0.062500X0.362500X0*%
%ADD43R,7.650000X7.650000*%
%ADD44R,1.400000X1.200000*%
%ADD45RoundRect,0.100000X-0.637500X-0.100000X0.637500X-0.100000X0.637500X0.100000X-0.637500X0.100000X0*%
G04 APERTURE END LIST*
D10*
G04 #@! TO.C,U5*
X7962500Y6562500D03*
X8362500Y6562500D03*
X8762500Y6562500D03*
X9162500Y6562500D03*
X9562500Y6562500D03*
X9962500Y6562500D03*
X10362500Y6562500D03*
X10762500Y6562500D03*
X11162500Y6562500D03*
X11562500Y6562500D03*
X11962500Y6562500D03*
X12362500Y6562500D03*
X12762500Y6562500D03*
X13162500Y6562500D03*
D11*
X14000000Y7400000D03*
X14000000Y7800000D03*
X14000000Y8200000D03*
X14000000Y8600000D03*
X14000000Y9000000D03*
X14000000Y9400000D03*
X14000000Y9800000D03*
X14000000Y10200000D03*
X14000000Y10600000D03*
X14000000Y11000000D03*
X14000000Y11400000D03*
X14000000Y11800000D03*
X14000000Y12200000D03*
X14000000Y12600000D03*
D10*
X13162500Y13437500D03*
X12762500Y13437500D03*
X12362500Y13437500D03*
X11962500Y13437500D03*
X11562500Y13437500D03*
X11162500Y13437500D03*
X10762500Y13437500D03*
X10362500Y13437500D03*
X9962500Y13437500D03*
X9562500Y13437500D03*
X9162500Y13437500D03*
X8762500Y13437500D03*
X8362500Y13437500D03*
X7962500Y13437500D03*
D11*
X7125000Y12600000D03*
X7125000Y12200000D03*
X7125000Y11800000D03*
X7125000Y11400000D03*
X7125000Y11000000D03*
X7125000Y10600000D03*
X7125000Y10200000D03*
X7125000Y9800000D03*
X7125000Y9400000D03*
X7125000Y9000000D03*
X7125000Y8600000D03*
X7125000Y8200000D03*
X7125000Y7800000D03*
X7125000Y7400000D03*
D12*
X10562500Y10000000D03*
G04 #@! TD*
D13*
G04 #@! TO.C,J3*
X5207500Y15350000D03*
X3392500Y15350000D03*
X5207500Y15000000D03*
X3392500Y15000000D03*
X5207500Y14650000D03*
X3392500Y14650000D03*
D14*
X5067500Y15725000D03*
X5067500Y14275000D03*
X3532500Y15725000D03*
X3532500Y14275000D03*
G04 #@! TD*
D15*
G04 #@! TO.C,J5*
X41200000Y3600000D03*
D16*
X39930000Y3600000D03*
X38660000Y3600000D03*
X37390000Y3600000D03*
G04 #@! TD*
D17*
G04 #@! TO.C,R6*
X13700000Y29210000D03*
X13700000Y28190000D03*
G04 #@! TD*
D18*
G04 #@! TO.C,C34*
X17400000Y10920000D03*
X17400000Y11880000D03*
G04 #@! TD*
G04 #@! TO.C,C20*
X33910000Y5110000D03*
X33910000Y6070000D03*
G04 #@! TD*
D16*
G04 #@! TO.C,FID3*
X41500000Y1000000D03*
G04 #@! TD*
D19*
G04 #@! TO.C,R7*
X43462500Y22000000D03*
X40537500Y22000000D03*
G04 #@! TD*
D20*
G04 #@! TO.C,R13*
X14340000Y22050000D03*
X15360000Y22050000D03*
G04 #@! TD*
D21*
G04 #@! TO.C,C25*
X31680000Y11100000D03*
X30720000Y11100000D03*
G04 #@! TD*
D22*
G04 #@! TO.C,U3*
X9957500Y27050000D03*
X9957500Y28000000D03*
X9957500Y28950000D03*
X7682500Y28950000D03*
X7682500Y27050000D03*
G04 #@! TD*
D23*
G04 #@! TO.C,C24*
X43322000Y15980000D03*
X43322000Y15020000D03*
G04 #@! TD*
D24*
G04 #@! TO.C,C27*
X15700000Y15575000D03*
X15700000Y14025000D03*
G04 #@! TD*
D18*
G04 #@! TO.C,C39*
X11900000Y15320000D03*
X11900000Y16280000D03*
G04 #@! TD*
G04 #@! TO.C,C3*
X33112500Y26570000D03*
X33112500Y27530000D03*
G04 #@! TD*
D25*
G04 #@! TO.C,R11*
X30700000Y9090000D03*
X30700000Y10110000D03*
G04 #@! TD*
D26*
G04 #@! TO.C,C29*
X17220000Y5300000D03*
X18180000Y5300000D03*
G04 #@! TD*
G04 #@! TO.C,C31*
X3540000Y19600000D03*
X4500000Y19600000D03*
G04 #@! TD*
D27*
G04 #@! TO.C,R4*
X26140000Y6785000D03*
X25120000Y6785000D03*
G04 #@! TD*
D28*
G04 #@! TO.C,R9*
X35300000Y3212500D03*
X35300000Y1387500D03*
G04 #@! TD*
D29*
G04 #@! TO.C,C12*
X43400000Y23925000D03*
X43400000Y25475000D03*
G04 #@! TD*
D27*
G04 #@! TO.C,R14*
X18222500Y9900000D03*
X17202500Y9900000D03*
G04 #@! TD*
D26*
G04 #@! TO.C,C4*
X30890000Y6785000D03*
X31850000Y6785000D03*
G04 #@! TD*
D18*
G04 #@! TO.C,C17*
X32910000Y5110000D03*
X32910000Y6070000D03*
G04 #@! TD*
D29*
G04 #@! TO.C,C28*
X18400000Y13025000D03*
X18400000Y14575000D03*
G04 #@! TD*
D30*
G04 #@! TO.C,PCB1*
X0Y27000000D03*
X0Y19000000D03*
X0Y11000000D03*
X0Y3000000D03*
X45000000Y3000000D03*
X45000000Y11000000D03*
X45000000Y19000000D03*
X45000000Y27000000D03*
D31*
X22500000Y15000000D03*
G04 #@! TD*
D17*
G04 #@! TO.C,R2*
X38600000Y1910000D03*
X38600000Y890000D03*
G04 #@! TD*
D32*
G04 #@! TO.C,FB1*
X2787500Y29000000D03*
X1212500Y29000000D03*
G04 #@! TD*
D25*
G04 #@! TO.C,R18*
X13400000Y21990000D03*
X13400000Y23010000D03*
G04 #@! TD*
G04 #@! TO.C,R1*
X26100000Y7790000D03*
X26100000Y8810000D03*
G04 #@! TD*
D33*
G04 #@! TO.C,J2*
X18575000Y28500000D03*
D34*
X16035000Y28500000D03*
G04 #@! TD*
D23*
G04 #@! TO.C,C23*
X40000000Y6570000D03*
X40000000Y5610000D03*
G04 #@! TD*
D35*
G04 #@! TO.C,FB2*
X43050000Y28787500D03*
X43050000Y27212500D03*
G04 #@! TD*
D16*
G04 #@! TO.C,FID1*
X1000000Y1000000D03*
G04 #@! TD*
D29*
G04 #@! TO.C,C6*
X5850000Y27225000D03*
X5850000Y28775000D03*
G04 #@! TD*
D21*
G04 #@! TO.C,C37*
X4770000Y11750000D03*
X3810000Y11750000D03*
G04 #@! TD*
D18*
G04 #@! TO.C,C38*
X7250000Y14770000D03*
X7250000Y15730000D03*
G04 #@! TD*
D20*
G04 #@! TO.C,R16*
X5440000Y19600000D03*
X6460000Y19600000D03*
G04 #@! TD*
D16*
G04 #@! TO.C,FID2*
X28000000Y29000000D03*
G04 #@! TD*
D21*
G04 #@! TO.C,C22*
X40980000Y23700000D03*
X40020000Y23700000D03*
G04 #@! TD*
D17*
G04 #@! TO.C,R17*
X3000000Y26110000D03*
X3000000Y25090000D03*
G04 #@! TD*
D36*
G04 #@! TO.C,C8*
X40225000Y25000000D03*
X41775000Y25000000D03*
G04 #@! TD*
D29*
G04 #@! TO.C,C2*
X34362500Y26775000D03*
X34362500Y28325000D03*
G04 #@! TD*
D23*
G04 #@! TO.C,C26*
X43322000Y13960000D03*
X43322000Y13000000D03*
G04 #@! TD*
D15*
G04 #@! TO.C,J6*
X15750000Y25500000D03*
D37*
X15750000Y24230000D03*
G04 #@! TD*
D18*
G04 #@! TO.C,C19*
X32750000Y19310000D03*
X32750000Y20270000D03*
G04 #@! TD*
D22*
G04 #@! TO.C,U2*
X38637500Y26550000D03*
X38637500Y27500000D03*
X38637500Y28450000D03*
X36362500Y28450000D03*
X36362500Y26550000D03*
G04 #@! TD*
D21*
G04 #@! TO.C,C32*
X7592500Y5100000D03*
X6632500Y5100000D03*
G04 #@! TD*
D25*
G04 #@! TO.C,R15*
X13400000Y23990000D03*
X13400000Y25010000D03*
G04 #@! TD*
G04 #@! TO.C,R5*
X20900000Y27590000D03*
X20900000Y28610000D03*
G04 #@! TD*
D16*
G04 #@! TO.C,TP1*
X41500000Y6250000D03*
G04 #@! TD*
D38*
G04 #@! TO.C,R8*
X31124500Y25872500D03*
X31124500Y28797500D03*
G04 #@! TD*
D26*
G04 #@! TO.C,C21*
X30520000Y17200000D03*
X31480000Y17200000D03*
G04 #@! TD*
D39*
G04 #@! TO.C,C1*
X40900000Y26550000D03*
X40900000Y28450000D03*
G04 #@! TD*
D25*
G04 #@! TO.C,R3*
X33700000Y2490000D03*
X33700000Y3510000D03*
G04 #@! TD*
D21*
G04 #@! TO.C,C18*
X42832000Y18315000D03*
X41872000Y18315000D03*
G04 #@! TD*
D25*
G04 #@! TO.C,R19*
X3000000Y21890000D03*
X3000000Y22910000D03*
G04 #@! TD*
D23*
G04 #@! TO.C,C33*
X11562500Y5080000D03*
X11562500Y4120000D03*
G04 #@! TD*
D29*
G04 #@! TO.C,C16*
X34000000Y19540000D03*
X34000000Y21090000D03*
G04 #@! TD*
D40*
G04 #@! TO.C,U6*
X11837500Y21195000D03*
X11837500Y22465000D03*
X11837500Y23735000D03*
X11837500Y25005000D03*
X4662500Y25005000D03*
X4662500Y23735000D03*
X4662500Y22465000D03*
X4662500Y21195000D03*
G04 #@! TD*
D18*
G04 #@! TO.C,C35*
X17000000Y13320000D03*
X17000000Y14280000D03*
G04 #@! TD*
D41*
G04 #@! TO.C,U4*
X33130000Y16390000D03*
X33130000Y15890000D03*
X33130000Y15390000D03*
X33130000Y14890000D03*
X33130000Y14390000D03*
X33130000Y13890000D03*
X33130000Y13390000D03*
X33130000Y12890000D03*
X33130000Y12390000D03*
X33130000Y11890000D03*
X33130000Y11390000D03*
X33130000Y10890000D03*
X33130000Y10390000D03*
X33130000Y9890000D03*
X33130000Y9390000D03*
X33130000Y8890000D03*
D42*
X33830000Y8190000D03*
X34330000Y8190000D03*
X34830000Y8190000D03*
X35330000Y8190000D03*
X35830000Y8190000D03*
X36330000Y8190000D03*
X36830000Y8190000D03*
X37330000Y8190000D03*
X37830000Y8190000D03*
X38330000Y8190000D03*
X38830000Y8190000D03*
X39330000Y8190000D03*
X39830000Y8190000D03*
X40330000Y8190000D03*
X40830000Y8190000D03*
X41330000Y8190000D03*
D41*
X42030000Y8890000D03*
X42030000Y9390000D03*
X42030000Y9890000D03*
X42030000Y10390000D03*
X42030000Y10890000D03*
X42030000Y11390000D03*
X42030000Y11890000D03*
X42030000Y12390000D03*
X42030000Y12890000D03*
X42030000Y13390000D03*
X42030000Y13890000D03*
X42030000Y14390000D03*
X42030000Y14890000D03*
X42030000Y15390000D03*
X42030000Y15890000D03*
X42030000Y16390000D03*
D42*
X41330000Y17090000D03*
X40830000Y17090000D03*
X40330000Y17090000D03*
X39830000Y17090000D03*
X39330000Y17090000D03*
X38830000Y17090000D03*
X38330000Y17090000D03*
X37830000Y17090000D03*
X37330000Y17090000D03*
X36830000Y17090000D03*
X36330000Y17090000D03*
X35830000Y17090000D03*
X35330000Y17090000D03*
X34830000Y17090000D03*
X34330000Y17090000D03*
X33830000Y17090000D03*
D43*
X37580000Y12640000D03*
G04 #@! TD*
D24*
G04 #@! TO.C,C15*
X35160000Y6280000D03*
X35160000Y4730000D03*
G04 #@! TD*
D44*
G04 #@! TO.C,Y1*
X17512500Y6700000D03*
X19712500Y6700000D03*
X19712500Y8400000D03*
X17512500Y8400000D03*
G04 #@! TD*
D39*
G04 #@! TO.C,C5*
X11870000Y27050000D03*
X11870000Y28950000D03*
G04 #@! TD*
D21*
G04 #@! TO.C,C36*
X5730000Y10250000D03*
X4770000Y10250000D03*
G04 #@! TD*
D18*
G04 #@! TO.C,C7*
X4600000Y27620000D03*
X4600000Y28580000D03*
G04 #@! TD*
D15*
G04 #@! TO.C,J1*
X1750000Y5250000D03*
D16*
X1750000Y6520000D03*
X1750000Y7790000D03*
G04 #@! TD*
D45*
G04 #@! TO.C,U1*
X25527500Y5560000D03*
X25527500Y4910000D03*
X25527500Y4260000D03*
X25527500Y3610000D03*
X25527500Y2960000D03*
X25527500Y2310000D03*
X25527500Y1660000D03*
X25527500Y1010000D03*
X31252500Y1010000D03*
X31252500Y1660000D03*
X31252500Y2310000D03*
X31252500Y2960000D03*
X31252500Y3610000D03*
X31252500Y4260000D03*
X31252500Y4910000D03*
X31252500Y5560000D03*
G04 #@! TD*
D36*
G04 #@! TO.C,C14*
X31725000Y24135000D03*
X33275000Y24135000D03*
G04 #@! TD*
D26*
G04 #@! TO.C,C30*
X19232500Y9900000D03*
X20192500Y9900000D03*
G04 #@! TD*
M02*
