G04 #@! TF.GenerationSoftware,KiCad,Pcbnew,9.0.1-9.0.1-0~ubuntu22.04.1*
G04 #@! TF.CreationDate,2025-04-15T01:02:31-04:00*
G04 #@! TF.ProjectId,TTExperimentModule,54544578-7065-4726-996d-656e744d6f64,1.0*
G04 #@! TF.SameCoordinates,PX10e4380PY2d07198*
G04 #@! TF.FileFunction,AssemblyDrawing,Top*
%FSLAX46Y46*%
G04 Gerber Fmt 4.6, Leading zero omitted, Abs format (unit mm)*
G04 Created by KiCad (PCBNEW 9.0.1-9.0.1-0~ubuntu22.04.1) date 2025-04-15 01:02:31*
%MOMM*%
%LPD*%
G01*
G04 APERTURE LIST*
%ADD10C,0.040000*%
%ADD11C,0.150000*%
%ADD12C,0.120000*%
%ADD13C,0.060000*%
%ADD14C,0.080000*%
%ADD15C,0.105000*%
%ADD16C,0.125000*%
%ADD17C,0.100000*%
%ADD18C,0.152400*%
%ADD19C,0.148995*%
G04 APERTURE END LIST*
D10*
X43411765Y15339286D02*
X43423670Y15327382D01*
X43423670Y15327382D02*
X43435574Y15291667D01*
X43435574Y15291667D02*
X43435574Y15267858D01*
X43435574Y15267858D02*
X43423670Y15232144D01*
X43423670Y15232144D02*
X43399860Y15208334D01*
X43399860Y15208334D02*
X43376050Y15196429D01*
X43376050Y15196429D02*
X43328431Y15184525D01*
X43328431Y15184525D02*
X43292717Y15184525D01*
X43292717Y15184525D02*
X43245098Y15196429D01*
X43245098Y15196429D02*
X43221289Y15208334D01*
X43221289Y15208334D02*
X43197479Y15232144D01*
X43197479Y15232144D02*
X43185574Y15267858D01*
X43185574Y15267858D02*
X43185574Y15291667D01*
X43185574Y15291667D02*
X43197479Y15327382D01*
X43197479Y15327382D02*
X43209384Y15339286D01*
X43209384Y15434525D02*
X43197479Y15446429D01*
X43197479Y15446429D02*
X43185574Y15470239D01*
X43185574Y15470239D02*
X43185574Y15529763D01*
X43185574Y15529763D02*
X43197479Y15553572D01*
X43197479Y15553572D02*
X43209384Y15565477D01*
X43209384Y15565477D02*
X43233193Y15577382D01*
X43233193Y15577382D02*
X43257003Y15577382D01*
X43257003Y15577382D02*
X43292717Y15565477D01*
X43292717Y15565477D02*
X43435574Y15422620D01*
X43435574Y15422620D02*
X43435574Y15577382D01*
X43268908Y15791667D02*
X43435574Y15791667D01*
X43173670Y15732143D02*
X43352241Y15672620D01*
X43352241Y15672620D02*
X43352241Y15827381D01*
X5089285Y10160235D02*
X5077381Y10148330D01*
X5077381Y10148330D02*
X5041666Y10136426D01*
X5041666Y10136426D02*
X5017857Y10136426D01*
X5017857Y10136426D02*
X4982143Y10148330D01*
X4982143Y10148330D02*
X4958333Y10172140D01*
X4958333Y10172140D02*
X4946428Y10195950D01*
X4946428Y10195950D02*
X4934524Y10243569D01*
X4934524Y10243569D02*
X4934524Y10279283D01*
X4934524Y10279283D02*
X4946428Y10326902D01*
X4946428Y10326902D02*
X4958333Y10350711D01*
X4958333Y10350711D02*
X4982143Y10374521D01*
X4982143Y10374521D02*
X5017857Y10386426D01*
X5017857Y10386426D02*
X5041666Y10386426D01*
X5041666Y10386426D02*
X5077381Y10374521D01*
X5077381Y10374521D02*
X5089285Y10362616D01*
X5172619Y10386426D02*
X5327381Y10386426D01*
X5327381Y10386426D02*
X5244047Y10291188D01*
X5244047Y10291188D02*
X5279762Y10291188D01*
X5279762Y10291188D02*
X5303571Y10279283D01*
X5303571Y10279283D02*
X5315476Y10267378D01*
X5315476Y10267378D02*
X5327381Y10243569D01*
X5327381Y10243569D02*
X5327381Y10184045D01*
X5327381Y10184045D02*
X5315476Y10160235D01*
X5315476Y10160235D02*
X5303571Y10148330D01*
X5303571Y10148330D02*
X5279762Y10136426D01*
X5279762Y10136426D02*
X5208333Y10136426D01*
X5208333Y10136426D02*
X5184524Y10148330D01*
X5184524Y10148330D02*
X5172619Y10160235D01*
X5541666Y10386426D02*
X5494047Y10386426D01*
X5494047Y10386426D02*
X5470238Y10374521D01*
X5470238Y10374521D02*
X5458333Y10362616D01*
X5458333Y10362616D02*
X5434523Y10326902D01*
X5434523Y10326902D02*
X5422619Y10279283D01*
X5422619Y10279283D02*
X5422619Y10184045D01*
X5422619Y10184045D02*
X5434523Y10160235D01*
X5434523Y10160235D02*
X5446428Y10148330D01*
X5446428Y10148330D02*
X5470238Y10136426D01*
X5470238Y10136426D02*
X5517857Y10136426D01*
X5517857Y10136426D02*
X5541666Y10148330D01*
X5541666Y10148330D02*
X5553571Y10160235D01*
X5553571Y10160235D02*
X5565476Y10184045D01*
X5565476Y10184045D02*
X5565476Y10243569D01*
X5565476Y10243569D02*
X5553571Y10267378D01*
X5553571Y10267378D02*
X5541666Y10279283D01*
X5541666Y10279283D02*
X5517857Y10291188D01*
X5517857Y10291188D02*
X5470238Y10291188D01*
X5470238Y10291188D02*
X5446428Y10279283D01*
X5446428Y10279283D02*
X5434523Y10267378D01*
X5434523Y10267378D02*
X5422619Y10243569D01*
D11*
X1204819Y6186667D02*
X1919104Y6186667D01*
X1919104Y6186667D02*
X2061961Y6139048D01*
X2061961Y6139048D02*
X2157200Y6043810D01*
X2157200Y6043810D02*
X2204819Y5900953D01*
X2204819Y5900953D02*
X2204819Y5805715D01*
X2204819Y7186667D02*
X2204819Y6615239D01*
X2204819Y6900953D02*
X1204819Y6900953D01*
X1204819Y6900953D02*
X1347676Y6805715D01*
X1347676Y6805715D02*
X1442914Y6710477D01*
X1442914Y6710477D02*
X1490533Y6615239D01*
D10*
X17539285Y5210235D02*
X17527381Y5198330D01*
X17527381Y5198330D02*
X17491666Y5186426D01*
X17491666Y5186426D02*
X17467857Y5186426D01*
X17467857Y5186426D02*
X17432143Y5198330D01*
X17432143Y5198330D02*
X17408333Y5222140D01*
X17408333Y5222140D02*
X17396428Y5245950D01*
X17396428Y5245950D02*
X17384524Y5293569D01*
X17384524Y5293569D02*
X17384524Y5329283D01*
X17384524Y5329283D02*
X17396428Y5376902D01*
X17396428Y5376902D02*
X17408333Y5400711D01*
X17408333Y5400711D02*
X17432143Y5424521D01*
X17432143Y5424521D02*
X17467857Y5436426D01*
X17467857Y5436426D02*
X17491666Y5436426D01*
X17491666Y5436426D02*
X17527381Y5424521D01*
X17527381Y5424521D02*
X17539285Y5412616D01*
X17634524Y5412616D02*
X17646428Y5424521D01*
X17646428Y5424521D02*
X17670238Y5436426D01*
X17670238Y5436426D02*
X17729762Y5436426D01*
X17729762Y5436426D02*
X17753571Y5424521D01*
X17753571Y5424521D02*
X17765476Y5412616D01*
X17765476Y5412616D02*
X17777381Y5388807D01*
X17777381Y5388807D02*
X17777381Y5364997D01*
X17777381Y5364997D02*
X17765476Y5329283D01*
X17765476Y5329283D02*
X17622619Y5186426D01*
X17622619Y5186426D02*
X17777381Y5186426D01*
X17896428Y5186426D02*
X17944047Y5186426D01*
X17944047Y5186426D02*
X17967857Y5198330D01*
X17967857Y5198330D02*
X17979761Y5210235D01*
X17979761Y5210235D02*
X18003571Y5245950D01*
X18003571Y5245950D02*
X18015476Y5293569D01*
X18015476Y5293569D02*
X18015476Y5388807D01*
X18015476Y5388807D02*
X18003571Y5412616D01*
X18003571Y5412616D02*
X17991666Y5424521D01*
X17991666Y5424521D02*
X17967857Y5436426D01*
X17967857Y5436426D02*
X17920238Y5436426D01*
X17920238Y5436426D02*
X17896428Y5424521D01*
X17896428Y5424521D02*
X17884523Y5412616D01*
X17884523Y5412616D02*
X17872619Y5388807D01*
X17872619Y5388807D02*
X17872619Y5329283D01*
X17872619Y5329283D02*
X17884523Y5305473D01*
X17884523Y5305473D02*
X17896428Y5293569D01*
X17896428Y5293569D02*
X17920238Y5281664D01*
X17920238Y5281664D02*
X17967857Y5281664D01*
X17967857Y5281664D02*
X17991666Y5293569D01*
X17991666Y5293569D02*
X18003571Y5305473D01*
X18003571Y5305473D02*
X18015476Y5329283D01*
X6951785Y5010235D02*
X6939881Y4998330D01*
X6939881Y4998330D02*
X6904166Y4986426D01*
X6904166Y4986426D02*
X6880357Y4986426D01*
X6880357Y4986426D02*
X6844643Y4998330D01*
X6844643Y4998330D02*
X6820833Y5022140D01*
X6820833Y5022140D02*
X6808928Y5045950D01*
X6808928Y5045950D02*
X6797024Y5093569D01*
X6797024Y5093569D02*
X6797024Y5129283D01*
X6797024Y5129283D02*
X6808928Y5176902D01*
X6808928Y5176902D02*
X6820833Y5200711D01*
X6820833Y5200711D02*
X6844643Y5224521D01*
X6844643Y5224521D02*
X6880357Y5236426D01*
X6880357Y5236426D02*
X6904166Y5236426D01*
X6904166Y5236426D02*
X6939881Y5224521D01*
X6939881Y5224521D02*
X6951785Y5212616D01*
X7035119Y5236426D02*
X7189881Y5236426D01*
X7189881Y5236426D02*
X7106547Y5141188D01*
X7106547Y5141188D02*
X7142262Y5141188D01*
X7142262Y5141188D02*
X7166071Y5129283D01*
X7166071Y5129283D02*
X7177976Y5117378D01*
X7177976Y5117378D02*
X7189881Y5093569D01*
X7189881Y5093569D02*
X7189881Y5034045D01*
X7189881Y5034045D02*
X7177976Y5010235D01*
X7177976Y5010235D02*
X7166071Y4998330D01*
X7166071Y4998330D02*
X7142262Y4986426D01*
X7142262Y4986426D02*
X7070833Y4986426D01*
X7070833Y4986426D02*
X7047024Y4998330D01*
X7047024Y4998330D02*
X7035119Y5010235D01*
X7285119Y5212616D02*
X7297023Y5224521D01*
X7297023Y5224521D02*
X7320833Y5236426D01*
X7320833Y5236426D02*
X7380357Y5236426D01*
X7380357Y5236426D02*
X7404166Y5224521D01*
X7404166Y5224521D02*
X7416071Y5212616D01*
X7416071Y5212616D02*
X7427976Y5188807D01*
X7427976Y5188807D02*
X7427976Y5164997D01*
X7427976Y5164997D02*
X7416071Y5129283D01*
X7416071Y5129283D02*
X7273214Y4986426D01*
X7273214Y4986426D02*
X7427976Y4986426D01*
D12*
X31488355Y27201668D02*
X31107402Y26935001D01*
X31488355Y26744525D02*
X30688355Y26744525D01*
X30688355Y26744525D02*
X30688355Y27049287D01*
X30688355Y27049287D02*
X30726450Y27125477D01*
X30726450Y27125477D02*
X30764545Y27163572D01*
X30764545Y27163572D02*
X30840736Y27201668D01*
X30840736Y27201668D02*
X30955021Y27201668D01*
X30955021Y27201668D02*
X31031212Y27163572D01*
X31031212Y27163572D02*
X31069307Y27125477D01*
X31069307Y27125477D02*
X31107402Y27049287D01*
X31107402Y27049287D02*
X31107402Y26744525D01*
X31031212Y27658810D02*
X30993117Y27582620D01*
X30993117Y27582620D02*
X30955021Y27544525D01*
X30955021Y27544525D02*
X30878831Y27506429D01*
X30878831Y27506429D02*
X30840736Y27506429D01*
X30840736Y27506429D02*
X30764545Y27544525D01*
X30764545Y27544525D02*
X30726450Y27582620D01*
X30726450Y27582620D02*
X30688355Y27658810D01*
X30688355Y27658810D02*
X30688355Y27811191D01*
X30688355Y27811191D02*
X30726450Y27887382D01*
X30726450Y27887382D02*
X30764545Y27925477D01*
X30764545Y27925477D02*
X30840736Y27963572D01*
X30840736Y27963572D02*
X30878831Y27963572D01*
X30878831Y27963572D02*
X30955021Y27925477D01*
X30955021Y27925477D02*
X30993117Y27887382D01*
X30993117Y27887382D02*
X31031212Y27811191D01*
X31031212Y27811191D02*
X31031212Y27658810D01*
X31031212Y27658810D02*
X31069307Y27582620D01*
X31069307Y27582620D02*
X31107402Y27544525D01*
X31107402Y27544525D02*
X31183593Y27506429D01*
X31183593Y27506429D02*
X31335974Y27506429D01*
X31335974Y27506429D02*
X31412164Y27544525D01*
X31412164Y27544525D02*
X31450260Y27582620D01*
X31450260Y27582620D02*
X31488355Y27658810D01*
X31488355Y27658810D02*
X31488355Y27811191D01*
X31488355Y27811191D02*
X31450260Y27887382D01*
X31450260Y27887382D02*
X31412164Y27925477D01*
X31412164Y27925477D02*
X31335974Y27963572D01*
X31335974Y27963572D02*
X31183593Y27963572D01*
X31183593Y27963572D02*
X31107402Y27925477D01*
X31107402Y27925477D02*
X31069307Y27887382D01*
X31069307Y27887382D02*
X31031212Y27811191D01*
D10*
X4689765Y28058334D02*
X4701670Y28046430D01*
X4701670Y28046430D02*
X4713574Y28010715D01*
X4713574Y28010715D02*
X4713574Y27986906D01*
X4713574Y27986906D02*
X4701670Y27951192D01*
X4701670Y27951192D02*
X4677860Y27927382D01*
X4677860Y27927382D02*
X4654050Y27915477D01*
X4654050Y27915477D02*
X4606431Y27903573D01*
X4606431Y27903573D02*
X4570717Y27903573D01*
X4570717Y27903573D02*
X4523098Y27915477D01*
X4523098Y27915477D02*
X4499289Y27927382D01*
X4499289Y27927382D02*
X4475479Y27951192D01*
X4475479Y27951192D02*
X4463574Y27986906D01*
X4463574Y27986906D02*
X4463574Y28010715D01*
X4463574Y28010715D02*
X4475479Y28046430D01*
X4475479Y28046430D02*
X4487384Y28058334D01*
X4463574Y28141668D02*
X4463574Y28308334D01*
X4463574Y28308334D02*
X4713574Y28201192D01*
X27732143Y29017378D02*
X27648809Y29017378D01*
X27648809Y28886426D02*
X27648809Y29136426D01*
X27648809Y29136426D02*
X27767857Y29136426D01*
X27863095Y28886426D02*
X27863095Y29136426D01*
X27982143Y28886426D02*
X27982143Y29136426D01*
X27982143Y29136426D02*
X28041667Y29136426D01*
X28041667Y29136426D02*
X28077381Y29124521D01*
X28077381Y29124521D02*
X28101191Y29100711D01*
X28101191Y29100711D02*
X28113096Y29076902D01*
X28113096Y29076902D02*
X28125000Y29029283D01*
X28125000Y29029283D02*
X28125000Y28993569D01*
X28125000Y28993569D02*
X28113096Y28945950D01*
X28113096Y28945950D02*
X28101191Y28922140D01*
X28101191Y28922140D02*
X28077381Y28898330D01*
X28077381Y28898330D02*
X28041667Y28886426D01*
X28041667Y28886426D02*
X27982143Y28886426D01*
X28220239Y29112616D02*
X28232143Y29124521D01*
X28232143Y29124521D02*
X28255953Y29136426D01*
X28255953Y29136426D02*
X28315477Y29136426D01*
X28315477Y29136426D02*
X28339286Y29124521D01*
X28339286Y29124521D02*
X28351191Y29112616D01*
X28351191Y29112616D02*
X28363096Y29088807D01*
X28363096Y29088807D02*
X28363096Y29064997D01*
X28363096Y29064997D02*
X28351191Y29029283D01*
X28351191Y29029283D02*
X28208334Y28886426D01*
X28208334Y28886426D02*
X28363096Y28886426D01*
X11989765Y15639286D02*
X12001670Y15627382D01*
X12001670Y15627382D02*
X12013574Y15591667D01*
X12013574Y15591667D02*
X12013574Y15567858D01*
X12013574Y15567858D02*
X12001670Y15532144D01*
X12001670Y15532144D02*
X11977860Y15508334D01*
X11977860Y15508334D02*
X11954050Y15496429D01*
X11954050Y15496429D02*
X11906431Y15484525D01*
X11906431Y15484525D02*
X11870717Y15484525D01*
X11870717Y15484525D02*
X11823098Y15496429D01*
X11823098Y15496429D02*
X11799289Y15508334D01*
X11799289Y15508334D02*
X11775479Y15532144D01*
X11775479Y15532144D02*
X11763574Y15567858D01*
X11763574Y15567858D02*
X11763574Y15591667D01*
X11763574Y15591667D02*
X11775479Y15627382D01*
X11775479Y15627382D02*
X11787384Y15639286D01*
X11763574Y15722620D02*
X11763574Y15877382D01*
X11763574Y15877382D02*
X11858812Y15794048D01*
X11858812Y15794048D02*
X11858812Y15829763D01*
X11858812Y15829763D02*
X11870717Y15853572D01*
X11870717Y15853572D02*
X11882622Y15865477D01*
X11882622Y15865477D02*
X11906431Y15877382D01*
X11906431Y15877382D02*
X11965955Y15877382D01*
X11965955Y15877382D02*
X11989765Y15865477D01*
X11989765Y15865477D02*
X12001670Y15853572D01*
X12001670Y15853572D02*
X12013574Y15829763D01*
X12013574Y15829763D02*
X12013574Y15758334D01*
X12013574Y15758334D02*
X12001670Y15734525D01*
X12001670Y15734525D02*
X11989765Y15722620D01*
X12013574Y15996429D02*
X12013574Y16044048D01*
X12013574Y16044048D02*
X12001670Y16067858D01*
X12001670Y16067858D02*
X11989765Y16079762D01*
X11989765Y16079762D02*
X11954050Y16103572D01*
X11954050Y16103572D02*
X11906431Y16115477D01*
X11906431Y16115477D02*
X11811193Y16115477D01*
X11811193Y16115477D02*
X11787384Y16103572D01*
X11787384Y16103572D02*
X11775479Y16091667D01*
X11775479Y16091667D02*
X11763574Y16067858D01*
X11763574Y16067858D02*
X11763574Y16020239D01*
X11763574Y16020239D02*
X11775479Y15996429D01*
X11775479Y15996429D02*
X11787384Y15984524D01*
X11787384Y15984524D02*
X11811193Y15972620D01*
X11811193Y15972620D02*
X11870717Y15972620D01*
X11870717Y15972620D02*
X11894527Y15984524D01*
X11894527Y15984524D02*
X11906431Y15996429D01*
X11906431Y15996429D02*
X11918336Y16020239D01*
X11918336Y16020239D02*
X11918336Y16067858D01*
X11918336Y16067858D02*
X11906431Y16091667D01*
X11906431Y16091667D02*
X11894527Y16103572D01*
X11894527Y16103572D02*
X11870717Y16115477D01*
X43411765Y13319286D02*
X43423670Y13307382D01*
X43423670Y13307382D02*
X43435574Y13271667D01*
X43435574Y13271667D02*
X43435574Y13247858D01*
X43435574Y13247858D02*
X43423670Y13212144D01*
X43423670Y13212144D02*
X43399860Y13188334D01*
X43399860Y13188334D02*
X43376050Y13176429D01*
X43376050Y13176429D02*
X43328431Y13164525D01*
X43328431Y13164525D02*
X43292717Y13164525D01*
X43292717Y13164525D02*
X43245098Y13176429D01*
X43245098Y13176429D02*
X43221289Y13188334D01*
X43221289Y13188334D02*
X43197479Y13212144D01*
X43197479Y13212144D02*
X43185574Y13247858D01*
X43185574Y13247858D02*
X43185574Y13271667D01*
X43185574Y13271667D02*
X43197479Y13307382D01*
X43197479Y13307382D02*
X43209384Y13319286D01*
X43209384Y13414525D02*
X43197479Y13426429D01*
X43197479Y13426429D02*
X43185574Y13450239D01*
X43185574Y13450239D02*
X43185574Y13509763D01*
X43185574Y13509763D02*
X43197479Y13533572D01*
X43197479Y13533572D02*
X43209384Y13545477D01*
X43209384Y13545477D02*
X43233193Y13557382D01*
X43233193Y13557382D02*
X43257003Y13557382D01*
X43257003Y13557382D02*
X43292717Y13545477D01*
X43292717Y13545477D02*
X43435574Y13402620D01*
X43435574Y13402620D02*
X43435574Y13557382D01*
X43185574Y13771667D02*
X43185574Y13724048D01*
X43185574Y13724048D02*
X43197479Y13700239D01*
X43197479Y13700239D02*
X43209384Y13688334D01*
X43209384Y13688334D02*
X43245098Y13664524D01*
X43245098Y13664524D02*
X43292717Y13652620D01*
X43292717Y13652620D02*
X43387955Y13652620D01*
X43387955Y13652620D02*
X43411765Y13664524D01*
X43411765Y13664524D02*
X43423670Y13676429D01*
X43423670Y13676429D02*
X43435574Y13700239D01*
X43435574Y13700239D02*
X43435574Y13747858D01*
X43435574Y13747858D02*
X43423670Y13771667D01*
X43423670Y13771667D02*
X43411765Y13783572D01*
X43411765Y13783572D02*
X43387955Y13795477D01*
X43387955Y13795477D02*
X43328431Y13795477D01*
X43328431Y13795477D02*
X43304622Y13783572D01*
X43304622Y13783572D02*
X43292717Y13771667D01*
X43292717Y13771667D02*
X43280812Y13747858D01*
X43280812Y13747858D02*
X43280812Y13700239D01*
X43280812Y13700239D02*
X43292717Y13676429D01*
X43292717Y13676429D02*
X43304622Y13664524D01*
X43304622Y13664524D02*
X43328431Y13652620D01*
D13*
X43543832Y24442858D02*
X43562880Y24423810D01*
X43562880Y24423810D02*
X43581927Y24366668D01*
X43581927Y24366668D02*
X43581927Y24328572D01*
X43581927Y24328572D02*
X43562880Y24271429D01*
X43562880Y24271429D02*
X43524784Y24233334D01*
X43524784Y24233334D02*
X43486689Y24214287D01*
X43486689Y24214287D02*
X43410499Y24195239D01*
X43410499Y24195239D02*
X43353356Y24195239D01*
X43353356Y24195239D02*
X43277165Y24214287D01*
X43277165Y24214287D02*
X43239070Y24233334D01*
X43239070Y24233334D02*
X43200975Y24271429D01*
X43200975Y24271429D02*
X43181927Y24328572D01*
X43181927Y24328572D02*
X43181927Y24366668D01*
X43181927Y24366668D02*
X43200975Y24423810D01*
X43200975Y24423810D02*
X43220022Y24442858D01*
X43581927Y24823810D02*
X43581927Y24595239D01*
X43581927Y24709525D02*
X43181927Y24709525D01*
X43181927Y24709525D02*
X43239070Y24671429D01*
X43239070Y24671429D02*
X43277165Y24633334D01*
X43277165Y24633334D02*
X43296213Y24595239D01*
X43220022Y24976191D02*
X43200975Y24995239D01*
X43200975Y24995239D02*
X43181927Y25033334D01*
X43181927Y25033334D02*
X43181927Y25128572D01*
X43181927Y25128572D02*
X43200975Y25166667D01*
X43200975Y25166667D02*
X43220022Y25185715D01*
X43220022Y25185715D02*
X43258118Y25204762D01*
X43258118Y25204762D02*
X43296213Y25204762D01*
X43296213Y25204762D02*
X43353356Y25185715D01*
X43353356Y25185715D02*
X43581927Y24957143D01*
X43581927Y24957143D02*
X43581927Y25204762D01*
X40933333Y24856168D02*
X40914285Y24837120D01*
X40914285Y24837120D02*
X40857143Y24818073D01*
X40857143Y24818073D02*
X40819047Y24818073D01*
X40819047Y24818073D02*
X40761904Y24837120D01*
X40761904Y24837120D02*
X40723809Y24875216D01*
X40723809Y24875216D02*
X40704762Y24913311D01*
X40704762Y24913311D02*
X40685714Y24989501D01*
X40685714Y24989501D02*
X40685714Y25046644D01*
X40685714Y25046644D02*
X40704762Y25122835D01*
X40704762Y25122835D02*
X40723809Y25160930D01*
X40723809Y25160930D02*
X40761904Y25199025D01*
X40761904Y25199025D02*
X40819047Y25218073D01*
X40819047Y25218073D02*
X40857143Y25218073D01*
X40857143Y25218073D02*
X40914285Y25199025D01*
X40914285Y25199025D02*
X40933333Y25179978D01*
X41161904Y25046644D02*
X41123809Y25065692D01*
X41123809Y25065692D02*
X41104762Y25084740D01*
X41104762Y25084740D02*
X41085714Y25122835D01*
X41085714Y25122835D02*
X41085714Y25141882D01*
X41085714Y25141882D02*
X41104762Y25179978D01*
X41104762Y25179978D02*
X41123809Y25199025D01*
X41123809Y25199025D02*
X41161904Y25218073D01*
X41161904Y25218073D02*
X41238095Y25218073D01*
X41238095Y25218073D02*
X41276190Y25199025D01*
X41276190Y25199025D02*
X41295238Y25179978D01*
X41295238Y25179978D02*
X41314285Y25141882D01*
X41314285Y25141882D02*
X41314285Y25122835D01*
X41314285Y25122835D02*
X41295238Y25084740D01*
X41295238Y25084740D02*
X41276190Y25065692D01*
X41276190Y25065692D02*
X41238095Y25046644D01*
X41238095Y25046644D02*
X41161904Y25046644D01*
X41161904Y25046644D02*
X41123809Y25027597D01*
X41123809Y25027597D02*
X41104762Y25008549D01*
X41104762Y25008549D02*
X41085714Y24970454D01*
X41085714Y24970454D02*
X41085714Y24894263D01*
X41085714Y24894263D02*
X41104762Y24856168D01*
X41104762Y24856168D02*
X41123809Y24837120D01*
X41123809Y24837120D02*
X41161904Y24818073D01*
X41161904Y24818073D02*
X41238095Y24818073D01*
X41238095Y24818073D02*
X41276190Y24837120D01*
X41276190Y24837120D02*
X41295238Y24856168D01*
X41295238Y24856168D02*
X41314285Y24894263D01*
X41314285Y24894263D02*
X41314285Y24970454D01*
X41314285Y24970454D02*
X41295238Y25008549D01*
X41295238Y25008549D02*
X41276190Y25027597D01*
X41276190Y25027597D02*
X41238095Y25046644D01*
D10*
X17545357Y9781800D02*
X17458690Y9905609D01*
X17396785Y9781800D02*
X17396785Y10041800D01*
X17396785Y10041800D02*
X17495833Y10041800D01*
X17495833Y10041800D02*
X17520595Y10029419D01*
X17520595Y10029419D02*
X17532976Y10017038D01*
X17532976Y10017038D02*
X17545357Y9992276D01*
X17545357Y9992276D02*
X17545357Y9955133D01*
X17545357Y9955133D02*
X17532976Y9930371D01*
X17532976Y9930371D02*
X17520595Y9917990D01*
X17520595Y9917990D02*
X17495833Y9905609D01*
X17495833Y9905609D02*
X17396785Y9905609D01*
X17792976Y9781800D02*
X17644404Y9781800D01*
X17718690Y9781800D02*
X17718690Y10041800D01*
X17718690Y10041800D02*
X17693928Y10004657D01*
X17693928Y10004657D02*
X17669166Y9979895D01*
X17669166Y9979895D02*
X17644404Y9967514D01*
X18015833Y9955133D02*
X18015833Y9781800D01*
X17953928Y10054180D02*
X17892023Y9868466D01*
X17892023Y9868466D02*
X18052976Y9868466D01*
X33202265Y27008334D02*
X33214170Y26996430D01*
X33214170Y26996430D02*
X33226074Y26960715D01*
X33226074Y26960715D02*
X33226074Y26936906D01*
X33226074Y26936906D02*
X33214170Y26901192D01*
X33214170Y26901192D02*
X33190360Y26877382D01*
X33190360Y26877382D02*
X33166550Y26865477D01*
X33166550Y26865477D02*
X33118931Y26853573D01*
X33118931Y26853573D02*
X33083217Y26853573D01*
X33083217Y26853573D02*
X33035598Y26865477D01*
X33035598Y26865477D02*
X33011789Y26877382D01*
X33011789Y26877382D02*
X32987979Y26901192D01*
X32987979Y26901192D02*
X32976074Y26936906D01*
X32976074Y26936906D02*
X32976074Y26960715D01*
X32976074Y26960715D02*
X32987979Y26996430D01*
X32987979Y26996430D02*
X32999884Y27008334D01*
X32976074Y27091668D02*
X32976074Y27246430D01*
X32976074Y27246430D02*
X33071312Y27163096D01*
X33071312Y27163096D02*
X33071312Y27198811D01*
X33071312Y27198811D02*
X33083217Y27222620D01*
X33083217Y27222620D02*
X33095122Y27234525D01*
X33095122Y27234525D02*
X33118931Y27246430D01*
X33118931Y27246430D02*
X33178455Y27246430D01*
X33178455Y27246430D02*
X33202265Y27234525D01*
X33202265Y27234525D02*
X33214170Y27222620D01*
X33214170Y27222620D02*
X33226074Y27198811D01*
X33226074Y27198811D02*
X33226074Y27127382D01*
X33226074Y27127382D02*
X33214170Y27103573D01*
X33214170Y27103573D02*
X33202265Y27091668D01*
X40339285Y23610235D02*
X40327381Y23598330D01*
X40327381Y23598330D02*
X40291666Y23586426D01*
X40291666Y23586426D02*
X40267857Y23586426D01*
X40267857Y23586426D02*
X40232143Y23598330D01*
X40232143Y23598330D02*
X40208333Y23622140D01*
X40208333Y23622140D02*
X40196428Y23645950D01*
X40196428Y23645950D02*
X40184524Y23693569D01*
X40184524Y23693569D02*
X40184524Y23729283D01*
X40184524Y23729283D02*
X40196428Y23776902D01*
X40196428Y23776902D02*
X40208333Y23800711D01*
X40208333Y23800711D02*
X40232143Y23824521D01*
X40232143Y23824521D02*
X40267857Y23836426D01*
X40267857Y23836426D02*
X40291666Y23836426D01*
X40291666Y23836426D02*
X40327381Y23824521D01*
X40327381Y23824521D02*
X40339285Y23812616D01*
X40434524Y23812616D02*
X40446428Y23824521D01*
X40446428Y23824521D02*
X40470238Y23836426D01*
X40470238Y23836426D02*
X40529762Y23836426D01*
X40529762Y23836426D02*
X40553571Y23824521D01*
X40553571Y23824521D02*
X40565476Y23812616D01*
X40565476Y23812616D02*
X40577381Y23788807D01*
X40577381Y23788807D02*
X40577381Y23764997D01*
X40577381Y23764997D02*
X40565476Y23729283D01*
X40565476Y23729283D02*
X40422619Y23586426D01*
X40422619Y23586426D02*
X40577381Y23586426D01*
X40672619Y23812616D02*
X40684523Y23824521D01*
X40684523Y23824521D02*
X40708333Y23836426D01*
X40708333Y23836426D02*
X40767857Y23836426D01*
X40767857Y23836426D02*
X40791666Y23824521D01*
X40791666Y23824521D02*
X40803571Y23812616D01*
X40803571Y23812616D02*
X40815476Y23788807D01*
X40815476Y23788807D02*
X40815476Y23764997D01*
X40815476Y23764997D02*
X40803571Y23729283D01*
X40803571Y23729283D02*
X40660714Y23586426D01*
X40660714Y23586426D02*
X40815476Y23586426D01*
D13*
X8515238Y28218073D02*
X8515238Y27894263D01*
X8515238Y27894263D02*
X8534285Y27856168D01*
X8534285Y27856168D02*
X8553333Y27837120D01*
X8553333Y27837120D02*
X8591428Y27818073D01*
X8591428Y27818073D02*
X8667619Y27818073D01*
X8667619Y27818073D02*
X8705714Y27837120D01*
X8705714Y27837120D02*
X8724761Y27856168D01*
X8724761Y27856168D02*
X8743809Y27894263D01*
X8743809Y27894263D02*
X8743809Y28218073D01*
X8896190Y28218073D02*
X9143809Y28218073D01*
X9143809Y28218073D02*
X9010476Y28065692D01*
X9010476Y28065692D02*
X9067619Y28065692D01*
X9067619Y28065692D02*
X9105714Y28046644D01*
X9105714Y28046644D02*
X9124762Y28027597D01*
X9124762Y28027597D02*
X9143809Y27989501D01*
X9143809Y27989501D02*
X9143809Y27894263D01*
X9143809Y27894263D02*
X9124762Y27856168D01*
X9124762Y27856168D02*
X9105714Y27837120D01*
X9105714Y27837120D02*
X9067619Y27818073D01*
X9067619Y27818073D02*
X8953333Y27818073D01*
X8953333Y27818073D02*
X8915238Y27837120D01*
X8915238Y27837120D02*
X8896190Y27856168D01*
D10*
X13818200Y28656668D02*
X13694391Y28570001D01*
X13818200Y28508096D02*
X13558200Y28508096D01*
X13558200Y28508096D02*
X13558200Y28607144D01*
X13558200Y28607144D02*
X13570581Y28631906D01*
X13570581Y28631906D02*
X13582962Y28644287D01*
X13582962Y28644287D02*
X13607724Y28656668D01*
X13607724Y28656668D02*
X13644867Y28656668D01*
X13644867Y28656668D02*
X13669629Y28644287D01*
X13669629Y28644287D02*
X13682010Y28631906D01*
X13682010Y28631906D02*
X13694391Y28607144D01*
X13694391Y28607144D02*
X13694391Y28508096D01*
X13558200Y28879525D02*
X13558200Y28830001D01*
X13558200Y28830001D02*
X13570581Y28805239D01*
X13570581Y28805239D02*
X13582962Y28792858D01*
X13582962Y28792858D02*
X13620105Y28768096D01*
X13620105Y28768096D02*
X13669629Y28755715D01*
X13669629Y28755715D02*
X13768677Y28755715D01*
X13768677Y28755715D02*
X13793439Y28768096D01*
X13793439Y28768096D02*
X13805820Y28780477D01*
X13805820Y28780477D02*
X13818200Y28805239D01*
X13818200Y28805239D02*
X13818200Y28854763D01*
X13818200Y28854763D02*
X13805820Y28879525D01*
X13805820Y28879525D02*
X13793439Y28891906D01*
X13793439Y28891906D02*
X13768677Y28904287D01*
X13768677Y28904287D02*
X13706772Y28904287D01*
X13706772Y28904287D02*
X13682010Y28891906D01*
X13682010Y28891906D02*
X13669629Y28879525D01*
X13669629Y28879525D02*
X13657248Y28854763D01*
X13657248Y28854763D02*
X13657248Y28805239D01*
X13657248Y28805239D02*
X13669629Y28780477D01*
X13669629Y28780477D02*
X13682010Y28768096D01*
X13682010Y28768096D02*
X13706772Y28755715D01*
D11*
X32324819Y9480953D02*
X32324819Y8909525D01*
X32324819Y9195239D02*
X31324819Y9195239D01*
X31324819Y9195239D02*
X31467676Y9100001D01*
X31467676Y9100001D02*
X31562914Y9004763D01*
X31562914Y9004763D02*
X31610533Y8909525D01*
X32324819Y9909525D02*
X31324819Y9909525D01*
X31943866Y10004763D02*
X32324819Y10290477D01*
X31658152Y10290477D02*
X32039104Y9909525D01*
D10*
X30818200Y9432858D02*
X30694391Y9346191D01*
X30818200Y9284286D02*
X30558200Y9284286D01*
X30558200Y9284286D02*
X30558200Y9383334D01*
X30558200Y9383334D02*
X30570581Y9408096D01*
X30570581Y9408096D02*
X30582962Y9420477D01*
X30582962Y9420477D02*
X30607724Y9432858D01*
X30607724Y9432858D02*
X30644867Y9432858D01*
X30644867Y9432858D02*
X30669629Y9420477D01*
X30669629Y9420477D02*
X30682010Y9408096D01*
X30682010Y9408096D02*
X30694391Y9383334D01*
X30694391Y9383334D02*
X30694391Y9284286D01*
X30818200Y9680477D02*
X30818200Y9531905D01*
X30818200Y9606191D02*
X30558200Y9606191D01*
X30558200Y9606191D02*
X30595343Y9581429D01*
X30595343Y9581429D02*
X30620105Y9556667D01*
X30620105Y9556667D02*
X30632486Y9531905D01*
X30818200Y9928096D02*
X30818200Y9779524D01*
X30818200Y9853810D02*
X30558200Y9853810D01*
X30558200Y9853810D02*
X30595343Y9829048D01*
X30595343Y9829048D02*
X30620105Y9804286D01*
X30620105Y9804286D02*
X30632486Y9779524D01*
X30688200Y9224286D02*
X30688200Y9986574D01*
D13*
X15843832Y14542858D02*
X15862880Y14523810D01*
X15862880Y14523810D02*
X15881927Y14466668D01*
X15881927Y14466668D02*
X15881927Y14428572D01*
X15881927Y14428572D02*
X15862880Y14371429D01*
X15862880Y14371429D02*
X15824784Y14333334D01*
X15824784Y14333334D02*
X15786689Y14314287D01*
X15786689Y14314287D02*
X15710499Y14295239D01*
X15710499Y14295239D02*
X15653356Y14295239D01*
X15653356Y14295239D02*
X15577165Y14314287D01*
X15577165Y14314287D02*
X15539070Y14333334D01*
X15539070Y14333334D02*
X15500975Y14371429D01*
X15500975Y14371429D02*
X15481927Y14428572D01*
X15481927Y14428572D02*
X15481927Y14466668D01*
X15481927Y14466668D02*
X15500975Y14523810D01*
X15500975Y14523810D02*
X15520022Y14542858D01*
X15520022Y14695239D02*
X15500975Y14714287D01*
X15500975Y14714287D02*
X15481927Y14752382D01*
X15481927Y14752382D02*
X15481927Y14847620D01*
X15481927Y14847620D02*
X15500975Y14885715D01*
X15500975Y14885715D02*
X15520022Y14904763D01*
X15520022Y14904763D02*
X15558118Y14923810D01*
X15558118Y14923810D02*
X15596213Y14923810D01*
X15596213Y14923810D02*
X15653356Y14904763D01*
X15653356Y14904763D02*
X15881927Y14676191D01*
X15881927Y14676191D02*
X15881927Y14923810D01*
X15481927Y15057143D02*
X15481927Y15323810D01*
X15481927Y15323810D02*
X15881927Y15152381D01*
D14*
X12049530Y27916667D02*
X12073340Y27892858D01*
X12073340Y27892858D02*
X12097149Y27821429D01*
X12097149Y27821429D02*
X12097149Y27773810D01*
X12097149Y27773810D02*
X12073340Y27702382D01*
X12073340Y27702382D02*
X12025720Y27654763D01*
X12025720Y27654763D02*
X11978101Y27630953D01*
X11978101Y27630953D02*
X11882863Y27607144D01*
X11882863Y27607144D02*
X11811435Y27607144D01*
X11811435Y27607144D02*
X11716197Y27630953D01*
X11716197Y27630953D02*
X11668578Y27654763D01*
X11668578Y27654763D02*
X11620959Y27702382D01*
X11620959Y27702382D02*
X11597149Y27773810D01*
X11597149Y27773810D02*
X11597149Y27821429D01*
X11597149Y27821429D02*
X11620959Y27892858D01*
X11620959Y27892858D02*
X11644768Y27916667D01*
X11597149Y28369048D02*
X11597149Y28130953D01*
X11597149Y28130953D02*
X11835244Y28107144D01*
X11835244Y28107144D02*
X11811435Y28130953D01*
X11811435Y28130953D02*
X11787625Y28178572D01*
X11787625Y28178572D02*
X11787625Y28297620D01*
X11787625Y28297620D02*
X11811435Y28345239D01*
X11811435Y28345239D02*
X11835244Y28369048D01*
X11835244Y28369048D02*
X11882863Y28392858D01*
X11882863Y28392858D02*
X12001911Y28392858D01*
X12001911Y28392858D02*
X12049530Y28369048D01*
X12049530Y28369048D02*
X12073340Y28345239D01*
X12073340Y28345239D02*
X12097149Y28297620D01*
X12097149Y28297620D02*
X12097149Y28178572D01*
X12097149Y28178572D02*
X12073340Y28130953D01*
X12073340Y28130953D02*
X12049530Y28107144D01*
D13*
X32242857Y23991168D02*
X32223809Y23972120D01*
X32223809Y23972120D02*
X32166667Y23953073D01*
X32166667Y23953073D02*
X32128571Y23953073D01*
X32128571Y23953073D02*
X32071428Y23972120D01*
X32071428Y23972120D02*
X32033333Y24010216D01*
X32033333Y24010216D02*
X32014286Y24048311D01*
X32014286Y24048311D02*
X31995238Y24124501D01*
X31995238Y24124501D02*
X31995238Y24181644D01*
X31995238Y24181644D02*
X32014286Y24257835D01*
X32014286Y24257835D02*
X32033333Y24295930D01*
X32033333Y24295930D02*
X32071428Y24334025D01*
X32071428Y24334025D02*
X32128571Y24353073D01*
X32128571Y24353073D02*
X32166667Y24353073D01*
X32166667Y24353073D02*
X32223809Y24334025D01*
X32223809Y24334025D02*
X32242857Y24314978D01*
X32623809Y23953073D02*
X32395238Y23953073D01*
X32509524Y23953073D02*
X32509524Y24353073D01*
X32509524Y24353073D02*
X32471428Y24295930D01*
X32471428Y24295930D02*
X32433333Y24257835D01*
X32433333Y24257835D02*
X32395238Y24238787D01*
X32966666Y24219740D02*
X32966666Y23953073D01*
X32871428Y24372120D02*
X32776190Y24086406D01*
X32776190Y24086406D02*
X33023809Y24086406D01*
D10*
X3118200Y22232858D02*
X2994391Y22146191D01*
X3118200Y22084286D02*
X2858200Y22084286D01*
X2858200Y22084286D02*
X2858200Y22183334D01*
X2858200Y22183334D02*
X2870581Y22208096D01*
X2870581Y22208096D02*
X2882962Y22220477D01*
X2882962Y22220477D02*
X2907724Y22232858D01*
X2907724Y22232858D02*
X2944867Y22232858D01*
X2944867Y22232858D02*
X2969629Y22220477D01*
X2969629Y22220477D02*
X2982010Y22208096D01*
X2982010Y22208096D02*
X2994391Y22183334D01*
X2994391Y22183334D02*
X2994391Y22084286D01*
X3118200Y22480477D02*
X3118200Y22331905D01*
X3118200Y22406191D02*
X2858200Y22406191D01*
X2858200Y22406191D02*
X2895343Y22381429D01*
X2895343Y22381429D02*
X2920105Y22356667D01*
X2920105Y22356667D02*
X2932486Y22331905D01*
X3118200Y22604286D02*
X3118200Y22653810D01*
X3118200Y22653810D02*
X3105820Y22678572D01*
X3105820Y22678572D02*
X3093439Y22690953D01*
X3093439Y22690953D02*
X3056296Y22715715D01*
X3056296Y22715715D02*
X3006772Y22728096D01*
X3006772Y22728096D02*
X2907724Y22728096D01*
X2907724Y22728096D02*
X2882962Y22715715D01*
X2882962Y22715715D02*
X2870581Y22703334D01*
X2870581Y22703334D02*
X2858200Y22678572D01*
X2858200Y22678572D02*
X2858200Y22629048D01*
X2858200Y22629048D02*
X2870581Y22604286D01*
X2870581Y22604286D02*
X2882962Y22591905D01*
X2882962Y22591905D02*
X2907724Y22579524D01*
X2907724Y22579524D02*
X2969629Y22579524D01*
X2969629Y22579524D02*
X2994391Y22591905D01*
X2994391Y22591905D02*
X3006772Y22604286D01*
X3006772Y22604286D02*
X3019153Y22629048D01*
X3019153Y22629048D02*
X3019153Y22678572D01*
X3019153Y22678572D02*
X3006772Y22703334D01*
X3006772Y22703334D02*
X2994391Y22715715D01*
X2994391Y22715715D02*
X2969629Y22728096D01*
X2988200Y22024286D02*
X2988200Y22788096D01*
X17089765Y13639286D02*
X17101670Y13627382D01*
X17101670Y13627382D02*
X17113574Y13591667D01*
X17113574Y13591667D02*
X17113574Y13567858D01*
X17113574Y13567858D02*
X17101670Y13532144D01*
X17101670Y13532144D02*
X17077860Y13508334D01*
X17077860Y13508334D02*
X17054050Y13496429D01*
X17054050Y13496429D02*
X17006431Y13484525D01*
X17006431Y13484525D02*
X16970717Y13484525D01*
X16970717Y13484525D02*
X16923098Y13496429D01*
X16923098Y13496429D02*
X16899289Y13508334D01*
X16899289Y13508334D02*
X16875479Y13532144D01*
X16875479Y13532144D02*
X16863574Y13567858D01*
X16863574Y13567858D02*
X16863574Y13591667D01*
X16863574Y13591667D02*
X16875479Y13627382D01*
X16875479Y13627382D02*
X16887384Y13639286D01*
X16863574Y13722620D02*
X16863574Y13877382D01*
X16863574Y13877382D02*
X16958812Y13794048D01*
X16958812Y13794048D02*
X16958812Y13829763D01*
X16958812Y13829763D02*
X16970717Y13853572D01*
X16970717Y13853572D02*
X16982622Y13865477D01*
X16982622Y13865477D02*
X17006431Y13877382D01*
X17006431Y13877382D02*
X17065955Y13877382D01*
X17065955Y13877382D02*
X17089765Y13865477D01*
X17089765Y13865477D02*
X17101670Y13853572D01*
X17101670Y13853572D02*
X17113574Y13829763D01*
X17113574Y13829763D02*
X17113574Y13758334D01*
X17113574Y13758334D02*
X17101670Y13734525D01*
X17101670Y13734525D02*
X17089765Y13722620D01*
X16863574Y14103572D02*
X16863574Y13984524D01*
X16863574Y13984524D02*
X16982622Y13972620D01*
X16982622Y13972620D02*
X16970717Y13984524D01*
X16970717Y13984524D02*
X16958812Y14008334D01*
X16958812Y14008334D02*
X16958812Y14067858D01*
X16958812Y14067858D02*
X16970717Y14091667D01*
X16970717Y14091667D02*
X16982622Y14103572D01*
X16982622Y14103572D02*
X17006431Y14115477D01*
X17006431Y14115477D02*
X17065955Y14115477D01*
X17065955Y14115477D02*
X17089765Y14103572D01*
X17089765Y14103572D02*
X17101670Y14091667D01*
X17101670Y14091667D02*
X17113574Y14067858D01*
X17113574Y14067858D02*
X17113574Y14008334D01*
X17113574Y14008334D02*
X17101670Y13984524D01*
X17101670Y13984524D02*
X17089765Y13972620D01*
X30839285Y17110235D02*
X30827381Y17098330D01*
X30827381Y17098330D02*
X30791666Y17086426D01*
X30791666Y17086426D02*
X30767857Y17086426D01*
X30767857Y17086426D02*
X30732143Y17098330D01*
X30732143Y17098330D02*
X30708333Y17122140D01*
X30708333Y17122140D02*
X30696428Y17145950D01*
X30696428Y17145950D02*
X30684524Y17193569D01*
X30684524Y17193569D02*
X30684524Y17229283D01*
X30684524Y17229283D02*
X30696428Y17276902D01*
X30696428Y17276902D02*
X30708333Y17300711D01*
X30708333Y17300711D02*
X30732143Y17324521D01*
X30732143Y17324521D02*
X30767857Y17336426D01*
X30767857Y17336426D02*
X30791666Y17336426D01*
X30791666Y17336426D02*
X30827381Y17324521D01*
X30827381Y17324521D02*
X30839285Y17312616D01*
X30934524Y17312616D02*
X30946428Y17324521D01*
X30946428Y17324521D02*
X30970238Y17336426D01*
X30970238Y17336426D02*
X31029762Y17336426D01*
X31029762Y17336426D02*
X31053571Y17324521D01*
X31053571Y17324521D02*
X31065476Y17312616D01*
X31065476Y17312616D02*
X31077381Y17288807D01*
X31077381Y17288807D02*
X31077381Y17264997D01*
X31077381Y17264997D02*
X31065476Y17229283D01*
X31065476Y17229283D02*
X30922619Y17086426D01*
X30922619Y17086426D02*
X31077381Y17086426D01*
X31315476Y17086426D02*
X31172619Y17086426D01*
X31244047Y17086426D02*
X31244047Y17336426D01*
X31244047Y17336426D02*
X31220238Y17300711D01*
X31220238Y17300711D02*
X31196428Y17276902D01*
X31196428Y17276902D02*
X31172619Y17264997D01*
X33818200Y2956668D02*
X33694391Y2870001D01*
X33818200Y2808096D02*
X33558200Y2808096D01*
X33558200Y2808096D02*
X33558200Y2907144D01*
X33558200Y2907144D02*
X33570581Y2931906D01*
X33570581Y2931906D02*
X33582962Y2944287D01*
X33582962Y2944287D02*
X33607724Y2956668D01*
X33607724Y2956668D02*
X33644867Y2956668D01*
X33644867Y2956668D02*
X33669629Y2944287D01*
X33669629Y2944287D02*
X33682010Y2931906D01*
X33682010Y2931906D02*
X33694391Y2907144D01*
X33694391Y2907144D02*
X33694391Y2808096D01*
X33558200Y3043334D02*
X33558200Y3204287D01*
X33558200Y3204287D02*
X33657248Y3117620D01*
X33657248Y3117620D02*
X33657248Y3154763D01*
X33657248Y3154763D02*
X33669629Y3179525D01*
X33669629Y3179525D02*
X33682010Y3191906D01*
X33682010Y3191906D02*
X33706772Y3204287D01*
X33706772Y3204287D02*
X33768677Y3204287D01*
X33768677Y3204287D02*
X33793439Y3191906D01*
X33793439Y3191906D02*
X33805820Y3179525D01*
X33805820Y3179525D02*
X33818200Y3154763D01*
X33818200Y3154763D02*
X33818200Y3080477D01*
X33818200Y3080477D02*
X33805820Y3055715D01*
X33805820Y3055715D02*
X33793439Y3043334D01*
X3118200Y25432858D02*
X2994391Y25346191D01*
X3118200Y25284286D02*
X2858200Y25284286D01*
X2858200Y25284286D02*
X2858200Y25383334D01*
X2858200Y25383334D02*
X2870581Y25408096D01*
X2870581Y25408096D02*
X2882962Y25420477D01*
X2882962Y25420477D02*
X2907724Y25432858D01*
X2907724Y25432858D02*
X2944867Y25432858D01*
X2944867Y25432858D02*
X2969629Y25420477D01*
X2969629Y25420477D02*
X2982010Y25408096D01*
X2982010Y25408096D02*
X2994391Y25383334D01*
X2994391Y25383334D02*
X2994391Y25284286D01*
X3118200Y25680477D02*
X3118200Y25531905D01*
X3118200Y25606191D02*
X2858200Y25606191D01*
X2858200Y25606191D02*
X2895343Y25581429D01*
X2895343Y25581429D02*
X2920105Y25556667D01*
X2920105Y25556667D02*
X2932486Y25531905D01*
X2858200Y25767143D02*
X2858200Y25940477D01*
X2858200Y25940477D02*
X3118200Y25829048D01*
X2988200Y25224286D02*
X2988200Y26000476D01*
X7339765Y15089286D02*
X7351670Y15077382D01*
X7351670Y15077382D02*
X7363574Y15041667D01*
X7363574Y15041667D02*
X7363574Y15017858D01*
X7363574Y15017858D02*
X7351670Y14982144D01*
X7351670Y14982144D02*
X7327860Y14958334D01*
X7327860Y14958334D02*
X7304050Y14946429D01*
X7304050Y14946429D02*
X7256431Y14934525D01*
X7256431Y14934525D02*
X7220717Y14934525D01*
X7220717Y14934525D02*
X7173098Y14946429D01*
X7173098Y14946429D02*
X7149289Y14958334D01*
X7149289Y14958334D02*
X7125479Y14982144D01*
X7125479Y14982144D02*
X7113574Y15017858D01*
X7113574Y15017858D02*
X7113574Y15041667D01*
X7113574Y15041667D02*
X7125479Y15077382D01*
X7125479Y15077382D02*
X7137384Y15089286D01*
X7113574Y15172620D02*
X7113574Y15327382D01*
X7113574Y15327382D02*
X7208812Y15244048D01*
X7208812Y15244048D02*
X7208812Y15279763D01*
X7208812Y15279763D02*
X7220717Y15303572D01*
X7220717Y15303572D02*
X7232622Y15315477D01*
X7232622Y15315477D02*
X7256431Y15327382D01*
X7256431Y15327382D02*
X7315955Y15327382D01*
X7315955Y15327382D02*
X7339765Y15315477D01*
X7339765Y15315477D02*
X7351670Y15303572D01*
X7351670Y15303572D02*
X7363574Y15279763D01*
X7363574Y15279763D02*
X7363574Y15208334D01*
X7363574Y15208334D02*
X7351670Y15184525D01*
X7351670Y15184525D02*
X7339765Y15172620D01*
X7220717Y15470239D02*
X7208812Y15446429D01*
X7208812Y15446429D02*
X7196908Y15434524D01*
X7196908Y15434524D02*
X7173098Y15422620D01*
X7173098Y15422620D02*
X7161193Y15422620D01*
X7161193Y15422620D02*
X7137384Y15434524D01*
X7137384Y15434524D02*
X7125479Y15446429D01*
X7125479Y15446429D02*
X7113574Y15470239D01*
X7113574Y15470239D02*
X7113574Y15517858D01*
X7113574Y15517858D02*
X7125479Y15541667D01*
X7125479Y15541667D02*
X7137384Y15553572D01*
X7137384Y15553572D02*
X7161193Y15565477D01*
X7161193Y15565477D02*
X7173098Y15565477D01*
X7173098Y15565477D02*
X7196908Y15553572D01*
X7196908Y15553572D02*
X7208812Y15541667D01*
X7208812Y15541667D02*
X7220717Y15517858D01*
X7220717Y15517858D02*
X7220717Y15470239D01*
X7220717Y15470239D02*
X7232622Y15446429D01*
X7232622Y15446429D02*
X7244527Y15434524D01*
X7244527Y15434524D02*
X7268336Y15422620D01*
X7268336Y15422620D02*
X7315955Y15422620D01*
X7315955Y15422620D02*
X7339765Y15434524D01*
X7339765Y15434524D02*
X7351670Y15446429D01*
X7351670Y15446429D02*
X7363574Y15470239D01*
X7363574Y15470239D02*
X7363574Y15517858D01*
X7363574Y15517858D02*
X7351670Y15541667D01*
X7351670Y15541667D02*
X7339765Y15553572D01*
X7339765Y15553572D02*
X7315955Y15565477D01*
X7315955Y15565477D02*
X7268336Y15565477D01*
X7268336Y15565477D02*
X7244527Y15553572D01*
X7244527Y15553572D02*
X7232622Y15541667D01*
X7232622Y15541667D02*
X7220717Y15517858D01*
X17489765Y11239286D02*
X17501670Y11227382D01*
X17501670Y11227382D02*
X17513574Y11191667D01*
X17513574Y11191667D02*
X17513574Y11167858D01*
X17513574Y11167858D02*
X17501670Y11132144D01*
X17501670Y11132144D02*
X17477860Y11108334D01*
X17477860Y11108334D02*
X17454050Y11096429D01*
X17454050Y11096429D02*
X17406431Y11084525D01*
X17406431Y11084525D02*
X17370717Y11084525D01*
X17370717Y11084525D02*
X17323098Y11096429D01*
X17323098Y11096429D02*
X17299289Y11108334D01*
X17299289Y11108334D02*
X17275479Y11132144D01*
X17275479Y11132144D02*
X17263574Y11167858D01*
X17263574Y11167858D02*
X17263574Y11191667D01*
X17263574Y11191667D02*
X17275479Y11227382D01*
X17275479Y11227382D02*
X17287384Y11239286D01*
X17263574Y11322620D02*
X17263574Y11477382D01*
X17263574Y11477382D02*
X17358812Y11394048D01*
X17358812Y11394048D02*
X17358812Y11429763D01*
X17358812Y11429763D02*
X17370717Y11453572D01*
X17370717Y11453572D02*
X17382622Y11465477D01*
X17382622Y11465477D02*
X17406431Y11477382D01*
X17406431Y11477382D02*
X17465955Y11477382D01*
X17465955Y11477382D02*
X17489765Y11465477D01*
X17489765Y11465477D02*
X17501670Y11453572D01*
X17501670Y11453572D02*
X17513574Y11429763D01*
X17513574Y11429763D02*
X17513574Y11358334D01*
X17513574Y11358334D02*
X17501670Y11334525D01*
X17501670Y11334525D02*
X17489765Y11322620D01*
X17346908Y11691667D02*
X17513574Y11691667D01*
X17251670Y11632143D02*
X17430241Y11572620D01*
X17430241Y11572620D02*
X17430241Y11727381D01*
D11*
X38961666Y4145181D02*
X38961666Y3430896D01*
X38961666Y3430896D02*
X38914047Y3288039D01*
X38914047Y3288039D02*
X38818809Y3192800D01*
X38818809Y3192800D02*
X38675952Y3145181D01*
X38675952Y3145181D02*
X38580714Y3145181D01*
X39914047Y4145181D02*
X39437857Y4145181D01*
X39437857Y4145181D02*
X39390238Y3668991D01*
X39390238Y3668991D02*
X39437857Y3716610D01*
X39437857Y3716610D02*
X39533095Y3764229D01*
X39533095Y3764229D02*
X39771190Y3764229D01*
X39771190Y3764229D02*
X39866428Y3716610D01*
X39866428Y3716610D02*
X39914047Y3668991D01*
X39914047Y3668991D02*
X39961666Y3573753D01*
X39961666Y3573753D02*
X39961666Y3335658D01*
X39961666Y3335658D02*
X39914047Y3240420D01*
X39914047Y3240420D02*
X39866428Y3192800D01*
X39866428Y3192800D02*
X39771190Y3145181D01*
X39771190Y3145181D02*
X39533095Y3145181D01*
X39533095Y3145181D02*
X39437857Y3192800D01*
X39437857Y3192800D02*
X39390238Y3240420D01*
X38361423Y3645181D02*
X40186666Y3645181D01*
D10*
X40089765Y5929286D02*
X40101670Y5917382D01*
X40101670Y5917382D02*
X40113574Y5881667D01*
X40113574Y5881667D02*
X40113574Y5857858D01*
X40113574Y5857858D02*
X40101670Y5822144D01*
X40101670Y5822144D02*
X40077860Y5798334D01*
X40077860Y5798334D02*
X40054050Y5786429D01*
X40054050Y5786429D02*
X40006431Y5774525D01*
X40006431Y5774525D02*
X39970717Y5774525D01*
X39970717Y5774525D02*
X39923098Y5786429D01*
X39923098Y5786429D02*
X39899289Y5798334D01*
X39899289Y5798334D02*
X39875479Y5822144D01*
X39875479Y5822144D02*
X39863574Y5857858D01*
X39863574Y5857858D02*
X39863574Y5881667D01*
X39863574Y5881667D02*
X39875479Y5917382D01*
X39875479Y5917382D02*
X39887384Y5929286D01*
X39887384Y6024525D02*
X39875479Y6036429D01*
X39875479Y6036429D02*
X39863574Y6060239D01*
X39863574Y6060239D02*
X39863574Y6119763D01*
X39863574Y6119763D02*
X39875479Y6143572D01*
X39875479Y6143572D02*
X39887384Y6155477D01*
X39887384Y6155477D02*
X39911193Y6167382D01*
X39911193Y6167382D02*
X39935003Y6167382D01*
X39935003Y6167382D02*
X39970717Y6155477D01*
X39970717Y6155477D02*
X40113574Y6012620D01*
X40113574Y6012620D02*
X40113574Y6167382D01*
X39863574Y6250715D02*
X39863574Y6405477D01*
X39863574Y6405477D02*
X39958812Y6322143D01*
X39958812Y6322143D02*
X39958812Y6357858D01*
X39958812Y6357858D02*
X39970717Y6381667D01*
X39970717Y6381667D02*
X39982622Y6393572D01*
X39982622Y6393572D02*
X40006431Y6405477D01*
X40006431Y6405477D02*
X40065955Y6405477D01*
X40065955Y6405477D02*
X40089765Y6393572D01*
X40089765Y6393572D02*
X40101670Y6381667D01*
X40101670Y6381667D02*
X40113574Y6357858D01*
X40113574Y6357858D02*
X40113574Y6286429D01*
X40113574Y6286429D02*
X40101670Y6262620D01*
X40101670Y6262620D02*
X40089765Y6250715D01*
D13*
X5993832Y27933334D02*
X6012880Y27914286D01*
X6012880Y27914286D02*
X6031927Y27857144D01*
X6031927Y27857144D02*
X6031927Y27819048D01*
X6031927Y27819048D02*
X6012880Y27761905D01*
X6012880Y27761905D02*
X5974784Y27723810D01*
X5974784Y27723810D02*
X5936689Y27704763D01*
X5936689Y27704763D02*
X5860499Y27685715D01*
X5860499Y27685715D02*
X5803356Y27685715D01*
X5803356Y27685715D02*
X5727165Y27704763D01*
X5727165Y27704763D02*
X5689070Y27723810D01*
X5689070Y27723810D02*
X5650975Y27761905D01*
X5650975Y27761905D02*
X5631927Y27819048D01*
X5631927Y27819048D02*
X5631927Y27857144D01*
X5631927Y27857144D02*
X5650975Y27914286D01*
X5650975Y27914286D02*
X5670022Y27933334D01*
X5631927Y28276191D02*
X5631927Y28200001D01*
X5631927Y28200001D02*
X5650975Y28161905D01*
X5650975Y28161905D02*
X5670022Y28142858D01*
X5670022Y28142858D02*
X5727165Y28104763D01*
X5727165Y28104763D02*
X5803356Y28085715D01*
X5803356Y28085715D02*
X5955737Y28085715D01*
X5955737Y28085715D02*
X5993832Y28104763D01*
X5993832Y28104763D02*
X6012880Y28123810D01*
X6012880Y28123810D02*
X6031927Y28161905D01*
X6031927Y28161905D02*
X6031927Y28238096D01*
X6031927Y28238096D02*
X6012880Y28276191D01*
X6012880Y28276191D02*
X5993832Y28295239D01*
X5993832Y28295239D02*
X5955737Y28314286D01*
X5955737Y28314286D02*
X5860499Y28314286D01*
X5860499Y28314286D02*
X5822403Y28295239D01*
X5822403Y28295239D02*
X5803356Y28276191D01*
X5803356Y28276191D02*
X5784308Y28238096D01*
X5784308Y28238096D02*
X5784308Y28161905D01*
X5784308Y28161905D02*
X5803356Y28123810D01*
X5803356Y28123810D02*
X5822403Y28104763D01*
X5822403Y28104763D02*
X5860499Y28085715D01*
D10*
X19551785Y9810235D02*
X19539881Y9798330D01*
X19539881Y9798330D02*
X19504166Y9786426D01*
X19504166Y9786426D02*
X19480357Y9786426D01*
X19480357Y9786426D02*
X19444643Y9798330D01*
X19444643Y9798330D02*
X19420833Y9822140D01*
X19420833Y9822140D02*
X19408928Y9845950D01*
X19408928Y9845950D02*
X19397024Y9893569D01*
X19397024Y9893569D02*
X19397024Y9929283D01*
X19397024Y9929283D02*
X19408928Y9976902D01*
X19408928Y9976902D02*
X19420833Y10000711D01*
X19420833Y10000711D02*
X19444643Y10024521D01*
X19444643Y10024521D02*
X19480357Y10036426D01*
X19480357Y10036426D02*
X19504166Y10036426D01*
X19504166Y10036426D02*
X19539881Y10024521D01*
X19539881Y10024521D02*
X19551785Y10012616D01*
X19635119Y10036426D02*
X19789881Y10036426D01*
X19789881Y10036426D02*
X19706547Y9941188D01*
X19706547Y9941188D02*
X19742262Y9941188D01*
X19742262Y9941188D02*
X19766071Y9929283D01*
X19766071Y9929283D02*
X19777976Y9917378D01*
X19777976Y9917378D02*
X19789881Y9893569D01*
X19789881Y9893569D02*
X19789881Y9834045D01*
X19789881Y9834045D02*
X19777976Y9810235D01*
X19777976Y9810235D02*
X19766071Y9798330D01*
X19766071Y9798330D02*
X19742262Y9786426D01*
X19742262Y9786426D02*
X19670833Y9786426D01*
X19670833Y9786426D02*
X19647024Y9798330D01*
X19647024Y9798330D02*
X19635119Y9810235D01*
X19944642Y10036426D02*
X19968452Y10036426D01*
X19968452Y10036426D02*
X19992261Y10024521D01*
X19992261Y10024521D02*
X20004166Y10012616D01*
X20004166Y10012616D02*
X20016071Y9988807D01*
X20016071Y9988807D02*
X20027976Y9941188D01*
X20027976Y9941188D02*
X20027976Y9881664D01*
X20027976Y9881664D02*
X20016071Y9834045D01*
X20016071Y9834045D02*
X20004166Y9810235D01*
X20004166Y9810235D02*
X19992261Y9798330D01*
X19992261Y9798330D02*
X19968452Y9786426D01*
X19968452Y9786426D02*
X19944642Y9786426D01*
X19944642Y9786426D02*
X19920833Y9798330D01*
X19920833Y9798330D02*
X19908928Y9810235D01*
X19908928Y9810235D02*
X19897023Y9834045D01*
X19897023Y9834045D02*
X19885119Y9881664D01*
X19885119Y9881664D02*
X19885119Y9941188D01*
X19885119Y9941188D02*
X19897023Y9988807D01*
X19897023Y9988807D02*
X19908928Y10012616D01*
X19908928Y10012616D02*
X19920833Y10024521D01*
X19920833Y10024521D02*
X19944642Y10036426D01*
X33999765Y5429286D02*
X34011670Y5417382D01*
X34011670Y5417382D02*
X34023574Y5381667D01*
X34023574Y5381667D02*
X34023574Y5357858D01*
X34023574Y5357858D02*
X34011670Y5322144D01*
X34011670Y5322144D02*
X33987860Y5298334D01*
X33987860Y5298334D02*
X33964050Y5286429D01*
X33964050Y5286429D02*
X33916431Y5274525D01*
X33916431Y5274525D02*
X33880717Y5274525D01*
X33880717Y5274525D02*
X33833098Y5286429D01*
X33833098Y5286429D02*
X33809289Y5298334D01*
X33809289Y5298334D02*
X33785479Y5322144D01*
X33785479Y5322144D02*
X33773574Y5357858D01*
X33773574Y5357858D02*
X33773574Y5381667D01*
X33773574Y5381667D02*
X33785479Y5417382D01*
X33785479Y5417382D02*
X33797384Y5429286D01*
X33797384Y5524525D02*
X33785479Y5536429D01*
X33785479Y5536429D02*
X33773574Y5560239D01*
X33773574Y5560239D02*
X33773574Y5619763D01*
X33773574Y5619763D02*
X33785479Y5643572D01*
X33785479Y5643572D02*
X33797384Y5655477D01*
X33797384Y5655477D02*
X33821193Y5667382D01*
X33821193Y5667382D02*
X33845003Y5667382D01*
X33845003Y5667382D02*
X33880717Y5655477D01*
X33880717Y5655477D02*
X34023574Y5512620D01*
X34023574Y5512620D02*
X34023574Y5667382D01*
X33773574Y5822143D02*
X33773574Y5845953D01*
X33773574Y5845953D02*
X33785479Y5869762D01*
X33785479Y5869762D02*
X33797384Y5881667D01*
X33797384Y5881667D02*
X33821193Y5893572D01*
X33821193Y5893572D02*
X33868812Y5905477D01*
X33868812Y5905477D02*
X33928336Y5905477D01*
X33928336Y5905477D02*
X33975955Y5893572D01*
X33975955Y5893572D02*
X33999765Y5881667D01*
X33999765Y5881667D02*
X34011670Y5869762D01*
X34011670Y5869762D02*
X34023574Y5845953D01*
X34023574Y5845953D02*
X34023574Y5822143D01*
X34023574Y5822143D02*
X34011670Y5798334D01*
X34011670Y5798334D02*
X33999765Y5786429D01*
X33999765Y5786429D02*
X33975955Y5774524D01*
X33975955Y5774524D02*
X33928336Y5762620D01*
X33928336Y5762620D02*
X33868812Y5762620D01*
X33868812Y5762620D02*
X33821193Y5774524D01*
X33821193Y5774524D02*
X33797384Y5786429D01*
X33797384Y5786429D02*
X33785479Y5798334D01*
X33785479Y5798334D02*
X33773574Y5822143D01*
D13*
X43022403Y27666668D02*
X43022403Y27533335D01*
X43231927Y27533335D02*
X42831927Y27533335D01*
X42831927Y27533335D02*
X42831927Y27723811D01*
X43022403Y28009525D02*
X43041451Y28066668D01*
X43041451Y28066668D02*
X43060499Y28085715D01*
X43060499Y28085715D02*
X43098594Y28104763D01*
X43098594Y28104763D02*
X43155737Y28104763D01*
X43155737Y28104763D02*
X43193832Y28085715D01*
X43193832Y28085715D02*
X43212880Y28066668D01*
X43212880Y28066668D02*
X43231927Y28028573D01*
X43231927Y28028573D02*
X43231927Y27876192D01*
X43231927Y27876192D02*
X42831927Y27876192D01*
X42831927Y27876192D02*
X42831927Y28009525D01*
X42831927Y28009525D02*
X42850975Y28047620D01*
X42850975Y28047620D02*
X42870022Y28066668D01*
X42870022Y28066668D02*
X42908118Y28085715D01*
X42908118Y28085715D02*
X42946213Y28085715D01*
X42946213Y28085715D02*
X42984308Y28066668D01*
X42984308Y28066668D02*
X43003356Y28047620D01*
X43003356Y28047620D02*
X43022403Y28009525D01*
X43022403Y28009525D02*
X43022403Y27876192D01*
X42870022Y28257144D02*
X42850975Y28276192D01*
X42850975Y28276192D02*
X42831927Y28314287D01*
X42831927Y28314287D02*
X42831927Y28409525D01*
X42831927Y28409525D02*
X42850975Y28447620D01*
X42850975Y28447620D02*
X42870022Y28466668D01*
X42870022Y28466668D02*
X42908118Y28485715D01*
X42908118Y28485715D02*
X42946213Y28485715D01*
X42946213Y28485715D02*
X43003356Y28466668D01*
X43003356Y28466668D02*
X43231927Y28238096D01*
X43231927Y28238096D02*
X43231927Y28485715D01*
X34143832Y20057858D02*
X34162880Y20038810D01*
X34162880Y20038810D02*
X34181927Y19981668D01*
X34181927Y19981668D02*
X34181927Y19943572D01*
X34181927Y19943572D02*
X34162880Y19886429D01*
X34162880Y19886429D02*
X34124784Y19848334D01*
X34124784Y19848334D02*
X34086689Y19829287D01*
X34086689Y19829287D02*
X34010499Y19810239D01*
X34010499Y19810239D02*
X33953356Y19810239D01*
X33953356Y19810239D02*
X33877165Y19829287D01*
X33877165Y19829287D02*
X33839070Y19848334D01*
X33839070Y19848334D02*
X33800975Y19886429D01*
X33800975Y19886429D02*
X33781927Y19943572D01*
X33781927Y19943572D02*
X33781927Y19981668D01*
X33781927Y19981668D02*
X33800975Y20038810D01*
X33800975Y20038810D02*
X33820022Y20057858D01*
X34181927Y20438810D02*
X34181927Y20210239D01*
X34181927Y20324525D02*
X33781927Y20324525D01*
X33781927Y20324525D02*
X33839070Y20286429D01*
X33839070Y20286429D02*
X33877165Y20248334D01*
X33877165Y20248334D02*
X33896213Y20210239D01*
X33781927Y20781667D02*
X33781927Y20705477D01*
X33781927Y20705477D02*
X33800975Y20667381D01*
X33800975Y20667381D02*
X33820022Y20648334D01*
X33820022Y20648334D02*
X33877165Y20610239D01*
X33877165Y20610239D02*
X33953356Y20591191D01*
X33953356Y20591191D02*
X34105737Y20591191D01*
X34105737Y20591191D02*
X34143832Y20610239D01*
X34143832Y20610239D02*
X34162880Y20629286D01*
X34162880Y20629286D02*
X34181927Y20667381D01*
X34181927Y20667381D02*
X34181927Y20743572D01*
X34181927Y20743572D02*
X34162880Y20781667D01*
X34162880Y20781667D02*
X34143832Y20800715D01*
X34143832Y20800715D02*
X34105737Y20819762D01*
X34105737Y20819762D02*
X34010499Y20819762D01*
X34010499Y20819762D02*
X33972403Y20800715D01*
X33972403Y20800715D02*
X33953356Y20781667D01*
X33953356Y20781667D02*
X33934308Y20743572D01*
X33934308Y20743572D02*
X33934308Y20667381D01*
X33934308Y20667381D02*
X33953356Y20629286D01*
X33953356Y20629286D02*
X33972403Y20610239D01*
X33972403Y20610239D02*
X34010499Y20591191D01*
D10*
X11652265Y4439286D02*
X11664170Y4427382D01*
X11664170Y4427382D02*
X11676074Y4391667D01*
X11676074Y4391667D02*
X11676074Y4367858D01*
X11676074Y4367858D02*
X11664170Y4332144D01*
X11664170Y4332144D02*
X11640360Y4308334D01*
X11640360Y4308334D02*
X11616550Y4296429D01*
X11616550Y4296429D02*
X11568931Y4284525D01*
X11568931Y4284525D02*
X11533217Y4284525D01*
X11533217Y4284525D02*
X11485598Y4296429D01*
X11485598Y4296429D02*
X11461789Y4308334D01*
X11461789Y4308334D02*
X11437979Y4332144D01*
X11437979Y4332144D02*
X11426074Y4367858D01*
X11426074Y4367858D02*
X11426074Y4391667D01*
X11426074Y4391667D02*
X11437979Y4427382D01*
X11437979Y4427382D02*
X11449884Y4439286D01*
X11426074Y4522620D02*
X11426074Y4677382D01*
X11426074Y4677382D02*
X11521312Y4594048D01*
X11521312Y4594048D02*
X11521312Y4629763D01*
X11521312Y4629763D02*
X11533217Y4653572D01*
X11533217Y4653572D02*
X11545122Y4665477D01*
X11545122Y4665477D02*
X11568931Y4677382D01*
X11568931Y4677382D02*
X11628455Y4677382D01*
X11628455Y4677382D02*
X11652265Y4665477D01*
X11652265Y4665477D02*
X11664170Y4653572D01*
X11664170Y4653572D02*
X11676074Y4629763D01*
X11676074Y4629763D02*
X11676074Y4558334D01*
X11676074Y4558334D02*
X11664170Y4534525D01*
X11664170Y4534525D02*
X11652265Y4522620D01*
X11426074Y4760715D02*
X11426074Y4915477D01*
X11426074Y4915477D02*
X11521312Y4832143D01*
X11521312Y4832143D02*
X11521312Y4867858D01*
X11521312Y4867858D02*
X11533217Y4891667D01*
X11533217Y4891667D02*
X11545122Y4903572D01*
X11545122Y4903572D02*
X11568931Y4915477D01*
X11568931Y4915477D02*
X11628455Y4915477D01*
X11628455Y4915477D02*
X11652265Y4903572D01*
X11652265Y4903572D02*
X11664170Y4891667D01*
X11664170Y4891667D02*
X11676074Y4867858D01*
X11676074Y4867858D02*
X11676074Y4796429D01*
X11676074Y4796429D02*
X11664170Y4772620D01*
X11664170Y4772620D02*
X11652265Y4760715D01*
X31328333Y6695235D02*
X31316429Y6683330D01*
X31316429Y6683330D02*
X31280714Y6671426D01*
X31280714Y6671426D02*
X31256905Y6671426D01*
X31256905Y6671426D02*
X31221191Y6683330D01*
X31221191Y6683330D02*
X31197381Y6707140D01*
X31197381Y6707140D02*
X31185476Y6730950D01*
X31185476Y6730950D02*
X31173572Y6778569D01*
X31173572Y6778569D02*
X31173572Y6814283D01*
X31173572Y6814283D02*
X31185476Y6861902D01*
X31185476Y6861902D02*
X31197381Y6885711D01*
X31197381Y6885711D02*
X31221191Y6909521D01*
X31221191Y6909521D02*
X31256905Y6921426D01*
X31256905Y6921426D02*
X31280714Y6921426D01*
X31280714Y6921426D02*
X31316429Y6909521D01*
X31316429Y6909521D02*
X31328333Y6897616D01*
X31542619Y6838092D02*
X31542619Y6671426D01*
X31483095Y6933330D02*
X31423572Y6754759D01*
X31423572Y6754759D02*
X31578333Y6754759D01*
D13*
X34506332Y27483334D02*
X34525380Y27464286D01*
X34525380Y27464286D02*
X34544427Y27407144D01*
X34544427Y27407144D02*
X34544427Y27369048D01*
X34544427Y27369048D02*
X34525380Y27311905D01*
X34525380Y27311905D02*
X34487284Y27273810D01*
X34487284Y27273810D02*
X34449189Y27254763D01*
X34449189Y27254763D02*
X34372999Y27235715D01*
X34372999Y27235715D02*
X34315856Y27235715D01*
X34315856Y27235715D02*
X34239665Y27254763D01*
X34239665Y27254763D02*
X34201570Y27273810D01*
X34201570Y27273810D02*
X34163475Y27311905D01*
X34163475Y27311905D02*
X34144427Y27369048D01*
X34144427Y27369048D02*
X34144427Y27407144D01*
X34144427Y27407144D02*
X34163475Y27464286D01*
X34163475Y27464286D02*
X34182522Y27483334D01*
X34182522Y27635715D02*
X34163475Y27654763D01*
X34163475Y27654763D02*
X34144427Y27692858D01*
X34144427Y27692858D02*
X34144427Y27788096D01*
X34144427Y27788096D02*
X34163475Y27826191D01*
X34163475Y27826191D02*
X34182522Y27845239D01*
X34182522Y27845239D02*
X34220618Y27864286D01*
X34220618Y27864286D02*
X34258713Y27864286D01*
X34258713Y27864286D02*
X34315856Y27845239D01*
X34315856Y27845239D02*
X34544427Y27616667D01*
X34544427Y27616667D02*
X34544427Y27864286D01*
D11*
X36818095Y13185181D02*
X36818095Y12375658D01*
X36818095Y12375658D02*
X36865714Y12280420D01*
X36865714Y12280420D02*
X36913333Y12232800D01*
X36913333Y12232800D02*
X37008571Y12185181D01*
X37008571Y12185181D02*
X37199047Y12185181D01*
X37199047Y12185181D02*
X37294285Y12232800D01*
X37294285Y12232800D02*
X37341904Y12280420D01*
X37341904Y12280420D02*
X37389523Y12375658D01*
X37389523Y12375658D02*
X37389523Y13185181D01*
X38294285Y12851848D02*
X38294285Y12185181D01*
X38056190Y13232800D02*
X37818095Y12518515D01*
X37818095Y12518515D02*
X38437142Y12518515D01*
D10*
X41232143Y1017378D02*
X41148809Y1017378D01*
X41148809Y886426D02*
X41148809Y1136426D01*
X41148809Y1136426D02*
X41267857Y1136426D01*
X41363095Y886426D02*
X41363095Y1136426D01*
X41482143Y886426D02*
X41482143Y1136426D01*
X41482143Y1136426D02*
X41541667Y1136426D01*
X41541667Y1136426D02*
X41577381Y1124521D01*
X41577381Y1124521D02*
X41601191Y1100711D01*
X41601191Y1100711D02*
X41613096Y1076902D01*
X41613096Y1076902D02*
X41625000Y1029283D01*
X41625000Y1029283D02*
X41625000Y993569D01*
X41625000Y993569D02*
X41613096Y945950D01*
X41613096Y945950D02*
X41601191Y922140D01*
X41601191Y922140D02*
X41577381Y898330D01*
X41577381Y898330D02*
X41541667Y886426D01*
X41541667Y886426D02*
X41482143Y886426D01*
X41708334Y1136426D02*
X41863096Y1136426D01*
X41863096Y1136426D02*
X41779762Y1041188D01*
X41779762Y1041188D02*
X41815477Y1041188D01*
X41815477Y1041188D02*
X41839286Y1029283D01*
X41839286Y1029283D02*
X41851191Y1017378D01*
X41851191Y1017378D02*
X41863096Y993569D01*
X41863096Y993569D02*
X41863096Y934045D01*
X41863096Y934045D02*
X41851191Y910235D01*
X41851191Y910235D02*
X41839286Y898330D01*
X41839286Y898330D02*
X41815477Y886426D01*
X41815477Y886426D02*
X41744048Y886426D01*
X41744048Y886426D02*
X41720239Y898330D01*
X41720239Y898330D02*
X41708334Y910235D01*
X32999765Y5429286D02*
X33011670Y5417382D01*
X33011670Y5417382D02*
X33023574Y5381667D01*
X33023574Y5381667D02*
X33023574Y5357858D01*
X33023574Y5357858D02*
X33011670Y5322144D01*
X33011670Y5322144D02*
X32987860Y5298334D01*
X32987860Y5298334D02*
X32964050Y5286429D01*
X32964050Y5286429D02*
X32916431Y5274525D01*
X32916431Y5274525D02*
X32880717Y5274525D01*
X32880717Y5274525D02*
X32833098Y5286429D01*
X32833098Y5286429D02*
X32809289Y5298334D01*
X32809289Y5298334D02*
X32785479Y5322144D01*
X32785479Y5322144D02*
X32773574Y5357858D01*
X32773574Y5357858D02*
X32773574Y5381667D01*
X32773574Y5381667D02*
X32785479Y5417382D01*
X32785479Y5417382D02*
X32797384Y5429286D01*
X33023574Y5667382D02*
X33023574Y5524525D01*
X33023574Y5595953D02*
X32773574Y5595953D01*
X32773574Y5595953D02*
X32809289Y5572144D01*
X32809289Y5572144D02*
X32833098Y5548334D01*
X32833098Y5548334D02*
X32845003Y5524525D01*
X32773574Y5750715D02*
X32773574Y5917381D01*
X32773574Y5917381D02*
X33023574Y5810239D01*
D13*
X18543832Y13542858D02*
X18562880Y13523810D01*
X18562880Y13523810D02*
X18581927Y13466668D01*
X18581927Y13466668D02*
X18581927Y13428572D01*
X18581927Y13428572D02*
X18562880Y13371429D01*
X18562880Y13371429D02*
X18524784Y13333334D01*
X18524784Y13333334D02*
X18486689Y13314287D01*
X18486689Y13314287D02*
X18410499Y13295239D01*
X18410499Y13295239D02*
X18353356Y13295239D01*
X18353356Y13295239D02*
X18277165Y13314287D01*
X18277165Y13314287D02*
X18239070Y13333334D01*
X18239070Y13333334D02*
X18200975Y13371429D01*
X18200975Y13371429D02*
X18181927Y13428572D01*
X18181927Y13428572D02*
X18181927Y13466668D01*
X18181927Y13466668D02*
X18200975Y13523810D01*
X18200975Y13523810D02*
X18220022Y13542858D01*
X18220022Y13695239D02*
X18200975Y13714287D01*
X18200975Y13714287D02*
X18181927Y13752382D01*
X18181927Y13752382D02*
X18181927Y13847620D01*
X18181927Y13847620D02*
X18200975Y13885715D01*
X18200975Y13885715D02*
X18220022Y13904763D01*
X18220022Y13904763D02*
X18258118Y13923810D01*
X18258118Y13923810D02*
X18296213Y13923810D01*
X18296213Y13923810D02*
X18353356Y13904763D01*
X18353356Y13904763D02*
X18581927Y13676191D01*
X18581927Y13676191D02*
X18581927Y13923810D01*
X18353356Y14152381D02*
X18334308Y14114286D01*
X18334308Y14114286D02*
X18315260Y14095239D01*
X18315260Y14095239D02*
X18277165Y14076191D01*
X18277165Y14076191D02*
X18258118Y14076191D01*
X18258118Y14076191D02*
X18220022Y14095239D01*
X18220022Y14095239D02*
X18200975Y14114286D01*
X18200975Y14114286D02*
X18181927Y14152381D01*
X18181927Y14152381D02*
X18181927Y14228572D01*
X18181927Y14228572D02*
X18200975Y14266667D01*
X18200975Y14266667D02*
X18220022Y14285715D01*
X18220022Y14285715D02*
X18258118Y14304762D01*
X18258118Y14304762D02*
X18277165Y14304762D01*
X18277165Y14304762D02*
X18315260Y14285715D01*
X18315260Y14285715D02*
X18334308Y14266667D01*
X18334308Y14266667D02*
X18353356Y14228572D01*
X18353356Y14228572D02*
X18353356Y14152381D01*
X18353356Y14152381D02*
X18372403Y14114286D01*
X18372403Y14114286D02*
X18391451Y14095239D01*
X18391451Y14095239D02*
X18429546Y14076191D01*
X18429546Y14076191D02*
X18505737Y14076191D01*
X18505737Y14076191D02*
X18543832Y14095239D01*
X18543832Y14095239D02*
X18562880Y14114286D01*
X18562880Y14114286D02*
X18581927Y14152381D01*
X18581927Y14152381D02*
X18581927Y14228572D01*
X18581927Y14228572D02*
X18562880Y14266667D01*
X18562880Y14266667D02*
X18543832Y14285715D01*
X18543832Y14285715D02*
X18505737Y14304762D01*
X18505737Y14304762D02*
X18429546Y14304762D01*
X18429546Y14304762D02*
X18391451Y14285715D01*
X18391451Y14285715D02*
X18372403Y14266667D01*
X18372403Y14266667D02*
X18353356Y14228572D01*
D14*
X35527149Y2216667D02*
X35289054Y2050001D01*
X35527149Y1930953D02*
X35027149Y1930953D01*
X35027149Y1930953D02*
X35027149Y2121429D01*
X35027149Y2121429D02*
X35050959Y2169048D01*
X35050959Y2169048D02*
X35074768Y2192858D01*
X35074768Y2192858D02*
X35122387Y2216667D01*
X35122387Y2216667D02*
X35193816Y2216667D01*
X35193816Y2216667D02*
X35241435Y2192858D01*
X35241435Y2192858D02*
X35265244Y2169048D01*
X35265244Y2169048D02*
X35289054Y2121429D01*
X35289054Y2121429D02*
X35289054Y1930953D01*
X35527149Y2454763D02*
X35527149Y2550001D01*
X35527149Y2550001D02*
X35503340Y2597620D01*
X35503340Y2597620D02*
X35479530Y2621429D01*
X35479530Y2621429D02*
X35408101Y2669048D01*
X35408101Y2669048D02*
X35312863Y2692858D01*
X35312863Y2692858D02*
X35122387Y2692858D01*
X35122387Y2692858D02*
X35074768Y2669048D01*
X35074768Y2669048D02*
X35050959Y2645239D01*
X35050959Y2645239D02*
X35027149Y2597620D01*
X35027149Y2597620D02*
X35027149Y2502382D01*
X35027149Y2502382D02*
X35050959Y2454763D01*
X35050959Y2454763D02*
X35074768Y2430953D01*
X35074768Y2430953D02*
X35122387Y2407144D01*
X35122387Y2407144D02*
X35241435Y2407144D01*
X35241435Y2407144D02*
X35289054Y2430953D01*
X35289054Y2430953D02*
X35312863Y2454763D01*
X35312863Y2454763D02*
X35336673Y2502382D01*
X35336673Y2502382D02*
X35336673Y2597620D01*
X35336673Y2597620D02*
X35312863Y2645239D01*
X35312863Y2645239D02*
X35289054Y2669048D01*
X35289054Y2669048D02*
X35241435Y2692858D01*
X35277149Y1810953D02*
X35277149Y2812858D01*
D15*
X18279167Y7564960D02*
X18279167Y7231627D01*
X18045833Y7931627D02*
X18279167Y7564960D01*
X18279167Y7564960D02*
X18512500Y7931627D01*
X19112500Y7231627D02*
X18712500Y7231627D01*
X18912500Y7231627D02*
X18912500Y7931627D01*
X18912500Y7931627D02*
X18845833Y7831627D01*
X18845833Y7831627D02*
X18779167Y7764960D01*
X18779167Y7764960D02*
X18712500Y7731627D01*
D10*
X4129285Y11660235D02*
X4117381Y11648330D01*
X4117381Y11648330D02*
X4081666Y11636426D01*
X4081666Y11636426D02*
X4057857Y11636426D01*
X4057857Y11636426D02*
X4022143Y11648330D01*
X4022143Y11648330D02*
X3998333Y11672140D01*
X3998333Y11672140D02*
X3986428Y11695950D01*
X3986428Y11695950D02*
X3974524Y11743569D01*
X3974524Y11743569D02*
X3974524Y11779283D01*
X3974524Y11779283D02*
X3986428Y11826902D01*
X3986428Y11826902D02*
X3998333Y11850711D01*
X3998333Y11850711D02*
X4022143Y11874521D01*
X4022143Y11874521D02*
X4057857Y11886426D01*
X4057857Y11886426D02*
X4081666Y11886426D01*
X4081666Y11886426D02*
X4117381Y11874521D01*
X4117381Y11874521D02*
X4129285Y11862616D01*
X4212619Y11886426D02*
X4367381Y11886426D01*
X4367381Y11886426D02*
X4284047Y11791188D01*
X4284047Y11791188D02*
X4319762Y11791188D01*
X4319762Y11791188D02*
X4343571Y11779283D01*
X4343571Y11779283D02*
X4355476Y11767378D01*
X4355476Y11767378D02*
X4367381Y11743569D01*
X4367381Y11743569D02*
X4367381Y11684045D01*
X4367381Y11684045D02*
X4355476Y11660235D01*
X4355476Y11660235D02*
X4343571Y11648330D01*
X4343571Y11648330D02*
X4319762Y11636426D01*
X4319762Y11636426D02*
X4248333Y11636426D01*
X4248333Y11636426D02*
X4224524Y11648330D01*
X4224524Y11648330D02*
X4212619Y11660235D01*
X4450714Y11886426D02*
X4617380Y11886426D01*
X4617380Y11886426D02*
X4510238Y11636426D01*
X5782857Y19481800D02*
X5696190Y19605609D01*
X5634285Y19481800D02*
X5634285Y19741800D01*
X5634285Y19741800D02*
X5733333Y19741800D01*
X5733333Y19741800D02*
X5758095Y19729419D01*
X5758095Y19729419D02*
X5770476Y19717038D01*
X5770476Y19717038D02*
X5782857Y19692276D01*
X5782857Y19692276D02*
X5782857Y19655133D01*
X5782857Y19655133D02*
X5770476Y19630371D01*
X5770476Y19630371D02*
X5758095Y19617990D01*
X5758095Y19617990D02*
X5733333Y19605609D01*
X5733333Y19605609D02*
X5634285Y19605609D01*
X6030476Y19481800D02*
X5881904Y19481800D01*
X5956190Y19481800D02*
X5956190Y19741800D01*
X5956190Y19741800D02*
X5931428Y19704657D01*
X5931428Y19704657D02*
X5906666Y19679895D01*
X5906666Y19679895D02*
X5881904Y19667514D01*
X6253333Y19741800D02*
X6203809Y19741800D01*
X6203809Y19741800D02*
X6179047Y19729419D01*
X6179047Y19729419D02*
X6166666Y19717038D01*
X6166666Y19717038D02*
X6141904Y19679895D01*
X6141904Y19679895D02*
X6129523Y19630371D01*
X6129523Y19630371D02*
X6129523Y19531323D01*
X6129523Y19531323D02*
X6141904Y19506561D01*
X6141904Y19506561D02*
X6154285Y19494180D01*
X6154285Y19494180D02*
X6179047Y19481800D01*
X6179047Y19481800D02*
X6228571Y19481800D01*
X6228571Y19481800D02*
X6253333Y19494180D01*
X6253333Y19494180D02*
X6265714Y19506561D01*
X6265714Y19506561D02*
X6278095Y19531323D01*
X6278095Y19531323D02*
X6278095Y19593228D01*
X6278095Y19593228D02*
X6265714Y19617990D01*
X6265714Y19617990D02*
X6253333Y19630371D01*
X6253333Y19630371D02*
X6228571Y19642752D01*
X6228571Y19642752D02*
X6179047Y19642752D01*
X6179047Y19642752D02*
X6154285Y19630371D01*
X6154285Y19630371D02*
X6141904Y19617990D01*
X6141904Y19617990D02*
X6129523Y19593228D01*
D11*
X15204819Y24531667D02*
X15919104Y24531667D01*
X15919104Y24531667D02*
X16061961Y24484048D01*
X16061961Y24484048D02*
X16157200Y24388810D01*
X16157200Y24388810D02*
X16204819Y24245953D01*
X16204819Y24245953D02*
X16204819Y24150715D01*
X15204819Y25436429D02*
X15204819Y25245953D01*
X15204819Y25245953D02*
X15252438Y25150715D01*
X15252438Y25150715D02*
X15300057Y25103096D01*
X15300057Y25103096D02*
X15442914Y25007858D01*
X15442914Y25007858D02*
X15633390Y24960239D01*
X15633390Y24960239D02*
X16014342Y24960239D01*
X16014342Y24960239D02*
X16109580Y25007858D01*
X16109580Y25007858D02*
X16157200Y25055477D01*
X16157200Y25055477D02*
X16204819Y25150715D01*
X16204819Y25150715D02*
X16204819Y25341191D01*
X16204819Y25341191D02*
X16157200Y25436429D01*
X16157200Y25436429D02*
X16109580Y25484048D01*
X16109580Y25484048D02*
X16014342Y25531667D01*
X16014342Y25531667D02*
X15776247Y25531667D01*
X15776247Y25531667D02*
X15681009Y25484048D01*
X15681009Y25484048D02*
X15633390Y25436429D01*
X15633390Y25436429D02*
X15585771Y25341191D01*
X15585771Y25341191D02*
X15585771Y25150715D01*
X15585771Y25150715D02*
X15633390Y25055477D01*
X15633390Y25055477D02*
X15681009Y25007858D01*
X15681009Y25007858D02*
X15776247Y24960239D01*
X15704819Y23931424D02*
X15704819Y25756667D01*
X27628095Y3830181D02*
X27628095Y3020658D01*
X27628095Y3020658D02*
X27675714Y2925420D01*
X27675714Y2925420D02*
X27723333Y2877800D01*
X27723333Y2877800D02*
X27818571Y2830181D01*
X27818571Y2830181D02*
X28009047Y2830181D01*
X28009047Y2830181D02*
X28104285Y2877800D01*
X28104285Y2877800D02*
X28151904Y2925420D01*
X28151904Y2925420D02*
X28199523Y3020658D01*
X28199523Y3020658D02*
X28199523Y3830181D01*
X29199523Y2830181D02*
X28628095Y2830181D01*
X28913809Y2830181D02*
X28913809Y3830181D01*
X28913809Y3830181D02*
X28818571Y3687324D01*
X28818571Y3687324D02*
X28723333Y3592086D01*
X28723333Y3592086D02*
X28628095Y3544467D01*
D10*
X38718200Y1356668D02*
X38594391Y1270001D01*
X38718200Y1208096D02*
X38458200Y1208096D01*
X38458200Y1208096D02*
X38458200Y1307144D01*
X38458200Y1307144D02*
X38470581Y1331906D01*
X38470581Y1331906D02*
X38482962Y1344287D01*
X38482962Y1344287D02*
X38507724Y1356668D01*
X38507724Y1356668D02*
X38544867Y1356668D01*
X38544867Y1356668D02*
X38569629Y1344287D01*
X38569629Y1344287D02*
X38582010Y1331906D01*
X38582010Y1331906D02*
X38594391Y1307144D01*
X38594391Y1307144D02*
X38594391Y1208096D01*
X38482962Y1455715D02*
X38470581Y1468096D01*
X38470581Y1468096D02*
X38458200Y1492858D01*
X38458200Y1492858D02*
X38458200Y1554763D01*
X38458200Y1554763D02*
X38470581Y1579525D01*
X38470581Y1579525D02*
X38482962Y1591906D01*
X38482962Y1591906D02*
X38507724Y1604287D01*
X38507724Y1604287D02*
X38532486Y1604287D01*
X38532486Y1604287D02*
X38569629Y1591906D01*
X38569629Y1591906D02*
X38718200Y1443334D01*
X38718200Y1443334D02*
X38718200Y1604287D01*
X21018200Y28056668D02*
X20894391Y27970001D01*
X21018200Y27908096D02*
X20758200Y27908096D01*
X20758200Y27908096D02*
X20758200Y28007144D01*
X20758200Y28007144D02*
X20770581Y28031906D01*
X20770581Y28031906D02*
X20782962Y28044287D01*
X20782962Y28044287D02*
X20807724Y28056668D01*
X20807724Y28056668D02*
X20844867Y28056668D01*
X20844867Y28056668D02*
X20869629Y28044287D01*
X20869629Y28044287D02*
X20882010Y28031906D01*
X20882010Y28031906D02*
X20894391Y28007144D01*
X20894391Y28007144D02*
X20894391Y27908096D01*
X20758200Y28291906D02*
X20758200Y28168096D01*
X20758200Y28168096D02*
X20882010Y28155715D01*
X20882010Y28155715D02*
X20869629Y28168096D01*
X20869629Y28168096D02*
X20857248Y28192858D01*
X20857248Y28192858D02*
X20857248Y28254763D01*
X20857248Y28254763D02*
X20869629Y28279525D01*
X20869629Y28279525D02*
X20882010Y28291906D01*
X20882010Y28291906D02*
X20906772Y28304287D01*
X20906772Y28304287D02*
X20968677Y28304287D01*
X20968677Y28304287D02*
X20993439Y28291906D01*
X20993439Y28291906D02*
X21005820Y28279525D01*
X21005820Y28279525D02*
X21018200Y28254763D01*
X21018200Y28254763D02*
X21018200Y28192858D01*
X21018200Y28192858D02*
X21005820Y28168096D01*
X21005820Y28168096D02*
X20993439Y28155715D01*
D13*
X1666667Y29027597D02*
X1533334Y29027597D01*
X1533334Y28818073D02*
X1533334Y29218073D01*
X1533334Y29218073D02*
X1723810Y29218073D01*
X2009524Y29027597D02*
X2066667Y29008549D01*
X2066667Y29008549D02*
X2085714Y28989501D01*
X2085714Y28989501D02*
X2104762Y28951406D01*
X2104762Y28951406D02*
X2104762Y28894263D01*
X2104762Y28894263D02*
X2085714Y28856168D01*
X2085714Y28856168D02*
X2066667Y28837120D01*
X2066667Y28837120D02*
X2028572Y28818073D01*
X2028572Y28818073D02*
X1876191Y28818073D01*
X1876191Y28818073D02*
X1876191Y29218073D01*
X1876191Y29218073D02*
X2009524Y29218073D01*
X2009524Y29218073D02*
X2047619Y29199025D01*
X2047619Y29199025D02*
X2066667Y29179978D01*
X2066667Y29179978D02*
X2085714Y29141882D01*
X2085714Y29141882D02*
X2085714Y29103787D01*
X2085714Y29103787D02*
X2066667Y29065692D01*
X2066667Y29065692D02*
X2047619Y29046644D01*
X2047619Y29046644D02*
X2009524Y29027597D01*
X2009524Y29027597D02*
X1876191Y29027597D01*
X2485714Y28818073D02*
X2257143Y28818073D01*
X2371429Y28818073D02*
X2371429Y29218073D01*
X2371429Y29218073D02*
X2333333Y29160930D01*
X2333333Y29160930D02*
X2295238Y29122835D01*
X2295238Y29122835D02*
X2257143Y29103787D01*
D10*
X25586667Y6666800D02*
X25500000Y6790609D01*
X25438095Y6666800D02*
X25438095Y6926800D01*
X25438095Y6926800D02*
X25537143Y6926800D01*
X25537143Y6926800D02*
X25561905Y6914419D01*
X25561905Y6914419D02*
X25574286Y6902038D01*
X25574286Y6902038D02*
X25586667Y6877276D01*
X25586667Y6877276D02*
X25586667Y6840133D01*
X25586667Y6840133D02*
X25574286Y6815371D01*
X25574286Y6815371D02*
X25561905Y6802990D01*
X25561905Y6802990D02*
X25537143Y6790609D01*
X25537143Y6790609D02*
X25438095Y6790609D01*
X25809524Y6840133D02*
X25809524Y6666800D01*
X25747619Y6939180D02*
X25685714Y6753466D01*
X25685714Y6753466D02*
X25846667Y6753466D01*
X13518200Y22332858D02*
X13394391Y22246191D01*
X13518200Y22184286D02*
X13258200Y22184286D01*
X13258200Y22184286D02*
X13258200Y22283334D01*
X13258200Y22283334D02*
X13270581Y22308096D01*
X13270581Y22308096D02*
X13282962Y22320477D01*
X13282962Y22320477D02*
X13307724Y22332858D01*
X13307724Y22332858D02*
X13344867Y22332858D01*
X13344867Y22332858D02*
X13369629Y22320477D01*
X13369629Y22320477D02*
X13382010Y22308096D01*
X13382010Y22308096D02*
X13394391Y22283334D01*
X13394391Y22283334D02*
X13394391Y22184286D01*
X13518200Y22580477D02*
X13518200Y22431905D01*
X13518200Y22506191D02*
X13258200Y22506191D01*
X13258200Y22506191D02*
X13295343Y22481429D01*
X13295343Y22481429D02*
X13320105Y22456667D01*
X13320105Y22456667D02*
X13332486Y22431905D01*
X13369629Y22729048D02*
X13357248Y22704286D01*
X13357248Y22704286D02*
X13344867Y22691905D01*
X13344867Y22691905D02*
X13320105Y22679524D01*
X13320105Y22679524D02*
X13307724Y22679524D01*
X13307724Y22679524D02*
X13282962Y22691905D01*
X13282962Y22691905D02*
X13270581Y22704286D01*
X13270581Y22704286D02*
X13258200Y22729048D01*
X13258200Y22729048D02*
X13258200Y22778572D01*
X13258200Y22778572D02*
X13270581Y22803334D01*
X13270581Y22803334D02*
X13282962Y22815715D01*
X13282962Y22815715D02*
X13307724Y22828096D01*
X13307724Y22828096D02*
X13320105Y22828096D01*
X13320105Y22828096D02*
X13344867Y22815715D01*
X13344867Y22815715D02*
X13357248Y22803334D01*
X13357248Y22803334D02*
X13369629Y22778572D01*
X13369629Y22778572D02*
X13369629Y22729048D01*
X13369629Y22729048D02*
X13382010Y22704286D01*
X13382010Y22704286D02*
X13394391Y22691905D01*
X13394391Y22691905D02*
X13419153Y22679524D01*
X13419153Y22679524D02*
X13468677Y22679524D01*
X13468677Y22679524D02*
X13493439Y22691905D01*
X13493439Y22691905D02*
X13505820Y22704286D01*
X13505820Y22704286D02*
X13518200Y22729048D01*
X13518200Y22729048D02*
X13518200Y22778572D01*
X13518200Y22778572D02*
X13505820Y22803334D01*
X13505820Y22803334D02*
X13493439Y22815715D01*
X13493439Y22815715D02*
X13468677Y22828096D01*
X13468677Y22828096D02*
X13419153Y22828096D01*
X13419153Y22828096D02*
X13394391Y22815715D01*
X13394391Y22815715D02*
X13382010Y22803334D01*
X13382010Y22803334D02*
X13369629Y22778572D01*
X13388200Y22124286D02*
X13388200Y22888096D01*
D11*
X7488095Y23645181D02*
X7488095Y22835658D01*
X7488095Y22835658D02*
X7535714Y22740420D01*
X7535714Y22740420D02*
X7583333Y22692800D01*
X7583333Y22692800D02*
X7678571Y22645181D01*
X7678571Y22645181D02*
X7869047Y22645181D01*
X7869047Y22645181D02*
X7964285Y22692800D01*
X7964285Y22692800D02*
X8011904Y22740420D01*
X8011904Y22740420D02*
X8059523Y22835658D01*
X8059523Y22835658D02*
X8059523Y23645181D01*
X8964285Y23645181D02*
X8773809Y23645181D01*
X8773809Y23645181D02*
X8678571Y23597562D01*
X8678571Y23597562D02*
X8630952Y23549943D01*
X8630952Y23549943D02*
X8535714Y23407086D01*
X8535714Y23407086D02*
X8488095Y23216610D01*
X8488095Y23216610D02*
X8488095Y22835658D01*
X8488095Y22835658D02*
X8535714Y22740420D01*
X8535714Y22740420D02*
X8583333Y22692800D01*
X8583333Y22692800D02*
X8678571Y22645181D01*
X8678571Y22645181D02*
X8869047Y22645181D01*
X8869047Y22645181D02*
X8964285Y22692800D01*
X8964285Y22692800D02*
X9011904Y22740420D01*
X9011904Y22740420D02*
X9059523Y22835658D01*
X9059523Y22835658D02*
X9059523Y23073753D01*
X9059523Y23073753D02*
X9011904Y23168991D01*
X9011904Y23168991D02*
X8964285Y23216610D01*
X8964285Y23216610D02*
X8869047Y23264229D01*
X8869047Y23264229D02*
X8678571Y23264229D01*
X8678571Y23264229D02*
X8583333Y23216610D01*
X8583333Y23216610D02*
X8535714Y23168991D01*
X8535714Y23168991D02*
X8488095Y23073753D01*
D13*
X37195238Y27718073D02*
X37195238Y27394263D01*
X37195238Y27394263D02*
X37214285Y27356168D01*
X37214285Y27356168D02*
X37233333Y27337120D01*
X37233333Y27337120D02*
X37271428Y27318073D01*
X37271428Y27318073D02*
X37347619Y27318073D01*
X37347619Y27318073D02*
X37385714Y27337120D01*
X37385714Y27337120D02*
X37404761Y27356168D01*
X37404761Y27356168D02*
X37423809Y27394263D01*
X37423809Y27394263D02*
X37423809Y27718073D01*
X37595238Y27679978D02*
X37614286Y27699025D01*
X37614286Y27699025D02*
X37652381Y27718073D01*
X37652381Y27718073D02*
X37747619Y27718073D01*
X37747619Y27718073D02*
X37785714Y27699025D01*
X37785714Y27699025D02*
X37804762Y27679978D01*
X37804762Y27679978D02*
X37823809Y27641882D01*
X37823809Y27641882D02*
X37823809Y27603787D01*
X37823809Y27603787D02*
X37804762Y27546644D01*
X37804762Y27546644D02*
X37576190Y27318073D01*
X37576190Y27318073D02*
X37823809Y27318073D01*
D16*
X2894809Y12766193D02*
X2894809Y12528098D01*
X2894809Y12528098D02*
X3132904Y12504289D01*
X3132904Y12504289D02*
X3109095Y12528098D01*
X3109095Y12528098D02*
X3085285Y12575717D01*
X3085285Y12575717D02*
X3085285Y12694765D01*
X3085285Y12694765D02*
X3109095Y12742384D01*
X3109095Y12742384D02*
X3132904Y12766193D01*
X3132904Y12766193D02*
X3180523Y12790003D01*
X3180523Y12790003D02*
X3299571Y12790003D01*
X3299571Y12790003D02*
X3347190Y12766193D01*
X3347190Y12766193D02*
X3371000Y12742384D01*
X3371000Y12742384D02*
X3394809Y12694765D01*
X3394809Y12694765D02*
X3394809Y12575717D01*
X3394809Y12575717D02*
X3371000Y12528098D01*
X3371000Y12528098D02*
X3347190Y12504289D01*
X2894809Y13099526D02*
X2894809Y13147145D01*
X2894809Y13147145D02*
X2918619Y13194764D01*
X2918619Y13194764D02*
X2942428Y13218574D01*
X2942428Y13218574D02*
X2990047Y13242383D01*
X2990047Y13242383D02*
X3085285Y13266193D01*
X3085285Y13266193D02*
X3204333Y13266193D01*
X3204333Y13266193D02*
X3299571Y13242383D01*
X3299571Y13242383D02*
X3347190Y13218574D01*
X3347190Y13218574D02*
X3371000Y13194764D01*
X3371000Y13194764D02*
X3394809Y13147145D01*
X3394809Y13147145D02*
X3394809Y13099526D01*
X3394809Y13099526D02*
X3371000Y13051907D01*
X3371000Y13051907D02*
X3347190Y13028098D01*
X3347190Y13028098D02*
X3299571Y13004288D01*
X3299571Y13004288D02*
X3204333Y12980479D01*
X3204333Y12980479D02*
X3085285Y12980479D01*
X3085285Y12980479D02*
X2990047Y13004288D01*
X2990047Y13004288D02*
X2942428Y13028098D01*
X2942428Y13028098D02*
X2918619Y13051907D01*
X2918619Y13051907D02*
X2894809Y13099526D01*
X2894809Y13718573D02*
X2894809Y13480478D01*
X2894809Y13480478D02*
X3132904Y13456669D01*
X3132904Y13456669D02*
X3109095Y13480478D01*
X3109095Y13480478D02*
X3085285Y13528097D01*
X3085285Y13528097D02*
X3085285Y13647145D01*
X3085285Y13647145D02*
X3109095Y13694764D01*
X3109095Y13694764D02*
X3132904Y13718573D01*
X3132904Y13718573D02*
X3180523Y13742383D01*
X3180523Y13742383D02*
X3299571Y13742383D01*
X3299571Y13742383D02*
X3347190Y13718573D01*
X3347190Y13718573D02*
X3371000Y13694764D01*
X3371000Y13694764D02*
X3394809Y13647145D01*
X3394809Y13647145D02*
X3394809Y13528097D01*
X3394809Y13528097D02*
X3371000Y13480478D01*
X3371000Y13480478D02*
X3347190Y13456669D01*
X2894809Y14051906D02*
X2894809Y14099525D01*
X2894809Y14099525D02*
X2918619Y14147144D01*
X2918619Y14147144D02*
X2942428Y14170954D01*
X2942428Y14170954D02*
X2990047Y14194763D01*
X2990047Y14194763D02*
X3085285Y14218573D01*
X3085285Y14218573D02*
X3204333Y14218573D01*
X3204333Y14218573D02*
X3299571Y14194763D01*
X3299571Y14194763D02*
X3347190Y14170954D01*
X3347190Y14170954D02*
X3371000Y14147144D01*
X3371000Y14147144D02*
X3394809Y14099525D01*
X3394809Y14099525D02*
X3394809Y14051906D01*
X3394809Y14051906D02*
X3371000Y14004287D01*
X3371000Y14004287D02*
X3347190Y13980478D01*
X3347190Y13980478D02*
X3299571Y13956668D01*
X3299571Y13956668D02*
X3204333Y13932859D01*
X3204333Y13932859D02*
X3085285Y13932859D01*
X3085285Y13932859D02*
X2990047Y13956668D01*
X2990047Y13956668D02*
X2942428Y13980478D01*
X2942428Y13980478D02*
X2918619Y14004287D01*
X2918619Y14004287D02*
X2894809Y14051906D01*
X2894809Y14385239D02*
X2894809Y14718572D01*
X2894809Y14718572D02*
X3394809Y14504287D01*
X2894809Y15004286D02*
X2894809Y15051905D01*
X2894809Y15051905D02*
X2918619Y15099524D01*
X2918619Y15099524D02*
X2942428Y15123334D01*
X2942428Y15123334D02*
X2990047Y15147143D01*
X2990047Y15147143D02*
X3085285Y15170953D01*
X3085285Y15170953D02*
X3204333Y15170953D01*
X3204333Y15170953D02*
X3299571Y15147143D01*
X3299571Y15147143D02*
X3347190Y15123334D01*
X3347190Y15123334D02*
X3371000Y15099524D01*
X3371000Y15099524D02*
X3394809Y15051905D01*
X3394809Y15051905D02*
X3394809Y15004286D01*
X3394809Y15004286D02*
X3371000Y14956667D01*
X3371000Y14956667D02*
X3347190Y14932858D01*
X3347190Y14932858D02*
X3299571Y14909048D01*
X3299571Y14909048D02*
X3204333Y14885239D01*
X3204333Y14885239D02*
X3085285Y14885239D01*
X3085285Y14885239D02*
X2990047Y14909048D01*
X2990047Y14909048D02*
X2942428Y14932858D01*
X2942428Y14932858D02*
X2918619Y14956667D01*
X2918619Y14956667D02*
X2894809Y15004286D01*
X2894809Y15480476D02*
X2894809Y15528095D01*
X2894809Y15528095D02*
X2918619Y15575714D01*
X2918619Y15575714D02*
X2942428Y15599524D01*
X2942428Y15599524D02*
X2990047Y15623333D01*
X2990047Y15623333D02*
X3085285Y15647143D01*
X3085285Y15647143D02*
X3204333Y15647143D01*
X3204333Y15647143D02*
X3299571Y15623333D01*
X3299571Y15623333D02*
X3347190Y15599524D01*
X3347190Y15599524D02*
X3371000Y15575714D01*
X3371000Y15575714D02*
X3394809Y15528095D01*
X3394809Y15528095D02*
X3394809Y15480476D01*
X3394809Y15480476D02*
X3371000Y15432857D01*
X3371000Y15432857D02*
X3347190Y15409048D01*
X3347190Y15409048D02*
X3299571Y15385238D01*
X3299571Y15385238D02*
X3204333Y15361429D01*
X3204333Y15361429D02*
X3085285Y15361429D01*
X3085285Y15361429D02*
X2990047Y15385238D01*
X2990047Y15385238D02*
X2942428Y15409048D01*
X2942428Y15409048D02*
X2918619Y15432857D01*
X2918619Y15432857D02*
X2894809Y15480476D01*
X2894809Y16075714D02*
X2894809Y15980476D01*
X2894809Y15980476D02*
X2918619Y15932857D01*
X2918619Y15932857D02*
X2942428Y15909047D01*
X2942428Y15909047D02*
X3013857Y15861428D01*
X3013857Y15861428D02*
X3109095Y15837619D01*
X3109095Y15837619D02*
X3299571Y15837619D01*
X3299571Y15837619D02*
X3347190Y15861428D01*
X3347190Y15861428D02*
X3371000Y15885238D01*
X3371000Y15885238D02*
X3394809Y15932857D01*
X3394809Y15932857D02*
X3394809Y16028095D01*
X3394809Y16028095D02*
X3371000Y16075714D01*
X3371000Y16075714D02*
X3347190Y16099523D01*
X3347190Y16099523D02*
X3299571Y16123333D01*
X3299571Y16123333D02*
X3180523Y16123333D01*
X3180523Y16123333D02*
X3132904Y16099523D01*
X3132904Y16099523D02*
X3109095Y16075714D01*
X3109095Y16075714D02*
X3085285Y16028095D01*
X3085285Y16028095D02*
X3085285Y15932857D01*
X3085285Y15932857D02*
X3109095Y15885238D01*
X3109095Y15885238D02*
X3132904Y15861428D01*
X3132904Y15861428D02*
X3180523Y15837619D01*
X2942428Y16313809D02*
X2918619Y16337618D01*
X2918619Y16337618D02*
X2894809Y16385237D01*
X2894809Y16385237D02*
X2894809Y16504285D01*
X2894809Y16504285D02*
X2918619Y16551904D01*
X2918619Y16551904D02*
X2942428Y16575713D01*
X2942428Y16575713D02*
X2990047Y16599523D01*
X2990047Y16599523D02*
X3037666Y16599523D01*
X3037666Y16599523D02*
X3109095Y16575713D01*
X3109095Y16575713D02*
X3394809Y16289999D01*
X3394809Y16289999D02*
X3394809Y16599523D01*
X2942428Y16789999D02*
X2918619Y16813808D01*
X2918619Y16813808D02*
X2894809Y16861427D01*
X2894809Y16861427D02*
X2894809Y16980475D01*
X2894809Y16980475D02*
X2918619Y17028094D01*
X2918619Y17028094D02*
X2942428Y17051903D01*
X2942428Y17051903D02*
X2990047Y17075713D01*
X2990047Y17075713D02*
X3037666Y17075713D01*
X3037666Y17075713D02*
X3109095Y17051903D01*
X3109095Y17051903D02*
X3394809Y16766189D01*
X3394809Y16766189D02*
X3394809Y17075713D01*
D14*
X41079530Y27416667D02*
X41103340Y27392858D01*
X41103340Y27392858D02*
X41127149Y27321429D01*
X41127149Y27321429D02*
X41127149Y27273810D01*
X41127149Y27273810D02*
X41103340Y27202382D01*
X41103340Y27202382D02*
X41055720Y27154763D01*
X41055720Y27154763D02*
X41008101Y27130953D01*
X41008101Y27130953D02*
X40912863Y27107144D01*
X40912863Y27107144D02*
X40841435Y27107144D01*
X40841435Y27107144D02*
X40746197Y27130953D01*
X40746197Y27130953D02*
X40698578Y27154763D01*
X40698578Y27154763D02*
X40650959Y27202382D01*
X40650959Y27202382D02*
X40627149Y27273810D01*
X40627149Y27273810D02*
X40627149Y27321429D01*
X40627149Y27321429D02*
X40650959Y27392858D01*
X40650959Y27392858D02*
X40674768Y27416667D01*
X41127149Y27892858D02*
X41127149Y27607144D01*
X41127149Y27750001D02*
X40627149Y27750001D01*
X40627149Y27750001D02*
X40698578Y27702382D01*
X40698578Y27702382D02*
X40746197Y27654763D01*
X40746197Y27654763D02*
X40770006Y27607144D01*
D11*
X40293095Y6735181D02*
X40864523Y6735181D01*
X40578809Y5735181D02*
X40578809Y6735181D01*
X41197857Y5735181D02*
X41197857Y6735181D01*
X41197857Y6735181D02*
X41578809Y6735181D01*
X41578809Y6735181D02*
X41674047Y6687562D01*
X41674047Y6687562D02*
X41721666Y6639943D01*
X41721666Y6639943D02*
X41769285Y6544705D01*
X41769285Y6544705D02*
X41769285Y6401848D01*
X41769285Y6401848D02*
X41721666Y6306610D01*
X41721666Y6306610D02*
X41674047Y6258991D01*
X41674047Y6258991D02*
X41578809Y6211372D01*
X41578809Y6211372D02*
X41197857Y6211372D01*
X42721666Y5735181D02*
X42150238Y5735181D01*
X42435952Y5735181D02*
X42435952Y6735181D01*
X42435952Y6735181D02*
X42340714Y6592324D01*
X42340714Y6592324D02*
X42245476Y6497086D01*
X42245476Y6497086D02*
X42150238Y6449467D01*
D10*
X732143Y1017378D02*
X648809Y1017378D01*
X648809Y886426D02*
X648809Y1136426D01*
X648809Y1136426D02*
X767857Y1136426D01*
X863095Y886426D02*
X863095Y1136426D01*
X982143Y886426D02*
X982143Y1136426D01*
X982143Y1136426D02*
X1041667Y1136426D01*
X1041667Y1136426D02*
X1077381Y1124521D01*
X1077381Y1124521D02*
X1101191Y1100711D01*
X1101191Y1100711D02*
X1113096Y1076902D01*
X1113096Y1076902D02*
X1125000Y1029283D01*
X1125000Y1029283D02*
X1125000Y993569D01*
X1125000Y993569D02*
X1113096Y945950D01*
X1113096Y945950D02*
X1101191Y922140D01*
X1101191Y922140D02*
X1077381Y898330D01*
X1077381Y898330D02*
X1041667Y886426D01*
X1041667Y886426D02*
X982143Y886426D01*
X1363096Y886426D02*
X1220239Y886426D01*
X1291667Y886426D02*
X1291667Y1136426D01*
X1291667Y1136426D02*
X1267858Y1100711D01*
X1267858Y1100711D02*
X1244048Y1076902D01*
X1244048Y1076902D02*
X1220239Y1064997D01*
X13518200Y24332858D02*
X13394391Y24246191D01*
X13518200Y24184286D02*
X13258200Y24184286D01*
X13258200Y24184286D02*
X13258200Y24283334D01*
X13258200Y24283334D02*
X13270581Y24308096D01*
X13270581Y24308096D02*
X13282962Y24320477D01*
X13282962Y24320477D02*
X13307724Y24332858D01*
X13307724Y24332858D02*
X13344867Y24332858D01*
X13344867Y24332858D02*
X13369629Y24320477D01*
X13369629Y24320477D02*
X13382010Y24308096D01*
X13382010Y24308096D02*
X13394391Y24283334D01*
X13394391Y24283334D02*
X13394391Y24184286D01*
X13518200Y24580477D02*
X13518200Y24431905D01*
X13518200Y24506191D02*
X13258200Y24506191D01*
X13258200Y24506191D02*
X13295343Y24481429D01*
X13295343Y24481429D02*
X13320105Y24456667D01*
X13320105Y24456667D02*
X13332486Y24431905D01*
X13258200Y24815715D02*
X13258200Y24691905D01*
X13258200Y24691905D02*
X13382010Y24679524D01*
X13382010Y24679524D02*
X13369629Y24691905D01*
X13369629Y24691905D02*
X13357248Y24716667D01*
X13357248Y24716667D02*
X13357248Y24778572D01*
X13357248Y24778572D02*
X13369629Y24803334D01*
X13369629Y24803334D02*
X13382010Y24815715D01*
X13382010Y24815715D02*
X13406772Y24828096D01*
X13406772Y24828096D02*
X13468677Y24828096D01*
X13468677Y24828096D02*
X13493439Y24815715D01*
X13493439Y24815715D02*
X13505820Y24803334D01*
X13505820Y24803334D02*
X13518200Y24778572D01*
X13518200Y24778572D02*
X13518200Y24716667D01*
X13518200Y24716667D02*
X13505820Y24691905D01*
X13505820Y24691905D02*
X13493439Y24679524D01*
X42191285Y18225235D02*
X42179381Y18213330D01*
X42179381Y18213330D02*
X42143666Y18201426D01*
X42143666Y18201426D02*
X42119857Y18201426D01*
X42119857Y18201426D02*
X42084143Y18213330D01*
X42084143Y18213330D02*
X42060333Y18237140D01*
X42060333Y18237140D02*
X42048428Y18260950D01*
X42048428Y18260950D02*
X42036524Y18308569D01*
X42036524Y18308569D02*
X42036524Y18344283D01*
X42036524Y18344283D02*
X42048428Y18391902D01*
X42048428Y18391902D02*
X42060333Y18415711D01*
X42060333Y18415711D02*
X42084143Y18439521D01*
X42084143Y18439521D02*
X42119857Y18451426D01*
X42119857Y18451426D02*
X42143666Y18451426D01*
X42143666Y18451426D02*
X42179381Y18439521D01*
X42179381Y18439521D02*
X42191285Y18427616D01*
X42429381Y18201426D02*
X42286524Y18201426D01*
X42357952Y18201426D02*
X42357952Y18451426D01*
X42357952Y18451426D02*
X42334143Y18415711D01*
X42334143Y18415711D02*
X42310333Y18391902D01*
X42310333Y18391902D02*
X42286524Y18379997D01*
X42572238Y18344283D02*
X42548428Y18356188D01*
X42548428Y18356188D02*
X42536523Y18368092D01*
X42536523Y18368092D02*
X42524619Y18391902D01*
X42524619Y18391902D02*
X42524619Y18403807D01*
X42524619Y18403807D02*
X42536523Y18427616D01*
X42536523Y18427616D02*
X42548428Y18439521D01*
X42548428Y18439521D02*
X42572238Y18451426D01*
X42572238Y18451426D02*
X42619857Y18451426D01*
X42619857Y18451426D02*
X42643666Y18439521D01*
X42643666Y18439521D02*
X42655571Y18427616D01*
X42655571Y18427616D02*
X42667476Y18403807D01*
X42667476Y18403807D02*
X42667476Y18391902D01*
X42667476Y18391902D02*
X42655571Y18368092D01*
X42655571Y18368092D02*
X42643666Y18356188D01*
X42643666Y18356188D02*
X42619857Y18344283D01*
X42619857Y18344283D02*
X42572238Y18344283D01*
X42572238Y18344283D02*
X42548428Y18332378D01*
X42548428Y18332378D02*
X42536523Y18320473D01*
X42536523Y18320473D02*
X42524619Y18296664D01*
X42524619Y18296664D02*
X42524619Y18249045D01*
X42524619Y18249045D02*
X42536523Y18225235D01*
X42536523Y18225235D02*
X42548428Y18213330D01*
X42548428Y18213330D02*
X42572238Y18201426D01*
X42572238Y18201426D02*
X42619857Y18201426D01*
X42619857Y18201426D02*
X42643666Y18213330D01*
X42643666Y18213330D02*
X42655571Y18225235D01*
X42655571Y18225235D02*
X42667476Y18249045D01*
X42667476Y18249045D02*
X42667476Y18296664D01*
X42667476Y18296664D02*
X42655571Y18320473D01*
X42655571Y18320473D02*
X42643666Y18332378D01*
X42643666Y18332378D02*
X42619857Y18344283D01*
D12*
X41866667Y21636145D02*
X41600000Y22017098D01*
X41409524Y21636145D02*
X41409524Y22436145D01*
X41409524Y22436145D02*
X41714286Y22436145D01*
X41714286Y22436145D02*
X41790476Y22398050D01*
X41790476Y22398050D02*
X41828571Y22359955D01*
X41828571Y22359955D02*
X41866667Y22283764D01*
X41866667Y22283764D02*
X41866667Y22169479D01*
X41866667Y22169479D02*
X41828571Y22093288D01*
X41828571Y22093288D02*
X41790476Y22055193D01*
X41790476Y22055193D02*
X41714286Y22017098D01*
X41714286Y22017098D02*
X41409524Y22017098D01*
X42133333Y22436145D02*
X42666667Y22436145D01*
X42666667Y22436145D02*
X42323809Y21636145D01*
D13*
X35303832Y5247858D02*
X35322880Y5228810D01*
X35322880Y5228810D02*
X35341927Y5171668D01*
X35341927Y5171668D02*
X35341927Y5133572D01*
X35341927Y5133572D02*
X35322880Y5076429D01*
X35322880Y5076429D02*
X35284784Y5038334D01*
X35284784Y5038334D02*
X35246689Y5019287D01*
X35246689Y5019287D02*
X35170499Y5000239D01*
X35170499Y5000239D02*
X35113356Y5000239D01*
X35113356Y5000239D02*
X35037165Y5019287D01*
X35037165Y5019287D02*
X34999070Y5038334D01*
X34999070Y5038334D02*
X34960975Y5076429D01*
X34960975Y5076429D02*
X34941927Y5133572D01*
X34941927Y5133572D02*
X34941927Y5171668D01*
X34941927Y5171668D02*
X34960975Y5228810D01*
X34960975Y5228810D02*
X34980022Y5247858D01*
X35341927Y5628810D02*
X35341927Y5400239D01*
X35341927Y5514525D02*
X34941927Y5514525D01*
X34941927Y5514525D02*
X34999070Y5476429D01*
X34999070Y5476429D02*
X35037165Y5438334D01*
X35037165Y5438334D02*
X35056213Y5400239D01*
X34941927Y5990715D02*
X34941927Y5800239D01*
X34941927Y5800239D02*
X35132403Y5781191D01*
X35132403Y5781191D02*
X35113356Y5800239D01*
X35113356Y5800239D02*
X35094308Y5838334D01*
X35094308Y5838334D02*
X35094308Y5933572D01*
X35094308Y5933572D02*
X35113356Y5971667D01*
X35113356Y5971667D02*
X35132403Y5990715D01*
X35132403Y5990715D02*
X35170499Y6009762D01*
X35170499Y6009762D02*
X35265737Y6009762D01*
X35265737Y6009762D02*
X35303832Y5990715D01*
X35303832Y5990715D02*
X35322880Y5971667D01*
X35322880Y5971667D02*
X35341927Y5933572D01*
X35341927Y5933572D02*
X35341927Y5838334D01*
X35341927Y5838334D02*
X35322880Y5800239D01*
X35322880Y5800239D02*
X35303832Y5781191D01*
D11*
X16971666Y29045181D02*
X16971666Y28330896D01*
X16971666Y28330896D02*
X16924047Y28188039D01*
X16924047Y28188039D02*
X16828809Y28092800D01*
X16828809Y28092800D02*
X16685952Y28045181D01*
X16685952Y28045181D02*
X16590714Y28045181D01*
X17400238Y28949943D02*
X17447857Y28997562D01*
X17447857Y28997562D02*
X17543095Y29045181D01*
X17543095Y29045181D02*
X17781190Y29045181D01*
X17781190Y29045181D02*
X17876428Y28997562D01*
X17876428Y28997562D02*
X17924047Y28949943D01*
X17924047Y28949943D02*
X17971666Y28854705D01*
X17971666Y28854705D02*
X17971666Y28759467D01*
X17971666Y28759467D02*
X17924047Y28616610D01*
X17924047Y28616610D02*
X17352619Y28045181D01*
X17352619Y28045181D02*
X17971666Y28045181D01*
X10017319Y9238096D02*
X10826842Y9238096D01*
X10826842Y9238096D02*
X10922080Y9285715D01*
X10922080Y9285715D02*
X10969700Y9333334D01*
X10969700Y9333334D02*
X11017319Y9428572D01*
X11017319Y9428572D02*
X11017319Y9619048D01*
X11017319Y9619048D02*
X10969700Y9714286D01*
X10969700Y9714286D02*
X10922080Y9761905D01*
X10922080Y9761905D02*
X10826842Y9809524D01*
X10826842Y9809524D02*
X10017319Y9809524D01*
X10017319Y10761905D02*
X10017319Y10285715D01*
X10017319Y10285715D02*
X10493509Y10238096D01*
X10493509Y10238096D02*
X10445890Y10285715D01*
X10445890Y10285715D02*
X10398271Y10380953D01*
X10398271Y10380953D02*
X10398271Y10619048D01*
X10398271Y10619048D02*
X10445890Y10714286D01*
X10445890Y10714286D02*
X10493509Y10761905D01*
X10493509Y10761905D02*
X10588747Y10809524D01*
X10588747Y10809524D02*
X10826842Y10809524D01*
X10826842Y10809524D02*
X10922080Y10761905D01*
X10922080Y10761905D02*
X10969700Y10714286D01*
X10969700Y10714286D02*
X11017319Y10619048D01*
X11017319Y10619048D02*
X11017319Y10380953D01*
X11017319Y10380953D02*
X10969700Y10285715D01*
X10969700Y10285715D02*
X10922080Y10238096D01*
D10*
X31039285Y11010235D02*
X31027381Y10998330D01*
X31027381Y10998330D02*
X30991666Y10986426D01*
X30991666Y10986426D02*
X30967857Y10986426D01*
X30967857Y10986426D02*
X30932143Y10998330D01*
X30932143Y10998330D02*
X30908333Y11022140D01*
X30908333Y11022140D02*
X30896428Y11045950D01*
X30896428Y11045950D02*
X30884524Y11093569D01*
X30884524Y11093569D02*
X30884524Y11129283D01*
X30884524Y11129283D02*
X30896428Y11176902D01*
X30896428Y11176902D02*
X30908333Y11200711D01*
X30908333Y11200711D02*
X30932143Y11224521D01*
X30932143Y11224521D02*
X30967857Y11236426D01*
X30967857Y11236426D02*
X30991666Y11236426D01*
X30991666Y11236426D02*
X31027381Y11224521D01*
X31027381Y11224521D02*
X31039285Y11212616D01*
X31134524Y11212616D02*
X31146428Y11224521D01*
X31146428Y11224521D02*
X31170238Y11236426D01*
X31170238Y11236426D02*
X31229762Y11236426D01*
X31229762Y11236426D02*
X31253571Y11224521D01*
X31253571Y11224521D02*
X31265476Y11212616D01*
X31265476Y11212616D02*
X31277381Y11188807D01*
X31277381Y11188807D02*
X31277381Y11164997D01*
X31277381Y11164997D02*
X31265476Y11129283D01*
X31265476Y11129283D02*
X31122619Y10986426D01*
X31122619Y10986426D02*
X31277381Y10986426D01*
X31503571Y11236426D02*
X31384523Y11236426D01*
X31384523Y11236426D02*
X31372619Y11117378D01*
X31372619Y11117378D02*
X31384523Y11129283D01*
X31384523Y11129283D02*
X31408333Y11141188D01*
X31408333Y11141188D02*
X31467857Y11141188D01*
X31467857Y11141188D02*
X31491666Y11129283D01*
X31491666Y11129283D02*
X31503571Y11117378D01*
X31503571Y11117378D02*
X31515476Y11093569D01*
X31515476Y11093569D02*
X31515476Y11034045D01*
X31515476Y11034045D02*
X31503571Y11010235D01*
X31503571Y11010235D02*
X31491666Y10998330D01*
X31491666Y10998330D02*
X31467857Y10986426D01*
X31467857Y10986426D02*
X31408333Y10986426D01*
X31408333Y10986426D02*
X31384523Y10998330D01*
X31384523Y10998330D02*
X31372619Y11010235D01*
X14682857Y21931800D02*
X14596190Y22055609D01*
X14534285Y21931800D02*
X14534285Y22191800D01*
X14534285Y22191800D02*
X14633333Y22191800D01*
X14633333Y22191800D02*
X14658095Y22179419D01*
X14658095Y22179419D02*
X14670476Y22167038D01*
X14670476Y22167038D02*
X14682857Y22142276D01*
X14682857Y22142276D02*
X14682857Y22105133D01*
X14682857Y22105133D02*
X14670476Y22080371D01*
X14670476Y22080371D02*
X14658095Y22067990D01*
X14658095Y22067990D02*
X14633333Y22055609D01*
X14633333Y22055609D02*
X14534285Y22055609D01*
X14930476Y21931800D02*
X14781904Y21931800D01*
X14856190Y21931800D02*
X14856190Y22191800D01*
X14856190Y22191800D02*
X14831428Y22154657D01*
X14831428Y22154657D02*
X14806666Y22129895D01*
X14806666Y22129895D02*
X14781904Y22117514D01*
X15017142Y22191800D02*
X15178095Y22191800D01*
X15178095Y22191800D02*
X15091428Y22092752D01*
X15091428Y22092752D02*
X15128571Y22092752D01*
X15128571Y22092752D02*
X15153333Y22080371D01*
X15153333Y22080371D02*
X15165714Y22067990D01*
X15165714Y22067990D02*
X15178095Y22043228D01*
X15178095Y22043228D02*
X15178095Y21981323D01*
X15178095Y21981323D02*
X15165714Y21956561D01*
X15165714Y21956561D02*
X15153333Y21944180D01*
X15153333Y21944180D02*
X15128571Y21931800D01*
X15128571Y21931800D02*
X15054285Y21931800D01*
X15054285Y21931800D02*
X15029523Y21944180D01*
X15029523Y21944180D02*
X15017142Y21956561D01*
X32839765Y19629286D02*
X32851670Y19617382D01*
X32851670Y19617382D02*
X32863574Y19581667D01*
X32863574Y19581667D02*
X32863574Y19557858D01*
X32863574Y19557858D02*
X32851670Y19522144D01*
X32851670Y19522144D02*
X32827860Y19498334D01*
X32827860Y19498334D02*
X32804050Y19486429D01*
X32804050Y19486429D02*
X32756431Y19474525D01*
X32756431Y19474525D02*
X32720717Y19474525D01*
X32720717Y19474525D02*
X32673098Y19486429D01*
X32673098Y19486429D02*
X32649289Y19498334D01*
X32649289Y19498334D02*
X32625479Y19522144D01*
X32625479Y19522144D02*
X32613574Y19557858D01*
X32613574Y19557858D02*
X32613574Y19581667D01*
X32613574Y19581667D02*
X32625479Y19617382D01*
X32625479Y19617382D02*
X32637384Y19629286D01*
X32863574Y19867382D02*
X32863574Y19724525D01*
X32863574Y19795953D02*
X32613574Y19795953D01*
X32613574Y19795953D02*
X32649289Y19772144D01*
X32649289Y19772144D02*
X32673098Y19748334D01*
X32673098Y19748334D02*
X32685003Y19724525D01*
X32863574Y19986429D02*
X32863574Y20034048D01*
X32863574Y20034048D02*
X32851670Y20057858D01*
X32851670Y20057858D02*
X32839765Y20069762D01*
X32839765Y20069762D02*
X32804050Y20093572D01*
X32804050Y20093572D02*
X32756431Y20105477D01*
X32756431Y20105477D02*
X32661193Y20105477D01*
X32661193Y20105477D02*
X32637384Y20093572D01*
X32637384Y20093572D02*
X32625479Y20081667D01*
X32625479Y20081667D02*
X32613574Y20057858D01*
X32613574Y20057858D02*
X32613574Y20010239D01*
X32613574Y20010239D02*
X32625479Y19986429D01*
X32625479Y19986429D02*
X32637384Y19974524D01*
X32637384Y19974524D02*
X32661193Y19962620D01*
X32661193Y19962620D02*
X32720717Y19962620D01*
X32720717Y19962620D02*
X32744527Y19974524D01*
X32744527Y19974524D02*
X32756431Y19986429D01*
X32756431Y19986429D02*
X32768336Y20010239D01*
X32768336Y20010239D02*
X32768336Y20057858D01*
X32768336Y20057858D02*
X32756431Y20081667D01*
X32756431Y20081667D02*
X32744527Y20093572D01*
X32744527Y20093572D02*
X32720717Y20105477D01*
X26218200Y8256668D02*
X26094391Y8170001D01*
X26218200Y8108096D02*
X25958200Y8108096D01*
X25958200Y8108096D02*
X25958200Y8207144D01*
X25958200Y8207144D02*
X25970581Y8231906D01*
X25970581Y8231906D02*
X25982962Y8244287D01*
X25982962Y8244287D02*
X26007724Y8256668D01*
X26007724Y8256668D02*
X26044867Y8256668D01*
X26044867Y8256668D02*
X26069629Y8244287D01*
X26069629Y8244287D02*
X26082010Y8231906D01*
X26082010Y8231906D02*
X26094391Y8207144D01*
X26094391Y8207144D02*
X26094391Y8108096D01*
X26218200Y8504287D02*
X26218200Y8355715D01*
X26218200Y8430001D02*
X25958200Y8430001D01*
X25958200Y8430001D02*
X25995343Y8405239D01*
X25995343Y8405239D02*
X26020105Y8380477D01*
X26020105Y8380477D02*
X26032486Y8355715D01*
X3859285Y19510235D02*
X3847381Y19498330D01*
X3847381Y19498330D02*
X3811666Y19486426D01*
X3811666Y19486426D02*
X3787857Y19486426D01*
X3787857Y19486426D02*
X3752143Y19498330D01*
X3752143Y19498330D02*
X3728333Y19522140D01*
X3728333Y19522140D02*
X3716428Y19545950D01*
X3716428Y19545950D02*
X3704524Y19593569D01*
X3704524Y19593569D02*
X3704524Y19629283D01*
X3704524Y19629283D02*
X3716428Y19676902D01*
X3716428Y19676902D02*
X3728333Y19700711D01*
X3728333Y19700711D02*
X3752143Y19724521D01*
X3752143Y19724521D02*
X3787857Y19736426D01*
X3787857Y19736426D02*
X3811666Y19736426D01*
X3811666Y19736426D02*
X3847381Y19724521D01*
X3847381Y19724521D02*
X3859285Y19712616D01*
X3942619Y19736426D02*
X4097381Y19736426D01*
X4097381Y19736426D02*
X4014047Y19641188D01*
X4014047Y19641188D02*
X4049762Y19641188D01*
X4049762Y19641188D02*
X4073571Y19629283D01*
X4073571Y19629283D02*
X4085476Y19617378D01*
X4085476Y19617378D02*
X4097381Y19593569D01*
X4097381Y19593569D02*
X4097381Y19534045D01*
X4097381Y19534045D02*
X4085476Y19510235D01*
X4085476Y19510235D02*
X4073571Y19498330D01*
X4073571Y19498330D02*
X4049762Y19486426D01*
X4049762Y19486426D02*
X3978333Y19486426D01*
X3978333Y19486426D02*
X3954524Y19498330D01*
X3954524Y19498330D02*
X3942619Y19510235D01*
X4335476Y19486426D02*
X4192619Y19486426D01*
X4264047Y19486426D02*
X4264047Y19736426D01*
X4264047Y19736426D02*
X4240238Y19700711D01*
X4240238Y19700711D02*
X4216428Y19676902D01*
X4216428Y19676902D02*
X4192619Y19664997D01*
D17*
G04 #@! TO.C,C24*
X43072000Y16000000D02*
X43572000Y16000000D01*
X43072000Y15000000D02*
X43072000Y16000000D01*
X43572000Y16000000D02*
X43572000Y15000000D01*
X43572000Y15000000D02*
X43072000Y15000000D01*
G04 #@! TO.C,C36*
X4750000Y10500000D02*
X5750000Y10500000D01*
X4750000Y10000000D02*
X4750000Y10500000D01*
X5750000Y10500000D02*
X5750000Y10000000D01*
X5750000Y10000000D02*
X4750000Y10000000D01*
G04 #@! TO.C,J1*
X700000Y8425000D02*
X2800000Y8425000D01*
X700000Y4615000D02*
X700000Y8425000D01*
X2275000Y4615000D02*
X700000Y4615000D01*
X2800000Y8425000D02*
X2800000Y5140000D01*
X2800000Y5140000D02*
X2275000Y4615000D01*
G04 #@! TO.C,C29*
X17200000Y5550000D02*
X18200000Y5550000D01*
X17200000Y5050000D02*
X17200000Y5550000D01*
X18200000Y5550000D02*
X18200000Y5050000D01*
X18200000Y5050000D02*
X17200000Y5050000D01*
G04 #@! TO.C,C32*
X6612500Y5350000D02*
X7612500Y5350000D01*
X6612500Y4850000D02*
X6612500Y5350000D01*
X7612500Y5350000D02*
X7612500Y4850000D01*
X7612500Y4850000D02*
X6612500Y4850000D01*
G04 #@! TO.C,R8*
X30324500Y28935000D02*
X31924500Y28935000D01*
X30324500Y25735000D02*
X30324500Y28935000D01*
X31924500Y28935000D02*
X31924500Y25735000D01*
X31924500Y25735000D02*
X30324500Y25735000D01*
G04 #@! TO.C,C7*
X4350000Y28600000D02*
X4850000Y28600000D01*
X4350000Y27600000D02*
X4350000Y28600000D01*
X4850000Y28600000D02*
X4850000Y27600000D01*
X4850000Y27600000D02*
X4350000Y27600000D01*
G04 #@! TO.C,FID2*
X28500000Y29000000D02*
G75*
G02*
X27500000Y29000000I-500000J0D01*
G01*
X27500000Y29000000D02*
G75*
G02*
X28500000Y29000000I500000J0D01*
G01*
G04 #@! TO.C,C39*
X11650000Y16300000D02*
X12150000Y16300000D01*
X11650000Y15300000D02*
X11650000Y16300000D01*
X12150000Y16300000D02*
X12150000Y15300000D01*
X12150000Y15300000D02*
X11650000Y15300000D01*
G04 #@! TO.C,C26*
X43072000Y13980000D02*
X43572000Y13980000D01*
X43072000Y12980000D02*
X43072000Y13980000D01*
X43572000Y13980000D02*
X43572000Y12980000D01*
X43572000Y12980000D02*
X43072000Y12980000D01*
G04 #@! TO.C,C12*
X43000000Y25500000D02*
X43800000Y25500000D01*
X43000000Y23900000D02*
X43000000Y25500000D01*
X43800000Y25500000D02*
X43800000Y23900000D01*
X43800000Y23900000D02*
X43000000Y23900000D01*
G04 #@! TO.C,C8*
X40200000Y25400000D02*
X41800000Y25400000D01*
X40200000Y24600000D02*
X40200000Y25400000D01*
X41800000Y25400000D02*
X41800000Y24600000D01*
X41800000Y24600000D02*
X40200000Y24600000D01*
G04 #@! TO.C,R14*
X17187500Y10170000D02*
X18237500Y10170000D01*
X17187500Y9630000D02*
X17187500Y10170000D01*
X18237500Y10170000D02*
X18237500Y9630000D01*
X18237500Y9630000D02*
X17187500Y9630000D01*
G04 #@! TO.C,C3*
X32862500Y27550000D02*
X33362500Y27550000D01*
X32862500Y26550000D02*
X32862500Y27550000D01*
X33362500Y27550000D02*
X33362500Y26550000D01*
X33362500Y26550000D02*
X32862500Y26550000D01*
G04 #@! TO.C,C22*
X40000000Y23950000D02*
X41000000Y23950000D01*
X40000000Y23450000D02*
X40000000Y23950000D01*
X41000000Y23950000D02*
X41000000Y23450000D01*
X41000000Y23450000D02*
X40000000Y23450000D01*
G04 #@! TO.C,U3*
X8020000Y29450000D02*
X9620000Y29450000D01*
X8020000Y26550000D02*
X8020000Y29450000D01*
X9220000Y26550000D02*
X8020000Y26550000D01*
X9620000Y29450000D02*
X9620000Y26950000D01*
X9620000Y26950000D02*
X9220000Y26550000D01*
G04 #@! TO.C,R6*
X13430000Y29225000D02*
X13970000Y29225000D01*
X13430000Y28175000D02*
X13430000Y29225000D01*
X13970000Y29225000D02*
X13970000Y28175000D01*
X13970000Y28175000D02*
X13430000Y28175000D01*
X30430000Y10075000D02*
X30970000Y10075000D01*
X30970000Y10175000D02*
G75*
G02*
X30970000Y10075000I0J-50000D01*
G01*
X30970000Y10175000D02*
X30430000Y10175000D01*
X30430000Y10175000D02*
G75*
G03*
X30430000Y10075000I0J-50000D01*
G01*
X30480000Y9075000D02*
X30480000Y10125000D01*
X30380000Y10125000D02*
G75*
G02*
X30480000Y10125000I50000J0D01*
G01*
X30380000Y10125000D02*
X30380000Y9075000D01*
X30380000Y9075000D02*
G75*
G03*
X30480000Y9075000I50000J0D01*
G01*
X30920000Y10125000D02*
X30920000Y9075000D01*
X31020000Y9075000D02*
G75*
G02*
X30920000Y9075000I-50000J0D01*
G01*
X31020000Y9075000D02*
X31020000Y10125000D01*
X31020000Y10125000D02*
G75*
G03*
X30920000Y10125000I-50000J0D01*
G01*
X30970000Y9125000D02*
X30430000Y9125000D01*
X30430000Y9025000D02*
G75*
G02*
X30430000Y9125000I0J50000D01*
G01*
X30430000Y9025000D02*
X30970000Y9025000D01*
X30970000Y9025000D02*
G75*
G03*
X30970000Y9125000I0J50000D01*
G01*
G04 #@! TO.C,C27*
X15300000Y15600000D02*
X16100000Y15600000D01*
X15300000Y14000000D02*
X15300000Y15600000D01*
X16100000Y15600000D02*
X16100000Y14000000D01*
X16100000Y14000000D02*
X15300000Y14000000D01*
G04 #@! TO.C,C5*
X11245000Y29000000D02*
X12495000Y29000000D01*
X11245000Y27000000D02*
X11245000Y29000000D01*
X12495000Y29000000D02*
X12495000Y27000000D01*
X12495000Y27000000D02*
X11245000Y27000000D01*
G04 #@! TO.C,C14*
X31700000Y24535000D02*
X33300000Y24535000D01*
X31700000Y23735000D02*
X31700000Y24535000D01*
X33300000Y24535000D02*
X33300000Y23735000D01*
X33300000Y23735000D02*
X31700000Y23735000D01*
X2730000Y22875000D02*
X3270000Y22875000D01*
X3270000Y22975000D02*
G75*
G02*
X3270000Y22875000I0J-50000D01*
G01*
X3270000Y22975000D02*
X2730000Y22975000D01*
X2730000Y22975000D02*
G75*
G03*
X2730000Y22875000I0J-50000D01*
G01*
X2780000Y21875000D02*
X2780000Y22925000D01*
X2680000Y22925000D02*
G75*
G02*
X2780000Y22925000I50000J0D01*
G01*
X2680000Y22925000D02*
X2680000Y21875000D01*
X2680000Y21875000D02*
G75*
G03*
X2780000Y21875000I50000J0D01*
G01*
X3220000Y22925000D02*
X3220000Y21875000D01*
X3320000Y21875000D02*
G75*
G02*
X3220000Y21875000I-50000J0D01*
G01*
X3320000Y21875000D02*
X3320000Y22925000D01*
X3320000Y22925000D02*
G75*
G03*
X3220000Y22925000I-50000J0D01*
G01*
X3270000Y21925000D02*
X2730000Y21925000D01*
X2730000Y21825000D02*
G75*
G02*
X2730000Y21925000I0J50000D01*
G01*
X2730000Y21825000D02*
X3270000Y21825000D01*
X3270000Y21825000D02*
G75*
G03*
X3270000Y21925000I0J50000D01*
G01*
G04 #@! TO.C,C35*
X16750000Y14300000D02*
X17250000Y14300000D01*
X16750000Y13300000D02*
X16750000Y14300000D01*
X17250000Y14300000D02*
X17250000Y13300000D01*
X17250000Y13300000D02*
X16750000Y13300000D01*
G04 #@! TO.C,C21*
X30500000Y17450000D02*
X31500000Y17450000D01*
X30500000Y16950000D02*
X30500000Y17450000D01*
X31500000Y17450000D02*
X31500000Y16950000D01*
X31500000Y16950000D02*
X30500000Y16950000D01*
G04 #@! TO.C,R3*
X33430000Y3525000D02*
X33970000Y3525000D01*
X33430000Y2475000D02*
X33430000Y3525000D01*
X33970000Y3525000D02*
X33970000Y2475000D01*
X33970000Y2475000D02*
X33430000Y2475000D01*
X2730000Y26075000D02*
X3270000Y26075000D01*
X3270000Y26175000D02*
G75*
G02*
X3270000Y26075000I0J-50000D01*
G01*
X3270000Y26175000D02*
X2730000Y26175000D01*
X2730000Y26175000D02*
G75*
G03*
X2730000Y26075000I0J-50000D01*
G01*
X2780000Y25075000D02*
X2780000Y26125000D01*
X2680000Y26125000D02*
G75*
G02*
X2780000Y26125000I50000J0D01*
G01*
X2680000Y26125000D02*
X2680000Y25075000D01*
X2680000Y25075000D02*
G75*
G03*
X2780000Y25075000I50000J0D01*
G01*
X3220000Y26125000D02*
X3220000Y25075000D01*
X3320000Y25075000D02*
G75*
G02*
X3220000Y25075000I-50000J0D01*
G01*
X3320000Y25075000D02*
X3320000Y26125000D01*
X3320000Y26125000D02*
G75*
G03*
X3220000Y26125000I-50000J0D01*
G01*
X3270000Y25125000D02*
X2730000Y25125000D01*
X2730000Y25025000D02*
G75*
G02*
X2730000Y25125000I0J50000D01*
G01*
X2730000Y25025000D02*
X3270000Y25025000D01*
X3270000Y25025000D02*
G75*
G03*
X3270000Y25125000I0J50000D01*
G01*
G04 #@! TO.C,C38*
X7000000Y15750000D02*
X7500000Y15750000D01*
X7000000Y14750000D02*
X7000000Y15750000D01*
X7500000Y15750000D02*
X7500000Y14750000D01*
X7500000Y14750000D02*
X7000000Y14750000D01*
G04 #@! TO.C,C34*
X17150000Y11900000D02*
X17650000Y11900000D01*
X17150000Y10900000D02*
X17150000Y11900000D01*
X17650000Y11900000D02*
X17650000Y10900000D01*
X17650000Y10900000D02*
X17150000Y10900000D01*
X36755000Y4600000D02*
X41310000Y4600000D01*
X41310000Y4700000D02*
G75*
G02*
X41310000Y4600000I0J-50000D01*
G01*
X41310000Y4700000D02*
X36755000Y4700000D01*
X36755000Y4700000D02*
G75*
G03*
X36755000Y4600000I0J-50000D01*
G01*
X36805000Y2550000D02*
X36805000Y4650000D01*
X36705000Y4650000D02*
G75*
G02*
X36805000Y4650000I50000J0D01*
G01*
X36705000Y4650000D02*
X36705000Y2550000D01*
X36705000Y2550000D02*
G75*
G03*
X36805000Y2550000I50000J0D01*
G01*
X41274645Y4614645D02*
X41799645Y4089645D01*
X41870355Y4160355D02*
G75*
G02*
X41799645Y4089645I-35355J-35355D01*
G01*
X41870355Y4160355D02*
X41345355Y4685355D01*
X41345355Y4685355D02*
G75*
G03*
X41274645Y4614645I-35355J-35355D01*
G01*
X41785000Y4125000D02*
X41785000Y2550000D01*
X41885000Y2550000D02*
G75*
G02*
X41785000Y2550000I-50000J0D01*
G01*
X41885000Y2550000D02*
X41885000Y4125000D01*
X41885000Y4125000D02*
G75*
G03*
X41785000Y4125000I-50000J0D01*
G01*
X41835000Y2600000D02*
X36755000Y2600000D01*
X36755000Y2500000D02*
G75*
G02*
X36755000Y2600000I0J50000D01*
G01*
X36755000Y2500000D02*
X41835000Y2500000D01*
X41835000Y2500000D02*
G75*
G03*
X41835000Y2600000I0J50000D01*
G01*
G04 #@! TO.C,C23*
X39750000Y6590000D02*
X40250000Y6590000D01*
X39750000Y5590000D02*
X39750000Y6590000D01*
X40250000Y6590000D02*
X40250000Y5590000D01*
X40250000Y5590000D02*
X39750000Y5590000D01*
G04 #@! TO.C,C6*
X5450000Y28800000D02*
X6250000Y28800000D01*
X5450000Y27200000D02*
X5450000Y28800000D01*
X6250000Y28800000D02*
X6250000Y27200000D01*
X6250000Y27200000D02*
X5450000Y27200000D01*
G04 #@! TO.C,C30*
X19212500Y10150000D02*
X20212500Y10150000D01*
X19212500Y9650000D02*
X19212500Y10150000D01*
X20212500Y10150000D02*
X20212500Y9650000D01*
X20212500Y9650000D02*
X19212500Y9650000D01*
G04 #@! TO.C,C20*
X33660000Y6090000D02*
X34160000Y6090000D01*
X33660000Y5090000D02*
X33660000Y6090000D01*
X34160000Y6090000D02*
X34160000Y5090000D01*
X34160000Y5090000D02*
X33660000Y5090000D01*
G04 #@! TO.C,FB2*
X42650000Y28800000D02*
X43450000Y28800000D01*
X42650000Y27200000D02*
X42650000Y28800000D01*
X43450000Y28800000D02*
X43450000Y27200000D01*
X43450000Y27200000D02*
X42650000Y27200000D01*
G04 #@! TO.C,C16*
X33600000Y21115000D02*
X34400000Y21115000D01*
X33600000Y19515000D02*
X33600000Y21115000D01*
X34400000Y21115000D02*
X34400000Y19515000D01*
X34400000Y19515000D02*
X33600000Y19515000D01*
G04 #@! TO.C,C33*
X11312500Y5100000D02*
X11812500Y5100000D01*
X11312500Y4100000D02*
X11312500Y5100000D01*
X11812500Y5100000D02*
X11812500Y4100000D01*
X11812500Y4100000D02*
X11312500Y4100000D01*
G04 #@! TO.C,C4*
X30870000Y7035000D02*
X31870000Y7035000D01*
X30870000Y6535000D02*
X30870000Y7035000D01*
X31870000Y7035000D02*
X31870000Y6535000D01*
X31870000Y6535000D02*
X30870000Y6535000D01*
G04 #@! TO.C,C2*
X33962500Y28350000D02*
X34762500Y28350000D01*
X33962500Y26750000D02*
X33962500Y28350000D01*
X34762500Y28350000D02*
X34762500Y26750000D01*
X34762500Y26750000D02*
X33962500Y26750000D01*
G04 #@! TO.C,U4*
X42080000Y8140000D02*
X33080000Y8140000D01*
X33080000Y16140000D01*
X34080000Y17140000D01*
X42080000Y17140000D01*
X42080000Y8140000D01*
G04 #@! TO.C,FID3*
X42000000Y1000000D02*
G75*
G02*
X41000000Y1000000I-500000J0D01*
G01*
X41000000Y1000000D02*
G75*
G02*
X42000000Y1000000I500000J0D01*
G01*
G04 #@! TO.C,C17*
X32660000Y6090000D02*
X33160000Y6090000D01*
X32660000Y5090000D02*
X32660000Y6090000D01*
X33160000Y6090000D02*
X33160000Y5090000D01*
X33160000Y5090000D02*
X32660000Y5090000D01*
G04 #@! TO.C,C28*
X18000000Y14600000D02*
X18800000Y14600000D01*
X18000000Y13000000D02*
X18000000Y14600000D01*
X18800000Y14600000D02*
X18800000Y13000000D01*
X18800000Y13000000D02*
X18000000Y13000000D01*
X34675000Y3250000D02*
X35925000Y3250000D01*
X35925000Y3350000D02*
G75*
G02*
X35925000Y3250000I0J-50000D01*
G01*
X35925000Y3350000D02*
X34675000Y3350000D01*
X34675000Y3350000D02*
G75*
G03*
X34675000Y3250000I0J-50000D01*
G01*
X34725000Y1300000D02*
X34725000Y3300000D01*
X34625000Y3300000D02*
G75*
G02*
X34725000Y3300000I50000J0D01*
G01*
X34625000Y3300000D02*
X34625000Y1300000D01*
X34625000Y1300000D02*
G75*
G03*
X34725000Y1300000I50000J0D01*
G01*
X35875000Y3300000D02*
X35875000Y1300000D01*
X35975000Y1300000D02*
G75*
G02*
X35875000Y1300000I-50000J0D01*
G01*
X35975000Y1300000D02*
X35975000Y3300000D01*
X35975000Y3300000D02*
G75*
G03*
X35875000Y3300000I-50000J0D01*
G01*
X35925000Y1350000D02*
X34675000Y1350000D01*
X34675000Y1250000D02*
G75*
G02*
X34675000Y1350000I0J50000D01*
G01*
X34675000Y1250000D02*
X35925000Y1250000D01*
X35925000Y1250000D02*
G75*
G03*
X35925000Y1350000I0J50000D01*
G01*
G04 #@! TO.C,Y1*
X17012500Y8800000D02*
X17012500Y6300000D01*
X17012500Y7300000D02*
X18012500Y6300000D01*
X17012500Y6300000D02*
X20212500Y6300000D01*
X20212500Y8800000D02*
X17012500Y8800000D01*
X20212500Y6300000D02*
X20212500Y8800000D01*
G04 #@! TO.C,C37*
X3790000Y12000000D02*
X4790000Y12000000D01*
X3790000Y11500000D02*
X3790000Y12000000D01*
X4790000Y12000000D02*
X4790000Y11500000D01*
X4790000Y11500000D02*
X3790000Y11500000D01*
G04 #@! TO.C,R16*
X5425000Y19870000D02*
X6475000Y19870000D01*
X5425000Y19330000D02*
X5425000Y19870000D01*
X6475000Y19870000D02*
X6475000Y19330000D01*
X6475000Y19330000D02*
X5425000Y19330000D01*
X14735355Y25574645D02*
X15260355Y26099645D01*
X15189645Y26170355D02*
G75*
G02*
X15260355Y26099645I35355J-35355D01*
G01*
X15189645Y26170355D02*
X14664645Y25645355D01*
X14664645Y25645355D02*
G75*
G03*
X14735355Y25574645I35355J-35355D01*
G01*
X14750000Y23595000D02*
X14750000Y25610000D01*
X14650000Y25610000D02*
G75*
G02*
X14750000Y25610000I50000J0D01*
G01*
X14650000Y25610000D02*
X14650000Y23595000D01*
X14650000Y23595000D02*
G75*
G03*
X14750000Y23595000I50000J0D01*
G01*
X15225000Y26085000D02*
X16800000Y26085000D01*
X16800000Y26185000D02*
G75*
G02*
X16800000Y26085000I0J-50000D01*
G01*
X16800000Y26185000D02*
X15225000Y26185000D01*
X15225000Y26185000D02*
G75*
G03*
X15225000Y26085000I0J-50000D01*
G01*
X16750000Y26135000D02*
X16750000Y23595000D01*
X16850000Y23595000D02*
G75*
G02*
X16750000Y23595000I-50000J0D01*
G01*
X16850000Y23595000D02*
X16850000Y26135000D01*
X16850000Y26135000D02*
G75*
G03*
X16750000Y26135000I-50000J0D01*
G01*
X16800000Y23645000D02*
X14700000Y23645000D01*
X14700000Y23545000D02*
G75*
G02*
X14700000Y23645000I0J50000D01*
G01*
X14700000Y23545000D02*
X16800000Y23545000D01*
X16800000Y23545000D02*
G75*
G03*
X16800000Y23645000I0J50000D01*
G01*
G04 #@! TO.C,U1*
X26190000Y4785000D02*
X27190000Y5785000D01*
X26190000Y785000D02*
X26190000Y4785000D01*
X27190000Y5785000D02*
X30590000Y5785000D01*
X30590000Y5785000D02*
X30590000Y785000D01*
X30590000Y785000D02*
X26190000Y785000D01*
G04 #@! TO.C,R2*
X38330000Y1925000D02*
X38870000Y1925000D01*
X38330000Y875000D02*
X38330000Y1925000D01*
X38870000Y1925000D02*
X38870000Y875000D01*
X38870000Y875000D02*
X38330000Y875000D01*
G04 #@! TO.C,R5*
X20630000Y28625000D02*
X21170000Y28625000D01*
X20630000Y27575000D02*
X20630000Y28625000D01*
X21170000Y28625000D02*
X21170000Y27575000D01*
X21170000Y27575000D02*
X20630000Y27575000D01*
G04 #@! TO.C,FB1*
X1200000Y29400000D02*
X2800000Y29400000D01*
X1200000Y28600000D02*
X1200000Y29400000D01*
X2800000Y29400000D02*
X2800000Y28600000D01*
X2800000Y28600000D02*
X1200000Y28600000D01*
G04 #@! TO.C,R4*
X25105000Y7055000D02*
X26155000Y7055000D01*
X25105000Y6515000D02*
X25105000Y7055000D01*
X26155000Y7055000D02*
X26155000Y6515000D01*
X26155000Y6515000D02*
X25105000Y6515000D01*
X13130000Y22975000D02*
X13670000Y22975000D01*
X13670000Y23075000D02*
G75*
G02*
X13670000Y22975000I0J-50000D01*
G01*
X13670000Y23075000D02*
X13130000Y23075000D01*
X13130000Y23075000D02*
G75*
G03*
X13130000Y22975000I0J-50000D01*
G01*
X13180000Y21975000D02*
X13180000Y23025000D01*
X13080000Y23025000D02*
G75*
G02*
X13180000Y23025000I50000J0D01*
G01*
X13080000Y23025000D02*
X13080000Y21975000D01*
X13080000Y21975000D02*
G75*
G03*
X13180000Y21975000I50000J0D01*
G01*
X13620000Y23025000D02*
X13620000Y21975000D01*
X13720000Y21975000D02*
G75*
G02*
X13620000Y21975000I-50000J0D01*
G01*
X13720000Y21975000D02*
X13720000Y23025000D01*
X13720000Y23025000D02*
G75*
G03*
X13620000Y23025000I-50000J0D01*
G01*
X13670000Y22025000D02*
X13130000Y22025000D01*
X13130000Y21925000D02*
G75*
G02*
X13130000Y22025000I0J50000D01*
G01*
X13130000Y21925000D02*
X13670000Y21925000D01*
X13670000Y21925000D02*
G75*
G03*
X13670000Y22025000I0J50000D01*
G01*
G04 #@! TO.C,U6*
X5600000Y25750000D02*
X10900000Y25750000D01*
X5600000Y20450000D02*
X5600000Y25750000D01*
X9900000Y20450000D02*
X5600000Y20450000D01*
X10900000Y25750000D02*
X10900000Y21450000D01*
X10900000Y21450000D02*
X9900000Y20450000D01*
G04 #@! TO.C,U2*
X36700000Y28950000D02*
X38300000Y28950000D01*
X36700000Y26050000D02*
X36700000Y28950000D01*
X37900000Y26050000D02*
X36700000Y26050000D01*
X38300000Y28950000D02*
X38300000Y26450000D01*
X38300000Y26450000D02*
X37900000Y26050000D01*
D18*
G04 #@! TO.C,J3*
X3665000Y16168400D02*
X3665000Y13831600D01*
X3665000Y13831600D02*
X4935000Y13831600D01*
X4935000Y16168400D02*
X3665000Y16168400D01*
X4935000Y13831600D02*
X4935000Y16168400D01*
D19*
X5234497Y16410000D02*
G75*
G02*
X5085503Y16410000I-74497J0D01*
G01*
X5085503Y16410000D02*
G75*
G02*
X5234497Y16410000I74497J0D01*
G01*
D17*
G04 #@! TO.C,C1*
X40275000Y28500000D02*
X41525000Y28500000D01*
X40275000Y26500000D02*
X40275000Y28500000D01*
X41525000Y28500000D02*
X41525000Y26500000D01*
X41525000Y26500000D02*
X40275000Y26500000D01*
G04 #@! TO.C,FID1*
X1500000Y1000000D02*
G75*
G02*
X500000Y1000000I-500000J0D01*
G01*
X500000Y1000000D02*
G75*
G02*
X1500000Y1000000I500000J0D01*
G01*
G04 #@! TO.C,R15*
X13130000Y25025000D02*
X13670000Y25025000D01*
X13130000Y23975000D02*
X13130000Y25025000D01*
X13670000Y25025000D02*
X13670000Y23975000D01*
X13670000Y23975000D02*
X13130000Y23975000D01*
G04 #@! TO.C,C18*
X41852000Y18565000D02*
X42852000Y18565000D01*
X41852000Y18065000D02*
X41852000Y18565000D01*
X42852000Y18565000D02*
X42852000Y18065000D01*
X42852000Y18065000D02*
X41852000Y18065000D01*
G04 #@! TO.C,R7*
X40400000Y22800000D02*
X43600000Y22800000D01*
X40400000Y21200000D02*
X40400000Y22800000D01*
X43600000Y22800000D02*
X43600000Y21200000D01*
X43600000Y21200000D02*
X40400000Y21200000D01*
G04 #@! TO.C,C15*
X34760000Y6305000D02*
X35560000Y6305000D01*
X34760000Y4705000D02*
X34760000Y6305000D01*
X35560000Y6305000D02*
X35560000Y4705000D01*
X35560000Y4705000D02*
X34760000Y4705000D01*
G04 #@! TO.C,J2*
X14765000Y29770000D02*
X19210000Y29770000D01*
X14765000Y27230000D02*
X14765000Y29770000D01*
X19210000Y29770000D02*
X19845000Y29135000D01*
X19845000Y29135000D02*
X19845000Y27230000D01*
X19845000Y27230000D02*
X14765000Y27230000D01*
G04 #@! TO.C,U5*
X14062500Y6500000D02*
X8062500Y6500000D01*
X7062500Y7500000D01*
X7062500Y13500000D01*
X14062500Y13500000D01*
X14062500Y6500000D01*
G04 #@! TO.C,C25*
X30700000Y11350000D02*
X31700000Y11350000D01*
X30700000Y10850000D02*
X30700000Y11350000D01*
X31700000Y11350000D02*
X31700000Y10850000D01*
X31700000Y10850000D02*
X30700000Y10850000D01*
G04 #@! TO.C,R13*
X14325000Y22320000D02*
X15375000Y22320000D01*
X14325000Y21780000D02*
X14325000Y22320000D01*
X15375000Y22320000D02*
X15375000Y21780000D01*
X15375000Y21780000D02*
X14325000Y21780000D01*
G04 #@! TO.C,C19*
X32500000Y20290000D02*
X33000000Y20290000D01*
X32500000Y19290000D02*
X32500000Y20290000D01*
X33000000Y20290000D02*
X33000000Y19290000D01*
X33000000Y19290000D02*
X32500000Y19290000D01*
G04 #@! TO.C,R1*
X25830000Y8825000D02*
X26370000Y8825000D01*
X25830000Y7775000D02*
X25830000Y8825000D01*
X26370000Y8825000D02*
X26370000Y7775000D01*
X26370000Y7775000D02*
X25830000Y7775000D01*
G04 #@! TO.C,C31*
X3520000Y19850000D02*
X4520000Y19850000D01*
X3520000Y19350000D02*
X3520000Y19850000D01*
X4520000Y19850000D02*
X4520000Y19350000D01*
X4520000Y19350000D02*
X3520000Y19350000D01*
G04 #@! TD*
X30205000Y10555000D02*
X31195000Y8645000D01*
X30205000Y8645000D02*
X31195000Y10555000D01*
X2505000Y23355000D02*
X3495000Y21445000D01*
X2505000Y21445000D02*
X3495000Y23355000D01*
X2505000Y26555000D02*
X3495000Y24645000D01*
X2505000Y24645000D02*
X3495000Y26555000D01*
X36225000Y5175000D02*
X42365000Y2025000D01*
X36225000Y2025000D02*
X42365000Y5175000D01*
X34325000Y4005000D02*
X36275000Y595000D01*
X34325000Y595000D02*
X36275000Y4005000D01*
X14175000Y26675000D02*
X17325000Y23025000D01*
X14175000Y23025000D02*
X17325000Y26675000D01*
X12905000Y23455000D02*
X13895000Y21545000D01*
X12905000Y21545000D02*
X13895000Y23455000D01*
M02*
