G04 #@! TF.GenerationSoftware,KiCad,Pcbnew,9.0.1-9.0.1-0~ubuntu22.04.1*
G04 #@! TF.CreationDate,2025-04-13T11:09:06-04:00*
G04 #@! TF.ProjectId,TTExperimentModule,54544578-7065-4726-996d-656e744d6f64,1.0*
G04 #@! TF.SameCoordinates,PX10e4380PY2d07198*
G04 #@! TF.FileFunction,Copper,L4,Bot*
G04 #@! TF.FilePolarity,Positive*
%FSLAX46Y46*%
G04 Gerber Fmt 4.6, Leading zero omitted, Abs format (unit mm)*
G04 Created by KiCad (PCBNEW 9.0.1-9.0.1-0~ubuntu22.04.1) date 2025-04-13 11:09:06*
%MOMM*%
%LPD*%
G01*
G04 APERTURE LIST*
%ADD10C,0.200000*%
G04 #@! TA.AperFunction,NonConductor*
%ADD11C,0.200000*%
G04 #@! TD*
G04 #@! TA.AperFunction,ComponentPad*
%ADD12C,0.620000*%
G04 #@! TD*
G04 #@! TA.AperFunction,ComponentPad*
%ADD13R,1.000000X1.000000*%
G04 #@! TD*
G04 #@! TA.AperFunction,ComponentPad*
%ADD14C,1.000000*%
G04 #@! TD*
G04 #@! TA.AperFunction,ComponentPad*
%ADD15C,1.524000*%
G04 #@! TD*
G04 #@! TA.AperFunction,ComponentPad*
%ADD16C,4.000000*%
G04 #@! TD*
G04 #@! TA.AperFunction,ComponentPad*
%ADD17R,1.700000X1.700000*%
G04 #@! TD*
G04 #@! TA.AperFunction,ComponentPad*
%ADD18C,1.700000*%
G04 #@! TD*
G04 #@! TA.AperFunction,ComponentPad*
%ADD19O,1.000000X1.000000*%
G04 #@! TD*
G04 #@! TA.AperFunction,ViaPad*
%ADD20C,0.800000*%
G04 #@! TD*
G04 #@! TA.AperFunction,ViaPad*
%ADD21C,0.650000*%
G04 #@! TD*
G04 #@! TA.AperFunction,ViaPad*
%ADD22C,0.600000*%
G04 #@! TD*
G04 #@! TA.AperFunction,Conductor*
%ADD23C,0.200000*%
G04 #@! TD*
G04 #@! TA.AperFunction,Conductor*
%ADD24C,0.350000*%
G04 #@! TD*
G04 #@! TA.AperFunction,Conductor*
%ADD25C,0.250000*%
G04 #@! TD*
G04 #@! TA.AperFunction,Conductor*
%ADD26C,0.160000*%
G04 #@! TD*
G04 #@! TA.AperFunction,Conductor*
%ADD27C,0.300000*%
G04 #@! TD*
G04 APERTURE END LIST*
D10*
D11*
X39664911Y-2358361D02*
X39664911Y-2891695D01*
X39474435Y-2053600D02*
X39283958Y-2625028D01*
X39283958Y-2625028D02*
X39779197Y-2625028D01*
X40922054Y-3196457D02*
X40883959Y-3158361D01*
X40883959Y-3158361D02*
X40807768Y-3044076D01*
X40807768Y-3044076D02*
X40769673Y-2967885D01*
X40769673Y-2967885D02*
X40731578Y-2853600D01*
X40731578Y-2853600D02*
X40693483Y-2663123D01*
X40693483Y-2663123D02*
X40693483Y-2510742D01*
X40693483Y-2510742D02*
X40731578Y-2320266D01*
X40731578Y-2320266D02*
X40769673Y-2205980D01*
X40769673Y-2205980D02*
X40807768Y-2129790D01*
X40807768Y-2129790D02*
X40883959Y-2015504D01*
X40883959Y-2015504D02*
X40922054Y-1977409D01*
X41226816Y-2891695D02*
X41226816Y-2091695D01*
X41226816Y-2396457D02*
X41303006Y-2358361D01*
X41303006Y-2358361D02*
X41455387Y-2358361D01*
X41455387Y-2358361D02*
X41531578Y-2396457D01*
X41531578Y-2396457D02*
X41569673Y-2434552D01*
X41569673Y-2434552D02*
X41607768Y-2510742D01*
X41607768Y-2510742D02*
X41607768Y-2739314D01*
X41607768Y-2739314D02*
X41569673Y-2815504D01*
X41569673Y-2815504D02*
X41531578Y-2853600D01*
X41531578Y-2853600D02*
X41455387Y-2891695D01*
X41455387Y-2891695D02*
X41303006Y-2891695D01*
X41303006Y-2891695D02*
X41226816Y-2853600D01*
X42064911Y-2891695D02*
X41988721Y-2853600D01*
X41988721Y-2853600D02*
X41950626Y-2815504D01*
X41950626Y-2815504D02*
X41912530Y-2739314D01*
X41912530Y-2739314D02*
X41912530Y-2510742D01*
X41912530Y-2510742D02*
X41950626Y-2434552D01*
X41950626Y-2434552D02*
X41988721Y-2396457D01*
X41988721Y-2396457D02*
X42064911Y-2358361D01*
X42064911Y-2358361D02*
X42179197Y-2358361D01*
X42179197Y-2358361D02*
X42255388Y-2396457D01*
X42255388Y-2396457D02*
X42293483Y-2434552D01*
X42293483Y-2434552D02*
X42331578Y-2510742D01*
X42331578Y-2510742D02*
X42331578Y-2739314D01*
X42331578Y-2739314D02*
X42293483Y-2815504D01*
X42293483Y-2815504D02*
X42255388Y-2853600D01*
X42255388Y-2853600D02*
X42179197Y-2891695D01*
X42179197Y-2891695D02*
X42064911Y-2891695D01*
X42560150Y-2358361D02*
X42864912Y-2358361D01*
X42674436Y-2091695D02*
X42674436Y-2777409D01*
X42674436Y-2777409D02*
X42712531Y-2853600D01*
X42712531Y-2853600D02*
X42788721Y-2891695D01*
X42788721Y-2891695D02*
X42864912Y-2891695D01*
X43017293Y-2358361D02*
X43322055Y-2358361D01*
X43131579Y-2091695D02*
X43131579Y-2777409D01*
X43131579Y-2777409D02*
X43169674Y-2853600D01*
X43169674Y-2853600D02*
X43245864Y-2891695D01*
X43245864Y-2891695D02*
X43322055Y-2891695D01*
X43703007Y-2891695D02*
X43626817Y-2853600D01*
X43626817Y-2853600D02*
X43588722Y-2815504D01*
X43588722Y-2815504D02*
X43550626Y-2739314D01*
X43550626Y-2739314D02*
X43550626Y-2510742D01*
X43550626Y-2510742D02*
X43588722Y-2434552D01*
X43588722Y-2434552D02*
X43626817Y-2396457D01*
X43626817Y-2396457D02*
X43703007Y-2358361D01*
X43703007Y-2358361D02*
X43817293Y-2358361D01*
X43817293Y-2358361D02*
X43893484Y-2396457D01*
X43893484Y-2396457D02*
X43931579Y-2434552D01*
X43931579Y-2434552D02*
X43969674Y-2510742D01*
X43969674Y-2510742D02*
X43969674Y-2739314D01*
X43969674Y-2739314D02*
X43931579Y-2815504D01*
X43931579Y-2815504D02*
X43893484Y-2853600D01*
X43893484Y-2853600D02*
X43817293Y-2891695D01*
X43817293Y-2891695D02*
X43703007Y-2891695D01*
X44312532Y-2891695D02*
X44312532Y-2358361D01*
X44312532Y-2434552D02*
X44350627Y-2396457D01*
X44350627Y-2396457D02*
X44426817Y-2358361D01*
X44426817Y-2358361D02*
X44541103Y-2358361D01*
X44541103Y-2358361D02*
X44617294Y-2396457D01*
X44617294Y-2396457D02*
X44655389Y-2472647D01*
X44655389Y-2472647D02*
X44655389Y-2891695D01*
X44655389Y-2472647D02*
X44693484Y-2396457D01*
X44693484Y-2396457D02*
X44769675Y-2358361D01*
X44769675Y-2358361D02*
X44883960Y-2358361D01*
X44883960Y-2358361D02*
X44960151Y-2396457D01*
X44960151Y-2396457D02*
X44998246Y-2472647D01*
X44998246Y-2472647D02*
X44998246Y-2891695D01*
X45303008Y-3196457D02*
X45341103Y-3158361D01*
X45341103Y-3158361D02*
X45417294Y-3044076D01*
X45417294Y-3044076D02*
X45455389Y-2967885D01*
X45455389Y-2967885D02*
X45493484Y-2853600D01*
X45493484Y-2853600D02*
X45531580Y-2663123D01*
X45531580Y-2663123D02*
X45531580Y-2510742D01*
X45531580Y-2510742D02*
X45493484Y-2320266D01*
X45493484Y-2320266D02*
X45455389Y-2205980D01*
X45455389Y-2205980D02*
X45417294Y-2129790D01*
X45417294Y-2129790D02*
X45341103Y-2015504D01*
X45341103Y-2015504D02*
X45303008Y-1977409D01*
D12*
G04 #@! TO.P,STITCH1,1*
G04 #@! TO.N,GND*
X29100000Y25450000D03*
G04 #@! TD*
D13*
G04 #@! TO.P,J5,1,Pin_1*
G04 #@! TO.N,GND*
X41200000Y3600000D03*
D14*
G04 #@! TO.P,J5,2,Pin_2*
G04 #@! TO.N,/~{ctrl_sel_rst}*
X39930000Y3600000D03*
G04 #@! TO.P,J5,3,Pin_3*
G04 #@! TO.N,/ctrl_sel_inc*
X38660000Y3600000D03*
G04 #@! TO.P,J5,4,Pin_4*
G04 #@! TO.N,/ctrl_ena*
X37390000Y3600000D03*
G04 #@! TD*
D12*
G04 #@! TO.P,STITCH1,1*
G04 #@! TO.N,GND*
X29200000Y27400000D03*
G04 #@! TD*
G04 #@! TO.P,STITCH1,1*
G04 #@! TO.N,GND*
X20150000Y18000000D03*
G04 #@! TD*
G04 #@! TO.P,STITCH1,1*
G04 #@! TO.N,GND*
X4750000Y17900000D03*
G04 #@! TD*
G04 #@! TO.P,STITCH1,1*
G04 #@! TO.N,GND*
X3850000Y3050000D03*
G04 #@! TD*
D15*
G04 #@! TO.P,PCB1,1,VDD*
G04 #@! TO.N,/vin1*
X0Y27000000D03*
G04 #@! TO.P,PCB1,2,SCL*
G04 #@! TO.N,SCL1*
X0Y19000000D03*
G04 #@! TO.P,PCB1,3,SDA*
G04 #@! TO.N,SDA1*
X0Y11000000D03*
G04 #@! TO.P,PCB1,4,GND*
G04 #@! TO.N,GND*
X0Y3000000D03*
G04 #@! TO.P,PCB1,5,GND*
X45000000Y3000000D03*
G04 #@! TO.P,PCB1,6,SDA*
G04 #@! TO.N,unconnected-(PCB1-SDA-Pad6)*
X45000000Y11000000D03*
G04 #@! TO.P,PCB1,7,SCL*
G04 #@! TO.N,unconnected-(PCB1-SCL-Pad7)*
X45000000Y19000000D03*
G04 #@! TO.P,PCB1,8,VDD*
G04 #@! TO.N,/vin2*
X45000000Y27000000D03*
D16*
G04 #@! TO.P,PCB1,9,GND*
G04 #@! TO.N,GND*
X22500000Y15000000D03*
G04 #@! TD*
D12*
G04 #@! TO.P,STITCH1,1*
G04 #@! TO.N,GND*
X19500000Y24600000D03*
G04 #@! TD*
D17*
G04 #@! TO.P,J2,1,Pin_1*
G04 #@! TO.N,boot_mode*
X18575000Y28500000D03*
D18*
G04 #@! TO.P,J2,2,Pin_2*
G04 #@! TO.N,Net-(J2-Pin_2)*
X16035000Y28500000D03*
G04 #@! TD*
D12*
G04 #@! TO.P,STITCH1,1*
G04 #@! TO.N,GND*
X22050000Y27350000D03*
G04 #@! TD*
G04 #@! TO.P,STITCH1,1*
G04 #@! TO.N,GND*
X6650000Y1600000D03*
G04 #@! TD*
G04 #@! TO.P,STITCH1,1*
G04 #@! TO.N,GND*
X1600000Y27250000D03*
G04 #@! TD*
G04 #@! TO.P,STITCH1,1*
G04 #@! TO.N,GND*
X36500000Y24650000D03*
G04 #@! TD*
G04 #@! TO.P,STITCH1,1*
G04 #@! TO.N,GND*
X26400000Y18000000D03*
G04 #@! TD*
D13*
G04 #@! TO.P,J6,1,Pin_1*
G04 #@! TO.N,GND*
X15750000Y25500000D03*
D19*
G04 #@! TO.P,J6,2,Pin_2*
G04 #@! TO.N,/RP2040/RUN*
X15750000Y24230000D03*
G04 #@! TD*
D12*
G04 #@! TO.P,STITCH1,1*
G04 #@! TO.N,GND*
X29200000Y29050000D03*
G04 #@! TD*
G04 #@! TO.P,STITCH1,1*
G04 #@! TO.N,GND*
X19500000Y22250000D03*
G04 #@! TD*
G04 #@! TO.P,STITCH1,1*
G04 #@! TO.N,GND*
X25550000Y15850000D03*
G04 #@! TD*
G04 #@! TO.P,STITCH1,1*
G04 #@! TO.N,GND*
X7650000Y28050000D03*
G04 #@! TD*
G04 #@! TO.P,STITCH1,1*
G04 #@! TO.N,GND*
X1850000Y1600000D03*
G04 #@! TD*
G04 #@! TO.P,STITCH1,1*
G04 #@! TO.N,GND*
X22100000Y29100000D03*
G04 #@! TD*
G04 #@! TO.P,STITCH1,1*
G04 #@! TO.N,GND*
X8800000Y3150000D03*
G04 #@! TD*
G04 #@! TO.P,STITCH1,1*
G04 #@! TO.N,GND*
X38750000Y24650000D03*
G04 #@! TD*
G04 #@! TO.P,STITCH1,1*
G04 #@! TO.N,GND*
X8800000Y1500000D03*
G04 #@! TD*
D13*
G04 #@! TO.P,J1,1,Pin_1*
G04 #@! TO.N,GND*
X1750000Y5250000D03*
D14*
G04 #@! TO.P,J1,2,Pin_2*
G04 #@! TO.N,SDA1*
X1750000Y6520000D03*
G04 #@! TO.P,J1,3,Pin_3*
G04 #@! TO.N,SCL1*
X1750000Y7790000D03*
G04 #@! TD*
D12*
G04 #@! TO.P,STITCH1,1*
G04 #@! TO.N,GND*
X26400000Y22300000D03*
G04 #@! TD*
D20*
G04 #@! TO.N,+3V3*
X2900000Y1000000D03*
X28600000Y900000D03*
X13795409Y21006071D03*
X14250000Y25550000D03*
D21*
X3300000Y21200000D03*
X18700000Y11175000D03*
X32800000Y4000000D03*
X1300000Y15800000D03*
X28300000Y11100000D03*
X1326000Y12800000D03*
X12100000Y825000D03*
X4500000Y20570000D03*
X27904972Y17975000D03*
D20*
X1000000Y26000000D03*
D21*
X31927578Y17438083D03*
X28575000Y6874912D03*
D20*
X10421899Y20939701D03*
D21*
X6600000Y15000000D03*
X26225000Y6810969D03*
X20600000Y25800000D03*
X5081491Y13127756D03*
D20*
X7210000Y20670605D03*
D21*
X28600000Y3900000D03*
X30200000Y6800000D03*
D20*
X37850000Y22591034D03*
X28061835Y22300000D03*
X2000000Y26000000D03*
D21*
X7600000Y825000D03*
D22*
X12536115Y15679237D03*
D21*
G04 #@! TO.N,GND*
X43300000Y11900000D03*
X42010677Y25812535D03*
X32800000Y22200000D03*
X12300000Y9000000D03*
X44175000Y25450000D03*
X33300000Y825000D03*
D22*
X20068203Y5630254D03*
D20*
X5000000Y29100000D03*
D22*
X6786118Y15818990D03*
D21*
X39100000Y6400000D03*
X11600000Y2900000D03*
D20*
X34750000Y29100000D03*
D21*
X13850000Y6550000D03*
X42700000Y19200000D03*
X37600000Y12650000D03*
D20*
X40000000Y29100000D03*
X33250000Y28250000D03*
D21*
X33360148Y24900000D03*
X16300000Y5800000D03*
X33900000Y22200000D03*
X35000000Y15200000D03*
X35050000Y10100000D03*
D22*
X18800000Y5650000D03*
D21*
X42000000Y23700000D03*
X14500000Y14400000D03*
X38850000Y10100000D03*
X16391702Y11451362D03*
X30000000Y3875000D03*
X14800000Y27200000D03*
X39500000Y825000D03*
X28660670Y16639330D03*
X35300000Y7300000D03*
X11350000Y8050000D03*
D22*
X12700000Y16500000D03*
D21*
X12250000Y11550000D03*
D20*
X16304712Y9526362D03*
D21*
X43300000Y11300000D03*
X6600000Y4400000D03*
D20*
X4000000Y29000000D03*
D21*
X32578971Y3126220D03*
X17100000Y15300000D03*
X10600000Y11750000D03*
X10550000Y10000000D03*
D20*
X41900000Y29100000D03*
D21*
X38850000Y15200000D03*
X4275000Y10718591D03*
D20*
X39750000Y27500000D03*
D21*
X31600000Y10100000D03*
X4275000Y12728285D03*
X36650000Y6937919D03*
X3176811Y20262528D03*
X5300000Y4700000D03*
D20*
X12000000Y28250000D03*
D21*
X17300000Y25500000D03*
X30800000Y22200000D03*
X36800000Y825000D03*
X30000000Y11100000D03*
D20*
X11000000Y28100000D03*
X10505000Y25550000D03*
D21*
X43300000Y14500000D03*
X31900000Y7700000D03*
X43724000Y15000000D03*
X43724000Y13909571D03*
D20*
X13500000Y27500000D03*
D22*
X19610573Y10667008D03*
D20*
G04 #@! TO.N,+5V*
X6748140Y25550000D03*
X9484139Y25550000D03*
X6700000Y17450000D03*
X4100000Y16900000D03*
D21*
G04 #@! TO.N,/ASIC/vdda_all*
X40330000Y7200000D03*
X43462500Y20100000D03*
X31700000Y11700000D03*
X33000000Y17800000D03*
X40775000Y19500000D03*
D22*
G04 #@! TO.N,/ASIC/vccd_all*
X33800000Y7000000D03*
D21*
X31800000Y22200000D03*
D20*
X37400000Y25600000D03*
D21*
X37259365Y21815289D03*
D20*
X32400000Y25550000D03*
X42163801Y21741039D03*
D21*
G04 #@! TO.N,/RP2040/DVDD*
X6855000Y13500000D03*
X7974207Y11793360D03*
X14800000Y13600000D03*
G04 #@! TO.N,SCL1*
X9607757Y7756000D03*
G04 #@! TO.N,SDA1*
X9476500Y5471952D03*
G04 #@! TO.N,boot_mode*
X19200000Y18000000D03*
X3600000Y6200000D03*
X12725000Y17689227D03*
X4946557Y16414302D03*
D22*
X6750000Y6250000D03*
G04 #@! TO.N,/RP2040/RUN*
X13186115Y11798518D03*
X15850000Y22150000D03*
D21*
G04 #@! TO.N,/~{ctrl_sel_rst}*
X30750000Y8800000D03*
X38046002Y7228467D03*
X26100000Y9500000D03*
X27425000Y9507229D03*
G04 #@! TO.N,/ctrl_sel_inc*
X23300000Y2700000D03*
D22*
G04 #@! TO.N,/mux_sel*
X24800000Y7850000D03*
X10457804Y7548516D03*
D21*
G04 #@! TO.N,/RP2040/QSPI_SD2*
X5871117Y24441060D03*
X5891242Y8490000D03*
X12405679Y24155000D03*
G04 #@! TO.N,/RP2040/QSPI_SD3*
X8387498Y9740361D03*
X6950000Y18950000D03*
G04 #@! TO.N,/RP2040/QSPI_SD0*
X8103854Y8890601D03*
X2725000Y9244202D03*
G04 #@! TO.N,/RP2040/QSPI_SD1*
X10453156Y23548126D03*
X2250000Y23500000D03*
X4050000Y7450000D03*
X6174518Y7076541D03*
D22*
G04 #@! TO.N,/ui_in0*
X12874043Y4225000D03*
X41351000Y4600000D03*
D21*
G04 #@! TO.N,/proj_clk*
X41623017Y22926742D03*
X8200000Y3905514D03*
X8672385Y22591766D03*
D22*
X41075000Y18564279D03*
D21*
G04 #@! TO.N,/~{proj_rst}*
X8300000Y26100000D03*
D22*
X9000000Y4600000D03*
D21*
X39300000Y25700000D03*
X40200000Y20300000D03*
D22*
G04 #@! TO.N,/uio1*
X11262007Y18023789D03*
X39053914Y18378257D03*
G04 #@! TO.N,/out0_~{rst}*
X9750000Y2200000D03*
X23972370Y1850798D03*
G04 #@! TO.N,/out2_ena*
X30100000Y1000000D03*
X10900000Y1450798D03*
G04 #@! TO.N,/uo_out0*
X27200000Y24500000D03*
X34522848Y24398308D03*
G04 #@! TO.N,/out1_inc*
X26703388Y3850000D03*
X10181018Y2900000D03*
G04 #@! TO.N,/uo_out2*
X31366734Y15319461D03*
X29353453Y15350000D03*
G04 #@! TO.N,/uo_out1*
X26550000Y16550000D03*
X31997709Y15889000D03*
G04 #@! TO.N,/ui_in4*
X22506191Y3145449D03*
X22711766Y12458805D03*
X15765253Y12911368D03*
X43700000Y800000D03*
G04 #@! TO.N,/uo_out6*
X22800000Y7600000D03*
X23950000Y12461749D03*
X15750000Y6600000D03*
X30800512Y12852527D03*
G04 #@! TO.N,/ui_in3*
X14675085Y3334378D03*
X43033528Y2829025D03*
D21*
G04 #@! TO.N,/ui_in7*
X42500000Y17100000D03*
D22*
X13349000Y17143545D03*
G04 #@! TO.N,/uo_out4*
X24891687Y14272095D03*
X31670616Y14020384D03*
X15500000Y5250000D03*
X23750000Y5800000D03*
G04 #@! TO.N,/uio2*
X38543264Y19057772D03*
X11123419Y18899837D03*
G04 #@! TO.N,/uo_out5*
X30090972Y13502527D03*
X26150000Y13529270D03*
X25100000Y8600000D03*
X13062289Y7805661D03*
G04 #@! TO.N,/uio6*
X7806380Y22716926D03*
X35980000Y23701000D03*
G04 #@! TO.N,/uo_out7*
X30741214Y11960000D03*
X15186123Y12106438D03*
G04 #@! TO.N,/ui_in5*
X14616391Y15817887D03*
X20937084Y6136996D03*
X43997958Y5041657D03*
X19300000Y16000000D03*
G04 #@! TO.N,/uio0*
X14950000Y21100000D03*
X39350000Y21100000D03*
X11970000Y12400000D03*
G04 #@! TO.N,/ui_in6*
X44200000Y5867298D03*
X21694288Y6750000D03*
X14680462Y16636018D03*
X20000000Y16700000D03*
G04 #@! TO.N,/uo_out3*
X30722818Y14764594D03*
X12185757Y7848368D03*
X24650000Y9350000D03*
X25700000Y14800000D03*
G04 #@! TO.N,/ui_in2*
X13987873Y2834133D03*
X42376043Y1500000D03*
G04 #@! TO.N,/uio4*
X37557653Y20434061D03*
X10150000Y19805345D03*
G04 #@! TO.N,/uio7*
X7446397Y23453198D03*
X35235055Y24025000D03*
G04 #@! TO.N,/ui_in1*
X13142044Y2750000D03*
D21*
X41800000Y2124000D03*
D22*
X41750000Y8250000D03*
G04 #@! TO.N,/uio3*
X9997385Y18504546D03*
X37986937Y19700426D03*
G04 #@! TO.N,/uio5*
X10114498Y21823513D03*
X36390380Y21750000D03*
G04 #@! TD*
D23*
G04 #@! TO.N,+3V3*
X20099000Y26301000D02*
X14751000Y26301000D01*
D24*
X2000000Y26000000D02*
X2850000Y26850000D01*
D23*
X20600000Y25800000D02*
X20099000Y26301000D01*
D25*
X26235969Y6800000D02*
X26225000Y6810969D01*
X28300000Y11100000D02*
X28100000Y11300000D01*
X4823977Y13385270D02*
X5081491Y13127756D01*
X18825000Y11300000D02*
X18700000Y11175000D01*
X31927578Y17438083D02*
X31590661Y17775000D01*
D24*
X28061835Y22300000D02*
X28661835Y22900000D01*
X28661835Y22900000D02*
X37541034Y22900000D01*
X3930000Y20570000D02*
X3300000Y21200000D01*
D25*
X2000000Y26000000D02*
X1000000Y26000000D01*
D24*
X14250000Y25650000D02*
X14250000Y25550000D01*
D23*
X14751000Y26301000D02*
X14250000Y25800000D01*
D25*
X30200000Y6800000D02*
X26235969Y6800000D01*
X6450000Y15150000D02*
X1950000Y15150000D01*
X28104972Y17775000D02*
X27904972Y17975000D01*
D24*
X4500000Y20570000D02*
X3930000Y20570000D01*
D25*
X1785270Y13385270D02*
X4823977Y13385270D01*
D24*
X28425798Y725798D02*
X28600000Y900000D01*
D25*
X28100000Y11300000D02*
X18825000Y11300000D01*
D24*
X10421899Y20939701D02*
X10563443Y20798157D01*
X11221727Y26000000D02*
X13900000Y26000000D01*
X4500000Y20570000D02*
X7109395Y20570000D01*
X3174202Y725798D02*
X28425798Y725798D01*
X7239395Y20700000D02*
X7210000Y20670605D01*
X10421899Y20939701D02*
X10182198Y20700000D01*
X2900000Y1000000D02*
X3174202Y725798D01*
X10563443Y20798157D02*
X13587495Y20798157D01*
D25*
X31590661Y17775000D02*
X28104972Y17775000D01*
D24*
X37541034Y22900000D02*
X37850000Y22591034D01*
X10182198Y20700000D02*
X7239395Y20700000D01*
X13900000Y26000000D02*
X14250000Y25650000D01*
D23*
X14250000Y25800000D02*
X14250000Y25550000D01*
D26*
X6600000Y15000000D02*
X6858083Y15000000D01*
X6858083Y15000000D02*
X7537320Y15679237D01*
D24*
X13587495Y20798157D02*
X13795409Y21006071D01*
D26*
X7537320Y15679237D02*
X12536115Y15679237D01*
D25*
X1326000Y12926000D02*
X1785270Y13385270D01*
X6600000Y15000000D02*
X6450000Y15150000D01*
D24*
X10371727Y26850000D02*
X11221727Y26000000D01*
X7109395Y20570000D02*
X7210000Y20670605D01*
D25*
X1326000Y12800000D02*
X1326000Y12926000D01*
D24*
X2850000Y26850000D02*
X10371727Y26850000D01*
D25*
X1950000Y15150000D02*
X1300000Y15800000D01*
G04 #@! TO.N,GND*
X31600000Y10100000D02*
X27900000Y10100000D01*
X41200000Y3600000D02*
X42350000Y3600000D01*
X19777581Y10500000D02*
X19610573Y10667008D01*
X38350000Y25050000D02*
X38350000Y26350000D01*
X27900000Y10100000D02*
X27500000Y10500000D01*
X38750000Y24650000D02*
X38350000Y25050000D01*
X44100000Y3900000D02*
X45000000Y3000000D01*
X27500000Y10500000D02*
X19777581Y10500000D01*
X39500000Y27500000D02*
X39750000Y27500000D01*
X42350000Y3600000D02*
X42650000Y3900000D01*
X38350000Y26350000D02*
X39500000Y27500000D01*
X42650000Y3900000D02*
X44100000Y3900000D01*
G04 #@! TO.N,+5V*
X6350000Y17100000D02*
X6700000Y17450000D01*
X9089950Y25400000D02*
X9239950Y25550000D01*
X6748140Y25550000D02*
X6748140Y25400000D01*
X4100000Y16900000D02*
X4300000Y17100000D01*
X6748140Y25400000D02*
X9089950Y25400000D01*
X4300000Y17100000D02*
X6350000Y17100000D01*
X9239950Y25550000D02*
X9484139Y25550000D01*
G04 #@! TO.N,/ASIC/vdda_all*
X40775000Y19575000D02*
X40775000Y19500000D01*
X43462500Y20100000D02*
X41300000Y20100000D01*
X41300000Y20100000D02*
X40775000Y19575000D01*
G04 #@! TO.N,/ASIC/vccd_all*
X42163801Y21741039D02*
X42163803Y21741038D01*
D27*
X42089552Y21815289D02*
X42163803Y21741038D01*
D25*
X32500000Y25600000D02*
X32450000Y25550000D01*
D27*
X37259365Y21815289D02*
X42089552Y21815289D01*
X32500000Y25600000D02*
X37400000Y25600000D01*
D25*
X32450000Y25550000D02*
X32400000Y25550000D01*
D23*
G04 #@! TO.N,/RP2040/DVDD*
X14800000Y13600000D02*
X6955000Y13600000D01*
X6955000Y13600000D02*
X6855000Y13500000D01*
D25*
G04 #@! TO.N,SCL1*
X4975000Y7790000D02*
X9573757Y7790000D01*
X4589467Y8175533D02*
X4975000Y7790000D01*
X2135533Y8175533D02*
X4589467Y8175533D01*
X9573757Y7790000D02*
X9607757Y7756000D01*
X1750000Y7790000D02*
X2135533Y8175533D01*
G04 #@! TO.N,SDA1*
X3420174Y5389876D02*
X9394424Y5389876D01*
X1750000Y6520000D02*
X2290050Y6520000D01*
X2290050Y6520000D02*
X3420174Y5389876D01*
X9394424Y5389876D02*
X9476500Y5471952D01*
D23*
G04 #@! TO.N,boot_mode*
X6750000Y6250000D02*
X6700000Y6200000D01*
X4946557Y16414302D02*
X6265343Y16414302D01*
X12725000Y17784819D02*
X12725000Y17689227D01*
X6265343Y16414302D02*
X6551041Y16700000D01*
X6551041Y16700000D02*
X11590625Y16700000D01*
X12940181Y18000000D02*
X12725000Y17784819D01*
X19200000Y18000000D02*
X12940181Y18000000D01*
X6700000Y6200000D02*
X3600000Y6200000D01*
X12579852Y17689227D02*
X12725000Y17689227D01*
X11590625Y16700000D02*
X12579852Y17689227D01*
G04 #@! TO.N,/~{ctrl_sel_rst}*
X28282229Y8650000D02*
X30600000Y8650000D01*
X27425000Y9507229D02*
X28282229Y8650000D01*
X27417771Y9500000D02*
X26100000Y9500000D01*
X30600000Y8650000D02*
X30750000Y8800000D01*
X27425000Y9507229D02*
X27417771Y9500000D01*
G04 #@! TO.N,/mux_sel*
X21200000Y8200000D02*
X24450000Y8200000D01*
X10457804Y7548516D02*
X10850659Y7155661D01*
X13475134Y7299267D02*
X20299267Y7299267D01*
X10850659Y7155661D02*
X13331528Y7155661D01*
X13331528Y7155661D02*
X13475134Y7299267D01*
X24450000Y8200000D02*
X24800000Y7850000D01*
X20299267Y7299267D02*
X21200000Y8200000D01*
D25*
G04 #@! TO.N,/RP2040/QSPI_SD2*
X5958255Y24528198D02*
X10463034Y24528198D01*
X10463034Y24528198D02*
X10836232Y24155000D01*
X5871117Y24441060D02*
X5958255Y24528198D01*
X10836232Y24155000D02*
X12405679Y24155000D01*
D23*
G04 #@! TO.N,/RP2040/QSPI_SD0*
X7943349Y8730096D02*
X7943349Y9051106D01*
X8103854Y8890601D02*
X7943349Y8730096D01*
X2804202Y9165000D02*
X2725000Y9244202D01*
X7943349Y9051106D02*
X7829455Y9165000D01*
X7829455Y9165000D02*
X2804202Y9165000D01*
G04 #@! TO.N,/RP2040/QSPI_SD1*
X4450000Y7050000D02*
X6147977Y7050000D01*
X2250000Y23500000D02*
X2500000Y23750000D01*
X9934516Y24066766D02*
X10453156Y23548126D01*
X4050000Y7450000D02*
X4450000Y7050000D01*
X6666766Y24066766D02*
X9934516Y24066766D01*
X6147977Y7050000D02*
X6174518Y7076541D01*
X2500000Y23750000D02*
X6350000Y23750000D01*
X6350000Y23750000D02*
X6666766Y24066766D01*
G04 #@! TO.N,/ui_in0*
X24811236Y5175000D02*
X21600000Y5175000D01*
X13249043Y4600000D02*
X12874043Y4225000D01*
X41351000Y4600000D02*
X41251000Y4700000D01*
X41251000Y4700000D02*
X25286236Y4700000D01*
X25286236Y4700000D02*
X24811236Y5175000D01*
X21025000Y4600000D02*
X13249043Y4600000D01*
X21600000Y5175000D02*
X21025000Y4600000D01*
G04 #@! TO.N,/uio1*
X11262007Y18023789D02*
X11888218Y18650000D01*
X28184567Y18650000D02*
X28384567Y18450000D01*
X38982171Y18450000D02*
X39053914Y18378257D01*
X28384567Y18450000D02*
X38982171Y18450000D01*
X11888218Y18650000D02*
X28184567Y18650000D01*
G04 #@! TO.N,/out0_~{rst}*
X11258630Y2011407D02*
X11169239Y2100798D01*
X23972370Y1850798D02*
X23972370Y2011407D01*
X11169239Y2100798D02*
X9849202Y2100798D01*
X23972370Y2011407D02*
X11258630Y2011407D01*
X9849202Y2100798D02*
X9750000Y2200000D01*
G04 #@! TO.N,/out2_ena*
X23703131Y1200798D02*
X23378929Y1525000D01*
X27851000Y1601000D02*
X27450798Y1200798D01*
X10974202Y1525000D02*
X10900000Y1450798D01*
X29499000Y1601000D02*
X27851000Y1601000D01*
X27450798Y1200798D02*
X23703131Y1200798D01*
X23378929Y1525000D02*
X10974202Y1525000D01*
X30100000Y1000000D02*
X29499000Y1601000D01*
G04 #@! TO.N,/uo_out0*
X34566878Y24354278D02*
X34522848Y24398308D01*
X27200000Y24450000D02*
X27400000Y24250000D01*
X27250000Y24250000D02*
X27400000Y24250000D01*
X34566878Y24285451D02*
X34566878Y24354278D01*
X34531427Y24250000D02*
X34566878Y24285451D01*
X27200000Y24500000D02*
X27200000Y24450000D01*
X27400000Y24250000D02*
X34531427Y24250000D01*
G04 #@! TO.N,/out1_inc*
X21400000Y4200000D02*
X14555518Y4200000D01*
X13930518Y3575000D02*
X10856018Y3575000D01*
X25500000Y3850000D02*
X24575000Y4775000D01*
X26703388Y3850000D02*
X25500000Y3850000D01*
X10856018Y3575000D02*
X10181018Y2900000D01*
X21975000Y4775000D02*
X21400000Y4200000D01*
X24575000Y4775000D02*
X21975000Y4775000D01*
X14555518Y4200000D02*
X13930518Y3575000D01*
G04 #@! TO.N,/uo_out2*
X31286195Y15400000D02*
X29403453Y15400000D01*
X29403453Y15400000D02*
X29353453Y15350000D01*
X31366734Y15319461D02*
X31286195Y15400000D01*
G04 #@! TO.N,/uo_out1*
X26854325Y16550000D02*
X26550000Y16550000D01*
X31997709Y15889000D02*
X31886709Y16000000D01*
X31886709Y16000000D02*
X27404325Y16000000D01*
X27404325Y16000000D02*
X26854325Y16550000D01*
G04 #@! TO.N,/ui_in4*
X22570571Y12600000D02*
X16076621Y12600000D01*
X40625000Y800000D02*
X43700000Y800000D01*
X22760742Y3400000D02*
X23600000Y3400000D01*
X16076621Y12600000D02*
X15765253Y12911368D01*
X22506191Y3145449D02*
X22760742Y3400000D01*
X30075000Y2300000D02*
X30875000Y1500000D01*
X30875000Y1500000D02*
X39925000Y1500000D01*
X24700000Y2300000D02*
X30075000Y2300000D01*
X39925000Y1500000D02*
X40625000Y800000D01*
X23600000Y3400000D02*
X24700000Y2300000D01*
X22711766Y12458805D02*
X22570571Y12600000D01*
G04 #@! TO.N,/uo_out6*
X21480849Y7600000D02*
X20480849Y6600000D01*
X22800000Y7600000D02*
X21480849Y7600000D01*
X23950000Y12461749D02*
X30409734Y12461749D01*
X20480849Y6600000D02*
X15750000Y6600000D01*
X30409734Y12461749D02*
X30800512Y12852527D01*
G04 #@! TO.N,/ui_in3*
X41125000Y2500000D02*
X41425000Y2800000D01*
X14675085Y3334378D02*
X21134378Y3334378D01*
X25350000Y3200000D02*
X31500000Y3200000D01*
X22175000Y4375000D02*
X24175000Y4375000D01*
X41425000Y2800000D02*
X43004503Y2800000D01*
X21134378Y3334378D02*
X22175000Y4375000D01*
X32200000Y2500000D02*
X41125000Y2500000D01*
X31500000Y3200000D02*
X32200000Y2500000D01*
X24175000Y4375000D02*
X25350000Y3200000D01*
X43004503Y2800000D02*
X43033528Y2829025D01*
G04 #@! TO.N,/ui_in7*
X42500000Y17100000D02*
X42125000Y16725000D01*
X29435670Y17314330D02*
X13519785Y17314330D01*
X13519785Y17314330D02*
X13349000Y17143545D01*
X30025000Y16725000D02*
X29435670Y17314330D01*
X42125000Y16725000D02*
X30025000Y16725000D01*
G04 #@! TO.N,/uo_out4*
X24891687Y14272095D02*
X25011255Y14152527D01*
X15749000Y5001000D02*
X20626000Y5001000D01*
X31538473Y14152527D02*
X31670616Y14020384D01*
X15500000Y5250000D02*
X15749000Y5001000D01*
X21225000Y5600000D02*
X23550000Y5600000D01*
X25011255Y14152527D02*
X31538473Y14152527D01*
X20626000Y5001000D02*
X21225000Y5600000D01*
X23550000Y5600000D02*
X23750000Y5800000D01*
G04 #@! TO.N,/uio2*
X38535492Y19050000D02*
X38543264Y19057772D01*
X11273582Y19050000D02*
X38535492Y19050000D01*
X11123419Y18899837D02*
X11273582Y19050000D01*
G04 #@! TO.N,/uo_out5*
X25100000Y8600000D02*
X13757050Y8600000D01*
X30088627Y13504872D02*
X26174398Y13504872D01*
X13062289Y7905239D02*
X13062289Y7805661D01*
X26174398Y13504872D02*
X26150000Y13529270D01*
X13757050Y8600000D02*
X13062289Y7905239D01*
X30090972Y13502527D02*
X30088627Y13504872D01*
G04 #@! TO.N,/uio6*
X35654000Y23375000D02*
X19475000Y23375000D01*
X11265281Y22750000D02*
X10988794Y22473513D01*
X9923171Y22473513D02*
X9171687Y23224997D01*
X9171687Y23224997D02*
X8314451Y23224997D01*
X10988794Y22473513D02*
X9923171Y22473513D01*
X35980000Y23701000D02*
X35654000Y23375000D01*
X8314451Y23224997D02*
X7806380Y22716926D01*
X19475000Y23375000D02*
X18850000Y22750000D01*
X18850000Y22750000D02*
X11265281Y22750000D01*
G04 #@! TO.N,/uo_out7*
X16691221Y12106438D02*
X15186123Y12106438D01*
X22176332Y12075000D02*
X16722659Y12075000D01*
X22401332Y11850000D02*
X22176332Y12075000D01*
X30631214Y11850000D02*
X22401332Y11850000D01*
X30741214Y11960000D02*
X30631214Y11850000D01*
X16722659Y12075000D02*
X16691221Y12106438D01*
G04 #@! TO.N,/ui_in5*
X25307083Y5350000D02*
X43689615Y5350000D01*
X14616391Y15916391D02*
X14616391Y15817887D01*
X43689615Y5350000D02*
X43997958Y5041657D01*
X23025001Y6475001D02*
X24182083Y6475001D01*
X24182083Y6475001D02*
X25307083Y5350000D01*
X22686996Y6136996D02*
X23025001Y6475001D01*
X20937084Y6136996D02*
X22686996Y6136996D01*
X19300000Y16000000D02*
X14700000Y16000000D01*
X14700000Y16000000D02*
X14616391Y15916391D01*
G04 #@! TO.N,/uio0*
X14950000Y21100000D02*
X39350000Y21100000D01*
G04 #@! TO.N,/ui_in6*
X19951000Y16651000D02*
X14695444Y16651000D01*
X43797958Y5750000D02*
X43915256Y5867298D01*
X24347768Y6875001D02*
X25472769Y5750000D01*
X14695444Y16651000D02*
X14680462Y16636018D01*
X21694288Y6750000D02*
X21819289Y6875001D01*
X25472769Y5750000D02*
X43797958Y5750000D01*
X20000000Y16700000D02*
X19951000Y16651000D01*
X21819289Y6875001D02*
X24347768Y6875001D01*
X43915256Y5867298D02*
X44200000Y5867298D01*
G04 #@! TO.N,/uo_out3*
X29622692Y14700000D02*
X29722692Y14800000D01*
X25800000Y14700000D02*
X29622692Y14700000D01*
X29722692Y14800000D02*
X30687412Y14800000D01*
X25700000Y14800000D02*
X25900000Y14800000D01*
X30687412Y14800000D02*
X30722818Y14764594D01*
X25750000Y14750000D02*
X25800000Y14700000D01*
G04 #@! TO.N,/ui_in2*
X41137757Y1412243D02*
X42288286Y1412243D01*
X42288286Y1412243D02*
X42376043Y1500000D01*
X22426415Y3975000D02*
X23825000Y3975000D01*
X23825000Y3975000D02*
X25000000Y2800000D01*
X14122006Y2700000D02*
X21151415Y2700000D01*
X31700000Y1900000D02*
X40650000Y1900000D01*
X25000000Y2800000D02*
X30800000Y2800000D01*
X13987873Y2834133D02*
X14122006Y2700000D01*
X40650000Y1900000D02*
X41137757Y1412243D01*
X21151415Y2700000D02*
X22426415Y3975000D01*
X30800000Y2800000D02*
X31700000Y1900000D01*
G04 #@! TO.N,/uio4*
X10150000Y19805345D02*
X10392812Y20048157D01*
X10392812Y20048157D02*
X37171749Y20048157D01*
X37171749Y20048157D02*
X37557653Y20434061D01*
G04 #@! TO.N,/uio7*
X10843033Y22893438D02*
X10088235Y22893438D01*
X7618199Y23625000D02*
X7446397Y23453198D01*
X18342744Y23775000D02*
X17766744Y23199000D01*
X9356673Y23625000D02*
X7618199Y23625000D01*
X11148595Y23199000D02*
X10843033Y22893438D01*
X10088235Y22893438D02*
X9356673Y23625000D01*
X34985055Y23775000D02*
X18342744Y23775000D01*
X35235055Y24025000D02*
X34985055Y23775000D01*
X17766744Y23199000D02*
X11148595Y23199000D01*
G04 #@! TO.N,/uio3*
X10972102Y19599999D02*
X37886510Y19599999D01*
X9997385Y18504546D02*
X9997385Y18625282D01*
X9997385Y18625282D02*
X10972102Y19599999D01*
X37886510Y19599999D02*
X37986937Y19700426D01*
G04 #@! TO.N,/uio5*
X36188537Y21548157D02*
X36390380Y21750000D01*
X15421082Y21548157D02*
X36188537Y21548157D01*
X10114498Y21823513D02*
X10190985Y21900000D01*
X15069239Y21900000D02*
X15421082Y21548157D01*
X10190985Y21900000D02*
X15069239Y21900000D01*
G04 #@! TD*
G04 #@! TA.AperFunction,Conductor*
G04 #@! TO.N,GND*
G36*
X6070699Y13143411D02*
G01*
X6127371Y13102544D01*
X6132548Y13095365D01*
X6213791Y12973775D01*
X6328771Y12858795D01*
X6328779Y12858789D01*
X6463976Y12768453D01*
X6463980Y12768451D01*
X6576433Y12721872D01*
X6614211Y12706224D01*
X6614215Y12706224D01*
X6614216Y12706223D01*
X6773692Y12674500D01*
X6773695Y12674500D01*
X6936307Y12674500D01*
X7087926Y12704660D01*
X7095789Y12706224D01*
X7246021Y12768452D01*
X7246023Y12768453D01*
X7366929Y12849240D01*
X7381225Y12858792D01*
X7432722Y12910289D01*
X7485615Y12963181D01*
X7546938Y12996666D01*
X7573296Y12999500D01*
X11175832Y12999500D01*
X11242871Y12979815D01*
X11288626Y12927011D01*
X11298570Y12857853D01*
X11278933Y12806608D01*
X11260610Y12779188D01*
X11260602Y12779173D01*
X11200264Y12633502D01*
X11200261Y12633490D01*
X11169500Y12478847D01*
X11169500Y12321154D01*
X11200261Y12166511D01*
X11200264Y12166499D01*
X11260602Y12020828D01*
X11260609Y12020815D01*
X11348210Y11889712D01*
X11348213Y11889708D01*
X11459707Y11778214D01*
X11459711Y11778211D01*
X11590814Y11690610D01*
X11590827Y11690603D01*
X11660621Y11661694D01*
X11736503Y11630263D01*
X11891153Y11599501D01*
X11891156Y11599500D01*
X11891158Y11599500D01*
X12048844Y11599500D01*
X12048845Y11599501D01*
X12203497Y11630263D01*
X12248636Y11648961D01*
X12318103Y11656429D01*
X12380582Y11625155D01*
X12414746Y11570400D01*
X12416378Y11565019D01*
X12476717Y11419346D01*
X12476724Y11419333D01*
X12564325Y11288230D01*
X12564328Y11288226D01*
X12675822Y11176732D01*
X12675826Y11176729D01*
X12806929Y11089128D01*
X12806942Y11089121D01*
X12952613Y11028783D01*
X12952618Y11028781D01*
X13099390Y10999586D01*
X13107268Y10998019D01*
X13107271Y10998018D01*
X13107273Y10998018D01*
X13264959Y10998018D01*
X13264960Y10998019D01*
X13419612Y11028781D01*
X13565294Y11089124D01*
X13696404Y11176729D01*
X13807904Y11288229D01*
X13895509Y11419339D01*
X13955852Y11565021D01*
X13986615Y11719676D01*
X13986615Y11877360D01*
X13986615Y11877363D01*
X13986614Y11877365D01*
X13969584Y11962981D01*
X13955852Y12032015D01*
X13940760Y12068451D01*
X13895512Y12177691D01*
X13895505Y12177704D01*
X13807904Y12308807D01*
X13807901Y12308811D01*
X13696407Y12420305D01*
X13696403Y12420308D01*
X13565300Y12507909D01*
X13565287Y12507916D01*
X13419616Y12568254D01*
X13419604Y12568257D01*
X13264960Y12599018D01*
X13264957Y12599018D01*
X13107273Y12599018D01*
X13107270Y12599018D01*
X12952625Y12568257D01*
X12952618Y12568255D01*
X12907478Y12549558D01*
X12900532Y12548812D01*
X12894647Y12545051D01*
X12866246Y12545127D01*
X12838008Y12542091D01*
X12831762Y12545218D01*
X12824778Y12545236D01*
X12800928Y12560653D01*
X12775530Y12573366D01*
X12770554Y12580286D01*
X12766100Y12583165D01*
X12758337Y12597276D01*
X12747097Y12612907D01*
X12741281Y12625730D01*
X12739737Y12633497D01*
X12679394Y12779179D01*
X12655429Y12815045D01*
X12651238Y12824287D01*
X12647717Y12849240D01*
X12640188Y12873285D01*
X12642920Y12883245D01*
X12641477Y12893472D01*
X12652006Y12916368D01*
X12658672Y12940666D01*
X12666355Y12947568D01*
X12670670Y12956950D01*
X12691903Y12970517D01*
X12710650Y12987356D01*
X12722449Y12990034D01*
X12729548Y12994569D01*
X12742288Y12994536D01*
X12764168Y12999500D01*
X14181704Y12999500D01*
X14248743Y12979815D01*
X14269385Y12963181D01*
X14273771Y12958795D01*
X14273779Y12958789D01*
X14408976Y12868453D01*
X14408980Y12868451D01*
X14487243Y12836034D01*
X14525374Y12820240D01*
X14579778Y12776400D01*
X14601843Y12710106D01*
X14584564Y12642406D01*
X14565611Y12618006D01*
X14564340Y12616736D01*
X14564333Y12616727D01*
X14476732Y12485624D01*
X14476725Y12485611D01*
X14416387Y12339940D01*
X14416384Y12339928D01*
X14385623Y12185285D01*
X14385623Y12027592D01*
X14416384Y11872949D01*
X14416387Y11872937D01*
X14476725Y11727266D01*
X14476732Y11727253D01*
X14564333Y11596150D01*
X14564336Y11596146D01*
X14675830Y11484652D01*
X14675834Y11484649D01*
X14806937Y11397048D01*
X14806950Y11397041D01*
X14952621Y11336703D01*
X14952626Y11336701D01*
X15091983Y11308981D01*
X15107276Y11305939D01*
X15107279Y11305938D01*
X15107281Y11305938D01*
X15264967Y11305938D01*
X15264968Y11305939D01*
X15419620Y11336701D01*
X15565302Y11397044D01*
X15598679Y11419346D01*
X15696998Y11485040D01*
X15763676Y11505918D01*
X15765889Y11505938D01*
X16509946Y11505938D01*
X16542039Y11501713D01*
X16557168Y11497660D01*
X16643602Y11474499D01*
X16643604Y11474499D01*
X16809312Y11474499D01*
X16809328Y11474500D01*
X17766807Y11474500D01*
X17833846Y11454815D01*
X17879601Y11402011D01*
X17889545Y11332853D01*
X17888424Y11326309D01*
X17874500Y11256310D01*
X17874500Y11256305D01*
X17874500Y11093695D01*
X17874500Y11093693D01*
X17874499Y11093693D01*
X17906222Y10934217D01*
X17906225Y10934207D01*
X17968450Y10783981D01*
X17968452Y10783977D01*
X18058788Y10648780D01*
X18058794Y10648772D01*
X18173771Y10533795D01*
X18173779Y10533789D01*
X18308976Y10443453D01*
X18308980Y10443451D01*
X18458368Y10381573D01*
X18459211Y10381224D01*
X18459215Y10381224D01*
X18459216Y10381223D01*
X18618692Y10349500D01*
X18618695Y10349500D01*
X18781307Y10349500D01*
X18888598Y10370843D01*
X18940789Y10381224D01*
X19091021Y10443452D01*
X19091023Y10443453D01*
X19199618Y10516014D01*
X19226225Y10533792D01*
X19266213Y10573780D01*
X19330615Y10638181D01*
X19391938Y10671666D01*
X19418296Y10674500D01*
X27525210Y10674500D01*
X27526236Y10674199D01*
X27527269Y10674483D01*
X27559705Y10664371D01*
X27592249Y10654815D01*
X27593284Y10653903D01*
X27593973Y10653688D01*
X27597306Y10650359D01*
X27620258Y10630135D01*
X27624582Y10624975D01*
X27658792Y10573775D01*
X27712359Y10520208D01*
X27715873Y10516014D01*
X27727758Y10488802D01*
X27741991Y10462737D01*
X27741590Y10457134D01*
X27743839Y10451985D01*
X27739125Y10422669D01*
X27737007Y10393045D01*
X27733639Y10388547D01*
X27732748Y10383002D01*
X27712934Y10360889D01*
X27695135Y10337112D01*
X27689871Y10335149D01*
X27686123Y10330965D01*
X27657494Y10323073D01*
X27629671Y10312695D01*
X27621667Y10313196D01*
X27618766Y10312396D01*
X27614828Y10313624D01*
X27596634Y10314762D01*
X27506308Y10332729D01*
X27506305Y10332729D01*
X27343695Y10332729D01*
X27343693Y10332729D01*
X27184216Y10301007D01*
X27184206Y10301004D01*
X27033980Y10238779D01*
X27033976Y10238777D01*
X26898779Y10148441D01*
X26898771Y10148435D01*
X26887156Y10136819D01*
X26860228Y10122116D01*
X26834410Y10105523D01*
X26828209Y10104632D01*
X26825833Y10103334D01*
X26799475Y10100500D01*
X26718296Y10100500D01*
X26651257Y10120185D01*
X26630615Y10136819D01*
X26626228Y10141206D01*
X26626220Y10141212D01*
X26491023Y10231548D01*
X26491019Y10231550D01*
X26340793Y10293775D01*
X26340783Y10293778D01*
X26181307Y10325500D01*
X26181305Y10325500D01*
X26018695Y10325500D01*
X26018693Y10325500D01*
X25859216Y10293778D01*
X25859206Y10293775D01*
X25708980Y10231550D01*
X25708976Y10231548D01*
X25573779Y10141212D01*
X25573771Y10141206D01*
X25458794Y10026229D01*
X25458789Y10026223D01*
X25401366Y9940284D01*
X25347754Y9895480D01*
X25278429Y9886773D01*
X25215402Y9916928D01*
X25210584Y9921495D01*
X25160292Y9971787D01*
X25160288Y9971790D01*
X25029185Y10059391D01*
X25029172Y10059398D01*
X24883501Y10119736D01*
X24883489Y10119739D01*
X24728845Y10150500D01*
X24728842Y10150500D01*
X24571158Y10150500D01*
X24571155Y10150500D01*
X24416510Y10119739D01*
X24416498Y10119736D01*
X24270827Y10059398D01*
X24270814Y10059391D01*
X24139711Y9971790D01*
X24139707Y9971787D01*
X24028213Y9860293D01*
X24028210Y9860289D01*
X23940609Y9729186D01*
X23940602Y9729173D01*
X23880264Y9583502D01*
X23880261Y9583490D01*
X23849500Y9428847D01*
X23849500Y9324500D01*
X23829815Y9257461D01*
X23777011Y9211706D01*
X23725500Y9200500D01*
X13677991Y9200500D01*
X13642615Y9191022D01*
X13642616Y9191021D01*
X13525264Y9159577D01*
X13525259Y9159574D01*
X13388340Y9080525D01*
X13388332Y9080519D01*
X13276528Y8968714D01*
X12923323Y8615510D01*
X12877689Y8586537D01*
X12868946Y8583386D01*
X12828792Y8575398D01*
X12708178Y8525439D01*
X12705444Y8524453D01*
X12673358Y8522515D01*
X12641379Y8519077D01*
X12638134Y8520388D01*
X12635701Y8520240D01*
X12628489Y8524282D01*
X12594507Y8538004D01*
X12564940Y8557760D01*
X12564929Y8557766D01*
X12419258Y8618104D01*
X12419246Y8618107D01*
X12264602Y8648868D01*
X12264599Y8648868D01*
X12106915Y8648868D01*
X12106912Y8648868D01*
X11952267Y8618107D01*
X11952255Y8618104D01*
X11806584Y8557766D01*
X11806571Y8557759D01*
X11675468Y8470158D01*
X11675464Y8470155D01*
X11563970Y8358661D01*
X11563967Y8358657D01*
X11476366Y8227554D01*
X11476359Y8227541D01*
X11416021Y8081870D01*
X11416018Y8081860D01*
X11393710Y7969711D01*
X11361325Y7907800D01*
X11300609Y7873226D01*
X11230839Y7876967D01*
X11174168Y7917833D01*
X11168991Y7925012D01*
X11079593Y8058805D01*
X11079590Y8058809D01*
X10968096Y8170303D01*
X10968092Y8170306D01*
X10836989Y8257907D01*
X10836976Y8257914D01*
X10691305Y8318252D01*
X10691293Y8318255D01*
X10536649Y8349016D01*
X10536646Y8349016D01*
X10378962Y8349016D01*
X10378957Y8349016D01*
X10279829Y8329298D01*
X10210238Y8335525D01*
X10167957Y8363234D01*
X10133985Y8397206D01*
X10133977Y8397212D01*
X9998780Y8487548D01*
X9998776Y8487550D01*
X9848550Y8549775D01*
X9848540Y8549778D01*
X9689064Y8581500D01*
X9689062Y8581500D01*
X9526452Y8581500D01*
X9526450Y8581500D01*
X9366973Y8549778D01*
X9366963Y8549775D01*
X9216738Y8487550D01*
X9190710Y8470158D01*
X9140183Y8436398D01*
X9122138Y8430748D01*
X9106229Y8420523D01*
X9075269Y8416072D01*
X9073508Y8415520D01*
X9071294Y8415500D01*
X8986154Y8415500D01*
X8919115Y8435185D01*
X8873360Y8487989D01*
X8863416Y8557147D01*
X8871593Y8586952D01*
X8889081Y8629173D01*
X8897630Y8649812D01*
X8917967Y8752051D01*
X8929354Y8809294D01*
X8929354Y8971906D01*
X8918579Y9026073D01*
X8924805Y9095662D01*
X8952513Y9137944D01*
X9028706Y9214136D01*
X9102449Y9324500D01*
X9119045Y9349338D01*
X9119047Y9349342D01*
X9157099Y9441208D01*
X9181274Y9499572D01*
X9208257Y9635222D01*
X9212998Y9659054D01*
X9212998Y9821669D01*
X9181275Y9981145D01*
X9181274Y9981146D01*
X9181274Y9981150D01*
X9162604Y10026223D01*
X9119047Y10131381D01*
X9119045Y10131385D01*
X9028709Y10266582D01*
X9028703Y10266590D01*
X8913726Y10381567D01*
X8913718Y10381573D01*
X8778521Y10471909D01*
X8778517Y10471911D01*
X8628291Y10534136D01*
X8628281Y10534139D01*
X8468805Y10565861D01*
X8468803Y10565861D01*
X8306193Y10565861D01*
X8306191Y10565861D01*
X8146714Y10534139D01*
X8146704Y10534136D01*
X7996478Y10471911D01*
X7996474Y10471909D01*
X7861277Y10381573D01*
X7861269Y10381567D01*
X7746292Y10266590D01*
X7746286Y10266582D01*
X7655950Y10131385D01*
X7655948Y10131381D01*
X7593723Y9981155D01*
X7593720Y9981143D01*
X7570679Y9865309D01*
X7538294Y9803398D01*
X7477578Y9768823D01*
X7449062Y9765500D01*
X3422497Y9765500D01*
X3355458Y9785185D01*
X3334820Y9801815D01*
X3251225Y9885410D01*
X3251224Y9885411D01*
X3251222Y9885413D01*
X3251220Y9885414D01*
X3116023Y9975750D01*
X3116019Y9975752D01*
X2965793Y10037977D01*
X2965783Y10037980D01*
X2806307Y10069702D01*
X2806305Y10069702D01*
X2643695Y10069702D01*
X2643693Y10069702D01*
X2484216Y10037980D01*
X2484206Y10037977D01*
X2333980Y9975752D01*
X2333976Y9975750D01*
X2198779Y9885414D01*
X2198771Y9885408D01*
X2083794Y9770431D01*
X2083788Y9770423D01*
X1993452Y9635226D01*
X1993450Y9635222D01*
X1931225Y9484996D01*
X1931222Y9484986D01*
X1899500Y9325510D01*
X1899500Y9325507D01*
X1899500Y9162897D01*
X1899500Y9162895D01*
X1899499Y9162895D01*
X1931222Y9003419D01*
X1931225Y9003409D01*
X1948397Y8961952D01*
X1955866Y8892482D01*
X1924590Y8830003D01*
X1864501Y8794352D01*
X1833836Y8790500D01*
X1651457Y8790500D01*
X1458170Y8752053D01*
X1458160Y8752050D01*
X1276092Y8676636D01*
X1276079Y8676629D01*
X1112218Y8567140D01*
X1112214Y8567137D01*
X972863Y8427786D01*
X972860Y8427782D01*
X863371Y8263921D01*
X863364Y8263908D01*
X787950Y8081840D01*
X787947Y8081830D01*
X749500Y7888544D01*
X749500Y7888541D01*
X749500Y7691459D01*
X749500Y7691457D01*
X749499Y7691457D01*
X787947Y7498171D01*
X787950Y7498161D01*
X859168Y7326225D01*
X863368Y7316086D01*
X867585Y7309775D01*
X924971Y7223890D01*
X945848Y7157213D01*
X927363Y7089833D01*
X924971Y7086110D01*
X863366Y6993911D01*
X787950Y6811840D01*
X787947Y6811830D01*
X749500Y6618544D01*
X749500Y6618541D01*
X749500Y6421459D01*
X749500Y6421457D01*
X749499Y6421457D01*
X787947Y6228171D01*
X787950Y6228161D01*
X830540Y6125340D01*
X838009Y6055871D01*
X815248Y6003580D01*
X806648Y5992092D01*
X806645Y5992087D01*
X756403Y5857380D01*
X756401Y5857373D01*
X750000Y5797845D01*
X750000Y5500000D01*
X1540382Y5500000D01*
X1489936Y5449554D01*
X1447149Y5375445D01*
X1425000Y5292787D01*
X1425000Y5207213D01*
X1447149Y5124555D01*
X1489936Y5050446D01*
X1550446Y4989936D01*
X1624555Y4947149D01*
X1707213Y4925000D01*
X1792787Y4925000D01*
X1875445Y4947149D01*
X1949554Y4989936D01*
X2000000Y5040382D01*
X2000000Y4250000D01*
X2297828Y4250000D01*
X2297844Y4250001D01*
X2357372Y4256402D01*
X2357379Y4256404D01*
X2492086Y4306646D01*
X2492093Y4306650D01*
X2607187Y4392810D01*
X2607190Y4392813D01*
X2693350Y4507907D01*
X2693354Y4507914D01*
X2743596Y4642621D01*
X2743598Y4642628D01*
X2749999Y4702156D01*
X2750000Y4702173D01*
X2750000Y4876097D01*
X2769685Y4943136D01*
X2822489Y4988891D01*
X2891647Y4998835D01*
X2955203Y4969810D01*
X2961668Y4963791D01*
X3000459Y4925000D01*
X3021442Y4904017D01*
X3123886Y4835566D01*
X3123885Y4835566D01*
X3123887Y4835565D01*
X3123889Y4835564D01*
X3157959Y4821452D01*
X3237722Y4788413D01*
X3257771Y4784425D01*
X3323393Y4771372D01*
X3358566Y4764375D01*
X3358568Y4764375D01*
X3487895Y4764375D01*
X3487915Y4764376D01*
X7592430Y4764376D01*
X7659469Y4744691D01*
X7705224Y4691887D01*
X7715168Y4622729D01*
X7686143Y4559173D01*
X7677932Y4551180D01*
X7678082Y4551030D01*
X7558794Y4431743D01*
X7558788Y4431735D01*
X7468452Y4296538D01*
X7468450Y4296534D01*
X7406225Y4146308D01*
X7406222Y4146298D01*
X7374500Y3986822D01*
X7374500Y3986819D01*
X7374500Y3824209D01*
X7374500Y3824207D01*
X7374499Y3824207D01*
X7406222Y3664731D01*
X7406225Y3664721D01*
X7468450Y3514495D01*
X7468452Y3514491D01*
X7558788Y3379294D01*
X7558794Y3379286D01*
X7673771Y3264309D01*
X7673779Y3264303D01*
X7808976Y3173967D01*
X7808980Y3173965D01*
X7938818Y3120185D01*
X7959211Y3111738D01*
X7959215Y3111738D01*
X7959216Y3111737D01*
X8118692Y3080014D01*
X8118695Y3080014D01*
X8281307Y3080014D01*
X8403653Y3104351D01*
X8440789Y3111738D01*
X8578342Y3168714D01*
X8591019Y3173965D01*
X8591023Y3173967D01*
X8680779Y3233940D01*
X8726225Y3264306D01*
X8841208Y3379289D01*
X8904345Y3473780D01*
X8931547Y3514491D01*
X8931549Y3514495D01*
X8970859Y3609398D01*
X8993776Y3664725D01*
X9002020Y3706174D01*
X9034403Y3768082D01*
X9095118Y3802657D01*
X9099446Y3803598D01*
X9154967Y3814643D01*
X9233497Y3830263D01*
X9376666Y3889565D01*
X9379172Y3890603D01*
X9379172Y3890604D01*
X9379179Y3890606D01*
X9510289Y3978211D01*
X9621789Y4089711D01*
X9709394Y4220821D01*
X9769737Y4366503D01*
X9800500Y4521158D01*
X9800500Y4630258D01*
X9820185Y4697297D01*
X9862752Y4736576D01*
X9862456Y4737019D01*
X9865273Y4738902D01*
X9866050Y4739618D01*
X9867514Y4740402D01*
X9867521Y4740404D01*
X10002725Y4830744D01*
X10117708Y4945727D01*
X10187679Y5050446D01*
X10208047Y5080929D01*
X10208049Y5080933D01*
X10257575Y5200500D01*
X10270276Y5231163D01*
X10298976Y5375445D01*
X10302000Y5390645D01*
X10302000Y5553260D01*
X10270277Y5712736D01*
X10270276Y5712737D01*
X10270276Y5712741D01*
X10270274Y5712746D01*
X10208049Y5862972D01*
X10208047Y5862976D01*
X10117711Y5998173D01*
X10117705Y5998181D01*
X10002728Y6113158D01*
X10002720Y6113164D01*
X9867523Y6203500D01*
X9867519Y6203502D01*
X9717293Y6265727D01*
X9717283Y6265730D01*
X9557807Y6297452D01*
X9557805Y6297452D01*
X9395195Y6297452D01*
X9395193Y6297452D01*
X9235716Y6265730D01*
X9235706Y6265727D01*
X9085480Y6203502D01*
X9085476Y6203500D01*
X8950279Y6113164D01*
X8950277Y6113163D01*
X8926826Y6089711D01*
X8888808Y6051694D01*
X8827488Y6018210D01*
X8801129Y6015376D01*
X7670608Y6015376D01*
X7603569Y6035061D01*
X7557814Y6087865D01*
X7547870Y6157023D01*
X7548990Y6163565D01*
X7550500Y6171157D01*
X7550500Y6328845D01*
X7550499Y6328847D01*
X7544523Y6358891D01*
X7519737Y6483497D01*
X7516154Y6492147D01*
X7459397Y6629173D01*
X7459390Y6629186D01*
X7371789Y6760289D01*
X7371786Y6760293D01*
X7260292Y6871787D01*
X7260288Y6871790D01*
X7162099Y6937398D01*
X7117294Y6991010D01*
X7108587Y7060335D01*
X7138741Y7123363D01*
X7198185Y7160082D01*
X7230990Y7164500D01*
X8980461Y7164500D01*
X9047500Y7144815D01*
X9068142Y7128181D01*
X9081528Y7114795D01*
X9081536Y7114789D01*
X9216733Y7024453D01*
X9216737Y7024451D01*
X9322085Y6980815D01*
X9366968Y6962224D01*
X9366972Y6962224D01*
X9366973Y6962223D01*
X9526449Y6930500D01*
X9526452Y6930500D01*
X9689064Y6930500D01*
X9805176Y6953597D01*
X9836480Y6959824D01*
X9906071Y6953597D01*
X9942234Y6929898D01*
X9942805Y6930592D01*
X9947515Y6926727D01*
X10078618Y6839126D01*
X10078631Y6839119D01*
X10224302Y6778781D01*
X10224307Y6778779D01*
X10378962Y6748016D01*
X10379651Y6747879D01*
X10428855Y6726208D01*
X10436462Y6720622D01*
X10481943Y6675141D01*
X10552989Y6634123D01*
X10618874Y6596084D01*
X10771602Y6555160D01*
X10771605Y6555160D01*
X10937312Y6555160D01*
X10937328Y6555161D01*
X13244859Y6555161D01*
X13244875Y6555160D01*
X13252471Y6555160D01*
X13410582Y6555160D01*
X13410585Y6555160D01*
X13563313Y6596084D01*
X13629198Y6634123D01*
X13700244Y6675141D01*
X13701782Y6676680D01*
X13710413Y6681739D01*
X13737123Y6688408D01*
X13762801Y6698336D01*
X13773126Y6698767D01*
X14825500Y6698767D01*
X14892539Y6679082D01*
X14938294Y6626278D01*
X14949500Y6574767D01*
X14949500Y6521154D01*
X14980261Y6366511D01*
X14980264Y6366499D01*
X15040602Y6220828D01*
X15040609Y6220815D01*
X15117237Y6106134D01*
X15138115Y6039456D01*
X15119631Y5972076D01*
X15083026Y5934141D01*
X14989711Y5871790D01*
X14989707Y5871787D01*
X14878213Y5760293D01*
X14878210Y5760289D01*
X14790609Y5629186D01*
X14790602Y5629173D01*
X14730264Y5483502D01*
X14730261Y5483490D01*
X14699500Y5328847D01*
X14699500Y5324500D01*
X14679815Y5257461D01*
X14627011Y5211706D01*
X14575500Y5200500D01*
X13328100Y5200500D01*
X13169986Y5200500D01*
X13017258Y5159577D01*
X13017257Y5159577D01*
X13017255Y5159576D01*
X13017252Y5159575D01*
X12971106Y5132932D01*
X12971095Y5132926D01*
X12967138Y5130640D01*
X12880327Y5080520D01*
X12851113Y5051307D01*
X12841443Y5044728D01*
X12818871Y5037454D01*
X12798055Y5026088D01*
X12795891Y5025638D01*
X12640551Y4994739D01*
X12640541Y4994736D01*
X12494870Y4934398D01*
X12494857Y4934391D01*
X12363754Y4846790D01*
X12363750Y4846787D01*
X12252256Y4735293D01*
X12252253Y4735289D01*
X12164652Y4604186D01*
X12164645Y4604173D01*
X12104307Y4458502D01*
X12104304Y4458490D01*
X12073543Y4303847D01*
X12073543Y4299500D01*
X12053858Y4232461D01*
X12001054Y4186706D01*
X11949543Y4175500D01*
X10935075Y4175500D01*
X10776961Y4175500D01*
X10624233Y4134577D01*
X10598085Y4119480D01*
X10546525Y4089712D01*
X10487303Y4055521D01*
X10487300Y4055519D01*
X10375496Y3943714D01*
X10166356Y3734575D01*
X10105033Y3701090D01*
X10102867Y3700639D01*
X9947526Y3669739D01*
X9947516Y3669736D01*
X9801845Y3609398D01*
X9801832Y3609391D01*
X9670729Y3521790D01*
X9670725Y3521787D01*
X9559231Y3410293D01*
X9559228Y3410289D01*
X9471627Y3279186D01*
X9471620Y3279173D01*
X9411282Y3133502D01*
X9411279Y3133490D01*
X9380518Y2978847D01*
X9379921Y2972782D01*
X9377826Y2972989D01*
X9360833Y2915114D01*
X9325409Y2879051D01*
X9239711Y2821790D01*
X9239707Y2821787D01*
X9128213Y2710293D01*
X9128210Y2710289D01*
X9040609Y2579186D01*
X9040602Y2579173D01*
X8980264Y2433502D01*
X8980261Y2433490D01*
X8949500Y2278847D01*
X8949500Y2121154D01*
X8980261Y1966511D01*
X8980264Y1966499D01*
X9040602Y1820828D01*
X9040609Y1820815D01*
X9128210Y1689712D01*
X9128213Y1689708D01*
X9204942Y1612979D01*
X9238427Y1551656D01*
X9233443Y1481964D01*
X9191571Y1426031D01*
X9126107Y1401614D01*
X9117261Y1401298D01*
X8242498Y1401298D01*
X8175459Y1420983D01*
X8154817Y1437617D01*
X8126228Y1466206D01*
X8126220Y1466212D01*
X7991023Y1556548D01*
X7991019Y1556550D01*
X7840793Y1618775D01*
X7840783Y1618778D01*
X7681307Y1650500D01*
X7681305Y1650500D01*
X7518695Y1650500D01*
X7518693Y1650500D01*
X7359216Y1618778D01*
X7359206Y1618775D01*
X7208980Y1556550D01*
X7208976Y1556548D01*
X7073779Y1466212D01*
X7073771Y1466206D01*
X7045183Y1437617D01*
X6983860Y1404132D01*
X6957502Y1401298D01*
X3781163Y1401298D01*
X3714124Y1420983D01*
X3678061Y1456407D01*
X3671513Y1466206D01*
X3599464Y1574035D01*
X3599461Y1574039D01*
X3474038Y1699462D01*
X3474034Y1699465D01*
X3326553Y1798010D01*
X3326540Y1798017D01*
X3162667Y1865894D01*
X3162658Y1865897D01*
X2988694Y1900500D01*
X2988691Y1900500D01*
X2811309Y1900500D01*
X2811306Y1900500D01*
X2637341Y1865897D01*
X2637332Y1865894D01*
X2473459Y1798017D01*
X2473446Y1798010D01*
X2325965Y1699465D01*
X2325961Y1699462D01*
X2200538Y1574039D01*
X2200535Y1574035D01*
X2101990Y1426554D01*
X2101983Y1426541D01*
X2034106Y1262668D01*
X2034103Y1262659D01*
X1999500Y1088696D01*
X1999500Y911305D01*
X2034103Y737342D01*
X2034106Y737333D01*
X2061188Y671952D01*
X2068657Y602483D01*
X2037382Y540004D01*
X1977293Y504352D01*
X1946627Y500500D01*
X624500Y500500D01*
X557461Y520185D01*
X511706Y572989D01*
X500500Y624500D01*
X500500Y1762655D01*
X520185Y1829694D01*
X568206Y1873140D01*
X661422Y1920636D01*
X698715Y1947732D01*
X536819Y2109628D01*
X503334Y2170951D01*
X500500Y2197309D01*
X500500Y2553692D01*
X520185Y2620731D01*
X572989Y2666486D01*
X642147Y2676430D01*
X705703Y2647405D01*
X712181Y2641373D01*
X1052268Y2301285D01*
X1079362Y2338575D01*
X1169542Y2515563D01*
X1230924Y2704477D01*
X1230924Y2704480D01*
X1262000Y2900679D01*
X1262000Y3099322D01*
X1230924Y3295521D01*
X1230924Y3295524D01*
X1169542Y3484438D01*
X1079358Y3661433D01*
X1052268Y3698717D01*
X712181Y3358629D01*
X650858Y3325144D01*
X581166Y3330128D01*
X525233Y3372000D01*
X500816Y3437464D01*
X500500Y3446310D01*
X500500Y3802692D01*
X520185Y3869731D01*
X536819Y3890373D01*
X698715Y4052270D01*
X661430Y4079361D01*
X661428Y4079362D01*
X568204Y4126863D01*
X517408Y4174838D01*
X500500Y4237347D01*
X500500Y4702156D01*
X750000Y4702156D01*
X756401Y4642628D01*
X756403Y4642621D01*
X806645Y4507914D01*
X806649Y4507907D01*
X892809Y4392813D01*
X892812Y4392810D01*
X1007906Y4306650D01*
X1007913Y4306646D01*
X1142620Y4256404D01*
X1142627Y4256402D01*
X1202155Y4250001D01*
X1202172Y4250000D01*
X1500000Y4250000D01*
X1500000Y5000000D01*
X750000Y5000000D01*
X750000Y4702156D01*
X500500Y4702156D01*
X500500Y9762094D01*
X520185Y9829133D01*
X568205Y9872579D01*
X661694Y9920213D01*
X822464Y10037019D01*
X962981Y10177536D01*
X1079787Y10338306D01*
X1170005Y10515368D01*
X1231413Y10704364D01*
X1262500Y10900639D01*
X1262500Y11099361D01*
X1231413Y11295636D01*
X1178263Y11459217D01*
X1170006Y11484630D01*
X1170005Y11484633D01*
X1124035Y11574851D01*
X1079787Y11661694D01*
X1043199Y11712053D01*
X7148706Y11712053D01*
X7180429Y11552577D01*
X7180432Y11552567D01*
X7242657Y11402341D01*
X7242659Y11402337D01*
X7332995Y11267140D01*
X7333001Y11267132D01*
X7447978Y11152155D01*
X7447986Y11152149D01*
X7583183Y11061813D01*
X7583187Y11061811D01*
X7733413Y10999586D01*
X7733418Y10999584D01*
X7733422Y10999584D01*
X7733423Y10999583D01*
X7892899Y10967860D01*
X7892902Y10967860D01*
X8055514Y10967860D01*
X8207128Y10998019D01*
X8214996Y10999584D01*
X8357937Y11058792D01*
X8365226Y11061811D01*
X8365230Y11061813D01*
X8460544Y11125500D01*
X8500432Y11152152D01*
X8615415Y11267135D01*
X8705755Y11402339D01*
X8767983Y11552571D01*
X8783438Y11630265D01*
X8799707Y11712053D01*
X8799707Y11874668D01*
X8767984Y12034144D01*
X8767983Y12034145D01*
X8767983Y12034149D01*
X8749079Y12079787D01*
X8705756Y12184380D01*
X8705754Y12184384D01*
X8615418Y12319581D01*
X8615412Y12319589D01*
X8500435Y12434566D01*
X8500427Y12434572D01*
X8365230Y12524908D01*
X8365226Y12524910D01*
X8215000Y12587135D01*
X8214990Y12587138D01*
X8055514Y12618860D01*
X8055512Y12618860D01*
X7892902Y12618860D01*
X7892900Y12618860D01*
X7733423Y12587138D01*
X7733413Y12587135D01*
X7583187Y12524910D01*
X7583183Y12524908D01*
X7447986Y12434572D01*
X7447978Y12434566D01*
X7333001Y12319589D01*
X7332995Y12319581D01*
X7242659Y12184384D01*
X7242657Y12184380D01*
X7180432Y12034154D01*
X7180429Y12034144D01*
X7148707Y11874668D01*
X7148707Y11874665D01*
X7148707Y11712055D01*
X7148707Y11712053D01*
X7148706Y11712053D01*
X1043199Y11712053D01*
X972488Y11809379D01*
X949009Y11875183D01*
X964834Y11943237D01*
X1014940Y11991932D01*
X1083418Y12005807D01*
X1096999Y12003879D01*
X1244692Y11974500D01*
X1244695Y11974500D01*
X1407307Y11974500D01*
X1547436Y12002374D01*
X1560126Y12004899D01*
X1566789Y12006224D01*
X1717021Y12068452D01*
X1717023Y12068453D01*
X1805279Y12127424D01*
X1852225Y12158792D01*
X1967208Y12273775D01*
X2049015Y12396208D01*
X2057547Y12408977D01*
X2057549Y12408981D01*
X2089679Y12486551D01*
X2119776Y12559211D01*
X2139817Y12659961D01*
X2172202Y12721872D01*
X2232917Y12756446D01*
X2261434Y12759770D01*
X4268272Y12759770D01*
X4335311Y12740085D01*
X4371374Y12704660D01*
X4440279Y12601536D01*
X4440285Y12601528D01*
X4555262Y12486551D01*
X4555270Y12486545D01*
X4690467Y12396209D01*
X4690471Y12396207D01*
X4823242Y12341212D01*
X4840702Y12333980D01*
X4840706Y12333980D01*
X4840707Y12333979D01*
X5000183Y12302256D01*
X5000186Y12302256D01*
X5162798Y12302256D01*
X5270089Y12323599D01*
X5322280Y12333980D01*
X5472512Y12396208D01*
X5472514Y12396209D01*
X5596183Y12478842D01*
X5607716Y12486548D01*
X5722699Y12601531D01*
X5813039Y12736735D01*
X5875267Y12886967D01*
X5906991Y13046451D01*
X5906991Y13046453D01*
X5907829Y13050665D01*
X5940214Y13112576D01*
X6000929Y13147150D01*
X6070699Y13143411D01*
G37*
G04 #@! TD.AperFunction*
G04 #@! TA.AperFunction,Conductor*
G36*
X39691942Y879815D02*
G01*
X39712584Y863181D01*
X39863584Y712181D01*
X39897069Y650858D01*
X39892085Y581166D01*
X39850213Y525233D01*
X39784749Y500816D01*
X39775903Y500500D01*
X30945134Y500500D01*
X30916867Y508801D01*
X30887949Y514473D01*
X30883718Y518534D01*
X30878095Y520185D01*
X30858805Y542447D01*
X30837542Y562856D01*
X30836178Y568560D01*
X30832340Y572989D01*
X30828146Y602153D01*
X30821295Y630810D01*
X30822962Y638206D01*
X30822396Y642147D01*
X30828089Y665444D01*
X30829238Y668732D01*
X30869737Y766503D01*
X30878036Y808227D01*
X30880911Y816444D01*
X30896403Y838050D01*
X30908724Y861602D01*
X30916446Y866000D01*
X30921627Y873224D01*
X30946341Y883024D01*
X30969439Y896176D01*
X30983708Y897840D01*
X30986578Y898977D01*
X30989146Y898474D01*
X30997956Y899500D01*
X39624903Y899500D01*
X39691942Y879815D01*
G37*
G04 #@! TD.AperFunction*
G04 #@! TA.AperFunction,Conductor*
G36*
X44418833Y2669874D02*
G01*
X44474767Y2628003D01*
X44499184Y2562538D01*
X44499500Y2553692D01*
X44499500Y2197310D01*
X44479815Y2130271D01*
X44463181Y2109629D01*
X44301283Y1947732D01*
X44301283Y1947731D01*
X44338570Y1920640D01*
X44431794Y1873140D01*
X44482591Y1825166D01*
X44499500Y1762655D01*
X44499500Y1431941D01*
X44479815Y1364902D01*
X44427011Y1319147D01*
X44357853Y1309203D01*
X44294297Y1338228D01*
X44287819Y1344260D01*
X44210292Y1421787D01*
X44210288Y1421790D01*
X44079185Y1509391D01*
X44079172Y1509398D01*
X43933501Y1569736D01*
X43933489Y1569739D01*
X43778845Y1600500D01*
X43778842Y1600500D01*
X43621158Y1600500D01*
X43621155Y1600500D01*
X43466510Y1569739D01*
X43466503Y1569737D01*
X43339879Y1517289D01*
X43270410Y1509821D01*
X43207931Y1541097D01*
X43172279Y1601186D01*
X43170811Y1607660D01*
X43154490Y1689708D01*
X43145780Y1733497D01*
X43088155Y1872615D01*
X43080687Y1942084D01*
X43111962Y2004563D01*
X43172051Y2040215D01*
X43178526Y2041684D01*
X43210557Y2048056D01*
X43267025Y2059288D01*
X43379694Y2105958D01*
X43412700Y2119628D01*
X43412700Y2119629D01*
X43412707Y2119631D01*
X43543817Y2207236D01*
X43655317Y2318736D01*
X43694045Y2376696D01*
X43747657Y2421501D01*
X43816982Y2430208D01*
X43880010Y2400054D01*
X43907632Y2364100D01*
X43920641Y2338568D01*
X43947730Y2301285D01*
X44287819Y2641373D01*
X44349142Y2674858D01*
X44418833Y2669874D01*
G37*
G04 #@! TD.AperFunction*
G04 #@! TA.AperFunction,Conductor*
G36*
X12229087Y2971663D02*
G01*
X12239080Y2972932D01*
X12262050Y2961984D01*
X12286462Y2954815D01*
X12293057Y2947204D01*
X12302151Y2942869D01*
X12315556Y2921238D01*
X12332217Y2902011D01*
X12333650Y2892043D01*
X12338957Y2883480D01*
X12343406Y2848467D01*
X12343222Y2837281D01*
X12341544Y2828842D01*
X12341544Y2734911D01*
X12341527Y2733874D01*
X12331426Y2701451D01*
X12321859Y2668868D01*
X12321060Y2668177D01*
X12320746Y2667166D01*
X12294690Y2645327D01*
X12269055Y2623113D01*
X12268009Y2622963D01*
X12267199Y2622283D01*
X12217544Y2611907D01*
X11518198Y2611907D01*
X11456199Y2628520D01*
X11443362Y2635931D01*
X11443361Y2635932D01*
X11401029Y2660373D01*
X11401028Y2660374D01*
X11369328Y2668868D01*
X11248296Y2701299D01*
X11130914Y2701299D01*
X11063875Y2720984D01*
X11018120Y2773788D01*
X11008176Y2842946D01*
X11037201Y2906502D01*
X11043233Y2912980D01*
X11068434Y2938181D01*
X11129757Y2971666D01*
X11156115Y2974500D01*
X12219423Y2974500D01*
X12229087Y2971663D01*
G37*
G04 #@! TD.AperFunction*
G04 #@! TA.AperFunction,Conductor*
G36*
X43188843Y4743869D02*
G01*
X43208821Y4743155D01*
X43221682Y4734226D01*
X43236703Y4729815D01*
X43249791Y4714710D01*
X43266214Y4703308D01*
X43280425Y4679357D01*
X43282458Y4677011D01*
X43284224Y4672955D01*
X43288564Y4662478D01*
X43288565Y4662476D01*
X43288567Y4662473D01*
X43376168Y4531368D01*
X43487665Y4419871D01*
X43487669Y4419868D01*
X43618772Y4332267D01*
X43618785Y4332260D01*
X43764456Y4271922D01*
X43764461Y4271920D01*
X43874655Y4250001D01*
X43919111Y4241158D01*
X43919114Y4241157D01*
X43919116Y4241157D01*
X44076801Y4241157D01*
X44121261Y4250001D01*
X44189601Y4263595D01*
X44259191Y4257368D01*
X44314369Y4214506D01*
X44337614Y4148616D01*
X44321547Y4080619D01*
X44301775Y4058529D01*
X44301283Y4052271D01*
X44463181Y3890374D01*
X44496666Y3829051D01*
X44499500Y3802692D01*
X44499500Y3446310D01*
X44479815Y3379271D01*
X44427011Y3333516D01*
X44357853Y3323572D01*
X44294297Y3352597D01*
X44287819Y3358629D01*
X43947730Y3698718D01*
X43947729Y3698717D01*
X43920643Y3661436D01*
X43830458Y3484439D01*
X43814446Y3435160D01*
X43775008Y3377485D01*
X43710649Y3350287D01*
X43641802Y3362202D01*
X43608834Y3385798D01*
X43543820Y3450812D01*
X43543816Y3450815D01*
X43412713Y3538416D01*
X43412700Y3538423D01*
X43267029Y3598761D01*
X43267017Y3598764D01*
X43112373Y3629525D01*
X43112370Y3629525D01*
X42954686Y3629525D01*
X42954683Y3629525D01*
X42800038Y3598764D01*
X42800026Y3598761D01*
X42654355Y3538423D01*
X42654342Y3538416D01*
X42523239Y3450815D01*
X42523235Y3450812D01*
X42509243Y3436819D01*
X42447920Y3403334D01*
X42421562Y3400500D01*
X41460095Y3400500D01*
X41502851Y3474555D01*
X41525000Y3557213D01*
X41525000Y3642787D01*
X41502851Y3725445D01*
X41460064Y3799554D01*
X41455094Y3804524D01*
X41568224Y3827026D01*
X41584488Y3830261D01*
X41584488Y3830262D01*
X41584497Y3830263D01*
X41609363Y3840563D01*
X41656811Y3850000D01*
X42200000Y3850000D01*
X42200000Y4147828D01*
X42199999Y4147845D01*
X42193598Y4207373D01*
X42193596Y4207380D01*
X42140254Y4350399D01*
X42142243Y4351141D01*
X42129927Y4407745D01*
X42131994Y4423097D01*
X42133713Y4431735D01*
X42148866Y4507914D01*
X42151500Y4521156D01*
X42151500Y4625500D01*
X42171185Y4692539D01*
X42223989Y4738294D01*
X42275500Y4749500D01*
X43169664Y4749500D01*
X43188843Y4743869D01*
G37*
G04 #@! TD.AperFunction*
G04 #@! TA.AperFunction,Conductor*
G36*
X31917539Y4079815D02*
G01*
X31963294Y4027011D01*
X31974500Y3975500D01*
X31974500Y3918695D01*
X31977490Y3903661D01*
X31988356Y3849034D01*
X31986734Y3830919D01*
X31990177Y3813059D01*
X31983684Y3796840D01*
X31982127Y3779443D01*
X31970970Y3765082D01*
X31964210Y3748193D01*
X31949978Y3738059D01*
X31939264Y3724266D01*
X31922113Y3718216D01*
X31907296Y3707664D01*
X31889845Y3706833D01*
X31873374Y3701022D01*
X31855673Y3705205D01*
X31837505Y3704339D01*
X31806052Y3716931D01*
X31805377Y3717090D01*
X31804862Y3717386D01*
X31781904Y3730640D01*
X31731785Y3759577D01*
X31579057Y3800501D01*
X31420943Y3800501D01*
X31413347Y3800501D01*
X31413331Y3800500D01*
X29549500Y3800500D01*
X29540814Y3803051D01*
X29531853Y3801762D01*
X29507812Y3812741D01*
X29482461Y3820185D01*
X29476533Y3827026D01*
X29468297Y3830787D01*
X29454007Y3853022D01*
X29436706Y3872989D01*
X29434418Y3883504D01*
X29430523Y3889565D01*
X29425500Y3924500D01*
X29425500Y3975500D01*
X29445185Y4042539D01*
X29497989Y4088294D01*
X29549500Y4099500D01*
X31850500Y4099500D01*
X31917539Y4079815D01*
G37*
G04 #@! TD.AperFunction*
G04 #@! TA.AperFunction,Conductor*
G36*
X20066248Y5993698D02*
G01*
X20086827Y5992755D01*
X20099096Y5984053D01*
X20113526Y5979815D01*
X20127013Y5964250D01*
X20143816Y5952331D01*
X20156910Y5929748D01*
X20159281Y5927011D01*
X20160267Y5923957D01*
X20161519Y5921798D01*
X20165845Y5911050D01*
X20167347Y5903499D01*
X20221619Y5772474D01*
X20221891Y5771798D01*
X20225214Y5737662D01*
X20228889Y5703483D01*
X20228598Y5702903D01*
X20228661Y5702257D01*
X20212969Y5671682D01*
X20197613Y5641004D01*
X20197056Y5640674D01*
X20196760Y5640096D01*
X20166997Y5622840D01*
X20137524Y5605352D01*
X20136877Y5605376D01*
X20136315Y5605049D01*
X20106859Y5601500D01*
X16294168Y5601500D01*
X16227129Y5621185D01*
X16191066Y5656609D01*
X16132762Y5743867D01*
X16111884Y5810545D01*
X16130369Y5877925D01*
X16166970Y5915858D01*
X16260289Y5978211D01*
X16260288Y5978211D01*
X16260876Y5978603D01*
X16327554Y5999480D01*
X16329766Y5999500D01*
X20046487Y5999500D01*
X20066248Y5993698D01*
G37*
G04 #@! TD.AperFunction*
G04 #@! TA.AperFunction,Conductor*
G36*
X38837273Y20479815D02*
G01*
X38839125Y20478602D01*
X38970814Y20390610D01*
X38970827Y20390603D01*
X39116498Y20330265D01*
X39116503Y20330263D01*
X39156963Y20322215D01*
X39277132Y20298311D01*
X39276764Y20296464D01*
X39333410Y20273607D01*
X39373784Y20216583D01*
X39378111Y20200537D01*
X39406222Y20059217D01*
X39406225Y20059207D01*
X39468450Y19908981D01*
X39468452Y19908977D01*
X39558788Y19773780D01*
X39558794Y19773772D01*
X39673771Y19658795D01*
X39673779Y19658789D01*
X39808968Y19568459D01*
X39808972Y19568457D01*
X39808979Y19568452D01*
X39808982Y19568451D01*
X39808985Y19568449D01*
X39872952Y19541954D01*
X39927356Y19498114D01*
X39949421Y19431820D01*
X39949500Y19427393D01*
X39949500Y19418695D01*
X39949500Y19418693D01*
X39949499Y19418693D01*
X39981222Y19259217D01*
X39981225Y19259207D01*
X40043450Y19108981D01*
X40043452Y19108977D01*
X40133788Y18973780D01*
X40133794Y18973772D01*
X40248771Y18858795D01*
X40250316Y18857527D01*
X40250907Y18856659D01*
X40253082Y18854484D01*
X40252669Y18854072D01*
X40289651Y18799781D01*
X40293269Y18737482D01*
X40274500Y18643126D01*
X40274500Y18485433D01*
X40305261Y18330790D01*
X40305264Y18330778D01*
X40365602Y18185107D01*
X40365609Y18185094D01*
X40453210Y18053991D01*
X40453213Y18053987D01*
X40564707Y17942493D01*
X40564711Y17942490D01*
X40695814Y17854889D01*
X40695827Y17854882D01*
X40841498Y17794544D01*
X40841503Y17794542D01*
X40985510Y17765897D01*
X40996153Y17763780D01*
X40996156Y17763779D01*
X40996158Y17763779D01*
X41153844Y17763779D01*
X41153845Y17763780D01*
X41308497Y17794542D01*
X41421166Y17841212D01*
X41454172Y17854882D01*
X41454172Y17854883D01*
X41454179Y17854885D01*
X41585289Y17942490D01*
X41696789Y18053990D01*
X41784394Y18185100D01*
X41844737Y18330782D01*
X41875500Y18485437D01*
X41875500Y18643121D01*
X41875500Y18643124D01*
X41875499Y18643126D01*
X41863318Y18704364D01*
X41844737Y18797776D01*
X41819464Y18858792D01*
X41784397Y18943452D01*
X41784390Y18943465D01*
X41696789Y19074568D01*
X41696786Y19074572D01*
X41606247Y19165111D01*
X41602442Y19172079D01*
X41596002Y19176723D01*
X41585935Y19202308D01*
X41572762Y19226434D01*
X41572676Y19236010D01*
X41570421Y19241742D01*
X41572310Y19276982D01*
X41585049Y19341020D01*
X41591748Y19374693D01*
X41624134Y19436604D01*
X41684850Y19471177D01*
X41713365Y19474500D01*
X42875151Y19474500D01*
X42942190Y19454815D01*
X42944041Y19453602D01*
X43071476Y19368453D01*
X43071480Y19368451D01*
X43221706Y19306226D01*
X43221711Y19306224D01*
X43221715Y19306224D01*
X43221716Y19306223D01*
X43381192Y19274500D01*
X43381195Y19274500D01*
X43543807Y19274500D01*
X43597945Y19285269D01*
X43667537Y19279042D01*
X43722714Y19236179D01*
X43745959Y19170290D01*
X43744611Y19144260D01*
X43737500Y19099361D01*
X43737500Y18900639D01*
X43744128Y18858792D01*
X43768587Y18704363D01*
X43829993Y18515371D01*
X43829994Y18515368D01*
X43911700Y18355013D01*
X43920213Y18338306D01*
X44037019Y18177536D01*
X44177536Y18037019D01*
X44298113Y17949415D01*
X44338307Y17920212D01*
X44390188Y17893778D01*
X44431794Y17872579D01*
X44482590Y17824605D01*
X44499500Y17762094D01*
X44499500Y12237908D01*
X44479815Y12170869D01*
X44431796Y12127424D01*
X44338307Y12079789D01*
X44177533Y11962979D01*
X44037021Y11822467D01*
X43920213Y11661695D01*
X43829994Y11484633D01*
X43829993Y11484630D01*
X43768587Y11295638D01*
X43737500Y11099361D01*
X43737500Y10900640D01*
X43768587Y10704363D01*
X43829993Y10515371D01*
X43829994Y10515368D01*
X43904852Y10368453D01*
X43920213Y10338306D01*
X44037019Y10177536D01*
X44177536Y10037019D01*
X44298113Y9949415D01*
X44338307Y9920212D01*
X44395599Y9891021D01*
X44431794Y9872579D01*
X44482590Y9824605D01*
X44499500Y9762094D01*
X44499500Y6775001D01*
X44479815Y6707962D01*
X44427011Y6662207D01*
X44357853Y6652263D01*
X44351309Y6653384D01*
X44278845Y6667798D01*
X44278842Y6667798D01*
X44121158Y6667798D01*
X44121155Y6667798D01*
X43966510Y6637037D01*
X43966498Y6637034D01*
X43820827Y6576696D01*
X43820814Y6576689D01*
X43689712Y6489089D01*
X43655288Y6454664D01*
X43587441Y6386818D01*
X43526121Y6353334D01*
X43499762Y6350500D01*
X40947296Y6350500D01*
X40880257Y6370185D01*
X40834502Y6422989D01*
X40824558Y6492147D01*
X40853583Y6555703D01*
X40859615Y6562181D01*
X40971205Y6673772D01*
X40971208Y6673775D01*
X41016680Y6741831D01*
X41061547Y6808977D01*
X41061549Y6808981D01*
X41096050Y6892274D01*
X41123776Y6959211D01*
X41143891Y7060335D01*
X41155500Y7118693D01*
X41155500Y7281308D01*
X41123778Y7440780D01*
X41123777Y7440784D01*
X41123776Y7440789D01*
X41123773Y7440796D01*
X41123597Y7441377D01*
X41123594Y7441706D01*
X41122588Y7446763D01*
X41123547Y7446954D01*
X41122972Y7511244D01*
X41160218Y7570358D01*
X41223512Y7599951D01*
X41292756Y7590627D01*
X41311148Y7580478D01*
X41370814Y7540610D01*
X41370827Y7540603D01*
X41516498Y7480265D01*
X41516503Y7480263D01*
X41609222Y7461820D01*
X41671153Y7449501D01*
X41671156Y7449500D01*
X41671158Y7449500D01*
X41828844Y7449500D01*
X41828845Y7449501D01*
X41983497Y7480263D01*
X42129179Y7540606D01*
X42260289Y7628211D01*
X42371789Y7739711D01*
X42459394Y7870821D01*
X42519737Y8016503D01*
X42550500Y8171158D01*
X42550500Y8328842D01*
X42550500Y8328845D01*
X42550499Y8328847D01*
X42543659Y8363234D01*
X42519737Y8483497D01*
X42513075Y8499580D01*
X42459397Y8629173D01*
X42459390Y8629186D01*
X42371789Y8760289D01*
X42371786Y8760293D01*
X42260292Y8871787D01*
X42260288Y8871790D01*
X42129185Y8959391D01*
X42129172Y8959398D01*
X41983501Y9019736D01*
X41983489Y9019739D01*
X41828845Y9050500D01*
X41828842Y9050500D01*
X41671158Y9050500D01*
X41671155Y9050500D01*
X41516510Y9019739D01*
X41516498Y9019736D01*
X41370827Y8959398D01*
X41370814Y8959391D01*
X41239711Y8871790D01*
X41239707Y8871787D01*
X41128213Y8760293D01*
X41128210Y8760289D01*
X41040609Y8629186D01*
X41040602Y8629173D01*
X40980264Y8483502D01*
X40980261Y8483490D01*
X40949500Y8328847D01*
X40949500Y8171154D01*
X40981085Y8012366D01*
X40974858Y7942775D01*
X40931995Y7887597D01*
X40866105Y7864353D01*
X40798108Y7880421D01*
X40790578Y7885072D01*
X40768585Y7899767D01*
X40721021Y7931548D01*
X40721018Y7931550D01*
X40721017Y7931550D01*
X40570793Y7993775D01*
X40570783Y7993778D01*
X40411307Y8025500D01*
X40411305Y8025500D01*
X40248695Y8025500D01*
X40248693Y8025500D01*
X40089216Y7993778D01*
X40089206Y7993775D01*
X39938980Y7931550D01*
X39938976Y7931548D01*
X39803779Y7841212D01*
X39803771Y7841206D01*
X39688794Y7726229D01*
X39688788Y7726221D01*
X39598452Y7591024D01*
X39598450Y7591020D01*
X39536225Y7440794D01*
X39536222Y7440784D01*
X39504500Y7281308D01*
X39504500Y7281305D01*
X39504500Y7118695D01*
X39504500Y7118693D01*
X39504499Y7118693D01*
X39536222Y6959217D01*
X39536225Y6959207D01*
X39598450Y6808981D01*
X39598452Y6808977D01*
X39688788Y6673780D01*
X39688794Y6673772D01*
X39800385Y6562181D01*
X39833870Y6500858D01*
X39828886Y6431166D01*
X39787014Y6375233D01*
X39721550Y6350816D01*
X39712704Y6350500D01*
X38626666Y6350500D01*
X38559627Y6370185D01*
X38513872Y6422989D01*
X38503928Y6492147D01*
X38532953Y6555703D01*
X38557775Y6577602D01*
X38564151Y6581864D01*
X38572227Y6587259D01*
X38687210Y6702242D01*
X38735826Y6775001D01*
X38777549Y6837444D01*
X38777551Y6837448D01*
X38812224Y6921156D01*
X38839778Y6987678D01*
X38859358Y7086110D01*
X38871502Y7147160D01*
X38871502Y7309775D01*
X38839779Y7469251D01*
X38839778Y7469252D01*
X38839778Y7469256D01*
X38820367Y7516118D01*
X38777551Y7619487D01*
X38777549Y7619491D01*
X38687213Y7754688D01*
X38687207Y7754696D01*
X38572230Y7869673D01*
X38572222Y7869679D01*
X38437025Y7960015D01*
X38437021Y7960017D01*
X38286795Y8022242D01*
X38286785Y8022245D01*
X38127309Y8053967D01*
X38127307Y8053967D01*
X37964697Y8053967D01*
X37964695Y8053967D01*
X37805218Y8022245D01*
X37805208Y8022242D01*
X37654982Y7960017D01*
X37654978Y7960015D01*
X37519781Y7869679D01*
X37519773Y7869673D01*
X37404796Y7754696D01*
X37404790Y7754688D01*
X37314454Y7619491D01*
X37314452Y7619487D01*
X37252227Y7469261D01*
X37252224Y7469251D01*
X37220502Y7309775D01*
X37220502Y7309772D01*
X37220502Y7147162D01*
X37220502Y7147160D01*
X37220501Y7147160D01*
X37252224Y6987684D01*
X37252227Y6987674D01*
X37314452Y6837448D01*
X37314454Y6837444D01*
X37404790Y6702247D01*
X37404796Y6702239D01*
X37519773Y6587262D01*
X37519777Y6587259D01*
X37534229Y6577602D01*
X37579034Y6523989D01*
X37587741Y6454664D01*
X37557586Y6391637D01*
X37498143Y6354918D01*
X37465338Y6350500D01*
X34560759Y6350500D01*
X34493720Y6370185D01*
X34447965Y6422989D01*
X34438021Y6492147D01*
X34457657Y6543391D01*
X34466194Y6556169D01*
X34509394Y6620821D01*
X34512854Y6629173D01*
X34524923Y6658312D01*
X34569737Y6766503D01*
X34600500Y6921158D01*
X34600500Y7078842D01*
X34600500Y7078845D01*
X34600499Y7078847D01*
X34595600Y7103475D01*
X34569737Y7233497D01*
X34569735Y7233502D01*
X34509397Y7379173D01*
X34509390Y7379186D01*
X34421789Y7510289D01*
X34421786Y7510293D01*
X34310292Y7621787D01*
X34310288Y7621790D01*
X34179185Y7709391D01*
X34179172Y7709398D01*
X34033501Y7769736D01*
X34033489Y7769739D01*
X33878845Y7800500D01*
X33878842Y7800500D01*
X33721158Y7800500D01*
X33721155Y7800500D01*
X33566510Y7769739D01*
X33566498Y7769736D01*
X33420827Y7709398D01*
X33420814Y7709391D01*
X33289711Y7621790D01*
X33289707Y7621787D01*
X33178213Y7510293D01*
X33178210Y7510289D01*
X33090609Y7379186D01*
X33090602Y7379173D01*
X33030264Y7233502D01*
X33030261Y7233490D01*
X32999500Y7078847D01*
X32999500Y6921154D01*
X33030261Y6766511D01*
X33030264Y6766499D01*
X33090602Y6620828D01*
X33090609Y6620816D01*
X33142343Y6543391D01*
X33163221Y6476714D01*
X33144737Y6409334D01*
X33092758Y6362643D01*
X33039241Y6350500D01*
X31092904Y6350500D01*
X31025865Y6370185D01*
X30980110Y6422989D01*
X30970166Y6492147D01*
X30978343Y6521953D01*
X30993776Y6559211D01*
X31009256Y6637034D01*
X31025500Y6718693D01*
X31025500Y6881308D01*
X30993777Y7040784D01*
X30993776Y7040785D01*
X30993776Y7040789D01*
X30987139Y7056813D01*
X30931549Y7191020D01*
X30931547Y7191024D01*
X30841211Y7326221D01*
X30841205Y7326229D01*
X30726228Y7441206D01*
X30726220Y7441212D01*
X30591023Y7531548D01*
X30591019Y7531550D01*
X30440793Y7593775D01*
X30440783Y7593778D01*
X30281307Y7625500D01*
X30281305Y7625500D01*
X30118695Y7625500D01*
X30118693Y7625500D01*
X29959216Y7593778D01*
X29959206Y7593775D01*
X29808980Y7531550D01*
X29808976Y7531548D01*
X29681541Y7446398D01*
X29614864Y7425520D01*
X29612651Y7425500D01*
X29243207Y7425500D01*
X29176168Y7445185D01*
X29155525Y7461820D01*
X29101228Y7516118D01*
X29101220Y7516124D01*
X28966023Y7606460D01*
X28966019Y7606462D01*
X28815793Y7668687D01*
X28815783Y7668690D01*
X28656307Y7700412D01*
X28656305Y7700412D01*
X28493695Y7700412D01*
X28493693Y7700412D01*
X28334216Y7668690D01*
X28334206Y7668687D01*
X28183980Y7606462D01*
X28183976Y7606460D01*
X28048779Y7516124D01*
X28048771Y7516118D01*
X27994475Y7461820D01*
X27933152Y7428334D01*
X27906793Y7425500D01*
X26828099Y7425500D01*
X26761060Y7445185D01*
X26754001Y7450324D01*
X26616023Y7542517D01*
X26616019Y7542519D01*
X26465793Y7604744D01*
X26465783Y7604747D01*
X26306307Y7636469D01*
X26306305Y7636469D01*
X26143695Y7636469D01*
X26143693Y7636469D01*
X25984216Y7604747D01*
X25984206Y7604744D01*
X25833982Y7542519D01*
X25761171Y7493869D01*
X25694493Y7472992D01*
X25627113Y7491477D01*
X25580424Y7543457D01*
X25569248Y7612427D01*
X25570664Y7621164D01*
X25573709Y7636469D01*
X25588215Y7709398D01*
X25600500Y7771156D01*
X25600500Y7917060D01*
X25620185Y7984099D01*
X25636814Y8004737D01*
X25721789Y8089711D01*
X25809394Y8220821D01*
X25812178Y8227541D01*
X25854137Y8328842D01*
X25869737Y8366503D01*
X25900500Y8521158D01*
X25900500Y8550500D01*
X25920185Y8617539D01*
X25972989Y8663294D01*
X26024500Y8674500D01*
X26181307Y8674500D01*
X26303472Y8698801D01*
X26340789Y8706224D01*
X26471314Y8760289D01*
X26491019Y8768451D01*
X26491023Y8768453D01*
X26583139Y8830003D01*
X26626225Y8858792D01*
X26626228Y8858795D01*
X26630615Y8863181D01*
X26657542Y8877885D01*
X26683361Y8894477D01*
X26689561Y8895369D01*
X26691938Y8896666D01*
X26718296Y8899500D01*
X26813933Y8899500D01*
X26880972Y8879815D01*
X26893757Y8869512D01*
X26894065Y8869886D01*
X26898779Y8866018D01*
X27033976Y8775682D01*
X27033980Y8775680D01*
X27171560Y8718693D01*
X27184211Y8713453D01*
X27184215Y8713453D01*
X27184216Y8713452D01*
X27343692Y8681729D01*
X27343695Y8681729D01*
X27349903Y8681729D01*
X27416942Y8662044D01*
X27437584Y8645410D01*
X27797368Y8285626D01*
X27797378Y8285615D01*
X27801708Y8281285D01*
X27801709Y8281284D01*
X27913513Y8169480D01*
X27990588Y8124981D01*
X28050444Y8090423D01*
X28203172Y8049499D01*
X28203175Y8049499D01*
X28368882Y8049499D01*
X28368898Y8049500D01*
X30380068Y8049500D01*
X30427520Y8040061D01*
X30494383Y8012366D01*
X30509211Y8006224D01*
X30509215Y8006224D01*
X30509216Y8006223D01*
X30668692Y7974500D01*
X30668695Y7974500D01*
X30831307Y7974500D01*
X30956986Y7999500D01*
X30990789Y8006224D01*
X31141021Y8068452D01*
X31141023Y8068453D01*
X31225623Y8124981D01*
X31276225Y8158792D01*
X31391208Y8273775D01*
X31481548Y8408979D01*
X31484258Y8415520D01*
X31514275Y8487989D01*
X31543776Y8559211D01*
X31557695Y8629186D01*
X31575500Y8718693D01*
X31575500Y8881308D01*
X31543777Y9040784D01*
X31543776Y9040785D01*
X31543776Y9040789D01*
X31539754Y9050500D01*
X31481549Y9191020D01*
X31481547Y9191024D01*
X31391211Y9326221D01*
X31391205Y9326229D01*
X31276228Y9441206D01*
X31276220Y9441212D01*
X31141023Y9531548D01*
X31141019Y9531550D01*
X30990793Y9593775D01*
X30990783Y9593778D01*
X30831307Y9625500D01*
X30831305Y9625500D01*
X30668695Y9625500D01*
X30668693Y9625500D01*
X30509216Y9593778D01*
X30509206Y9593775D01*
X30358980Y9531550D01*
X30358976Y9531548D01*
X30223779Y9441212D01*
X30223771Y9441206D01*
X30108794Y9326229D01*
X30108790Y9326224D01*
X30095018Y9305611D01*
X30041407Y9260805D01*
X29991915Y9250500D01*
X28582326Y9250500D01*
X28515287Y9270185D01*
X28494645Y9286819D01*
X28286819Y9494645D01*
X28253334Y9555968D01*
X28250500Y9582326D01*
X28250500Y9588537D01*
X28218777Y9748013D01*
X28218776Y9748014D01*
X28218776Y9748018D01*
X28172272Y9860289D01*
X28156549Y9898249D01*
X28156547Y9898253D01*
X28066211Y10033450D01*
X28066205Y10033458D01*
X28016493Y10083170D01*
X27983008Y10144493D01*
X27987992Y10214185D01*
X28029864Y10270118D01*
X28095328Y10294535D01*
X28128366Y10292468D01*
X28218693Y10274500D01*
X28218695Y10274500D01*
X28381307Y10274500D01*
X28488598Y10295843D01*
X28540789Y10306224D01*
X28645267Y10349500D01*
X28691019Y10368451D01*
X28691023Y10368453D01*
X28803268Y10443453D01*
X28826225Y10458792D01*
X28941208Y10573775D01*
X29001742Y10664371D01*
X29031547Y10708977D01*
X29031549Y10708981D01*
X29093774Y10859207D01*
X29093776Y10859211D01*
X29121387Y10998018D01*
X29125500Y11018693D01*
X29125500Y11125500D01*
X29145185Y11192539D01*
X29197989Y11238294D01*
X29249500Y11249500D01*
X30340041Y11249500D01*
X30387492Y11240062D01*
X30507717Y11190263D01*
X30507720Y11190263D01*
X30507725Y11190261D01*
X30662367Y11159501D01*
X30662370Y11159500D01*
X30662372Y11159500D01*
X30820058Y11159500D01*
X30906671Y11176729D01*
X30966083Y11188547D01*
X31035674Y11182320D01*
X31077955Y11154611D01*
X31173771Y11058795D01*
X31173779Y11058789D01*
X31308976Y10968453D01*
X31308980Y10968451D01*
X31459206Y10906226D01*
X31459211Y10906224D01*
X31459215Y10906224D01*
X31459216Y10906223D01*
X31618692Y10874500D01*
X31618695Y10874500D01*
X31781307Y10874500D01*
X31888598Y10895843D01*
X31940789Y10906224D01*
X32091021Y10968452D01*
X32091023Y10968453D01*
X32166215Y11018695D01*
X32226225Y11058792D01*
X32341208Y11173775D01*
X32403592Y11267140D01*
X32431547Y11308977D01*
X32431549Y11308981D01*
X32477258Y11419333D01*
X32493776Y11459211D01*
X32514823Y11565019D01*
X32525500Y11618693D01*
X32525500Y11781308D01*
X32493777Y11940784D01*
X32493776Y11940785D01*
X32493776Y11940789D01*
X32484584Y11962981D01*
X32431549Y12091020D01*
X32431547Y12091024D01*
X32341211Y12226221D01*
X32341205Y12226229D01*
X32226228Y12341206D01*
X32226220Y12341212D01*
X32091023Y12431548D01*
X32091019Y12431550D01*
X31940793Y12493775D01*
X31940783Y12493778D01*
X31781307Y12525500D01*
X31781305Y12525500D01*
X31702739Y12525500D01*
X31635700Y12545185D01*
X31589945Y12597989D01*
X31580001Y12667147D01*
X31581122Y12673692D01*
X31601012Y12773683D01*
X31601012Y12931372D01*
X31573100Y13071692D01*
X31579327Y13141284D01*
X31622190Y13196461D01*
X31688080Y13219706D01*
X31694717Y13219884D01*
X31749460Y13219884D01*
X31749461Y13219885D01*
X31904113Y13250647D01*
X32049795Y13310990D01*
X32180905Y13398595D01*
X32292405Y13510095D01*
X32380010Y13641205D01*
X32440353Y13786887D01*
X32471116Y13941542D01*
X32471116Y14099226D01*
X32471116Y14099229D01*
X32471115Y14099231D01*
X32465746Y14126221D01*
X32440353Y14253881D01*
X32434316Y14268455D01*
X32380013Y14399557D01*
X32380006Y14399570D01*
X32292405Y14530673D01*
X32292402Y14530677D01*
X32180908Y14642171D01*
X32180904Y14642174D01*
X32073862Y14713698D01*
X32072896Y14714853D01*
X32071469Y14715337D01*
X32050555Y14741586D01*
X32029057Y14767311D01*
X32028869Y14768806D01*
X32027931Y14769983D01*
X32024529Y14803357D01*
X32020350Y14836636D01*
X32020950Y14838478D01*
X32020847Y14839493D01*
X32023028Y14844854D01*
X32032178Y14872918D01*
X32035530Y14879524D01*
X32076128Y14940282D01*
X32119463Y15044904D01*
X32121618Y15049149D01*
X32142424Y15071250D01*
X32161472Y15094886D01*
X32166811Y15097154D01*
X32169512Y15100022D01*
X32179327Y15102470D01*
X32208001Y15114648D01*
X32231206Y15119263D01*
X32376888Y15179606D01*
X32507998Y15267211D01*
X32619498Y15378711D01*
X32707103Y15509821D01*
X32767446Y15655503D01*
X32798209Y15810158D01*
X32798209Y15967842D01*
X32796525Y15976308D01*
X32802751Y16045896D01*
X32845612Y16101075D01*
X32911501Y16124322D01*
X32918142Y16124500D01*
X42038331Y16124500D01*
X42038347Y16124499D01*
X42045943Y16124499D01*
X42204054Y16124499D01*
X42204057Y16124499D01*
X42356785Y16165423D01*
X42414479Y16198733D01*
X42493716Y16244480D01*
X42498435Y16249200D01*
X42511069Y16256790D01*
X42538329Y16263909D01*
X42564612Y16274070D01*
X42574931Y16274500D01*
X42581307Y16274500D01*
X42714657Y16301026D01*
X42740789Y16306224D01*
X42891021Y16368452D01*
X42891023Y16368453D01*
X42996421Y16438878D01*
X43026225Y16458792D01*
X43141208Y16573775D01*
X43186680Y16641831D01*
X43231547Y16708977D01*
X43231549Y16708981D01*
X43293774Y16859207D01*
X43293776Y16859211D01*
X43325500Y17018695D01*
X43325500Y17181305D01*
X43325500Y17181308D01*
X43293777Y17340784D01*
X43293776Y17340785D01*
X43293776Y17340789D01*
X43285276Y17361309D01*
X43231549Y17491020D01*
X43231547Y17491024D01*
X43141211Y17626221D01*
X43141205Y17626229D01*
X43026228Y17741206D01*
X43026220Y17741212D01*
X42891023Y17831548D01*
X42891019Y17831550D01*
X42740793Y17893775D01*
X42740783Y17893778D01*
X42581307Y17925500D01*
X42581305Y17925500D01*
X42418695Y17925500D01*
X42418693Y17925500D01*
X42259216Y17893778D01*
X42259206Y17893775D01*
X42108980Y17831550D01*
X42108976Y17831548D01*
X41973779Y17741212D01*
X41973771Y17741206D01*
X41858794Y17626229D01*
X41858788Y17626221D01*
X41768452Y17491024D01*
X41768450Y17491020D01*
X41731598Y17402048D01*
X41687757Y17347644D01*
X41621463Y17325579D01*
X41617037Y17325500D01*
X33882549Y17325500D01*
X33815510Y17345185D01*
X33769755Y17397989D01*
X33759811Y17467147D01*
X33767988Y17496952D01*
X33793774Y17559207D01*
X33793776Y17559211D01*
X33815588Y17668863D01*
X33825500Y17718693D01*
X33825500Y17725500D01*
X33845185Y17792539D01*
X33897989Y17838294D01*
X33949500Y17849500D01*
X38399231Y17849500D01*
X38466270Y17829815D01*
X38486907Y17813186D01*
X38534196Y17765897D01*
X38543626Y17756467D01*
X38674728Y17668867D01*
X38674741Y17668860D01*
X38820412Y17608522D01*
X38820417Y17608520D01*
X38975067Y17577758D01*
X38975070Y17577757D01*
X38975072Y17577757D01*
X39132758Y17577757D01*
X39132759Y17577758D01*
X39287411Y17608520D01*
X39433093Y17668863D01*
X39564203Y17756468D01*
X39675703Y17867968D01*
X39763308Y17999078D01*
X39823651Y18144760D01*
X39854414Y18299415D01*
X39854414Y18457099D01*
X39854414Y18457102D01*
X39854413Y18457104D01*
X39834149Y18558977D01*
X39823651Y18611754D01*
X39823649Y18611759D01*
X39763311Y18757430D01*
X39763304Y18757443D01*
X39675703Y18888546D01*
X39675700Y18888550D01*
X39564206Y19000044D01*
X39564198Y19000050D01*
X39433095Y19087650D01*
X39433091Y19087652D01*
X39407590Y19098215D01*
X39353187Y19142056D01*
X39333427Y19188580D01*
X39313001Y19291269D01*
X39306807Y19306223D01*
X39252661Y19436945D01*
X39252654Y19436958D01*
X39165053Y19568061D01*
X39165050Y19568065D01*
X39053556Y19679559D01*
X39053552Y19679562D01*
X38922449Y19767163D01*
X38922439Y19767168D01*
X38839171Y19801659D01*
X38784768Y19845500D01*
X38765007Y19892028D01*
X38756674Y19933923D01*
X38749182Y19952011D01*
X38696334Y20079599D01*
X38696327Y20079612D01*
X38608726Y20210715D01*
X38608723Y20210719D01*
X38531623Y20287819D01*
X38521010Y20307256D01*
X38506510Y20323989D01*
X38504593Y20337321D01*
X38498138Y20349142D01*
X38499717Y20371229D01*
X38496566Y20393147D01*
X38502161Y20405399D01*
X38503122Y20418834D01*
X38516392Y20436561D01*
X38525591Y20456703D01*
X38536922Y20463986D01*
X38544994Y20474767D01*
X38565739Y20482505D01*
X38584369Y20494477D01*
X38606287Y20497629D01*
X38610458Y20499184D01*
X38619304Y20499500D01*
X38770234Y20499500D01*
X38837273Y20479815D01*
G37*
G04 #@! TD.AperFunction*
G04 #@! TA.AperFunction,Conductor*
G36*
X13869309Y16441283D02*
G01*
X13916004Y16389309D01*
X13918712Y16383236D01*
X13936468Y16340371D01*
X13943938Y16270902D01*
X13925012Y16224029D01*
X13907001Y16197073D01*
X13906993Y16197059D01*
X13846655Y16051389D01*
X13846652Y16051377D01*
X13815891Y15896734D01*
X13815891Y15739041D01*
X13846652Y15584398D01*
X13846655Y15584386D01*
X13906993Y15438715D01*
X13907000Y15438702D01*
X13994601Y15307599D01*
X13994604Y15307595D01*
X14106098Y15196101D01*
X14106102Y15196098D01*
X14237205Y15108497D01*
X14237218Y15108490D01*
X14360439Y15057451D01*
X14382894Y15048150D01*
X14537544Y15017388D01*
X14537547Y15017387D01*
X14537549Y15017387D01*
X14695235Y15017387D01*
X14695236Y15017388D01*
X14849888Y15048150D01*
X14995570Y15108493D01*
X15126680Y15196098D01*
X15238180Y15307598D01*
X15250323Y15325772D01*
X15262765Y15344391D01*
X15316378Y15389196D01*
X15365867Y15399500D01*
X18720234Y15399500D01*
X18787273Y15379815D01*
X18789125Y15378602D01*
X18920814Y15290610D01*
X18920827Y15290603D01*
X19029722Y15245498D01*
X19066503Y15230263D01*
X19219936Y15199743D01*
X19221153Y15199501D01*
X19221156Y15199500D01*
X19221158Y15199500D01*
X19378844Y15199500D01*
X19378845Y15199501D01*
X19533497Y15230263D01*
X19646166Y15276933D01*
X19679172Y15290603D01*
X19679172Y15290604D01*
X19679179Y15290606D01*
X19810289Y15378211D01*
X19810294Y15378217D01*
X19812774Y15380250D01*
X19814330Y15380912D01*
X19815354Y15381595D01*
X19815483Y15381401D01*
X19877083Y15407564D01*
X19945951Y15395774D01*
X19997512Y15348623D01*
X20015396Y15281081D01*
X20014660Y15270515D01*
X20000000Y15140404D01*
X20000000Y14859599D01*
X20031437Y14580588D01*
X20031439Y14580576D01*
X20093921Y14306822D01*
X20093922Y14306820D01*
X20186662Y14041783D01*
X20308492Y13788800D01*
X20457884Y13551044D01*
X20576892Y13401813D01*
X20603300Y13337126D01*
X20590545Y13268431D01*
X20542674Y13217537D01*
X20479945Y13200500D01*
X16594799Y13200500D01*
X16527760Y13220185D01*
X16482005Y13272989D01*
X16480237Y13277051D01*
X16474650Y13290540D01*
X16474649Y13290541D01*
X16474647Y13290547D01*
X16467714Y13300923D01*
X16387042Y13421658D01*
X16275545Y13533155D01*
X16275541Y13533158D01*
X16144438Y13620759D01*
X16144425Y13620766D01*
X15998754Y13681104D01*
X15998742Y13681107D01*
X15844098Y13711868D01*
X15844095Y13711868D01*
X15721184Y13711868D01*
X15654145Y13731553D01*
X15608390Y13784357D01*
X15599567Y13811674D01*
X15593776Y13840789D01*
X15581209Y13871128D01*
X15531549Y13991020D01*
X15531547Y13991024D01*
X15441211Y14126221D01*
X15441205Y14126229D01*
X15326228Y14241206D01*
X15326220Y14241212D01*
X15191023Y14331548D01*
X15191019Y14331550D01*
X15040793Y14393775D01*
X15040783Y14393778D01*
X14881307Y14425500D01*
X14881305Y14425500D01*
X14718695Y14425500D01*
X14718693Y14425500D01*
X14559216Y14393778D01*
X14559206Y14393775D01*
X14408980Y14331550D01*
X14408976Y14331548D01*
X14273779Y14241212D01*
X14273771Y14241206D01*
X14269385Y14236819D01*
X14208062Y14203334D01*
X14181704Y14200500D01*
X7330102Y14200500D01*
X7314663Y14204627D01*
X7301015Y14203960D01*
X7275751Y14215029D01*
X7268233Y14217038D01*
X7264647Y14219103D01*
X7246021Y14231548D01*
X7235360Y14235964D01*
X7228374Y14239986D01*
X7209572Y14259657D01*
X7188384Y14276733D01*
X7185784Y14284544D01*
X7180097Y14290494D01*
X7174914Y14317210D01*
X7166322Y14343028D01*
X7168357Y14351004D01*
X7166790Y14359085D01*
X7176873Y14384363D01*
X7183604Y14410726D01*
X7191388Y14420747D01*
X7192679Y14423981D01*
X7195424Y14425941D01*
X7202563Y14435130D01*
X7241205Y14473772D01*
X7241208Y14473775D01*
X7331548Y14608979D01*
X7352893Y14660514D01*
X7379770Y14700738D01*
X7741452Y15062418D01*
X7802775Y15095903D01*
X7829133Y15098737D01*
X11933174Y15098737D01*
X12000213Y15079052D01*
X12020855Y15062418D01*
X12025822Y15057451D01*
X12025826Y15057448D01*
X12156929Y14969847D01*
X12156942Y14969840D01*
X12302613Y14909502D01*
X12302618Y14909500D01*
X12457268Y14878738D01*
X12457271Y14878737D01*
X12457273Y14878737D01*
X12614959Y14878737D01*
X12614960Y14878738D01*
X12769612Y14909500D01*
X12915294Y14969843D01*
X13046404Y15057448D01*
X13157904Y15168948D01*
X13245509Y15300058D01*
X13305852Y15445740D01*
X13336615Y15600395D01*
X13336615Y15758079D01*
X13336615Y15758082D01*
X13336614Y15758084D01*
X13327963Y15801575D01*
X13305852Y15912734D01*
X13266843Y16006911D01*
X13245512Y16058410D01*
X13245505Y16058423D01*
X13184212Y16150154D01*
X13163334Y16216831D01*
X13181818Y16284212D01*
X13233797Y16330902D01*
X13287314Y16343045D01*
X13427844Y16343045D01*
X13427845Y16343046D01*
X13582497Y16373808D01*
X13728179Y16434151D01*
X13735254Y16438879D01*
X13801927Y16459762D01*
X13869309Y16441283D01*
G37*
G04 #@! TD.AperFunction*
G04 #@! TA.AperFunction,Conductor*
G36*
X25634185Y16711280D02*
G01*
X25643147Y16712568D01*
X25667187Y16701590D01*
X25692539Y16694145D01*
X25698466Y16687305D01*
X25706703Y16683543D01*
X25720992Y16661309D01*
X25738294Y16641341D01*
X25740581Y16630827D01*
X25744477Y16624765D01*
X25749500Y16589830D01*
X25749500Y16471154D01*
X25780261Y16316511D01*
X25780264Y16316499D01*
X25840602Y16170828D01*
X25840609Y16170815D01*
X25928210Y16039712D01*
X25928213Y16039708D01*
X26039707Y15928214D01*
X26039711Y15928211D01*
X26170814Y15840610D01*
X26170827Y15840603D01*
X26282317Y15794423D01*
X26316503Y15780263D01*
X26471153Y15749501D01*
X26471156Y15749500D01*
X26471158Y15749500D01*
X26628844Y15749500D01*
X26711259Y15765894D01*
X26719166Y15765187D01*
X26726605Y15767961D01*
X26753468Y15762118D01*
X26780850Y15759667D01*
X26788859Y15754419D01*
X26794878Y15753109D01*
X26823132Y15731958D01*
X26919464Y15635626D01*
X26919474Y15635615D01*
X26923804Y15631285D01*
X26923805Y15631284D01*
X27035609Y15519480D01*
X27035611Y15519479D01*
X27041356Y15513734D01*
X27039336Y15511715D01*
X27072392Y15466431D01*
X27076537Y15396684D01*
X27042316Y15335769D01*
X26980594Y15303025D01*
X26955697Y15300500D01*
X26382940Y15300500D01*
X26315901Y15320185D01*
X26295263Y15336815D01*
X26210289Y15421789D01*
X26210288Y15421790D01*
X26210287Y15421791D01*
X26079185Y15509391D01*
X26079172Y15509398D01*
X25933501Y15569736D01*
X25933489Y15569739D01*
X25778845Y15600500D01*
X25778842Y15600500D01*
X25621158Y15600500D01*
X25621155Y15600500D01*
X25466510Y15569739D01*
X25466498Y15569736D01*
X25320827Y15509398D01*
X25320814Y15509391D01*
X25189711Y15421790D01*
X25167863Y15399942D01*
X25106539Y15366458D01*
X25036847Y15371444D01*
X24980914Y15413316D01*
X24959292Y15460033D01*
X24906079Y15693175D01*
X24906077Y15693181D01*
X24813337Y15958218D01*
X24691507Y16211201D01*
X24542115Y16448957D01*
X24491428Y16512517D01*
X24465020Y16577204D01*
X24477775Y16645899D01*
X24525646Y16696793D01*
X24588375Y16713830D01*
X25625500Y16713830D01*
X25634185Y16711280D01*
G37*
G04 #@! TD.AperFunction*
G04 #@! TA.AperFunction,Conductor*
G36*
X5917446Y26154815D02*
G01*
X5963201Y26102011D01*
X5973145Y26032853D01*
X5953508Y25981607D01*
X5950128Y25976550D01*
X5950123Y25976541D01*
X5882246Y25812668D01*
X5882243Y25812659D01*
X5847640Y25638696D01*
X5847640Y25638691D01*
X5847640Y25461309D01*
X5847641Y25461305D01*
X5858511Y25406654D01*
X5852282Y25337062D01*
X5809419Y25281886D01*
X5761085Y25260847D01*
X5630334Y25234838D01*
X5630323Y25234835D01*
X5480097Y25172610D01*
X5480093Y25172608D01*
X5344896Y25082272D01*
X5344888Y25082266D01*
X5229911Y24967289D01*
X5229905Y24967281D01*
X5139569Y24832084D01*
X5139567Y24832080D01*
X5077342Y24681854D01*
X5077339Y24681844D01*
X5045617Y24522368D01*
X5045617Y24474500D01*
X5025932Y24407461D01*
X4973128Y24361706D01*
X4921617Y24350500D01*
X2420939Y24350500D01*
X2399459Y24344745D01*
X2399460Y24344744D01*
X2343410Y24329725D01*
X2311316Y24325500D01*
X2168693Y24325500D01*
X2009216Y24293778D01*
X2009206Y24293775D01*
X1858980Y24231550D01*
X1858976Y24231548D01*
X1723779Y24141212D01*
X1723771Y24141206D01*
X1608794Y24026229D01*
X1608788Y24026221D01*
X1518452Y23891024D01*
X1518450Y23891020D01*
X1456225Y23740794D01*
X1456222Y23740784D01*
X1424500Y23581308D01*
X1424500Y23581305D01*
X1424500Y23418695D01*
X1424500Y23418693D01*
X1424499Y23418693D01*
X1456222Y23259217D01*
X1456225Y23259207D01*
X1518450Y23108981D01*
X1518452Y23108977D01*
X1608788Y22973780D01*
X1608794Y22973772D01*
X1723771Y22858795D01*
X1723779Y22858789D01*
X1858976Y22768453D01*
X1858980Y22768451D01*
X1984499Y22716460D01*
X2009211Y22706224D01*
X2009215Y22706224D01*
X2009216Y22706223D01*
X2168692Y22674500D01*
X2168695Y22674500D01*
X2331307Y22674500D01*
X2469609Y22702011D01*
X2490789Y22706224D01*
X2641021Y22768452D01*
X2641023Y22768453D01*
X2735245Y22831410D01*
X2776225Y22858792D01*
X2891208Y22973775D01*
X2958189Y23074019D01*
X2971801Y23094391D01*
X3025413Y23139196D01*
X3074903Y23149500D01*
X6263331Y23149500D01*
X6263347Y23149499D01*
X6270943Y23149499D01*
X6429054Y23149499D01*
X6429057Y23149499D01*
X6573059Y23188085D01*
X6642907Y23186422D01*
X6700770Y23147260D01*
X6719712Y23115762D01*
X6736999Y23074026D01*
X6737006Y23074013D01*
X6824607Y22942910D01*
X6824610Y22942906D01*
X6936106Y22831410D01*
X6942258Y22827300D01*
X6950768Y22821613D01*
X6995574Y22768003D01*
X7005880Y22718510D01*
X7005880Y22638080D01*
X7036641Y22483437D01*
X7036644Y22483425D01*
X7096982Y22337754D01*
X7096989Y22337741D01*
X7184590Y22206638D01*
X7184593Y22206634D01*
X7296087Y22095140D01*
X7296091Y22095137D01*
X7427194Y22007536D01*
X7427207Y22007529D01*
X7564749Y21950558D01*
X7572883Y21947189D01*
X7711325Y21919651D01*
X7727533Y21916427D01*
X7727536Y21916426D01*
X7727538Y21916426D01*
X7885224Y21916426D01*
X7885225Y21916427D01*
X8039877Y21947189D01*
X8047361Y21950289D01*
X8116830Y21957761D01*
X8163708Y21938832D01*
X8281362Y21860219D01*
X8281365Y21860217D01*
X8431591Y21797992D01*
X8431596Y21797990D01*
X8431600Y21797990D01*
X8431601Y21797989D01*
X8591077Y21766266D01*
X8591080Y21766266D01*
X8753692Y21766266D01*
X8860983Y21787609D01*
X8913174Y21797990D01*
X9063406Y21860218D01*
X9121108Y21898774D01*
X9187784Y21919651D01*
X9255164Y21901167D01*
X9301855Y21849188D01*
X9313998Y21795671D01*
X9313998Y21744667D01*
X9344759Y21590024D01*
X9344762Y21590012D01*
X9362598Y21546952D01*
X9370067Y21477482D01*
X9338791Y21415003D01*
X9278702Y21379352D01*
X9248037Y21375500D01*
X7813522Y21375500D01*
X7746483Y21395185D01*
X7744631Y21396398D01*
X7636552Y21468615D01*
X7636540Y21468622D01*
X7472667Y21536499D01*
X7472658Y21536502D01*
X7298694Y21571105D01*
X7298691Y21571105D01*
X7121309Y21571105D01*
X7121306Y21571105D01*
X6947341Y21536502D01*
X6947332Y21536499D01*
X6783459Y21468622D01*
X6783446Y21468615D01*
X6635966Y21370071D01*
X6607740Y21341844D01*
X6547713Y21281818D01*
X6486393Y21248334D01*
X6460034Y21245500D01*
X5012518Y21245500D01*
X4945479Y21265185D01*
X4943628Y21266398D01*
X4891022Y21301548D01*
X4891019Y21301550D01*
X4740793Y21363775D01*
X4740783Y21363778D01*
X4581307Y21395500D01*
X4581305Y21395500D01*
X4418695Y21395500D01*
X4418693Y21395500D01*
X4259216Y21363778D01*
X4253384Y21362008D01*
X4253033Y21363165D01*
X4189907Y21356388D01*
X4127432Y21387672D01*
X4097459Y21435723D01*
X4096107Y21435162D01*
X4031549Y21591020D01*
X4031547Y21591024D01*
X3941211Y21726221D01*
X3941205Y21726229D01*
X3826228Y21841206D01*
X3826220Y21841212D01*
X3691023Y21931548D01*
X3691019Y21931550D01*
X3540793Y21993775D01*
X3540783Y21993778D01*
X3381307Y22025500D01*
X3381305Y22025500D01*
X3218695Y22025500D01*
X3218693Y22025500D01*
X3059216Y21993778D01*
X3059206Y21993775D01*
X2908980Y21931550D01*
X2908976Y21931548D01*
X2773779Y21841212D01*
X2773771Y21841206D01*
X2658794Y21726229D01*
X2658788Y21726221D01*
X2568452Y21591024D01*
X2568450Y21591020D01*
X2506225Y21440794D01*
X2506222Y21440784D01*
X2474500Y21281308D01*
X2474500Y21281305D01*
X2474500Y21118695D01*
X2474500Y21118693D01*
X2474499Y21118693D01*
X2506222Y20959217D01*
X2506225Y20959207D01*
X2568450Y20808981D01*
X2568452Y20808977D01*
X2658788Y20673780D01*
X2658794Y20673772D01*
X2773771Y20558795D01*
X2773779Y20558789D01*
X2908976Y20468453D01*
X2908980Y20468451D01*
X3042565Y20413119D01*
X3059211Y20406224D01*
X3121265Y20393881D01*
X3183174Y20361497D01*
X3184754Y20359945D01*
X3405305Y20139394D01*
X3499394Y20045305D01*
X3499397Y20045303D01*
X3499398Y20045302D01*
X3610020Y19971387D01*
X3610024Y19971385D01*
X3610031Y19971380D01*
X3646037Y19956466D01*
X3732964Y19920459D01*
X3863464Y19894501D01*
X3863468Y19894500D01*
X3863469Y19894500D01*
X3987482Y19894500D01*
X4054521Y19874815D01*
X4056372Y19873602D01*
X4108977Y19838453D01*
X4108980Y19838451D01*
X4197805Y19801659D01*
X4259211Y19776224D01*
X4259215Y19776224D01*
X4259216Y19776223D01*
X4418692Y19744500D01*
X4418695Y19744500D01*
X4581307Y19744500D01*
X4710027Y19770105D01*
X4740789Y19776224D01*
X4851329Y19822011D01*
X4891019Y19838451D01*
X4891022Y19838453D01*
X4943628Y19873602D01*
X5010305Y19894480D01*
X5012518Y19894500D01*
X6468911Y19894500D01*
X6535950Y19874815D01*
X6581705Y19822011D01*
X6591649Y19752853D01*
X6562624Y19689297D01*
X6537802Y19667399D01*
X6524927Y19658795D01*
X6423772Y19591207D01*
X6308794Y19476229D01*
X6308788Y19476221D01*
X6218452Y19341024D01*
X6218450Y19341020D01*
X6156225Y19190794D01*
X6156222Y19190784D01*
X6124500Y19031308D01*
X6124500Y19031305D01*
X6124500Y18868695D01*
X6124500Y18868693D01*
X6124499Y18868693D01*
X6156222Y18709217D01*
X6156225Y18709207D01*
X6218449Y18558983D01*
X6310185Y18421690D01*
X6331062Y18355013D01*
X6312577Y18287633D01*
X6275973Y18249698D01*
X6125965Y18149465D01*
X6125961Y18149462D01*
X6000538Y18024039D01*
X6000535Y18024035D01*
X5901990Y17876554D01*
X5901986Y17876547D01*
X5896303Y17862825D01*
X5871128Y17802048D01*
X5827289Y17747645D01*
X5760995Y17725579D01*
X5756568Y17725500D01*
X4484851Y17725500D01*
X4437399Y17734939D01*
X4362667Y17765894D01*
X4362658Y17765897D01*
X4188694Y17800500D01*
X4188691Y17800500D01*
X4011309Y17800500D01*
X4011306Y17800500D01*
X3837341Y17765897D01*
X3837332Y17765894D01*
X3673459Y17698017D01*
X3673446Y17698010D01*
X3525965Y17599465D01*
X3525961Y17599462D01*
X3400538Y17474039D01*
X3400535Y17474035D01*
X3301990Y17326554D01*
X3301983Y17326541D01*
X3234106Y17162668D01*
X3234103Y17162659D01*
X3199500Y16988696D01*
X3199500Y16811305D01*
X3234103Y16637342D01*
X3234106Y16637333D01*
X3301983Y16473460D01*
X3301990Y16473447D01*
X3400535Y16325966D01*
X3400538Y16325962D01*
X3525961Y16200539D01*
X3525965Y16200536D01*
X3673446Y16101991D01*
X3673459Y16101984D01*
X3778627Y16058423D01*
X3837334Y16034106D01*
X3837336Y16034106D01*
X3837341Y16034104D01*
X3902631Y16021117D01*
X3964542Y15988732D01*
X3999116Y15928016D01*
X3995377Y15858247D01*
X3954510Y15801575D01*
X3889492Y15775994D01*
X3878440Y15775500D01*
X2260452Y15775500D01*
X2231011Y15784145D01*
X2201025Y15790668D01*
X2196009Y15794423D01*
X2193413Y15795185D01*
X2172771Y15811819D01*
X2157614Y15826976D01*
X2124129Y15888299D01*
X2123678Y15890466D01*
X2109534Y15961571D01*
X2093776Y16040789D01*
X2089390Y16051377D01*
X2031549Y16191020D01*
X2031547Y16191024D01*
X1941211Y16326221D01*
X1941205Y16326229D01*
X1826228Y16441206D01*
X1826220Y16441212D01*
X1691023Y16531548D01*
X1691019Y16531550D01*
X1540793Y16593775D01*
X1540783Y16593778D01*
X1381307Y16625500D01*
X1381305Y16625500D01*
X1218695Y16625500D01*
X1218693Y16625500D01*
X1059216Y16593778D01*
X1059206Y16593775D01*
X908980Y16531550D01*
X908976Y16531548D01*
X773779Y16441212D01*
X773771Y16441206D01*
X712181Y16379615D01*
X650858Y16346130D01*
X581166Y16351114D01*
X525233Y16392986D01*
X500816Y16458450D01*
X500500Y16467296D01*
X500500Y17762094D01*
X520185Y17829133D01*
X568205Y17872579D01*
X661694Y17920213D01*
X822464Y18037019D01*
X962981Y18177536D01*
X1079787Y18338306D01*
X1170005Y18515368D01*
X1231413Y18704364D01*
X1262500Y18900639D01*
X1262500Y19099361D01*
X1231413Y19295636D01*
X1185499Y19436945D01*
X1170006Y19484630D01*
X1170005Y19484633D01*
X1124035Y19574851D01*
X1079787Y19661694D01*
X962981Y19822464D01*
X822464Y19962981D01*
X737790Y20024500D01*
X661692Y20079789D01*
X568204Y20127424D01*
X517409Y20175399D01*
X500500Y20237908D01*
X500500Y25046627D01*
X520185Y25113666D01*
X572989Y25159421D01*
X642147Y25169365D01*
X671950Y25161189D01*
X737334Y25134106D01*
X737336Y25134106D01*
X737341Y25134104D01*
X911304Y25099501D01*
X911307Y25099500D01*
X911309Y25099500D01*
X1088693Y25099500D01*
X1088694Y25099501D01*
X1146682Y25111036D01*
X1262658Y25134104D01*
X1262661Y25134106D01*
X1262666Y25134106D01*
X1426547Y25201987D01*
X1431107Y25205035D01*
X1497783Y25225914D01*
X1565163Y25207431D01*
X1568867Y25205052D01*
X1573453Y25201987D01*
X1573455Y25201986D01*
X1573457Y25201985D01*
X1677729Y25158795D01*
X1737334Y25134106D01*
X1737336Y25134106D01*
X1737341Y25134104D01*
X1911304Y25099501D01*
X1911307Y25099500D01*
X1911309Y25099500D01*
X2088693Y25099500D01*
X2088694Y25099501D01*
X2146682Y25111036D01*
X2262658Y25134104D01*
X2262661Y25134106D01*
X2262666Y25134106D01*
X2426547Y25201987D01*
X2574035Y25300536D01*
X2699464Y25425965D01*
X2798013Y25573453D01*
X2865894Y25737334D01*
X2870416Y25760064D01*
X2901577Y25916723D01*
X2910341Y25933480D01*
X2914362Y25951959D01*
X2933107Y25977001D01*
X2933962Y25978634D01*
X2935406Y25980106D01*
X3093484Y26138184D01*
X3154805Y26171666D01*
X3181163Y26174500D01*
X5850407Y26174500D01*
X5917446Y26154815D01*
G37*
G04 #@! TD.AperFunction*
G04 #@! TA.AperFunction,Conductor*
G36*
X14915544Y29479815D02*
G01*
X14961299Y29427011D01*
X14971243Y29357853D01*
X14948823Y29302615D01*
X14879951Y29207821D01*
X14783444Y29018415D01*
X14717753Y28816240D01*
X14684500Y28606287D01*
X14684500Y28393713D01*
X14717754Y28183757D01*
X14751535Y28079789D01*
X14783444Y27981586D01*
X14879951Y27792180D01*
X15004890Y27620214D01*
X15155213Y27469891D01*
X15327179Y27344952D01*
X15327181Y27344951D01*
X15327184Y27344949D01*
X15516588Y27248443D01*
X15718757Y27182754D01*
X15928713Y27149500D01*
X15928714Y27149500D01*
X16141286Y27149500D01*
X16141287Y27149500D01*
X16351243Y27182754D01*
X16553412Y27248443D01*
X16742816Y27344949D01*
X16914792Y27469896D01*
X17028329Y27583434D01*
X17089648Y27616916D01*
X17089649Y27616916D01*
X17159341Y27611932D01*
X17176857Y27598819D01*
X17215274Y27570061D01*
X17232189Y27539083D01*
X17281202Y27407672D01*
X17281206Y27407665D01*
X17367452Y27292456D01*
X17367455Y27292453D01*
X17482664Y27206207D01*
X17482671Y27206203D01*
X17617517Y27155909D01*
X17617516Y27155909D01*
X17624444Y27155165D01*
X17677127Y27149500D01*
X19472872Y27149501D01*
X19532483Y27155909D01*
X19667331Y27206204D01*
X19782546Y27292454D01*
X19868796Y27407669D01*
X19919091Y27542517D01*
X19925500Y27602127D01*
X19925499Y29375501D01*
X19945184Y29442539D01*
X19997987Y29488294D01*
X20049499Y29499500D01*
X44375500Y29499500D01*
X44442539Y29479815D01*
X44488294Y29427011D01*
X44499500Y29375500D01*
X44499500Y28237908D01*
X44479815Y28170869D01*
X44431796Y28127424D01*
X44338307Y28079789D01*
X44177533Y27962979D01*
X44037021Y27822467D01*
X43920213Y27661695D01*
X43829994Y27484633D01*
X43829993Y27484630D01*
X43768587Y27295638D01*
X43737500Y27099361D01*
X43737500Y26900640D01*
X43768587Y26704363D01*
X43829993Y26515371D01*
X43829994Y26515368D01*
X43918732Y26341212D01*
X43920213Y26338306D01*
X44037019Y26177536D01*
X44177536Y26037019D01*
X44260144Y25977001D01*
X44338307Y25920212D01*
X44399654Y25888955D01*
X44431794Y25872579D01*
X44482590Y25824605D01*
X44499500Y25762094D01*
X44499500Y20374928D01*
X44479815Y20307889D01*
X44427011Y20262134D01*
X44357853Y20252190D01*
X44294297Y20281215D01*
X44259140Y20335383D01*
X44258607Y20335162D01*
X44257412Y20338045D01*
X44256841Y20338926D01*
X44256274Y20340794D01*
X44194049Y20491020D01*
X44194047Y20491024D01*
X44103711Y20626221D01*
X44103705Y20626229D01*
X43988728Y20741206D01*
X43988720Y20741212D01*
X43853523Y20831548D01*
X43853519Y20831550D01*
X43703293Y20893775D01*
X43703283Y20893778D01*
X43543807Y20925500D01*
X43543805Y20925500D01*
X43381195Y20925500D01*
X43381193Y20925500D01*
X43221716Y20893778D01*
X43221706Y20893775D01*
X43071480Y20831550D01*
X43071476Y20831548D01*
X42944041Y20746398D01*
X42925996Y20740748D01*
X42910086Y20730523D01*
X42879124Y20726072D01*
X42877364Y20725520D01*
X42875151Y20725500D01*
X42673571Y20725500D01*
X42606532Y20745185D01*
X42560777Y20797989D01*
X42550833Y20867147D01*
X42579858Y20930703D01*
X42604680Y20952602D01*
X42679627Y21002681D01*
X42737836Y21041575D01*
X42863265Y21167004D01*
X42961814Y21314492D01*
X42961885Y21314662D01*
X42979168Y21356388D01*
X43029695Y21478373D01*
X43064301Y21652348D01*
X43064301Y21829730D01*
X43064301Y21829733D01*
X43064300Y21829735D01*
X43029697Y22003698D01*
X43029694Y22003707D01*
X42961817Y22167580D01*
X42961810Y22167593D01*
X42863265Y22315074D01*
X42863262Y22315078D01*
X42737839Y22440501D01*
X42737835Y22440504D01*
X42590354Y22539049D01*
X42590341Y22539056D01*
X42497026Y22577707D01*
X42442622Y22621547D01*
X42420557Y22687841D01*
X42422861Y22716460D01*
X42448517Y22845435D01*
X42448517Y23008050D01*
X42416794Y23167526D01*
X42416793Y23167527D01*
X42416793Y23167531D01*
X42378818Y23259211D01*
X42354566Y23317762D01*
X42354564Y23317766D01*
X42264228Y23452963D01*
X42264222Y23452971D01*
X42149245Y23567948D01*
X42149237Y23567954D01*
X42014040Y23658290D01*
X42014036Y23658292D01*
X41863810Y23720517D01*
X41863800Y23720520D01*
X41704324Y23752242D01*
X41704322Y23752242D01*
X41541712Y23752242D01*
X41541710Y23752242D01*
X41382233Y23720520D01*
X41382223Y23720517D01*
X41231997Y23658292D01*
X41231993Y23658290D01*
X41096796Y23567954D01*
X41096788Y23567948D01*
X40981811Y23452971D01*
X40981805Y23452963D01*
X40891469Y23317766D01*
X40891467Y23317762D01*
X40829242Y23167536D01*
X40829239Y23167526D01*
X40797517Y23008050D01*
X40797517Y23008047D01*
X40797517Y22845437D01*
X40797517Y22845435D01*
X40797516Y22845435D01*
X40829239Y22685959D01*
X40829241Y22685953D01*
X40831819Y22679728D01*
X40849418Y22637242D01*
X40856887Y22567772D01*
X40825612Y22505293D01*
X40765523Y22469641D01*
X40734857Y22465789D01*
X38874500Y22465789D01*
X38807461Y22485474D01*
X38761706Y22538278D01*
X38750500Y22589789D01*
X38750500Y22679728D01*
X38750499Y22679730D01*
X38715896Y22853693D01*
X38715893Y22853702D01*
X38713783Y22858795D01*
X38678943Y22942909D01*
X38648016Y23017575D01*
X38648009Y23017588D01*
X38549464Y23165069D01*
X38549461Y23165073D01*
X38424038Y23290496D01*
X38424034Y23290499D01*
X38276553Y23389044D01*
X38276540Y23389051D01*
X38112667Y23456928D01*
X38112658Y23456931D01*
X37938694Y23491534D01*
X37938691Y23491534D01*
X37902776Y23491534D01*
X37855323Y23500973D01*
X37738070Y23549541D01*
X37738062Y23549543D01*
X37607569Y23575500D01*
X37607565Y23575500D01*
X36904500Y23575500D01*
X36837461Y23595185D01*
X36791706Y23647989D01*
X36780500Y23699500D01*
X36780500Y23779845D01*
X36780499Y23779847D01*
X36772674Y23819185D01*
X36749737Y23934497D01*
X36746983Y23941147D01*
X36689397Y24080173D01*
X36689390Y24080186D01*
X36601789Y24211289D01*
X36601786Y24211293D01*
X36490292Y24322787D01*
X36490288Y24322790D01*
X36359185Y24410391D01*
X36359172Y24410398D01*
X36213501Y24470736D01*
X36213489Y24470739D01*
X36058845Y24501500D01*
X36058842Y24501500D01*
X35941996Y24501500D01*
X35874957Y24521185D01*
X35854315Y24537819D01*
X35745347Y24646787D01*
X35745343Y24646790D01*
X35632188Y24722398D01*
X35587383Y24776010D01*
X35578676Y24845335D01*
X35608830Y24908363D01*
X35668274Y24945082D01*
X35701079Y24949500D01*
X36725638Y24949500D01*
X36792677Y24929815D01*
X36813319Y24913181D01*
X36825961Y24900539D01*
X36825965Y24900536D01*
X36973446Y24801991D01*
X36973459Y24801984D01*
X37079868Y24757909D01*
X37137334Y24734106D01*
X37137336Y24734106D01*
X37137341Y24734104D01*
X37311304Y24699501D01*
X37311307Y24699500D01*
X37311309Y24699500D01*
X37488693Y24699500D01*
X37488694Y24699501D01*
X37576609Y24716988D01*
X37662658Y24734104D01*
X37662661Y24734106D01*
X37662666Y24734106D01*
X37809044Y24794737D01*
X37826540Y24801984D01*
X37826540Y24801985D01*
X37826547Y24801987D01*
X37974035Y24900536D01*
X38099464Y25025965D01*
X38198013Y25173453D01*
X38198149Y25173780D01*
X38234790Y25262241D01*
X38265894Y25337334D01*
X38266239Y25339065D01*
X38280493Y25410727D01*
X38312877Y25472638D01*
X38373593Y25507212D01*
X38443363Y25503473D01*
X38500035Y25462607D01*
X38516671Y25433989D01*
X38568452Y25308978D01*
X38568452Y25308977D01*
X38658788Y25173780D01*
X38658794Y25173772D01*
X38773771Y25058795D01*
X38773777Y25058790D01*
X38908976Y24968453D01*
X38908980Y24968451D01*
X39042415Y24913181D01*
X39059211Y24906224D01*
X39059215Y24906224D01*
X39059216Y24906223D01*
X39218692Y24874500D01*
X39218695Y24874500D01*
X39381307Y24874500D01*
X39512209Y24900539D01*
X39540789Y24906224D01*
X39688204Y24967285D01*
X39691019Y24968451D01*
X39691023Y24968453D01*
X39826223Y25058790D01*
X39941205Y25173772D01*
X39941208Y25173775D01*
X40005327Y25269736D01*
X40031547Y25308977D01*
X40031549Y25308981D01*
X40052290Y25359057D01*
X40093776Y25459211D01*
X40115693Y25569394D01*
X40125500Y25618693D01*
X40125500Y25781308D01*
X40093777Y25940784D01*
X40093776Y25940785D01*
X40093776Y25940789D01*
X40078965Y25976547D01*
X40031549Y26091020D01*
X40031547Y26091024D01*
X39941211Y26226221D01*
X39941205Y26226229D01*
X39826228Y26341206D01*
X39826220Y26341212D01*
X39691023Y26431548D01*
X39691019Y26431550D01*
X39540793Y26493775D01*
X39540783Y26493778D01*
X39381307Y26525500D01*
X39381305Y26525500D01*
X39218695Y26525500D01*
X39218693Y26525500D01*
X39059216Y26493778D01*
X39059206Y26493775D01*
X38908980Y26431550D01*
X38908976Y26431548D01*
X38773779Y26341212D01*
X38773771Y26341206D01*
X38658794Y26226229D01*
X38658788Y26226221D01*
X38568452Y26091024D01*
X38568450Y26091020D01*
X38506225Y25940794D01*
X38506222Y25940784D01*
X38497504Y25896954D01*
X38465119Y25835043D01*
X38404403Y25800469D01*
X38334633Y25804210D01*
X38277962Y25845076D01*
X38261326Y25873694D01*
X38258173Y25881305D01*
X38218726Y25976541D01*
X38198016Y26026541D01*
X38198009Y26026554D01*
X38099464Y26174035D01*
X38099461Y26174039D01*
X37974038Y26299462D01*
X37974034Y26299465D01*
X37826553Y26398010D01*
X37826540Y26398017D01*
X37662667Y26465894D01*
X37662658Y26465897D01*
X37488694Y26500500D01*
X37488691Y26500500D01*
X37311309Y26500500D01*
X37311306Y26500500D01*
X37137341Y26465897D01*
X37137332Y26465894D01*
X36973459Y26398017D01*
X36973446Y26398010D01*
X36825965Y26299465D01*
X36825961Y26299462D01*
X36813319Y26286819D01*
X36751996Y26253334D01*
X36725638Y26250500D01*
X33010100Y26250500D01*
X32943061Y26270185D01*
X32941209Y26271398D01*
X32826549Y26348012D01*
X32826547Y26348013D01*
X32662667Y26415894D01*
X32662658Y26415897D01*
X32488694Y26450500D01*
X32488691Y26450500D01*
X32311309Y26450500D01*
X32311306Y26450500D01*
X32137341Y26415897D01*
X32137332Y26415894D01*
X31973459Y26348017D01*
X31973446Y26348010D01*
X31825965Y26249465D01*
X31825961Y26249462D01*
X31700538Y26124039D01*
X31700535Y26124035D01*
X31601990Y25976554D01*
X31601983Y25976541D01*
X31534106Y25812668D01*
X31534103Y25812659D01*
X31499500Y25638696D01*
X31499500Y25461305D01*
X31534103Y25287342D01*
X31534106Y25287333D01*
X31601983Y25123460D01*
X31601987Y25123453D01*
X31655483Y25043391D01*
X31676361Y24976714D01*
X31657877Y24909334D01*
X31605898Y24862643D01*
X31552381Y24850500D01*
X27994836Y24850500D01*
X27927797Y24870185D01*
X27891734Y24905609D01*
X27821789Y25010290D01*
X27710292Y25121787D01*
X27710288Y25121790D01*
X27579185Y25209391D01*
X27579172Y25209398D01*
X27433501Y25269736D01*
X27433489Y25269739D01*
X27278845Y25300500D01*
X27278842Y25300500D01*
X27121158Y25300500D01*
X27121155Y25300500D01*
X26966510Y25269739D01*
X26966498Y25269736D01*
X26820827Y25209398D01*
X26820814Y25209391D01*
X26689711Y25121790D01*
X26689707Y25121787D01*
X26578213Y25010293D01*
X26578210Y25010289D01*
X26490609Y24879186D01*
X26490602Y24879173D01*
X26430264Y24733502D01*
X26430261Y24733490D01*
X26399500Y24578847D01*
X26399500Y24499500D01*
X26379815Y24432461D01*
X26327011Y24386706D01*
X26275500Y24375500D01*
X18429413Y24375500D01*
X18429397Y24375501D01*
X18421801Y24375501D01*
X18263687Y24375501D01*
X18156331Y24346735D01*
X18110954Y24334576D01*
X18110953Y24334575D01*
X18060840Y24305641D01*
X18060839Y24305640D01*
X18040290Y24293776D01*
X17974029Y24255521D01*
X17974026Y24255519D01*
X17862222Y24143714D01*
X17554328Y23835819D01*
X17493005Y23802334D01*
X17466647Y23799500D01*
X16835563Y23799500D01*
X16768524Y23819185D01*
X16722769Y23871989D01*
X16712825Y23941147D01*
X16713946Y23947692D01*
X16750500Y24131457D01*
X16750500Y24328544D01*
X16712052Y24521830D01*
X16712051Y24521831D01*
X16712051Y24521835D01*
X16669458Y24624663D01*
X16661990Y24694131D01*
X16684757Y24746429D01*
X16693351Y24757909D01*
X16743597Y24892624D01*
X16743598Y24892628D01*
X16749999Y24952156D01*
X16750000Y24952173D01*
X16750000Y25250000D01*
X15959618Y25250000D01*
X16010064Y25300446D01*
X16052851Y25374555D01*
X16075000Y25457213D01*
X16075000Y25542787D01*
X16052851Y25625445D01*
X16010064Y25699554D01*
X16009118Y25700500D01*
X19676355Y25700500D01*
X19743394Y25680815D01*
X19789149Y25628011D01*
X19797972Y25600693D01*
X19806222Y25559216D01*
X19806225Y25559207D01*
X19868450Y25408981D01*
X19868452Y25408977D01*
X19958788Y25273780D01*
X19958794Y25273772D01*
X20073771Y25158795D01*
X20073779Y25158789D01*
X20208976Y25068453D01*
X20208980Y25068451D01*
X20349395Y25010290D01*
X20359211Y25006224D01*
X20359215Y25006224D01*
X20359216Y25006223D01*
X20518692Y24974500D01*
X20518695Y24974500D01*
X20681307Y24974500D01*
X20788598Y24995843D01*
X20840789Y25006224D01*
X20967700Y25058792D01*
X20991019Y25068451D01*
X20991023Y25068453D01*
X21082627Y25129661D01*
X21126225Y25158792D01*
X21241208Y25273775D01*
X21308547Y25374555D01*
X21331547Y25408977D01*
X21331549Y25408981D01*
X21359021Y25475305D01*
X21393776Y25559211D01*
X21406951Y25625445D01*
X21425500Y25718693D01*
X21425500Y25881308D01*
X21393777Y26040784D01*
X21393776Y26040785D01*
X21393776Y26040789D01*
X21393774Y26040794D01*
X21331549Y26191020D01*
X21331547Y26191024D01*
X21241211Y26326221D01*
X21241205Y26326229D01*
X21126228Y26441206D01*
X21126220Y26441212D01*
X20991023Y26531548D01*
X20991019Y26531550D01*
X20840793Y26593775D01*
X20840783Y26593778D01*
X20681307Y26625500D01*
X20681305Y26625500D01*
X20675097Y26625500D01*
X20645656Y26634145D01*
X20615670Y26640668D01*
X20610654Y26644423D01*
X20608058Y26645185D01*
X20587416Y26661819D01*
X20586590Y26662645D01*
X20586588Y26662648D01*
X20467717Y26781519D01*
X20467716Y26781520D01*
X20380904Y26831640D01*
X20380904Y26831641D01*
X20380900Y26831642D01*
X20330785Y26860577D01*
X20178057Y26901501D01*
X20019943Y26901501D01*
X20012347Y26901501D01*
X20012331Y26901500D01*
X14837669Y26901500D01*
X14837653Y26901501D01*
X14830057Y26901501D01*
X14671943Y26901501D01*
X14564587Y26872735D01*
X14519210Y26860576D01*
X14519209Y26860575D01*
X14469096Y26831641D01*
X14469095Y26831640D01*
X14425689Y26806580D01*
X14382285Y26781521D01*
X14382282Y26781519D01*
X14270478Y26669714D01*
X14270471Y26669707D01*
X14263993Y26663230D01*
X14202668Y26629750D01*
X14132976Y26634740D01*
X14128868Y26636356D01*
X14107552Y26645185D01*
X14097036Y26649541D01*
X14097032Y26649542D01*
X14097028Y26649543D01*
X13966535Y26675500D01*
X13966531Y26675500D01*
X11552890Y26675500D01*
X11485851Y26695185D01*
X11465209Y26711819D01*
X10802336Y27374693D01*
X10802332Y27374696D01*
X10691702Y27448617D01*
X10691692Y27448622D01*
X10568763Y27499541D01*
X10568755Y27499543D01*
X10438262Y27525500D01*
X10438258Y27525500D01*
X2916531Y27525500D01*
X2783469Y27525500D01*
X2783464Y27525500D01*
X2652971Y27499543D01*
X2652963Y27499541D01*
X2581395Y27469896D01*
X2530029Y27448620D01*
X2530028Y27448620D01*
X2419398Y27374699D01*
X2419390Y27374693D01*
X1980212Y26935514D01*
X1918889Y26902029D01*
X1916723Y26901578D01*
X1737340Y26865896D01*
X1737332Y26865894D01*
X1573459Y26798017D01*
X1573446Y26798010D01*
X1568887Y26794963D01*
X1502208Y26774088D01*
X1449384Y26784869D01*
X1439814Y26789148D01*
X1426547Y26798013D01*
X1337480Y26834906D01*
X1335884Y26835619D01*
X1310558Y26857215D01*
X1284644Y26878098D01*
X1284079Y26879794D01*
X1282719Y26880954D01*
X1273088Y26912817D01*
X1262579Y26944392D01*
X1262518Y26947788D01*
X1262504Y26947835D01*
X1262516Y26947880D01*
X1262500Y26948818D01*
X1262500Y27099361D01*
X1254559Y27149500D01*
X1231413Y27295636D01*
X1170005Y27484632D01*
X1170005Y27484633D01*
X1119664Y27583431D01*
X1079787Y27661694D01*
X962981Y27822464D01*
X822464Y27962981D01*
X742079Y28021384D01*
X661692Y28079789D01*
X568204Y28127424D01*
X517409Y28175399D01*
X500500Y28237908D01*
X500500Y29375500D01*
X520185Y29442539D01*
X572989Y29488294D01*
X624500Y29499500D01*
X14848505Y29499500D01*
X14915544Y29479815D01*
G37*
G04 #@! TD.AperFunction*
G04 #@! TA.AperFunction,Conductor*
G36*
X27165146Y22754815D02*
G01*
X27210901Y22702011D01*
X27220845Y22632853D01*
X27212669Y22603053D01*
X27207176Y22589789D01*
X27195940Y22562664D01*
X27195938Y22562659D01*
X27161335Y22388696D01*
X27161335Y22272657D01*
X27141650Y22205618D01*
X27088846Y22159863D01*
X27037335Y22148657D01*
X19397255Y22148657D01*
X19376012Y22154895D01*
X19353927Y22156473D01*
X19343140Y22164547D01*
X19330216Y22168342D01*
X19315719Y22185073D01*
X19297991Y22198342D01*
X19293281Y22210967D01*
X19284461Y22221146D01*
X19281310Y22243059D01*
X19273571Y22263805D01*
X19276434Y22276970D01*
X19274517Y22290304D01*
X19283714Y22310444D01*
X19288420Y22332079D01*
X19301691Y22349809D01*
X19303542Y22353860D01*
X19309570Y22360334D01*
X19330520Y22381284D01*
X19330521Y22381287D01*
X19687416Y22738181D01*
X19748739Y22771666D01*
X19775097Y22774500D01*
X27098107Y22774500D01*
X27165146Y22754815D01*
G37*
G04 #@! TD.AperFunction*
G04 #@! TA.AperFunction,Conductor*
G36*
X10589842Y25676138D02*
G01*
X10596320Y25670106D01*
X10697032Y25569394D01*
X10791121Y25475305D01*
X10791124Y25475303D01*
X10791125Y25475302D01*
X10901747Y25401387D01*
X10901751Y25401385D01*
X10901758Y25401380D01*
X10937764Y25386466D01*
X11024691Y25350459D01*
X11155191Y25324501D01*
X11155195Y25324500D01*
X11155196Y25324500D01*
X11288258Y25324500D01*
X13285857Y25324500D01*
X13352896Y25304815D01*
X13398651Y25252011D01*
X13400418Y25247952D01*
X13451983Y25123460D01*
X13451990Y25123447D01*
X13550535Y24975966D01*
X13550538Y24975962D01*
X13675961Y24850539D01*
X13675965Y24850536D01*
X13823446Y24751991D01*
X13823459Y24751984D01*
X13907949Y24716988D01*
X13987334Y24684106D01*
X13987336Y24684106D01*
X13987341Y24684104D01*
X14161304Y24649501D01*
X14161307Y24649500D01*
X14161309Y24649500D01*
X14338693Y24649500D01*
X14338694Y24649501D01*
X14396682Y24661036D01*
X14512658Y24684104D01*
X14512660Y24684105D01*
X14512666Y24684106D01*
X14649525Y24740795D01*
X14718992Y24748263D01*
X14781471Y24716988D01*
X14817123Y24656899D01*
X14814629Y24587074D01*
X14811536Y24578782D01*
X14787950Y24521836D01*
X14787948Y24521832D01*
X14787947Y24521829D01*
X14749500Y24328544D01*
X14749500Y24328541D01*
X14749500Y24131459D01*
X14749500Y24131457D01*
X14749499Y24131457D01*
X14786054Y23947692D01*
X14779827Y23878100D01*
X14736964Y23822923D01*
X14671075Y23799678D01*
X14664437Y23799500D01*
X13327732Y23799500D01*
X13260693Y23819185D01*
X13214938Y23871989D01*
X13204994Y23941147D01*
X13206115Y23947692D01*
X13231179Y24073693D01*
X13231179Y24236308D01*
X13199456Y24395784D01*
X13199455Y24395785D01*
X13199455Y24395789D01*
X13193407Y24410391D01*
X13137228Y24546020D01*
X13137226Y24546024D01*
X13046890Y24681221D01*
X13046884Y24681229D01*
X12931907Y24796206D01*
X12931899Y24796212D01*
X12796702Y24886548D01*
X12796698Y24886550D01*
X12646472Y24948775D01*
X12646462Y24948778D01*
X12486986Y24980500D01*
X12486984Y24980500D01*
X12324374Y24980500D01*
X12324372Y24980500D01*
X12164895Y24948778D01*
X12164885Y24948775D01*
X12014659Y24886550D01*
X12014655Y24886548D01*
X11887220Y24801398D01*
X11820543Y24780520D01*
X11818330Y24780500D01*
X11146686Y24780500D01*
X11117242Y24789146D01*
X11087260Y24795668D01*
X11082244Y24799423D01*
X11079647Y24800185D01*
X11059005Y24816818D01*
X10948893Y24926929D01*
X10948892Y24926931D01*
X10861767Y25014056D01*
X10794815Y25058792D01*
X10794816Y25058792D01*
X10794814Y25058794D01*
X10759324Y25082508D01*
X10759320Y25082510D01*
X10678826Y25115851D01*
X10645486Y25129661D01*
X10585063Y25141680D01*
X10580340Y25142620D01*
X10580338Y25142620D01*
X10524644Y25153698D01*
X10524641Y25153698D01*
X10524640Y25153698D01*
X10474546Y25153698D01*
X10407507Y25173383D01*
X10361752Y25226187D01*
X10351808Y25295345D01*
X10352929Y25301889D01*
X10384221Y25459207D01*
X10384639Y25461309D01*
X10384639Y25582425D01*
X10404324Y25649464D01*
X10457128Y25695219D01*
X10526286Y25705163D01*
X10589842Y25676138D01*
G37*
G04 #@! TD.AperFunction*
G04 #@! TD*
M02*
