G04 #@! TF.GenerationSoftware,KiCad,Pcbnew,9.0.1-9.0.1-0~ubuntu22.04.1*
G04 #@! TF.CreationDate,2025-04-15T01:02:30-04:00*
G04 #@! TF.ProjectId,TTExperimentModule,54544578-7065-4726-996d-656e744d6f64,1.0*
G04 #@! TF.SameCoordinates,PX10e4380PY2d07198*
G04 #@! TF.FileFunction,Copper,L4,Bot*
G04 #@! TF.FilePolarity,Positive*
%FSLAX46Y46*%
G04 Gerber Fmt 4.6, Leading zero omitted, Abs format (unit mm)*
G04 Created by KiCad (PCBNEW 9.0.1-9.0.1-0~ubuntu22.04.1) date 2025-04-15 01:02:30*
%MOMM*%
%LPD*%
G01*
G04 APERTURE LIST*
%ADD10C,0.200000*%
G04 #@! TA.AperFunction,NonConductor*
%ADD11C,0.200000*%
G04 #@! TD*
G04 #@! TA.AperFunction,ComponentPad*
%ADD12C,0.620000*%
G04 #@! TD*
G04 #@! TA.AperFunction,ComponentPad*
%ADD13R,1.000000X1.000000*%
G04 #@! TD*
G04 #@! TA.AperFunction,ComponentPad*
%ADD14C,1.000000*%
G04 #@! TD*
G04 #@! TA.AperFunction,ComponentPad*
%ADD15C,1.524000*%
G04 #@! TD*
G04 #@! TA.AperFunction,ComponentPad*
%ADD16C,4.000000*%
G04 #@! TD*
G04 #@! TA.AperFunction,ComponentPad*
%ADD17O,1.000000X1.000000*%
G04 #@! TD*
G04 #@! TA.AperFunction,ComponentPad*
%ADD18R,1.700000X1.700000*%
G04 #@! TD*
G04 #@! TA.AperFunction,ComponentPad*
%ADD19C,1.700000*%
G04 #@! TD*
G04 #@! TA.AperFunction,ViaPad*
%ADD20C,0.650000*%
G04 #@! TD*
G04 #@! TA.AperFunction,ViaPad*
%ADD21C,0.800000*%
G04 #@! TD*
G04 #@! TA.AperFunction,ViaPad*
%ADD22C,0.600000*%
G04 #@! TD*
G04 #@! TA.AperFunction,Conductor*
%ADD23C,0.250000*%
G04 #@! TD*
G04 #@! TA.AperFunction,Conductor*
%ADD24C,0.200000*%
G04 #@! TD*
G04 #@! TA.AperFunction,Conductor*
%ADD25C,0.350000*%
G04 #@! TD*
G04 #@! TA.AperFunction,Conductor*
%ADD26C,0.300000*%
G04 #@! TD*
G04 #@! TA.AperFunction,Conductor*
%ADD27C,0.160000*%
G04 #@! TD*
G04 APERTURE END LIST*
D10*
D11*
X39664911Y-2358361D02*
X39664911Y-2891695D01*
X39474435Y-2053600D02*
X39283958Y-2625028D01*
X39283958Y-2625028D02*
X39779197Y-2625028D01*
X40922054Y-3196457D02*
X40883959Y-3158361D01*
X40883959Y-3158361D02*
X40807768Y-3044076D01*
X40807768Y-3044076D02*
X40769673Y-2967885D01*
X40769673Y-2967885D02*
X40731578Y-2853600D01*
X40731578Y-2853600D02*
X40693483Y-2663123D01*
X40693483Y-2663123D02*
X40693483Y-2510742D01*
X40693483Y-2510742D02*
X40731578Y-2320266D01*
X40731578Y-2320266D02*
X40769673Y-2205980D01*
X40769673Y-2205980D02*
X40807768Y-2129790D01*
X40807768Y-2129790D02*
X40883959Y-2015504D01*
X40883959Y-2015504D02*
X40922054Y-1977409D01*
X41226816Y-2891695D02*
X41226816Y-2091695D01*
X41226816Y-2396457D02*
X41303006Y-2358361D01*
X41303006Y-2358361D02*
X41455387Y-2358361D01*
X41455387Y-2358361D02*
X41531578Y-2396457D01*
X41531578Y-2396457D02*
X41569673Y-2434552D01*
X41569673Y-2434552D02*
X41607768Y-2510742D01*
X41607768Y-2510742D02*
X41607768Y-2739314D01*
X41607768Y-2739314D02*
X41569673Y-2815504D01*
X41569673Y-2815504D02*
X41531578Y-2853600D01*
X41531578Y-2853600D02*
X41455387Y-2891695D01*
X41455387Y-2891695D02*
X41303006Y-2891695D01*
X41303006Y-2891695D02*
X41226816Y-2853600D01*
X42064911Y-2891695D02*
X41988721Y-2853600D01*
X41988721Y-2853600D02*
X41950626Y-2815504D01*
X41950626Y-2815504D02*
X41912530Y-2739314D01*
X41912530Y-2739314D02*
X41912530Y-2510742D01*
X41912530Y-2510742D02*
X41950626Y-2434552D01*
X41950626Y-2434552D02*
X41988721Y-2396457D01*
X41988721Y-2396457D02*
X42064911Y-2358361D01*
X42064911Y-2358361D02*
X42179197Y-2358361D01*
X42179197Y-2358361D02*
X42255388Y-2396457D01*
X42255388Y-2396457D02*
X42293483Y-2434552D01*
X42293483Y-2434552D02*
X42331578Y-2510742D01*
X42331578Y-2510742D02*
X42331578Y-2739314D01*
X42331578Y-2739314D02*
X42293483Y-2815504D01*
X42293483Y-2815504D02*
X42255388Y-2853600D01*
X42255388Y-2853600D02*
X42179197Y-2891695D01*
X42179197Y-2891695D02*
X42064911Y-2891695D01*
X42560150Y-2358361D02*
X42864912Y-2358361D01*
X42674436Y-2091695D02*
X42674436Y-2777409D01*
X42674436Y-2777409D02*
X42712531Y-2853600D01*
X42712531Y-2853600D02*
X42788721Y-2891695D01*
X42788721Y-2891695D02*
X42864912Y-2891695D01*
X43017293Y-2358361D02*
X43322055Y-2358361D01*
X43131579Y-2091695D02*
X43131579Y-2777409D01*
X43131579Y-2777409D02*
X43169674Y-2853600D01*
X43169674Y-2853600D02*
X43245864Y-2891695D01*
X43245864Y-2891695D02*
X43322055Y-2891695D01*
X43703007Y-2891695D02*
X43626817Y-2853600D01*
X43626817Y-2853600D02*
X43588722Y-2815504D01*
X43588722Y-2815504D02*
X43550626Y-2739314D01*
X43550626Y-2739314D02*
X43550626Y-2510742D01*
X43550626Y-2510742D02*
X43588722Y-2434552D01*
X43588722Y-2434552D02*
X43626817Y-2396457D01*
X43626817Y-2396457D02*
X43703007Y-2358361D01*
X43703007Y-2358361D02*
X43817293Y-2358361D01*
X43817293Y-2358361D02*
X43893484Y-2396457D01*
X43893484Y-2396457D02*
X43931579Y-2434552D01*
X43931579Y-2434552D02*
X43969674Y-2510742D01*
X43969674Y-2510742D02*
X43969674Y-2739314D01*
X43969674Y-2739314D02*
X43931579Y-2815504D01*
X43931579Y-2815504D02*
X43893484Y-2853600D01*
X43893484Y-2853600D02*
X43817293Y-2891695D01*
X43817293Y-2891695D02*
X43703007Y-2891695D01*
X44312532Y-2891695D02*
X44312532Y-2358361D01*
X44312532Y-2434552D02*
X44350627Y-2396457D01*
X44350627Y-2396457D02*
X44426817Y-2358361D01*
X44426817Y-2358361D02*
X44541103Y-2358361D01*
X44541103Y-2358361D02*
X44617294Y-2396457D01*
X44617294Y-2396457D02*
X44655389Y-2472647D01*
X44655389Y-2472647D02*
X44655389Y-2891695D01*
X44655389Y-2472647D02*
X44693484Y-2396457D01*
X44693484Y-2396457D02*
X44769675Y-2358361D01*
X44769675Y-2358361D02*
X44883960Y-2358361D01*
X44883960Y-2358361D02*
X44960151Y-2396457D01*
X44960151Y-2396457D02*
X44998246Y-2472647D01*
X44998246Y-2472647D02*
X44998246Y-2891695D01*
X45303008Y-3196457D02*
X45341103Y-3158361D01*
X45341103Y-3158361D02*
X45417294Y-3044076D01*
X45417294Y-3044076D02*
X45455389Y-2967885D01*
X45455389Y-2967885D02*
X45493484Y-2853600D01*
X45493484Y-2853600D02*
X45531580Y-2663123D01*
X45531580Y-2663123D02*
X45531580Y-2510742D01*
X45531580Y-2510742D02*
X45493484Y-2320266D01*
X45493484Y-2320266D02*
X45455389Y-2205980D01*
X45455389Y-2205980D02*
X45417294Y-2129790D01*
X45417294Y-2129790D02*
X45341103Y-2015504D01*
X45341103Y-2015504D02*
X45303008Y-1977409D01*
D12*
G04 #@! TO.P,STITCH1,1*
G04 #@! TO.N,GND*
X22050000Y27350000D03*
G04 #@! TD*
D13*
G04 #@! TO.P,J1,1,Pin_1*
G04 #@! TO.N,GND*
X1750000Y5250000D03*
D14*
G04 #@! TO.P,J1,2,Pin_2*
G04 #@! TO.N,SDA1*
X1750000Y6520000D03*
G04 #@! TO.P,J1,3,Pin_3*
G04 #@! TO.N,SCL1*
X1750000Y7790000D03*
G04 #@! TD*
D15*
G04 #@! TO.P,PCB1,1,VDD*
G04 #@! TO.N,/vin1*
X0Y27000000D03*
G04 #@! TO.P,PCB1,2,SCL*
G04 #@! TO.N,SCL1*
X0Y19000000D03*
G04 #@! TO.P,PCB1,3,SDA*
G04 #@! TO.N,SDA1*
X0Y11000000D03*
G04 #@! TO.P,PCB1,4,GND*
G04 #@! TO.N,GND*
X0Y3000000D03*
G04 #@! TO.P,PCB1,5,GND*
X45000000Y3000000D03*
G04 #@! TO.P,PCB1,6,SDA*
G04 #@! TO.N,unconnected-(PCB1-SDA-Pad6)*
X45000000Y11000000D03*
G04 #@! TO.P,PCB1,7,SCL*
G04 #@! TO.N,unconnected-(PCB1-SCL-Pad7)*
X45000000Y19000000D03*
G04 #@! TO.P,PCB1,8,VDD*
G04 #@! TO.N,/vin2*
X45000000Y27000000D03*
D16*
G04 #@! TO.P,PCB1,9,GND*
G04 #@! TO.N,GND*
X22500000Y15000000D03*
G04 #@! TD*
D12*
G04 #@! TO.P,STITCH1,1*
G04 #@! TO.N,GND*
X1600000Y27250000D03*
G04 #@! TD*
G04 #@! TO.P,STITCH1,1*
G04 #@! TO.N,GND*
X1850000Y1600000D03*
G04 #@! TD*
G04 #@! TO.P,STITCH1,1*
G04 #@! TO.N,GND*
X3850000Y3050000D03*
G04 #@! TD*
D13*
G04 #@! TO.P,J5,1,Pin_1*
G04 #@! TO.N,GND*
X41200000Y3600000D03*
D14*
G04 #@! TO.P,J5,2,Pin_2*
G04 #@! TO.N,/~{ctrl_sel_rst}*
X39930000Y3600000D03*
G04 #@! TO.P,J5,3,Pin_3*
G04 #@! TO.N,/ctrl_sel_inc*
X38660000Y3600000D03*
G04 #@! TO.P,J5,4,Pin_4*
G04 #@! TO.N,/ctrl_ena*
X37390000Y3600000D03*
G04 #@! TD*
D12*
G04 #@! TO.P,STITCH1,1*
G04 #@! TO.N,GND*
X26400000Y22300000D03*
G04 #@! TD*
G04 #@! TO.P,STITCH1,1*
G04 #@! TO.N,GND*
X8800000Y1500000D03*
G04 #@! TD*
G04 #@! TO.P,STITCH1,1*
G04 #@! TO.N,GND*
X29200000Y27400000D03*
G04 #@! TD*
G04 #@! TO.P,STITCH1,1*
G04 #@! TO.N,GND*
X36500000Y24650000D03*
G04 #@! TD*
D13*
G04 #@! TO.P,J6,1,Pin_1*
G04 #@! TO.N,GND*
X15750000Y25500000D03*
D17*
G04 #@! TO.P,J6,2,Pin_2*
G04 #@! TO.N,/RP2040/RUN*
X15750000Y24230000D03*
G04 #@! TD*
D12*
G04 #@! TO.P,STITCH1,1*
G04 #@! TO.N,GND*
X22100000Y29100000D03*
G04 #@! TD*
G04 #@! TO.P,STITCH1,1*
G04 #@! TO.N,GND*
X20150000Y18000000D03*
G04 #@! TD*
G04 #@! TO.P,STITCH1,1*
G04 #@! TO.N,GND*
X19500000Y24600000D03*
G04 #@! TD*
G04 #@! TO.P,STITCH1,1*
G04 #@! TO.N,GND*
X38750000Y24650000D03*
G04 #@! TD*
G04 #@! TO.P,STITCH1,1*
G04 #@! TO.N,GND*
X6650000Y1600000D03*
G04 #@! TD*
G04 #@! TO.P,STITCH1,1*
G04 #@! TO.N,GND*
X4750000Y17900000D03*
G04 #@! TD*
G04 #@! TO.P,STITCH1,1*
G04 #@! TO.N,GND*
X7650000Y28050000D03*
G04 #@! TD*
D18*
G04 #@! TO.P,J2,1,Pin_1*
G04 #@! TO.N,boot_mode*
X18575000Y28500000D03*
D19*
G04 #@! TO.P,J2,2,Pin_2*
G04 #@! TO.N,Net-(J2-Pin_2)*
X16035000Y28500000D03*
G04 #@! TD*
D12*
G04 #@! TO.P,STITCH1,1*
G04 #@! TO.N,GND*
X25550000Y15850000D03*
G04 #@! TD*
G04 #@! TO.P,STITCH1,1*
G04 #@! TO.N,GND*
X29100000Y25450000D03*
G04 #@! TD*
G04 #@! TO.P,STITCH1,1*
G04 #@! TO.N,GND*
X19500000Y22250000D03*
G04 #@! TD*
G04 #@! TO.P,STITCH1,1*
G04 #@! TO.N,GND*
X8800000Y3150000D03*
G04 #@! TD*
G04 #@! TO.P,STITCH1,1*
G04 #@! TO.N,GND*
X29200000Y29050000D03*
G04 #@! TD*
G04 #@! TO.P,STITCH1,1*
G04 #@! TO.N,GND*
X26400000Y18000000D03*
G04 #@! TD*
D20*
G04 #@! TO.N,GND*
X43724000Y13909571D03*
D21*
G04 #@! TO.N,+5V*
X8790000Y26240000D03*
D20*
G04 #@! TO.N,/ASIC/vdda_all*
X40330000Y7200000D03*
D21*
G04 #@! TO.N,+3V3*
X1000000Y26000000D03*
X37850000Y22591034D03*
G04 #@! TO.N,/ASIC/vccd_all*
X37400000Y25600000D03*
D20*
G04 #@! TO.N,/RP2040/DVDD*
X7974207Y11793360D03*
D22*
G04 #@! TO.N,/ui_in4*
X43700000Y800000D03*
D20*
G04 #@! TO.N,GND*
X32800000Y22200000D03*
D21*
X34750000Y29100000D03*
D22*
G04 #@! TO.N,/ui_in6*
X20000000Y16700000D03*
D20*
G04 #@! TO.N,/RP2040/QSPI_SD3*
X8387498Y9705520D03*
D22*
G04 #@! TO.N,GND*
X12700000Y16500000D03*
X19610573Y10667008D03*
G04 #@! TO.N,/ui_in5*
X19300000Y16000000D03*
D20*
G04 #@! TO.N,GND*
X12250000Y11550000D03*
D22*
G04 #@! TO.N,/uio7*
X7770000Y23240000D03*
D20*
G04 #@! TO.N,GND*
X30800000Y22200000D03*
X33300000Y825000D03*
D21*
G04 #@! TO.N,+3V3*
X14250000Y25550000D03*
D20*
G04 #@! TO.N,GND*
X10550000Y10000000D03*
D22*
G04 #@! TO.N,/uio5*
X36390380Y21750000D03*
D20*
G04 #@! TO.N,boot_mode*
X4946557Y16414302D03*
D21*
G04 #@! TO.N,+3V3*
X28600000Y900000D03*
D22*
G04 #@! TO.N,/mux_sel*
X24800000Y7850000D03*
D21*
G04 #@! TO.N,+5V*
X4100000Y16900000D03*
D20*
G04 #@! TO.N,+3V3*
X5081491Y13127756D03*
D22*
G04 #@! TO.N,/uo_out5*
X13062289Y7805661D03*
D20*
G04 #@! TO.N,+3V3*
X28300000Y11100000D03*
D22*
G04 #@! TO.N,SDA1*
X9480000Y5420000D03*
G04 #@! TO.N,/out2_ena*
X30100000Y1000000D03*
D20*
G04 #@! TO.N,/RP2040/QSPI_SD2*
X12553987Y24135179D03*
D22*
G04 #@! TO.N,/uio2*
X38543264Y19057772D03*
D20*
G04 #@! TO.N,/RP2040/QSPI_SD1*
X2250000Y23500000D03*
D22*
G04 #@! TO.N,/ui_in5*
X20937084Y6136996D03*
D20*
G04 #@! TO.N,/ASIC/vccd_all*
X37259365Y21815289D03*
G04 #@! TO.N,GND*
X13850000Y6480661D03*
D22*
X20068203Y5630254D03*
D20*
G04 #@! TO.N,/RP2040/QSPI_SD0*
X2725000Y9244202D03*
D22*
G04 #@! TO.N,/ASIC/vccd_all*
X33800000Y7000000D03*
D20*
G04 #@! TO.N,/ASIC/vdda_all*
X33000000Y17800000D03*
D21*
G04 #@! TO.N,GND*
X33250000Y28250000D03*
D20*
G04 #@! TO.N,/RP2040/QSPI_SD1*
X4050000Y7450000D03*
G04 #@! TO.N,+3V3*
X1326000Y12800000D03*
X28600000Y3900000D03*
X6900000Y14917282D03*
D22*
G04 #@! TO.N,GND*
X18800000Y5650000D03*
D20*
G04 #@! TO.N,/RP2040/QSPI_SD2*
X5891242Y8490000D03*
D22*
G04 #@! TO.N,/ui_in1*
X13142044Y2750000D03*
G04 #@! TO.N,/uio4*
X10156503Y19455206D03*
G04 #@! TO.N,/uo_out3*
X30722818Y14764594D03*
G04 #@! TO.N,/uio0*
X11970000Y12400000D03*
G04 #@! TO.N,/ui_in3*
X14675085Y3334378D03*
D20*
G04 #@! TO.N,GND*
X35050000Y10100000D03*
D22*
G04 #@! TO.N,/ui_in3*
X43033528Y2829025D03*
D20*
G04 #@! TO.N,GND*
X4275000Y10718591D03*
X31600000Y10100000D03*
D22*
G04 #@! TO.N,/uio4*
X37557653Y20434061D03*
G04 #@! TO.N,/uo_out6*
X22800000Y7600000D03*
G04 #@! TO.N,/uo_out5*
X25100000Y8600000D03*
D20*
G04 #@! TO.N,GND*
X28660670Y16639330D03*
X12300000Y9000000D03*
G04 #@! TO.N,/RP2040/DVDD*
X14818658Y13536483D03*
G04 #@! TO.N,GND*
X42000000Y23700000D03*
G04 #@! TO.N,boot_mode*
X19200000Y18000000D03*
G04 #@! TO.N,GND*
X30000000Y11100000D03*
X17100000Y15300000D03*
X43300000Y14500000D03*
G04 #@! TO.N,/RP2040/QSPI_SD2*
X6380000Y24528198D03*
D21*
G04 #@! TO.N,+3V3*
X10220251Y20403068D03*
D22*
G04 #@! TO.N,/out0_~{rst}*
X23972370Y1850798D03*
G04 #@! TO.N,/uio6*
X35980000Y23701000D03*
D20*
G04 #@! TO.N,GND*
X39500000Y825000D03*
D22*
G04 #@! TO.N,+3V3*
X12536115Y15679237D03*
D21*
G04 #@! TO.N,GND*
X4000000Y29000000D03*
D20*
X3176811Y20262528D03*
D22*
G04 #@! TO.N,/ui_in2*
X13987873Y2834133D03*
G04 #@! TO.N,/ui_in5*
X43997958Y5041657D03*
D20*
G04 #@! TO.N,boot_mode*
X12725000Y17689227D03*
D22*
G04 #@! TO.N,/uo_out3*
X25700000Y14800000D03*
G04 #@! TO.N,/out1_inc*
X26703388Y3850000D03*
D20*
G04 #@! TO.N,/proj_clk*
X8200000Y3905514D03*
D22*
G04 #@! TO.N,/uo_out5*
X26150000Y13529270D03*
D20*
G04 #@! TO.N,GND*
X6600000Y4400000D03*
D22*
G04 #@! TO.N,/RP2040/QSPI_SD1*
X9958953Y24090000D03*
G04 #@! TO.N,/uio6*
X8155000Y22429565D03*
G04 #@! TO.N,/uo_out4*
X23750000Y5800000D03*
D20*
G04 #@! TO.N,/~{ctrl_sel_rst}*
X26100000Y9500000D03*
G04 #@! TO.N,GND*
X33900000Y22200000D03*
X10600000Y11750000D03*
D21*
G04 #@! TO.N,+5V*
X6995000Y17450000D03*
D20*
G04 #@! TO.N,GND*
X16391702Y11451362D03*
D21*
G04 #@! TO.N,/ASIC/vccd_all*
X42163801Y21741039D03*
D22*
G04 #@! TO.N,/uo_out3*
X12185757Y7848368D03*
D21*
G04 #@! TO.N,GND*
X41900000Y29100000D03*
D20*
G04 #@! TO.N,+3V3*
X27904972Y17975000D03*
D22*
G04 #@! TO.N,/uio7*
X35235055Y24025000D03*
D20*
G04 #@! TO.N,GND*
X14674000Y14400000D03*
D22*
G04 #@! TO.N,/~{proj_rst}*
X9000000Y4600000D03*
G04 #@! TO.N,/ui_in6*
X21694288Y6750000D03*
G04 #@! TO.N,/uo_out6*
X30800512Y12852527D03*
D20*
G04 #@! TO.N,GND*
X31900000Y7700000D03*
D22*
G04 #@! TO.N,/ui_in0*
X12874043Y4225000D03*
D21*
G04 #@! TO.N,GND*
X16304712Y9526362D03*
D20*
X42700000Y19200000D03*
D22*
G04 #@! TO.N,/uio2*
X11284951Y18745981D03*
D20*
G04 #@! TO.N,GND*
X4275000Y12728285D03*
G04 #@! TO.N,/RP2040/DVDD*
X6920000Y13500000D03*
G04 #@! TO.N,/ASIC/vdda_all*
X43462500Y20100000D03*
G04 #@! TO.N,GND*
X38850000Y10100000D03*
X5300000Y4700000D03*
G04 #@! TO.N,/ctrl_sel_inc*
X23300000Y2700000D03*
G04 #@! TO.N,GND*
X36650000Y6937919D03*
X39100000Y6400000D03*
G04 #@! TO.N,+3V3*
X32800000Y4000000D03*
G04 #@! TO.N,GND*
X17300000Y25500000D03*
D22*
G04 #@! TO.N,/ui_in4*
X15765253Y12911368D03*
D20*
G04 #@! TO.N,GND*
X43300000Y11900000D03*
X30000000Y3875000D03*
D22*
G04 #@! TO.N,/mux_sel*
X10457804Y7548516D03*
G04 #@! TO.N,/ui_in6*
X44200000Y5867298D03*
G04 #@! TO.N,/out2_ena*
X10900000Y1450798D03*
D20*
G04 #@! TO.N,/ui_in1*
X41800000Y2124000D03*
D22*
G04 #@! TO.N,/ui_in5*
X14616391Y15817887D03*
D20*
G04 #@! TO.N,+3V3*
X20600000Y25800000D03*
D22*
G04 #@! TO.N,/ui_in1*
X41750000Y8250000D03*
D20*
G04 #@! TO.N,/~{ctrl_sel_rst}*
X27425000Y9507229D03*
G04 #@! TO.N,+3V3*
X31927578Y17438083D03*
D22*
G04 #@! TO.N,/ui_in0*
X41351000Y4600000D03*
D20*
G04 #@! TO.N,GND*
X33360148Y24900000D03*
G04 #@! TO.N,/~{proj_rst}*
X39300000Y25700000D03*
G04 #@! TO.N,GND*
X14800000Y27200000D03*
D22*
G04 #@! TO.N,/ui_in7*
X13349000Y17143545D03*
D20*
G04 #@! TO.N,/RP2040/QSPI_SD3*
X6950000Y18950000D03*
D22*
G04 #@! TO.N,/uio1*
X39000000Y18378257D03*
G04 #@! TO.N,/uo_out4*
X31670616Y14020384D03*
G04 #@! TO.N,/uo_out6*
X15750000Y6505661D03*
D20*
G04 #@! TO.N,+3V3*
X7600000Y825000D03*
G04 #@! TO.N,/~{ctrl_sel_rst}*
X38046002Y7228467D03*
G04 #@! TO.N,/RP2040/QSPI_SD0*
X8103854Y8890601D03*
D22*
G04 #@! TO.N,/uo_out7*
X15186123Y12106438D03*
G04 #@! TO.N,/uio3*
X37986937Y19700426D03*
G04 #@! TO.N,/uo_out3*
X24650000Y9350000D03*
D21*
G04 #@! TO.N,GND*
X12000000Y28250000D03*
X40000000Y29100000D03*
D20*
X43724000Y15000000D03*
G04 #@! TO.N,+3V3*
X3300000Y21200000D03*
D22*
G04 #@! TO.N,/uo_out7*
X30741214Y11960000D03*
G04 #@! TO.N,/uio5*
X10227620Y21800288D03*
G04 #@! TO.N,/uio0*
X14950000Y21100000D03*
G04 #@! TO.N,/ui_in4*
X22711766Y12458805D03*
D20*
G04 #@! TO.N,SCL1*
X9607757Y7756000D03*
D21*
G04 #@! TO.N,GND*
X10653820Y25600416D03*
D20*
X11350000Y8050000D03*
D21*
X11000000Y28100000D03*
D20*
X32578971Y3126220D03*
D21*
G04 #@! TO.N,+3V3*
X28061835Y22300000D03*
D22*
G04 #@! TO.N,/ui_in4*
X22506191Y3145449D03*
D20*
G04 #@! TO.N,+3V3*
X1300000Y15800000D03*
D22*
G04 #@! TO.N,/uo_out0*
X34522848Y24398308D03*
G04 #@! TO.N,/uo_out1*
X26550000Y16550000D03*
D20*
G04 #@! TO.N,/ASIC/vdda_all*
X31700000Y11700000D03*
D22*
G04 #@! TO.N,boot_mode*
X6750000Y6250000D03*
D20*
G04 #@! TO.N,+3V3*
X28575000Y6874912D03*
G04 #@! TO.N,GND*
X35300000Y7300000D03*
D22*
G04 #@! TO.N,/ui_in2*
X42376043Y1500000D03*
G04 #@! TO.N,/uio3*
X10160000Y18504546D03*
D20*
G04 #@! TO.N,+3V3*
X4500000Y20570000D03*
D22*
G04 #@! TO.N,/uo_out4*
X15500000Y5250000D03*
D20*
G04 #@! TO.N,/ui_in7*
X42500000Y17100000D03*
D22*
G04 #@! TO.N,/out0_~{rst}*
X9750000Y2200000D03*
D20*
G04 #@! TO.N,/proj_clk*
X9029358Y22395995D03*
D22*
G04 #@! TO.N,GND*
X6855000Y15818990D03*
D20*
G04 #@! TO.N,boot_mode*
X3600000Y6200000D03*
G04 #@! TO.N,/ASIC/vdda_all*
X40775000Y19500000D03*
G04 #@! TO.N,/RP2040/QSPI_SD1*
X6174518Y7076541D03*
G04 #@! TO.N,GND*
X43300000Y11300000D03*
D22*
G04 #@! TO.N,/RP2040/RUN*
X13186115Y11798518D03*
D20*
G04 #@! TO.N,GND*
X36800000Y825000D03*
G04 #@! TO.N,+3V3*
X26225000Y6810969D03*
D22*
G04 #@! TO.N,/uo_out1*
X31997709Y15889000D03*
D21*
G04 #@! TO.N,GND*
X5000000Y29100000D03*
D22*
G04 #@! TO.N,/out1_inc*
X10181018Y2900000D03*
D20*
G04 #@! TO.N,GND*
X44175000Y25450000D03*
G04 #@! TO.N,/~{proj_rst}*
X9760164Y26142984D03*
D21*
G04 #@! TO.N,GND*
X39750000Y27500000D03*
D20*
G04 #@! TO.N,/~{ctrl_sel_rst}*
X30750000Y8800000D03*
G04 #@! TO.N,+3V3*
X12100000Y825000D03*
X18700000Y11175000D03*
D21*
X2900000Y1000000D03*
D22*
G04 #@! TO.N,/uio0*
X39350000Y21100000D03*
D20*
G04 #@! TO.N,+3V3*
X30200000Y6800000D03*
D21*
G04 #@! TO.N,+5V*
X6700000Y25530000D03*
D20*
G04 #@! TO.N,GND*
X38850000Y15200000D03*
D21*
G04 #@! TO.N,+3V3*
X13795409Y21006071D03*
D22*
G04 #@! TO.N,/proj_clk*
X41075000Y18564279D03*
D21*
G04 #@! TO.N,GND*
X13500000Y27500000D03*
D22*
G04 #@! TO.N,/uo_out6*
X23950000Y12461749D03*
D20*
G04 #@! TO.N,GND*
X35000000Y15200000D03*
X11600000Y2900000D03*
D22*
G04 #@! TO.N,/uo_out4*
X24891687Y14272095D03*
D20*
G04 #@! TO.N,/ASIC/vccd_all*
X31800000Y22200000D03*
G04 #@! TO.N,/~{proj_rst}*
X40325000Y20300000D03*
G04 #@! TO.N,GND*
X16300000Y5800000D03*
D22*
G04 #@! TO.N,/uo_out5*
X30090972Y13502527D03*
G04 #@! TO.N,/RP2040/RUN*
X15850000Y22150000D03*
D20*
G04 #@! TO.N,GND*
X42010677Y25812535D03*
D22*
G04 #@! TO.N,/uo_out2*
X29353453Y15350000D03*
G04 #@! TO.N,/uo_out0*
X27200000Y24500000D03*
G04 #@! TO.N,/uio1*
X11406699Y17904743D03*
G04 #@! TO.N,/ui_in6*
X14680462Y16636018D03*
D21*
G04 #@! TO.N,+3V3*
X2000000Y26000000D03*
D20*
G04 #@! TO.N,GND*
X37600000Y12650000D03*
D22*
G04 #@! TO.N,/uo_out2*
X31366734Y15319461D03*
D20*
G04 #@! TO.N,/proj_clk*
X41623017Y22926742D03*
D21*
G04 #@! TO.N,/ASIC/vccd_all*
X32400000Y25550000D03*
G04 #@! TD*
D23*
G04 #@! TO.N,GND*
X38350000Y25050000D02*
X38350000Y26350000D01*
D24*
G04 #@! TO.N,/~{ctrl_sel_rst}*
X28282229Y8650000D02*
X30600000Y8650000D01*
G04 #@! TO.N,/ui_in3*
X43004503Y2800000D02*
X43033528Y2829025D01*
G04 #@! TO.N,/ui_in5*
X19300000Y16000000D02*
X14700000Y16000000D01*
D25*
G04 #@! TO.N,+3V3*
X3174202Y725798D02*
X28425798Y725798D01*
D24*
G04 #@! TO.N,/mux_sel*
X18010000Y8200000D02*
X24450000Y8200000D01*
G04 #@! TO.N,+3V3*
X20600000Y25800000D02*
X20099000Y26301000D01*
X20099000Y26301000D02*
X14751000Y26301000D01*
G04 #@! TO.N,/out0_~{rst}*
X9849202Y2100798D02*
X9750000Y2200000D01*
D23*
G04 #@! TO.N,+3V3*
X2000000Y26000000D02*
X1000000Y26000000D01*
D25*
X3930000Y20570000D02*
X3300000Y21200000D01*
D23*
X31590661Y17775000D02*
X28104972Y17775000D01*
D25*
X2900000Y1000000D02*
X3174202Y725798D01*
D24*
G04 #@! TO.N,/ui_in4*
X16076621Y12600000D02*
X15765253Y12911368D01*
G04 #@! TO.N,/uio2*
X38501036Y19100000D02*
X11323582Y19100000D01*
G04 #@! TO.N,/ui_in4*
X22760742Y3400000D02*
X23600000Y3400000D01*
D25*
G04 #@! TO.N,+3V3*
X4700000Y20370000D02*
X10187183Y20370000D01*
D24*
G04 #@! TO.N,/RP2040/QSPI_SD0*
X2804202Y9165000D02*
X2725000Y9244202D01*
G04 #@! TO.N,/ui_in2*
X42288286Y1412243D02*
X42376043Y1500000D01*
X41137757Y1412243D02*
X42288286Y1412243D01*
D25*
G04 #@! TO.N,+3V3*
X28061835Y22300000D02*
X28661835Y22900000D01*
D23*
X31927578Y17438083D02*
X31590661Y17775000D01*
G04 #@! TO.N,SCL1*
X4589467Y8175533D02*
X4975000Y7790000D01*
X4975000Y7790000D02*
X9573757Y7790000D01*
D24*
G04 #@! TO.N,/uo_out4*
X25011255Y14152527D02*
X31538473Y14152527D01*
G04 #@! TO.N,/uo_out1*
X31997709Y15889000D02*
X31886709Y16000000D01*
G04 #@! TO.N,/ui_in4*
X39925000Y1500000D02*
X40625000Y800000D01*
G04 #@! TO.N,/mux_sel*
X24450000Y8200000D02*
X24800000Y7850000D01*
G04 #@! TO.N,/uo_out6*
X15844339Y6600000D02*
X15750000Y6505661D01*
G04 #@! TO.N,/uo_out0*
X34566878Y24285451D02*
X34566878Y24354278D01*
D23*
G04 #@! TO.N,/RP2040/QSPI_SD2*
X6380000Y24528198D02*
X6631802Y24780000D01*
D24*
G04 #@! TO.N,/RP2040/QSPI_SD1*
X6147977Y7050000D02*
X6174518Y7076541D01*
G04 #@! TO.N,/uo_out2*
X31366734Y15319461D02*
X31286195Y15400000D01*
D23*
G04 #@! TO.N,+5V*
X4100000Y16900000D02*
X4300000Y17100000D01*
D24*
G04 #@! TO.N,/ui_in5*
X23025001Y6475001D02*
X24494999Y6475001D01*
D23*
G04 #@! TO.N,+3V3*
X6830140Y14917282D02*
X6900000Y14917282D01*
D24*
G04 #@! TO.N,/uio5*
X10327332Y21900000D02*
X10227620Y21800288D01*
G04 #@! TO.N,/RP2040/QSPI_SD0*
X7943349Y8730096D02*
X7943349Y9051106D01*
G04 #@! TO.N,/ui_in4*
X40625000Y800000D02*
X43700000Y800000D01*
D23*
G04 #@! TO.N,SCL1*
X9573757Y7790000D02*
X9607757Y7756000D01*
G04 #@! TO.N,/ASIC/vdda_all*
X41300000Y20100000D02*
X40775000Y19575000D01*
D24*
G04 #@! TO.N,/ui_in2*
X14122006Y2700000D02*
X21151415Y2700000D01*
G04 #@! TO.N,/ui_in3*
X22175000Y4375000D02*
X24175000Y4375000D01*
X14675085Y3334378D02*
X21134378Y3334378D01*
D23*
G04 #@! TO.N,+3V3*
X6600000Y15000000D02*
X6747422Y15000000D01*
X18825000Y11300000D02*
X18700000Y11175000D01*
D24*
G04 #@! TO.N,/uo_out0*
X27200000Y24450000D02*
X27400000Y24250000D01*
D23*
G04 #@! TO.N,+3V3*
X28100000Y11300000D02*
X18825000Y11300000D01*
D25*
X28425798Y725798D02*
X28600000Y900000D01*
D23*
X1785270Y13385270D02*
X4823977Y13385270D01*
G04 #@! TO.N,+5V*
X6350000Y17100000D02*
X6700000Y17450000D01*
G04 #@! TO.N,SDA1*
X1750000Y6520000D02*
X2290050Y6520000D01*
D24*
G04 #@! TO.N,/uo_out0*
X34566878Y24354278D02*
X34522848Y24398308D01*
D23*
G04 #@! TO.N,/ASIC/vccd_all*
X32450000Y25550000D02*
X32400000Y25550000D01*
D24*
G04 #@! TO.N,/uo_out4*
X20626000Y5001000D02*
X21225000Y5600000D01*
G04 #@! TO.N,/uio1*
X11934951Y18476742D02*
X11934951Y18650000D01*
G04 #@! TO.N,/out0_~{rst}*
X22808593Y2011407D02*
X22720000Y2100000D01*
D23*
G04 #@! TO.N,GND*
X44100000Y3900000D02*
X45000000Y3000000D01*
D24*
G04 #@! TO.N,/ui_in2*
X21151415Y2700000D02*
X22426415Y3975000D01*
G04 #@! TO.N,/uo_out5*
X13062289Y7905239D02*
X13062289Y7805661D01*
G04 #@! TO.N,/uo_out0*
X27200000Y24500000D02*
X27200000Y24450000D01*
D23*
G04 #@! TO.N,+3V3*
X6450000Y15150000D02*
X6600000Y15000000D01*
G04 #@! TO.N,SCL1*
X2135533Y8175533D02*
X4589467Y8175533D01*
D24*
G04 #@! TO.N,/RP2040/QSPI_SD0*
X7943349Y9051106D02*
X7829455Y9165000D01*
G04 #@! TO.N,/uio6*
X18850000Y22750000D02*
X10090000Y22750000D01*
G04 #@! TO.N,/uio0*
X14950000Y21100000D02*
X39350000Y21100000D01*
G04 #@! TO.N,/ui_in5*
X14700000Y16000000D02*
X14616391Y15916391D01*
G04 #@! TO.N,/ui_in4*
X24700000Y2300000D02*
X30075000Y2300000D01*
G04 #@! TO.N,/uio3*
X11270536Y19650000D02*
X10425742Y18805206D01*
G04 #@! TO.N,/uo_out3*
X25750000Y14750000D02*
X25800000Y14700000D01*
G04 #@! TO.N,/uio6*
X35980000Y23701000D02*
X35654000Y23375000D01*
G04 #@! TO.N,/RP2040/QSPI_SD0*
X8103854Y8890601D02*
X7943349Y8730096D01*
D25*
G04 #@! TO.N,+3V3*
X28661835Y22900000D02*
X37541034Y22900000D01*
D23*
G04 #@! TO.N,SCL1*
X1750000Y7790000D02*
X2135533Y8175533D01*
D24*
G04 #@! TO.N,boot_mode*
X12940181Y18000000D02*
X12725000Y17784819D01*
D25*
G04 #@! TO.N,+3V3*
X37541034Y22900000D02*
X37850000Y22591034D01*
D23*
G04 #@! TO.N,GND*
X27640000Y10500000D02*
X19777581Y10500000D01*
D24*
G04 #@! TO.N,/uo_out1*
X26854325Y16550000D02*
X26550000Y16550000D01*
G04 #@! TO.N,/ui_in2*
X22426415Y3975000D02*
X23825000Y3975000D01*
G04 #@! TO.N,/ui_in4*
X22711766Y12458805D02*
X22570571Y12600000D01*
D23*
G04 #@! TO.N,GND*
X39500000Y27500000D02*
X39750000Y27500000D01*
D24*
G04 #@! TO.N,/ui_in7*
X42500000Y17100000D02*
X42125000Y16725000D01*
G04 #@! TO.N,/uo_out6*
X22800000Y7600000D02*
X21480849Y7600000D01*
G04 #@! TO.N,/ui_in4*
X30875000Y1500000D02*
X39925000Y1500000D01*
G04 #@! TO.N,/uo_out0*
X34531427Y24250000D02*
X34566878Y24285451D01*
G04 #@! TO.N,/uio3*
X10160000Y18787897D02*
X10160000Y18504546D01*
G04 #@! TO.N,/uo_out3*
X29622692Y14700000D02*
X29722692Y14800000D01*
G04 #@! TO.N,boot_mode*
X6551041Y16700000D02*
X11590625Y16700000D01*
G04 #@! TO.N,/ui_in2*
X23825000Y3975000D02*
X25000000Y2800000D01*
G04 #@! TO.N,/uo_out4*
X24891687Y14272095D02*
X25011255Y14152527D01*
G04 #@! TO.N,/uio1*
X11398729Y18095981D02*
X11554190Y18095981D01*
D25*
G04 #@! TO.N,+3V3*
X4500000Y20570000D02*
X3930000Y20570000D01*
D24*
G04 #@! TO.N,/uo_out4*
X21225000Y5600000D02*
X23550000Y5600000D01*
G04 #@! TO.N,/RP2040/QSPI_SD1*
X2250000Y23500000D02*
X2610000Y23860000D01*
G04 #@! TO.N,/out0_~{rst}*
X23972370Y2011407D02*
X22808593Y2011407D01*
D26*
G04 #@! TO.N,/ASIC/vccd_all*
X32500000Y25600000D02*
X37400000Y25600000D01*
D24*
G04 #@! TO.N,/ui_in3*
X31500000Y3200000D02*
X32200000Y2500000D01*
G04 #@! TO.N,/uo_out0*
X27250000Y24250000D02*
X27400000Y24250000D01*
D23*
G04 #@! TO.N,+3V3*
X1326000Y12800000D02*
X1326000Y12926000D01*
G04 #@! TO.N,GND*
X28040000Y10100000D02*
X27640000Y10500000D01*
D24*
G04 #@! TO.N,/ui_in6*
X43797958Y5750000D02*
X43915256Y5867298D01*
D23*
G04 #@! TO.N,/RP2040/QSPI_SD2*
X6631802Y24780000D02*
X11909166Y24780000D01*
G04 #@! TO.N,+3V3*
X1326000Y12926000D02*
X1785270Y13385270D01*
D24*
G04 #@! TO.N,/RP2040/QSPI_SD1*
X4050000Y7450000D02*
X4450000Y7050000D01*
G04 #@! TO.N,/uo_out3*
X30687412Y14800000D02*
X30722818Y14764594D01*
G04 #@! TO.N,/ui_in0*
X24975000Y5175000D02*
X21600000Y5175000D01*
G04 #@! TO.N,/mux_sel*
X10850659Y7155661D02*
X16965661Y7155661D01*
D23*
G04 #@! TO.N,SDA1*
X9294320Y5389876D02*
X9324444Y5420000D01*
D24*
G04 #@! TO.N,/uo_out3*
X25800000Y14700000D02*
X29622692Y14700000D01*
X29722692Y14800000D02*
X30687412Y14800000D01*
D23*
G04 #@! TO.N,/RP2040/QSPI_SD2*
X11909166Y24780000D02*
X12553987Y24135179D01*
D24*
G04 #@! TO.N,/uo_out4*
X23550000Y5600000D02*
X23750000Y5800000D01*
G04 #@! TO.N,/ui_in5*
X14616391Y15916391D02*
X14616391Y15817887D01*
G04 #@! TO.N,+3V3*
X14250000Y25800000D02*
X14250000Y25550000D01*
G04 #@! TO.N,/ui_in2*
X40650000Y1900000D02*
X41137757Y1412243D01*
D23*
G04 #@! TO.N,/ASIC/vccd_all*
X42163801Y21741039D02*
X42163803Y21741038D01*
G04 #@! TO.N,+3V3*
X1300000Y15800000D02*
X1950000Y15150000D01*
D24*
G04 #@! TO.N,/out1_inc*
X25500000Y3850000D02*
X24575000Y4775000D01*
G04 #@! TO.N,/uo_out2*
X31286195Y15400000D02*
X29403453Y15400000D01*
G04 #@! TO.N,/out2_ena*
X26621000Y1601000D02*
X26220798Y1200798D01*
D23*
G04 #@! TO.N,+3V3*
X28104972Y17775000D02*
X27904972Y17975000D01*
D24*
G04 #@! TO.N,/RP2040/QSPI_SD1*
X2610000Y23860000D02*
X9728953Y23860000D01*
G04 #@! TO.N,/ui_in2*
X30800000Y2800000D02*
X31700000Y1900000D01*
G04 #@! TO.N,/ui_in6*
X26060000Y5750000D02*
X43797958Y5750000D01*
D23*
G04 #@! TO.N,+3V3*
X1950000Y15150000D02*
X6450000Y15150000D01*
D27*
X6860000Y14947142D02*
X6889860Y14917282D01*
D24*
G04 #@! TO.N,/uio1*
X11554190Y18095981D02*
X11934951Y18476742D01*
G04 #@! TO.N,/RP2040/DVDD*
X6955000Y13600000D02*
X14755141Y13600000D01*
G04 #@! TO.N,/uio3*
X10177309Y18805206D02*
X10160000Y18787897D01*
G04 #@! TO.N,boot_mode*
X6750000Y6250000D02*
X6700000Y6200000D01*
D23*
G04 #@! TO.N,GND*
X41200000Y3600000D02*
X42350000Y3600000D01*
D24*
G04 #@! TO.N,boot_mode*
X19200000Y18000000D02*
X12940181Y18000000D01*
D27*
G04 #@! TO.N,+3V3*
X6889860Y14917282D02*
X6900000Y14917282D01*
D24*
G04 #@! TO.N,/ui_in6*
X14695444Y16651000D02*
X14680462Y16636018D01*
G04 #@! TO.N,boot_mode*
X4946557Y16414302D02*
X6265343Y16414302D01*
X6700000Y6200000D02*
X3600000Y6200000D01*
X12579852Y17689227D02*
X12725000Y17689227D01*
G04 #@! TO.N,/uo_out0*
X27400000Y24250000D02*
X34531427Y24250000D01*
G04 #@! TO.N,/uo_out1*
X27404325Y16000000D02*
X26854325Y16550000D01*
G04 #@! TO.N,/uio3*
X37986937Y19700426D02*
X37936511Y19650000D01*
G04 #@! TO.N,/uo_out5*
X30090972Y13502527D02*
X30088627Y13504872D01*
G04 #@! TO.N,/ui_in3*
X24175000Y4375000D02*
X25350000Y3200000D01*
D23*
G04 #@! TO.N,GND*
X38350000Y26350000D02*
X39500000Y27500000D01*
D24*
G04 #@! TO.N,/uio6*
X19475000Y23375000D02*
X18850000Y22750000D01*
G04 #@! TO.N,/out0_~{rst}*
X23972370Y1850798D02*
X23972370Y2011407D01*
D23*
G04 #@! TO.N,+5V*
X6700000Y17450000D02*
X6995000Y17450000D01*
D24*
G04 #@! TO.N,/uo_out1*
X31886709Y16000000D02*
X27404325Y16000000D01*
G04 #@! TO.N,/ui_in4*
X22506191Y3145449D02*
X22760742Y3400000D01*
X22570571Y12600000D02*
X16076621Y12600000D01*
D26*
G04 #@! TO.N,/ASIC/vccd_all*
X37259365Y21815289D02*
X42089552Y21815289D01*
D24*
G04 #@! TO.N,boot_mode*
X12725000Y17784819D02*
X12725000Y17689227D01*
G04 #@! TO.N,/uo_out3*
X25700000Y14800000D02*
X25900000Y14800000D01*
G04 #@! TO.N,/~{ctrl_sel_rst}*
X30600000Y8650000D02*
X30750000Y8800000D01*
D25*
G04 #@! TO.N,+3V3*
X2000000Y26000000D02*
X3070078Y27070078D01*
D24*
G04 #@! TO.N,/uo_out4*
X15749000Y5001000D02*
X20626000Y5001000D01*
X31538473Y14152527D02*
X31670616Y14020384D01*
D25*
G04 #@! TO.N,+3V3*
X3070078Y27070078D02*
X10440134Y27070078D01*
D24*
G04 #@! TO.N,/uo_out4*
X15500000Y5250000D02*
X15749000Y5001000D01*
G04 #@! TO.N,/ui_in4*
X23600000Y3400000D02*
X24700000Y2300000D01*
D26*
G04 #@! TO.N,/ASIC/vccd_all*
X42089552Y21815289D02*
X42163803Y21741038D01*
D24*
G04 #@! TO.N,/~{ctrl_sel_rst}*
X27425000Y9507229D02*
X28282229Y8650000D01*
G04 #@! TO.N,/ui_in3*
X25350000Y3200000D02*
X31500000Y3200000D01*
G04 #@! TO.N,/uo_out5*
X30088627Y13504872D02*
X26174398Y13504872D01*
X26174398Y13504872D02*
X26150000Y13529270D01*
G04 #@! TO.N,/ui_in6*
X19951000Y16651000D02*
X14695444Y16651000D01*
D23*
G04 #@! TO.N,/ASIC/vdda_all*
X40775000Y19575000D02*
X40775000Y19500000D01*
X43462500Y20100000D02*
X41300000Y20100000D01*
D24*
G04 #@! TO.N,/~{ctrl_sel_rst}*
X27425000Y9507229D02*
X27417771Y9500000D01*
G04 #@! TO.N,/RP2040/QSPI_SD0*
X7829455Y9165000D02*
X2804202Y9165000D01*
D25*
G04 #@! TO.N,+3V3*
X14250000Y25650000D02*
X14250000Y25550000D01*
D24*
G04 #@! TO.N,/ui_in6*
X20000000Y16700000D02*
X19951000Y16651000D01*
D23*
G04 #@! TO.N,/ASIC/vccd_all*
X32500000Y25600000D02*
X32450000Y25550000D01*
D24*
G04 #@! TO.N,/uo_out6*
X23950000Y12461749D02*
X24158251Y12670000D01*
G04 #@! TO.N,/out2_ena*
X29499000Y1601000D02*
X26621000Y1601000D01*
G04 #@! TO.N,/uo_out7*
X22144894Y12106438D02*
X15186123Y12106438D01*
G04 #@! TO.N,/out1_inc*
X10856018Y3575000D02*
X10181018Y2900000D01*
G04 #@! TO.N,boot_mode*
X6265343Y16414302D02*
X6551041Y16700000D01*
G04 #@! TO.N,/ui_in4*
X30075000Y2300000D02*
X30875000Y1500000D01*
G04 #@! TO.N,/ui_in2*
X31700000Y1900000D02*
X40650000Y1900000D01*
G04 #@! TO.N,/ui_in7*
X29435670Y17314330D02*
X13519785Y17314330D01*
X13519785Y17314330D02*
X13349000Y17143545D01*
G04 #@! TO.N,/uo_out2*
X29403453Y15400000D02*
X29353453Y15350000D01*
G04 #@! TO.N,/ui_in5*
X20937084Y6136996D02*
X22686996Y6136996D01*
G04 #@! TO.N,/ui_in0*
X20875000Y4450000D02*
X13099043Y4450000D01*
G04 #@! TO.N,/ui_in7*
X30025000Y16725000D02*
X29435670Y17314330D01*
X42125000Y16725000D02*
X30025000Y16725000D01*
G04 #@! TO.N,/uio4*
X10325947Y19455206D02*
X10156503Y19455206D01*
D23*
G04 #@! TO.N,GND*
X38750000Y24650000D02*
X38350000Y25050000D01*
D24*
G04 #@! TO.N,/uio5*
X15069239Y21900000D02*
X10327332Y21900000D01*
G04 #@! TO.N,boot_mode*
X11590625Y16700000D02*
X12579852Y17689227D01*
G04 #@! TO.N,/ui_in6*
X43915256Y5867298D02*
X44200000Y5867298D01*
G04 #@! TO.N,/~{ctrl_sel_rst}*
X27417771Y9500000D02*
X26100000Y9500000D01*
D23*
G04 #@! TO.N,GND*
X42350000Y3600000D02*
X42650000Y3900000D01*
D25*
G04 #@! TO.N,+3V3*
X10615340Y20798157D02*
X10220251Y20403068D01*
D23*
X26235969Y6800000D02*
X26225000Y6810969D01*
X28300000Y11100000D02*
X28100000Y11300000D01*
X4823977Y13385270D02*
X5081491Y13127756D01*
D24*
G04 #@! TO.N,/RP2040/QSPI_SD1*
X4450000Y7050000D02*
X6147977Y7050000D01*
G04 #@! TO.N,/ui_in2*
X25000000Y2800000D02*
X30800000Y2800000D01*
X13987873Y2834133D02*
X14122006Y2700000D01*
G04 #@! TO.N,/out2_ena*
X23703131Y1200798D02*
X23378929Y1525000D01*
G04 #@! TO.N,+3V3*
X14751000Y26301000D02*
X14250000Y25800000D01*
D23*
X30200000Y6800000D02*
X26235969Y6800000D01*
D24*
G04 #@! TO.N,/ui_in3*
X41125000Y2500000D02*
X41425000Y2800000D01*
D25*
G04 #@! TO.N,+3V3*
X13587495Y20798157D02*
X10615340Y20798157D01*
D24*
G04 #@! TO.N,/ui_in6*
X21819289Y6875001D02*
X24934999Y6875001D01*
G04 #@! TO.N,/uio5*
X15421082Y21548157D02*
X15069239Y21900000D01*
G04 #@! TO.N,/out0_~{rst}*
X11169239Y2100798D02*
X9849202Y2100798D01*
G04 #@! TO.N,/mux_sel*
X10457804Y7548516D02*
X10850659Y7155661D01*
G04 #@! TO.N,/ui_in3*
X41425000Y2800000D02*
X43004503Y2800000D01*
X21134378Y3334378D02*
X22175000Y4375000D01*
X32200000Y2500000D02*
X41125000Y2500000D01*
D23*
G04 #@! TO.N,GND*
X42650000Y3900000D02*
X44100000Y3900000D01*
G04 #@! TO.N,+5V*
X8790000Y25743209D02*
X8790000Y26240000D01*
G04 #@! TO.N,SDA1*
X3420174Y5389876D02*
X9294320Y5389876D01*
D24*
G04 #@! TO.N,/uio5*
X36188537Y21548157D02*
X15421082Y21548157D01*
D25*
G04 #@! TO.N,+3V3*
X10440134Y27070078D02*
X11510212Y26000000D01*
D24*
G04 #@! TO.N,/uio5*
X36390380Y21750000D02*
X36188537Y21548157D01*
D25*
G04 #@! TO.N,+3V3*
X4500000Y20570000D02*
X4700000Y20370000D01*
X11510212Y26000000D02*
X13900000Y26000000D01*
D23*
G04 #@! TO.N,+5V*
X8576791Y25530000D02*
X8790000Y25743209D01*
D25*
G04 #@! TO.N,+3V3*
X13795409Y21006071D02*
X13587495Y20798157D01*
D24*
G04 #@! TO.N,/ui_in0*
X41351000Y4600000D02*
X41251000Y4700000D01*
G04 #@! TO.N,/uio1*
X28384567Y18450000D02*
X38928257Y18450000D01*
D27*
G04 #@! TO.N,+3V3*
X6860000Y15001917D02*
X6860000Y14947142D01*
D23*
G04 #@! TO.N,+5V*
X4300000Y17100000D02*
X6350000Y17100000D01*
D27*
G04 #@! TO.N,+3V3*
X12536115Y15679237D02*
X7537320Y15679237D01*
D24*
G04 #@! TO.N,/uio7*
X35235055Y24025000D02*
X34985055Y23775000D01*
G04 #@! TO.N,/uo_out5*
X13877050Y8720000D02*
X13062289Y7905239D01*
D23*
G04 #@! TO.N,+5V*
X6700000Y25530000D02*
X8576791Y25530000D01*
D25*
G04 #@! TO.N,+3V3*
X10187183Y20370000D02*
X10220251Y20403068D01*
X13900000Y26000000D02*
X14250000Y25650000D01*
D23*
X6747422Y15000000D02*
X6830140Y14917282D01*
D27*
X7537320Y15679237D02*
X6860000Y15001917D01*
D24*
G04 #@! TO.N,/out1_inc*
X13515000Y3575000D02*
X10856018Y3575000D01*
G04 #@! TO.N,/ui_in0*
X21600000Y5175000D02*
X20875000Y4450000D01*
G04 #@! TO.N,/uio6*
X10090000Y22750000D02*
X9780000Y23060000D01*
G04 #@! TO.N,/out2_ena*
X23378929Y1525000D02*
X10974202Y1525000D01*
X10974202Y1525000D02*
X10900000Y1450798D01*
G04 #@! TO.N,/ui_in5*
X22686996Y6136996D02*
X23025001Y6475001D01*
G04 #@! TO.N,/uio6*
X8785435Y23060000D02*
X8155000Y22429565D01*
G04 #@! TO.N,/ui_in6*
X21694288Y6750000D02*
X21819289Y6875001D01*
G04 #@! TO.N,/uio4*
X37303592Y20180000D02*
X11050741Y20180000D01*
G04 #@! TO.N,/mux_sel*
X16965661Y7155661D02*
X18010000Y8200000D01*
G04 #@! TO.N,/uo_out6*
X21480849Y7600000D02*
X20480849Y6600000D01*
G04 #@! TO.N,/ui_in6*
X24934999Y6875001D02*
X26060000Y5750000D01*
G04 #@! TO.N,/ui_in5*
X43689615Y5350000D02*
X43997958Y5041657D01*
X24494999Y6475001D02*
X25620000Y5350000D01*
G04 #@! TO.N,/out0_~{rst}*
X22720000Y2100000D02*
X11170037Y2100000D01*
G04 #@! TO.N,/out1_inc*
X24575000Y4775000D02*
X21975000Y4775000D01*
G04 #@! TO.N,/uio6*
X9780000Y23060000D02*
X8785435Y23060000D01*
G04 #@! TO.N,/uo_out6*
X20480849Y6600000D02*
X15844339Y6600000D01*
G04 #@! TO.N,/out1_inc*
X21975000Y4775000D02*
X21160000Y3960000D01*
G04 #@! TO.N,/ui_in5*
X25620000Y5350000D02*
X43689615Y5350000D01*
G04 #@! TO.N,/out0_~{rst}*
X11170037Y2100000D02*
X11169239Y2100798D01*
G04 #@! TO.N,/out2_ena*
X30100000Y1000000D02*
X29499000Y1601000D01*
G04 #@! TO.N,/uo_out7*
X30741214Y11960000D02*
X30631214Y11850000D01*
G04 #@! TO.N,/RP2040/QSPI_SD1*
X9728953Y23860000D02*
X9958953Y24090000D01*
G04 #@! TO.N,/uio7*
X7990000Y23460000D02*
X7770000Y23240000D01*
G04 #@! TO.N,/uio2*
X11189460Y18841472D02*
X11284951Y18745981D01*
G04 #@! TO.N,/uio7*
X11470000Y23320000D02*
X11330000Y23460000D01*
G04 #@! TO.N,/uio2*
X11189460Y18965878D02*
X11189460Y18841472D01*
G04 #@! TO.N,/uio7*
X34985055Y23775000D02*
X18342744Y23775000D01*
G04 #@! TO.N,/uio4*
X37557653Y20434061D02*
X37303592Y20180000D01*
G04 #@! TO.N,/uio7*
X17887744Y23320000D02*
X11470000Y23320000D01*
G04 #@! TO.N,/uo_out6*
X30617985Y12670000D02*
X30800512Y12852527D01*
G04 #@! TO.N,/uio2*
X11323582Y19100000D02*
X11189460Y18965878D01*
G04 #@! TO.N,/uio3*
X10425742Y18805206D02*
X10177309Y18805206D01*
G04 #@! TO.N,/uio4*
X11050741Y20180000D02*
X10325947Y19455206D01*
G04 #@! TO.N,/uio3*
X37936511Y19650000D02*
X11270536Y19650000D01*
G04 #@! TO.N,/uo_out6*
X24158251Y12670000D02*
X30617985Y12670000D01*
G04 #@! TO.N,/uio7*
X11330000Y23460000D02*
X7990000Y23460000D01*
X18342744Y23775000D02*
X17887744Y23320000D01*
G04 #@! TO.N,/uio2*
X38543264Y19057772D02*
X38501036Y19100000D01*
D23*
G04 #@! TO.N,GND*
X19777581Y10500000D02*
X19610573Y10667008D01*
D24*
G04 #@! TO.N,/uio1*
X11406699Y17904743D02*
X11398729Y17912713D01*
G04 #@! TO.N,/uo_out5*
X24980000Y8720000D02*
X13877050Y8720000D01*
G04 #@! TO.N,/uo_out7*
X22401332Y11850000D02*
X22144894Y12106438D01*
G04 #@! TO.N,/RP2040/DVDD*
X6920000Y13500000D02*
X6920000Y13565000D01*
X6920000Y13565000D02*
X6955000Y13600000D01*
G04 #@! TO.N,/out1_inc*
X26703388Y3850000D02*
X25500000Y3850000D01*
X21160000Y3960000D02*
X13900000Y3960000D01*
G04 #@! TO.N,/uo_out7*
X30631214Y11850000D02*
X22401332Y11850000D01*
G04 #@! TO.N,/ui_in0*
X25450000Y4700000D02*
X24975000Y5175000D01*
G04 #@! TO.N,/uo_out5*
X25100000Y8600000D02*
X24980000Y8720000D01*
G04 #@! TO.N,/out2_ena*
X26220798Y1200798D02*
X23703131Y1200798D01*
G04 #@! TO.N,/ui_in0*
X41251000Y4700000D02*
X25450000Y4700000D01*
X13099043Y4450000D02*
X12874043Y4225000D01*
G04 #@! TO.N,/uio6*
X35654000Y23375000D02*
X19475000Y23375000D01*
D23*
G04 #@! TO.N,GND*
X31600000Y10100000D02*
X28040000Y10100000D01*
D24*
G04 #@! TO.N,/out1_inc*
X13900000Y3960000D02*
X13515000Y3575000D01*
D23*
G04 #@! TO.N,SDA1*
X2290050Y6520000D02*
X3420174Y5389876D01*
X9324444Y5420000D02*
X9480000Y5420000D01*
D24*
G04 #@! TO.N,/RP2040/DVDD*
X14755141Y13600000D02*
X14818658Y13536483D01*
G04 #@! TO.N,/uio1*
X28184567Y18650000D02*
X28384567Y18450000D01*
X38928257Y18450000D02*
X39000000Y18378257D01*
X11398729Y17912713D02*
X11398729Y18095981D01*
X11934951Y18650000D02*
X28184567Y18650000D01*
G04 #@! TD*
G04 #@! TA.AperFunction,Conductor*
G04 #@! TO.N,GND*
G36*
X38875520Y20579815D02*
G01*
X38896162Y20563181D01*
X38903454Y20555889D01*
X38903458Y20555886D01*
X39018182Y20479229D01*
X39018195Y20479222D01*
X39145667Y20426422D01*
X39145672Y20426420D01*
X39145676Y20426420D01*
X39145677Y20426419D01*
X39281004Y20399500D01*
X39281007Y20399500D01*
X39418994Y20399500D01*
X39431896Y20402067D01*
X39451308Y20405928D01*
X39520899Y20399702D01*
X39576076Y20356839D01*
X39599322Y20290950D01*
X39599500Y20284311D01*
X39599500Y20228545D01*
X39599500Y20228543D01*
X39599499Y20228543D01*
X39627379Y20088386D01*
X39627381Y20088380D01*
X39682069Y19956350D01*
X39682074Y19956341D01*
X39761467Y19837522D01*
X39761470Y19837518D01*
X39862517Y19736471D01*
X39862521Y19736468D01*
X39981343Y19657073D01*
X39983944Y19655683D01*
X39985052Y19654595D01*
X39986412Y19653686D01*
X39986239Y19653429D01*
X40033792Y19606725D01*
X40049500Y19546320D01*
X40049500Y19428545D01*
X40049500Y19428543D01*
X40049499Y19428543D01*
X40077379Y19288386D01*
X40077381Y19288380D01*
X40132069Y19156350D01*
X40132074Y19156341D01*
X40211467Y19037522D01*
X40211470Y19037518D01*
X40312517Y18936471D01*
X40352311Y18909881D01*
X40397115Y18856268D01*
X40405822Y18786943D01*
X40402082Y18770792D01*
X40401420Y18768611D01*
X40374500Y18633275D01*
X40374500Y18633272D01*
X40374500Y18495286D01*
X40374500Y18495284D01*
X40374499Y18495284D01*
X40401418Y18359957D01*
X40401421Y18359947D01*
X40454221Y18232475D01*
X40454228Y18232462D01*
X40530885Y18117738D01*
X40530888Y18117734D01*
X40628454Y18020168D01*
X40628458Y18020165D01*
X40743182Y17943508D01*
X40743195Y17943501D01*
X40866230Y17892539D01*
X40870672Y17890699D01*
X40870676Y17890699D01*
X40870677Y17890698D01*
X41006004Y17863779D01*
X41006007Y17863779D01*
X41143995Y17863779D01*
X41244519Y17883775D01*
X41279328Y17890699D01*
X41395527Y17938830D01*
X41406804Y17943501D01*
X41406804Y17943502D01*
X41406811Y17943504D01*
X41521542Y18020165D01*
X41619114Y18117737D01*
X41695775Y18232468D01*
X41748580Y18359951D01*
X41773955Y18487518D01*
X41775500Y18495284D01*
X41775500Y18633275D01*
X41748581Y18768602D01*
X41748580Y18768603D01*
X41748580Y18768607D01*
X41720517Y18836357D01*
X41695778Y18896084D01*
X41695771Y18896097D01*
X41619114Y19010821D01*
X41619111Y19010825D01*
X41521544Y19108392D01*
X41513251Y19113933D01*
X41509445Y19116476D01*
X41464641Y19170087D01*
X41455932Y19239412D01*
X41456742Y19243886D01*
X41459123Y19255800D01*
X41472619Y19288380D01*
X41500500Y19428545D01*
X41500500Y19462773D01*
X41502906Y19474808D01*
X41513660Y19495321D01*
X41520185Y19517539D01*
X41529576Y19525678D01*
X41535350Y19536688D01*
X41555490Y19548132D01*
X41572989Y19563294D01*
X41587877Y19566534D01*
X41596099Y19571204D01*
X41606692Y19570626D01*
X41624500Y19574500D01*
X42910626Y19574500D01*
X42977665Y19554815D01*
X42998307Y19538181D01*
X43000017Y19536471D01*
X43000021Y19536468D01*
X43118840Y19457075D01*
X43118846Y19457072D01*
X43118847Y19457071D01*
X43250880Y19402381D01*
X43250884Y19402381D01*
X43250885Y19402380D01*
X43391042Y19374500D01*
X43391045Y19374500D01*
X43533957Y19374500D01*
X43628251Y19393258D01*
X43674120Y19402381D01*
X43697188Y19411937D01*
X43766656Y19419405D01*
X43829135Y19388130D01*
X43864788Y19328042D01*
X43865153Y19277306D01*
X43866886Y19277031D01*
X43837500Y19091497D01*
X43837500Y18908504D01*
X43864444Y18738386D01*
X43866124Y18727781D01*
X43922669Y18553755D01*
X43976934Y18447253D01*
X44005743Y18390714D01*
X44113288Y18242688D01*
X44113294Y18242682D01*
X44242682Y18113294D01*
X44390717Y18005741D01*
X44431795Y17984811D01*
X44482590Y17936839D01*
X44499500Y17874327D01*
X44499500Y12125675D01*
X44479815Y12058636D01*
X44431796Y12015191D01*
X44390715Y11994259D01*
X44242687Y11886712D01*
X44113288Y11757313D01*
X44005743Y11609287D01*
X43922670Y11446248D01*
X43866123Y11272216D01*
X43837500Y11091497D01*
X43837500Y10908504D01*
X43861842Y10754815D01*
X43866124Y10727781D01*
X43922669Y10553755D01*
X43999798Y10402380D01*
X44005743Y10390714D01*
X44113288Y10242688D01*
X44113294Y10242682D01*
X44242682Y10113294D01*
X44390717Y10005741D01*
X44431795Y9984811D01*
X44482590Y9936839D01*
X44499500Y9874327D01*
X44499500Y6673042D01*
X44479815Y6606003D01*
X44427011Y6560248D01*
X44357853Y6550304D01*
X44351309Y6551425D01*
X44268996Y6567798D01*
X44268993Y6567798D01*
X44131007Y6567798D01*
X44131005Y6567798D01*
X43995677Y6540880D01*
X43995667Y6540877D01*
X43868195Y6488077D01*
X43868182Y6488070D01*
X43753459Y6411414D01*
X43655885Y6313839D01*
X43655881Y6313834D01*
X43651968Y6307978D01*
X43642775Y6299367D01*
X43638631Y6291325D01*
X43610893Y6269503D01*
X43606776Y6267125D01*
X43544755Y6250500D01*
X40534323Y6250500D01*
X40467284Y6270185D01*
X40421529Y6322989D01*
X40411585Y6392147D01*
X40440610Y6455703D01*
X40499388Y6493477D01*
X40510131Y6496117D01*
X40530360Y6500142D01*
X40541620Y6502381D01*
X40673653Y6557071D01*
X40792479Y6636468D01*
X40893532Y6737521D01*
X40972929Y6856347D01*
X41027619Y6988380D01*
X41041543Y7058381D01*
X41055500Y7128543D01*
X41055500Y7271458D01*
X41027620Y7411615D01*
X41027619Y7411616D01*
X41027619Y7411620D01*
X40980448Y7525500D01*
X40972930Y7543651D01*
X40972925Y7543660D01*
X40893532Y7662479D01*
X40893529Y7662483D01*
X40792482Y7763530D01*
X40792478Y7763533D01*
X40673659Y7842926D01*
X40673650Y7842931D01*
X40541620Y7897619D01*
X40541614Y7897621D01*
X40401457Y7925500D01*
X40401455Y7925500D01*
X40258545Y7925500D01*
X40258543Y7925500D01*
X40118385Y7897621D01*
X40118379Y7897619D01*
X39986349Y7842931D01*
X39986340Y7842926D01*
X39867521Y7763533D01*
X39867517Y7763530D01*
X39766470Y7662483D01*
X39766467Y7662479D01*
X39687074Y7543660D01*
X39687069Y7543651D01*
X39632381Y7411621D01*
X39632379Y7411615D01*
X39604500Y7271458D01*
X39604500Y7271455D01*
X39604500Y7128545D01*
X39604500Y7128543D01*
X39604499Y7128543D01*
X39632379Y6988386D01*
X39632381Y6988380D01*
X39687069Y6856350D01*
X39687074Y6856341D01*
X39766467Y6737522D01*
X39766470Y6737518D01*
X39867517Y6636471D01*
X39867521Y6636468D01*
X39986340Y6557075D01*
X39986349Y6557070D01*
X40002684Y6550304D01*
X40118380Y6502381D01*
X40118384Y6502381D01*
X40118385Y6502380D01*
X40149869Y6496117D01*
X40211780Y6463732D01*
X40246354Y6403016D01*
X40242614Y6333247D01*
X40201747Y6276575D01*
X40136729Y6250993D01*
X40125677Y6250500D01*
X34340519Y6250500D01*
X34273480Y6270185D01*
X34227725Y6322989D01*
X34217781Y6392147D01*
X34246806Y6455703D01*
X34252838Y6462181D01*
X34344111Y6553455D01*
X34344114Y6553458D01*
X34420775Y6668189D01*
X34473580Y6795672D01*
X34485650Y6856350D01*
X34500500Y6931005D01*
X34500500Y7068996D01*
X34482992Y7157010D01*
X37320501Y7157010D01*
X37348381Y7016853D01*
X37348383Y7016847D01*
X37403071Y6884817D01*
X37403076Y6884808D01*
X37482469Y6765989D01*
X37482472Y6765985D01*
X37583519Y6664938D01*
X37583523Y6664935D01*
X37702342Y6585542D01*
X37702351Y6585537D01*
X37711361Y6581805D01*
X37834382Y6530848D01*
X37834386Y6530848D01*
X37834387Y6530847D01*
X37974544Y6502967D01*
X37974547Y6502967D01*
X38117459Y6502967D01*
X38211753Y6521725D01*
X38257622Y6530848D01*
X38389655Y6585538D01*
X38508481Y6664935D01*
X38609534Y6765988D01*
X38688931Y6884814D01*
X38743621Y7016847D01*
X38759373Y7096037D01*
X38771502Y7157010D01*
X38771502Y7299925D01*
X38743622Y7440082D01*
X38743621Y7440083D01*
X38743621Y7440087D01*
X38700532Y7544112D01*
X38688932Y7572118D01*
X38688927Y7572127D01*
X38609534Y7690946D01*
X38609531Y7690950D01*
X38508484Y7791997D01*
X38508480Y7792000D01*
X38389661Y7871393D01*
X38389652Y7871398D01*
X38257622Y7926086D01*
X38257616Y7926088D01*
X38117459Y7953967D01*
X38117457Y7953967D01*
X37974547Y7953967D01*
X37974545Y7953967D01*
X37834387Y7926088D01*
X37834381Y7926086D01*
X37702351Y7871398D01*
X37702342Y7871393D01*
X37583523Y7792000D01*
X37583519Y7791997D01*
X37482472Y7690950D01*
X37482469Y7690946D01*
X37403076Y7572127D01*
X37403071Y7572118D01*
X37348383Y7440088D01*
X37348381Y7440082D01*
X37320502Y7299925D01*
X37320502Y7299922D01*
X37320502Y7157012D01*
X37320502Y7157010D01*
X37320501Y7157010D01*
X34482992Y7157010D01*
X34473581Y7204323D01*
X34473580Y7204324D01*
X34473580Y7204328D01*
X34463700Y7228180D01*
X34451116Y7258562D01*
X34420778Y7331805D01*
X34420771Y7331818D01*
X34344114Y7446542D01*
X34344111Y7446546D01*
X34246545Y7544112D01*
X34246541Y7544115D01*
X34131817Y7620772D01*
X34131804Y7620779D01*
X34004332Y7673579D01*
X34004322Y7673582D01*
X33868995Y7700500D01*
X33868993Y7700500D01*
X33731007Y7700500D01*
X33731005Y7700500D01*
X33595677Y7673582D01*
X33595667Y7673579D01*
X33468195Y7620779D01*
X33468182Y7620772D01*
X33353458Y7544115D01*
X33353454Y7544112D01*
X33255888Y7446546D01*
X33255885Y7446542D01*
X33179228Y7331818D01*
X33179221Y7331805D01*
X33126421Y7204333D01*
X33126418Y7204323D01*
X33099500Y7068996D01*
X33099500Y7068993D01*
X33099500Y6931007D01*
X33099500Y6931005D01*
X33099499Y6931005D01*
X33126418Y6795678D01*
X33126421Y6795668D01*
X33179221Y6668196D01*
X33179228Y6668183D01*
X33255885Y6553459D01*
X33255888Y6553455D01*
X33347162Y6462181D01*
X33380647Y6400858D01*
X33375663Y6331166D01*
X33333791Y6275233D01*
X33268327Y6250816D01*
X33259481Y6250500D01*
X30937375Y6250500D01*
X30870336Y6270185D01*
X30824581Y6322989D01*
X30814637Y6392147D01*
X30834272Y6443390D01*
X30839842Y6451728D01*
X30842929Y6456347D01*
X30897619Y6588380D01*
X30911165Y6656477D01*
X30925500Y6728543D01*
X30925500Y6871458D01*
X30897620Y7011615D01*
X30897619Y7011616D01*
X30897619Y7011620D01*
X30845760Y7136819D01*
X30842930Y7143651D01*
X30842925Y7143660D01*
X30763532Y7262479D01*
X30763529Y7262483D01*
X30662482Y7363530D01*
X30662478Y7363533D01*
X30543659Y7442926D01*
X30543650Y7442931D01*
X30411620Y7497619D01*
X30411614Y7497621D01*
X30271457Y7525500D01*
X30271455Y7525500D01*
X30128545Y7525500D01*
X30128543Y7525500D01*
X29988385Y7497621D01*
X29988379Y7497619D01*
X29856349Y7442931D01*
X29856340Y7442926D01*
X29737521Y7363533D01*
X29737517Y7363530D01*
X29735807Y7361819D01*
X29734690Y7361210D01*
X29732811Y7359667D01*
X29732518Y7360024D01*
X29674484Y7328334D01*
X29648126Y7325500D01*
X29201785Y7325500D01*
X29134746Y7345185D01*
X29114108Y7361815D01*
X29037479Y7438444D01*
X29037478Y7438445D01*
X29037477Y7438446D01*
X28918659Y7517838D01*
X28918650Y7517843D01*
X28786620Y7572531D01*
X28786614Y7572533D01*
X28646457Y7600412D01*
X28646455Y7600412D01*
X28503545Y7600412D01*
X28503543Y7600412D01*
X28363385Y7572533D01*
X28363379Y7572531D01*
X28231349Y7517843D01*
X28231340Y7517838D01*
X28112522Y7438446D01*
X28089081Y7415004D01*
X28035894Y7361818D01*
X27974574Y7328334D01*
X27948215Y7325500D01*
X26787843Y7325500D01*
X26720804Y7345185D01*
X26700162Y7361819D01*
X26687482Y7374499D01*
X26687478Y7374502D01*
X26568659Y7453895D01*
X26568650Y7453900D01*
X26436620Y7508588D01*
X26436614Y7508590D01*
X26296457Y7536469D01*
X26296455Y7536469D01*
X26153545Y7536469D01*
X26153543Y7536469D01*
X26013385Y7508590D01*
X26013379Y7508588D01*
X25881349Y7453900D01*
X25881340Y7453895D01*
X25762521Y7374502D01*
X25762517Y7374499D01*
X25661470Y7273452D01*
X25661467Y7273448D01*
X25578686Y7149557D01*
X25576458Y7151046D01*
X25565686Y7140120D01*
X25549595Y7118624D01*
X25541531Y7115617D01*
X25535488Y7109486D01*
X25509288Y7103591D01*
X25484131Y7094207D01*
X25475720Y7096037D01*
X25467323Y7094147D01*
X25442098Y7103351D01*
X25415858Y7109059D01*
X25405783Y7116602D01*
X25401686Y7118096D01*
X25387604Y7130210D01*
X25316916Y7200898D01*
X25283431Y7262221D01*
X25288415Y7331913D01*
X25316915Y7376260D01*
X25344114Y7403458D01*
X25420775Y7518189D01*
X25431323Y7543653D01*
X25444514Y7575500D01*
X25473580Y7645672D01*
X25486997Y7713122D01*
X25500500Y7781005D01*
X25500500Y7918993D01*
X25498031Y7931405D01*
X25504255Y8000994D01*
X25542890Y8050735D01*
X25541834Y8052022D01*
X25546538Y8055884D01*
X25546542Y8055886D01*
X25644114Y8153458D01*
X25720775Y8268189D01*
X25773580Y8395672D01*
X25782738Y8441713D01*
X25800500Y8531005D01*
X25800500Y8668767D01*
X25820185Y8735806D01*
X25872989Y8781561D01*
X25942147Y8791505D01*
X25948692Y8790384D01*
X26028543Y8774500D01*
X26028545Y8774500D01*
X26171457Y8774500D01*
X26270065Y8794115D01*
X26311620Y8802381D01*
X26443653Y8857071D01*
X26562479Y8936468D01*
X26569711Y8943700D01*
X26589193Y8963181D01*
X26616120Y8977885D01*
X26641939Y8994477D01*
X26648139Y8995369D01*
X26650516Y8996666D01*
X26676874Y8999500D01*
X26855355Y8999500D01*
X26922394Y8979815D01*
X26943036Y8963181D01*
X26962517Y8943700D01*
X26962521Y8943697D01*
X27081340Y8864304D01*
X27081349Y8864299D01*
X27098799Y8857071D01*
X27213380Y8809610D01*
X27213384Y8809610D01*
X27213385Y8809609D01*
X27353542Y8781729D01*
X27353545Y8781729D01*
X27391324Y8781729D01*
X27458363Y8762044D01*
X27479005Y8745410D01*
X27974915Y8249500D01*
X28089043Y8183608D01*
X28216337Y8149500D01*
X28348122Y8149500D01*
X30399960Y8149500D01*
X30447412Y8140062D01*
X30538380Y8102381D01*
X30538384Y8102381D01*
X30538385Y8102380D01*
X30678542Y8074500D01*
X30678545Y8074500D01*
X30821457Y8074500D01*
X30915751Y8093258D01*
X30961620Y8102381D01*
X31093653Y8157071D01*
X31129473Y8181005D01*
X41049499Y8181005D01*
X41076418Y8045678D01*
X41076421Y8045668D01*
X41129221Y7918196D01*
X41129228Y7918183D01*
X41205885Y7803459D01*
X41205888Y7803455D01*
X41303454Y7705889D01*
X41303458Y7705886D01*
X41418182Y7629229D01*
X41418195Y7629222D01*
X41542958Y7577544D01*
X41545672Y7576420D01*
X41545676Y7576420D01*
X41545677Y7576419D01*
X41681004Y7549500D01*
X41681007Y7549500D01*
X41818995Y7549500D01*
X41910041Y7567611D01*
X41954328Y7576420D01*
X42061411Y7620775D01*
X42081804Y7629222D01*
X42081804Y7629223D01*
X42081811Y7629225D01*
X42196542Y7705886D01*
X42294114Y7803458D01*
X42370775Y7918189D01*
X42423580Y8045672D01*
X42445020Y8153458D01*
X42450500Y8181005D01*
X42450500Y8318996D01*
X42423581Y8454323D01*
X42423580Y8454324D01*
X42423580Y8454328D01*
X42422744Y8456347D01*
X42370778Y8581805D01*
X42370771Y8581818D01*
X42294114Y8696542D01*
X42294111Y8696546D01*
X42196545Y8794112D01*
X42196541Y8794115D01*
X42081817Y8870772D01*
X42081804Y8870779D01*
X41954332Y8923579D01*
X41954322Y8923582D01*
X41818995Y8950500D01*
X41818993Y8950500D01*
X41681007Y8950500D01*
X41681005Y8950500D01*
X41545677Y8923582D01*
X41545667Y8923579D01*
X41418195Y8870779D01*
X41418182Y8870772D01*
X41303458Y8794115D01*
X41303454Y8794112D01*
X41205888Y8696546D01*
X41205885Y8696542D01*
X41129228Y8581818D01*
X41129221Y8581805D01*
X41076421Y8454333D01*
X41076418Y8454323D01*
X41049500Y8318996D01*
X41049500Y8318993D01*
X41049500Y8181007D01*
X41049500Y8181005D01*
X41049499Y8181005D01*
X31129473Y8181005D01*
X31212479Y8236468D01*
X31313532Y8337521D01*
X31347254Y8387989D01*
X31351255Y8393976D01*
X31351256Y8393978D01*
X31392922Y8456336D01*
X31392924Y8456340D01*
X31392929Y8456347D01*
X31447619Y8588380D01*
X31462158Y8661473D01*
X31475500Y8728543D01*
X31475500Y8871458D01*
X31447620Y9011615D01*
X31447619Y9011616D01*
X31447619Y9011620D01*
X31392929Y9143653D01*
X31392928Y9143654D01*
X31392925Y9143660D01*
X31313532Y9262479D01*
X31313529Y9262483D01*
X31212482Y9363530D01*
X31212478Y9363533D01*
X31093659Y9442926D01*
X31093650Y9442931D01*
X30961620Y9497619D01*
X30961614Y9497621D01*
X30821457Y9525500D01*
X30821455Y9525500D01*
X30678545Y9525500D01*
X30678543Y9525500D01*
X30538385Y9497621D01*
X30538379Y9497619D01*
X30406349Y9442931D01*
X30406340Y9442926D01*
X30287521Y9363533D01*
X30287517Y9363530D01*
X30186469Y9262482D01*
X30173480Y9243041D01*
X30148468Y9205609D01*
X30094858Y9160805D01*
X30045367Y9150500D01*
X28540905Y9150500D01*
X28473866Y9170185D01*
X28453224Y9186819D01*
X28186819Y9453224D01*
X28153334Y9514547D01*
X28150500Y9540905D01*
X28150500Y9578687D01*
X28122620Y9718844D01*
X28122619Y9718845D01*
X28122619Y9718849D01*
X28070923Y9843653D01*
X28067930Y9850880D01*
X28067925Y9850889D01*
X27988532Y9969708D01*
X27988529Y9969712D01*
X27887482Y10070759D01*
X27887478Y10070762D01*
X27768659Y10150155D01*
X27768650Y10150160D01*
X27636620Y10204848D01*
X27636614Y10204850D01*
X27496457Y10232729D01*
X27496455Y10232729D01*
X27353545Y10232729D01*
X27353543Y10232729D01*
X27213385Y10204850D01*
X27213379Y10204848D01*
X27081349Y10150160D01*
X27081340Y10150155D01*
X26962521Y10070762D01*
X26962517Y10070759D01*
X26928580Y10036820D01*
X26901649Y10022115D01*
X26875833Y10005523D01*
X26869634Y10004632D01*
X26867258Y10003334D01*
X26840898Y10000500D01*
X26676874Y10000500D01*
X26609835Y10020185D01*
X26589193Y10036819D01*
X26562482Y10063530D01*
X26562478Y10063533D01*
X26443659Y10142926D01*
X26443650Y10142931D01*
X26311620Y10197619D01*
X26311614Y10197621D01*
X26171457Y10225500D01*
X26171455Y10225500D01*
X26028545Y10225500D01*
X26028543Y10225500D01*
X25888385Y10197621D01*
X25888379Y10197619D01*
X25756349Y10142931D01*
X25756340Y10142926D01*
X25637521Y10063533D01*
X25637517Y10063530D01*
X25536470Y9962483D01*
X25536467Y9962479D01*
X25457074Y9843660D01*
X25457069Y9843650D01*
X25433173Y9785959D01*
X25389332Y9731556D01*
X25323038Y9709491D01*
X25255338Y9726770D01*
X25215510Y9764521D01*
X25194114Y9796543D01*
X25096545Y9894112D01*
X25096541Y9894115D01*
X24981817Y9970772D01*
X24981804Y9970779D01*
X24854332Y10023579D01*
X24854322Y10023582D01*
X24718995Y10050500D01*
X24718993Y10050500D01*
X24581007Y10050500D01*
X24581005Y10050500D01*
X24445677Y10023582D01*
X24445667Y10023579D01*
X24318195Y9970779D01*
X24318182Y9970772D01*
X24203458Y9894115D01*
X24203454Y9894112D01*
X24105888Y9796546D01*
X24105885Y9796542D01*
X24029228Y9681818D01*
X24029221Y9681805D01*
X23976421Y9554333D01*
X23976418Y9554323D01*
X23949500Y9418996D01*
X23949500Y9344500D01*
X23929815Y9277461D01*
X23877011Y9231706D01*
X23825500Y9220500D01*
X13811158Y9220500D01*
X13683862Y9186392D01*
X13569736Y9120500D01*
X13569733Y9120498D01*
X12972583Y8523349D01*
X12928170Y8494824D01*
X12918845Y8491353D01*
X12857961Y8479241D01*
X12730478Y8426436D01*
X12712830Y8414645D01*
X12699248Y8409587D01*
X12678263Y8408099D01*
X12658187Y8401813D01*
X12644112Y8405675D01*
X12629554Y8404642D01*
X12611096Y8414735D01*
X12590808Y8420301D01*
X12587089Y8422691D01*
X12517574Y8469140D01*
X12517561Y8469147D01*
X12390089Y8521947D01*
X12390079Y8521950D01*
X12254752Y8548868D01*
X12254750Y8548868D01*
X12116764Y8548868D01*
X12116762Y8548868D01*
X11981434Y8521950D01*
X11981424Y8521947D01*
X11853952Y8469147D01*
X11853939Y8469140D01*
X11739215Y8392483D01*
X11739211Y8392480D01*
X11641645Y8294914D01*
X11641642Y8294910D01*
X11564985Y8180186D01*
X11564978Y8180173D01*
X11512178Y8052701D01*
X11512175Y8052691D01*
X11485257Y7917364D01*
X11485257Y7780161D01*
X11482706Y7771476D01*
X11483995Y7762514D01*
X11473016Y7738474D01*
X11465572Y7713122D01*
X11458731Y7707195D01*
X11454970Y7698958D01*
X11432735Y7684669D01*
X11412768Y7667367D01*
X11402253Y7665080D01*
X11396192Y7661184D01*
X11361257Y7656161D01*
X11252380Y7656161D01*
X11185341Y7675846D01*
X11139586Y7728650D01*
X11133609Y7747151D01*
X11133153Y7747012D01*
X11131382Y7752849D01*
X11078582Y7880321D01*
X11078575Y7880334D01*
X11001918Y7995058D01*
X11001915Y7995062D01*
X10904349Y8092628D01*
X10904345Y8092631D01*
X10789621Y8169288D01*
X10789608Y8169295D01*
X10662136Y8222095D01*
X10662126Y8222098D01*
X10526799Y8249016D01*
X10526797Y8249016D01*
X10388811Y8249016D01*
X10388809Y8249016D01*
X10247502Y8220908D01*
X10246975Y8223553D01*
X10188673Y8223142D01*
X10135088Y8254681D01*
X10070239Y8319530D01*
X10070235Y8319533D01*
X9951416Y8398926D01*
X9951407Y8398931D01*
X9819377Y8453619D01*
X9819371Y8453621D01*
X9679214Y8481500D01*
X9679212Y8481500D01*
X9536302Y8481500D01*
X9536300Y8481500D01*
X9396142Y8453621D01*
X9396136Y8453619D01*
X9264106Y8398931D01*
X9264097Y8398926D01*
X9170519Y8336398D01*
X9103841Y8315520D01*
X9101628Y8315500D01*
X8824123Y8315500D01*
X8757084Y8335185D01*
X8711329Y8387989D01*
X8701385Y8457147D01*
X8721020Y8508390D01*
X8738005Y8533813D01*
X8746783Y8546948D01*
X8801473Y8678981D01*
X8821911Y8781729D01*
X8829354Y8819144D01*
X8829354Y8962058D01*
X8815853Y9029927D01*
X8822080Y9099519D01*
X8849790Y9141802D01*
X8849973Y9141986D01*
X8849977Y9141988D01*
X8951030Y9243041D01*
X9030427Y9361867D01*
X9085117Y9493900D01*
X9101982Y9578684D01*
X9112998Y9634063D01*
X9112998Y9776978D01*
X9085118Y9917135D01*
X9085117Y9917136D01*
X9085117Y9917140D01*
X9030427Y10049173D01*
X9030426Y10049174D01*
X9030423Y10049180D01*
X8951030Y10167999D01*
X8951027Y10168003D01*
X8849980Y10269050D01*
X8849976Y10269053D01*
X8731157Y10348446D01*
X8731148Y10348451D01*
X8599118Y10403139D01*
X8599112Y10403141D01*
X8458955Y10431020D01*
X8458953Y10431020D01*
X8316043Y10431020D01*
X8316041Y10431020D01*
X8175883Y10403141D01*
X8175877Y10403139D01*
X8043847Y10348451D01*
X8043838Y10348446D01*
X7925019Y10269053D01*
X7925015Y10269050D01*
X7823968Y10168003D01*
X7823965Y10167999D01*
X7744572Y10049180D01*
X7744567Y10049171D01*
X7689879Y9917141D01*
X7689877Y9917135D01*
X7660809Y9771000D01*
X7659572Y9771246D01*
X7635868Y9712552D01*
X7578831Y9672197D01*
X7538631Y9665500D01*
X3380976Y9665500D01*
X3313937Y9685185D01*
X3293686Y9703221D01*
X3292840Y9702374D01*
X3187482Y9807732D01*
X3187478Y9807735D01*
X3068659Y9887128D01*
X3068650Y9887133D01*
X2936620Y9941821D01*
X2936614Y9941823D01*
X2796457Y9969702D01*
X2796455Y9969702D01*
X2653545Y9969702D01*
X2653543Y9969702D01*
X2513385Y9941823D01*
X2513379Y9941821D01*
X2381349Y9887133D01*
X2381340Y9887128D01*
X2262521Y9807735D01*
X2262517Y9807732D01*
X2161470Y9706685D01*
X2161467Y9706681D01*
X2082074Y9587862D01*
X2082069Y9587853D01*
X2027381Y9455823D01*
X2027379Y9455817D01*
X1999500Y9315660D01*
X1999500Y9315657D01*
X1999500Y9172747D01*
X1999500Y9172745D01*
X1999499Y9172745D01*
X2027379Y9032588D01*
X2027381Y9032582D01*
X2082069Y8900552D01*
X2082074Y8900543D01*
X2096614Y8878783D01*
X2105252Y8851195D01*
X2116635Y8824615D01*
X2115565Y8818258D01*
X2117492Y8812106D01*
X2109843Y8784223D01*
X2105049Y8755712D01*
X2100713Y8750943D01*
X2099008Y8744725D01*
X2077496Y8725403D01*
X2058051Y8704011D01*
X2049701Y8700436D01*
X2047029Y8698035D01*
X2025607Y8690118D01*
X1974719Y8676482D01*
X1918433Y8674639D01*
X1838695Y8690500D01*
X1838691Y8690500D01*
X1661309Y8690500D01*
X1661306Y8690500D01*
X1487341Y8655897D01*
X1487332Y8655894D01*
X1323459Y8588017D01*
X1323446Y8588010D01*
X1175965Y8489465D01*
X1175961Y8489462D01*
X1050538Y8364039D01*
X1050535Y8364035D01*
X951990Y8216554D01*
X951983Y8216541D01*
X884106Y8052668D01*
X884103Y8052659D01*
X849500Y7878696D01*
X849500Y7701305D01*
X884103Y7527342D01*
X884106Y7527333D01*
X951983Y7363460D01*
X951990Y7363447D01*
X1045239Y7223891D01*
X1066117Y7157213D01*
X1047633Y7089833D01*
X1045239Y7086109D01*
X951990Y6946554D01*
X951983Y6946541D01*
X884106Y6782668D01*
X884103Y6782659D01*
X849500Y6608696D01*
X849500Y6431305D01*
X884103Y6257342D01*
X884105Y6257338D01*
X884106Y6257334D01*
X886806Y6250816D01*
X900224Y6218422D01*
X907692Y6148953D01*
X884929Y6096660D01*
X806646Y5992089D01*
X806645Y5992087D01*
X756403Y5857380D01*
X756401Y5857373D01*
X750000Y5797845D01*
X750000Y5500000D01*
X1540382Y5500000D01*
X1489936Y5449554D01*
X1447149Y5375445D01*
X1425000Y5292787D01*
X1425000Y5207213D01*
X1447149Y5124555D01*
X1489936Y5050446D01*
X1550446Y4989936D01*
X1624555Y4947149D01*
X1707213Y4925000D01*
X1792787Y4925000D01*
X1875445Y4947149D01*
X1949554Y4989936D01*
X2000000Y5040382D01*
X2000000Y4250000D01*
X2297828Y4250000D01*
X2297844Y4250001D01*
X2357372Y4256402D01*
X2357379Y4256404D01*
X2492086Y4306646D01*
X2492093Y4306650D01*
X2607187Y4392810D01*
X2607190Y4392813D01*
X2693350Y4507907D01*
X2693354Y4507914D01*
X2743596Y4642621D01*
X2743598Y4642628D01*
X2749999Y4702156D01*
X2750000Y4702173D01*
X2750000Y5017519D01*
X2769685Y5084558D01*
X2822489Y5130313D01*
X2891647Y5140257D01*
X2955203Y5111232D01*
X2961655Y5105225D01*
X3097509Y4969371D01*
X3097511Y4969370D01*
X3097512Y4969369D01*
X3217335Y4900189D01*
X3217336Y4900189D01*
X3217339Y4900187D01*
X3350991Y4864375D01*
X3350993Y4864375D01*
X3496954Y4864375D01*
X3496970Y4864376D01*
X8042742Y4864376D01*
X8109781Y4844691D01*
X8155536Y4791887D01*
X8165480Y4722729D01*
X8136455Y4659173D01*
X8077677Y4621399D01*
X8066934Y4618759D01*
X7988385Y4603135D01*
X7988379Y4603133D01*
X7856349Y4548445D01*
X7856340Y4548440D01*
X7737521Y4469047D01*
X7737517Y4469044D01*
X7636470Y4367997D01*
X7636467Y4367993D01*
X7557074Y4249174D01*
X7557069Y4249165D01*
X7502381Y4117135D01*
X7502379Y4117129D01*
X7474500Y3976972D01*
X7474500Y3976969D01*
X7474500Y3834059D01*
X7474500Y3834057D01*
X7474499Y3834057D01*
X7502379Y3693900D01*
X7502381Y3693894D01*
X7557069Y3561864D01*
X7557074Y3561855D01*
X7636467Y3443036D01*
X7636470Y3443032D01*
X7737517Y3341985D01*
X7737521Y3341982D01*
X7856340Y3262589D01*
X7856346Y3262586D01*
X7856347Y3262585D01*
X7988380Y3207895D01*
X7988384Y3207895D01*
X7988385Y3207894D01*
X8128542Y3180014D01*
X8128545Y3180014D01*
X8271457Y3180014D01*
X8374443Y3200500D01*
X8411620Y3207895D01*
X8543653Y3262585D01*
X8662479Y3341982D01*
X8763532Y3443035D01*
X8842929Y3561861D01*
X8897619Y3693894D01*
X8914947Y3781007D01*
X8918664Y3799691D01*
X8951049Y3861602D01*
X9011765Y3896176D01*
X9040281Y3899500D01*
X9068995Y3899500D01*
X9167005Y3918996D01*
X9204328Y3926420D01*
X9302924Y3967260D01*
X9331804Y3979222D01*
X9331804Y3979223D01*
X9331811Y3979225D01*
X9446542Y4055886D01*
X9544114Y4153458D01*
X9620775Y4268189D01*
X9673580Y4395672D01*
X9695905Y4507907D01*
X9700500Y4531005D01*
X9700500Y4670265D01*
X9720185Y4737304D01*
X9772989Y4783059D01*
X9777010Y4784811D01*
X9811811Y4799225D01*
X9926542Y4875886D01*
X10024114Y4973458D01*
X10100775Y5088189D01*
X10153580Y5215672D01*
X10180500Y5351007D01*
X10180500Y5488993D01*
X10180500Y5488996D01*
X10153581Y5624323D01*
X10153580Y5624324D01*
X10153580Y5624328D01*
X10153578Y5624333D01*
X10100778Y5751805D01*
X10100771Y5751818D01*
X10024114Y5866542D01*
X10024111Y5866546D01*
X9926545Y5964112D01*
X9926541Y5964115D01*
X9811817Y6040772D01*
X9811804Y6040779D01*
X9684332Y6093579D01*
X9684322Y6093582D01*
X9548995Y6120500D01*
X9548993Y6120500D01*
X9411007Y6120500D01*
X9411005Y6120500D01*
X9275677Y6093582D01*
X9275667Y6093579D01*
X9148195Y6040779D01*
X9148182Y6040772D01*
X9033458Y5964115D01*
X9033454Y5964112D01*
X9021038Y5951695D01*
X8959715Y5918210D01*
X8933357Y5915376D01*
X7548757Y5915376D01*
X7481718Y5935061D01*
X7435963Y5987865D01*
X7426019Y6057023D01*
X7427140Y6063568D01*
X7450500Y6181005D01*
X7450500Y6318996D01*
X7423581Y6454323D01*
X7423580Y6454324D01*
X7423580Y6454328D01*
X7423578Y6454333D01*
X7370778Y6581805D01*
X7370771Y6581818D01*
X7294114Y6696542D01*
X7294111Y6696546D01*
X7196545Y6794112D01*
X7196541Y6794115D01*
X7081817Y6870772D01*
X7081807Y6870777D01*
X6976565Y6914370D01*
X6960999Y6926914D01*
X6942815Y6935218D01*
X6934350Y6948389D01*
X6922162Y6958211D01*
X6915849Y6977178D01*
X6905041Y6993996D01*
X6901078Y7021559D01*
X6900097Y7024506D01*
X6900018Y7028931D01*
X6900018Y7140500D01*
X6919703Y7207539D01*
X6972507Y7253294D01*
X7024018Y7264500D01*
X9021884Y7264500D01*
X9088923Y7244815D01*
X9109566Y7228180D01*
X9145274Y7192471D01*
X9145278Y7192468D01*
X9264097Y7113075D01*
X9264103Y7113072D01*
X9264104Y7113071D01*
X9396137Y7058381D01*
X9396141Y7058381D01*
X9396142Y7058380D01*
X9536299Y7030500D01*
X9536302Y7030500D01*
X9679214Y7030500D01*
X9773508Y7049258D01*
X9819377Y7058381D01*
X9840342Y7067065D01*
X9909811Y7074535D01*
X9972291Y7043261D01*
X9975477Y7040186D01*
X10011258Y7004405D01*
X10011262Y7004402D01*
X10125986Y6927745D01*
X10125999Y6927738D01*
X10253471Y6874938D01*
X10253476Y6874936D01*
X10253480Y6874936D01*
X10253481Y6874935D01*
X10388808Y6848016D01*
X10388811Y6848016D01*
X10399128Y6848016D01*
X10466167Y6828331D01*
X10486809Y6811697D01*
X10543345Y6755161D01*
X10657473Y6689269D01*
X10784767Y6655161D01*
X10916552Y6655161D01*
X14925500Y6655161D01*
X14992539Y6635476D01*
X15038294Y6582672D01*
X15049500Y6531161D01*
X15049500Y6436668D01*
X15049500Y6436666D01*
X15049499Y6436666D01*
X15076418Y6301339D01*
X15076421Y6301329D01*
X15129221Y6173857D01*
X15129228Y6173844D01*
X15205887Y6059116D01*
X15205982Y6059001D01*
X15206012Y6058930D01*
X15209270Y6054054D01*
X15208345Y6053436D01*
X15233291Y5994689D01*
X15221496Y5925823D01*
X15174340Y5874265D01*
X15168587Y5870989D01*
X15168193Y5870779D01*
X15053458Y5794115D01*
X15053454Y5794112D01*
X14955888Y5696546D01*
X14955885Y5696542D01*
X14879228Y5581818D01*
X14879221Y5581805D01*
X14826421Y5454333D01*
X14826418Y5454323D01*
X14799500Y5318996D01*
X14799500Y5181003D01*
X14815873Y5098691D01*
X14809646Y5029100D01*
X14766783Y4973922D01*
X14700893Y4950678D01*
X14694256Y4950500D01*
X13033151Y4950500D01*
X12955617Y4929725D01*
X12923524Y4925500D01*
X12805048Y4925500D01*
X12669720Y4898582D01*
X12669710Y4898579D01*
X12542238Y4845779D01*
X12542225Y4845772D01*
X12427501Y4769115D01*
X12427497Y4769112D01*
X12329931Y4671546D01*
X12329928Y4671542D01*
X12253271Y4556818D01*
X12253264Y4556805D01*
X12200464Y4429333D01*
X12200461Y4429323D01*
X12173543Y4293996D01*
X12173543Y4199500D01*
X12153858Y4132461D01*
X12101054Y4086706D01*
X12049543Y4075500D01*
X10790125Y4075500D01*
X10662830Y4041392D01*
X10548704Y3975500D01*
X10548701Y3975498D01*
X10210023Y3636819D01*
X10148700Y3603334D01*
X10122342Y3600500D01*
X10112023Y3600500D01*
X9976695Y3573582D01*
X9976685Y3573579D01*
X9849213Y3520779D01*
X9849200Y3520772D01*
X9734476Y3444115D01*
X9734472Y3444112D01*
X9636906Y3346546D01*
X9636903Y3346542D01*
X9560246Y3231818D01*
X9560239Y3231805D01*
X9507439Y3104333D01*
X9507436Y3104323D01*
X9480518Y2968996D01*
X9480518Y2928414D01*
X9460833Y2861375D01*
X9422209Y2825721D01*
X9423253Y2824159D01*
X9303462Y2744118D01*
X9303454Y2744112D01*
X9205888Y2646546D01*
X9205885Y2646542D01*
X9129228Y2531818D01*
X9129221Y2531805D01*
X9076421Y2404333D01*
X9076418Y2404323D01*
X9049500Y2268996D01*
X9049500Y2268993D01*
X9049500Y2131007D01*
X9049500Y2131005D01*
X9049499Y2131005D01*
X9076418Y1995678D01*
X9076421Y1995668D01*
X9129221Y1868196D01*
X9129228Y1868183D01*
X9205885Y1753459D01*
X9205888Y1753455D01*
X9303454Y1655889D01*
X9303458Y1655886D01*
X9418182Y1579229D01*
X9418191Y1579224D01*
X9513227Y1539859D01*
X9567630Y1496018D01*
X9589695Y1429724D01*
X9572416Y1362025D01*
X9521279Y1314414D01*
X9465774Y1301298D01*
X8201075Y1301298D01*
X8134036Y1320983D01*
X8113393Y1337618D01*
X8062482Y1388530D01*
X8062478Y1388533D01*
X7943659Y1467926D01*
X7943650Y1467931D01*
X7811620Y1522619D01*
X7811614Y1522621D01*
X7671457Y1550500D01*
X7671455Y1550500D01*
X7528545Y1550500D01*
X7528543Y1550500D01*
X7388385Y1522621D01*
X7388379Y1522619D01*
X7256349Y1467931D01*
X7256340Y1467926D01*
X7137521Y1388533D01*
X7137517Y1388530D01*
X7086607Y1337618D01*
X7025284Y1304132D01*
X6998925Y1301298D01*
X3724507Y1301298D01*
X3657468Y1320983D01*
X3611713Y1373787D01*
X3609944Y1377850D01*
X3609396Y1379173D01*
X3609394Y1379179D01*
X3609389Y1379186D01*
X3521789Y1510289D01*
X3521786Y1510293D01*
X3410292Y1621787D01*
X3410288Y1621790D01*
X3279185Y1709391D01*
X3279172Y1709398D01*
X3133501Y1769736D01*
X3133489Y1769739D01*
X2978845Y1800500D01*
X2978842Y1800500D01*
X2821158Y1800500D01*
X2821155Y1800500D01*
X2666510Y1769739D01*
X2666498Y1769736D01*
X2520827Y1709398D01*
X2520814Y1709391D01*
X2389711Y1621790D01*
X2389707Y1621787D01*
X2278213Y1510293D01*
X2278210Y1510289D01*
X2190609Y1379186D01*
X2190602Y1379173D01*
X2130264Y1233502D01*
X2130261Y1233490D01*
X2099500Y1078847D01*
X2099500Y921154D01*
X2130261Y766511D01*
X2130263Y766503D01*
X2169427Y671953D01*
X2176896Y602483D01*
X2145621Y540004D01*
X2085532Y504352D01*
X2054866Y500500D01*
X624500Y500500D01*
X557461Y520185D01*
X511706Y572989D01*
X500500Y624500D01*
X500500Y1762655D01*
X520185Y1829694D01*
X568206Y1873140D01*
X661422Y1920636D01*
X698715Y1947732D01*
X536819Y2109628D01*
X503334Y2170951D01*
X500500Y2197309D01*
X500500Y2553692D01*
X520185Y2620731D01*
X572989Y2666486D01*
X642147Y2676430D01*
X705703Y2647405D01*
X712181Y2641373D01*
X1052268Y2301285D01*
X1079362Y2338575D01*
X1169542Y2515563D01*
X1230924Y2704477D01*
X1230924Y2704480D01*
X1262000Y2900679D01*
X1262000Y3099322D01*
X1230924Y3295521D01*
X1230924Y3295524D01*
X1169542Y3484438D01*
X1079358Y3661433D01*
X1052268Y3698717D01*
X712181Y3358629D01*
X650858Y3325144D01*
X581166Y3330128D01*
X525233Y3372000D01*
X500816Y3437464D01*
X500500Y3446310D01*
X500500Y3802692D01*
X520185Y3869731D01*
X536819Y3890373D01*
X698715Y4052270D01*
X661430Y4079361D01*
X661428Y4079362D01*
X568204Y4126863D01*
X517408Y4174838D01*
X500500Y4237347D01*
X500500Y4702156D01*
X750000Y4702156D01*
X756401Y4642628D01*
X756403Y4642621D01*
X806645Y4507914D01*
X806649Y4507907D01*
X892809Y4392813D01*
X892812Y4392810D01*
X1007906Y4306650D01*
X1007913Y4306646D01*
X1142620Y4256404D01*
X1142627Y4256402D01*
X1202155Y4250001D01*
X1202172Y4250000D01*
X1500000Y4250000D01*
X1500000Y5000000D01*
X750000Y5000000D01*
X750000Y4702156D01*
X500500Y4702156D01*
X500500Y9874327D01*
X520185Y9941366D01*
X568204Y9984811D01*
X609283Y10005741D01*
X757318Y10113294D01*
X886706Y10242682D01*
X886708Y10242686D01*
X886711Y10242688D01*
X933873Y10307603D01*
X994259Y10390717D01*
X1077331Y10553755D01*
X1133876Y10727781D01*
X1150279Y10831347D01*
X1162500Y10908504D01*
X1162500Y11091497D01*
X1139372Y11237518D01*
X1133876Y11272219D01*
X1077331Y11446245D01*
X994259Y11609283D01*
X980266Y11628543D01*
X912437Y11721903D01*
X7248706Y11721903D01*
X7276586Y11581746D01*
X7276588Y11581740D01*
X7331276Y11449710D01*
X7331281Y11449701D01*
X7410674Y11330882D01*
X7410677Y11330878D01*
X7511724Y11229831D01*
X7511728Y11229828D01*
X7630547Y11150435D01*
X7630553Y11150432D01*
X7630554Y11150431D01*
X7762587Y11095741D01*
X7762591Y11095741D01*
X7762592Y11095740D01*
X7902749Y11067860D01*
X7902752Y11067860D01*
X8045664Y11067860D01*
X8164491Y11091497D01*
X8185827Y11095741D01*
X8317860Y11150431D01*
X8436686Y11229828D01*
X8537739Y11330881D01*
X8617136Y11449707D01*
X8671826Y11581740D01*
X8687372Y11659893D01*
X8699707Y11721903D01*
X8699707Y11864818D01*
X8671827Y12004975D01*
X8671826Y12004976D01*
X8671826Y12004980D01*
X8617136Y12137013D01*
X8617135Y12137014D01*
X8617132Y12137020D01*
X8537739Y12255839D01*
X8537736Y12255843D01*
X8436689Y12356890D01*
X8436685Y12356893D01*
X8317866Y12436286D01*
X8317857Y12436291D01*
X8185827Y12490979D01*
X8185821Y12490981D01*
X8045664Y12518860D01*
X8045662Y12518860D01*
X7902752Y12518860D01*
X7902750Y12518860D01*
X7762592Y12490981D01*
X7762586Y12490979D01*
X7630556Y12436291D01*
X7630547Y12436286D01*
X7511728Y12356893D01*
X7511724Y12356890D01*
X7410677Y12255843D01*
X7410674Y12255839D01*
X7331281Y12137020D01*
X7331276Y12137011D01*
X7276588Y12004981D01*
X7276586Y12004975D01*
X7248707Y11864818D01*
X7248707Y11864815D01*
X7248707Y11721905D01*
X7248707Y11721903D01*
X7248706Y11721903D01*
X912437Y11721903D01*
X886711Y11757313D01*
X757312Y11886712D01*
X609284Y11994259D01*
X568204Y12015191D01*
X557140Y12025640D01*
X543297Y12031962D01*
X532255Y12049144D01*
X517408Y12063166D01*
X513166Y12078847D01*
X505523Y12090740D01*
X500500Y12125675D01*
X500500Y12320810D01*
X520185Y12387849D01*
X572989Y12433604D01*
X642147Y12443548D01*
X705703Y12414523D01*
X727602Y12389701D01*
X762467Y12337522D01*
X762470Y12337518D01*
X863517Y12236471D01*
X863521Y12236468D01*
X982340Y12157075D01*
X982346Y12157072D01*
X982347Y12157071D01*
X1114380Y12102381D01*
X1114384Y12102381D01*
X1114385Y12102380D01*
X1254542Y12074500D01*
X1254545Y12074500D01*
X1397457Y12074500D01*
X1491751Y12093258D01*
X1537620Y12102381D01*
X1669653Y12157071D01*
X1788479Y12236468D01*
X1889532Y12337521D01*
X1968929Y12456347D01*
X2023619Y12588380D01*
X2035986Y12650552D01*
X2051500Y12728543D01*
X2051500Y12735770D01*
X2071185Y12802809D01*
X2123989Y12848564D01*
X2175500Y12859770D01*
X4324366Y12859770D01*
X4391405Y12840085D01*
X4435400Y12789312D01*
X4435694Y12789469D01*
X4436385Y12788175D01*
X4437160Y12787281D01*
X4438462Y12784289D01*
X4438563Y12784100D01*
X4517958Y12665278D01*
X4517961Y12665274D01*
X4619008Y12564227D01*
X4619012Y12564224D01*
X4737831Y12484831D01*
X4737837Y12484828D01*
X4737838Y12484827D01*
X4869871Y12430137D01*
X4869875Y12430137D01*
X4869876Y12430136D01*
X5010033Y12402256D01*
X5010036Y12402256D01*
X5152948Y12402256D01*
X5259790Y12423509D01*
X5293111Y12430137D01*
X5425144Y12484827D01*
X5543970Y12564224D01*
X5645023Y12665277D01*
X5724420Y12784103D01*
X5779110Y12916136D01*
X5790412Y12972954D01*
X5806991Y13056299D01*
X5806991Y13199214D01*
X5779111Y13339371D01*
X5779110Y13339372D01*
X5779110Y13339376D01*
X5724420Y13471409D01*
X5724419Y13471410D01*
X5724416Y13471416D01*
X5645023Y13590235D01*
X5645020Y13590239D01*
X5543973Y13691286D01*
X5543969Y13691289D01*
X5425150Y13770682D01*
X5425141Y13770687D01*
X5293111Y13825375D01*
X5293105Y13825377D01*
X5152948Y13853256D01*
X5152946Y13853256D01*
X5097627Y13853256D01*
X5035630Y13869868D01*
X5026813Y13874958D01*
X5026810Y13874959D01*
X4998569Y13882527D01*
X4998568Y13882527D01*
X4893160Y13910771D01*
X4754794Y13910771D01*
X4747198Y13910771D01*
X4747182Y13910770D01*
X1862065Y13910770D01*
X1862049Y13910771D01*
X1854453Y13910771D01*
X1716087Y13910771D01*
X1582435Y13874959D01*
X1582433Y13874959D01*
X1582433Y13874958D01*
X1558398Y13861081D01*
X1558397Y13861081D01*
X1462608Y13805778D01*
X1462603Y13805774D01*
X1364763Y13707933D01*
X1190996Y13534167D01*
X1129673Y13500682D01*
X1127509Y13500231D01*
X1114382Y13497620D01*
X1114381Y13497620D01*
X982349Y13442931D01*
X982340Y13442926D01*
X863521Y13363533D01*
X863517Y13363530D01*
X762470Y13262483D01*
X727602Y13210299D01*
X673989Y13165495D01*
X604664Y13156788D01*
X541637Y13186943D01*
X504918Y13246386D01*
X500500Y13279191D01*
X500500Y15281899D01*
X520185Y15348938D01*
X572989Y15394693D01*
X642147Y15404637D01*
X705703Y15375612D01*
X727603Y15350788D01*
X736466Y15337523D01*
X736470Y15337518D01*
X837517Y15236471D01*
X837521Y15236468D01*
X956340Y15157075D01*
X956346Y15157072D01*
X956347Y15157071D01*
X1088380Y15102381D01*
X1088384Y15102381D01*
X1088385Y15102380D01*
X1228542Y15074500D01*
X1228545Y15074500D01*
X1230968Y15074500D01*
X1232191Y15074141D01*
X1234605Y15073903D01*
X1234559Y15073446D01*
X1298007Y15054815D01*
X1318649Y15038181D01*
X1627335Y14729495D01*
X1627336Y14729494D01*
X1627338Y14729493D01*
X1747161Y14660313D01*
X1747162Y14660313D01*
X1747165Y14660311D01*
X1880817Y14624499D01*
X1880819Y14624499D01*
X2026779Y14624499D01*
X2026795Y14624500D01*
X6156800Y14624500D01*
X6223839Y14604815D01*
X6259902Y14569391D01*
X6336467Y14454804D01*
X6336470Y14454800D01*
X6437518Y14353752D01*
X6437521Y14353750D01*
X6510387Y14305062D01*
X6555193Y14251450D01*
X6563900Y14182126D01*
X6533746Y14119098D01*
X6510389Y14098859D01*
X6457523Y14063535D01*
X6457517Y14063530D01*
X6356470Y13962483D01*
X6356467Y13962479D01*
X6277074Y13843660D01*
X6277069Y13843651D01*
X6222381Y13711621D01*
X6222379Y13711615D01*
X6194500Y13571458D01*
X6194500Y13571455D01*
X6194500Y13428545D01*
X6194500Y13428543D01*
X6194499Y13428543D01*
X6222379Y13288386D01*
X6222381Y13288380D01*
X6277069Y13156350D01*
X6277074Y13156341D01*
X6356467Y13037522D01*
X6356470Y13037518D01*
X6457517Y12936471D01*
X6457521Y12936468D01*
X6576340Y12857075D01*
X6576349Y12857070D01*
X6601766Y12846542D01*
X6708380Y12802381D01*
X6708384Y12802381D01*
X6708385Y12802380D01*
X6848542Y12774500D01*
X6848545Y12774500D01*
X6991457Y12774500D01*
X7092352Y12794570D01*
X7131620Y12802381D01*
X7263653Y12857071D01*
X7382479Y12936468D01*
X7483532Y13037521D01*
X7485437Y13040373D01*
X7488124Y13044392D01*
X7541737Y13089197D01*
X7591225Y13099500D01*
X11379481Y13099500D01*
X11446520Y13079815D01*
X11492275Y13027011D01*
X11502219Y12957853D01*
X11473194Y12894297D01*
X11467162Y12887819D01*
X11425888Y12846546D01*
X11425885Y12846542D01*
X11349228Y12731818D01*
X11349221Y12731805D01*
X11296421Y12604333D01*
X11296418Y12604323D01*
X11269500Y12468996D01*
X11269500Y12468993D01*
X11269500Y12331007D01*
X11269500Y12331005D01*
X11269499Y12331005D01*
X11296418Y12195678D01*
X11296421Y12195668D01*
X11349221Y12068196D01*
X11349228Y12068183D01*
X11425885Y11953459D01*
X11425888Y11953455D01*
X11523454Y11855889D01*
X11523458Y11855886D01*
X11638182Y11779229D01*
X11638195Y11779222D01*
X11759105Y11729140D01*
X11765672Y11726420D01*
X11765676Y11726420D01*
X11765677Y11726419D01*
X11901004Y11699500D01*
X11901007Y11699500D01*
X12038995Y11699500D01*
X12130041Y11717611D01*
X12174328Y11726420D01*
X12272924Y11767260D01*
X12301804Y11779222D01*
X12301804Y11779223D01*
X12301811Y11779225D01*
X12301816Y11779229D01*
X12307186Y11782098D01*
X12307862Y11780833D01*
X12367668Y11799576D01*
X12435053Y11781108D01*
X12481756Y11729140D01*
X12491529Y11699788D01*
X12512533Y11594196D01*
X12512536Y11594186D01*
X12565336Y11466714D01*
X12565343Y11466701D01*
X12642000Y11351977D01*
X12642003Y11351973D01*
X12739569Y11254407D01*
X12739573Y11254404D01*
X12854297Y11177747D01*
X12854310Y11177740D01*
X12953951Y11136468D01*
X12981787Y11124938D01*
X12981791Y11124938D01*
X12981792Y11124937D01*
X13117119Y11098018D01*
X13117122Y11098018D01*
X13255110Y11098018D01*
X13346156Y11116129D01*
X13390443Y11124938D01*
X13517926Y11177743D01*
X13632657Y11254404D01*
X13730229Y11351976D01*
X13806890Y11466707D01*
X13859695Y11594190D01*
X13885099Y11721903D01*
X13886615Y11729523D01*
X13886615Y11867514D01*
X13859696Y12002841D01*
X13859695Y12002842D01*
X13859695Y12002846D01*
X13854582Y12015191D01*
X13806893Y12130323D01*
X13806886Y12130336D01*
X13730229Y12245060D01*
X13730226Y12245064D01*
X13632660Y12342630D01*
X13632656Y12342633D01*
X13517932Y12419290D01*
X13517919Y12419297D01*
X13390447Y12472097D01*
X13390437Y12472100D01*
X13255110Y12499018D01*
X13255108Y12499018D01*
X13117122Y12499018D01*
X13117120Y12499018D01*
X12981792Y12472100D01*
X12981782Y12472097D01*
X12854310Y12419297D01*
X12848929Y12416420D01*
X12848256Y12417680D01*
X12788413Y12398943D01*
X12721033Y12417429D01*
X12674344Y12469409D01*
X12664585Y12498732D01*
X12651557Y12564227D01*
X12643580Y12604328D01*
X12643578Y12604333D01*
X12590778Y12731805D01*
X12590771Y12731818D01*
X12514114Y12846542D01*
X12514111Y12846546D01*
X12472838Y12887819D01*
X12439353Y12949142D01*
X12444337Y13018834D01*
X12486209Y13074767D01*
X12551673Y13099184D01*
X12560519Y13099500D01*
X14178267Y13099500D01*
X14245306Y13079815D01*
X14265948Y13063181D01*
X14356175Y12972954D01*
X14356179Y12972951D01*
X14474998Y12893558D01*
X14475004Y12893555D01*
X14475005Y12893554D01*
X14607038Y12838864D01*
X14625177Y12835256D01*
X14647128Y12830889D01*
X14709039Y12798504D01*
X14743614Y12737788D01*
X14739874Y12668019D01*
X14710619Y12621591D01*
X14642008Y12552980D01*
X14565351Y12438256D01*
X14565344Y12438243D01*
X14512544Y12310771D01*
X14512541Y12310761D01*
X14485623Y12175434D01*
X14485623Y12175431D01*
X14485623Y12037445D01*
X14485623Y12037443D01*
X14485622Y12037443D01*
X14512541Y11902116D01*
X14512544Y11902106D01*
X14565344Y11774634D01*
X14565351Y11774621D01*
X14642008Y11659897D01*
X14642011Y11659893D01*
X14739577Y11562327D01*
X14739581Y11562324D01*
X14854305Y11485667D01*
X14854318Y11485660D01*
X14981790Y11432860D01*
X14981795Y11432858D01*
X14981799Y11432858D01*
X14981800Y11432857D01*
X15117127Y11405938D01*
X15117130Y11405938D01*
X15255118Y11405938D01*
X15346164Y11424049D01*
X15390451Y11432858D01*
X15517934Y11485663D01*
X15632665Y11562324D01*
X15632668Y11562327D01*
X15639961Y11569619D01*
X15701284Y11603104D01*
X15727642Y11605938D01*
X17907646Y11605938D01*
X17974685Y11586253D01*
X18020440Y11533449D01*
X18030384Y11464291D01*
X18022207Y11434486D01*
X18002382Y11386625D01*
X18002379Y11386615D01*
X17974500Y11246458D01*
X17974500Y11246455D01*
X17974500Y11103545D01*
X17974500Y11103543D01*
X17974499Y11103543D01*
X18002379Y10963386D01*
X18002381Y10963380D01*
X18057069Y10831350D01*
X18057074Y10831341D01*
X18136467Y10712522D01*
X18136470Y10712518D01*
X18237517Y10611471D01*
X18237521Y10611468D01*
X18356340Y10532075D01*
X18356346Y10532072D01*
X18356347Y10532071D01*
X18488380Y10477381D01*
X18488384Y10477381D01*
X18488385Y10477380D01*
X18628542Y10449500D01*
X18628545Y10449500D01*
X18771457Y10449500D01*
X18865751Y10468258D01*
X18911620Y10477381D01*
X19043653Y10532071D01*
X19162479Y10611468D01*
X19263532Y10712521D01*
X19265437Y10715373D01*
X19268124Y10719392D01*
X19321737Y10764197D01*
X19371225Y10774500D01*
X27578662Y10774500D01*
X27645701Y10754815D01*
X27681764Y10719391D01*
X27736467Y10637521D01*
X27837517Y10536471D01*
X27837521Y10536468D01*
X27956340Y10457075D01*
X27956346Y10457072D01*
X27956347Y10457071D01*
X28088380Y10402381D01*
X28088384Y10402381D01*
X28088385Y10402380D01*
X28228542Y10374500D01*
X28228545Y10374500D01*
X28371457Y10374500D01*
X28465751Y10393258D01*
X28511620Y10402381D01*
X28643653Y10457071D01*
X28762479Y10536468D01*
X28863532Y10637521D01*
X28942929Y10756347D01*
X28997619Y10888380D01*
X29014750Y10974500D01*
X29025500Y11028543D01*
X29025500Y11171458D01*
X29019562Y11201308D01*
X29025789Y11270899D01*
X29068651Y11326077D01*
X29134541Y11349322D01*
X29141179Y11349500D01*
X30359932Y11349500D01*
X30407385Y11340061D01*
X30409402Y11339226D01*
X30409403Y11339225D01*
X30536886Y11286420D01*
X30536890Y11286420D01*
X30536891Y11286419D01*
X30672218Y11259500D01*
X30672221Y11259500D01*
X30810209Y11259500D01*
X30901255Y11277611D01*
X30945542Y11286420D01*
X30975471Y11298818D01*
X31044938Y11306287D01*
X31107418Y11275014D01*
X31126026Y11253148D01*
X31136467Y11237522D01*
X31136470Y11237518D01*
X31237517Y11136471D01*
X31237521Y11136468D01*
X31356340Y11057075D01*
X31356346Y11057072D01*
X31356347Y11057071D01*
X31488380Y11002381D01*
X31488384Y11002381D01*
X31488385Y11002380D01*
X31628542Y10974500D01*
X31628545Y10974500D01*
X31771457Y10974500D01*
X31865751Y10993258D01*
X31911620Y11002381D01*
X32043653Y11057071D01*
X32162479Y11136468D01*
X32263532Y11237521D01*
X32342929Y11356347D01*
X32397619Y11488380D01*
X32416191Y11581746D01*
X32425500Y11628543D01*
X32425500Y11771458D01*
X32397620Y11911615D01*
X32397619Y11911616D01*
X32397619Y11911620D01*
X32345501Y12037443D01*
X32342930Y12043651D01*
X32342925Y12043660D01*
X32263532Y12162479D01*
X32263529Y12162483D01*
X32162482Y12263530D01*
X32162478Y12263533D01*
X32043659Y12342926D01*
X32043650Y12342931D01*
X31911620Y12397619D01*
X31911614Y12397621D01*
X31771457Y12425500D01*
X31771455Y12425500D01*
X31628545Y12425500D01*
X31628540Y12425500D01*
X31587226Y12417282D01*
X31517634Y12423509D01*
X31462457Y12466373D01*
X31439213Y12532262D01*
X31448474Y12586352D01*
X31449314Y12588380D01*
X31474092Y12648199D01*
X31490074Y12728545D01*
X31501012Y12783532D01*
X31501012Y12921523D01*
X31474093Y13056850D01*
X31474092Y13056851D01*
X31474092Y13056855D01*
X31432685Y13156819D01*
X31425217Y13226288D01*
X31456492Y13288767D01*
X31516581Y13324419D01*
X31571439Y13325888D01*
X31585966Y13322999D01*
X31601622Y13319884D01*
X31601623Y13319884D01*
X31739611Y13319884D01*
X31837606Y13339377D01*
X31874944Y13346804D01*
X32002427Y13399609D01*
X32117158Y13476270D01*
X32214730Y13573842D01*
X32291391Y13688573D01*
X32344196Y13816056D01*
X32371116Y13951391D01*
X32371116Y14089377D01*
X32371116Y14089380D01*
X32344197Y14224707D01*
X32344196Y14224708D01*
X32344196Y14224712D01*
X32295992Y14341088D01*
X32291394Y14352189D01*
X32291387Y14352202D01*
X32214730Y14466926D01*
X32214727Y14466930D01*
X32117161Y14564496D01*
X32117157Y14564499D01*
X32002433Y14641156D01*
X32002420Y14641163D01*
X31945245Y14664845D01*
X31890841Y14708686D01*
X31868776Y14774980D01*
X31886055Y14842679D01*
X31905016Y14867088D01*
X31910848Y14872919D01*
X31987509Y14987650D01*
X31987961Y14988740D01*
X32001646Y15021780D01*
X32040314Y15115133D01*
X32040315Y15115141D01*
X32040729Y15116502D01*
X32041142Y15117134D01*
X32042645Y15120760D01*
X32043332Y15120476D01*
X32079026Y15174941D01*
X32135195Y15202125D01*
X32202037Y15215420D01*
X32329520Y15268225D01*
X32444251Y15344886D01*
X32541823Y15442458D01*
X32618484Y15557189D01*
X32671289Y15684672D01*
X32691153Y15784535D01*
X32698209Y15820005D01*
X32698209Y15957996D01*
X32698208Y15957998D01*
X32674675Y16076309D01*
X32680902Y16145900D01*
X32723765Y16201078D01*
X32789655Y16224322D01*
X32796292Y16224500D01*
X42190890Y16224500D01*
X42190892Y16224500D01*
X42318186Y16258608D01*
X42432314Y16324500D01*
X42445995Y16338181D01*
X42507318Y16371666D01*
X42533676Y16374500D01*
X42571457Y16374500D01*
X42665751Y16393258D01*
X42711620Y16402381D01*
X42843653Y16457071D01*
X42962479Y16536468D01*
X43063532Y16637521D01*
X43142929Y16756347D01*
X43197619Y16888380D01*
X43225500Y17028545D01*
X43225500Y17171455D01*
X43225500Y17171458D01*
X43197620Y17311615D01*
X43197619Y17311616D01*
X43197619Y17311620D01*
X43142929Y17443653D01*
X43142928Y17443654D01*
X43142925Y17443660D01*
X43063532Y17562479D01*
X43063529Y17562483D01*
X42962482Y17663530D01*
X42962478Y17663533D01*
X42843659Y17742926D01*
X42843650Y17742931D01*
X42711620Y17797619D01*
X42711614Y17797621D01*
X42571457Y17825500D01*
X42571455Y17825500D01*
X42428545Y17825500D01*
X42428543Y17825500D01*
X42288385Y17797621D01*
X42288379Y17797619D01*
X42156349Y17742931D01*
X42156340Y17742926D01*
X42037521Y17663533D01*
X42037517Y17663530D01*
X41936470Y17562483D01*
X41936467Y17562479D01*
X41857074Y17443660D01*
X41857069Y17443651D01*
X41808361Y17326059D01*
X41802382Y17311621D01*
X41800050Y17305992D01*
X41798462Y17306650D01*
X41764649Y17255061D01*
X41700834Y17226608D01*
X41684292Y17225500D01*
X33720670Y17225500D01*
X33653631Y17245185D01*
X33607876Y17297989D01*
X33597932Y17367147D01*
X33617568Y17418391D01*
X33642925Y17456341D01*
X33642925Y17456342D01*
X33642929Y17456347D01*
X33697619Y17588380D01*
X33713803Y17669739D01*
X33725500Y17728543D01*
X33725500Y17825500D01*
X33745185Y17892539D01*
X33797989Y17938294D01*
X33849500Y17949500D01*
X38386739Y17949500D01*
X38453778Y17929815D01*
X38474415Y17913186D01*
X38515810Y17871791D01*
X38553459Y17834142D01*
X38668182Y17757486D01*
X38668195Y17757479D01*
X38795667Y17704679D01*
X38795672Y17704677D01*
X38795676Y17704677D01*
X38795677Y17704676D01*
X38931004Y17677757D01*
X38931007Y17677757D01*
X39068995Y17677757D01*
X39160041Y17695868D01*
X39204328Y17704677D01*
X39331811Y17757482D01*
X39446542Y17834143D01*
X39544114Y17931715D01*
X39620775Y18046446D01*
X39625563Y18058004D01*
X39650303Y18117734D01*
X39673580Y18173929D01*
X39700500Y18309264D01*
X39700500Y18447250D01*
X39700500Y18447253D01*
X39673581Y18582580D01*
X39673580Y18582581D01*
X39673580Y18582585D01*
X39663740Y18606341D01*
X39620778Y18710062D01*
X39620771Y18710075D01*
X39544114Y18824799D01*
X39544111Y18824803D01*
X39446545Y18922369D01*
X39446537Y18922375D01*
X39331813Y18999031D01*
X39331807Y18999034D01*
X39320309Y19003797D01*
X39265907Y19047639D01*
X39243843Y19113933D01*
X39243764Y19118357D01*
X39243764Y19126768D01*
X39216845Y19262095D01*
X39216844Y19262096D01*
X39216844Y19262100D01*
X39212653Y19272219D01*
X39164042Y19389577D01*
X39164035Y19389590D01*
X39087378Y19504314D01*
X39087375Y19504318D01*
X38989809Y19601884D01*
X38989805Y19601887D01*
X38875081Y19678544D01*
X38875072Y19678549D01*
X38751521Y19729725D01*
X38697118Y19773566D01*
X38677357Y19820095D01*
X38672502Y19844500D01*
X38660517Y19904754D01*
X38660515Y19904759D01*
X38607715Y20032231D01*
X38607708Y20032244D01*
X38531051Y20146968D01*
X38531048Y20146972D01*
X38433482Y20244538D01*
X38433478Y20244541D01*
X38313683Y20324586D01*
X38315220Y20326887D01*
X38313704Y20328376D01*
X38300950Y20334200D01*
X38289270Y20352375D01*
X38273859Y20367511D01*
X38269996Y20382365D01*
X38263176Y20392978D01*
X38258153Y20427913D01*
X38258153Y20475500D01*
X38277838Y20542539D01*
X38330642Y20588294D01*
X38382153Y20599500D01*
X38808481Y20599500D01*
X38875520Y20579815D01*
G37*
G04 #@! TD.AperFunction*
G04 #@! TA.AperFunction,Conductor*
G36*
X39733363Y979815D02*
G01*
X39754005Y963181D01*
X40005005Y712181D01*
X40038490Y650858D01*
X40033506Y581166D01*
X39991634Y525233D01*
X39926170Y500816D01*
X39917324Y500500D01*
X30836895Y500500D01*
X30769856Y520185D01*
X30724101Y572989D01*
X30714157Y642147D01*
X30722334Y671953D01*
X30738997Y712181D01*
X30773580Y795672D01*
X30794271Y899691D01*
X30826656Y961602D01*
X30887371Y996176D01*
X30915888Y999500D01*
X30940893Y999500D01*
X39666324Y999500D01*
X39733363Y979815D01*
G37*
G04 #@! TD.AperFunction*
G04 #@! TA.AperFunction,Conductor*
G36*
X44418833Y2669874D02*
G01*
X44474767Y2628003D01*
X44499184Y2562538D01*
X44499500Y2553692D01*
X44499500Y2197310D01*
X44479815Y2130271D01*
X44463181Y2109629D01*
X44301283Y1947732D01*
X44301283Y1947731D01*
X44338570Y1920640D01*
X44431794Y1873140D01*
X44482591Y1825166D01*
X44499500Y1762655D01*
X44499500Y1273104D01*
X44479815Y1206065D01*
X44427011Y1160310D01*
X44357853Y1150366D01*
X44294297Y1179391D01*
X44272398Y1204213D01*
X44244114Y1246542D01*
X44244111Y1246546D01*
X44146545Y1344112D01*
X44146541Y1344115D01*
X44031817Y1420772D01*
X44031804Y1420779D01*
X43904332Y1473579D01*
X43904322Y1473582D01*
X43768995Y1500500D01*
X43768993Y1500500D01*
X43631007Y1500500D01*
X43631005Y1500500D01*
X43495677Y1473582D01*
X43495667Y1473579D01*
X43368195Y1420779D01*
X43368177Y1420769D01*
X43269433Y1354790D01*
X43202756Y1333912D01*
X43135376Y1352397D01*
X43088686Y1404376D01*
X43076543Y1457892D01*
X43076543Y1568996D01*
X43049624Y1704323D01*
X43049623Y1704324D01*
X43049623Y1704328D01*
X43029273Y1753458D01*
X42996821Y1831805D01*
X42996814Y1831818D01*
X42927446Y1935634D01*
X42906568Y2002311D01*
X42925052Y2069692D01*
X42977031Y2116382D01*
X43030548Y2128525D01*
X43102523Y2128525D01*
X43193569Y2146636D01*
X43237856Y2155445D01*
X43365339Y2208250D01*
X43480070Y2284911D01*
X43577642Y2382483D01*
X43633595Y2466222D01*
X43642011Y2478817D01*
X43695623Y2523623D01*
X43764948Y2532330D01*
X43827975Y2502176D01*
X43855598Y2466222D01*
X43920641Y2338568D01*
X43947730Y2301285D01*
X44287819Y2641373D01*
X44349142Y2674858D01*
X44418833Y2669874D01*
G37*
G04 #@! TD.AperFunction*
G04 #@! TA.AperFunction,Conductor*
G36*
X12356147Y3070133D02*
G01*
X12371640Y3070724D01*
X12388987Y3060490D01*
X12408312Y3054815D01*
X12418464Y3043099D01*
X12431817Y3035221D01*
X12440878Y3017232D01*
X12454067Y3002011D01*
X12456273Y2986668D01*
X12463248Y2972820D01*
X12464595Y2937552D01*
X12464000Y2931888D01*
X12441544Y2818993D01*
X12441544Y2718010D01*
X12440866Y2711552D01*
X12429945Y2685001D01*
X12421859Y2657461D01*
X12416824Y2653099D01*
X12414289Y2646934D01*
X12390742Y2630499D01*
X12369055Y2611706D01*
X12362461Y2610758D01*
X12356996Y2606943D01*
X12317544Y2600500D01*
X11249320Y2600500D01*
X11237146Y2601298D01*
X11235131Y2601298D01*
X10986921Y2601298D01*
X10919882Y2620983D01*
X10874127Y2673787D01*
X10864183Y2742945D01*
X10865304Y2749489D01*
X10880156Y2824159D01*
X10881518Y2831007D01*
X10881518Y2841324D01*
X10901203Y2908363D01*
X10917837Y2929005D01*
X11027013Y3038181D01*
X11088336Y3071666D01*
X11114694Y3074500D01*
X12341273Y3074500D01*
X12356147Y3070133D01*
G37*
G04 #@! TD.AperFunction*
G04 #@! TA.AperFunction,Conductor*
G36*
X32017539Y4179815D02*
G01*
X32063294Y4127011D01*
X32074500Y4075500D01*
X32074500Y4071455D01*
X32074500Y3928545D01*
X32074500Y3928543D01*
X32074499Y3928543D01*
X32102379Y3788386D01*
X32102381Y3788380D01*
X32157069Y3656350D01*
X32157074Y3656341D01*
X32236467Y3537522D01*
X32236470Y3537518D01*
X32337517Y3436471D01*
X32337521Y3436468D01*
X32456340Y3357075D01*
X32456349Y3357070D01*
X32481766Y3346542D01*
X32588380Y3302381D01*
X32588384Y3302381D01*
X32588385Y3302380D01*
X32728542Y3274500D01*
X32728545Y3274500D01*
X32871457Y3274500D01*
X32985317Y3297149D01*
X33011620Y3302381D01*
X33143653Y3357071D01*
X33262479Y3436468D01*
X33363532Y3537521D01*
X33442929Y3656347D01*
X33497619Y3788380D01*
X33517907Y3890374D01*
X33525500Y3928543D01*
X33525500Y4075500D01*
X33545185Y4142539D01*
X33597989Y4188294D01*
X33649500Y4199500D01*
X36478047Y4199500D01*
X36545086Y4179815D01*
X36590841Y4127011D01*
X36600785Y4057853D01*
X36592608Y4028048D01*
X36524106Y3862668D01*
X36524103Y3862659D01*
X36489500Y3688696D01*
X36489500Y3511305D01*
X36524103Y3337342D01*
X36524106Y3337333D01*
X36592608Y3171952D01*
X36600077Y3102482D01*
X36568801Y3040003D01*
X36508712Y3004352D01*
X36478047Y3000500D01*
X32458676Y3000500D01*
X32391637Y3020185D01*
X32370995Y3036819D01*
X31807316Y3600498D01*
X31807314Y3600500D01*
X31710595Y3656341D01*
X31693187Y3666392D01*
X31609964Y3688691D01*
X31565892Y3700500D01*
X31565891Y3700500D01*
X29449500Y3700500D01*
X29382461Y3720185D01*
X29336706Y3772989D01*
X29325500Y3824500D01*
X29325500Y3971458D01*
X29309616Y4051308D01*
X29315843Y4120899D01*
X29358705Y4176077D01*
X29424595Y4199322D01*
X29431233Y4199500D01*
X31950500Y4199500D01*
X32017539Y4179815D01*
G37*
G04 #@! TD.AperFunction*
G04 #@! TA.AperFunction,Conductor*
G36*
X43255663Y4843868D02*
G01*
X43275641Y4843154D01*
X43288500Y4834226D01*
X43303521Y4829815D01*
X43316610Y4814709D01*
X43333034Y4803306D01*
X43347243Y4779357D01*
X43349276Y4777011D01*
X43351043Y4772953D01*
X43377181Y4709849D01*
X43377186Y4709840D01*
X43453843Y4595116D01*
X43453846Y4595112D01*
X43551412Y4497546D01*
X43551416Y4497543D01*
X43666140Y4420886D01*
X43666153Y4420879D01*
X43793625Y4368079D01*
X43793630Y4368077D01*
X43793634Y4368077D01*
X43793635Y4368076D01*
X43928962Y4341157D01*
X43928965Y4341157D01*
X44066953Y4341157D01*
X44157999Y4359268D01*
X44202286Y4368077D01*
X44328047Y4420170D01*
X44360675Y4423677D01*
X44393147Y4428346D01*
X44395234Y4427393D01*
X44397517Y4427638D01*
X44426860Y4412950D01*
X44456703Y4399321D01*
X44457943Y4397391D01*
X44459996Y4396363D01*
X44476736Y4368148D01*
X44494477Y4340543D01*
X44494912Y4337514D01*
X44495648Y4336274D01*
X44499500Y4305608D01*
X44499500Y4237347D01*
X44479815Y4170308D01*
X44431796Y4126863D01*
X44338566Y4079359D01*
X44301283Y4052271D01*
X44463181Y3890374D01*
X44496666Y3829051D01*
X44499500Y3802692D01*
X44499500Y3446310D01*
X44479815Y3379271D01*
X44427011Y3333516D01*
X44357853Y3323572D01*
X44294297Y3352597D01*
X44287819Y3358629D01*
X43947730Y3698718D01*
X43947729Y3698717D01*
X43920643Y3661436D01*
X43830458Y3484439D01*
X43779764Y3328420D01*
X43740326Y3270745D01*
X43675967Y3243547D01*
X43607121Y3255462D01*
X43574152Y3279058D01*
X43480073Y3373137D01*
X43480069Y3373140D01*
X43365345Y3449797D01*
X43365332Y3449804D01*
X43237860Y3502604D01*
X43237850Y3502607D01*
X43102523Y3529525D01*
X43102521Y3529525D01*
X42964535Y3529525D01*
X42964533Y3529525D01*
X42829205Y3502607D01*
X42829195Y3502604D01*
X42701723Y3449804D01*
X42701710Y3449797D01*
X42586986Y3373140D01*
X42586982Y3373137D01*
X42550667Y3336820D01*
X42523736Y3322115D01*
X42497920Y3305523D01*
X42491721Y3304632D01*
X42489345Y3303334D01*
X42462985Y3300500D01*
X42300862Y3300500D01*
X42233823Y3320185D01*
X42213181Y3336819D01*
X42200000Y3350000D01*
X41409618Y3350000D01*
X41460064Y3400446D01*
X41502851Y3474555D01*
X41525000Y3557213D01*
X41525000Y3642787D01*
X41502851Y3725445D01*
X41460064Y3799554D01*
X41409618Y3850000D01*
X42200000Y3850000D01*
X42200000Y4147828D01*
X42199999Y4147845D01*
X42193598Y4207373D01*
X42193596Y4207380D01*
X42143354Y4342087D01*
X42143352Y4342090D01*
X42074232Y4434423D01*
X42049815Y4499887D01*
X42051380Y4524896D01*
X42050903Y4524942D01*
X42051500Y4531005D01*
X42051500Y4668993D01*
X42045072Y4701310D01*
X42051301Y4770901D01*
X42094164Y4826078D01*
X42160054Y4849322D01*
X42166690Y4849500D01*
X43236482Y4849500D01*
X43255663Y4843868D01*
G37*
G04 #@! TD.AperFunction*
G04 #@! TA.AperFunction,Conductor*
G36*
X20195594Y6079815D02*
G01*
X20241349Y6027011D01*
X20250172Y5999691D01*
X20263502Y5932676D01*
X20263505Y5932664D01*
X20316305Y5805192D01*
X20316312Y5805179D01*
X20390339Y5694391D01*
X20411217Y5627714D01*
X20392733Y5560333D01*
X20340754Y5513643D01*
X20287237Y5501500D01*
X16236895Y5501500D01*
X16169856Y5521185D01*
X16132813Y5558099D01*
X16126663Y5567596D01*
X16120775Y5581811D01*
X16044114Y5696542D01*
X16041408Y5699248D01*
X16035793Y5707919D01*
X16027744Y5734981D01*
X16016708Y5760970D01*
X16017916Y5768029D01*
X16015876Y5774890D01*
X16023735Y5802008D01*
X16028502Y5829837D01*
X16033333Y5835120D01*
X16035327Y5841997D01*
X16056602Y5860563D01*
X16075656Y5881395D01*
X16081434Y5884685D01*
X16081805Y5884884D01*
X16081811Y5884886D01*
X16081816Y5884890D01*
X16081819Y5884891D01*
X16131684Y5918210D01*
X16196542Y5961547D01*
X16234686Y5999691D01*
X16298177Y6063181D01*
X16359500Y6096666D01*
X16385858Y6099500D01*
X20128555Y6099500D01*
X20195594Y6079815D01*
G37*
G04 #@! TD.AperFunction*
G04 #@! TA.AperFunction,Conductor*
G36*
X12634860Y16933909D02*
G01*
X12690793Y16892037D01*
X12706087Y16865179D01*
X12728221Y16811741D01*
X12728228Y16811728D01*
X12804885Y16697004D01*
X12804888Y16697000D01*
X12902454Y16599434D01*
X12902458Y16599431D01*
X13017182Y16522774D01*
X13017195Y16522767D01*
X13118014Y16481007D01*
X13144672Y16469965D01*
X13144676Y16469965D01*
X13144677Y16469964D01*
X13280004Y16443045D01*
X13280007Y16443045D01*
X13417995Y16443045D01*
X13509041Y16461156D01*
X13553328Y16469965D01*
X13680811Y16522770D01*
X13795542Y16599431D01*
X13795546Y16599436D01*
X13798331Y16601296D01*
X13823607Y16609211D01*
X13847506Y16620616D01*
X13856426Y16619487D01*
X13865009Y16622174D01*
X13890549Y16615168D01*
X13916822Y16611842D01*
X13923715Y16606070D01*
X13932389Y16603690D01*
X13950089Y16583986D01*
X13970391Y16566985D01*
X13974685Y16556603D01*
X13979079Y16551712D01*
X13985593Y16535133D01*
X13987558Y16528834D01*
X14006882Y16431690D01*
X14051453Y16324085D01*
X14053121Y16318741D01*
X14053620Y16289184D01*
X14056781Y16259785D01*
X14054223Y16253453D01*
X14054301Y16248881D01*
X14048770Y16239947D01*
X14037853Y16212911D01*
X13995619Y16149705D01*
X13995612Y16149692D01*
X13942812Y16022220D01*
X13942809Y16022210D01*
X13915891Y15886883D01*
X13915891Y15886880D01*
X13915891Y15748894D01*
X13915891Y15748892D01*
X13915890Y15748892D01*
X13942809Y15613565D01*
X13942812Y15613555D01*
X13995612Y15486083D01*
X13995619Y15486070D01*
X14072276Y15371346D01*
X14072279Y15371342D01*
X14169845Y15273776D01*
X14169849Y15273773D01*
X14284573Y15197116D01*
X14284586Y15197109D01*
X14381250Y15157070D01*
X14412063Y15144307D01*
X14412067Y15144307D01*
X14412068Y15144306D01*
X14547395Y15117387D01*
X14547398Y15117387D01*
X14685386Y15117387D01*
X14801087Y15140402D01*
X14820719Y15144307D01*
X14948202Y15197112D01*
X15062933Y15273773D01*
X15160505Y15371345D01*
X15190675Y15416497D01*
X15209313Y15444391D01*
X15262925Y15489196D01*
X15312415Y15499500D01*
X18758481Y15499500D01*
X18825520Y15479815D01*
X18846162Y15463181D01*
X18853454Y15455889D01*
X18853458Y15455886D01*
X18968182Y15379229D01*
X18968195Y15379222D01*
X19068879Y15337518D01*
X19095672Y15326420D01*
X19095676Y15326420D01*
X19095677Y15326419D01*
X19231004Y15299500D01*
X19231007Y15299500D01*
X19368995Y15299500D01*
X19460041Y15317611D01*
X19504328Y15326420D01*
X19622818Y15375500D01*
X19631804Y15379222D01*
X19631804Y15379223D01*
X19631811Y15379225D01*
X19746542Y15455886D01*
X19822132Y15531477D01*
X19883453Y15564960D01*
X19953145Y15559976D01*
X20009079Y15518105D01*
X20033496Y15452641D01*
X20031251Y15422979D01*
X20031807Y15422885D01*
X20031828Y15422882D01*
X20031827Y15422881D01*
X20032021Y15422848D01*
X20031437Y15419413D01*
X20000000Y15140402D01*
X20000000Y14859599D01*
X20031437Y14580588D01*
X20031439Y14580576D01*
X20093921Y14306822D01*
X20093922Y14306820D01*
X20186662Y14041783D01*
X20308492Y13788800D01*
X20457884Y13551044D01*
X20564187Y13417743D01*
X21637425Y14490982D01*
X21723249Y14362537D01*
X21862537Y14223249D01*
X21990979Y14137426D01*
X20990373Y13136819D01*
X20929050Y13103334D01*
X20902692Y13100500D01*
X16527982Y13100500D01*
X16460943Y13120185D01*
X16415188Y13172989D01*
X16413421Y13177047D01*
X16386029Y13243177D01*
X16386024Y13243186D01*
X16309367Y13357910D01*
X16309364Y13357914D01*
X16211798Y13455480D01*
X16211794Y13455483D01*
X16097070Y13532140D01*
X16097057Y13532147D01*
X15969585Y13584947D01*
X15969575Y13584950D01*
X15834248Y13611868D01*
X15834246Y13611868D01*
X15696260Y13611868D01*
X15670811Y13606806D01*
X15601220Y13613035D01*
X15546043Y13655898D01*
X15525004Y13704232D01*
X15516278Y13748098D01*
X15516277Y13748099D01*
X15516277Y13748103D01*
X15463732Y13874958D01*
X15461588Y13880134D01*
X15461583Y13880143D01*
X15382190Y13998962D01*
X15382187Y13998966D01*
X15281140Y14100013D01*
X15281136Y14100016D01*
X15162317Y14179409D01*
X15162308Y14179414D01*
X15030278Y14234102D01*
X15030272Y14234104D01*
X14890115Y14261983D01*
X14890113Y14261983D01*
X14747203Y14261983D01*
X14747201Y14261983D01*
X14607043Y14234104D01*
X14607037Y14234102D01*
X14475007Y14179414D01*
X14474999Y14179409D01*
X14388181Y14121398D01*
X14321504Y14100520D01*
X14319290Y14100500D01*
X7392237Y14100500D01*
X7325198Y14120185D01*
X7279443Y14172989D01*
X7269499Y14242147D01*
X7298524Y14305703D01*
X7323347Y14327602D01*
X7351100Y14346148D01*
X7362479Y14353750D01*
X7463532Y14454803D01*
X7542929Y14573629D01*
X7597619Y14705662D01*
X7606742Y14751531D01*
X7625500Y14845825D01*
X7625500Y14988740D01*
X7622979Y15001406D01*
X7621981Y15006427D01*
X7622688Y15014338D01*
X7619913Y15021780D01*
X7625756Y15048640D01*
X7628205Y15076018D01*
X7633456Y15084031D01*
X7634766Y15090052D01*
X7655918Y15118306D01*
X7700034Y15162420D01*
X7761358Y15195904D01*
X7787713Y15198737D01*
X11974596Y15198737D01*
X12041635Y15179052D01*
X12062277Y15162418D01*
X12089569Y15135126D01*
X12089573Y15135123D01*
X12204297Y15058466D01*
X12204310Y15058459D01*
X12292862Y15021780D01*
X12331787Y15005657D01*
X12331791Y15005657D01*
X12331792Y15005656D01*
X12467119Y14978737D01*
X12467122Y14978737D01*
X12605110Y14978737D01*
X12696156Y14996848D01*
X12740443Y15005657D01*
X12844214Y15048640D01*
X12867919Y15058459D01*
X12867919Y15058460D01*
X12867926Y15058462D01*
X12982657Y15135123D01*
X13080229Y15232695D01*
X13156890Y15347426D01*
X13158605Y15351565D01*
X13170063Y15379229D01*
X13209695Y15474909D01*
X13221371Y15533609D01*
X13236615Y15610242D01*
X13236615Y15748233D01*
X13209696Y15883560D01*
X13209695Y15883561D01*
X13209695Y15883565D01*
X13204676Y15895682D01*
X13156893Y16011042D01*
X13156886Y16011055D01*
X13080229Y16125779D01*
X13080226Y16125783D01*
X12982660Y16223349D01*
X12982656Y16223352D01*
X12867932Y16300009D01*
X12867919Y16300016D01*
X12740447Y16352816D01*
X12740437Y16352819D01*
X12605110Y16379737D01*
X12605108Y16379737D01*
X12467122Y16379737D01*
X12467120Y16379737D01*
X12331792Y16352819D01*
X12331787Y16352817D01*
X12258113Y16322301D01*
X12188644Y16314833D01*
X12126165Y16346109D01*
X12090513Y16406198D01*
X12093008Y16476024D01*
X12122978Y16524541D01*
X12503845Y16905409D01*
X12565168Y16938893D01*
X12634860Y16933909D01*
G37*
G04 #@! TD.AperFunction*
G04 #@! TA.AperFunction,Conductor*
G36*
X25804200Y16794145D02*
G01*
X25849955Y16741341D01*
X25859899Y16672183D01*
X25858778Y16665638D01*
X25849500Y16618996D01*
X25849500Y16618993D01*
X25849500Y16481007D01*
X25849500Y16481005D01*
X25849499Y16481005D01*
X25876418Y16345678D01*
X25876421Y16345668D01*
X25929221Y16218196D01*
X25929228Y16218183D01*
X26005885Y16103459D01*
X26005888Y16103455D01*
X26103454Y16005889D01*
X26103458Y16005886D01*
X26218182Y15929229D01*
X26218195Y15929222D01*
X26299169Y15895682D01*
X26345672Y15876420D01*
X26345676Y15876420D01*
X26345677Y15876419D01*
X26481004Y15849500D01*
X26481007Y15849500D01*
X26618995Y15849500D01*
X26744174Y15874400D01*
X26813766Y15868173D01*
X26856047Y15840464D01*
X27003825Y15692686D01*
X27097011Y15599500D01*
X27211139Y15533608D01*
X27338432Y15499500D01*
X27338433Y15499500D01*
X28528953Y15499500D01*
X28537638Y15496950D01*
X28546600Y15498238D01*
X28570640Y15487260D01*
X28595992Y15479815D01*
X28601919Y15472975D01*
X28610156Y15469213D01*
X28624445Y15446979D01*
X28641747Y15427011D01*
X28644034Y15416497D01*
X28647930Y15410435D01*
X28652953Y15375500D01*
X28652953Y15324500D01*
X28633268Y15257461D01*
X28580464Y15211706D01*
X28528953Y15200500D01*
X26340547Y15200500D01*
X26273508Y15220185D01*
X26248572Y15242386D01*
X26248422Y15242235D01*
X26245835Y15244822D01*
X26244687Y15245844D01*
X26244110Y15246547D01*
X26146545Y15344112D01*
X26146541Y15344115D01*
X26031817Y15420772D01*
X26031804Y15420779D01*
X25904332Y15473579D01*
X25904322Y15473582D01*
X25768995Y15500500D01*
X25768993Y15500500D01*
X25631007Y15500500D01*
X25631005Y15500500D01*
X25495677Y15473582D01*
X25495667Y15473579D01*
X25368195Y15420779D01*
X25368182Y15420772D01*
X25253458Y15344115D01*
X25187108Y15277765D01*
X25125784Y15244281D01*
X25056093Y15249266D01*
X25000159Y15291137D01*
X24976207Y15351565D01*
X24968563Y15419410D01*
X24968560Y15419425D01*
X24906078Y15693179D01*
X24906077Y15693181D01*
X24813337Y15958218D01*
X24691507Y16211201D01*
X24542115Y16448957D01*
X24411680Y16612517D01*
X24385272Y16677204D01*
X24398027Y16745899D01*
X24445898Y16796793D01*
X24508627Y16813830D01*
X25737161Y16813830D01*
X25804200Y16794145D01*
G37*
G04 #@! TD.AperFunction*
G04 #@! TA.AperFunction,Conductor*
G36*
X7145730Y16179815D02*
G01*
X7191485Y16127011D01*
X7201429Y16057853D01*
X7172404Y15994297D01*
X7166387Y15987836D01*
X6922336Y15743784D01*
X6846141Y15667589D01*
X6829543Y15658527D01*
X6815935Y15645395D01*
X6786439Y15634991D01*
X6784818Y15634105D01*
X6782651Y15633654D01*
X6739647Y15625100D01*
X6670056Y15631327D01*
X6653461Y15639327D01*
X6652839Y15639686D01*
X6652841Y15639686D01*
X6652836Y15639688D01*
X6652832Y15639689D01*
X6652828Y15639691D01*
X6609605Y15651273D01*
X6609605Y15651272D01*
X6579463Y15659349D01*
X6519183Y15675501D01*
X6383756Y15675501D01*
X6316717Y15695186D01*
X6270962Y15747990D01*
X6261018Y15817148D01*
X6290043Y15880704D01*
X6348821Y15918478D01*
X6351632Y15919268D01*
X6458529Y15947910D01*
X6572657Y16013802D01*
X6722036Y16163181D01*
X6783359Y16196666D01*
X6809717Y16199500D01*
X7078691Y16199500D01*
X7145730Y16179815D01*
G37*
G04 #@! TD.AperFunction*
G04 #@! TA.AperFunction,Conductor*
G36*
X6380539Y26474893D02*
G01*
X6426294Y26422089D01*
X6436238Y26352931D01*
X6407213Y26289375D01*
X6360952Y26256017D01*
X6320826Y26239398D01*
X6320814Y26239391D01*
X6189711Y26151790D01*
X6189707Y26151787D01*
X6078213Y26040293D01*
X6078210Y26040289D01*
X5990609Y25909186D01*
X5990602Y25909173D01*
X5930264Y25763502D01*
X5930261Y25763490D01*
X5899500Y25608847D01*
X5899500Y25451154D01*
X5930261Y25296511D01*
X5930263Y25296503D01*
X5955130Y25236468D01*
X5955138Y25236450D01*
X5962607Y25166980D01*
X5931332Y25104501D01*
X5919251Y25093151D01*
X5917520Y25091731D01*
X5816470Y24990681D01*
X5816467Y24990677D01*
X5737074Y24871858D01*
X5737069Y24871849D01*
X5682381Y24739819D01*
X5682379Y24739813D01*
X5654500Y24599656D01*
X5654500Y24484500D01*
X5634815Y24417461D01*
X5582011Y24371706D01*
X5530500Y24360500D01*
X2544108Y24360500D01*
X2416812Y24326392D01*
X2302686Y24260500D01*
X2296240Y24255553D01*
X2295144Y24256981D01*
X2242682Y24228334D01*
X2216324Y24225500D01*
X2178543Y24225500D01*
X2038385Y24197621D01*
X2038379Y24197619D01*
X1906349Y24142931D01*
X1906340Y24142926D01*
X1787521Y24063533D01*
X1787517Y24063530D01*
X1686470Y23962483D01*
X1686467Y23962479D01*
X1607074Y23843660D01*
X1607069Y23843651D01*
X1552381Y23711621D01*
X1552379Y23711615D01*
X1524500Y23571458D01*
X1524500Y23571455D01*
X1524500Y23428545D01*
X1524500Y23428543D01*
X1524499Y23428543D01*
X1552379Y23288386D01*
X1552381Y23288380D01*
X1607069Y23156350D01*
X1607074Y23156341D01*
X1686467Y23037522D01*
X1686470Y23037518D01*
X1787517Y22936471D01*
X1787521Y22936468D01*
X1906340Y22857075D01*
X1906349Y22857070D01*
X1911793Y22854815D01*
X2038380Y22802381D01*
X2038384Y22802381D01*
X2038385Y22802380D01*
X2178542Y22774500D01*
X2178545Y22774500D01*
X2321457Y22774500D01*
X2416767Y22793459D01*
X2461620Y22802381D01*
X2593653Y22857071D01*
X2712479Y22936468D01*
X2813532Y23037521D01*
X2892929Y23156347D01*
X2945371Y23282954D01*
X2989212Y23337356D01*
X3055506Y23359421D01*
X3059932Y23359500D01*
X6945500Y23359500D01*
X7012539Y23339815D01*
X7058294Y23287011D01*
X7069500Y23235500D01*
X7069500Y23171007D01*
X7069500Y23171005D01*
X7069499Y23171005D01*
X7096418Y23035678D01*
X7096421Y23035668D01*
X7149221Y22908196D01*
X7149228Y22908183D01*
X7225885Y22793459D01*
X7225888Y22793455D01*
X7323457Y22695886D01*
X7404882Y22641480D01*
X7449687Y22587868D01*
X7458394Y22518543D01*
X7457609Y22514193D01*
X7454500Y22498558D01*
X7454500Y22360572D01*
X7454500Y22360570D01*
X7454499Y22360570D01*
X7481418Y22225243D01*
X7481421Y22225233D01*
X7534221Y22097761D01*
X7534228Y22097748D01*
X7610885Y21983024D01*
X7610888Y21983020D01*
X7708454Y21885454D01*
X7708458Y21885451D01*
X7823182Y21808794D01*
X7823195Y21808787D01*
X7950667Y21755987D01*
X7950672Y21755985D01*
X7950676Y21755985D01*
X7950677Y21755984D01*
X8086004Y21729065D01*
X8086007Y21729065D01*
X8223995Y21729065D01*
X8315041Y21747176D01*
X8359328Y21755985D01*
X8407768Y21776050D01*
X8492440Y21811121D01*
X8493054Y21809637D01*
X8553814Y21822296D01*
X8612773Y21801796D01*
X8685693Y21753073D01*
X8685703Y21753067D01*
X8685705Y21753066D01*
X8817738Y21698376D01*
X8817742Y21698376D01*
X8817743Y21698375D01*
X8957900Y21670495D01*
X8957903Y21670495D01*
X9100815Y21670495D01*
X9195109Y21689253D01*
X9240978Y21698376D01*
X9371797Y21752564D01*
X9441263Y21760032D01*
X9503742Y21728757D01*
X9539395Y21668669D01*
X9540864Y21662195D01*
X9554038Y21595965D01*
X9554041Y21595956D01*
X9606841Y21468484D01*
X9606848Y21468471D01*
X9683505Y21353747D01*
X9683508Y21353743D01*
X9784416Y21252835D01*
X9791771Y21239364D01*
X9803059Y21228960D01*
X9808176Y21209322D01*
X9817901Y21191512D01*
X9816806Y21176203D01*
X9820677Y21161348D01*
X9814364Y21142061D01*
X9812917Y21121820D01*
X9803396Y21108548D01*
X9798944Y21094944D01*
X9780764Y21076997D01*
X9775023Y21068993D01*
X9770476Y21065292D01*
X9709962Y21024857D01*
X9662443Y20977339D01*
X9657531Y20973339D01*
X9630926Y20962163D01*
X9605602Y20948334D01*
X9595396Y20947237D01*
X9593114Y20946278D01*
X9590591Y20946721D01*
X9579243Y20945500D01*
X5187929Y20945500D01*
X5120890Y20965185D01*
X5084827Y21000610D01*
X5063535Y21032475D01*
X5063529Y21032483D01*
X4962482Y21133530D01*
X4962478Y21133533D01*
X4843659Y21212926D01*
X4843650Y21212931D01*
X4711620Y21267619D01*
X4711614Y21267621D01*
X4571457Y21295500D01*
X4571455Y21295500D01*
X4428545Y21295500D01*
X4428543Y21295500D01*
X4288385Y21267621D01*
X4288375Y21267618D01*
X4193722Y21228411D01*
X4173846Y21226275D01*
X4155116Y21219288D01*
X4139819Y21222616D01*
X4124253Y21220942D01*
X4106375Y21229891D01*
X4086843Y21234140D01*
X4064554Y21250826D01*
X4061774Y21252217D01*
X4058589Y21255291D01*
X4047894Y21265986D01*
X4014409Y21327309D01*
X4013985Y21329341D01*
X3997619Y21411620D01*
X3942929Y21543653D01*
X3942928Y21543654D01*
X3942925Y21543660D01*
X3863532Y21662479D01*
X3863529Y21662483D01*
X3762482Y21763530D01*
X3762478Y21763533D01*
X3643659Y21842926D01*
X3643650Y21842931D01*
X3511620Y21897619D01*
X3511614Y21897621D01*
X3371457Y21925500D01*
X3371455Y21925500D01*
X3228545Y21925500D01*
X3228543Y21925500D01*
X3088385Y21897621D01*
X3088379Y21897619D01*
X2956349Y21842931D01*
X2956340Y21842926D01*
X2837521Y21763533D01*
X2837517Y21763530D01*
X2736470Y21662483D01*
X2736467Y21662479D01*
X2657074Y21543660D01*
X2657069Y21543651D01*
X2602381Y21411621D01*
X2602379Y21411615D01*
X2574500Y21271458D01*
X2574500Y21271455D01*
X2574500Y21128545D01*
X2574500Y21128543D01*
X2574499Y21128543D01*
X2602379Y20988386D01*
X2602381Y20988380D01*
X2657069Y20856350D01*
X2657074Y20856341D01*
X2736467Y20737522D01*
X2736470Y20737518D01*
X2837517Y20636471D01*
X2837521Y20636468D01*
X2956340Y20557075D01*
X2956349Y20557070D01*
X2986258Y20544682D01*
X3088380Y20502381D01*
X3170527Y20486041D01*
X3232434Y20453658D01*
X3234014Y20452106D01*
X3469485Y20216635D01*
X3576635Y20109485D01*
X3656862Y20063166D01*
X3699244Y20038696D01*
X3707865Y20033719D01*
X3854234Y19994500D01*
X4017817Y19994500D01*
X4084856Y19974815D01*
X4086708Y19973602D01*
X4156340Y19927075D01*
X4156346Y19927072D01*
X4156347Y19927071D01*
X4288380Y19872381D01*
X4288384Y19872381D01*
X4288385Y19872380D01*
X4428542Y19844500D01*
X4434605Y19843903D01*
X4434519Y19843039D01*
X4474621Y19835062D01*
X4477858Y19833722D01*
X4477861Y19833722D01*
X4477865Y19833719D01*
X4624234Y19794500D01*
X4775767Y19794500D01*
X6499245Y19794500D01*
X6566284Y19774815D01*
X6612039Y19722011D01*
X6621983Y19652853D01*
X6592958Y19589297D01*
X6568136Y19567398D01*
X6487521Y19513533D01*
X6487517Y19513530D01*
X6386470Y19412483D01*
X6386467Y19412479D01*
X6307074Y19293660D01*
X6307069Y19293651D01*
X6252381Y19161621D01*
X6252379Y19161615D01*
X6224500Y19021458D01*
X6224500Y19021455D01*
X6224500Y18878545D01*
X6224500Y18878543D01*
X6224499Y18878543D01*
X6252379Y18738386D01*
X6252381Y18738380D01*
X6307069Y18606350D01*
X6307074Y18606341D01*
X6386467Y18487522D01*
X6386470Y18487518D01*
X6487517Y18386471D01*
X6487525Y18386465D01*
X6567286Y18333170D01*
X6612092Y18279558D01*
X6620799Y18210233D01*
X6590645Y18147206D01*
X6567288Y18126966D01*
X6484707Y18071787D01*
X6373213Y17960293D01*
X6373207Y17960285D01*
X6285607Y17829182D01*
X6285603Y17829176D01*
X6259401Y17765920D01*
X6254770Y17758990D01*
X6253674Y17753950D01*
X6232524Y17725695D01*
X6168649Y17661820D01*
X6107328Y17628334D01*
X6080968Y17625500D01*
X4464960Y17625500D01*
X4417508Y17634939D01*
X4333501Y17669736D01*
X4333489Y17669739D01*
X4178845Y17700500D01*
X4178842Y17700500D01*
X4021158Y17700500D01*
X4021155Y17700500D01*
X3866510Y17669739D01*
X3866498Y17669736D01*
X3720827Y17609398D01*
X3720814Y17609391D01*
X3589711Y17521790D01*
X3589707Y17521787D01*
X3478213Y17410293D01*
X3478210Y17410289D01*
X3390609Y17279186D01*
X3390602Y17279173D01*
X3330264Y17133502D01*
X3330261Y17133490D01*
X3299500Y16978847D01*
X3299500Y16821154D01*
X3330261Y16666511D01*
X3330264Y16666499D01*
X3390602Y16520828D01*
X3390609Y16520815D01*
X3478210Y16389712D01*
X3478213Y16389708D01*
X3589707Y16278214D01*
X3589711Y16278211D01*
X3720814Y16190610D01*
X3720827Y16190603D01*
X3834176Y16143653D01*
X3866503Y16130263D01*
X3997751Y16104156D01*
X4021153Y16099501D01*
X4021156Y16099500D01*
X4021158Y16099500D01*
X4178842Y16099500D01*
X4190704Y16101860D01*
X4205329Y16100552D01*
X4219564Y16104156D01*
X4239426Y16097504D01*
X4260294Y16095637D01*
X4273064Y16086236D01*
X4285815Y16081965D01*
X4303843Y16063577D01*
X4311601Y16057866D01*
X4314992Y16053642D01*
X4383025Y15951823D01*
X4452449Y15882399D01*
X4456685Y15877122D01*
X4467521Y15850819D01*
X4481151Y15825858D01*
X4480656Y15818937D01*
X4483300Y15812519D01*
X4478195Y15784535D01*
X4476167Y15756166D01*
X4472008Y15750611D01*
X4470763Y15743784D01*
X4451340Y15723003D01*
X4434295Y15700233D01*
X4427793Y15697809D01*
X4423055Y15692738D01*
X4395483Y15685757D01*
X4368831Y15675816D01*
X4359985Y15675500D01*
X2219032Y15675500D01*
X2151993Y15695185D01*
X2131351Y15711819D01*
X2061819Y15781351D01*
X2028334Y15842674D01*
X2025500Y15869032D01*
X2025500Y15871458D01*
X1997620Y16011615D01*
X1997619Y16011616D01*
X1997619Y16011620D01*
X1942929Y16143653D01*
X1942928Y16143654D01*
X1942925Y16143660D01*
X1863532Y16262479D01*
X1863529Y16262483D01*
X1762482Y16363530D01*
X1762478Y16363533D01*
X1643659Y16442926D01*
X1643650Y16442931D01*
X1511620Y16497619D01*
X1511614Y16497621D01*
X1371457Y16525500D01*
X1371455Y16525500D01*
X1228545Y16525500D01*
X1228543Y16525500D01*
X1088385Y16497621D01*
X1088379Y16497619D01*
X956349Y16442931D01*
X956340Y16442926D01*
X837521Y16363533D01*
X837517Y16363530D01*
X736470Y16262483D01*
X727602Y16249210D01*
X673989Y16204406D01*
X604664Y16195699D01*
X541637Y16225854D01*
X504918Y16285298D01*
X500500Y16318102D01*
X500500Y17874327D01*
X520185Y17941366D01*
X568204Y17984811D01*
X609283Y18005741D01*
X757318Y18113294D01*
X886706Y18242682D01*
X886708Y18242686D01*
X886711Y18242688D01*
X971906Y18359951D01*
X994259Y18390717D01*
X1077331Y18553755D01*
X1133876Y18727781D01*
X1149243Y18824803D01*
X1162500Y18908504D01*
X1162500Y19091497D01*
X1138363Y19243886D01*
X1133876Y19272219D01*
X1077331Y19446245D01*
X994259Y19609283D01*
X967359Y19646308D01*
X886711Y19757313D01*
X757312Y19886712D01*
X609284Y19994259D01*
X568204Y20015191D01*
X517408Y20063166D01*
X500500Y20125675D01*
X500500Y25154866D01*
X520185Y25221905D01*
X572989Y25267660D01*
X642147Y25277604D01*
X671950Y25269428D01*
X766503Y25230263D01*
X916106Y25200505D01*
X921153Y25199501D01*
X921156Y25199500D01*
X921158Y25199500D01*
X1078844Y25199500D01*
X1078845Y25199501D01*
X1233497Y25230263D01*
X1379179Y25290606D01*
X1431110Y25325306D01*
X1497785Y25346184D01*
X1565165Y25327700D01*
X1568863Y25325324D01*
X1620821Y25290606D01*
X1620823Y25290605D01*
X1620825Y25290604D01*
X1751566Y25236450D01*
X1766503Y25230263D01*
X1916106Y25200505D01*
X1921153Y25199501D01*
X1921156Y25199500D01*
X1921158Y25199500D01*
X2078844Y25199500D01*
X2078845Y25199501D01*
X2233497Y25230263D01*
X2379179Y25290606D01*
X2510289Y25378211D01*
X2621789Y25489711D01*
X2709394Y25620821D01*
X2712719Y25628847D01*
X2753793Y25728011D01*
X2769737Y25766503D01*
X2800500Y25921158D01*
X2800500Y25935258D01*
X2820185Y26002297D01*
X2836819Y26022939D01*
X3272139Y26458259D01*
X3333462Y26491744D01*
X3359820Y26494578D01*
X6313500Y26494578D01*
X6380539Y26474893D01*
G37*
G04 #@! TD.AperFunction*
G04 #@! TA.AperFunction,Conductor*
G36*
X29244033Y16794145D02*
G01*
X29264675Y16777511D01*
X29330005Y16712181D01*
X29363490Y16650858D01*
X29358506Y16581166D01*
X29316634Y16525233D01*
X29251170Y16500816D01*
X29242324Y16500500D01*
X27663001Y16500500D01*
X27633560Y16509145D01*
X27603574Y16515668D01*
X27598558Y16519423D01*
X27595962Y16520185D01*
X27575320Y16536819D01*
X27509990Y16602149D01*
X27476505Y16663472D01*
X27481489Y16733164D01*
X27523361Y16789097D01*
X27588825Y16813514D01*
X27597671Y16813830D01*
X29176994Y16813830D01*
X29244033Y16794145D01*
G37*
G04 #@! TD.AperFunction*
G04 #@! TA.AperFunction,Conductor*
G36*
X27064157Y18146950D02*
G01*
X27073119Y18148238D01*
X27097159Y18137260D01*
X27122511Y18129815D01*
X27128438Y18122975D01*
X27136675Y18119213D01*
X27150964Y18096979D01*
X27168266Y18077011D01*
X27170553Y18066497D01*
X27174449Y18060435D01*
X27179472Y18025500D01*
X27179472Y17938830D01*
X27159787Y17871791D01*
X27106983Y17826036D01*
X27055472Y17814830D01*
X20049500Y17814830D01*
X19982461Y17834515D01*
X19936706Y17887319D01*
X19925500Y17938830D01*
X19925500Y18025500D01*
X19945185Y18092539D01*
X19997989Y18138294D01*
X20049500Y18149500D01*
X27055472Y18149500D01*
X27064157Y18146950D01*
G37*
G04 #@! TD.AperFunction*
G04 #@! TA.AperFunction,Conductor*
G36*
X15039152Y29479815D02*
G01*
X15084907Y29427011D01*
X15094851Y29357853D01*
X15072432Y29302617D01*
X15016109Y29225097D01*
X14965476Y29155406D01*
X14876117Y28980030D01*
X14815290Y28792827D01*
X14784500Y28598423D01*
X14784500Y28401578D01*
X14815290Y28207174D01*
X14876117Y28019971D01*
X14946781Y27881286D01*
X14965476Y27844595D01*
X15081172Y27685354D01*
X15220354Y27546172D01*
X15379595Y27430476D01*
X15462455Y27388257D01*
X15554970Y27341118D01*
X15554972Y27341118D01*
X15554975Y27341116D01*
X15613962Y27321950D01*
X15742173Y27280291D01*
X15936578Y27249500D01*
X15936583Y27249500D01*
X16133422Y27249500D01*
X16327826Y27280291D01*
X16515025Y27341116D01*
X16690405Y27430476D01*
X16849646Y27546172D01*
X16988828Y27685354D01*
X17100184Y27838622D01*
X17155512Y27881286D01*
X17225125Y27887265D01*
X17286920Y27854659D01*
X17321277Y27793821D01*
X17324500Y27765736D01*
X17324500Y27618483D01*
X17335292Y27550343D01*
X17339354Y27524696D01*
X17396950Y27411658D01*
X17396952Y27411656D01*
X17396954Y27411653D01*
X17486652Y27321955D01*
X17486654Y27321954D01*
X17486658Y27321950D01*
X17584266Y27272216D01*
X17599698Y27264353D01*
X17693475Y27249501D01*
X17693481Y27249500D01*
X19456518Y27249501D01*
X19550304Y27264354D01*
X19663342Y27321950D01*
X19753050Y27411658D01*
X19810646Y27524696D01*
X19810646Y27524698D01*
X19810647Y27524699D01*
X19825499Y27618476D01*
X19825500Y27618481D01*
X19825499Y29375501D01*
X19845184Y29442539D01*
X19897987Y29488294D01*
X19949499Y29499500D01*
X44375500Y29499500D01*
X44442539Y29479815D01*
X44488294Y29427011D01*
X44499500Y29375500D01*
X44499500Y28125675D01*
X44479815Y28058636D01*
X44431796Y28015191D01*
X44390715Y27994259D01*
X44242687Y27886712D01*
X44113288Y27757313D01*
X44005743Y27609287D01*
X43922670Y27446248D01*
X43866123Y27272216D01*
X43837500Y27091497D01*
X43837500Y26908504D01*
X43859479Y26769736D01*
X43866124Y26727781D01*
X43922669Y26553755D01*
X44002224Y26397619D01*
X44005743Y26390714D01*
X44113288Y26242688D01*
X44113294Y26242682D01*
X44242682Y26113294D01*
X44390717Y26005741D01*
X44431795Y25984811D01*
X44482590Y25936839D01*
X44499500Y25874327D01*
X44499500Y20125675D01*
X44495843Y20113223D01*
X44496873Y20100284D01*
X44486187Y20080340D01*
X44479815Y20058636D01*
X44469246Y20048718D01*
X44463878Y20038696D01*
X44439675Y20020965D01*
X44435793Y20017320D01*
X44433799Y20016211D01*
X44390717Y19994259D01*
X44378834Y19985627D01*
X44372293Y19981986D01*
X44345217Y19975870D01*
X44319075Y19966543D01*
X44311614Y19968279D01*
X44304141Y19966590D01*
X44278052Y19976085D01*
X44251022Y19982371D01*
X44245684Y19987864D01*
X44238484Y19990484D01*
X44221672Y20012572D01*
X44202328Y20032478D01*
X44200305Y20040646D01*
X44196168Y20046082D01*
X44194846Y20062692D01*
X44188000Y20090341D01*
X44188000Y20171458D01*
X44160120Y20311615D01*
X44160119Y20311616D01*
X44160119Y20311620D01*
X44105429Y20443653D01*
X44105428Y20443654D01*
X44105425Y20443660D01*
X44026032Y20562479D01*
X44026029Y20562483D01*
X43924982Y20663530D01*
X43924978Y20663533D01*
X43806159Y20742926D01*
X43806150Y20742931D01*
X43674120Y20797619D01*
X43674114Y20797621D01*
X43533957Y20825500D01*
X43533955Y20825500D01*
X43391045Y20825500D01*
X43391043Y20825500D01*
X43250885Y20797621D01*
X43250879Y20797619D01*
X43118849Y20742931D01*
X43118840Y20742926D01*
X43000021Y20663533D01*
X43000017Y20663530D01*
X42998307Y20661819D01*
X42997190Y20661210D01*
X42995311Y20659667D01*
X42995018Y20660024D01*
X42936984Y20628334D01*
X42910626Y20625500D01*
X41230815Y20625500D01*
X41103964Y20591511D01*
X41034115Y20593174D01*
X40976252Y20632337D01*
X40968770Y20642395D01*
X40888532Y20762479D01*
X40888529Y20762483D01*
X40787482Y20863530D01*
X40787478Y20863533D01*
X40668659Y20942926D01*
X40668650Y20942931D01*
X40536620Y20997619D01*
X40536614Y20997621D01*
X40428270Y21019172D01*
X40366359Y21051557D01*
X40331785Y21112273D01*
X40335525Y21182042D01*
X40376392Y21238714D01*
X40441410Y21264296D01*
X40452462Y21264789D01*
X41456610Y21264789D01*
X41523649Y21245104D01*
X41544291Y21228470D01*
X41653508Y21119253D01*
X41653512Y21119250D01*
X41784615Y21031649D01*
X41784628Y21031642D01*
X41925386Y20973339D01*
X41930304Y20971302D01*
X42060019Y20945500D01*
X42084954Y20940540D01*
X42084957Y20940539D01*
X42084959Y20940539D01*
X42242645Y20940539D01*
X42242646Y20940540D01*
X42397298Y20971302D01*
X42542980Y21031645D01*
X42674090Y21119250D01*
X42785590Y21230750D01*
X42873195Y21361860D01*
X42878082Y21373657D01*
X42893806Y21411620D01*
X42933538Y21507542D01*
X42964301Y21662197D01*
X42964301Y21819881D01*
X42964301Y21819884D01*
X42964300Y21819886D01*
X42951258Y21885451D01*
X42933538Y21974536D01*
X42930022Y21983024D01*
X42873198Y22120212D01*
X42873191Y22120225D01*
X42785590Y22251328D01*
X42785587Y22251332D01*
X42674093Y22362826D01*
X42674089Y22362829D01*
X42542986Y22450430D01*
X42542973Y22450437D01*
X42397302Y22510775D01*
X42397291Y22510778D01*
X42396456Y22510944D01*
X42396059Y22511152D01*
X42391466Y22512545D01*
X42391730Y22513417D01*
X42334547Y22543333D01*
X42299976Y22604050D01*
X42303720Y22673820D01*
X42306093Y22680013D01*
X42312668Y22695886D01*
X42320636Y22715122D01*
X42336218Y22793458D01*
X42348517Y22855285D01*
X42348517Y22998200D01*
X42320637Y23138357D01*
X42320636Y23138358D01*
X42320636Y23138362D01*
X42265946Y23270395D01*
X42265945Y23270396D01*
X42265942Y23270402D01*
X42186549Y23389221D01*
X42186546Y23389225D01*
X42085499Y23490272D01*
X42085495Y23490275D01*
X41966676Y23569668D01*
X41966667Y23569673D01*
X41834637Y23624361D01*
X41834631Y23624363D01*
X41694474Y23652242D01*
X41694472Y23652242D01*
X41551562Y23652242D01*
X41551560Y23652242D01*
X41411402Y23624363D01*
X41411396Y23624361D01*
X41279366Y23569673D01*
X41279357Y23569668D01*
X41160538Y23490275D01*
X41160534Y23490272D01*
X41059487Y23389225D01*
X41059484Y23389221D01*
X40980091Y23270402D01*
X40980086Y23270393D01*
X40925398Y23138363D01*
X40925396Y23138357D01*
X40897517Y22998200D01*
X40897517Y22998197D01*
X40897517Y22855287D01*
X40897517Y22855285D01*
X40897516Y22855285D01*
X40925396Y22715128D01*
X40925398Y22715122D01*
X40980086Y22583092D01*
X40980091Y22583083D01*
X40996397Y22558680D01*
X41017275Y22492003D01*
X40998791Y22424622D01*
X40946812Y22377932D01*
X40893295Y22365789D01*
X38772473Y22365789D01*
X38705434Y22385474D01*
X38659679Y22438278D01*
X38649923Y22506125D01*
X38649903Y22506127D01*
X38649911Y22506211D01*
X38649735Y22507436D01*
X38650433Y22511511D01*
X38650500Y22512190D01*
X38650500Y22669879D01*
X38650499Y22669881D01*
X38648651Y22679173D01*
X38619737Y22824531D01*
X38607193Y22854815D01*
X38559397Y22970207D01*
X38559390Y22970220D01*
X38471789Y23101323D01*
X38471786Y23101327D01*
X38360292Y23212821D01*
X38360288Y23212824D01*
X38229185Y23300425D01*
X38229172Y23300432D01*
X38083501Y23360770D01*
X38083489Y23360773D01*
X37928845Y23391534D01*
X37928842Y23391534D01*
X37873898Y23391534D01*
X37811898Y23408147D01*
X37763171Y23436280D01*
X37763170Y23436281D01*
X37763169Y23436281D01*
X37616800Y23475500D01*
X37616799Y23475500D01*
X36800464Y23475500D01*
X36733425Y23495185D01*
X36687670Y23547989D01*
X36677726Y23617147D01*
X36678846Y23623687D01*
X36680499Y23632003D01*
X36680500Y23632005D01*
X36680500Y23769996D01*
X36653581Y23905323D01*
X36653580Y23905324D01*
X36653580Y23905328D01*
X36653578Y23905333D01*
X36600778Y24032805D01*
X36600771Y24032818D01*
X36524114Y24147542D01*
X36524111Y24147546D01*
X36426545Y24245112D01*
X36426541Y24245115D01*
X36311817Y24321772D01*
X36311804Y24321779D01*
X36184332Y24374579D01*
X36184322Y24374582D01*
X36048995Y24401500D01*
X36048993Y24401500D01*
X35911007Y24401500D01*
X35911000Y24401500D01*
X35905180Y24400927D01*
X35836535Y24413948D01*
X35789929Y24455439D01*
X35779169Y24471542D01*
X35779166Y24471546D01*
X35681600Y24569112D01*
X35681596Y24569115D01*
X35566872Y24645772D01*
X35566859Y24645779D01*
X35439387Y24698579D01*
X35439377Y24698582D01*
X35304050Y24725500D01*
X35304048Y24725500D01*
X35212989Y24725500D01*
X35205927Y24727574D01*
X35198672Y24726329D01*
X35172851Y24737286D01*
X35145950Y24745185D01*
X35139543Y24751420D01*
X35134354Y24753622D01*
X35112400Y24777837D01*
X35110527Y24779660D01*
X35110206Y24780131D01*
X35066962Y24844850D01*
X35064230Y24847582D01*
X35058724Y24855660D01*
X35049606Y24883863D01*
X35038020Y24911141D01*
X35038978Y24916738D01*
X35037231Y24922142D01*
X35044808Y24950798D01*
X35049809Y24980009D01*
X35053641Y24984200D01*
X35055093Y24989690D01*
X35076958Y25009699D01*
X35096960Y25031571D01*
X35102573Y25033139D01*
X35106639Y25036858D01*
X35130660Y25040979D01*
X35161186Y25049500D01*
X36767060Y25049500D01*
X36834099Y25029815D01*
X36854742Y25013180D01*
X36889707Y24978214D01*
X36889711Y24978211D01*
X37020814Y24890610D01*
X37020827Y24890603D01*
X37160378Y24832800D01*
X37166503Y24830263D01*
X37297520Y24804202D01*
X37321153Y24799501D01*
X37321156Y24799500D01*
X37321158Y24799500D01*
X37478844Y24799500D01*
X37478845Y24799501D01*
X37633497Y24830263D01*
X37779179Y24890606D01*
X37910289Y24978211D01*
X38021789Y25089711D01*
X38109394Y25220821D01*
X38169737Y25366503D01*
X38200500Y25521158D01*
X38200500Y25628543D01*
X38574499Y25628543D01*
X38602379Y25488386D01*
X38602381Y25488380D01*
X38657069Y25356350D01*
X38657074Y25356341D01*
X38736467Y25237522D01*
X38736470Y25237518D01*
X38837517Y25136471D01*
X38837521Y25136468D01*
X38956340Y25057075D01*
X38956346Y25057072D01*
X38956347Y25057071D01*
X39088380Y25002381D01*
X39088384Y25002381D01*
X39088385Y25002380D01*
X39228542Y24974500D01*
X39228545Y24974500D01*
X39371457Y24974500D01*
X39477294Y24995553D01*
X39511620Y25002381D01*
X39643653Y25057071D01*
X39762479Y25136468D01*
X39863532Y25237521D01*
X39942929Y25356347D01*
X39997619Y25488380D01*
X40015735Y25579455D01*
X40025500Y25628543D01*
X40025500Y25771458D01*
X39997620Y25911615D01*
X39997619Y25911616D01*
X39997619Y25911620D01*
X39955318Y26013742D01*
X39942930Y26043651D01*
X39942925Y26043660D01*
X39863532Y26162479D01*
X39863529Y26162483D01*
X39762482Y26263530D01*
X39762478Y26263533D01*
X39643659Y26342926D01*
X39643650Y26342931D01*
X39511620Y26397619D01*
X39511614Y26397621D01*
X39371457Y26425500D01*
X39371455Y26425500D01*
X39228545Y26425500D01*
X39228543Y26425500D01*
X39088385Y26397621D01*
X39088379Y26397619D01*
X38956349Y26342931D01*
X38956340Y26342926D01*
X38837521Y26263533D01*
X38837517Y26263530D01*
X38736470Y26162483D01*
X38736467Y26162479D01*
X38657074Y26043660D01*
X38657069Y26043651D01*
X38602381Y25911621D01*
X38602379Y25911615D01*
X38574500Y25771458D01*
X38574500Y25771455D01*
X38574500Y25628545D01*
X38574500Y25628543D01*
X38574499Y25628543D01*
X38200500Y25628543D01*
X38200500Y25678842D01*
X38200500Y25678845D01*
X38200499Y25678847D01*
X38185679Y25753356D01*
X38169738Y25833492D01*
X38169737Y25833493D01*
X38169737Y25833497D01*
X38169735Y25833502D01*
X38109397Y25979173D01*
X38109390Y25979186D01*
X38021789Y26110289D01*
X38021786Y26110293D01*
X37910292Y26221787D01*
X37910288Y26221790D01*
X37779185Y26309391D01*
X37779172Y26309398D01*
X37633501Y26369736D01*
X37633489Y26369739D01*
X37478845Y26400500D01*
X37478842Y26400500D01*
X37321158Y26400500D01*
X37321155Y26400500D01*
X37166510Y26369739D01*
X37166498Y26369736D01*
X37020827Y26309398D01*
X37020814Y26309391D01*
X36889711Y26221790D01*
X36889707Y26221787D01*
X36854742Y26186820D01*
X36793420Y26153334D01*
X36767060Y26150500D01*
X32979766Y26150500D01*
X32912727Y26170185D01*
X32910875Y26171398D01*
X32779185Y26259391D01*
X32779172Y26259398D01*
X32633501Y26319736D01*
X32633489Y26319739D01*
X32478845Y26350500D01*
X32478842Y26350500D01*
X32321158Y26350500D01*
X32321155Y26350500D01*
X32166510Y26319739D01*
X32166498Y26319736D01*
X32020827Y26259398D01*
X32020814Y26259391D01*
X31889711Y26171790D01*
X31889707Y26171787D01*
X31778213Y26060293D01*
X31778210Y26060289D01*
X31690609Y25929186D01*
X31690602Y25929173D01*
X31630264Y25783502D01*
X31630261Y25783490D01*
X31599500Y25628847D01*
X31599500Y25471154D01*
X31630261Y25316511D01*
X31630264Y25316499D01*
X31690602Y25170828D01*
X31690609Y25170815D01*
X31778210Y25039712D01*
X31778213Y25039708D01*
X31855740Y24962181D01*
X31889225Y24900858D01*
X31884241Y24831166D01*
X31842369Y24775233D01*
X31776905Y24750816D01*
X31768059Y24750500D01*
X27937309Y24750500D01*
X27870270Y24770185D01*
X27824515Y24822989D01*
X27822746Y24827052D01*
X27822198Y24828375D01*
X27820775Y24831811D01*
X27820773Y24831814D01*
X27820771Y24831818D01*
X27744114Y24946542D01*
X27744111Y24946546D01*
X27646545Y25044112D01*
X27646541Y25044115D01*
X27531817Y25120772D01*
X27531804Y25120779D01*
X27404332Y25173579D01*
X27404322Y25173582D01*
X27268995Y25200500D01*
X27268993Y25200500D01*
X27131007Y25200500D01*
X27131005Y25200500D01*
X26995677Y25173582D01*
X26995667Y25173579D01*
X26868195Y25120779D01*
X26868182Y25120772D01*
X26753458Y25044115D01*
X26753454Y25044112D01*
X26655888Y24946546D01*
X26655885Y24946542D01*
X26579228Y24831818D01*
X26579221Y24831805D01*
X26526421Y24704333D01*
X26526418Y24704323D01*
X26499500Y24568996D01*
X26499500Y24568993D01*
X26499500Y24431007D01*
X26500954Y24423694D01*
X26494729Y24354103D01*
X26451868Y24298925D01*
X26385979Y24275678D01*
X26379338Y24275500D01*
X18276851Y24275500D01*
X18149556Y24241392D01*
X18035430Y24175500D01*
X18035427Y24175498D01*
X17716749Y23856819D01*
X17655426Y23823334D01*
X17629068Y23820500D01*
X16737781Y23820500D01*
X16670742Y23840185D01*
X16624987Y23892989D01*
X16615043Y23962147D01*
X16616164Y23968692D01*
X16616970Y23972741D01*
X16635067Y24063724D01*
X16650500Y24141307D01*
X16650500Y24318694D01*
X16650499Y24318696D01*
X16615896Y24492659D01*
X16615894Y24492664D01*
X16615894Y24492666D01*
X16599775Y24531582D01*
X16592307Y24601045D01*
X16615071Y24653341D01*
X16693352Y24757911D01*
X16693354Y24757914D01*
X16743596Y24892621D01*
X16743598Y24892628D01*
X16749999Y24952156D01*
X16750000Y24952173D01*
X16750000Y25250000D01*
X15959618Y25250000D01*
X16010064Y25300446D01*
X16052851Y25374555D01*
X16075000Y25457213D01*
X16075000Y25542787D01*
X16052851Y25625445D01*
X16010064Y25699554D01*
X15959618Y25750000D01*
X16750000Y25750000D01*
X16764181Y25764181D01*
X16825504Y25797666D01*
X16851862Y25800500D01*
X19758423Y25800500D01*
X19825462Y25780815D01*
X19871217Y25728011D01*
X19880040Y25700692D01*
X19902379Y25588386D01*
X19902381Y25588380D01*
X19957069Y25456350D01*
X19957074Y25456341D01*
X20036467Y25337522D01*
X20036470Y25337518D01*
X20137517Y25236471D01*
X20137521Y25236468D01*
X20256340Y25157075D01*
X20256346Y25157072D01*
X20256347Y25157071D01*
X20388380Y25102381D01*
X20388384Y25102381D01*
X20388385Y25102380D01*
X20528542Y25074500D01*
X20528545Y25074500D01*
X20671457Y25074500D01*
X20765751Y25093258D01*
X20811620Y25102381D01*
X20943653Y25157071D01*
X21062479Y25236468D01*
X21163532Y25337521D01*
X21242929Y25456347D01*
X21297619Y25588380D01*
X21315614Y25678847D01*
X21325500Y25728543D01*
X21325500Y25871458D01*
X21297620Y26011615D01*
X21297619Y26011616D01*
X21297619Y26011620D01*
X21242929Y26143653D01*
X21242927Y26143655D01*
X21242923Y26143663D01*
X21163532Y26262479D01*
X21163529Y26262483D01*
X21062482Y26363530D01*
X21062478Y26363533D01*
X20943659Y26442926D01*
X20943650Y26442931D01*
X20811620Y26497619D01*
X20811614Y26497621D01*
X20671457Y26525500D01*
X20671455Y26525500D01*
X20633676Y26525500D01*
X20566637Y26545185D01*
X20545995Y26561819D01*
X20406316Y26701498D01*
X20406314Y26701500D01*
X20349250Y26734446D01*
X20292187Y26767392D01*
X20197891Y26792658D01*
X20164892Y26801500D01*
X14816892Y26801500D01*
X14685108Y26801500D01*
X14557812Y26767392D01*
X14443686Y26701500D01*
X14288523Y26546339D01*
X14227202Y26512855D01*
X14157510Y26517839D01*
X14138844Y26526634D01*
X14122137Y26536280D01*
X14122136Y26536281D01*
X14122135Y26536281D01*
X13975766Y26575500D01*
X13975765Y26575500D01*
X11799954Y26575500D01*
X11732915Y26595185D01*
X11712273Y26611819D01*
X10793501Y27530591D01*
X10793499Y27530593D01*
X10727884Y27568476D01*
X10662270Y27606359D01*
X10589084Y27625969D01*
X10515900Y27645578D01*
X3145845Y27645578D01*
X2994312Y27645578D01*
X2847941Y27606359D01*
X2716713Y27530593D01*
X2716710Y27530591D01*
X2022939Y26836819D01*
X1961616Y26803334D01*
X1935258Y26800500D01*
X1921155Y26800500D01*
X1766510Y26769739D01*
X1766498Y26769736D01*
X1620827Y26709398D01*
X1620814Y26709391D01*
X1568891Y26674696D01*
X1557717Y26671198D01*
X1548680Y26663753D01*
X1524984Y26660948D01*
X1502214Y26653818D01*
X1489158Y26656707D01*
X1479295Y26655539D01*
X1460292Y26663094D01*
X1445689Y26666325D01*
X1438110Y26670018D01*
X1379179Y26709394D01*
X1233497Y26769737D01*
X1233393Y26769758D01*
X1229698Y26771558D01*
X1206542Y26792658D01*
X1182153Y26812311D01*
X1180925Y26815999D01*
X1178053Y26818616D01*
X1169981Y26848880D01*
X1160088Y26878605D01*
X1160452Y26884608D01*
X1160048Y26886126D01*
X1160661Y26888038D01*
X1161536Y26902424D01*
X1162500Y26908509D01*
X1162500Y27091491D01*
X1162500Y27091497D01*
X1137474Y27249501D01*
X1133876Y27272219D01*
X1077331Y27446245D01*
X994259Y27609283D01*
X987348Y27618795D01*
X886711Y27757313D01*
X757312Y27886712D01*
X609284Y27994259D01*
X568204Y28015191D01*
X517408Y28063166D01*
X500500Y28125675D01*
X500500Y29375500D01*
X520185Y29442539D01*
X572989Y29488294D01*
X624500Y29499500D01*
X14972113Y29499500D01*
X15039152Y29479815D01*
G37*
G04 #@! TD.AperFunction*
G04 #@! TA.AperFunction,Conductor*
G36*
X27260713Y22871637D02*
G01*
X27270797Y22872903D01*
X27293672Y22861959D01*
X27318001Y22854815D01*
X27324655Y22847136D01*
X27333824Y22842749D01*
X27347152Y22821173D01*
X27363756Y22802011D01*
X27365202Y22791954D01*
X27370544Y22783306D01*
X27370091Y22757950D01*
X27373700Y22732853D01*
X27369445Y22721750D01*
X27369297Y22713447D01*
X27354064Y22681609D01*
X27352444Y22679186D01*
X27352437Y22679173D01*
X27292099Y22533502D01*
X27292096Y22533490D01*
X27261335Y22378847D01*
X27261335Y22378842D01*
X27261335Y22221158D01*
X27261335Y22221156D01*
X27261334Y22221156D01*
X27266170Y22196849D01*
X27259943Y22127257D01*
X27217080Y22072080D01*
X27151191Y22048835D01*
X27144553Y22048657D01*
X19099014Y22048657D01*
X19031975Y22068342D01*
X18986220Y22121146D01*
X18976276Y22190304D01*
X19005301Y22253860D01*
X19037013Y22280044D01*
X19048403Y22286620D01*
X19157314Y22349500D01*
X19645995Y22838181D01*
X19707318Y22871666D01*
X19733676Y22874500D01*
X27250962Y22874500D01*
X27260713Y22871637D01*
G37*
G04 #@! TD.AperFunction*
G04 #@! TA.AperFunction,Conductor*
G36*
X31017539Y22304815D02*
G01*
X31063294Y22252011D01*
X31074500Y22200500D01*
X31074500Y22172657D01*
X31054815Y22105618D01*
X31002011Y22059863D01*
X30950500Y22048657D01*
X28979117Y22048657D01*
X28912078Y22068342D01*
X28866323Y22121146D01*
X28856379Y22190304D01*
X28857499Y22196847D01*
X28862335Y22221158D01*
X28862335Y22221161D01*
X28863037Y22224690D01*
X28895422Y22286601D01*
X28956137Y22321176D01*
X28984655Y22324500D01*
X30950500Y22324500D01*
X31017539Y22304815D01*
G37*
G04 #@! TD.AperFunction*
G04 #@! TA.AperFunction,Conductor*
G36*
X35709528Y22321637D02*
G01*
X35719612Y22322903D01*
X35742487Y22311959D01*
X35766816Y22304815D01*
X35773470Y22297136D01*
X35782639Y22292749D01*
X35795967Y22271173D01*
X35812571Y22252011D01*
X35814017Y22241954D01*
X35819359Y22233306D01*
X35818906Y22207950D01*
X35822515Y22182853D01*
X35818260Y22171750D01*
X35818112Y22163447D01*
X35802879Y22131610D01*
X35784275Y22103767D01*
X35730663Y22058961D01*
X35681173Y22048657D01*
X32649500Y22048657D01*
X32582461Y22068342D01*
X32536706Y22121146D01*
X32525500Y22172657D01*
X32525500Y22200500D01*
X32545185Y22267539D01*
X32597989Y22313294D01*
X32649500Y22324500D01*
X35699777Y22324500D01*
X35709528Y22321637D01*
G37*
G04 #@! TD.AperFunction*
G04 #@! TA.AperFunction,Conductor*
G36*
X33895075Y25046398D02*
G01*
X33906021Y25047620D01*
X33928008Y25036728D01*
X33951549Y25029815D01*
X33958759Y25021494D01*
X33968629Y25016604D01*
X33981237Y24995553D01*
X33997304Y24977011D01*
X33998871Y24966111D01*
X34004530Y24956663D01*
X34003755Y24932141D01*
X34007248Y24907853D01*
X34002660Y24897441D01*
X34002325Y24886828D01*
X33986658Y24855202D01*
X33981299Y24847416D01*
X33978734Y24844850D01*
X33952031Y24804888D01*
X33951560Y24804202D01*
X33925101Y24782700D01*
X33898903Y24760804D01*
X33898024Y24760694D01*
X33897338Y24760136D01*
X33849412Y24750500D01*
X33031941Y24750500D01*
X32964902Y24770185D01*
X32919147Y24822989D01*
X32909203Y24892147D01*
X32938228Y24955703D01*
X32944259Y24962180D01*
X32995258Y25013180D01*
X33056581Y25046666D01*
X33082940Y25049500D01*
X33884510Y25049500D01*
X33895075Y25046398D01*
G37*
G04 #@! TD.AperFunction*
G04 #@! TA.AperFunction,Conductor*
G36*
X10626359Y26052800D02*
G01*
X10672788Y26023544D01*
X11049697Y25646635D01*
X11156847Y25539485D01*
X11161347Y25536887D01*
X11209562Y25486320D01*
X11222786Y25417713D01*
X11196818Y25352849D01*
X11139904Y25312320D01*
X11099347Y25305500D01*
X10221419Y25305500D01*
X10154380Y25325185D01*
X10108625Y25377989D01*
X10098681Y25447147D01*
X10127706Y25510703D01*
X10152528Y25532602D01*
X10187148Y25555736D01*
X10222643Y25579452D01*
X10323696Y25680505D01*
X10403093Y25799331D01*
X10457783Y25931364D01*
X10463490Y25960056D01*
X10495874Y26021965D01*
X10556589Y26056539D01*
X10626359Y26052800D01*
G37*
G04 #@! TD.AperFunction*
G04 #@! TD*
M02*
