G04 #@! TF.GenerationSoftware,KiCad,Pcbnew,9.0.1-9.0.1-0~ubuntu22.04.1*
G04 #@! TF.CreationDate,2025-04-13T11:07:53-04:00*
G04 #@! TF.ProjectId,TTExperimentModule,54544578-7065-4726-996d-656e744d6f64,1.0*
G04 #@! TF.SameCoordinates,PX10e4380PY2d07198*
G04 #@! TF.FileFunction,Legend,Top*
G04 #@! TF.FilePolarity,Positive*
%FSLAX46Y46*%
G04 Gerber Fmt 4.6, Leading zero omitted, Abs format (unit mm)*
G04 Created by KiCad (PCBNEW 9.0.1-9.0.1-0~ubuntu22.04.1) date 2025-04-13 11:07:53*
%MOMM*%
%LPD*%
G01*
G04 APERTURE LIST*
%ADD10C,0.300000*%
G04 APERTURE END LIST*
D10*
X47673558Y14260362D02*
X47673558Y16260362D01*
X47673558Y16260362D02*
X48816415Y14260362D01*
X48816415Y14260362D02*
X48816415Y16260362D01*
X50149748Y16260362D02*
X50530701Y16260362D01*
X50530701Y16260362D02*
X50721177Y16165124D01*
X50721177Y16165124D02*
X50911653Y15974648D01*
X50911653Y15974648D02*
X51006891Y15593696D01*
X51006891Y15593696D02*
X51006891Y14927029D01*
X51006891Y14927029D02*
X50911653Y14546077D01*
X50911653Y14546077D02*
X50721177Y14355600D01*
X50721177Y14355600D02*
X50530701Y14260362D01*
X50530701Y14260362D02*
X50149748Y14260362D01*
X50149748Y14260362D02*
X49959272Y14355600D01*
X49959272Y14355600D02*
X49768796Y14546077D01*
X49768796Y14546077D02*
X49673558Y14927029D01*
X49673558Y14927029D02*
X49673558Y15593696D01*
X49673558Y15593696D02*
X49768796Y15974648D01*
X49768796Y15974648D02*
X49959272Y16165124D01*
X49959272Y16165124D02*
X50149748Y16260362D01*
X53292606Y14355600D02*
X53483082Y14260362D01*
X53483082Y14260362D02*
X53864034Y14260362D01*
X53864034Y14260362D02*
X54054511Y14355600D01*
X54054511Y14355600D02*
X54149749Y14546077D01*
X54149749Y14546077D02*
X54149749Y14641315D01*
X54149749Y14641315D02*
X54054511Y14831791D01*
X54054511Y14831791D02*
X53864034Y14927029D01*
X53864034Y14927029D02*
X53578320Y14927029D01*
X53578320Y14927029D02*
X53387844Y15022267D01*
X53387844Y15022267D02*
X53292606Y15212743D01*
X53292606Y15212743D02*
X53292606Y15307981D01*
X53292606Y15307981D02*
X53387844Y15498458D01*
X53387844Y15498458D02*
X53578320Y15593696D01*
X53578320Y15593696D02*
X53864034Y15593696D01*
X53864034Y15593696D02*
X54054511Y15498458D01*
X55006892Y14260362D02*
X55006892Y15593696D01*
X55006892Y16260362D02*
X54911654Y16165124D01*
X54911654Y16165124D02*
X55006892Y16069886D01*
X55006892Y16069886D02*
X55102130Y16165124D01*
X55102130Y16165124D02*
X55006892Y16260362D01*
X55006892Y16260362D02*
X55006892Y16069886D01*
X56244987Y14260362D02*
X56054511Y14355600D01*
X56054511Y14355600D02*
X55959273Y14546077D01*
X55959273Y14546077D02*
X55959273Y16260362D01*
X57006892Y14260362D02*
X57006892Y16260362D01*
X57197368Y15022267D02*
X57768797Y14260362D01*
X57768797Y15593696D02*
X57006892Y14831791D01*
X60054512Y14355600D02*
X60244988Y14260362D01*
X60244988Y14260362D02*
X60625940Y14260362D01*
X60625940Y14260362D02*
X60816417Y14355600D01*
X60816417Y14355600D02*
X60911655Y14546077D01*
X60911655Y14546077D02*
X60911655Y14641315D01*
X60911655Y14641315D02*
X60816417Y14831791D01*
X60816417Y14831791D02*
X60625940Y14927029D01*
X60625940Y14927029D02*
X60340226Y14927029D01*
X60340226Y14927029D02*
X60149750Y15022267D01*
X60149750Y15022267D02*
X60054512Y15212743D01*
X60054512Y15212743D02*
X60054512Y15307981D01*
X60054512Y15307981D02*
X60149750Y15498458D01*
X60149750Y15498458D02*
X60340226Y15593696D01*
X60340226Y15593696D02*
X60625940Y15593696D01*
X60625940Y15593696D02*
X60816417Y15498458D01*
X62625941Y14355600D02*
X62435465Y14260362D01*
X62435465Y14260362D02*
X62054512Y14260362D01*
X62054512Y14260362D02*
X61864036Y14355600D01*
X61864036Y14355600D02*
X61768798Y14450839D01*
X61768798Y14450839D02*
X61673560Y14641315D01*
X61673560Y14641315D02*
X61673560Y15212743D01*
X61673560Y15212743D02*
X61768798Y15403220D01*
X61768798Y15403220D02*
X61864036Y15498458D01*
X61864036Y15498458D02*
X62054512Y15593696D01*
X62054512Y15593696D02*
X62435465Y15593696D01*
X62435465Y15593696D02*
X62625941Y15498458D01*
X63483084Y14260362D02*
X63483084Y15593696D01*
X63483084Y15212743D02*
X63578322Y15403220D01*
X63578322Y15403220D02*
X63673560Y15498458D01*
X63673560Y15498458D02*
X63864036Y15593696D01*
X63864036Y15593696D02*
X64054513Y15593696D01*
X65483084Y14355600D02*
X65292608Y14260362D01*
X65292608Y14260362D02*
X64911655Y14260362D01*
X64911655Y14260362D02*
X64721179Y14355600D01*
X64721179Y14355600D02*
X64625941Y14546077D01*
X64625941Y14546077D02*
X64625941Y15307981D01*
X64625941Y15307981D02*
X64721179Y15498458D01*
X64721179Y15498458D02*
X64911655Y15593696D01*
X64911655Y15593696D02*
X65292608Y15593696D01*
X65292608Y15593696D02*
X65483084Y15498458D01*
X65483084Y15498458D02*
X65578322Y15307981D01*
X65578322Y15307981D02*
X65578322Y15117505D01*
X65578322Y15117505D02*
X64625941Y14927029D01*
X67197370Y14355600D02*
X67006894Y14260362D01*
X67006894Y14260362D02*
X66625941Y14260362D01*
X66625941Y14260362D02*
X66435465Y14355600D01*
X66435465Y14355600D02*
X66340227Y14546077D01*
X66340227Y14546077D02*
X66340227Y15307981D01*
X66340227Y15307981D02*
X66435465Y15498458D01*
X66435465Y15498458D02*
X66625941Y15593696D01*
X66625941Y15593696D02*
X67006894Y15593696D01*
X67006894Y15593696D02*
X67197370Y15498458D01*
X67197370Y15498458D02*
X67292608Y15307981D01*
X67292608Y15307981D02*
X67292608Y15117505D01*
X67292608Y15117505D02*
X66340227Y14927029D01*
X68149751Y15593696D02*
X68149751Y14260362D01*
X68149751Y15403220D02*
X68244989Y15498458D01*
X68244989Y15498458D02*
X68435465Y15593696D01*
X68435465Y15593696D02*
X68721180Y15593696D01*
X68721180Y15593696D02*
X68911656Y15498458D01*
X68911656Y15498458D02*
X69006894Y15307981D01*
X69006894Y15307981D02*
X69006894Y14260362D01*
X71483085Y15593696D02*
X71483085Y13593696D01*
X71483085Y15498458D02*
X71673561Y15593696D01*
X71673561Y15593696D02*
X72054514Y15593696D01*
X72054514Y15593696D02*
X72244990Y15498458D01*
X72244990Y15498458D02*
X72340228Y15403220D01*
X72340228Y15403220D02*
X72435466Y15212743D01*
X72435466Y15212743D02*
X72435466Y14641315D01*
X72435466Y14641315D02*
X72340228Y14450839D01*
X72340228Y14450839D02*
X72244990Y14355600D01*
X72244990Y14355600D02*
X72054514Y14260362D01*
X72054514Y14260362D02*
X71673561Y14260362D01*
X71673561Y14260362D02*
X71483085Y14355600D01*
X73292609Y14260362D02*
X73292609Y15593696D01*
X73292609Y15212743D02*
X73387847Y15403220D01*
X73387847Y15403220D02*
X73483085Y15498458D01*
X73483085Y15498458D02*
X73673561Y15593696D01*
X73673561Y15593696D02*
X73864038Y15593696D01*
X74530704Y14260362D02*
X74530704Y15593696D01*
X74530704Y16260362D02*
X74435466Y16165124D01*
X74435466Y16165124D02*
X74530704Y16069886D01*
X74530704Y16069886D02*
X74625942Y16165124D01*
X74625942Y16165124D02*
X74530704Y16260362D01*
X74530704Y16260362D02*
X74530704Y16069886D01*
X75483085Y15593696D02*
X75483085Y14260362D01*
X75483085Y15403220D02*
X75578323Y15498458D01*
X75578323Y15498458D02*
X75768799Y15593696D01*
X75768799Y15593696D02*
X76054514Y15593696D01*
X76054514Y15593696D02*
X76244990Y15498458D01*
X76244990Y15498458D02*
X76340228Y15307981D01*
X76340228Y15307981D02*
X76340228Y14260362D01*
X77006895Y15593696D02*
X77768799Y15593696D01*
X77292609Y16260362D02*
X77292609Y14546077D01*
X77292609Y14546077D02*
X77387847Y14355600D01*
X77387847Y14355600D02*
X77578323Y14260362D01*
X77578323Y14260362D02*
X77768799Y14260362D01*
X78435466Y14260362D02*
X78435466Y15593696D01*
X78435466Y16260362D02*
X78340228Y16165124D01*
X78340228Y16165124D02*
X78435466Y16069886D01*
X78435466Y16069886D02*
X78530704Y16165124D01*
X78530704Y16165124D02*
X78435466Y16260362D01*
X78435466Y16260362D02*
X78435466Y16069886D01*
X79387847Y15593696D02*
X79387847Y14260362D01*
X79387847Y15403220D02*
X79483085Y15498458D01*
X79483085Y15498458D02*
X79673561Y15593696D01*
X79673561Y15593696D02*
X79959276Y15593696D01*
X79959276Y15593696D02*
X80149752Y15498458D01*
X80149752Y15498458D02*
X80244990Y15307981D01*
X80244990Y15307981D02*
X80244990Y14260362D01*
X82054514Y15593696D02*
X82054514Y13974648D01*
X82054514Y13974648D02*
X81959276Y13784172D01*
X81959276Y13784172D02*
X81864038Y13688934D01*
X81864038Y13688934D02*
X81673561Y13593696D01*
X81673561Y13593696D02*
X81387847Y13593696D01*
X81387847Y13593696D02*
X81197371Y13688934D01*
X82054514Y14355600D02*
X81864038Y14260362D01*
X81864038Y14260362D02*
X81483085Y14260362D01*
X81483085Y14260362D02*
X81292609Y14355600D01*
X81292609Y14355600D02*
X81197371Y14450839D01*
X81197371Y14450839D02*
X81102133Y14641315D01*
X81102133Y14641315D02*
X81102133Y15212743D01*
X81102133Y15212743D02*
X81197371Y15403220D01*
X81197371Y15403220D02*
X81292609Y15498458D01*
X81292609Y15498458D02*
X81483085Y15593696D01*
X81483085Y15593696D02*
X81864038Y15593696D01*
X81864038Y15593696D02*
X82054514Y15498458D01*
M02*
